v 3.607637863476974 -2.589728865529101 -4.896397883752278
v 4.546005740403086 -2.379998529919038 -4.389856769281908
v 4.095725065171663 -2.164752117554285 -5.294875627024478
v 3.938304156217898 -2.232161439964705 -4.320443869214275
v 4.849472945382944 -2.479903465234347 -5.123561563961025
v 4.691990018042705 -2.377905321802812 -4.385698609936174
v 4.696198327489629 -2.232690737297517 -4.319244799890678
v 3.760942531121499 -2.586318649903101 -4.692156941025502
v 4.240776112999820 -2.326778008674121 -5.243951283775078
v 4.847538649099874 -2.232378883714246 -4.319886095474613
v 4.844776545925280 -2.372650165801308 -4.382337508722449
v 4.848994399228827 -2.322653634064782 -5.246713177286209
v 4.233471866297087 -2.517170404927918 -4.526242978285630
v 4.082669817253711 -2.380860029862446 -4.387065216479767
v 3.640249076137250 -2.378441097242055 -4.385909418765062
v 3.926013900527557 -2.382507920538688 -4.388451350191648
v 3.612080628639655 -2.583051652309972 -4.674904362980996
v 3.793757419628367 -2.345909695980501 -5.234413344906745
v 3.508196892996250 -2.358565819914407 -5.225190959523153
v 4.075151129483451 -2.516314199118241 -4.524677080567017
v 4.089968598852956 -2.332023381314871 -5.242380392457894
v 4.693387318650691 -2.507804402479766 -4.512426979308835
v 4.543731461586463 -2.511893933038770 -4.518731350574932
v 4.082301176775973 -2.488677541606176 -5.113431320862791
v 4.236929711963086 -2.484598289722487 -5.117350674803398
v 4.390332141306443 -2.515421970525913 -4.524384577907909
v 4.237779764175994 -2.380162373848615 -4.387233312874418
v 4.392117404079166 -2.321764923205505 -5.245980052142787
v 3.939944685697689 -2.339477169233573 -5.238090814154837
v 4.231058091019651 -2.591689692750987 -4.715565081760999
v 4.547505770379178 -2.480947839534723 -5.119843214503240
v 3.916094263022138 -2.585723203700662 -4.911348973420231
v 4.551754598282563 -2.319502533632199 -5.246994746110503
v 4.071702900856502 -2.591252263082771 -4.711785814458675
v 4.543858421804246 -2.581285959904617 -4.926991893521646
v 4.391054119430834 -2.482841109336787 -5.118442384766176
v 4.387745029801055 -2.591142076794516 -4.715676652871601
v 4.232682302612475 -2.582740985989891 -4.925173045307377
v 4.245918552671279 -2.156805234059512 -5.295061969980667
v 4.074936974246946 -2.584612462728676 -4.920195870051915
v 3.763717584159266 -2.587410548014997 -4.901841430471492
v 3.928356313061506 -2.492128141869017 -5.108451768501705
v 4.550010379446362 -2.145314805738980 -5.295999755522300
v 4.845552810917571 -2.498878568964035 -4.501635401741873
v 3.946724984629247 -2.172584806780379 -5.293871207770804
v 3.768777486884590 -2.508382963476709 -4.515035661512918
v 4.700003059945739 -2.480119406013725 -5.121944643025955
v 4.394866110832432 -2.380762861563044 -4.388353942618966
v 3.915633284218209 -2.513608954108007 -4.521804938436721
v 4.388740184837079 -2.581576180560385 -4.927106607550460
v 4.697885474378665 -2.582435831632052 -4.925594325430783
v 4.542496354116980 -2.590604468665726 -4.712095767704287
v 4.847737438328598 -2.586298429522286 -4.691311930114671
v 3.910280925532665 -2.588995401054710 -4.703835526293852
v 4.848980460408026 -2.583915024637591 -4.922373861700107
v 4.700534159645023 -2.144560748012453 -5.296131443796243
v 4.695584933934194 -2.590054879422688 -4.704463720234553
v 3.801319821363573 -2.180344830948688 -5.293081865729592
v 3.502920374409181 -2.229993197790660 -4.319302367615046
v 4.700348254007286 -2.320411288264226 -5.246432868639649
v 3.791549958645005 -2.234504484248916 -4.320399364817865
v 3.647296632197370 -2.233573961814485 -4.319085608296243
v 4.850128030385942 -2.146487719968905 -5.296351964461945
v 3.659341397330887 -2.188143793003620 -5.291517491761589
v 3.778415227414744 -2.496432025105623 -5.103495713638232
v 4.397395870991394 -2.149414181510806 -5.296100601848318
v 4.394937405874155 -2.230213199563696 -4.318702840371371
v 3.651829984355274 -2.349940380368778 -5.230679528721356
v 3.630053169635557 -2.498068767182547 -4.498921236719019
v 4.241620857881866 -2.229471408758131 -4.317851906527973
v 3.781165910882099 -2.383324908119157 -4.389596657318491
v 4.546755030323786 -2.232726563841423 -4.318947176680952
v 3.631505463101424 -2.493864351010643 -5.105949216782717
v 3.521407232824638 -2.196310606951849 -5.290438115112405
v 4.090816033805455 -2.230627478795630 -4.317795026173995
v 4.697018509506094 -4.624339546840353 -1.865417072471478
v 1.323693809960065 -4.819531359526263 -1.966127617962938
v 2.001045311626665 -4.186929046732942 -1.961156945262630
v 4.697813621728990 -4.952008951822691 -2.136993645694687
v 1.671894311785626 -4.197228944558010 -1.952447139486779
v 1.338534838359945 -4.206178118237176 -1.945023515942385
v 4.397359704305440 -4.390920256916004 -1.861984551316842
v 3.799732207982010 -4.364411340827140 -1.867799627096395
v 4.697608001814299 -4.405928098785248 -1.859341013732072
v 4.696670293144415 -4.818796908248654 -1.965767515238483
v 4.697112493215583 -4.203554359481769 -1.946655952065509
v 2.320997954163952 -4.175987340681070 -1.970296744539402
v 1.316790824271008 -4.999639499415827 -2.344426639220777
v 4.396950179246369 -4.996133237120725 -2.302015417524728
v 4.396709396193778 -4.197655870555925 -1.951768979677239
v 4.699139762460970 -4.999646886125173 -2.344425035112000
v 4.096656555082285 -4.190379606403420 -1.957993894990842
v 1.957639850671172 -4.919557894591569 -2.077622935721583
v 3.209519964859812 -4.347752424639701 -1.873855704158404
v 4.095313258821780 -4.993402760654073 -2.271688638390424
v 1.652145190232381 -4.602070519260751 -1.860944520612561
v 3.504251062088302 -4.353981662476420 -1.871571652561386
v 1.973919547575669 -4.581964968699637 -1.857071763871644
v 3.799292664400225 -4.180925967145452 -1.966049363119505
v 3.507047224035965 -4.171613917329026 -1.973991508790263
v 3.216490072039681 -4.166288629439387 -1.978539200878906
v 2.923665572213192 -4.165649720030792 -1.979083854227897
v 2.599899133087444 -4.556388683846976 -1.852332179922878
v 2.303256450869785 -4.359621021621160 -1.869775200934302
v 2.626233297482683 -4.167367313268794 -1.977610618753157
v 2.912694357583353 -4.346461120147120 -1.874328764160402
v 1.985626781705225 -4.373191893428910 -1.865075535553525
v 1.320592820184083 -4.952213862647597 -2.136642783541534
v 4.097671741271364 -4.585926398653773 -1.857892490833047
v 1.645090727116857 -4.795775872918253 -1.945363320160139
v 4.097658599263426 -4.377136289665338 -1.864339037239259
v 4.096148527667019 -4.921684219475087 -2.082301178668104
v 4.397354140828897 -4.934881820953983 -2.105576114912878
v 4.097087198344465 -4.778881471018734 -1.934659284585272
v 4.397735077515350 -4.603786289634543 -1.861070741137443
v 1.332199186635507 -4.408604754845342 -1.858607517832117
v 4.397480961671131 -4.797209964795581 -1.947454378409840
v 3.796027268218749 -4.912180559426385 -2.065484239143784
v 3.495482692618911 -4.903462102901091 -2.054989791593538
v 3.194054073610561 -4.898655839109887 -2.049188207361175
v 1.660894005264375 -4.389528757856682 -1.861777671339388
v 2.290262046288476 -4.566541932246743 -1.854155657634257
v 3.797421742290704 -4.764018111469995 -1.925890355020799
v 3.498111066565246 -4.753365231755066 -1.919647547444149
v 3.198217722771595 -4.747300377227067 -1.916062257994426
v 1.964786751807114 -4.774898185908223 -1.932665695723504
v 2.280365847034295 -4.759795232552714 -1.923519949411081
v 2.590727709889312 -4.750247664302504 -1.917789275724308
v 2.896237378145342 -4.746149611440461 -1.915353854575129
v 1.639339482957171 -4.933271085630977 -2.102489962740870
v 3.798848193695467 -4.571150248953696 -1.855186182679211
v 2.903634925799315 -4.552101640505178 -1.851525657856686
v 1.327229024241085 -4.626727134299458 -1.865719037226405
v 3.203397161123145 -4.553418135836402 -1.851824089293478
v 2.272753277963021 -4.908402572688523 -2.061465683804080
v 2.890305326582373 -4.897632682477113 -2.048003734589829
v 2.583642837303533 -4.900850294437063 -2.052031174209964
v 3.501134188739197 -4.559990354002936 -1.853066837746456
v 2.611557750989502 -4.350095944959220 -1.873028386447583
v 1.952166919325816 -4.992654077533231 -2.265897467418851
v 2.267151809494334 -4.988047224669078 -2.244695832419030
v 2.578166056493121 -4.985235514651605 -2.231805205187328
v 2.885806008743231 -4.983754479730099 -2.226670000937103
v 3.190466025066758 -4.983977946282594 -2.227657263215468
v 1.633910795569816 -4.996227160264601 -2.297992579808251
v 3.794870980156848 -4.989010105786099 -2.249860695521909
v 3.493234174941710 -4.985593338721706 -2.235296221010562
v 4.093152631858360 -4.999999999999810 -2.834596501333275
v 2.256559649936852 -5.000000000000256 -2.774680172344913
v 1.313557040001884 -5.000000000000014 -2.597411173514683
v 3.786611507941134 -5.000000000000014 -5.275706328267705
v 4.392135978230760 -4.999999999999988 -4.601880728835255
v 4.696037531240135 -4.999999999999988 -4.706903474176961
v 2.875739125333995 -5.000000000000226 -2.723453664594412
v 3.793070803210353 -4.999999999999953 -2.780598230054744
v 1.943694215119476 -4.999999999999886 -2.831008188889726
v 2.867995418906030 -5.000000000000171 -3.302882676731389
v 3.182535173801015 -4.999999999999960 -2.720985043037548
v 3.483453394731370 -4.999999999999863 -3.339342282051962
v 2.263971640095638 -5.000000000000020 -5.262511575552254
v 2.572426526039680 -5.000000000000020 -5.249397393334743
v 1.940433955063803 -5.000000000000299 -3.536795027678551
v 1.629812717348270 -4.999999999999956 -2.918505836872860
v 4.395025260637962 -5.000000000000266 -2.527314310207387
v 1.637074259265081 -5.000000000000020 -5.324709791808750
v 2.560822511253356 -4.999999999999851 -3.335156137303212
v 1.319834966331697 -5.000000000000020 -5.375224039531343
v 1.627155098644221 -5.000000000000226 -3.719747924859396
v 4.390807919021036 -5.000000000000012 -5.333914835803490
v 4.695307140764882 -5.000000000000012 -5.376638212712548
v 2.260009671477519 -4.999999999999389 -2.450581567901033
v 3.788236696868355 -4.999999999999853 -3.410306914255322
v 1.952515780934733 -5.000000000000050 -5.294545928041072
v 3.484849047741680 -5.000000000000002 -5.254768377604264
v 3.175716892637237 -4.999999999999984 -3.302715466871510
v 1.940838767243330 -5.000000000000080 -4.518612842269105
v 1.628848894326183 -5.000000000000171 -4.597279684770539
v 4.700530405180134 -5.000000000000066 -2.597266909898300
v 1.315160316952286 -4.999999999999972 -4.709191990336853
v 2.878623411565967 -5.000000000000027 -5.238758438065050
v 2.252070184943131 -5.000000000000391 -3.406060876119026
v 1.313392342547872 -5.000000000000067 -3.922487854611567
v 4.094474889358622 -5.000000000000698 -2.482359449327161
v 4.089979839604876 -4.999999999999865 -3.534016002225112
v 2.882736034433282 -5.000000000000177 -2.423673835440718
v 4.392750719314442 -4.999999999999972 -2.922706960366046
v 2.251110793951018 -4.999999999999986 -4.444280796169231
v 4.088460333194931 -4.999999999999830 -4.529773608933397
v 1.630125003775635 -4.999999999999707 -2.522995866846438
v 1.312028254604487 -4.999999999999903 -3.072812820613939
v 3.181486803105710 -5.000000000000020 -5.240938879774236
v 2.559994173259827 -5.000000000000021 -4.394170387919905
v 1.945293901067251 -4.999999999999337 -2.479651679130369
v 3.784331727101932 -5.000000000000119 -4.445240508884524
v 4.392216244721086 -5.000000000000079 -3.710433511330464
v 2.569960338026261 -4.999999999999723 -2.432613786643858
v 3.187362816092328 -4.999999999999659 -2.423865101143273
v 3.491949444771020 -4.999999999999105 -2.432193023028828
v 3.479857654872204 -4.999999999999966 -4.393372385315692
v 3.174349425606251 -5.000000000000016 -4.361298280420149
v 4.088021650331379 -5.000000000000000 -5.300605598190751
v 2.867993113187277 -4.999999999999927 -4.358276999185332
v 4.695943418407605 -5.000000000000091 -3.911385343389661
v 4.696963770001202 -4.999999999999954 -3.070210195236342
v 2.567057521402924 -4.999999999999132 -2.739503043625628
v 3.794594134618446 -5.000000000000117 -2.450489305122175
v 3.487962410776611 -4.999999999999705 -2.739516724639757
v 1.000000000000019 -4.458979332907043 -2.217671287421963
v 1.000000000000026 -4.736485743469971 -2.898147190572683
v 1.000000000000001 -1.366331673467705 -4.269778932614036
v 0.999999999999991 -3.759476444510303 -5.165005645270847
v 1.000000000000013 -1.701165708512608 -4.941200273110819
v 1.000000000000013 -1.720940300918326 -4.676391217431506
v 0.999999999999989 -4.183548864210489 -5.048051366554500
v 0.999999999999997 -1.795529063894570 -4.086749072973382
v 1.000000000000004 -2.815165513391195 -5.698477663581364
v 0.999999999999998 -2.450203481326622 -5.424192449058366
v 1.000000000000008 -1.356833516633396 -5.203522611101980
v 0.999999999999999 -3.278726667096649 -5.638485852836094
v 1.000000000000004 -2.498734896285811 -5.088606622614678
v 0.999999999999987 -2.617292255379587 -4.363380294664774
v 1.000000000000021 -2.158846080853134 -4.536337992556087
v 1.000000000000021 -2.218968871447451 -4.192932580523722
v 1.000000000000002 -3.718123448581270 -5.594519666957126
v 0.999999999999998 -2.876712816834007 -5.343588744405686
v 0.999999999999960 -4.208543876493844 -2.340655849181381
v 1.000000000000016 -2.791349624221606 -3.530250711697493
v 0.999999999999983 -3.972894605283429 -3.585552306153518
v 1.000000000000002 -2.557577966943350 -4.729710373677851
v 1.000000000000068 -1.713674792932130 -5.200112493698823
v 1.000000000000001 -2.093655993822078 -5.166876215087277
v 0.999999999999979 -4.670061742710933 -3.608901520156145
v 0.999999999999995 -3.004750849778829 -4.571963468471216
v 1.000000000000037 -1.416324083129552 -5.415386255435049
v 1.000000000000014 -1.487054970864275 -5.626982119930144
v 0.999999999999992 -2.695616574331781 -3.955039642433277
v 1.000000000000003 -4.397943631281144 -3.194505646826286
v 0.999999999999984 -1.346480667468787 -4.530162462059605
v 0.999999999999996 -4.622463470004440 -4.322749433142700
v 0.999999999999975 -3.171979012623838 -3.681094638763359
v 1.000000000000012 -2.402923258773801 -5.730728789691453
v 0.999999999999988 -2.288361775472675 -3.826843591484545
v 1.000000000000014 -3.078243955629993 -4.141731796062487
v 0.999999999999993 -1.751538324395497 -4.398260508244140
v 0.999999999999970 -3.530330985459324 -3.891198754573139
v 0.999999999999994 -2.118049119935151 -4.859287469862283
v 0.999999999999982 -4.224744703528948 -4.507675176521520
v 1.000000000000002 -3.810396099031330 -4.687899378079930
v 0.999999999999991 -4.595417289193849 -4.923241058729804
v 1.000000000000122 -4.719772948834581 -2.188603711080396
v 1.000000000000007 -3.875239661143705 -4.168159732233061
v 0.999999999999901 -4.122391181954988 -2.895627336185854
v 1.000000000000006 -1.747305411374474 -5.449833091859174
v 1.000000000000010 -4.286814108119295 -3.917494574722667
v 0.999999999999996 -3.448682760243202 -4.379723531388853
v 0.999999999999978 -3.328410656283310 -5.254407423660012
v 0.999999999999987 -4.471611277942179 -2.614858830961896
v 1.000000000000008 -4.575798891052132 -5.477901347685739
v 1.000000000000017 -3.858327646809493 -2.664405205615271
v 0.999999999999992 -4.146081510112834 -5.554059731551055
v 1.000000000000002 -1.323612251542020 -4.767276943411204
v 1.000000000000014 -3.383414007682153 -4.834774446334094
v 1.000000000000051 -4.762820478960641 -2.475411095982608
v 0.999999999999996 -2.083097854886440 -5.460976765970750
v 1.000000000000008 -1.774835427045180 -5.714401082491902
v 0.999999999999995 -2.070352133968898 -5.742399050940032
v 0.999999999999986 -3.309999247157432 -3.166149317716975
v 0.999999999999986 -3.657077474124922 -3.329124058851153
v 1.000000000000057 -1.324963721379159 -4.989341730002247
v 0.999999999999999 -2.941307064259340 -4.969958287422298
v 3.654519950858090 -2.078112478243074 -4.302172273124882
v 4.701549971698537 -1.959279174066120 -5.277611316201553
v 4.400948276345545 -1.971190000761703 -5.282187206065175
v 3.656838502258785 -1.848398426514331 -5.229908245967592
v 4.555459135388172 -1.917837665924941 -4.336493180740359
v 3.802853834086684 -2.004814923041702 -5.290088914371624
v 4.099173565312241 -1.989604687497469 -5.286972095376633
v 4.849885203041569 -1.958103321652255 -5.276744990183299
v 4.551900115741803 -1.964159344616072 -5.279766861998348
v 3.639966362493426 -1.694070767531714 -5.089638716076520
v 3.800867484567128 -1.773005109014207 -4.423032427102928
v 3.944187333342481 -1.766255449560301 -4.427830805083087
v 3.629002923818637 -1.652046707007708 -4.579840949345494
v 4.852739619171807 -1.641775050798436 -4.996514613617469
v 4.250369539553550 -1.979315553958040 -5.283594117786132
v 4.094586852909796 -1.760871053496634 -4.433805797888489
v 3.658185816199190 -1.928811345937397 -4.332378953680503
v 4.849524242195116 -1.794054167599084 -4.405550144333815
v 3.520000943870877 -1.930307266829053 -4.331636189316137
v 3.512142704472096 -1.801602842993551 -4.399216026592775
v 3.518026142151619 -1.859702269810379 -5.236083890407853
v 4.407175162448876 -1.763181537988589 -4.433237038007636
v 3.653267165170940 -1.790059951919488 -4.408838319486443
v 4.102026503910614 -1.816710467381327 -5.211275131444847
v 3.798938705907837 -1.837214080888831 -5.224699248872550
v 3.943318412371506 -1.826577187660653 -5.218324402576107
v 4.404464113652235 -1.803294217596381 -5.200984831606156
v 4.409875953138767 -1.642884975204995 -4.602146684731073
v 4.252923641885516 -1.639869508988114 -4.607337097377897
v 4.252499798875716 -1.811240435549915 -5.206986425225947
v 4.563451819701698 -1.767769917166599 -4.429710105616979
v 4.253311252370006 -1.601401943376373 -4.823270633430142
v 4.097148662715981 -1.638937813063401 -4.608358484579886
v 4.252704809452011 -1.662495573120875 -5.039873363065525
v 4.556212819788479 -1.794390499690996 -5.195290360403309
v 4.095491173501154 -1.913692722901063 -4.337322507647945
v 4.407087830726885 -1.656779545021748 -5.030516689486896
v 4.098290219826898 -1.667684762878037 -5.048195834879829
v 4.097509555459764 -1.602554817633584 -4.830052258125269
v 4.709492112907898 -1.645273825391215 -5.005246213226640
v 4.250912610587605 -1.759870131622360 -4.435443830636038
v 3.783815145146715 -1.604021801313038 -4.841710058185708
v 4.549297744578793 -2.074468141374625 -4.302451339515994
v 4.712754592704676 -1.601978005775492 -4.787931017664189
v 3.788236578615364 -1.643612005431679 -4.596991723222001
v 4.560829635931519 -1.651706383662567 -5.018669192982801
v 3.942549216215927 -1.640610312047663 -4.605343162782704
v 4.704571315386969 -1.784038034941096 -5.186086191481141
v 3.943219909626600 -1.673734136517036 -5.058069645826234
v 4.849440982523148 -2.083913006066375 -4.301285607789379
v 4.566545392004155 -1.602378986902411 -4.801272838137593
v 4.409654154387051 -1.601634064338066 -4.813963683966271
v 3.941380966254277 -1.603606905231336 -4.835569957263687
v 4.850297440521356 -1.933642798363439 -4.329435921629701
v 4.567692041118979 -1.647491399138414 -4.593516377027878
v 4.699505200765238 -2.077960646153957 -4.301828567198180
v 3.789600596435941 -1.681010663400235 -5.072022027150844
v 4.249281902339265 -1.915463350552017 -4.336273049310419
v 3.512917745869264 -2.077160086294990 -4.302039674274097
v 4.850197952343723 -1.770225644415184 -5.173411859842227
v 4.850614045277488 -1.661781898490817 -4.560502158806856
v 3.946506750508079 -1.913925491309246 -4.338204210696842
v 4.396870378521111 -2.071931595066260 -4.302336797979974
v 3.624249654242186 -1.604151661254709 -4.849559558507985
v 3.801880508076316 -1.919705045588602 -4.335273524422196
v 3.524670037257690 -2.027132448875388 -5.293110051955681
v 3.661472679908213 -2.014704644567491 -5.292245767755216
v 4.713652313633990 -1.653118270344454 -4.579651620307708
v 4.245955617289134 -2.071655068166023 -4.302054244614115
v 4.703507718055957 -1.921748542559620 -4.333794112462480
v 4.851718673394354 -1.601955196846016 -4.782026545999436
v 3.798419061040461 -2.075883514047992 -4.301734377870075
v 3.948060219422844 -1.997130160322673 -5.288160450626020
v 4.095215124955324 -2.072244319424063 -4.302371822077383
v 3.944987067139831 -2.073101902970684 -4.301881852088986
v 4.400949931030743 -1.915700472979417 -4.336540140936986
v 4.709680577553764 -1.775028236660646 -4.421060982801622
v 3.500000000000004 -2.064248372079368 -4.146010655114480
v 3.500000000000004 -1.906067870360977 -4.180486821429625
v 3.499999999999993 -3.150474663506534 -3.412817168519726
v 5.000000000000000 -2.533149627778889 -4.421712162051098
v 3.500000000000005 -2.732781432133375 -4.023312179985498
v 3.500000000000013 -1.856401072042266 -5.405420753243136
v 3.499999999999997 -1.303216493973420 -4.880652398523682
v 3.499999999999958 -2.037574685451639 -5.676909503086198
v 3.500000000000010 -2.745519761682306 -5.701824780218105
v 3.499999999999995 -1.262932823179094 -4.431449002932313
v 3.499999999999949 -1.373812378865498 -5.332789769873149
v 3.500000000000047 -1.641875791432835 -5.621449051586755
v 3.499999999999991 -1.530760281306208 -4.328765420681620
v 3.499999999999967 -1.339711513991079 -5.101983561327319
v 3.500000000000067 -1.652318931458801 -5.359427341341247
v 3.500000000000028 -3.127115278160073 -3.877254014642260
v 3.500000000000002 -2.464682958543210 -3.740591714614446
v 3.499999999999974 -2.794599151016643 -3.597373041449746
v 3.500000000000000 -1.866707260118398 -3.979446258145988
v 3.500000000000014 -1.420106634641354 -5.566302234517073
v 3.500000000000012 -3.028546019430290 -4.576066471956498
v 3.499999999999993 -2.212813425262624 -5.433604909327769
v 3.499999999999993 -2.245438502090592 -4.118495105701649
v 3.500000000000011 -1.280371837720626 -4.658125170450409
v 3.500000000000002 -2.246821082882056 -3.838270443634682
v 3.500000000000000 -3.068188312801040 -5.400869157841145
v 3.500000000000002 -2.463805173768241 -5.691590264137352
v 3.499999999999981 -1.559915010307752 -4.858390742770895
v 3.499999999999995 -2.409626264292128 -5.414030851001011
v 3.500000000000000 -3.108723938567445 -5.707996129619571
v 3.500000000000006 -2.381681983576208 -4.366876488113842
v 3.500000000000004 -3.017013010183631 -4.846139368741118
v 3.499999999999978 -1.635782418177598 -4.538669354776165
v 3.500000000000014 -2.037376677891546 -5.429778726593063
v 3.500000000000008 -2.553751328375844 -5.130115570948064
v 3.500000000000037 -3.066570872355104 -4.269837292398014
v 3.500000000000000 -2.237208913709796 -5.684107083810970
v 3.500000000000021 -1.844029556909615 -5.657756446305926
v 3.500000000000004 -2.050158530859000 -3.907191900262661
v 3.499999999999982 -2.438184771679717 -4.101389255839386
v 3.499999999999972 -2.669273716142525 -4.882280029583637
v 3.499999999999986 -2.674935412772389 -5.393053589200374
v 3.499999999999998 -1.739331189668749 -4.240439318305061
v 3.500000000000013 -2.657872527531439 -4.645867240641245
v 3.500000000000004 -1.693152293533714 -4.050399345417309
v 3.499999999999999 -1.253899815744804 -4.238432936916904
v 3.500000000000007 -3.013653079773958 -5.116225898277349
v 3.500000000000008 -1.495179622928654 -4.130915555075000
v 2.995709126620012 -3.500000000000004 -5.713745181468035
v 2.750327664718280 -3.500000000000000 -5.435439747271705
v 2.750327664718280 -3.500000000000000 -5.714721582119897
v 3.250352182098426 -3.500000000000003 -5.417600767199795
v 3.250352182098426 -3.500000000000003 -5.713049402212073
v 3.251158783631671 -3.499999999999996 -3.721448525125193
v 2.751174980428709 -3.499999999999991 -3.699568043722724
v 3.022510787572085 -3.500000000000000 -4.484074419764847
v 3.018931852146596 -3.500000000000000 -4.811292258699428
v 3.261971534708099 -3.500000000000000 -4.496429706200397
v 2.763235272167959 -3.500000000000008 -4.131760380041904
v 3.003947174115098 -3.500000000000005 -3.680295686549058
v 3.018613875596539 -3.500000000000005 -4.113706764009573
v 3.258659360514112 -3.499999999999998 -4.821320384137339
v 3.258659360514112 -3.499999999999998 -5.117316448872288
v 2.759260125430585 -3.500000000000000 -4.832126617623899
v 2.759260125430585 -3.500000000000000 -5.136578810678536
v 2.762938100420325 -3.500000000000000 -4.505934513157627
v 3.262173290914023 -3.499999999999996 -4.153098430449726
v 3.002652606939259 -3.499999999999997 -5.425102582028775
v 2.997718872660754 -3.500000000000000 -3.189857839063713
v 3.248881414515819 -3.500000000000000 -3.236757109316406
v 2.748774079092828 -3.500000000000007 -3.230166980418312
v 3.012712170423188 -3.499999999999997 -5.123748639818803
v 2.500000000000021 -1.461444225802564 -4.201796645121967
v 2.499999999999958 -1.423158565830587 -4.698046264249154
v 2.500000000000033 -1.979182568090533 -5.549832115384454
v 2.500000000000014 -1.548126671259682 -5.503163415634086
v 2.500000000000011 -1.947956622348560 -5.071968879964930
v 2.500000000000011 -1.966465707771947 -5.310618720845548
v 2.500000000000000 -2.393964233461183 -5.775380433695890
v 2.500000000000012 -2.583324086723700 -4.365165761569802
v 2.500000000000006 -2.559307792738347 -4.680698519336746
v 2.499999999999986 -1.441085840647263 -4.469028330411892
v 2.500000000000014 -2.444628336729981 -5.526185060697690
v 2.499999999999986 -1.623150805534848 -5.713072911558953
v 2.499999999999998 -3.097268992555945 -4.576556608432083
v 2.500000000000004 -3.096515024548875 -4.226253677956464
v 2.499999999999985 -3.140386707593306 -3.407009085906021
v 2.499999999999993 -2.606834266721911 -4.032541761953309
v 2.499999999999996 -3.121719168931954 -3.841341917954894
v 2.500000000000008 -3.057418937105253 -5.469137234048929
v 2.499999999999983 -2.024460228159134 -3.948483070207317
v 2.500000000000004 -3.074256189828352 -5.190294931764015
v 2.499999999999999 -2.624022872755923 -3.655962412890320
v 2.500000000000001 -1.991854274245727 -5.779255302002445
v 2.500000000000000 -3.098566247074894 -4.897693863232264
v 2.500000000000000 -1.955255471938518 -4.814016385413263
v 2.499999999999978 -1.437830777574518 -5.123832920102236
v 2.499999999999992 -1.997948363660766 -4.260375028259893
v 2.499999999999992 -1.971742064111666 -4.542865887342771
v 2.499999999999993 -2.531408890944908 -4.976349249896166
v 2.499999999999972 -1.419779678378154 -4.917671325802778
v 2.499999999999986 -3.012788711471519 -5.738472916896936
v 2.500000000000000 -2.491836057955407 -5.258674615499814
v 2.500000000000018 -1.482729785762075 -5.315073698372004
v 3.786190248115249 -2.222292718711040 -6.000000000000012
v 2.135828667160950 -2.332758358250087 -6.000000000000201
v 4.732516971073961 -2.701430199261329 -6.000000000000014
v 4.723271404251380 -2.429481040805260 -6.000000000000014
v 3.757313777234650 -3.100334445826014 -5.999999999999996
v 4.058889761020950 -3.766339034904371 -6.000000000000000
v 4.382429336901815 -3.746565230727828 -5.999999999999996
v 1.765631847701167 -3.706412080268811 -5.999999999999969
v 2.624593215451762 -4.556363639209408 -5.999999999999950
v 2.918787891873115 -4.563131076051707 -5.999999999999951
v 4.719154605344851 -3.334436122365888 -5.999999999999943
v 1.360776409624741 -4.113806275737586 -6.000000000000014
v 4.691033302145279 -4.117890438411673 -6.000000000000007
v 4.079923225031150 -4.136215632863744 -6.000000000000041
v 3.500239174610064 -4.562483158219226 -6.000000000000031
v 3.788898577394228 -4.561056382530939 -6.000000000000031
v 3.778221136126989 -4.136902538177308 -6.000000000000001
v 1.707080336957768 -4.112825325345214 -5.999999999999997
v 2.057025466906140 -4.114709642551351 -5.999999999999997
v 3.768420853604356 -2.475400234792633 -5.999999999999972
v 2.007289334286761 -4.550391970987855 -6.000000000000021
v 2.318447454976346 -4.554341187230504 -6.000000000000021
v 3.502067932207082 -4.142480607719547 -5.999999999999977
v 3.208060620521191 -4.563358593865754 -5.999999999999972
v 4.693678622790946 -4.553285959633955 -6.000000000000014
v 4.691605680601533 -3.702581849433000 -6.000000000000000
v 3.764189887348370 -3.455138034863956 -6.000000000000007
v 2.699452804333224 -3.794237052532972 -5.999999999999993
v 3.244366297675787 -3.797437073871813 -6.000000000000007
v 1.781114793444371 -3.264534353186676 -5.999999999999976
v 4.413768484593033 -2.721659685747239 -6.000000000000043
v 1.377390299959211 -2.734626856971062 -6.000000000000080
v 4.725094418379845 -3.002026682183252 -5.999999999999952
v 1.372894195680245 -3.691039624721174 -5.999999999999966
v 3.504204370966391 -3.796401509970437 -5.999999999999991
v 2.429162924802510 -3.786629159755736 -5.999999999999977
v 2.165340378198251 -3.364748095578966 -6.000000000000000
v 3.795616094627146 -2.014004460210259 -6.000000000000002
v 2.136013182163150 -2.013468813107334 -6.000000000000055
v 2.965674032771767 -3.795578180285957 -5.999999999999991
v 2.371193817400317 -4.121201478275394 -5.999999999999954
v 4.096082863944405 -2.002111012010013 -5.999999999999961
v 1.376764606072824 -3.227592816775673 -5.999999999999943
v 4.070684579896330 -2.747884990243359 -6.000000000000007
v 1.764654015698734 -2.749705315964141 -6.000000000000057
v 4.063687781102818 -3.073785715568712 -6.000000000000010
v 1.339656561706711 -4.554714692730311 -6.000000000000028
v 4.408733826045550 -3.033139433838373 -6.000000000000028
v 1.376604764113593 -2.330104422373707 -5.999999999999917
v 4.052588549724399 -3.414758594521334 -5.999999999999980
v 4.383494637029109 -4.136248757207267 -6.000000000000006
v 4.084108055054953 -4.560345214577929 -5.999999999999991
v 4.388170601856041 -4.559082515351556 -5.999999999999990
v 3.756746544597232 -2.764763890171651 -6.000000000000021
v 1.757475238303287 -2.028264810589025 -5.999999999999733
v 1.377642624335959 -2.040675066951930 -6.000000000000220
v 2.149776159384357 -2.822517369534097 -5.999999999999987
v 2.941905476450007 -4.146336023474440 -6.000000000000043
v 3.767707579518134 -3.777616319239869 -5.999999999999980
v 1.676445196946686 -4.552654414321788 -5.999999999999986
v 2.122751772160092 -3.726884942285494 -6.000000000000014
v 4.390040649017700 -3.381574056289297 -5.999999999999983
v 3.232215221289492 -4.148959642131635 -6.000000000000040
v 2.649258134209459 -4.143835066491432 -5.999999999999998
v 4.714426504609879 -2.188414792970967 -6.000000000000028
v 4.081723980068688 -2.453671639376589 -5.999999999999983
v 4.090482855138004 -2.201956942466158 -6.000000000000041
v 4.408480960994362 -2.190827661566806 -6.000000000000077
v 1.757024860069214 -2.319278248213779 -5.999999999999829
v 4.412578552443450 -2.437538600619774 -5.999999999999988
v 4.720196471206243 -1.276955017943538 -5.684668890086496
v 4.713241807178870 -1.602491352887244 -5.913853881078678
v 4.718919899568732 -1.149456674845632 -5.522095857271671
v 4.109129403029323 -1.061520496292399 -5.339439900600583
v 4.717879526205675 -1.429796365409777 -5.817324415937657
v 4.412653545121438 -1.800327948091391 -5.977602049143235
v 4.106195201449021 -1.626333166003347 -5.925934348846045
v 4.111108033246504 -1.445005825664475 -5.829776686781674
v 3.805080846877257 -1.282414626502887 -5.695307678242563
v 3.803913943424032 -1.148294329737709 -5.520191190379556
v 4.112268754946589 -1.147215923765995 -5.519487835431021
v 3.805128517189387 -1.451692589512714 -5.835230261985931
v 4.434994461291199 -1.147183710919299 -5.518948475780633
v 4.421497940724637 -1.614235001571104 -5.920027851921722
v 4.433128182243887 -1.435472397332703 -5.822988705792302
v 4.115133048183837 -1.278734569484907 -5.690555880160675
v 4.438451297995925 -1.275662189299209 -5.687109888603406
v 4.715791616910628 -1.010306052508621 -5.141573286942251
v 4.104239166547486 -1.014762352327753 -5.159438956562902
v 3.801604808166208 -1.630089180843944 -5.927622972194637
v 4.101550497449706 -1.810492454057095 -5.980474512577471
v 4.709471481345188 -1.987134978571313 -5.998979322329733
v 4.715585594004112 -1.059801593312067 -5.336168986101281
v 3.799172254093278 -1.818467365532818 -5.981591794649916
v 3.800348560652696 -1.061095977278136 -5.338169752924906
v 4.409970366319927 -1.992050610803474 -5.999461591433467
v 4.710771501237632 -1.791444262800034 -5.974751328428563
v 4.422286773530730 -1.061560479407587 -5.342436332239100
v 4.417281011514089 -1.013032409497924 -5.158408663024954
v 3.795228972194105 -1.011580284020389 -5.148852424653108
v 3.758810989843913 -1.000000000000001 -4.555202892392632
v 3.766033814812355 -1.000000000000001 -4.756852622842052
v 4.745002080955651 -1.000000000000001 -4.549812257255132
v 4.740764872797556 -1.000000000000001 -4.749165965807799
v 3.746785775510336 -1.000000000000000 -4.365246228092834
v 4.757295429912307 -1.000000000000000 -4.362469799827583
v 4.724018414624703 -1.000000000000004 -4.945407341731777
v 3.783192239891550 -1.000000000000000 -4.954827569987303
v 4.097958084681696 -1.000000000000002 -4.977618402670874
v 4.417930603447145 -0.999999999999998 -4.976132525081439
v 4.079542755046091 -0.999999999999998 -4.589848350953126
v 4.454555354573945 -1.000000000000000 -4.377198750448464
v 4.058701559651743 -1.000000000000001 -4.379088942735249
v 4.436967183281467 -1.000000000000001 -4.589059558991060
v 4.424369798364501 -1.000000000000002 -4.791077514795603
v 4.089407867574620 -1.000000000000000 -4.794117242871629
v 1.764214435259439 -1.780598439667677 -5.973045278793042
v 1.767113852724621 -1.027278411319155 -5.220907541257031
v 1.385437659874156 -1.357886843328105 -5.762332199167568
v 2.141398730814513 -1.740728964136300 -5.962454179655559
v 1.786021427462028 -1.343657326894829 -5.752876380114924
v 1.385523669750178 -1.193094071511838 -5.587671303376390
v 1.784807135668415 -1.188242378315304 -5.579613532023465
v 1.775529172234206 -1.551485578567081 -5.892057278678612
v 1.380988544684741 -1.565669345130946 -5.898611062583877
v 1.762147174322334 -1.003383164430785 -5.040308748165196
v 2.131415030024698 -1.001642796964221 -5.022547970962679
v 1.382218824312570 -1.087941120591278 -5.408423175700111
v 2.152047642916087 -1.488988639342880 -5.858883510217950
v 2.156500951815515 -1.297502172940808 -5.705727784004980
v 1.379218766632363 -1.003196349085353 -5.042757804120714
v 1.777496685555077 -1.085493047064310 -5.398304938453802
v 1.379510656683926 -1.794440465104694 -5.976859239196980
v 2.153198673419968 -1.164492746034747 -5.544820588889693
v 2.144963567639953 -1.074537735267790 -5.377960705262133
v 2.137722179087410 -1.022485607933785 -5.202129443637927
v 1.381190813964963 -1.027577435409763 -5.227604952856970
v 4.999999999999991 -4.137962326099291 -4.552851551546381
v 4.999999999999853 -2.827489093285115 -4.889874346611542
v 5.000000000000025 -2.914719301785420 -5.579969451517139
v 5.000000000000007 -3.246864954941149 -5.595150739039616
v 5.000000000000056 -2.258562491986863 -4.104990124116327
v 4.999999999999950 -4.652313995567883 -3.626116271751721
v 5.000000000000026 -3.609019041540303 -5.140751392539467
v 4.999999999999979 -1.630725271148502 -4.272277752864399
v 4.999999999999981 -1.248292233379564 -5.064566304155779
v 4.999999999999956 -3.246342424694543 -4.479372695864959
v 5.000000000000104 -2.850407769316249 -4.605368253976984
v 5.000000000000341 -4.449788580086619 -2.223551105920680
v 4.999999999999901 -1.532490660044024 -5.235889607167092
v 5.000000000000060 -4.225176031303450 -3.965239187369775
v 5.000000000000000 -4.589074539458782 -4.341213270020003
v 4.999999999999955 -2.453524433261854 -4.072932816806597
v 5.000000000000250 -3.736062752770980 -4.260857351262036
v 4.999999999999988 -1.208138209347371 -4.450414884823042
v 5.000000000000131 -2.373178089653816 -5.548924070216915
v 5.000000000000217 -4.196896110888265 -2.349668197989900
v 4.999999999999990 -1.983641502688811 -5.542126545592593
v 5.000000000000375 -4.461460312154211 -2.622599536424097
v 5.000000000000122 -4.092132501320156 -5.052934494158483
v 4.999999999999964 -4.555932442452219 -4.930475136977034
v 5.000000000000213 -3.900327407621850 -3.657985172068479
v 5.000000000000040 -3.639479683852900 -5.579759519237125
v 5.000000000000076 -3.379698933932097 -4.026310581479530
v 4.999999999999744 -4.717805209099108 -2.186419723890138
v 5.000000000000000 -3.641407244051417 -4.727250204907244
v 5.000000000000007 -1.933699738058806 -3.947669066603492
v 5.000000000000007 -1.777660986081264 -4.007519712974899
v 4.999999999999998 -1.788654407614793 -5.535614186817488
v 4.999999999999973 -1.475018226320802 -5.019192656892251
v 5.000000000000050 -4.544855421603042 -5.472505185183349
v 5.000000000000014 -1.375239519806380 -5.519015362195518
v 5.000000000000310 -2.936514482770073 -4.257642505113013
v 5.000000000000043 -2.830310680478217 -3.517539236724109
v 5.000000000000043 -2.521799378609420 -3.692458265983163
v 4.999999999999925 -2.715260251445342 -3.984865731463497
v 4.999999999999909 -3.274814803498375 -3.195259693590171
v 5.000000000000014 -3.086660492762242 -3.783971733809340
v 3.500000000000024 -2.570086822235939 -4.416777781215444
v 4.999999999999959 -1.222769818780365 -4.857978249554609
v 5.000000000000002 -4.085631616817221 -5.536496787096287
v 4.999999999999923 -2.171777384993675 -5.546884006999387
v 5.000000000000014 -1.210065918787895 -4.654259639379521
v 5.000000000000038 -3.192040961294202 -4.835998575420022
v 5.000000000000034 -3.593037639186950 -3.394721729779625
v 4.999999999999901 -2.616492381517489 -5.555435999241234
v 5.000000000000017 -2.304881380856851 -3.789936390457715
v 5.000000000000017 -2.100287805446218 -3.873161624544450
v 4.999999999999783 -4.375365306703351 -3.213495444629335
v 5.000000000000155 -3.194271500517312 -5.187417908105844
v 4.999999999999988 -1.297121847466927 -5.284415192273068
v 4.999999999999932 -1.582453088340398 -5.529553293442607
v 5.000000000000026 -1.443231480769055 -4.815994585921935
v 4.999999999999512 -4.106757790691940 -2.907387216139327
v 4.999999999999988 -2.097252489071126 -4.114173100894437
v 5.000000000000313 -4.732985872681183 -2.897016813926561
v 5.000000000000027 -1.940137872362115 -4.153881268630959
v 4.999999999999401 -3.852801695375044 -2.669276973350478
v 5.000000000000001 -1.608060481180911 -4.071207830470639
v 5.000000000000028 -1.440912449388895 -4.600503375620841
v 5.000000000000166 -4.759980222824327 -2.480480651235597
v 4.999999999999998 -1.434055644190337 -4.367986860415851
v 5.000000000000125 -2.839106187967772 -5.185669816860340
v 5.000000000000000 -1.417876491287601 -4.151660739129827
v 5.000000000000001 -1.209097699565931 -4.260543760911972
v 5.000000000000002 -1.792708102212037 -4.201482198707657
v 1.757020904081992 -1.000000000000018 -4.652754486174558
v 2.123445666864489 -0.999999999999989 -4.637228143960052
v 1.377080007098072 -1.000000000000011 -4.650475526826498
v 2.122291500045202 -1.000000000000018 -4.404646103037107
v 1.755226920406657 -1.000000000000020 -4.419418908518424
v 2.125723250153571 -0.999999999999985 -4.844390231107809
v 1.377612236918579 -1.000000000000014 -4.858405078077320
v 1.758445846533356 -0.999999999999998 -4.859051468276643
v 1.377131138896495 -1.000000000000046 -4.420464140317833
v 1.719475552775735 -3.729970906289726 -2.396299268970893
v 4.082165630291235 -3.724145928270445 -2.400949296858717
v 2.084097101845671 -3.694768946741230 -2.427572506249596
v 3.788561290219119 -3.669523246714453 -2.450074463690697
v 1.686515978139474 -4.031963249892391 -2.109784684075177
v 3.224073743509720 -3.986912108917652 -2.153684708390545
v 4.389731241082599 -3.241550018615437 -2.810366761698792
v 4.705884041322332 -3.121884275362405 -2.902743561378486
v 4.093988172586469 -4.026339888242301 -2.115296854426874
v 2.133093149123110 -2.617862091862010 -3.268521309135620
v 1.753385598531799 -2.560244449031046 -3.308621251750501
v 4.511290684242319 -1.626540220263727 -3.861295179297582
v 4.484102088336524 -1.440732651506713 -3.959665904811419
v 3.776223757816893 -3.235389175725288 -2.815805768576816
v 4.518151552501962 -1.810569764974189 -3.764028116747254
v 4.767810672407270 -1.620203985781317 -3.866490172582475
v 4.073292149167124 -2.505170067150848 -3.343481981849671
v 3.509083932313622 -4.001695791138744 -2.139556094870362
v 4.731754509302315 -2.399025908454516 -3.414274126149656
v 1.373166943624668 -2.472077072250618 -3.367874474260662
v 4.779907787277422 -1.430636701184925 -3.962899087108045
v 3.768633244171816 -2.504503958763627 -3.345326601701277
v 4.081408018381957 -2.799679282134081 -3.146049699304974
v 1.374570717226006 -1.929210145624502 -3.698693058917297
v 4.755234795048251 -1.969987434269008 -3.674332271501223
v 4.755234795048251 -1.798669348050467 -3.770507803050561
v 2.647462196133398 -3.996560684903904 -2.144618795492965
v 4.071895850280666 -2.242358537315621 -3.514170615666420
v 4.464908531891622 -2.445647847848290 -3.386464492143352
v 4.746500320344676 -2.163689089221269 -3.561064900519257
v 4.485881348481592 -2.220583371879674 -3.523680157847355
v 4.506854165071562 -1.995518895911057 -3.660895823551357
v 3.780816399019904 -2.816743702369161 -3.132003657822255
v 4.722943924781095 -2.673006806197034 -3.233344976665701
v 4.424716983011008 -2.766045137509055 -3.168676214811737
v 1.751390982171009 -1.991383394805052 -3.663017366868731
v 4.066912222244699 -2.034825459068284 -3.636413198245456
v 4.048211633069674 -1.831553087813849 -3.754940380784399
v 2.150537103517449 -3.221204495833351 -2.827595692827023
v 2.126830952245041 -1.486682950018420 -3.932652890418585
v 4.042697012517989 -1.639629521193139 -3.855862721125701
v 4.071521641655034 -1.441765037564308 -3.957443686074543
v 1.379543577772543 -3.077255400206298 -2.941148192581259
v 1.749081074078432 -1.463810004475743 -3.947229688465533
v 3.716859917452041 -1.246695151921639 -4.052877932293240
v 4.067838465355610 -3.270336280612226 -2.788967978222185
v 3.762047922153452 -2.252567149689714 -3.507411661478553
v 3.741352531905207 -1.658272196313328 -3.847000854707972
v 3.727389066029502 -1.456731030013933 -3.948743706143065
v 2.939969570936176 -3.992228315102251 -2.149008471282375
v 3.742937549879035 -1.843572537685854 -3.746648617862909
v 3.752046635401218 -2.039905514349034 -3.634574101504565
v 2.128206421440326 -2.032527599921819 -3.637655094510893
v 4.386378815119611 -3.737992203797319 -2.388910578126813
v 1.770337353459520 -3.179715719826239 -2.861172678590780
v 2.346823325835977 -4.004585812097176 -2.136618380022029
v 4.696099626528692 -4.029298864818371 -2.112429401836200
v 1.345268396923801 -4.031346968026085 -2.110367667630134
v 4.064478582886981 -1.224734690097270 -4.061226306343936
v 4.479590238445563 -1.220876977023289 -4.062405127879842
v 1.371430533250727 -1.430141013285226 -3.964841754889963
v 4.772464867119028 -1.221968461565440 -4.061772940164449
v 4.395336483098397 -4.036033889063459 -2.105884890450822
v 3.797663762668508 -4.015519051772454 -2.126151513932961
v 2.022787088494227 -4.019715661870654 -2.121767193870696
v 1.363278401206117 -3.695104853162084 -2.427747252341945
v 4.693222167949057 -3.693156109792982 -2.429541125484743
v 5.000000000000000 -2.583567735379619 -4.916685741226368
v 5.000000000000000 -2.235677894092063 -4.321233317072545
v 5.000000000000000 -2.328555954782540 -5.242230643598782
v 5.000000000000000 -2.372584330323978 -4.383189148563392
v 5.000000000000000 -2.579614400460169 -4.664715279866525
v 5.000000000000000 -2.151201032548516 -5.294618554686132
v 5.000000000000000 -4.968974166710258 -2.180495499194068
v 1.000000000000000 -4.230354442134612 -1.928789622393838
v 5.000000000000000 -4.424158873620240 -1.856144556558156
v 1.000000000000000 -4.652493196279936 -1.874710238402281
v 1.000000000000000 -4.429773918013137 -1.855550511875375
v 5.000000000000000 -4.641506106541180 -1.871443551124337
v 1.000000000000000 -4.970497607795488 -2.185494645538175
v 5.000000000000000 -4.217201647641064 -1.936302534756948
v 5.000000000000000 -5.000000000000000 -5.408619142981566
v 4.388904238482628 -5.000000000000000 -6.000000000000000
v 4.694452119241314 -5.000000000000000 -6.000000000000000
v 5.000000000000000 -5.000000000000000 -2.716543387878930
v 5.000000000000000 -5.000000000000000 -3.298963868396548
v 1.000000000000000 -5.000000000000000 -3.303419604590395
v 1.000000000000000 -5.000000000000000 -4.799294416628310
v 1.000000000000000 -5.000000000000000 -4.117792415828400
v 3.789792925620983 -5.000000000000000 -6.000000000000000
v 4.088749160895557 -5.000000000000000 -6.000000000000000
v 3.195637152679726 -5.000000000000000 -6.000000000000000
v 3.492227927166669 -5.000000000000000 -6.000000000000000
v 5.000000000000000 -5.000000000000000 -4.111621413517585
v 1.000000000000000 -5.000000000000000 -2.721969956448920
v 2.594816862016179 -5.000000000000000 -6.000000000000000
v 2.897106573112370 -5.000000000000000 -6.000000000000000
v 1.974098729388337 -5.000000000000000 -6.000000000000000
v 2.290607690130727 -5.000000000000000 -6.000000000000000
v 5.000000000000000 -5.000000000000000 -4.792373966694608
v 1.328621205744020 -5.000000000000000 -6.000000000000000
v 1.657242411488039 -5.000000000000000 -6.000000000000000
v 1.000000000000000 -5.000000000000000 -5.415096477630478
v 1.000000000000000 -5.000000000000000 -2.416071673525608
v 5.000000000000000 -5.000000000000000 -2.409601578420790
v 1.000000000000000 -1.403401623450307 -3.972837802126625
v 1.000000000000000 -3.232236563202690 -6.000000000000000
v 1.000000000000000 -1.860022795654292 -3.733294863445995
v 1.000000000000000 -2.932001622099865 -3.045296593160652
v 1.000000000000000 -2.377031843273118 -3.425365452908174
v 1.000000000000000 -3.693684481910164 -6.000000000000000
v 1.000000000000000 -4.119081535811659 -6.000000000000000
v 1.000000000000000 -2.773958431245870 -6.000000000000000
v 1.000000000000000 -3.563447773072109 -2.544223550562189
v 1.000000000000000 -2.370068529436975 -6.000000000000000
v 1.000000000000000 -1.537712057381751 -5.881330031468640
v 1.000000000000000 -4.554693149463487 -6.000000000000000
v 1.000000000000000 -1.187789504244236 -5.579037529100763
v 1.000000000000000 -2.056208429259593 -6.000000000000000
v 1.000000000000000 -1.000000000000000 -4.395985175127164
v 1.000000000000000 -1.002641429467686 -5.026818882612305
v 1.000000000000000 -1.790626325787195 -5.976452471700189
v 1.000000000000000 -1.090301358654467 -5.409214006594235
v 1.000000000000000 -1.027138849355493 -5.221212672659254
v 1.000000000000000 -1.000000000000000 -4.822173931626076
v 1.000000000000000 -1.000000000000000 -4.616019743277731
v 1.000000000000000 -4.001553414655176 -2.138774458960440
v 5.000000000000000 -1.965313695639867 -5.279088869966388
v 5.000000000000000 -1.816086343067548 -4.389730137736469
v 5.000000000000000 -1.602739050000000 -4.790747648794875
v 5.000000000000000 -1.949216452738872 -4.326141441379382
v 5.000000000000000 -2.091081264760748 -4.300937396836937
v 5.000000000000000 -1.642622295119549 -4.995275309473953
v 3.500000000000000 -3.500000000000000 -3.283460974493279
v 3.500000000000000 -3.500000000000000 -3.758028499821627
v 3.500000000000000 -2.779120951600244 -6.000000000000000
v 3.500000000000000 -2.487635572201590 -6.000000000000000
v 3.500000000000000 -2.240943889674622 -6.000000000000000
v 3.500000000000000 -3.180063345966679 -2.856994121066823
v 3.500000000000000 -1.000000000000000 -4.339996416257550
v 3.500000000000000 -1.000000000000000 -4.514841442515100
v 3.500000000000000 -3.500000000000000 -4.817275940628239
v 3.500000000000000 -3.500000000000000 -5.113272005363188
v 3.500000000000000 -2.830436589082391 -3.119112588570958
v 3.500000000000000 -2.025521091032456 -6.000000000000000
v 3.500000000000000 -3.500000000000000 -5.409102729975444
v 3.500000000000000 -3.500000000000000 -5.704551364987721
v 3.500000000000000 -1.061134259100392 -5.333280515360032
v 3.500000000000000 -1.631627810662650 -5.928220797562219
v 3.500000000000000 -3.117551201615101 -6.000000000000000
v 3.500000000000000 -2.494897830331798 -3.352741501018167
v 3.500000000000000 -2.262925455336236 -3.498031305224791
v 3.500000000000000 -2.035975124105063 -3.638673618907273
v 3.500000000000000 -1.852754364892024 -3.738847792303875
v 3.500000000000000 -1.669533605678986 -3.839021965700477
v 3.500000000000000 -1.825044984139343 -5.982768434423820
v 3.500000000000000 -1.156964164931255 -5.533931344908279
v 3.500000000000000 -3.500000000000000 -4.157657278744872
v 3.500000000000000 -3.500000000000000 -4.501951188002712
v 3.500000000000000 -1.442027626179188 -5.829498221555277
v 3.500000000000000 -1.012523354550132 -5.127151748589552
v 3.500000000000000 -1.472159012441233 -3.942219680060395
v 3.500000000000000 -1.236079506220617 -4.053685535030198
v 3.500000000000000 -1.000000000000000 -4.716781854756267
v 3.500000000000000 -1.000000000000000 -4.920536071001586
v 2.744419449909190 -3.500000000000000 -6.000000000000000
v 2.988838899818378 -3.500000000000000 -6.000000000000000
v 3.242828795792557 -3.500000000000000 -2.599342080000000
v 2.743217883340736 -3.500000000000000 -2.599342080000000
v 2.986435766681471 -3.500000000000000 -2.599342080000000
v 3.244158667102538 -3.500000000000000 -6.000000000000000
v 2.500000000000000 -3.500000000000000 -5.441436330303614
v 2.500000000000000 -3.500000000000000 -5.720718165151808
v 2.500000000000000 -3.500000000000000 -3.274195573538199
v 2.500000000000000 -3.500000000000000 -3.718701306659359
v 2.500000000000000 -3.500000000000000 -4.133130338026682
v 2.500000000000000 -3.500000000000000 -4.513819818123719
v 2.500000000000000 -3.500000000000000 -4.843488288170003
v 2.500000000000000 -3.500000000000000 -5.147940481224640
v 2.500000000000000 -1.482044604914339 -3.937552159213126
v 2.500000000000000 -3.164702180679038 -2.869364806137229
v 2.500000000000000 -2.051488865310867 -3.630191631340713
v 2.500000000000000 -2.650369482244727 -3.247328460913951
v 2.500000000000000 -2.964321672398135 -6.000000000000000
v 2.500000000000000 -1.000000000000000 -4.375962040430563
v 2.500000000000000 -1.000000000000000 -4.586834896186549
v 2.500000000000000 -2.369029881175114 -6.000000000000000
v 2.500000000000000 -1.216862195629050 -5.614462706797905
v 2.500000000000000 -1.065698652702479 -5.348327303972423
v 2.500000000000000 -1.689492816102850 -5.945773955742327
v 2.500000000000000 -1.000000000000000 -4.797747235406206
v 2.500000000000000 -1.000000000000000 -4.989246792111269
v 2.500000000000000 -1.139653443467985 -5.501545262986813
v 2.500000000000000 -1.017130854636116 -5.173932480558308
v 2.500000000000000 -1.998483176720177 -5.999850605941846
v 5.000000000000000 -3.309764754819267 -6.000000000000000
v 5.000000000000000 -2.428387393645545 -6.000000000000000
v 5.000000000000000 -2.973449060824024 -6.000000000000000
v 5.000000000000000 -2.687693926302817 -6.000000000000000
v 5.000000000000000 -4.095515339419454 -6.000000000000000
v 5.000000000000000 -3.659100169002624 -6.000000000000000
v 5.000000000000000 -2.194133058031478 -6.000000000000000
v 5.000000000000000 -4.542070839938160 -6.000000000000000
v 5.000000000000000 -1.785635936774576 -5.974938653684405
v 5.000000000000000 -1.150569496495394 -5.521967761746027
v 5.000000000000000 -1.421726290714309 -5.812837346464801
v 5.000000000000000 -1.056225639540994 -5.317098965886484
v 5.000000000000000 -1.984074789042341 -5.998431503574897
v 5.000000000000000 -1.010530240026205 -5.106915317859911
v 5.000000000000000 -1.593452494488624 -5.911123915870522
v 4.742416768268542 -1.000000000000000 -4.165151390000000
v 3.763235212374579 -1.000000000000000 -4.165151390000000
v 4.474608448527464 -1.000000000000000 -4.165151390000000
v 4.043365007829292 -1.000000000000000 -4.165151390000000
v 5.000000000000000 -1.000000000000000 -4.336976376308960
v 5.000000000000000 -1.000000000000000 -4.508801362617920
v 5.000000000000000 -1.000000000000000 -4.704665218530415
v 5.000000000000000 -1.000000000000000 -4.903170317688613
v 5.000000000000000 -2.988560150042172 -3.003076752793330
v 5.000000000000000 -2.125039196967039 -3.584518433425453
v 5.000000000000000 -1.953721110748497 -3.680693964974792
v 5.000000000000000 -1.782403024529956 -3.776869496524131
v 5.000000000000000 -1.611084938311414 -3.873045028073470
v 5.000000000000000 -3.565683704862668 -2.542224423318094
v 5.000000000000000 -2.614374828100374 -3.270466729616798
v 5.000000000000000 -2.354712667965438 -3.439931764032104
v 5.000000000000000 -4.000298025513276 -2.140020329550508
v 5.000000000000000 -1.408578088838165 -3.970370026655802
v 5.000000000000000 -1.204289044419082 -4.067760708327901
v 1.378623143129644 -1.000000000000000 -4.165151390000000
v 2.124763267412189 -1.000000000000000 -4.165151390000000
v 1.752212029700420 -1.000000000000000 -4.165151390000000
v 5.000000000000000 -2.471572410000000 -5.134565300000000
v 5.000000000000000 -1.000000000000000 -4.165151390000000
v 5.000000000000000 -1.292893220000000 -5.707106780000000
v 2.500000000000000 -1.292893220000000 -5.707106780000000
v 1.000000000000000 -4.852348700000000 -1.993715240000000
v 5.000000000000000 -4.852348700000000 -1.993715240000000
v 5.000000000000000 -5.000000000000000 -6.000000000000000
v 1.000000000000000 -5.000000000000000 -6.000000000000000
v 1.000000000000000 -1.000000000000000 -4.165151390000000
v 1.000000000000000 -1.292893220000000 -5.707106780000000
v 3.500000000000000 -1.728427590000000 -5.134565300000000
v 2.500000000000000 -1.000000000000000 -4.165151390000000
v 5.000000000000000 -1.728427590000000 -5.134565300000000
v 5.000000000000000 -1.728427590000000 -4.465434700000000
v 3.500000000000000 -3.500000000000000 -2.599342080000000
v 3.500000000000000 -1.000000000000000 -4.165151390000000
v 3.500000000000000 -3.500000000000000 -6.000000000000000
v 3.500000000000000 -1.292893220000000 -5.707106780000000
v 2.500000000000000 -3.500000000000000 -6.000000000000000
v 2.500000000000000 -3.500000000000000 -2.599342080000000
f 41 65 73 1
f 351 627 629 624
f 388 391 17 1
f 17 8 41 1
f 6 22 23 2
f 23 26 48 2
f 48 67 72 2
f 72 7 6 2
f 39 285 277 3
f 277 343 45 3
f 45 29 21 3
f 21 9 39 3
f 75 14 16 4
f 16 71 61 4
f 61 342 345 4
f 345 344 75 4
f 899 736 12 5
f 12 60 47 5
f 47 51 55 5
f 55 734 899 5
f 11 44 22 6
f 7 10 11 6
f 72 313 326 7
f 326 320 10 7
f 54 32 41 8
f 17 69 46 8
f 46 49 54 8
f 28 66 39 9
f 21 24 25 9
f 25 36 28 9
f 735 737 11 10
f 320 798 735 10
f 351 737 604 627
f 736 739 63 12
f 63 56 60 12
f 26 37 30 13
f 30 34 20 13
f 20 14 27 13
f 27 48 26 13
f 20 49 16 14
f 75 70 27 14
f 71 46 69 15
f 351 624 599 738
f 378 59 62 15
f 62 61 71 15
f 49 46 71 16
f 388 382 394 379
f 29 45 58 18
f 58 64 68 18
f 68 73 65 18
f 65 42 29 18
f 68 64 74 19
f 74 369 376 19
f 394 382 389 373
f 371 380 360 357
f 34 54 49 20
f 29 42 24 21
f 44 53 57 22
f 57 52 23 22
f 52 37 26 23
f 42 32 40 24
f 40 38 25 24
f 38 50 36 25
f 70 67 48 27
f 33 43 66 28
f 36 31 33 28
f 37 50 38 30
f 38 40 34 30
f 47 60 33 31
f 36 50 35 31
f 35 51 47 31
f 42 65 41 32
f 54 34 40 32
f 60 56 43 33
f 50 37 52 35
f 52 57 51 35
f 66 273 285 39
f 56 272 279 43
f 279 273 66 43
f 375 380 371 354
f 343 276 58 45
f 57 53 55 51
f 738 734 55 53
f 63 278 272 56
f 276 337 64 58
f 378 387 370 59
f 370 348 329 59
f 329 271 62 59
f 62 271 342 61
f 739 794 278 63
f 337 336 74 64
f 70 339 333 67
f 333 313 72 67
f 75 344 339 70
f 336 381 369 74
f 84 82 115 76
f 115 117 85 76
f 85 904 745 76
f 745 742 84 76
f 110 96 133 77
f 133 743 903 77
f 903 746 108 77
f 108 130 110 77
f 87 722 731 78
f 731 671 80 78
f 80 121 107 78
f 107 104 87 78
f 740 904 85 79
f 85 117 113 79
f 113 89 91 79
f 91 771 740 79
f 671 724 81 80
f 81 116 121 80
f 724 793 741 81
f 741 744 116 81
f 90 92 111 82
f 111 109 115 82
f 84 86 90 82
f 111 92 99 83
f 99 100 97 83
f 97 138 131 83
f 131 109 111 83
f 742 747 86 84
f 723 729 90 86
f 747 893 723 86
f 105 693 722 87
f 104 139 105 87
f 145 130 108 88
f 108 746 770 88
f 770 761 150 88
f 150 189 145 88
f 113 112 95 89
f 95 183 164 89
f 164 178 91 89
f 729 675 92 90
f 178 751 771 91
f 675 730 99 92
f 135 127 126 93
f 126 110 130 93
f 130 145 140 93
f 140 141 135 93
f 97 100 101 94
f 101 102 106 94
f 106 132 134 94
f 134 138 97 94
f 112 118 146 95
f 146 206 183 95
f 98 107 121 96
f 121 116 133 96
f 110 126 98 96
f 122 104 107 98
f 126 127 122 98
f 730 684 100 99
f 684 672 101 100
f 672 716 102 101
f 716 693 105 102
f 105 139 106 102
f 132 106 139 103
f 139 104 122 103
f 122 127 128 103
f 128 129 132 103
f 131 123 114 109
f 114 117 115 109
f 113 117 114 112
f 114 123 118 112
f 744 743 133 116
f 123 124 119 118
f 119 147 146 118
f 124 125 120 119
f 120 144 147 119
f 125 129 136 120
f 136 143 144 120
f 131 138 124 123
f 138 134 125 124
f 134 132 129 125
f 135 137 128 127
f 137 136 129 128
f 141 142 137 135
f 137 142 143 136
f 145 189 193 140
f 193 171 141 140
f 171 196 142 141
f 196 185 143 142
f 185 197 144 143
f 197 198 147 144
f 147 198 206 146
f 186 164 183 148
f 183 206 155 148
f 155 172 184 148
f 184 195 186 148
f 205 196 171 149
f 171 193 156 149
f 156 162 181 149
f 181 166 205 149
f 761 753 190 150
f 190 163 189 150
f 201 188 194 151
f 194 199 174 151
f 174 759 756 151
f 756 757 201 151
f 169 170 153 152
f 153 203 195 152
f 195 184 188 152
f 188 201 169 152
f 170 748 766 153
f 766 760 203 153
f 158 197 185 154
f 185 196 205 154
f 205 166 157 154
f 157 175 158 154
f 206 198 207 155
f 207 159 172 155
f 193 189 163 156
f 163 168 162 156
f 166 192 202 157
f 202 200 175 157
f 207 198 197 158
f 175 159 207 158
f 175 200 199 159
f 199 194 172 159
f 161 192 187 160
f 187 176 173 160
f 173 764 765 160
f 765 762 161 160
f 180 202 192 161
f 762 763 180 161
f 168 177 176 162
f 176 187 181 162
f 190 182 168 163
f 186 204 178 164
f 173 176 177 165
f 177 179 167 165
f 167 767 768 165
f 768 764 173 165
f 181 187 192 166
f 179 754 769 167
f 769 906 767 167
f 182 179 177 168
f 749 750 170 169
f 201 757 749 169
f 750 905 748 170
f 194 188 184 172
f 199 200 191 174
f 191 758 759 174
f 204 752 751 178
f 182 755 754 179
f 191 200 202 180
f 763 758 191 180
f 190 753 755 182
f 195 203 204 186
f 760 752 204 203
f 250 743 744 208
f 744 741 226 208
f 226 252 257 208
f 257 263 250 208
f 761 770 263 209
f 263 257 237 209
f 237 254 232 209
f 232 753 761 209
f 215 774 772 210
f 772 907 786 210
f 786 792 238 210
f 238 244 215 210
f 224 260 214 211
f 214 247 248 211
f 248 262 256 211
f 256 219 224 211
f 246 222 213 212
f 213 261 269 212
f 269 218 230 212
f 230 231 246 212
f 222 223 244 213
f 244 238 261 213
f 260 258 249 214
f 249 239 247 214
f 242 776 774 215
f 244 223 242 215
f 779 773 219 216
f 219 256 225 216
f 225 217 241 216
f 241 781 779 216
f 225 270 220 217
f 220 231 264 217
f 264 266 241 217
f 269 787 790 218
f 790 789 234 218
f 234 253 230 218
f 773 777 224 219
f 270 233 229 220
f 229 246 231 220
f 243 240 236 221
f 236 223 222 221
f 222 246 229 221
f 229 233 243 221
f 236 227 242 223
f 777 778 260 224
f 256 262 270 225
f 741 793 259 226
f 259 268 252 226
f 267 780 775 227
f 775 776 242 227
f 236 240 267 227
f 237 257 252 228
f 252 268 245 228
f 245 255 251 228
f 251 254 237 228
f 253 264 231 230
f 239 755 753 232
f 254 247 239 232
f 270 262 255 233
f 255 245 243 233
f 789 784 235 234
f 235 265 253 234
f 782 788 265 235
f 784 908 782 235
f 792 791 261 238
f 249 754 755 239
f 268 259 267 240
f 243 245 268 240
f 266 785 781 241
f 254 251 248 247
f 251 255 262 248
f 258 769 754 249
f 746 903 743 250
f 263 770 746 250
f 265 266 264 253
f 783 906 769 258
f 260 778 783 258
f 793 780 267 259
f 791 787 269 261
f 788 785 266 265
f 329 289 287 271
f 287 335 342 271
f 278 330 318 272
f 318 305 279 272
f 279 305 297 273
f 297 300 285 273
f 295 327 280 274
f 280 909 291 274
f 291 336 337 274
f 337 276 295 274
f 340 326 313 275
f 313 333 346 275
f 346 292 301 275
f 301 347 340 275
f 343 296 295 276
f 285 300 294 277
f 294 296 343 277
f 794 911 330 278
f 327 312 334 280
f 334 375 909 280
f 282 332 335 281
f 335 287 293 281
f 293 283 315 281
f 315 317 282 281
f 286 306 332 282
f 317 303 286 282
f 630 352 387 378
f 334 312 315 283
f 383 363 352 630
f 799 796 341 284
f 341 314 310 284
f 310 318 330 284
f 330 911 799 284
f 311 328 306 286
f 303 299 311 286
f 289 290 293 287
f 331 912 795 288
f 795 797 324 288
f 324 340 347 288
f 347 338 331 288
f 329 348 349 289
f 349 390 290 289
f 391 368 383 630
f 909 362 353 291
f 353 381 336 291
f 346 328 311 292
f 311 299 298 292
f 298 325 301 292
f 300 304 308 294
f 308 319 296 294
f 296 319 327 295
f 305 316 307 297
f 307 304 300 297
f 299 302 322 298
f 322 321 325 298
f 303 309 302 299
f 325 338 347 301
f 309 308 304 302
f 304 307 322 302
f 317 323 309 303
f 318 310 316 305
f 328 339 344 306
f 344 345 332 306
f 316 321 322 307
f 309 323 319 308
f 314 321 316 310
f 323 317 315 312
f 327 319 323 312
f 341 331 338 314
f 338 325 321 314
f 326 340 324 320
f 324 797 798 320
f 346 333 339 328
f 341 796 912 331
f 345 342 335 332
f 370 372 386 348
f 386 366 349 348
f 366 392 390 349
f 365 352 363 350
f 363 801 800 350
f 800 913 805 350
f 805 810 365 350
f 380 290 390 360
f 293 290 380 283
f 380 375 334 283
f 365 364 387 352
f 362 359 385 353
f 385 355 381 353
f 831 827 361 354
f 361 909 375 354
f 351 738 53 44
f 371 830 831 354
f 385 822 811 355
f 811 804 384 355
f 384 369 381 355
f 374 803 802 356
f 802 816 377 356
f 377 373 389 356
f 389 376 374 356
f 807 830 371 357
f 382 73 68 19
f 360 395 393 357
f 393 806 807 357
f 361 827 814 358
f 814 823 367 358
f 367 359 362 358
f 362 909 361 358
f 367 826 815 359
f 815 822 385 359
f 390 392 395 360
f 383 824 801 363
f 372 370 387 364
f 365 810 817 364
f 817 818 372 364
f 386 819 820 366
f 820 821 392 366
f 823 916 826 367
f 391 388 379 368
f 379 808 825 368
f 825 824 383 368
f 384 374 376 369
f 818 819 386 372
f 377 813 812 373
f 812 809 394 373
f 382 19 376 389
f 384 804 803 374
f 816 915 813 377
f 630 69 17 391
f 394 809 808 379
f 821 828 395 392
f 395 828 829 393
f 829 914 806 393
f 400 837 833 396
f 833 832 398 396
f 398 397 415 396
f 415 399 400 396
f 398 839 838 397
f 838 845 412 397
f 412 419 415 397
f 832 917 839 398
f 812 813 400 399
f 415 419 410 399
f 410 809 812 399
f 813 915 837 400
f 801 824 414 401
f 414 408 407 401
f 407 416 417 401
f 417 800 801 401
f 407 408 406 402
f 406 842 841 402
f 841 840 418 402
f 418 416 407 402
f 405 409 404 403
f 404 411 413 403
f 413 406 408 403
f 408 414 405 403
f 409 410 419 404
f 419 412 411 404
f 825 808 409 405
f 414 824 825 405
f 413 843 842 406
f 808 809 410 409
f 412 845 844 411
f 844 843 413 411
f 418 835 836 416
f 836 834 417 416
f 834 913 800 417
f 840 918 835 418
f 438 445 429 420
f 429 852 851 420
f 851 910 846 420
f 846 848 438 420
f 446 443 448 421
f 448 858 857 421
f 857 852 429 421
f 429 445 446 421
f 430 426 441 422
f 441 431 423 422
f 423 451 425 422
f 425 450 430 422
f 431 854 859 423
f 859 855 451 423
f 447 450 425 424
f 425 451 444 424
f 444 448 443 424
f 443 428 447 424
f 449 850 853 426
f 853 861 441 426
f 430 437 449 426
f 433 432 428 427
f 428 443 446 427
f 446 445 435 427
f 435 436 433 427
f 432 442 447 428
f 450 439 437 430
f 441 861 856 431
f 856 902 854 431
f 843 844 442 432
f 433 842 843 432
f 436 841 842 433
f 840 841 436 434
f 436 435 440 434
f 440 849 847 434
f 847 918 840 434
f 445 438 440 435
f 838 839 449 437
f 439 845 838 437
f 848 849 440 438
f 450 447 442 439
f 442 844 845 439
f 451 855 860 444
f 860 858 448 444
f 839 917 850 449
f 489 493 518 452
f 518 517 471 452
f 471 803 804 452
f 804 811 489 452
f 508 496 520 453
f 520 506 490 453
f 490 861 853 453
f 853 850 508 453
f 455 863 865 454
f 865 864 484 454
f 484 499 482 454
f 482 521 455 454
f 516 868 863 455
f 521 519 516 455
f 505 495 497 456
f 497 501 478 456
f 478 915 816 456
f 816 802 505 456
f 501 513 458 457
f 458 502 465 457
f 465 468 510 457
f 510 478 501 457
f 513 462 477 458
f 477 464 502 458
f 512 470 469 459
f 469 463 485 459
f 485 494 481 459
f 481 488 512 459
f 461 763 762 460
f 762 765 473 460
f 473 492 515 460
f 515 509 461 460
f 475 758 763 461
f 509 514 475 461
f 484 864 862 462
f 862 867 477 462
f 513 499 484 462
f 469 511 498 463
f 498 783 778 463
f 778 777 485 463
f 477 867 866 464
f 866 869 476 464
f 476 504 502 464
f 502 504 503 465
f 503 467 468 465
f 467 756 759 466
f 759 758 475 466
f 475 514 474 466
f 474 468 467 466
f 503 757 756 467
f 474 486 510 468
f 470 472 511 469
f 492 473 472 470
f 512 487 492 470
f 517 495 505 471
f 505 802 803 471
f 473 765 764 472
f 764 768 511 472
f 514 480 486 474
f 869 905 750 476
f 750 749 504 476
f 510 486 915 478
f 491 509 515 479
f 515 492 487 479
f 487 917 832 479
f 832 833 491 479
f 514 509 491 480
f 491 833 837 480
f 837 915 486 480
f 494 483 496 481
f 496 508 488 481
f 499 497 495 482
f 495 517 521 482
f 494 773 779 483
f 779 781 500 483
f 500 520 496 483
f 777 773 494 485
f 512 488 917 487
f 508 850 917 488
f 545 542 493 489
f 811 822 545 489
f 506 568 571 490
f 571 856 861 490
f 542 527 547 493
f 547 519 518 493
f 499 513 501 497
f 511 768 767 498
f 767 906 783 498
f 781 785 507 500
f 507 506 520 500
f 504 749 757 503
f 507 584 568 506
f 785 788 584 507
f 543 874 868 516
f 519 547 543 516
f 518 519 521 517
f 524 871 901 522
f 901 872 526 522
f 526 536 538 522
f 538 534 524 522
f 526 872 876 523
f 876 870 548 523
f 548 527 535 523
f 535 536 526 523
f 544 873 871 524
f 534 549 544 524
f 532 531 546 525
f 546 551 540 525
f 540 550 549 525
f 549 534 532 525
f 548 543 547 527
f 542 528 535 527
f 529 536 535 528
f 542 545 541 528
f 541 533 529 528
f 537 538 536 529
f 533 530 537 529
f 531 532 537 530
f 533 826 916 530
f 916 823 531 530
f 823 814 546 531
f 534 538 537 532
f 541 815 826 533
f 544 549 550 539
f 550 561 558 539
f 558 884 875 539
f 875 873 544 539
f 551 559 560 540
f 560 561 550 540
f 545 822 815 541
f 548 870 874 543
f 814 827 551 546
f 827 831 559 551
f 562 567 553 552
f 553 830 807 552
f 807 806 556 552
f 556 564 562 552
f 567 560 559 553
f 559 831 830 553
f 555 566 565 554
f 565 563 557 554
f 557 881 882 554
f 882 883 555 554
f 558 561 566 555
f 883 884 558 555
f 806 914 878 556
f 878 880 564 556
f 563 879 877 557
f 877 900 881 557
f 567 566 561 560
f 564 563 565 562
f 565 566 567 562
f 564 880 879 563
f 584 576 575 568
f 575 580 571 568
f 577 578 587 569
f 587 586 583 569
f 583 579 588 569
f 588 582 577 569
f 576 782 908 570
f 908 784 573 570
f 573 574 572 570
f 572 575 576 570
f 580 902 856 571
f 574 585 581 572
f 581 580 575 572
f 784 789 579 573
f 579 583 574 573
f 583 586 585 574
f 584 788 782 576
f 665 663 578 577
f 582 664 665 577
f 858 860 587 578
f 663 857 858 578
f 789 790 588 579
f 581 854 902 580
f 585 859 854 581
f 588 790 787 582
f 787 791 664 582
f 586 855 859 585
f 587 860 855 586
f 617 605 602 589
f 602 594 603 589
f 603 612 611 589
f 611 595 617 589
f 734 738 599 590
f 599 598 635 590
f 635 641 654 590
f 654 899 734 590
f 637 899 654 591
f 654 641 592 591
f 592 862 864 591
f 864 865 637 591
f 641 595 614 592
f 614 867 862 592
f 646 639 638 593
f 638 626 604 593
f 604 737 735 593
f 735 798 646 593
f 602 640 647 594
f 647 751 752 594
f 752 760 603 594
f 641 635 617 595
f 611 632 614 595
f 653 655 650 596
f 650 619 657 596
f 657 795 912 596
f 912 651 653 596
f 875 884 631 597
f 631 644 621 597
f 621 601 642 597
f 642 873 875 597
f 599 624 615 598
f 615 613 605 598
f 605 617 635 598
f 69 630 378 15
f 608 747 742 600
f 742 745 616 600
f 616 652 610 600
f 610 645 608 600
f 621 799 911 601
f 911 620 643 601
f 643 623 642 601
f 605 613 640 602
f 760 766 612 603
f 626 625 627 604
f 737 351 44 11
f 882 881 656 606
f 656 655 653 606
f 653 651 634 606
f 634 883 882 606
f 633 739 736 607
f 736 899 637 607
f 637 865 863 607
f 863 868 633 607
f 649 893 747 608
f 645 636 649 608
f 874 870 620 609
f 620 911 794 609
f 794 739 633 609
f 633 868 874 609
f 652 647 640 610
f 640 613 645 610
f 612 622 632 611
f 766 748 622 612
f 615 636 645 613
f 632 866 867 614
f 624 629 636 615
f 745 904 740 616
f 740 771 652 616
f 619 888 887 618
f 887 886 639 618
f 639 646 648 618
f 648 657 619 618
f 650 889 888 619
f 870 876 643 620
f 644 796 799 621
f 748 905 869 622
f 869 866 632 622
f 871 873 642 623
f 643 876 872 623
f 872 901 871 623
f 382 388 1 73
f 626 891 885 625
f 885 890 628 625
f 628 629 627 625
f 638 892 891 626
f 890 893 649 628
f 649 636 629 628
f 884 883 634 631
f 634 651 644 631
f 639 886 892 638
f 651 912 796 644
f 798 797 648 646
f 652 771 751 647
f 797 795 657 648
f 655 894 889 650
f 656 895 894 655
f 881 900 895 656
f 662 661 659 658
f 659 663 665 658
f 665 664 660 658
f 660 666 662 658
f 852 857 663 659
f 661 851 852 659
f 664 791 792 660
f 792 786 666 660
f 897 910 851 661
f 662 898 897 661
f 666 896 898 662
f 786 907 896 666
f 671 731 669 667
f 669 705 721 667
f 721 709 732 667
f 732 724 671 667
f 712 680 670 668
f 670 730 675 668
f 675 729 720 668
f 720 673 712 668
f 918 847 705 669
f 731 722 918 669
f 680 805 913 670
f 913 684 730 670
f 684 913 834 672
f 834 836 716 672
f 701 689 712 673
f 720 733 674 673
f 674 700 701 673
f 733 890 885 674
f 885 891 700 674
f 705 847 849 676
f 849 848 719 676
f 719 702 677 676
f 677 721 705 676
f 702 690 686 677
f 686 709 721 677
f 679 708 707 678
f 707 704 681 678
f 681 692 682 678
f 682 687 679 678
f 726 725 708 679
f 687 728 726 679
f 699 810 805 680
f 712 689 699 680
f 704 703 698 681
f 698 691 692 681
f 692 888 889 682
f 889 894 687 682
f 694 713 688 683
f 688 699 689 683
f 689 701 695 683
f 695 697 694 683
f 696 697 695 685
f 695 701 700 685
f 700 891 892 685
f 892 886 696 685
f 690 774 776 686
f 776 775 709 686
f 894 895 728 687
f 713 818 817 688
f 817 810 699 688
f 702 710 727 690
f 727 772 774 690
f 698 697 696 691
f 696 886 887 691
f 887 888 692 691
f 716 836 835 693
f 835 918 722 693
f 703 718 713 694
f 697 698 703 694
f 719 706 710 702
f 704 717 718 703
f 707 714 717 704
f 719 848 846 706
f 846 910 897 706
f 897 898 710 706
f 708 715 714 707
f 725 711 715 708
f 775 780 732 709
f 898 896 727 710
f 878 914 829 711
f 829 828 715 711
f 725 880 878 711
f 718 819 818 713
f 715 828 821 714
f 821 820 717 714
f 820 819 718 717
f 729 723 733 720
f 893 890 733 723
f 732 780 793 724
f 726 879 880 725
f 728 877 879 726
f 896 907 772 727
f 895 900 877 728
