v 4.904424350351672 7.964802726345313 -3.494347549460220
v 2.789106812522343 8.629136374672809 4.193149980902072
v 1.468204584408767 3.365614131371061 -9.284025164206952
v 4.845880465049468 8.718243409090512 0.481443746251731
v 4.400170561377180 8.709874452112590 -2.136261713474304
v 2.095825684595196 8.576065185300944 -4.672865875453970
v 4.700993689386816 8.713375599669227 -1.290486595168181
v 1.396847582143243 8.309710878304443 -5.381424814423930
v 7.836139373732438 5.853787291120549 2.019373794783281
v 4.909657561965165 2.595881950616470 -8.297751729138753
v 5.953285665729380 8.005176646309973 -0.488104682134161
v 1.422195451908379 7.323840441946619 -6.634267757072160
v 0.991680340766564 2.334881081849268 9.658277019379177
v 8.838956812947135 1.592153117418141 -4.371366183802923
v 8.801903703145440 1.619283826903297 4.435846317278472
v 1.734545217530862 1.573659715705979 -9.711214984917993
v 3.382481581181320 2.220062807371911 -9.126439073100254
v 4.675841502818411 8.722527513090629 1.352085320460056
v 4.844058086561363 8.724821620950451 -0.412247733462459
v 9.654294451357437 1.605273434743157 2.023388898681858
v 8.235925159994350 4.492825490995061 3.437750162586878
v 0.664937748096854 4.136718502562040 9.073665063074504
v 2.988304819081476 3.301057401037593 -8.939409862647773
v 9.834251614948178 1.594050723730348 0.719273525498089
v 3.317595711080831 5.130560923974079 7.895766819336888
v 2.133830278430654 8.572016193252026 4.680183901138575
v 2.751661526083884 8.673073518922111 -4.120734154197513
v 4.295686023950738 7.826472205212305 4.484366610419210
v 3.958857375335509 8.707149837494057 -2.878885732404137
v 6.161179896605965 2.834210495367609 7.331940704720310
v 5.899809963887108 6.925308970735676 4.123751745657358
v 0.629510407329562 7.818291391189104 -6.184992290264467
v 8.123373532342434 1.536001840607991 -5.603987862634035
v 8.625883899069265 4.565330115126400 2.129206508530864
v 8.270102268671945 4.533007300434430 -3.283936422663782
v 6.778469322699124 1.504077067012428 7.169966603391401
v 8.850069440425965 4.596891347171743 -0.611736369733457
v 8.664001895824478 4.561520518308135 -1.962390879742877
v 7.822166141089145 5.923923598615961 -1.871238841350005
v 3.740797052179024 1.128088505931710 -9.185867731835151
v 0.726111923124346 7.982907881786204 5.973490955655436
v 5.084967275853790 6.910266741301536 -5.114126950584323
v 8.025426869678533 5.904129337799606 0.726581829138558
v 9.675452437281301 1.645351974884640 -1.905996003463338
v 0.597533098927640 7.073439248776751 -7.023029590767340
v 9.321858646194215 1.635936285977825 -3.184477502988932
v 1.643838299631756 2.384251367632531 -9.559325656297275
v 6.424967504718335 7.073735882243906 -2.914679594197112
v 3.422707988311596 7.843540814048227 -5.152251577901420
v 5.115810698286055 6.789285770031650 5.246084352968536
v 8.836048481483548 4.608177319844491 0.758453747591004
v 2.404424294103437 4.553189721232020 -8.563933978099378
v 0.000000000000018 1.144347782542177 -9.927214307033065
v 0.000000000000018 1.703258027951655 -9.845339890794335
v 2.849011439205199 6.430120110773681 7.088242212832014
v 2.243994588894566 3.137277066311714 9.218011370623435
v 4.765481178185425 5.442569078175213 6.893104679862063
v -0.000000000000018 0.574655304618616 -9.972116018683238
v 9.463812716952877 3.108638421519698 0.746186257237678
v 2.756126542360271 2.196416852511488 9.343316950218902
v 5.379309833587847 1.363654898727258 -8.305931775575161
v 3.940168239629713 3.803709380609263 8.352044204740015
v 7.419038323736598 5.887942967677930 -3.171280768692053
v 6.734397667607738 4.302604489320679 5.993206958675326
v 6.837594923219653 1.475644947694420 -7.130232196712178
v 7.464406233833778 2.945870785794895 5.956125439771952
v 6.823237504316968 7.082044841046816 -1.740421166361090
v 9.252103160830245 3.098799373600585 2.121883728323143
v 5.955961935533411 5.687430208306764 -5.649771780342582
v 4.336744806755669 3.835290344046412 -8.139644185552482
v 7.643530493684626 4.476148531985245 -4.618785005172465
v 5.950234618250672 5.595980087426845 5.747570424410622
v 6.804564424144358 5.814312151726973 -4.436997722449153
v 7.440736658333922 5.801779814250835 3.287215326898103
v 6.486435312797330 6.974512720609412 3.008638171328176
v 5.476760742367631 4.136791840287435 7.255377815521939
v 9.461488436292589 3.131674345863752 -0.625076418580861
v 2.504129126530898 7.638009155836552 -5.927379510942423
v 8.109171319877701 1.582703817480837 5.615736117339679
v 9.278507879961143 3.145277121560497 -1.964207260035380
v 5.625735110341347 4.125660011219508 -7.154900930131888
v 3.623812340358792 5.185912003248886 -7.730408709554753
v 3.271248172376211 1.171723877425153 9.362829459737338
v 4.881535068342497 5.514697039558463 -6.751391455391001
v 5.775128042703685 8.007500487783396 -1.546946587347981
v 6.917281018908318 6.969789896037460 1.845106779311219
v 7.058247862495763 7.050389918727782 -0.527800151736706
v 7.081096475541059 7.014176583291963 0.665029693713741
v 4.086137776151404 6.691045290657730 6.192440310241054
v 8.860049845270972 3.066580697028446 3.443154103694980
v 5.874622160924761 6.994871200165838 -4.058945882105490
v 1.885595383396314 0.809977845013025 -9.777241915709503
v 6.831315254632065 5.721808622894322 4.511092698285601
v 5.387870334489005 7.996731812533785 2.606552795569849
v 4.892796827614893 7.953673582443164 3.544807832262158
v 4.233454730046498 7.931923369448911 -4.354016771645926
v 8.021549248927450 5.930187737037862 -0.561369272384496
v 8.335508979273065 3.048806730991556 -4.589105597730970
v 0.632578515616830 6.956535273223905 7.136291825703879
v 3.456887648758139 8.629432595923918 3.664442356373169
v 5.114747827157469 1.384767408513152 8.463024482289040
v 4.112304095421472 6.784683357085900 -6.074547218953304
v 7.447223458388086 2.982883905557682 -5.951795360979967
v 5.989518548971833 7.983568819359329 0.572768737861470
v 5.801853177603100 7.971106853877538 1.625203868923506
v 1.655204977249028 6.161461216836594 -7.691643858729552
v 8.911614573687817 3.116999484463912 -3.277292171046010
v 8.298779139039141 3.020265017842998 4.678173147413666
v 6.748215807003074 4.359850981155552 -5.947584831887593
v 3.463011348699832 7.773318872592242 5.243511571277491
v 7.634063989593171 4.401842287406083 4.698511259640629
v 1.512974921161300 7.230579797125976 6.727867392828664
v 3.384419776569071 8.704155222120393 -3.548878195066363
v 9.837858338302940 1.616309196769432 -0.598633465646547
v 4.547908427919175 2.604718095373341 8.504194724645551
v 1.541313322831336 5.917437802905880 7.896558424704990
v 9.292743011691650 1.627577222995443 3.280625644124203
v 0.782312311756467 2.946963179459813 9.516277877703873
v 0.860986546565478 5.152737829910912 -8.522636812331715
v 0.000000000000011 2.144191314417840 -9.758881725098357
v 0.000000000000000 2.506214527208899 -9.669357672549127
v 1.466139775319403 8.392766882955353 5.218597142163102
v 2.942836031714328 6.551442536583023 -6.944349571289271
v 6.236722075749920 2.850249178901388 -7.265866474642515
v 1.846265067440847 4.302912464121668 8.826037997072518
v 2.564182795318494 7.590926405184632 5.966074132603186
v 4.328408093180405 8.744162525925496 2.153825595565754
v 1.522651365345681 0.939785391983900 9.834079780801968
v 1.212810599496901 1.740939336206498 9.767959738691239
v 5.426481554074657 7.989596052251983 -2.561591902974220
v 3.928166159181705 8.719393004795194 2.893789820900455
v 5.888164010021526 0.000000000000000 6.253962182915899
v 2.229147182716780 0.000000000000000 0.901111887318979
v 2.239088633670974 0.000000000000000 -0.727740005828815
v 1.999305379248121 0.000000000000000 6.114481748225067
v 7.097289093734783 0.000000000000000 0.685184972298330
v 6.022986462796972 0.000000000000000 -6.168511018662855
v 7.105584514339938 0.000000000000000 -0.620566894734040
v 4.075775561476817 0.000000000000000 5.411749030428830
v 4.077182652206552 0.000000000000000 -7.157622247818715
v 2.180626407040478 0.000000000000000 2.551322492649835
v 6.721400337822487 0.000000000000000 3.252205126599513
v 6.996382884983127 0.000000000000000 -1.919938122526931
v 6.969092943105338 0.000000000000000 1.977091353339274
v 6.775087182867480 0.000000000000000 -3.205933448086725
v 4.190469036422584 0.000000000000000 -5.282636908322440
v 4.286183764453163 0.000000000000000 3.770797319733951
v 4.360449823252758 0.000000000000000 -3.652733214350894
v 4.493223388730243 0.000000000000000 -2.139582713322959
v 4.557756596078320 0.000000000000000 -0.669087668336726
v 4.451615450273344 0.000000000000000 2.249843333170668
v 4.544596235233684 0.000000000000000 0.778226341964903
v 2.096270048105168 0.000000000000000 4.269421203852501
v 2.151547366779141 0.000000000000000 -4.044429368814294
v 2.089433603543036 0.000000000000000 -5.852858890155943
v 2.209357307485682 0.000000000000000 -2.355810283333327
v 3.886307285612205 0.000000000000000 7.278305837944931
v 6.468519837194378 0.000000000000000 -4.518081505677301
v 6.374620489681490 0.000000000000000 4.566459934999209
v 1.900134199238629 0.000000000000000 8.105662354958778
v 2.035733590889500 0.000000000000000 -7.887987556832403
v 0.000000000000000 6.990386659370394 2.506932443683158
v 0.000000000000000 10.404303682123579 0.808131366371970
v 0.000000000000000 1.332224706313703 1.030100206610153
v 0.000000000000000 5.438288240306722 2.749792778904265
v 0.000000000000000 2.336509205777880 -8.117225073540254
v 0.000000000000000 15.103640150157757 2.097149073675844
v 0.000000000000000 10.525125931696284 2.260806445293834
v 0.000000000000000 6.869092129102889 0.863351452823668
v 0.000000000000000 10.648141172490565 3.291608380502378
v 0.000000000000000 9.776955842615479 3.303966611979057
v 0.000000000000000 5.153546985188854 4.886615240877894
v 0.000000000000000 8.769277481828201 3.404462827391239
v 0.000000000000000 15.097842983236754 0.729836025410581
v 0.000000000000000 6.133379197515495 6.108527807846819
v 0.000000000000000 9.353732385343097 0.815856236327857
v 0.000000000000000 11.481433500105945 -2.238031670869383
v 0.000000000000000 14.209658451441506 -2.158683124064808
v 0.000000000000000 2.650206921655695 -2.692050037854337
v 0.000000000000000 13.307942771414947 -2.197613153316926
v 0.000000000000000 10.407516923675836 -0.800153939342795
v 0.000000000000000 1.489473040164039 -8.186178898134170
v 0.000000000000000 1.311449690899927 -2.618047631171521
v 0.000000000000000 9.555687023012073 -2.295262861067313
v 0.000000000000000 9.548304208882868 2.288251102689270
v 0.000000000000000 3.432323042661260 -7.959943080002692
v 0.000000000000000 6.467817397060330 -6.054407904107322
v 0.000000000000000 15.096891012745640 -0.714983380901835
v 0.000000000000000 11.389088584525091 0.795457025983787
v 0.000000000000000 0.715489579200774 -8.249670471501229
v 0.000000000000000 4.771854219886656 -6.484632643916942
v 0.000000000000000 12.389302530342158 2.222559958008191
v 0.000000000000000 12.341386817215053 0.780783312938567
v 0.000000000000000 11.394923151922825 -0.789280616446325
v 0.000000000000000 8.430522721656605 2.359985566473967
v 0.000000000000000 9.355262398494535 -0.819372472538487
v 0.000000000000000 5.470612535618056 0.928821593826319
v 0.000000000000000 10.535159156651584 -2.257010743564181
v 0.000000000000000 1.223589861676405 -4.456840495468228
v 0.000000000000000 11.463456296815076 2.236289251485964
v 0.000000000000000 13.340570795495676 -3.260462413632136
v 0.000000000000000 2.809510742843504 7.404870881519290
v 0.000000000000000 14.212444232018747 2.168647322836414
v 0.000000000000000 5.489015467352161 -0.868184203831099
v 0.000000000000000 9.783909126960678 -3.308069500018445
v 0.000000000000000 0.852738457419259 8.714522739458197
v 0.000000000000000 6.884021898335895 -0.853296113181266
v 0.000000000000000 2.378441378319415 5.120931319002896
v 0.000000000000000 3.336298413191983 -6.499197590169690
v 0.000000000000000 1.285585253982109 2.924978460450854
v 0.000000000000000 3.690518989512093 5.129406988644899
v 0.000000000000000 2.491119408292857 -4.578118844204571
v 0.000000000000000 2.601013562735631 2.972674156278545
v 0.000000000000000 12.347240061516711 -0.782795888651684
v 0.000000000000000 8.453279750718746 -2.380893295605375
v 0.000000000000000 8.195832551426129 -0.834888448104958
v 0.000000000000000 2.106020954069699 -6.396978907500372
v 0.000000000000000 3.873767982891245 -4.718183266914306
v 0.000000000000000 10.667889822171764 -3.286576715798206
v 0.000000000000000 14.190907465365747 -0.752508968109353
v 0.000000000000000 3.972262311190725 2.930874089432757
v 0.000000000000000 2.695020676437469 -0.827816370767612
v 0.000000000000000 13.273158037560059 0.766650634404265
v 0.000000000000000 5.392689206401855 -4.740871832388471
v 0.000000000000000 2.681123798679451 1.033111607128034
v 0.000000000000000 5.512769441037776 -2.720383816477780
v 0.000000000000000 4.080774216039522 -0.857567066923519
v 0.000000000000000 14.190748599094086 0.750571631611606
v 0.000000000000000 12.456508915019121 -3.265160654086781
v 0.000000000000000 7.026097142587258 -2.561266722442266
v 0.000000000000000 15.101483858510495 -2.088169058245096
v 0.000000000000000 4.062280909678535 0.996055317973381
v 0.000000000000000 1.555140897713139 8.810693929237125
v 0.000000000000000 6.952138169464583 4.121335043268832
v 0.000000000000000 11.563419520113694 -3.274579182567234
v 0.000000000000000 1.339340022886368 -0.798108243312857
v 0.000000000000000 13.303991579004776 2.203976215102507
v 0.000000000000000 15.104931289268798 -3.185760827197086
v 0.000000000000000 11.542436129872147 3.270482016200155
v 0.000000000000000 12.445248081279447 3.261382621250910
v 0.000000000000000 12.402976492246506 -2.217738098542861
v 0.000000000000000 8.789732292487624 -3.431409361943423
v 0.000000000000000 15.107938666492885 3.189886726911848
v 0.000000000000000 4.103263486619426 8.367768744998529
v 0.000000000000000 2.720050654693670 8.819890212383957
v 0.000000000000000 1.006746458230783 7.114161779087581
v 0.000000000000000 1.032537892524392 -6.312817771692510
v 0.000000000000000 13.277172230977042 -0.773406110707803
v 0.000000000000000 5.375546031101720 -7.524704938112848
v 0.000000000000000 6.948893166834161 -4.388341729576837
v 0.000000000000000 8.186190197477071 0.827029866949798
v 0.000000000000000 1.182732964410853 4.957583091993401
v 0.000000000000000 13.337119797101915 3.258292131302305
v 0.000000000000000 1.893750921108762 7.340555602830701
v 0.000000000000000 14.227604954752387 3.241502951390444
v 0.000000000000000 4.050843801126483 -2.742459662040709
v 0.000000000000000 14.224860361016010 -3.237641881109266
v 0.000000000000000 4.193606365420777 7.068297301678957
v 0.000000000000000 2.155280808941283 8.879259684571185
v 1.721689588027703 14.300410782587303 3.589290921623544
v 1.176273123742507 13.418327443796114 -3.815934990990450
v 1.165896323959242 13.417547797910348 3.821353085387430
v 3.188877940305071 14.336504492408038 2.405978560641872
v 3.563849186414013 14.318447244317410 -1.807526551732227
v 2.701406071053967 15.115902686636066 -2.941171894598625
v 2.198033324973749 10.041135969008030 -3.326193918965889
v 1.649317083869875 10.020239636617511 -3.622501764305090
v 2.187368037628938 10.034180020418157 3.334070386587119
v 1.738770364691701 13.445413033368968 -3.601446943382638
v 3.842287288951606 13.511447928664623 -1.081841777678964
v 3.130214033110037 15.150076854529399 2.474700949195316
v 2.249116744554282 13.489476787779733 3.295091268021989
v 2.740159710316959 14.301743676177251 -2.904232776583902
v 1.646466561668008 10.012871552681860 3.623326986035494
v 2.257206138436628 12.644354941510802 -3.286210333874933
v 1.718613696036718 13.447072872582295 3.606147960712710
v 1.704013233235885 12.585404366616435 3.603152227972727
v 2.760081847902843 10.914020828000158 -2.879781692314682
v 3.198802918616806 10.040218801378959 2.395382387653918
v 2.726784492717260 10.038806415256627 2.921501389254749
v 2.236197716192210 12.617940916625354 3.305907538716955
v 2.226425750253002 11.747083438987566 3.316772336136451
v 2.270799187258451 13.474209492652385 -3.282861810618468
v 2.769347585514327 12.652838790793222 2.879097779256025
v 2.773428711036033 12.682451662673374 -2.869314226734859
v 3.206584377768564 10.914900548457700 2.370090940052043
v 3.228315350859605 11.813442185237294 -2.337430394614996
v 2.226998793504913 10.895915190048676 -3.315905001815569
v 2.748470832604193 10.045973134760814 -2.899788479177235
v 2.241414198415822 11.767417075285618 -3.306708074921435
v 3.233929674694110 12.687400977026414 -2.350403513491675
v 2.213665650952018 10.881499758615231 3.322285498323605
v 3.802304325921720 15.142640423685220 1.184102382894810
v 2.754248707280187 11.770782999685864 2.884612676707203
v 3.840665685899361 10.936009027282280 1.090226981482441
v 3.597238190843929 10.051213429495217 -1.735382234242628
v 3.969491367662317 10.053672069938013 -0.338641506075962
v 3.228536753734474 12.682730055535812 2.356824463855672
v 3.224716464472489 10.048362840143263 -2.358698620687566
v 3.225543276868612 10.928532830825580 -2.344687961883577
v 3.520066874555949 15.127552488880788 -1.869834774077648
v 3.587028476395751 12.697826601929876 1.745281402694755
v 1.678112056034397 10.856718100870154 3.624886915315710
v 3.964897481050258 15.130671057635086 -0.377900496428325
v 3.810846739048786 15.128619417565218 -1.159273600038170
v 3.830637597088477 10.049811647205644 1.099791404570389
v 2.769742777893995 11.793830256688626 -2.870108981186728
v 3.835357795610379 12.703741909851356 1.075079248635311
v 3.846176787303010 10.053140323242639 -1.053472393414637
v 3.207773739100977 13.528537365645118 2.356638713231265
v 3.964313977587432 10.052571878784523 0.386675630949641
v 2.757814021530396 13.515498238395310 2.870516017007369
v 3.960088427025255 15.134682644253294 0.421529738109532
v 3.963682599604250 12.704212644444606 0.368472779025582
v 3.585226822768919 11.810780288896769 1.748489834302911
v 3.965171249305798 12.701893916186156 -0.352376040262302
v 3.972027100160489 10.941607852871270 0.379178137052943
v 3.975938992658043 10.944054701550106 -0.344285139103363
v 3.978976945215762 11.836283987197147 -0.349425055681540
v 3.592720251354029 11.826107273504492 -1.727564274423577
v 3.848112295457124 11.833496340724402 -1.058044226473929
v 3.592880920899529 12.693762691691919 -1.737253401475964
v 1.722135618149682 12.602292343011092 -3.596351136969521
v 3.572712734299459 10.045494060320484 1.777482735955621
v 3.838771713665109 12.698445339555015 -1.062464510205777
v 2.760641372479611 13.493863420774558 -2.869517351440743
v 3.852179767817415 10.943095181033307 -1.056614798661130
v 3.594883730697060 10.938197269371271 -1.730506605025766
v 3.581367766185997 10.927094408521111 1.761731997555315
v 3.976172763013646 11.834884058556709 0.371453843250817
v 1.146851230440543 11.685841488002698 3.821410100629833
v 3.216108684206464 11.793040389307183 2.355814565030162
v 3.845950547815573 11.825643667512569 1.079747095362754
v 1.685788927848126 10.870386487168981 -3.620830143474078
v 2.740300420572587 10.898936690525897 2.896511513590154
v 1.694657848573772 11.718016697935763 3.611508702479986
v 0.590648599069328 12.530563138950461 -3.951364793232264
v 0.585298030924832 12.520110890441556 3.951833856157742
v 0.583398892379554 11.663921753414961 -3.956101212008546
v 0.579333488930544 11.648922183539723 3.955677320941689
v 0.589920950907196 13.390793454229955 3.955517221778835
v 1.706360114639624 11.735191971341248 -3.606337549283257
v 0.597647061653110 14.254657800261135 -3.953904151737269
v 0.594535598545038 14.259881954768556 3.954052946752423
v 1.155123374846982 11.700698711373022 -3.820720363803617
v 3.133319214819459 15.125626479417958 -2.471833745532114
v 0.568205782588635 10.786871739041345 3.955392979179720
v 0.570109224623999 10.800082813230334 -3.956340030352434
v 2.245202073429558 14.317753409018614 3.294148484492744
v 1.183401066505680 15.125517485881522 -3.813955758081848
v 1.182190765124288 15.135376151823362 3.813785286604499
v 3.974742637310600 14.318104374110447 -0.366614150800571
v 1.728773356068431 15.119394458699004 -3.590629874839539
v 1.727723947542415 15.138774381943346 3.592045346949341
v 1.172323410686339 14.276773307295191 3.814154197580157
v 1.179885745643227 14.267785540111610 -3.815452288195411
v 2.235179986028414 15.142545845878360 3.301987088037814
v 1.137111125705984 10.838462746000921 -3.833347146475608
v 1.132148064428939 10.825094925268150 3.833689462663499
v 2.741588319713957 14.334285118952732 2.906505816605868
v 3.574612581339038 13.511298328280445 -1.757813118494671
v 1.735152368402596 14.282069740591259 -3.586621459313784
v 3.832882583920868 14.316457272910879 -1.118280759583823
v 2.254727558474950 14.289864891165085 -3.286494501182371
v 2.237746001367150 15.114368197353553 -3.301336116094462
v 3.516147409633422 15.150253657990433 1.880125686498257
v 3.827054870466305 14.335086466992376 1.134364851070367
v 3.557954274238536 14.338723204947900 1.811523636087332
v 3.980298980063296 13.513710200053122 -0.357725550988141
v 3.573231125641008 13.533299777617597 1.762866167059400
v 3.206662084328355 13.506048801652666 -2.362308396852572
v 3.970255951030185 14.326106070876978 0.399724851808124
v 3.837410335150194 13.530443384454204 1.097831937267283
v 1.157621944310398 12.553024636950941 3.819863831943325
v 1.101777312363643 9.985004454304848 3.834655649838744
v 1.100679598677765 9.991514589929585 -3.835649177271153
v 0.595060981098749 13.392759654492362 -3.955281142836615
v 1.168509737511706 12.564223217095233 -3.815806081582461
v 0.601114180864167 15.123095412239593 -3.953651826629749
v 0.600637466035455 15.128482741720575 3.954054619835418
v 2.695506429568805 15.146299456525670 2.944205501600211
v 0.546470344717873 9.955878485984153 3.959970731528450
v 0.544900523855502 9.962490127505497 -3.960192999644305
v 3.186416997982319 14.312665283977607 -2.401905706099889
v 3.979845240072245 13.519636929335258 0.380141650608032
v 2.447220222017151 15.999999999999847 -1.404107774019649
v 0.599266276917685 16.000000000000178 -2.978437493860099
v 0.605322198712134 15.999999999999700 2.985197622885027
v 1.289896022789427 15.999999999999943 -0.567402477484229
v 1.290637739947698 16.000000000000227 0.601495962882598
v 0.636891930416906 16.000000000000153 -0.603649428162104
v 0.616012544606170 16.000000000000256 -1.860036898062674
v 0.620849651679305 16.000000000000341 1.878765139107490
v 1.940554543391623 15.999999999999851 0.547475533981045
v 1.939840627820652 15.999999999999890 -0.510521231334224
v 0.639085696772916 16.000000000000121 0.631167834999474
v 2.779211466978690 16.000000000000004 -2.110335703128666
v 1.841423039160453 16.000000000000028 -1.552877578848332
v 1.235871182566912 16.000000000000398 1.736761053921770
v 1.749054920945375 16.000000000000032 -2.596007138388918
v 2.472072229689751 15.999999999999783 1.466483826943263
v 1.758162981722617 16.000000000000249 2.610185106752220
v 1.230170472807933 16.000000000000224 -1.710760955234711
v 1.846566632211912 15.999999999999957 1.590600843981214
v 3.103927224821661 15.999999999999972 1.340310928843992
v 3.112868871545959 15.999999999999998 -1.313253571982592
v 1.184797175750768 16.000000000000121 -2.807441793778995
v 1.194374625822517 15.999999999999931 2.816357537616621
v 2.275723513017093 15.999999999999801 2.375265752911934
v 2.793042982404381 15.999999999999801 2.139171437204254
v 2.277858891765419 16.000000000000007 -2.360307440826636
v 2.611166713970760 15.999999999999726 0.519475929650278
v 2.608537568776666 15.999999999999972 -0.472361669966977
v 3.284005988078885 15.999999999999774 -0.429194337329855
v 3.282003750243540 15.999999999999829 0.472998484151127
v 0.500129250724274 9.165151390000000 -3.947434295596716
v 3.161336207275958 9.165151390000000 2.416720837287759
v 2.168489172544405 9.165151390000000 -3.341522066292257
v 0.506538589731056 9.165151390000000 3.946760646896579
v 5.627218616822606 0.000000000000000 8.261656026659127
v 9.088362046625928 0.000000000000000 -4.144898769944669
v 8.674960667838008 0.000000000000000 4.954637245423892
v 9.814145315305412 0.000000000000000 1.908482529574870
v 9.970876883430932 0.000000000000000 -0.592814694823442
v 9.503561560382586 0.000000000000000 3.086862273543836
v 1.887371060281119 0.000000000000000 9.817276906100361
v 3.772036460296853 0.000000000000000 9.258402317610035
v 8.675870365132551 0.000000000000000 -4.953119507182468
v 9.507668841533356 0.000000000000000 -3.075383191660492
v 9.088425691434448 0.000000000000000 4.144764204304941
v 9.967213264968084 0.000000000000000 0.667389366660263
v 2.059216840284670 0.000000000000000 -9.780721651203152
v 0.000000000000000 7.496816231991390 -6.604691683006680
v 9.821467365599378 0.000000000000000 -1.859121278354644
v 5.760184949069730 0.000000000000000 -8.163041473430512
v 0.000000000000000 1.968834219667895 9.802245457617838
v 0.000000000000000 2.268635393111930 9.728108178411892
v 0.000000000000000 2.568436566555965 9.653970899205946
v 3.830554201011449 9.165151390000000 1.112203856790693
v 2.721782761379818 9.165151390000000 -2.902340647831936
v 2.692568225647851 9.165151390000000 2.928645533976203
v 3.842636781541119 9.165151390000000 -1.055359782186137
v 3.978087580000000 9.165151390000000 0.395892337258210
v 3.978087580000000 9.165151390000000 -0.335923979784660
v 3.553444145124751 9.165151390000000 1.799333403727807
v 3.202653296964757 9.165151390000000 -2.359852742433401
v 3.581500646134459 9.165151390000000 -1.736317470911220
v 2.168791970780189 9.165151390000000 3.341347245651358
v 1.581131038731268 9.165151390000000 -3.669068198348238
v 1.020616556833585 9.165151390000000 -3.851190391652259
v 4.082359919859881 0.000000000000000 -9.117940720251132
v 1.032740938872616 9.165151390000000 3.847250941163971
v 1.594179103824500 9.165151390000000 3.664828625045676
v 0.000000000000000 8.894027319593530 -4.539790489615863
v 0.000000000000000 7.578178204394054 6.516749642473575
v 0.000000000000000 0.758641062735363 9.963188483515001
v 0.000000000000000 1.406112253581093 9.888868591537184
v 0.000000000000000 0.000000000000000 -4.337091604607931
v 0.000000000000000 0.000000000000000 2.813158545384770
v 0.000000000000000 0.000000000000000 -0.768253658640218
v 0.000000000000000 0.000000000000000 6.774371190409656
v 0.000000000000000 0.000000000000000 -2.534678068374980
v 0.000000000000000 0.000000000000000 0.997212536357973
v 0.000000000000000 0.000000000000000 4.731648276238589
v 0.000000000000000 0.000000000000000 -6.217228486180726
v 0.000000000000000 0.000000000000000 -8.278222222058826
v 0.000000000000000 0.000000000000000 8.600048821959163
v 0.000000000000000 16.000000000000000 -3.110927957769491
v 0.000000000000000 16.000000000000000 3.116592879082074
v 0.000000000000000 16.000000000000000 -1.969659648646225
v 0.000000000000000 16.000000000000000 1.985390574378375
v 0.000000000000000 16.000000000000000 -0.656295818737579
v 0.000000000000000 16.000000000000000 0.677452629388714
v 0.000000000000000 9.909437379397898 -4.000000000000000
v 0.000000000000000 11.620769263421435 -4.000000000000000
v 0.000000000000000 10.733546915972831 4.000000000000000
v 0.000000000000000 12.497713528948159 -4.000000000000000
v 0.000000000000000 9.903760926095901 4.000000000000000
v 0.000000000000000 13.368157838487111 -4.000000000000000
v 0.000000000000000 13.365145570500221 4.000000000000000
v 0.000000000000000 14.240355451518338 -4.000000000000000
v 0.000000000000000 14.243711363926330 4.000000000000000
v 0.000000000000000 15.114899531735645 -4.000000000000000
v 0.000000000000000 15.118170364421850 4.000000000000000
v 0.000000000000000 10.748034240936652 -4.000000000000000
v 0.000000000000000 11.604800178236095 4.000000000000000
v 0.000000000000000 12.487267087429757 4.000000000000000
v 1.198164117304810 16.000000000000000 3.793501692835195
v 1.192747511950683 16.000000000000000 -3.795261654583224
v 1.755463963957851 16.000000000000000 3.579982278868838
v 2.261477312162509 16.000000000000000 3.287835339478858
v 2.260447111794152 16.000000000000000 -3.288430125931906
v 1.750534175765727 16.000000000000000 -3.582828493375391
v 2.631530415737624 16.000000000000000 -2.983604224913986
v 3.971708584570820 16.000000000000000 0.448124665254904
v 3.457272392554265 16.000000000000000 -2.009399625121016
v 3.804653110319310 16.000000000000000 -1.234058913169416
v 3.790746939144889 16.000000000000000 1.266342603485574
v 3.978087580000000 16.000000000000000 -0.402941614735139
v 3.448587900485606 16.000000000000000 2.021352802908761
v 0.607077507997084 16.000000000000000 -3.936193580381385
v 0.610466930319491 16.000000000000000 3.935837337726832
v 2.631654880533503 16.000000000000000 2.983492156308323
v 2.972579300000000 16.000000000000000 -2.676522430000000
v 0.000000000000000 9.165151390000000 4.000000000000000
v 0.000000000000000 0.000000000000000 10.000000000000000
v 8.314696120000001 0.000000000000000 5.555702330000000
v 0.000000000000000 4.660751380000000 -8.847451420000001
v 0.000000000000000 2.868237740000000 9.579833620000000
v 0.000000000000000 0.000000000000000 -10.000000000000000
v 7.071067810000000 0.000000000000000 -7.071067810000000
v 0.000000000000000 16.000000000000000 -4.000000000000000
v 0.000000000000000 16.000000000000000 4.000000000000000
v 2.972579300000000 16.000000000000000 2.676522430000000
f 96 113 29 1
f 29 5 130 1
f 130 48 91 1
f 91 42 96 1
f 100 441 448 2
f 448 453 26 2
f 26 126 110 2
f 110 28 100 2
f 52 23 47 3
f 47 54 120 3
f 120 121 119 3
f 119 106 52 3
f 19 444 443 4
f 443 439 18 4
f 18 105 104 4
f 104 11 19 4
f 29 446 447 5
f 447 442 7 5
f 7 85 130 5
f 8 450 449 6
f 449 418 27 6
f 27 49 78 6
f 78 12 8 6
f 442 444 19 7
f 19 11 85 7
f 32 416 450 8
f 12 45 32 8
f 43 88 86 9
f 86 75 74 9
f 74 21 34 9
f 34 51 43 9
f 17 23 70 10
f 70 81 124 10
f 124 65 61 10
f 61 40 17 10
f 104 88 87 11
f 87 67 85 11
f 78 123 106 12
f 106 119 45 12
f 56 125 118 13
f 118 437 436 13
f 436 457 129 13
f 129 60 56 13
f 33 103 98 14
f 98 107 46 14
f 46 429 421 14
f 421 428 33 14
f 117 90 108 15
f 108 66 79 15
f 79 422 430 15
f 430 425 117 15
f 47 23 17 16
f 17 40 92 16
f 92 58 53 16
f 53 54 47 16
f 439 445 127 18
f 127 94 105 18
f 24 59 68 20
f 68 90 117 20
f 117 425 423 20
f 423 431 24 20
f 74 93 111 21
f 111 108 90 21
f 90 68 34 21
f 116 112 99 22
f 99 509 438 22
f 438 437 118 22
f 118 125 116 22
f 52 82 70 23
f 114 77 59 24
f 431 424 114 24
f 57 89 55 25
f 55 116 125 25
f 125 56 62 25
f 62 76 57 25
f 453 452 122 26
f 122 112 126 26
f 418 440 113 27
f 113 96 49 27
f 95 131 100 28
f 110 89 50 28
f 50 31 95 28
f 113 440 446 29
f 66 64 76 30
f 76 62 115 30
f 115 101 36 30
f 36 79 66 30
f 75 94 95 31
f 50 72 93 31
f 93 74 75 31
f 416 454 474 383
f 45 508 433 32
f 65 124 103 33
f 428 511 65 33
f 68 59 51 34
f 71 73 63 35
f 63 39 38 35
f 38 80 107 35
f 107 98 71 35
f 101 420 507 36
f 507 422 79 36
f 38 39 97 37
f 97 43 51 37
f 51 59 77 37
f 77 80 38 37
f 63 48 67 39
f 67 87 97 39
f 61 435 451 40
f 451 432 92 40
f 122 452 419 41
f 419 505 455 41
f 455 509 99 41
f 99 112 122 41
f 102 49 96 42
f 91 73 69 42
f 69 84 102 42
f 97 87 88 43
f 46 107 80 44
f 80 77 114 44
f 114 424 434 44
f 434 429 46 44
f 119 121 508 45
f 130 85 67 48
f 63 73 91 48
f 102 123 78 49
f 89 57 72 50
f 106 123 82 52
f 58 190 182 53
f 182 166 54 53
f 166 186 120 54
f 89 110 126 55
f 126 112 116 55
f 60 115 62 56
f 76 64 72 57
f 92 432 510 58
f 510 466 190 58
f 129 128 83 60
f 83 101 115 60
f 65 511 435 61
f 111 93 72 64
f 66 108 111 64
f 73 71 109 69
f 109 81 84 69
f 82 84 81 70
f 98 103 109 71
f 86 105 94 75
f 109 103 124 81
f 123 102 84 82
f 128 426 427 83
f 427 420 101 83
f 88 104 105 86
f 127 131 95 94
f 131 417 441 100
f 186 249 121 120
f 249 433 508 121
f 445 417 131 127
f 129 457 456 128
f 456 506 426 128
f 422 507 420 132
f 420 427 157 132
f 157 139 159 132
f 159 430 422 132
f 463 460 134 133
f 134 150 152 133
f 152 151 141 133
f 141 459 463 133
f 460 462 156 134
f 156 149 150 134
f 461 464 153 135
f 153 147 139 135
f 139 157 160 135
f 160 467 461 135
f 138 424 431 136
f 431 423 144 136
f 144 151 152 136
f 152 150 138 136
f 428 421 158 137
f 158 146 140 137
f 140 451 435 137
f 435 511 428 137
f 143 434 424 138
f 150 149 143 138
f 147 142 159 139
f 161 432 451 140
f 146 155 161 140
f 151 147 153 141
f 153 464 459 141
f 425 430 159 142
f 147 151 144 142
f 144 423 425 142
f 145 429 434 143
f 149 148 145 143
f 148 146 158 145
f 158 421 429 145
f 148 154 155 146
f 149 156 154 148
f 458 465 155 154
f 156 462 458 154
f 465 466 161 155
f 427 426 160 157
f 426 506 467 160
f 466 510 432 161
f 195 251 169 162
f 169 197 165 162
f 165 172 234 162
f 234 173 195 162
f 189 194 181 163
f 181 196 176 163
f 176 185 168 163
f 168 200 189 163
f 225 222 236 164
f 236 460 463 164
f 463 459 210 164
f 210 213 225 164
f 197 232 221 165
f 221 211 172 165
f 182 217 209 166
f 209 191 186 166
f 243 469 471 167
f 471 473 174 167
f 174 228 203 167
f 203 255 243 167
f 170 239 200 168
f 185 171 170 168
f 251 216 207 169
f 207 204 197 169
f 476 486 239 170
f 171 478 476 170
f 185 195 173 171
f 173 505 478 171
f 211 202 258 172
f 258 175 234 172
f 234 175 505 173
f 473 472 188 174
f 188 220 228 174
f 258 245 244 175
f 244 455 505 175
f 196 216 251 176
f 251 195 185 176
f 241 229 235 177
f 235 219 198 177
f 198 181 194 177
f 194 214 241 177
f 220 188 231 178
f 231 238 257 178
f 257 201 180 178
f 180 248 220 178
f 256 218 212 179
f 212 199 183 179
f 183 236 222 179
f 222 227 256 179
f 201 229 241 180
f 241 214 248 180
f 198 184 196 181
f 190 247 217 182
f 199 458 462 183
f 462 460 236 183
f 198 219 205 184
f 205 242 215 184
f 215 216 196 184
f 191 187 249 186
f 474 454 242 205
f 191 224 250 187
f 454 187 250 242
f 472 470 231 188
f 200 192 193 189
f 193 214 194 189
f 466 465 247 190
f 209 218 224 191
f 240 253 237 192
f 237 223 193 192
f 200 239 240 192
f 223 248 214 193
f 204 227 232 197
f 212 217 247 199
f 247 465 458 199
f 257 481 479 201
f 479 477 229 201
f 211 208 254 202
f 254 233 259 202
f 259 245 258 202
f 228 223 237 203
f 237 253 255 203
f 207 230 226 204
f 226 256 227 204
f 219 485 474 205
f 454 433 249 187
f 456 457 233 206
f 233 254 246 206
f 246 461 467 206
f 467 506 456 206
f 216 215 230 207
f 211 221 213 208
f 213 210 252 208
f 252 246 254 208
f 217 212 218 209
f 459 464 252 210
f 221 232 225 213
f 242 250 230 215
f 256 226 224 218
f 235 475 485 219
f 248 223 228 220
f 225 232 227 222
f 226 230 250 224
f 477 475 235 229
f 470 468 238 231
f 457 436 259 233
f 468 512 483 238
f 483 481 257 238
f 486 487 240 239
f 487 480 253 240
f 484 513 469 243
f 255 482 484 243
f 245 437 438 244
f 438 509 455 244
f 259 436 437 245
f 252 464 461 246
f 480 482 255 253
f 349 357 354 260
f 354 351 355 260
f 355 262 276 260
f 276 272 349 260
f 377 343 356 261
f 356 362 269 261
f 269 323 378 261
f 378 337 377 261
f 355 344 341 262
f 341 338 374 262
f 374 277 276 262
f 368 366 271 263
f 271 381 360 263
f 360 312 310 263
f 310 370 368 263
f 384 346 301 264
f 301 305 363 264
f 363 270 361 264
f 361 371 384 264
f 365 492 494 265
f 494 504 346 265
f 346 384 273 265
f 273 364 365 265
f 267 334 288 266
f 288 278 289 266
f 289 440 418 266
f 418 449 267 266
f 376 358 334 267
f 449 450 376 267
f 280 335 292 268
f 292 303 274 268
f 274 453 448 268
f 448 441 280 268
f 362 364 283 269
f 283 275 323 269
f 363 352 369 270
f 369 316 325 270
f 325 322 361 270
f 366 500 514 271
f 514 503 381 271
f 312 360 349 272
f 276 277 281 272
f 281 284 312 272
f 384 371 326 273
f 326 283 364 273
f 303 359 375 274
f 375 452 453 274
f 283 326 285 275
f 285 307 290 275
f 290 342 323 275
f 374 331 336 277
f 336 282 281 277
f 288 290 307 278
f 307 287 300 278
f 300 299 289 278
f 324 329 286 279
f 286 335 280 279
f 280 441 417 279
f 417 445 324 279
f 282 294 284 281
f 336 303 292 282
f 292 335 294 282
f 298 310 312 284
f 294 332 298 284
f 326 371 291 285
f 291 287 307 285
f 329 315 332 286
f 332 294 335 286
f 291 322 320 287
f 320 328 300 287
f 334 342 290 288
f 299 446 440 289
f 371 361 322 291
f 313 495 498 293
f 498 500 366 293
f 366 368 367 293
f 367 372 313 293
f 317 330 333 295
f 333 315 329 295
f 329 324 306 295
f 306 311 317 295
f 299 300 328 296
f 328 327 309 296
f 309 442 447 296
f 447 446 299 296
f 309 327 318 297
f 318 317 311 297
f 311 443 444 297
f 444 442 309 297
f 302 370 310 298
f 332 315 302 298
f 346 504 496 301
f 496 497 305 301
f 308 373 370 302
f 315 333 308 302
f 336 331 359 303
f 305 497 499 304
f 499 495 313 304
f 313 372 352 304
f 352 363 305 304
f 324 445 439 306
f 439 443 311 306
f 314 385 373 308
f 333 330 314 308
f 316 369 385 314
f 330 319 316 314
f 319 321 325 316
f 318 319 330 317
f 327 321 319 318
f 322 325 321 320
f 321 327 328 320
f 342 345 378 323
f 374 338 340 331
f 340 347 359 331
f 358 345 342 334
f 378 345 339 337
f 339 475 477 337
f 477 479 377 337
f 341 480 487 338
f 487 486 340 338
f 345 358 348 339
f 348 485 475 339
f 486 476 347 340
f 344 482 480 341
f 379 350 356 343
f 377 479 481 343
f 481 483 379 343
f 355 351 380 344
f 380 484 482 344
f 476 478 382 347
f 382 375 359 347
f 358 376 383 348
f 383 474 485 348
f 360 381 357 349
f 379 501 489 350
f 489 493 353 350
f 353 362 356 350
f 354 490 488 351
f 488 502 380 351
f 372 385 369 352
f 493 492 365 353
f 365 364 362 353
f 357 491 490 354
f 381 503 491 357
f 368 370 373 367
f 373 385 372 367
f 382 419 452 375
f 450 416 383 376
f 483 512 501 379
f 502 513 484 380
f 478 505 419 382
f 454 416 32 433
f 411 400 398 386
f 398 395 413 386
f 413 414 406 386
f 406 397 411 386
f 392 403 407 387
f 407 489 501 387
f 501 512 468 387
f 468 470 392 387
f 408 399 393 388
f 393 471 469 388
f 469 513 502 388
f 502 488 408 388
f 390 394 395 389
f 395 398 403 389
f 403 392 391 389
f 391 396 390 389
f 399 404 394 390
f 396 393 399 390
f 392 470 472 391
f 472 473 396 391
f 396 473 471 393
f 404 401 412 394
f 412 413 395 394
f 494 492 411 397
f 406 497 496 397
f 496 504 494 397
f 400 407 403 398
f 408 402 404 399
f 411 492 493 400
f 493 489 407 400
f 404 402 409 401
f 409 410 405 401
f 405 415 412 401
f 408 488 490 402
f 490 491 409 402
f 410 500 498 405
f 498 495 415 405
f 414 499 497 406
f 491 503 410 409
f 503 514 500 410
f 415 414 413 412
f 415 495 499 414
