v 3.952716870977724 -2.472424344945832 -5.132326507500412
v 4.418761440382234 -2.469059329304887 -5.136255227776534
v 4.401010096777524 -2.595100589209616 -4.744415857596064
v 4.389632145272385 -2.376150276251743 -4.385183809104811
v 3.889211997257668 -2.595057624941466 -4.739645065399003
v 4.886792303821384 -2.596106942202351 -4.755188891963082
v 3.567490427131232 -2.111100633903996 -5.299158141472113
v 3.500000000000011 -1.758470305850843 -4.407116977950357
v 2.672318694855687 -4.701323066065362 -1.693756510209959
v 4.539168764117455 -4.727376431213780 -1.703024050860070
v 2.203730798683382 -4.684824295670071 -1.687887673225772
v 1.714460615284396 -4.654801874228352 -1.677208286991801
v 3.598808171831381 -4.713952414550237 -1.698248945914705
v 4.072041402618495 -4.717267103834498 -1.699428023496379
v 3.135933668962863 -4.710592037944302 -1.697053612802869
v 3.051105708710442 -4.999999999999992 -5.021332940777858
v 3.461086269247448 -5.000000000000018 -5.019412293894161
v 3.076858308844437 -4.999999999999995 -2.796672023144147
v 3.510429904218812 -4.999999999999995 -2.793322206551276
v 4.272743126868098 -4.999999999999991 -4.582507134366807
v 4.286181226966749 -5.000000000000000 -4.130857902272322
v 1.330309730233996 -5.000000000000005 -3.711901306340646
v 3.093413003371438 -5.000000000000012 -2.355239545745658
v 1.763748228580150 -4.999999999999997 -3.699945626211185
v 2.198474266451345 -5.000000000000012 -3.694986585988667
v 1.776193026092646 -4.999999999999984 -4.157154306920470
v 2.203915222686613 -4.999999999999984 -4.145091408531731
v 1.758814953855177 -5.000000000000004 -3.242533304109876
v 2.195905213735479 -5.000000000000004 -3.242491950078662
v 1.312845439183265 -4.999999999999964 -3.242940458569617
v 2.631812493123205 -4.999999999999996 -4.584657431282647
v 3.047494039464566 -4.999999999999999 -4.580000428005182
v 1.307059601780532 -5.000000000000001 -2.773473122621921
v 4.660282257673848 -4.999999999999996 -5.039335955145512
v 2.625885540097899 -4.999999999999988 -4.139134612638544
v 2.627566380795907 -5.000000000000036 -3.691809061826532
v 1.344838493857337 -4.999999999999981 -4.169668391396344
v 4.709480070772608 -5.000000000000015 -3.675490500484202
v 3.051068450403200 -5.000000000000009 -3.687857203177875
v 3.048404585029891 -4.999999999999979 -4.135046364353316
v 3.465125337653697 -4.999999999999992 -4.132068509149027
v 2.224204846429858 -5.000000000000039 -5.036417946743665
v 2.212236319328295 -5.000000000000040 -4.593225380542256
v 1.789164946586431 -4.999999999999996 -4.606114683688530
v 2.658241546140319 -5.000000000000022 -1.913338782766595
v 3.076228771677526 -4.999999999999991 -5.884617497934874
v 3.473767306384248 -4.999999999999992 -5.889235371824206
v 3.112840809292520 -5.000000000000018 -1.921707329599462
v 3.570257271607442 -5.000000000000018 -1.924368450486511
v 1.844582893551273 -5.000000000000027 -5.923795507888005
v 2.261586460575181 -5.000000000000027 -5.901443517818139
v 4.023187361336265 -5.000000000000005 -1.919701318501522
v 4.303366085637216 -4.999999999999995 -3.677578147718409
v 2.653229762182600 -5.000000000000007 -5.461409241540862
v 1.804512618057946 -4.999999999999990 -5.051931913724162
v 1.383794709423701 -4.999999999999977 -5.074860417676947
v 4.774377714586486 -4.999999999999978 -2.742637452631437
v 3.938999682422208 -4.999999999999947 -2.784450542504020
v 3.979204341769027 -4.999999999999948 -2.346183268947408
v 1.741527157076703 -4.999999999999991 -1.867766732040860
v 2.202222253105477 -4.999999999999991 -1.898223878776090
v 3.869026111775882 -5.000000000000006 -5.899771361718047
v 4.259014052981022 -5.000000000000006 -5.918502926658030
v 2.630853513765400 -5.000000000000023 -3.242663699570634
v 1.364155387955035 -4.999999999999998 -4.624517740013882
v 4.735932130607850 -5.000000000000000 -3.213059618947450
v 2.647724089469546 -4.999999999999986 -2.351809292885465
v 3.464082010801430 -4.999999999999994 -5.458036119632895
v 3.863398983868990 -4.999999999999994 -5.465205835150464
v 3.060827904076475 -5.000000000000004 -5.457617993662062
v 2.197871901499686 -4.999999999999973 -2.790511280858906
v 3.863963285685394 -5.000000000000002 -5.023712527203566
v 4.675925441013072 -5.000000000000027 -4.586600175595661
v 1.323816241058594 -4.999999999999980 -2.304803539526598
v 4.647725356951689 -5.000000000000005 -5.494172566143485
v 4.690969039098157 -4.999999999999972 -4.132256239371383
v 1.361620872198325 -4.999999999999972 -1.835331749890627
v 4.632659452993933 -5.000000000000006 -5.955502580874048
v 3.475163736948282 -4.999999999999978 -3.684815198991767
v 1.756015032239338 -4.999999999999984 -2.783733179328590
v 1.403200304467676 -4.999999999999971 -5.517303968712379
v 4.851247812554252 -5.000000000000031 -2.279719954453961
v 3.459812227495162 -5.000000000000009 -4.578149283259003
v 3.869845938649815 -5.000000000000009 -4.577920168365972
v 1.423741196617549 -4.999999999999994 -5.956928303220453
v 4.486981085813769 -5.000000000000042 -1.891446659146755
v 2.670100906325394 -4.999999999999999 -5.891079914913611
v 3.061394646225374 -4.999999999999984 -3.241034867472960
v 1.822885703285011 -4.999999999999972 -5.492721070772245
v 4.365411519166666 -5.000000000000057 -2.771175590892501
v 4.417106240290556 -5.000000000000057 -2.321873222581665
v 4.257263593573514 -5.000000000000008 -5.478202674696425
v 2.239328608002170 -4.999999999999978 -5.474817666746967
v 3.876813162036978 -5.000000000000012 -4.131333786117040
v 4.331283422610819 -4.999999999999989 -3.223818316670501
v 3.536682083996823 -4.999999999999994 -2.353112794706526
v 4.265604447166835 -4.999999999999991 -5.029309109588725
v 1.759119401638451 -4.999999999999980 -2.324235069799547
v 2.200868092612850 -5.000000000000018 -2.339701388497388
v 2.636779398195148 -4.999999999999987 -2.794291646968396
v 2.640680804685814 -4.999999999999986 -5.026102431829733
v 3.490959944337170 -4.999999999999964 -3.238106490715094
v 3.912417593977551 -4.999999999999964 -3.232025577809287
v 3.891702512026646 -4.999999999999983 -3.681325175362542
v 0.999999999999996 -1.225774989825928 -5.413857619725725
v 1.000000000000002 -4.451341017371000 -3.741676140544114
v 0.999999999999992 -1.494681838022169 -3.948629490405642
v 1.000000000000000 -4.021849056361155 -3.781682880021172
v 1.000000000000009 -2.003826781490884 -4.973896176304997
v 0.999999999999989 -1.970233187818165 -4.590808018780558
v 1.000000000000002 -4.888812079131037 -3.721184309734017
v 1.000000000000002 -4.866062233103005 -3.249368774144887
v 0.999999999999998 -1.942135369326788 -4.201586041209850
v 1.000000000000005 -3.181444297138978 -3.905327225758914
v 0.999999999999996 -2.769664343146969 -3.993292596645122
v 0.999999999999999 -2.733655241418050 -3.527562994125296
v 1.000000000000026 -1.548721010992306 -4.669917601908600
v 1.000000000000000 -3.251966513909052 -4.804022062237086
v 1.000000000000001 -3.314332022831767 -5.669949629258676
v 1.000000000000002 -3.283665036112013 -5.237549970439414
v 1.000000000000002 -1.515833125730804 -4.316186319594773
v 0.999999999999998 -2.896837694791189 -5.704517651123492
v 1.000000000000002 -1.918435271275751 -3.793725141739344
v 0.999999999999986 -2.419083716360932 -4.917306018807892
v 0.999999999999995 -3.891854976286818 -2.748773897573113
v 0.999999999999999 -3.732225971707726 -5.635333006234016
v 1.000000000000008 -4.486367405785080 -4.218201844646210
v 1.000000000000008 -4.915513561907705 -4.188661192845936
v 0.999999999999998 -4.059246215868208 -4.254578187196650
v 1.000000000000002 -3.473243595188749 -2.798153834828530
v 1.000000000000002 -2.450651615792868 -5.325073573289896
v 1.000000000000004 -4.961305338548883 -5.098033449201843
v 1.000000000000004 -4.939347480483219 -4.647679964762865
v 0.999999999999996 -2.329546917443183 -3.662217898677196
v 0.999999999999999 -4.513560628445732 -4.674742142706522
v 0.999999999999997 -2.480323655573306 -5.735976006475887
v 0.999999999999998 -2.866580435615310 -5.281802521044327
v 1.000000000000006 -2.356216948780101 -4.091625584364997
v 0.999999999999997 -3.138352714844966 -3.422544807647798
v 0.999999999999995 -3.636457759847763 -4.301342619252920
v 1.000000000000021 -4.862315747913281 -2.284028346725039
v 0.999999999999999 -3.546768442410835 -3.339566192510674
v 0.999999999999993 -3.218111392637073 -4.361104297031778
v 0.999999999999996 -3.972770349337799 -3.287436990410051
v 1.000000000000008 -4.350067954820146 -2.743529012740628
v 0.999999999999993 -1.587993427083435 -5.025455816637914
v 0.999999999999999 -2.387489568976757 -4.509600869948946
v 1.000000000000000 -4.413349468046917 -3.257596008369052
v 1.000000000000000 -2.835164398829949 -4.858246127993590
v 0.999999999999996 -2.037159942109320 -5.363134184228408
v 1.000000000000000 -4.981648854951503 -5.548689342858303
v 1.000000000000000 -4.564950539628361 -5.575194931854742
v 1.000000000000006 -4.091109225105820 -4.710769027725854
v 0.999999999999989 -2.802611940660163 -4.432031530417572
v 1.000000000000002 -4.120871992749628 -5.159438927290585
v 0.999999999999996 -1.077203266109176 -4.418753484670078
v 0.999999999999997 -4.540149717356060 -5.127276164851598
v 0.999999999999998 -3.701398126519329 -5.198148355064503
v 1.000000000000000 -4.847700905966946 -2.765246650227128
v 1.000000000000002 -4.149038133995388 -5.603484185226398
v 0.999999999999997 -3.597982319826192 -3.833953586199354
v 0.999999999999950 -1.167960356731402 -5.071127629592723
v 1.000000000000036 -1.628955211872211 -5.387011401123720
v 0.999999999999998 -3.670364845066704 -4.754719225441757
v 0.999999999999983 -2.066428239842310 -5.762083471566310
v 1.000000000000072 -1.662065623561865 -5.762548803107823
v 0.999999999999976 -1.126189889661437 -4.734101520296599
v 4.852797758671908 -2.087528461925594 -5.298764829928821
v 4.405137945945022 -1.939454882762042 -4.327089325082499
v 3.926040853727565 -1.869765388309058 -4.356199000940670
v 3.581893523921666 -1.600835287290634 -4.789856332049441
v 4.970801891392421 -1.679792330420002 -4.540477454058379
v 4.443718900981750 -1.703592849910598 -5.101358843053408
v 3.990771831657425 -1.720446869005534 -5.123536144721641
v 3.982427908396773 -1.608060350363909 -4.716644398271368
v 4.428631880026765 -2.085662425521098 -5.298690361256289
v 3.982847410222982 -2.096347750907196 -5.299694755772616
v 4.438688057607948 -1.622202685760597 -4.654507118127972
v 4.853433476719577 -2.014388472661887 -4.307941634514187
v 3.500000000000009 -3.425563288727600 -3.573973716162338
v 3.500000000000004 -2.645231513286350 -3.879026569979488
v 3.500000000000000 -1.321992771880191 -4.864365386456511
v 3.500000000000003 -3.423882866936236 -4.662006712115240
v 3.500000000000003 -3.420839049192347 -5.118394595742101
v 3.499999999999991 -3.020062672601226 -3.033722706529751
v 3.499999999999992 -2.607934884064215 -3.311061714319231
v 3.499999999999993 -2.122377122383617 -5.624237010809988
v 3.500000000000001 -1.351789713695459 -4.457466706971141
v 3.499999999999996 -3.440087681991815 -5.559884790395401
v 3.499999999999999 -3.009728946798366 -5.997543547756639
v 3.499999999999998 -3.030466674648250 -3.718955221338037
v 3.500000000000000 -2.201048458382866 -3.563857319085690
v 3.499999999999996 -1.785048090309555 -3.798859241882846
v 3.499999999999996 -2.254823003204092 -4.075687441186099
v 3.500000000000007 -2.692798689394339 -4.349162265708904
v 3.499999999999994 -3.427145029298855 -4.160172771235330
v 3.500000000000007 -3.002798496766445 -5.572927771102346
v 3.500000000000007 -2.553571226038588 -5.594069811723485
v 3.499999999999989 -1.315918549472209 -5.278909954339229
v 3.500000000000004 -1.707082670351302 -5.647095181127850
v 3.500000000000010 -3.035546849946986 -4.703297396608685
v 3.499999999999994 -3.047078561449332 -4.241598699813843
v 3.500000000000000 -3.008284585950818 -5.140139364753390
v 3.499999999999964 -2.656022923471438 -4.745375195107453
v 3.696199494525163 -2.399530710003160 -4.407016686567099
v 3.499999999999996 -1.379430349564959 -3.998724407556381
v 2.824163478453346 -3.500000000000000 -5.985998762407813
v 3.161461680170060 -3.500000000000005 -2.721613238689339
v 3.156931174466987 -3.499999999999998 -5.985135103973991
v 2.828150737479564 -3.500000000000004 -2.721087256567122
v 2.816178021154096 -3.500000000000002 -5.557326810397928
v 3.173588215931847 -3.500000000000000 -5.554266204570056
v 2.797944228012938 -3.499999999999996 -4.118278971803816
v 3.187619579771146 -3.500000000000004 -3.523231912297022
v 2.806363663142366 -3.500000000000007 -3.515329415603888
v 3.186344663347659 -3.500000000000001 -4.634165729192546
v 2.795363603510605 -3.500000000000003 -4.634248466470252
v 3.185753394241630 -3.500000000000004 -4.125014145371996
v 2.799664555926885 -3.500000000000004 -5.111582882656087
v 3.188284679211850 -3.499999999999999 -5.105731828472224
v 2.500000000000008 -1.794395151591064 -4.546519829246840
v 2.500000000000000 -1.404372326057660 -4.283355655501209
v 2.500000000000009 -1.819705770729077 -4.127487184367908
v 2.499999999999994 -1.378427624257746 -4.652981477559497
v 2.500000000000008 -1.754529838825973 -5.331204461374633
v 2.500000000000007 -1.774000658748917 -4.943843330789085
v 2.499999999999995 -2.173540149148499 -5.276458727866658
v 2.500000000000003 -2.609984716830192 -4.316446302613169
v 2.500000000000000 -2.584800172195393 -5.653188644289644
v 2.500000000000000 -3.004524965183252 -4.708159107859768
v 2.500000000000000 -3.401479659635827 -4.663353778428560
v 2.499999999999999 -3.406474415392871 -4.145986627429730
v 2.500000000000004 -3.024653943112971 -3.664666614756542
v 2.500000000000004 -3.010119594446463 -4.218640585563136
v 2.500000000000000 -3.438944500580985 -5.573054534541767
v 2.499999999999997 -2.224408447652538 -3.959383474481220
v 2.499999999999998 -3.002877764700876 -5.170933991574685
v 2.499999999999994 -2.625869670349463 -3.802107892382196
v 2.500000000000008 -1.356208339613013 -5.016724881792358
v 2.499999999999996 -3.419929883244051 -3.548530423053257
v 2.500000000000004 -1.337910335410490 -5.379251725231084
v 2.499999999999998 -3.407722517849601 -5.130652693808461
v 2.499999999999995 -2.188689058427110 -4.861557381871716
v 2.499999999999992 -1.733474842339318 -5.715381438980058
v 2.500000000000004 -2.205509867447517 -4.427871365000144
v 2.499999999999994 -2.158666447888293 -5.690797333058544
v 2.500000000000000 -2.599056218127341 -4.780043208812887
v 2.499999999999996 -3.013415336601779 -5.612585390548640
v 2.500000000000000 -2.591434026193236 -5.221134114129818
v 1.948239615343328 -3.831100486025354 -6.000000000000015
v 1.152520889219993 -2.506919092255959 -5.999999999999908
v 4.715288333738969 -2.527634664184156 -6.000000000000003
v 2.445835197120797 -3.014168755701129 -6.000000000000009
v 3.899520042074086 -3.846836817404399 -6.000000000000007
v 3.512955190148567 -2.557201835014752 -5.999999999999984
v 2.697344578951981 -4.690049052844829 -5.999999999999989
v 4.294252695760735 -3.818512633884228 -5.999999999999996
v 1.101862702353730 -3.344992779733920 -5.999999999999962
v 1.072619200064002 -3.762767976910506 -6.000000000000000
v 1.042471016320542 -4.178681570247517 -6.000000000000000
v 3.890841073987537 -4.260274720655733 -6.000000000000002
v 4.703523898938882 -3.372161787448653 -6.000000000000028
v 3.488722049365125 -4.690308594744094 -6.000000000000004
v 1.873403683575239 -4.656273238947188 -6.000000000000006
v 1.906779605826414 -4.241128653704472 -5.999999999999975
v 2.416801583621338 -2.572766886089981 -5.999999999999989
v 3.879629054421758 -4.675740305739079 -5.999999999999989
v 2.288879589209074 -4.677616952358541 -6.000000000000009
v 3.501784380907866 -4.275655198328803 -5.999999999999996
v 3.094099642081826 -4.695043269011322 -6.000000000000004
v 4.320647001839939 -2.539449672860935 -6.000000000000032
v 1.997247733014176 -2.987286547830847 -6.000000000000061
v 4.653204744107267 -4.620797337208854 -6.000000000000012
v 1.557297874311284 -2.955097529058003 -6.000000000000029
v 4.696660948224989 -3.792250487115072 -5.999999999999988
v 3.901561571262065 -3.430369993709269 -5.999999999999996
v 2.772587207318026 -3.879941508596208 -5.999999999999995
v 1.508575193109922 -3.795180086673779 -6.000000000000001
v 4.708138952844848 -2.951056823966147 -6.000000000000004
v 2.390833571074293 -2.142996120443807 -6.000000000000073
v 3.542339810699960 -2.121856909083423 -5.999999999999995
v 3.510826719836920 -3.875675101441546 -5.999999999999996
v 2.326769877585475 -4.265667270180847 -6.000000000000014
v 2.388016295998366 -3.869470860659715 -6.000000000000005
v 1.990827226840262 -2.554333406385364 -5.999999999999957
v 3.921474536530734 -2.550438144582110 -6.000000000000004
v 3.140972816743222 -3.880216584089784 -5.999999999999994
v 3.947578490125797 -2.116312779291561 -5.999999999999980
v 4.336469787763360 -2.110264729002757 -5.999999999999996
v 4.723434161100290 -2.103821729862280 -6.000000000000004
v 1.128469632701401 -2.925818883332322 -6.000000000000013
v 4.284344316259565 -4.233823493184836 -6.000000000000002
v 4.302240476348198 -3.396784133673239 -6.000000000000012
v 1.019160298228115 -4.590475728047119 -6.000000000000023
v 4.309786631564600 -2.969735949477789 -6.000000000000009
v 1.447984000007742 -4.625273289196228 -6.000000000000027
v 1.477702432634797 -4.210475190460260 -6.000000000000017
v 4.270777451857596 -4.654511046877179 -6.000000000000018
v 4.684554066596519 -4.206528713325564 -5.999999999999989
v 1.570307389511645 -2.531833021635801 -6.000000000000057
v 1.982033305149735 -2.127556641928893 -6.000000000000011
v 1.581501260826894 -2.110298854469407 -6.000000000000199
v 1.177003612325100 -2.089732363763823 -5.999999999999957
v 3.907479352384869 -2.991950020222919 -6.000000000000009
v 3.116105508978752 -4.282324580482461 -5.999999999999996
v 2.728147069990270 -4.279455652986925 -6.000000000000006
v 1.537848558148418 -3.377574614289699 -6.000000000000007
v 1.984133044372084 -3.415685080926425 -5.999999999999989
v 4.708652014947484 -1.325292565789183 -5.733279440487802
v 3.708156298261780 -1.309865246001527 -5.718793257433672
v 3.641590300249521 -1.066561040459232 -5.349376819208654
v 4.351867206225291 -1.687793790451602 -5.949310844473246
v 4.017844676769614 -1.321935416678036 -5.729907664345723
v 4.362470532726530 -1.327951555944085 -5.736702809563155
v 4.356060483853371 -1.002519832836712 -5.032758169581733
v 4.759497202798962 -1.004296770376906 -5.059024335941325
v 3.612134938895665 -1.692445709340273 -5.949702722085405
v 4.004868158655253 -1.082397980030387 -5.388380114742826
v 4.367023843903715 -1.091536286529247 -5.411143509537975
v 4.738634746012768 -1.095380918502145 -5.421290373591994
v 4.720519166797731 -1.684033661298842 -5.948266675970309
v 3.987290277059861 -1.688511844127521 -5.949832589097234
v 4.732039498243092 -1.000000000000000 -4.697805663232247
v 3.539683070381018 -1.000000000000000 -4.534963742121737
v 3.902389188382045 -0.999999999999999 -4.194695912953762
v 3.934325970492924 -1.000000000000004 -4.594468620827867
v 4.292393634630322 -1.000000000000000 -4.255090933284832
v 4.327634447069496 -0.999999999999997 -4.649175479218346
v 3.969235489943938 -1.000000000000003 -4.991920586855255
v 4.681537588393420 -0.999999999999997 -4.350447336521004
v 3.573351210750264 -1.000000000000000 -4.936015509816131
v 1.967444790794706 -1.709128102436356 -5.952421850637529
v 1.596052842614084 -1.698585907196874 -5.950107930822337
v 2.278536509475928 -1.336476624944181 -5.744078515050685
v 2.341378845615947 -1.714463109169056 -5.958060039190359
v 1.273161713429405 -1.331346085026190 -5.741050606196799
v 1.613698106694367 -1.347768743742752 -5.754287797969233
v 1.267317231545177 -1.105471996387927 -5.443601786124235
v 1.627950707623155 -1.112944044409385 -5.454687673936350
v 1.985406603185766 -1.112103597449409 -5.450750795925766
v 1.960565112456793 -1.349665272724273 -5.755321054084602
v 1.645190425481184 -1.010477480919884 -5.107937211642277
v 2.025045543910353 -1.007380201562156 -5.101075907545025
v 1.219993535852658 -1.680287320734386 -5.945558027232583
v 2.343426467644422 -1.101472832825838 -5.429355840911551
v 2.426047844243373 -1.005040777557928 -5.074313437216169
v 1.258644869824255 -1.007084278313992 -5.099856521289664
v 4.999999999999985 -3.333762751826312 -5.493190912252764
v 4.999999999999998 -3.297515929051483 -3.792842737109501
v 5.000000000000052 -2.918102406362002 -5.500927746074424
v 5.000000000000034 -1.220210010861910 -5.065081725938904
v 5.000000000000001 -3.351666909579464 -5.895882527129476
v 4.999999999999976 -3.299288228403390 -4.248131379104599
v 5.000000000000007 -4.081576619313515 -3.206434706085679
v 5.000000000000015 -4.069763750118526 -2.679139592594074
v 5.000000000000014 -3.689438360809169 -2.682802145056981
v 5.000000000000036 -3.746771134627305 -5.485905252059988
v 4.999999999999997 -2.098382850468937 -5.883332483041284
v 4.999999999999945 -2.889384589451062 -4.315463473426958
v 5.000000000000034 -2.934540227807111 -5.896335663595301
v 4.999999999999996 -1.111059042602266 -4.390721560364443
v 4.999999999999972 -2.904479502835716 -3.404033570361298
v 5.000000000000004 -4.156816036671498 -5.485730122904308
v 4.999999999999980 -3.299907353455178 -3.301827961756881
v 5.000000000000007 -4.448044533989873 -2.696477414839788
v 4.999999999999986 -2.497640050178196 -3.510953009363866
v 4.999999999999993 -1.635576071582923 -4.204285787023385
v 4.999999999999972 -4.923582341664178 -4.593625576715861
v 4.999999999999972 -4.522686786036274 -4.601745565191678
v 5.000000000000000 -4.906512954857836 -4.137341707024619
v 5.000000000000016 -3.307097173195134 -4.673775964234051
v 4.999999999999978 -3.305056749051419 -2.758566321361791
v 4.999999999999988 -2.479310890471700 -3.977840377165197
v 5.000000000000021 -4.864389104753670 -3.203111518837181
v 4.999999999999980 -4.887274860587678 -3.674445059966803
v 5.000000000000013 -4.180603419843100 -5.910498314985341
v 5.000000000000013 -3.767111973147839 -5.898576453750980
v 5.000000000000022 -2.515855835779286 -5.893257101974648
v 4.999999999999990 -4.776613286082323 -2.218319216995167
v 4.999999999999996 -1.255534137854284 -5.422960456704677
v 5.000000000000048 -4.825396695750829 -2.725541378212105
v 4.999999999999996 -4.425498366643946 -2.155117145450085
v 5.000000000000062 -2.093819922460788 -5.504586081992178
v 4.999999999999998 -3.692607193353957 -3.236060093051463
v 4.999999999999950 -4.470470262427995 -3.199067682824566
v 5.000000000000023 -4.093172241964218 -3.697488555493987
v 5.000000000000052 -3.318234344513490 -5.086613318584690
v 5.000000000000023 -1.684243200820051 -5.838051766749990
v 5.000000000000014 -1.178983276125700 -4.701929843591220
v 5.000000000000018 -4.505873601929327 -4.146492296381589
v 4.999999999999995 -2.503028736571376 -5.508083442669811
v 4.999999999999993 -1.685240473547166 -5.465026071004381
v 4.999999999999990 -4.965424880874592 -5.511818104973168
v 5.000000000000004 -4.590185830397918 -5.944429128940708
v 4.999999999999980 -4.119562935936624 -4.616227706078115
v 4.999999999999965 -4.940855053726844 -5.046234462128950
v 4.999999999999972 -3.728611940796537 -5.067602051586952
v 4.999999999999986 -3.697210941324008 -3.736035570310556
v 4.999999999999890 -2.894921713129232 -4.719267407314979
v 5.000000000000018 -4.136559418992026 -5.055275836083129
v 4.999999999999993 -2.084264973650706 -3.654817841288554
v 5.000000000000021 -3.714853135441197 -4.642269694099821
v 4.999999999999954 -4.562525277371106 -5.495583590929465
v 4.999999999999886 -2.903839122769766 -5.110765771878739
v 5.000000000000063 -2.055768554916206 -4.078601691664411
v 5.000000000000007 -4.540394327299243 -5.049998587707325
v 5.000000000000036 -4.489629894988044 -3.681804359350478
v 4.999999999999979 -3.704363953999465 -4.201113758403267
v 4.999999999999889 -2.892560857688492 -3.873434789019042
v 4.999999999999963 -4.106126166835150 -4.167109905643450
v 1.280177920091341 -0.999999999999993 -4.755356768615703
v 1.668222233352724 -0.999999999999983 -4.755252927409422
v 2.057103794432986 -0.999999999999982 -4.750857153074145
v 2.461689597522923 -1.000000000000011 -4.727981860479421
v 2.482962744506048 -1.000000000000004 -4.425358850341786
v 2.075529432062915 -0.999999999999979 -4.406443514964659
v 1.689126990223926 -1.000000000000001 -4.401656575616460
v 1.315139177492076 -1.000000000000000 -4.424408368686056
v 1.581552273919671 -2.686020266941060 -3.219160700132574
v 4.327010746345626 -2.557984875260640 -3.308892831742137
v 2.021302251925423 -2.671264571228491 -3.231831619377859
v 4.285397832535046 -2.144714021984401 -3.570562152396416
v 1.633732256528049 -2.292885163829744 -3.482462329432947
v 1.674660909305988 -1.892664534473782 -3.718846439457451
v 4.515253888734035 -3.343778949072073 -2.728049673485841
v 1.497305978536217 -3.068940790371696 -2.944689473112983
v 4.141991215710597 -4.061412691117562 -2.076841648328931
v 4.411211080541862 -2.960237608604118 -3.029109389584088
v 1.982095173309044 -3.061846677291358 -2.948708112388134
v 4.104714260725481 -3.738498106136966 -2.386222980000322
v 2.696152299009891 -4.356022819545368 -1.768266073074513
v 2.496570374683132 -3.049820322503161 -2.961922773998994
v 1.803708714596182 -3.757227126853181 -2.370280288896168
v 1.231675464397393 -3.764501727262447 -2.361965037896165
v 4.021389108753756 -3.386094133047464 -2.691894525963278
v 1.908096771150195 -3.427234261257109 -2.657316765216470
v 1.026990856599920 -3.087037602839206 -2.932135641922392
v 4.849082320153295 -2.924184639059200 -3.052010887624335
v 2.217096247779761 -4.347211272384808 -1.778297490567316
v 2.039719973611062 -2.274103516761409 -3.495691029739983
v 2.446091833389023 -2.246232933534690 -3.509032103569333
v 1.379744266839271 -3.433936550533392 -2.654006287241771
v 4.748920835163786 -2.526365419177091 -3.331656090206594
v 1.151890323016048 -2.702330036142238 -3.212215696460296
v 2.431621978711066 -1.844585979862731 -3.743997928241376
v 4.674546707981027 -2.113630741835726 -3.589160590379598
v 3.155702670717923 -4.361441556065644 -1.764009173424012
v 4.645711298757001 -3.705619041537288 -2.415422948536342
v 3.955751671434188 -2.995285924056306 -2.999224343836176
v 3.914894565450720 -2.586786965206292 -3.289127525983509
v 4.596411517689808 -4.410396656905591 -1.711588031084638
v 3.891469139091580 -2.176603188726743 -3.553820965754358
v 2.054206738886610 -1.874983649985165 -3.730184571885714
v 2.345688169373465 -3.774579678423024 -2.353184876103273
v 3.593077463043430 -3.775457376488097 -2.351935445206497
v 1.716540727666980 -4.049332366767731 -2.089465166082257
v 1.698562616966495 -1.124508327472040 -4.107551472652547
v 4.269518739525927 -1.311202804564678 -4.021183030614868
v 4.114833753487044 -4.367783415555991 -1.757795025813775
v 4.978012638885379 -1.652163982471065 -3.849214544501940
v 1.288961420634220 -1.907538363655581 -3.711185673450637
v 2.435205740141962 -1.438044814007861 -3.959073898319785
v 1.695653445753166 -4.327389835742697 -1.800466440613472
v 2.467625456491227 -2.646377601660668 -3.250554548582395
v 1.235234730587355 -2.307810838987027 -3.472710262257581
v 3.878626671468677 -1.760469753749264 -3.793047947234448
v 1.690421415102161 -1.500235118580141 -3.927878901152007
v 4.263802292048341 -1.727808733775863 -3.809672077093748
v 2.078769569702960 -1.105754602345341 -4.116415524723530
v 2.249469721668325 -4.061711639688614 -2.079115353719251
v 3.627315247932346 -4.068921765293011 -2.069882962353829
v 1.327946224261482 -1.492938434842123 -3.929375842726555
v 4.632412105822111 -1.680310894665147 -3.834267167780387
v 3.175787687875435 -3.764549995659063 -2.363000265162137
v 2.774952361705790 -3.766866306198589 -2.361543556420162
v 2.065443143153086 -1.479248439249421 -3.938058089287011
v 3.623793570902063 -4.364126481602897 -1.761704368895384
v 4.635743005943361 -1.231079346880676 -4.059644747072713
v 1.338554082379494 -1.099115387029387 -4.120044862147102
v 2.726761177125073 -4.069461411263402 -2.071914352588546
v 3.883313717721020 -1.356301607261423 -4.000924976295898
v 3.170325459974870 -4.072009692573746 -2.068464744025496
v 5.000000000000000 -4.747392080000000 -1.710143895000000
v 1.000000000000000 -4.281598860000000 -1.847004425000000
v 5.000000000000000 -2.471572410000000 -5.134565300000000
v 3.500000000000000 -2.471572410000000 -5.134565300000000
v 5.000000000000000 -4.068413560000000 -2.073721060000000
v 5.000000000000000 -2.471572410000000 -4.465434700000000
v 5.000000000000000 -5.000000000000000 -1.800000000000000
v 1.000000000000000 -4.494784160000000 -1.620287790000000
v 1.000000000000000 -5.000000000000000 -1.800000000000000
v 5.000000000000000 -4.494784160000000 -1.620287790000000
v 5.000000000000000 -5.000000000000000 -6.000000000000000
v 1.000000000000000 -5.000000000000000 -6.000000000000000
v 1.000000000000000 -1.000000000000000 -4.165151390000000
v 1.000000000000000 -4.068413560000000 -2.073721060000000
v 1.000000000000000 -1.292893220000000 -5.707106780000000
v 5.000000000000000 -1.728427590000000 -5.134565300000000
v 5.000000000000000 -1.000000000000000 -4.165151390000000
v 5.000000000000000 -1.292893220000000 -5.707106780000000
v 3.500000000000000 -1.728427590000000 -5.134565300000000
v 3.500000000000000 -3.500000000000000 -2.599342080000000
v 3.500000000000000 -1.000000000000000 -4.165151390000000
v 3.500000000000000 -3.500000000000000 -6.000000000000000
v 3.500000000000000 -1.292893220000000 -5.707106780000000
v 2.500000000000000 -3.500000000000000 -6.000000000000000
v 2.500000000000000 -3.500000000000000 -2.599342080000000
v 2.500000000000000 -1.000000000000000 -4.165151390000000
v 2.500000000000000 -1.292893220000000 -5.707106780000000
f 2 176 177 1
f 177 7 486 1
f 486 204 5 1
f 5 3 2 1
f 485 168 176 2
f 3 6 485 2
f 193 8 194 192
f 4 488 6 3
f 8 193 206 188
f 169 179 488 4
f 172 367 405 179
f 399 404 485 6
f 488 359 399 6
f 177 174 501 7
f 501 200 187 7
f 187 198 486 7
f 498 351 389 172
f 178 173 498 172
f 15 447 431 9
f 431 439 11 9
f 11 61 45 9
f 45 48 15 9
f 451 459 14 10
f 14 52 86 10
f 86 489 483 10
f 483 492 451 10
f 439 463 12 11
f 12 60 61 11
f 463 484 490 12
f 490 77 60 12
f 14 459 477 13
f 477 447 15 13
f 15 48 49 13
f 49 52 14 13
f 17 83 32 16
f 32 31 101 16
f 101 54 70 16
f 70 68 17 16
f 72 84 83 17
f 68 69 72 17
f 19 96 23 18
f 23 67 100 18
f 100 64 88 18
f 88 102 19 18
f 58 59 96 19
f 102 103 58 19
f 73 76 21 20
f 21 94 84 20
f 84 72 97 20
f 97 34 73 20
f 76 38 53 21
f 53 104 94 21
f 24 28 30 22
f 30 112 111 22
f 111 128 37 22
f 37 26 24 22
f 96 49 48 23
f 48 45 67 23
f 25 29 28 24
f 26 27 25 24
f 36 64 29 25
f 27 35 36 25
f 37 65 44 26
f 44 43 27 26
f 43 31 35 27
f 29 71 80 28
f 80 33 30 28
f 64 100 71 29
f 33 159 112 30
f 32 40 35 31
f 43 42 101 31
f 83 41 40 32
f 80 98 74 33
f 74 141 159 33
f 75 393 396 34
f 396 368 73 34
f 97 92 75 34
f 40 39 36 35
f 39 88 64 36
f 128 133 65 37
f 76 370 375 38
f 375 374 66 38
f 66 95 53 38
f 79 102 88 39
f 40 41 79 39
f 94 104 79 41
f 83 84 94 41
f 43 44 55 42
f 55 89 93 42
f 93 54 101 42
f 65 56 55 44
f 61 99 67 45
f 47 68 70 46
f 70 54 87 46
f 87 256 270 46
f 270 263 47 46
f 62 69 68 47
f 263 267 62 47
f 96 59 52 49
f 51 93 89 50
f 89 81 85 50
f 85 296 264 50
f 264 268 51 50
f 87 54 93 51
f 268 256 87 51
f 59 91 86 52
f 95 103 104 53
f 56 81 89 55
f 65 133 132 56
f 132 151 81 56
f 381 379 82 57
f 82 91 90 57
f 90 95 66 57
f 66 374 381 57
f 90 91 59 58
f 103 95 90 58
f 77 74 98 60
f 98 99 61 60
f 63 92 69 62
f 267 298 63 62
f 78 75 92 63
f 298 273 78 63
f 99 71 100 67
f 92 97 72 69
f 99 98 80 71
f 368 370 76 73
f 77 491 141 74
f 78 493 393 75
f 490 484 491 77
f 273 394 493 78
f 104 103 102 79
f 151 494 85 81
f 379 483 489 82
f 489 86 91 82
f 494 294 296 85
f 163 146 162 105
f 162 347 338 105
f 338 336 497 105
f 497 166 163 105
f 111 112 148 106
f 148 144 108 106
f 108 129 127 106
f 127 128 111 106
f 123 461 472 107
f 472 479 495 107
f 495 156 121 107
f 121 113 123 107
f 144 142 161 108
f 161 140 129 108
f 124 147 110 109
f 110 117 146 109
f 146 163 150 109
f 150 131 124 109
f 147 138 113 110
f 113 121 117 110
f 159 145 148 112
f 138 134 123 113
f 161 142 139 114
f 139 116 115 114
f 115 154 143 114
f 143 140 161 114
f 116 134 138 115
f 138 147 154 115
f 139 437 444 116
f 444 465 134 116
f 121 156 167 117
f 167 162 146 117
f 120 158 164 118
f 164 140 143 118
f 143 154 149 118
f 149 137 120 118
f 258 259 126 119
f 126 158 120 119
f 120 137 122 119
f 122 291 258 119
f 137 131 136 122
f 136 251 291 122
f 134 465 461 123
f 149 154 147 124
f 131 137 149 124
f 145 496 434 125
f 434 442 130 125
f 130 142 144 125
f 144 148 145 125
f 259 260 160 126
f 160 155 158 126
f 129 153 135 127
f 135 133 128 127
f 140 164 153 129
f 442 426 437 130
f 437 139 142 130
f 150 165 136 131
f 133 135 157 132
f 157 152 151 132
f 153 155 157 135
f 165 303 251 136
f 496 145 159 141
f 491 484 496 141
f 163 166 165 150
f 152 294 494 151
f 157 155 160 152
f 160 260 294 152
f 164 158 155 153
f 495 479 418 156
f 418 411 167 156
f 167 411 347 162
f 166 344 303 165
f 497 336 344 166
f 383 392 498 168
f 498 173 176 168
f 485 391 383 168
f 170 175 178 169
f 172 389 361 367
f 8 188 182 171
f 182 199 501 171
f 501 174 175 171
f 8 171 175 170
f 172 179 169 178
f 8 170 205 194
f 205 195 181 194
f 178 175 174 173
f 174 177 176 173
f 205 5 204 195
f 405 373 488 179
f 191 202 196 180
f 196 218 214 180
f 214 208 502 180
f 502 185 191 180
f 195 202 191 181
f 191 185 186 181
f 186 192 194 181
f 331 311 199 182
f 188 324 331 182
f 201 203 184 183
f 184 220 216 183
f 216 218 196 183
f 196 202 201 183
f 203 197 189 184
f 189 212 220 184
f 502 435 449 185
f 449 450 186 185
f 450 452 192 186
f 200 317 281 187
f 281 255 198 187
f 205 170 169 4
f 206 503 324 188
f 197 190 504 189
f 504 209 212 189
f 255 286 304 190
f 304 276 504 190
f 197 198 255 190
f 5 205 4 3
f 452 466 193 192
f 466 481 206 193
f 204 201 202 195
f 203 486 198 197
f 311 310 505 199
f 505 200 501 199
f 505 310 317 200
f 204 486 203 201
f 481 325 503 206
f 209 287 277 207
f 277 284 506 207
f 506 235 211 207
f 211 212 209 207
f 214 215 210 208
f 210 475 474 208
f 474 455 502 208
f 504 282 287 209
f 215 240 507 210
f 507 454 475 210
f 235 242 219 211
f 219 220 212 211
f 218 216 217 213
f 217 231 232 213
f 232 240 215 213
f 215 214 218 213
f 220 219 217 216
f 219 242 231 217
f 245 243 226 221
f 226 239 224 221
f 224 222 223 221
f 223 236 245 221
f 224 414 415 222
f 415 508 462 222
f 462 445 223 222
f 445 441 236 223
f 239 346 414 224
f 227 246 244 225
f 244 509 241 225
f 241 239 226 225
f 226 243 227 225
f 249 229 246 227
f 243 247 249 227
f 234 230 247 228
f 247 243 245 228
f 245 236 238 228
f 238 233 234 228
f 248 253 266 229
f 266 280 246 229
f 249 237 248 229
f 231 242 237 230
f 237 249 247 230
f 234 232 231 230
f 234 233 240 232
f 238 464 432 233
f 432 507 240 233
f 506 253 248 235
f 248 237 242 235
f 441 464 238 236
f 241 345 346 239
f 509 334 345 241
f 246 280 335 244
f 335 334 509 244
f 284 283 265 250
f 265 297 278 250
f 278 307 308 250
f 308 506 284 250
f 303 302 300 251
f 300 274 291 251
f 290 358 378 252
f 378 360 279 252
f 279 295 271 252
f 271 289 290 252
f 506 308 272 253
f 272 285 266 253
f 276 293 257 254
f 257 292 261 254
f 261 269 282 254
f 282 504 276 254
f 281 288 286 255
f 268 283 306 256
f 306 305 270 256
f 293 262 275 257
f 275 299 292 257
f 307 278 259 258
f 291 274 307 258
f 278 297 260 259
f 297 296 294 260
f 292 298 267 261
f 267 263 269 261
f 279 360 352 262
f 352 377 275 262
f 293 295 279 262
f 270 305 269 263
f 296 297 265 264
f 265 283 268 264
f 285 301 280 266
f 305 287 282 269
f 295 304 286 271
f 286 288 289 271
f 308 307 274 272
f 274 300 285 272
f 299 376 394 273
f 298 292 299 273
f 377 376 299 275
f 304 295 293 276
f 287 305 306 277
f 306 283 284 277
f 301 332 335 280
f 317 322 288 281
f 300 302 301 285
f 322 312 289 288
f 312 321 290 289
f 321 388 358 290
f 302 333 332 301
f 303 344 333 302
f 320 380 500 309
f 500 388 321 309
f 321 312 314 309
f 314 319 320 309
f 311 318 313 310
f 313 322 317 310
f 331 329 318 311
f 322 313 314 312
f 318 319 314 313
f 319 318 329 315
f 329 326 328 315
f 328 323 316 315
f 316 320 319 315
f 323 389 351 316
f 351 380 320 316
f 328 327 330 323
f 330 361 389 323
f 326 329 331 324
f 503 325 326 324
f 481 458 327 325
f 327 328 326 325
f 458 478 330 327
f 478 499 361 330
f 333 337 341 332
f 341 334 335 332
f 344 336 337 333
f 341 340 345 334
f 338 339 337 336
f 339 340 341 337
f 347 342 339 338
f 342 343 340 339
f 343 346 345 340
f 412 413 343 342
f 347 411 412 342
f 413 414 346 343
f 350 404 387 348
f 387 397 357 348
f 357 377 352 348
f 352 360 350 348
f 409 362 364 349
f 364 384 398 349
f 398 408 353 349
f 353 359 409 349
f 391 485 404 350
f 360 378 391 350
f 498 392 380 351
f 408 402 371 353
f 371 399 359 353
f 384 356 355 354
f 355 365 385 354
f 385 407 386 354
f 386 398 384 354
f 356 448 487 355
f 487 382 365 355
f 372 425 448 356
f 384 364 372 356
f 397 400 363 357
f 363 376 377 357
f 388 392 383 358
f 383 391 378 358
f 488 373 409 359
f 499 460 367 361
f 366 443 438 362
f 438 372 364 362
f 409 373 366 362
f 400 406 403 363
f 403 394 376 363
f 382 379 381 365
f 381 374 385 365
f 401 446 443 366
f 373 405 401 366
f 460 401 405 367
f 369 390 370 368
f 396 406 369 368
f 395 410 390 369
f 406 400 395 369
f 390 407 375 370
f 402 397 387 371
f 387 404 399 371
f 438 428 425 372
f 375 407 385 374
f 382 492 483 379
f 392 388 500 380
f 487 451 492 382
f 407 390 410 386
f 410 408 398 386
f 403 406 396 393
f 493 394 403 393
f 402 408 410 395
f 400 397 402 395
f 460 473 446 401
f 418 417 412 411
f 417 416 413 412
f 416 415 414 413
f 416 469 508 415
f 417 457 469 416
f 418 479 457 417
f 426 429 421 419
f 421 440 423 419
f 423 465 444 419
f 444 437 426 419
f 422 452 450 420
f 450 449 428 420
f 428 438 443 420
f 443 446 422 420
f 429 432 464 421
f 464 441 440 421
f 468 466 452 422
f 446 473 468 422
f 440 453 424 423
f 424 461 465 423
f 453 476 467 424
f 467 472 461 424
f 428 449 435 425
f 435 430 448 425
f 442 436 429 426
f 430 455 471 427
f 471 477 459 427
f 459 451 487 427
f 487 448 430 427
f 436 507 432 429
f 435 502 455 430
f 447 482 480 431
f 480 470 439 431
f 454 507 436 433
f 436 442 434 433
f 434 496 456 433
f 456 470 454 433
f 470 456 463 439
f 441 445 453 440
f 462 476 453 445
f 477 471 482 447
f 470 480 475 454
f 474 482 471 455
f 496 484 463 456
f 467 476 469 457
f 479 472 467 457
f 481 466 468 458
f 468 473 478 458
f 499 478 473 460
f 508 469 476 462
f 475 480 482 474
