v 3.736729320945651 -2.553614440698708 -4.596671709697073
v 4.495245022653709 -2.359360127002327 -4.374486583373338
v 4.746802202270609 -2.301883562875005 -5.255911053537137
v 4.234590375720038 -2.306993476680359 -5.253527822535048
v 4.740842724551893 -2.332438590973774 -4.358836281060494
v 4.999999999999117 -2.284198119005624 -4.336998494030231
v 3.500000000005670 -2.313249854209944 -4.348932375917769
v 3.982226903287448 -2.361511115108512 -4.375066669156601
v 4.235552552372274 -2.572502899473080 -4.641122299073769
v 4.237362464899810 -2.363888432353185 -4.376379900786857
v 4.235984286341834 -2.552932131150197 -5.010199987596065
v 4.492777500521406 -2.549991207732775 -5.016121003185660
v 3.984423692502049 -2.303015168217638 -5.254969754317724
v 4.492160261497721 -2.571244468384965 -4.635398563894617
v 4.745361436740700 -2.562886716291175 -4.614437060431305
v 3.975937759374655 -2.568733716257655 -4.629503096000157
v 4.492524554358051 -2.108988117031623 -4.300828858255978
v 3.988347546286555 -2.112878533385107 -4.301236499862726
v 3.981286111145735 -2.553884721249082 -5.008213481778473
v 3.738663484911557 -2.551575481921025 -5.011585536158572
v 3.742806280775201 -2.107059222392496 -4.300572793160971
v 4.492926328826869 -2.304541776136643 -5.255458309419793
v 4.748963961235523 -2.537677183541113 -5.037654203459818
v 4.237861766038906 -2.114085311885578 -4.301020805985614
v 3.740819565514103 -2.347541030353594 -4.366429934627858
v 3.740763176284728 -2.290959645663362 -5.260485025123882
v 4.746260810595009 -1.866303738482260 -4.360028364401424
v 4.999999999998970 -1.602739049999959 -4.851369376790519
v 4.492151013608222 -1.769423390810697 -5.172639870004240
v 4.236061805488989 -1.866154158429983 -4.359694492699430
v 3.719806567345613 -1.611244731077582 -4.899502452367859
v 4.999999999999154 -1.866632036347694 -4.360547570765252
v 3.500000000005625 -1.883040148214945 -4.351074343821929
v 3.736195965307209 -1.662504713797563 -4.559398596712454
v 4.738098974892764 -1.762882151052473 -5.168794065276423
v 3.967903494840595 -1.764532675435247 -5.168807799092829
v 4.234393122107532 -1.656571568362008 -4.571968080967838
v 4.230899600757740 -1.608908685790797 -4.888329062710325
v 3.985752593678486 -1.866889916741317 -4.360042372227465
v 4.489282553201264 -1.607820173608593 -4.883110092555304
v 4.230596705699874 -1.767748517528635 -5.172344432329042
v 4.491512894890782 -1.658955153410486 -4.566578748984437
v 3.979402358095754 -1.657387374945152 -4.570677594247675
v 4.745675847039118 -2.091516017442417 -4.300737505288840
v 3.970172430255555 -1.608804823377520 -4.889921946086059
v 4.494024123216052 -1.866232604036116 -4.359147126593014
v 4.746919592124283 -1.669888789684097 -4.548219133457589
v 4.233119475188456 -2.028604461847392 -5.294465413519907
v 3.731586448850633 -2.001488186229139 -5.289282696235142
v 4.745247965894570 -1.606682048793059 -4.868198866926051
v 3.980493548349239 -2.018934664279609 -5.293265939785368
v 4.743999102573557 -2.031690608891401 -5.295192822450277
v 3.709018595259962 -1.748734720293303 -5.154259965636093
v 3.500000000000116 -2.097554650520125 -4.300257016584302
v 4.999999999998941 -2.061320118807013 -4.304065419289774
v 4.490171215260514 -2.029163211948989 -5.293932182452476
v 3.741680768980022 -1.870242223434325 -4.356019764536699
v 3.500000000000001 -1.589394510895452 -4.172053596396982
v 3.500000000000036 -1.433951159169726 -5.161326221818978
v 3.500000000000001 -1.848730473938768 -4.072892216077623
v 3.499999999999945 -2.021032412675347 -5.541690271047612
v 3.500000000000004 -3.058038044816330 -3.567873607957706
v 3.500000000000000 -1.326416800364680 -4.600380898145574
v 3.499999999999998 -1.367677236602733 -4.904690882527927
v 3.500000000000028 -1.756157699240884 -5.487305630629752
v 3.500000000000004 -3.049092971492098 -5.476890488334752
v 3.499999999999996 -2.634160977930379 -5.506827156047207
v 3.499999999999999 -2.309559065672387 -5.549617340176454
v 3.500000000000005 -2.086152261654130 -3.993591306339031
v 3.499999999999982 -1.482463387954776 -5.458452934364803
v 3.499999999999990 -2.674392666887610 -3.751761058667809
v 3.500000000000000 -2.349643757637592 -3.901143598618432
v 3.499999999999996 -3.004053344296935 -4.389739973637306
v 3.500000000000000 -2.984898862447768 -4.950681062938507
v 3.500000000000000 -1.302413892684441 -4.297685258374851
v 3.015283425060135 -3.500000000000002 -4.922262635300685
v 3.024381494287594 -3.500000000000000 -4.294182909158748
v 2.997013836483111 -3.499999999999999 -5.483445623259573
v 3.002786799227390 -3.500000000000010 -3.485113991278149
v 2.499999999999988 -2.535494673354211 -5.098156423738299
v 2.499999999999999 -1.977920186346598 -4.716036712407473
v 2.500000000000020 -1.600674414137550 -5.552379011126110
v 2.499999999999992 -1.461439200465206 -4.413270829055650
v 2.500000000000009 -1.965209493704238 -4.215892110705912
v 2.500000000000000 -2.487124093758552 -3.979357289751426
v 2.500000000000005 -3.081119703033574 -5.008375055046273
v 2.499999999999990 -2.532889144267692 -5.584112288586327
v 2.499999999999999 -3.030109089281149 -3.757447985716262
v 2.499999999999996 -3.059570584813194 -4.419748520513945
v 2.500000000000013 -2.055363652563956 -5.611364415706261
v 2.500000000000000 -3.086178653594658 -5.529848922980343
v 2.500000000000000 -1.457604625802746 -4.825811316413110
v 2.499999999999995 -2.522883465873336 -4.560133220757775
v 2.499999999999989 -2.009897249945601 -5.172437174417960
v 2.499999999999994 -1.504544105422006 -5.194864116075898
v 2.087919565782410 -4.544943485938006 -5.999999999999996
v 1.311964014516463 -3.390547780211530 -6.000000000000009
v 4.832908160559628 -3.265217638147348 -6.000000000000003
v 4.837355261628657 -2.500803727166752 -6.000000000000000
v 4.518818273495319 -2.488063799309009 -5.999999999999984
v 2.806622915593649 -4.500139340778298 -6.000000000000012
v 3.501129397581485 -4.499002583323255 -6.000000000000000
v 1.470358670317097 -2.839018176161282 -6.000000000000053
v 1.065425139294709 -3.035453436880596 -6.000000000000005
v 1.043941044088524 -3.406102659012755 -6.000000000000005
v 1.024342938303426 -3.792896519460796 -6.000000000000015
v 1.010245480158178 -4.193904752761630 -6.000000000000015
v 1.281806355715872 -3.775337918960499 -6.000000000000015
v 2.004307903982992 -2.625765218222825 -6.000000000000048
v 4.590715253797270 -3.266347593123748 -6.000000000000003
v 3.992554561443496 -2.417626353904336 -5.999999999999984
v 1.629230562465381 -3.729215713922799 -5.999999999999996
v 1.003614930032607 -4.596935606076556 -5.999999999999983
v 1.245222941495747 -4.597553316025275 -5.999999999999983
v 1.502273221138928 -4.597842788182541 -6.000000000000004
v 4.589843369435682 -4.112306801030116 -6.000000000000002
v 4.839378455529909 -4.108897976861117 -5.999999999999989
v 4.838380466495996 -2.871079294638235 -6.000000000000004
v 4.802734591336666 -4.578689243379531 -6.000000000000001
v 2.224916976419715 -4.047183577946029 -5.999999999999954
v 4.135096125575941 -4.069831655101060 -5.999999999999989
v 3.967205248256576 -2.088719950355996 -5.999999999999995
v 3.519597016512144 -3.980299705538951 -6.000000000000029
v 1.262489333908532 -4.183720281106025 -6.000000000000004
v 4.566099020757470 -4.592986692859013 -6.000000000000000
v 1.546473707562104 -4.171756544404596 -6.000000000000028
v 2.895988296845593 -3.967634351004651 -6.000000000000007
v 1.830937703616375 -3.244679233603621 -5.999999999999938
v 2.061414412479948 -2.127300390445392 -5.999999999999948
v 4.566914617720885 -2.875669374584705 -5.999999999999993
v 4.139493103285308 -4.552975583629398 -5.999999999999997
v 4.450925225070028 -2.128170221684194 -5.999999999999929
v 1.185892859626101 -2.268482267980836 -6.000000000000835
v 4.119563428647357 -3.615193062564777 -6.000000000000029
v 4.832594195282285 -2.151634385553254 -6.000000000000114
v 1.608117898772935 -2.189706723306420 -6.000000000000165
v 4.098796625924243 -3.211096710755653 -5.999999999999978
v 4.586609622299036 -3.652110424043934 -6.000000000000012
v 4.833710524794877 -3.661067225981392 -6.000000000000012
v 4.042527763389834 -2.806884874586657 -5.999999999999980
v 4.742446438700973 -1.312393871251111 -5.720118187714832
v 4.775214465013621 -1.546259322732013 -5.889319442842897
v 4.405756276271101 -1.827012362389043 -5.983480769494715
v 4.312015720339914 -1.026009344948469 -5.213113768615367
v 3.911252997168000 -1.118802234120384 -5.467742146613205
v 4.381867157954458 -1.552406317397321 -5.892443782979033
v 3.923839769976854 -1.298548294206992 -5.709269643814899
v 4.358803416833136 -1.308123307397157 -5.716578154056913
v 3.934554094683641 -1.541182132637005 -5.886780414075134
v 4.680749454556783 -1.024531664100386 -5.211198535201923
v 3.500000000008914 -1.019180582422868 -5.194743715376283
v 4.333172544192433 -1.120612765339229 -5.475881147645289
v 4.702659250296207 -1.132989781659502 -5.497690153904339
v 4.809165004736232 -1.834377544072189 -5.985067756730438
v 3.905333230605658 -1.023737634461390 -5.209602873840208
v 3.950629395264047 -1.807147191284676 -5.978662869445970
v 4.707068318853343 -1.000000000000002 -4.581034278524088
v 4.337069816899831 -1.000000000000000 -4.645224384001863
v 4.376849465598857 -1.000000000000001 -4.383362400094706
v 4.313305820450522 -0.999999999999997 -4.941643549129490
v 3.898832687202697 -1.000000000000000 -4.942679628310541
v 4.687463722429136 -0.999999999999989 -4.904081918983707
v 3.888914076446079 -1.000000000000000 -4.664010259932184
v 3.500000000005356 -1.000000000000000 -4.392376395165320
v 3.962493521679542 -1.000000000000000 -4.165151390003250
v 3.912253785982489 -1.000000000000000 -4.401363269212306
v 3.500000000008395 -1.000000000000000 -4.640073187401463
v 3.500000000008395 -1.000000000000000 -4.916895221869026
v 4.982438378709235 -0.999999999999998 -4.563934523009408
v 4.684656079222741 -1.000000000000000 -4.165151390001959
v 4.369312158445482 -1.000000000000000 -4.165151390003918
v 4.705333923817264 -1.000000000000000 -4.373988432221196
v 4.990203938667497 -0.999999999999999 -4.357506914901168
v 1.000000000000001 -2.192634101936572 -4.404278649545343
v 0.999999999999999 -1.818992163065273 -4.455715521971168
v 0.999999999999999 -1.882595933837131 -4.122542467907957
v 1.000000000000011 -4.111948451011193 -4.839586859794487
v 0.999999999999947 -1.831911512041193 -5.212921746838878
v 0.999999999999997 -1.519332685566598 -4.242661420085740
v 0.999999999999991 -3.385257343148348 -3.872657518337895
v 0.999999999999962 -1.449839693408811 -5.292268616135708
v 0.999999999999941 -1.440526019342983 -4.707709930852415
v 1.000000000000006 -4.473890797644005 -2.924360948164800
v 1.000000000000000 -1.950931975719049 -3.787736880099244
v 1.000000000000000 -2.232462018815799 -3.980582880843727
v 1.000000000000004 -2.303185367071533 -3.648828219331586
v 1.000000000000004 -2.573986588612902 -3.921925457911041
v 1.000000000000000 -3.789758287561614 -5.770550613199271
v 1.000000000000000 -4.548473603230815 -1.758308020728820
v 1.000000000000000 -4.441353085187897 -2.072430245377585
v 1.000000000000001 -2.622193511200688 -3.579198374057473
v 1.000000000000001 -2.896845145030563 -3.855640549603983
v 1.000000000000001 -3.408861084072660 -5.763290722938730
v 0.999999999999998 -3.720139688571333 -2.622117150418294
v 0.999999999999998 -4.039131061378412 -2.510969904998809
v 1.000000000000008 -3.960325387752706 -3.828432685045204
v 0.999999999999999 -2.977628586816295 -5.753851302133315
v 1.000000000000003 -4.570706237458199 -4.881702448968468
v 1.000000000000005 -3.995613752142464 -2.966477289020853
v 0.999999999999987 -3.002198473663659 -3.041610245285339
v 1.000000000000000 -3.375053186912356 -5.403903259074596
v 1.000000000000000 -3.790084341573112 -5.505335683692913
v 1.000000000000002 -2.921329871682404 -3.488226003736765
v 1.000000000000004 -4.501514250745859 -3.836633323621063
v 0.999999999999975 -3.058029699570747 -4.491705801001164
v 0.999999999999969 -2.323896366439286 -5.752764585145403
v 1.000000000000001 -4.611257008307684 -5.487604727352065
v 0.999999999999989 -2.842075133096536 -5.270070168112818
v 1.000000000000002 -4.605984955120196 -5.753187866156100
v 1.000000000000000 -1.055673232313289 -4.470481770381274
v 1.000000000000016 -2.286613039574445 -5.194525535689785
v 1.000000000000000 -4.419452170725775 -2.444198111390583
v 1.000000000000014 -2.597124140491457 -4.405635582741210
v 0.999999999999985 -3.621714650300294 -4.715147271119196
v 0.999999999999964 -1.865490121835483 -5.782942314586901
v 1.000000000000013 -3.451737357228197 -3.282961803890938
v 1.000000000000044 -1.506740226274756 -5.743037508744708
v 1.000000000000001 -4.198443665516228 -5.507941225087444
v 1.000000000000001 -4.193557409887575 -5.758003423476200
v 0.999999999999940 -1.083300286199253 -5.314465001241752
v 1.000000000000008 -1.578300609669148 -3.931197464420219
v 1.000000000000001 -1.034419626962046 -4.895216544474456
v 3.162007908257520 -4.999999999999981 -2.311171347894603
v 3.205551446038987 -4.999999999999980 -1.843255008442683
v 3.306092271963570 -5.000000000000027 -5.093358405510990
v 3.738682764852520 -4.999999999999992 -2.260292786944080
v 4.228500245485015 -5.000000000000012 -4.689738116529792
v 4.255188295722315 -5.000000000000031 -2.162197350172629
v 4.163104022213102 -4.999999999999926 -2.736923567293283
v 2.250195717033192 -4.999999999999993 -3.945586039006864
v 1.745576864892626 -5.000000000000008 -3.236684549521405
v 2.130908908056529 -5.000000000000000 -2.743665350680661
v 1.768126028162734 -4.999999999999993 -4.657279459717660
v 1.360407691517307 -4.999999999999936 -4.744573602223567
v 2.690706788816222 -5.000000000000032 -3.361291888106625
v 1.289176961570092 -5.000000000000000 -2.123331462834943
v 1.349445534651186 -4.999999999999993 -3.122705126197342
v 2.726820369648142 -5.000000000000006 -3.959227136443598
v 1.323556152685655 -4.999999999999996 -2.586772865796623
v 1.635620088286209 -4.999999999999996 -2.637111187294221
v 1.585725675979407 -4.999999999999996 -2.168814542906250
v 3.208664368729038 -5.000000000000024 -3.974891215548673
v 2.649822043241437 -4.999999999999940 -2.806146548973596
v 3.172647164281784 -5.000000000000030 -2.827655877762163
v 2.201680105318124 -5.000000000000009 -3.318820495811610
v 1.392682232455306 -5.000000000000000 -3.902953681065147
v 1.807525379016946 -5.000000000000009 -3.938251294809447
v 3.188257755540517 -4.999999999999964 -3.383968473222701
v 3.665759525245354 -4.999999999999985 -3.384947603273798
v 2.739950341969315 -4.999999999999940 -4.546227623761005
v 2.750824550190140 -4.999999999999978 -5.569212616182909
v 3.375322021150498 -4.999999999999988 -5.565775515117549
v 4.137908949688028 -5.000000000000043 -3.353960606832651
v 4.000393946682229 -4.999999999999989 -5.631813945790351
v 3.953770858813184 -4.999999999999975 -1.355057346716690
v 4.669135475244692 -5.000000000000021 -2.073925556156217
v 3.184520403581522 -5.000000000000007 -1.412726214711821
v 4.149730396363060 -4.999999999999975 -4.022991892161408
v 2.608589720609640 -5.000000000000002 -2.298587846594217
v 2.440591069850488 -4.999999999999963 -1.402842953846684
v 3.867750286785817 -5.000000000000008 -5.166808634133893
v 3.835522057856072 -4.999999999999938 -1.780574107095823
v 2.099447447204128 -4.999999999999986 -5.627542076219346
v 4.655663941042983 -5.000000000000013 -4.794571128043833
v 4.596448481396372 -5.000000000000016 -2.640550864748268
v 2.049788433869431 -5.000000000000075 -2.243116400101172
v 4.585267180977683 -4.999999999999996 -4.023722297074398
v 4.579189380418361 -4.999999999999980 -3.316539201154882
v 3.690204218598656 -5.000000000000077 -3.994711926376540
v 4.739992413103369 -5.000000000000000 -5.429937329756143
v 4.739992413103369 -5.000000000000000 -5.713118321998651
v 4.741516531748262 -5.000000000000007 -1.292447579737254
v 1.228666865636452 -4.999999999999993 -1.316785821845265
v 1.272080147498610 -5.000000000000000 -5.712832106076320
v 1.272080147498610 -5.000000000000000 -5.427066812767372
v 3.245107167633869 -5.000000000000002 -4.561216068133477
v 2.242337915708582 -4.999999999999996 -4.578045862772294
v 4.490422918860792 -5.000000000000000 -1.291401992943107
v 4.488578162739397 -5.000000000000012 -5.712848763213310
v 1.452939771515330 -4.999999999999996 -1.313384682230691
v 1.542831247495845 -4.999999999999998 -5.712750297997711
v 1.945007833383411 -5.000000000000000 -1.773734762785143
v 2.180060218869523 -5.000000000000041 -5.153164676284108
v 4.741190221435645 -4.999999999999994 -1.596375578622796
v 1.508160348233907 -5.000000000000014 -1.701691686113883
v 1.243665914633495 -5.000000000000014 -1.662781868507412
v 4.380190564693693 -5.000000000000012 -5.309640310242674
v 4.390846122236049 -4.999999999999915 -1.662385340865052
v 3.753481651958264 -4.999999999999977 -4.608557835185433
v 3.679917979100876 -5.000000000000008 -2.804812607391302
v 2.539212814690755 -5.000000000000087 -1.837468781528020
v 2.735332670029858 -4.999999999999984 -5.086457863938318
v 1.657034183199348 -4.999999999999981 -5.279853791556034
v 1.822051551271712 -4.999999999999997 -1.355767681332819
v 1.654765167362693 -1.814569656860404 -5.981913052688299
v 1.714527927229071 -1.042600187977118 -5.276019513478852
v 2.086097261221611 -1.751382262747276 -5.965909573549814
v 1.309420536914691 -1.225944749078558 -5.626831877552310
v 1.280809184568179 -1.511496546708109 -5.869424682471078
v 1.714025951103221 -1.192937316244864 -5.587166689508685
v 1.690975356728566 -1.474148892111324 -5.847642394289337
v 2.111277842113126 -1.409317277902619 -5.803802151506146
v 1.329405510567311 -1.047109072976674 -5.297298217340829
v 1.238988016196533 -1.852974481326556 -5.988499514717107
v 2.116902561928329 -1.167419677563636 -5.550250216507111
v 2.107635207950864 -1.034124569140844 -5.258155429003654
v 4.999999999999993 -1.546040999361045 -4.121598518716715
v 4.999999999999993 -1.802667274423099 -4.047210009468993
v 4.999999999999957 -3.622183913639605 -5.383496572488487
v 5.000000000000028 -3.409761570251234 -3.954518282509305
v 5.000000000000021 -2.954060256368394 -4.009759937494951
v 5.000000000000016 -3.659597233171180 -5.700537214916037
v 4.999999999999989 -3.250980740241874 -5.933755287046556
v 4.999999999999970 -3.231720563237308 -5.699832662474121
v 5.000000000000043 -1.396420981033986 -5.197143200360323
v 5.000000000000064 -2.090651614133387 -5.610745270669192
v 5.000000000000028 -3.026476825535925 -3.380628911883539
v 5.000000000000008 -2.233373439158238 -3.611146232845269
v 5.000000000000008 -2.012007708894718 -3.674169677529818
v 4.999999999999984 -1.325672048964771 -4.854015458129831
v 4.999999999999692 -2.944292433529483 -4.629210832854263
v 5.000000000000005 -2.852140143987434 -5.930773172688881
v 4.999999999999991 -2.134181659591622 -5.930246278239677
v 4.999999999999973 -2.803806302942320 -5.683210675831368
v 5.000000000000012 -4.118647773311174 -5.941642770979154
v 5.000000000000012 -3.667745605433429 -5.935147551479585
v 5.000000000000014 -1.274960337943476 -4.520858074067021
v 4.999999999999996 -2.583890782447931 -3.521570171655578
v 4.999999999999943 -4.449836208228439 -3.994343264297601
v 4.999999999999996 -3.444865291991949 -3.192035168459384
v 4.999999999999996 -3.450259195519920 -2.725477559059069
v 4.999999999999984 -4.564015253700980 -5.963488217068748
v 4.999999999999984 -4.571908804674054 -5.721448729795999
v 4.999999999999988 -1.819913555055842 -5.912755143431535
v 5.000000000000021 -1.039651671950123 -5.206827864260500
v 5.000000000000017 -3.823235508498357 -3.102813878966943
v 5.000000000000006 -2.559370387440663 -4.020010105711816
v 4.999999999999988 -4.576649614228226 -5.462977027516770
v 4.999999999999972 -1.472431118358893 -5.544260285181632
v 5.000000000000005 -4.182407222048380 -2.553109603749005
v 5.000000000000004 -3.836059223062745 -2.635120158259415
v 4.999999999999957 -2.478766085825654 -5.931340680348820
v 4.999999999999987 -4.288399617695729 -3.104375149050501
v 5.000000000000002 -4.115239912336770 -5.709870354464175
v 5.000000000000017 -1.165460642081939 -5.518345084675863
v 4.999999999999983 -4.529612920604739 -4.909064449162655
v 5.000000000000018 -1.534231973657564 -5.844314555161738
v 4.999999999999995 -4.112860613479272 -5.450048160885845
v 4.999999999999945 -4.027234079095776 -4.823300377160794
v 5.000000000000146 -3.459685842041232 -4.717231224260287
v 5.000000000000025 -3.905918524811263 -3.917160445613009
v 5.000000000000052 -1.780756880521340 -5.588250007062026
v 4.999999999999935 -3.099870766750600 -5.259809825595075
v 5.000000000000213 -2.415183874622572 -5.632364503719478
v 5.000000000000004 -1.269086371194034 -4.264276239190805
v 5.000000000000006 -1.000706095475339 -4.876525012476727
v 4.999999999999995 -2.015976222625674 -4.009505644961433
v 5.000000000000013 -2.229040103203486 -3.982651285635484
v 1.314393172837503 -1.000000000000016 -4.569615297007841
v 1.329420608830087 -1.000000000000006 -4.945883184859973
v 1.675405972361717 -0.999999999999993 -4.591652897382192
v 1.703548596535236 -1.000000000000000 -4.958504091714499
v 2.096189094533624 -0.999999999999982 -4.944821326215865
v 2.074302001071165 -0.999999999999996 -4.594520144193780
v 1.729861683528091 -1.994969039989899 -3.662314070246480
v 3.920165251013277 -2.069091625880108 -3.616416438023739
v 1.053963083482588 -2.647304576678104 -3.245141445381308
v 1.377767712394808 -2.675384525771857 -3.228921012534976
v 4.750230539282724 -2.638924663122613 -3.252817037830622
v 1.454557264415342 -3.795710288413398 -2.334783473801943
v 3.904112445988100 -2.368759227491741 -3.431077108476957
v 4.336634282318403 -2.044673634543948 -3.631395067912777
v 3.917468712649614 -1.803216255537216 -3.768749378486119
v 3.883343925694029 -1.557635586911502 -3.900117003400752
v 4.290251388523656 -2.666565863083546 -3.237655555364058
v 4.722369640343288 -2.272431987192614 -3.493108237790805
v 4.313451582021109 -2.357137855433437 -3.433330415997431
v 1.128450859616727 -2.343759340253998 -3.450054410897552
v 1.406579596787126 -2.346997476464494 -3.443272172306287
v 1.684708333957524 -2.350235612674989 -3.436489933715022
v 1.697832305914812 -2.701430376441972 -3.213473398328991
v 4.509955776074912 -3.079939356247357 -2.933171153554820
v 3.123381552743929 -4.404949446114048 -1.719327668736769
v 4.608198654486246 -4.086106689207258 -2.050908645186912
v 4.963479011196300 -4.371259447078854 -1.749267224246778
v 4.115020451448935 -3.438364569699802 -2.650227964526644
v 3.893190564070517 -2.704276699706831 -3.209814519893691
v 2.330769231119778 -3.758587613614022 -2.366144335902723
v 3.985317471084898 -4.104728331170979 -2.036280338105425
v 3.204471838236294 -4.710732185653101 -1.363831507369288
v 1.164857263652006 -4.357979695395586 -1.765401600739946
v 1.790083674127657 -3.319826801768974 -2.747468381878413
v 3.926203227950479 -3.051743362815605 -2.958433745938003
v 2.206147859156161 -4.708348737110567 -1.367025007402688
v 1.160923898881018 -1.982463873250810 -3.664502556474063
v 1.413619487771971 -1.991335990203700 -3.662499603250480
v 4.690910604168451 -2.020349318828965 -3.644526225640999
v 4.967268416515533 -1.789630392298141 -3.773861690614846
v 3.889852042239780 -1.279260376422266 -4.034384228696373
v 4.847277839730006 -3.756776909105656 -2.365159205687176
v 4.471362303754166 -3.781005924981505 -2.348787428422277
v 2.091406051755328 -4.399996418650491 -1.722593731071296
v 1.140261908659376 -3.740886705051516 -2.379775082276675
v 4.880439533878498 -4.696219265071882 -1.377614923380124
v 4.606644741751957 -4.712610877592551 -1.362440914931800
v 3.048363977045320 -4.079593409246092 -2.059349351945194
v 4.695562246489891 -3.453504486016407 -2.634631257508374
v 1.035189817357374 -4.668133011840323 -1.410781124657949
v 1.283110117467068 -4.684756708134559 -1.395014223914196
v 3.690349872670085 -3.771410430813935 -2.356645355586525
v 4.624409590186126 -4.413816935775667 -1.707636863110721
v 4.654646807245827 -1.790368727642748 -3.775050523613395
v 4.704476334862086 -1.534670530195159 -3.910895987488766
v 1.199085242992507 -1.602746893178537 -3.875944177244743
v 1.441563692418705 -1.600651655152364 -3.874367381592972
v 1.481709592779564 -4.383377855684371 -1.740910717920759
v 4.185390843407133 -4.432412839905949 -1.686543521750862
v 1.404809864146331 -4.077628329412459 -2.059328326227034
v 4.128149846303926 -4.719354559444088 -1.349653796633084
v 3.009780220985243 -3.770730553448074 -2.356954445807833
v 1.315539994660438 -3.226292595006994 -2.822346419527472
v 4.913945574715867 -3.067832210375410 -2.943466091481032
v 4.959765879481195 -1.542539725327368 -3.904823780557142
v 4.979882939740600 -1.271269862663685 -4.034987585278571
v 4.728608732721887 -1.265505019623546 -4.041827610626601
v 1.577676662766832 -4.699239097773598 -1.380169808458015
v 4.338097047420312 -1.784704738875512 -3.776069258762547
v 4.344264120583238 -1.535551659856215 -3.909278424241225
v 1.872473110621868 -1.537990515246654 -3.909064000097732
v 2.108967661141540 -4.086250646859336 -2.052195723087021
v 4.389784912695952 -1.268144244704100 -4.040490542621557
v 3.500000000000000 -2.274119689420009 -5.266276186294451
v 5.000000000000000 -2.303347179298484 -5.256779599030409
v 3.500000000000000 -1.616634279850570 -4.917636148181955
v 3.500000000000000 -1.987980451301852 -5.286453745432320
v 5.000000000000000 -2.048969225274481 -5.294636449504226
v 3.500000000000000 -2.100889470791927 -3.594252146196887
v 3.500000000000000 -1.833272818506473 -3.748383907154000
v 3.500000000000000 -2.732776692883749 -6.000000000000000
v 3.500000000000000 -2.377005812725729 -6.000000000000000
v 3.500000000000000 -2.061235022460257 -6.000000000000000
v 3.500000000000000 -3.113608298220523 -2.905824929645012
v 3.500000000000000 -3.500000000000000 -5.470873650848378
v 3.500000000000000 -1.777007442844000 -5.972321228564209
v 3.500000000000000 -3.112119985072368 -6.000000000000000
v 3.500000000000000 -3.500000000000000 -3.490379905495431
v 3.500000000000000 -3.500000000000000 -4.913048386581569
v 3.500000000000000 -2.742998623778185 -3.179567645054708
v 3.500000000000000 -2.388199712884393 -3.420510612378548
v 3.500000000000000 -3.500000000000000 -4.279819721936732
v 3.500000000000000 -1.121765852783256 -5.468079934662835
v 3.500000000000000 -1.509832308126600 -5.866427995001493
v 3.500000000000000 -1.560820655541450 -3.895263434023298
v 3.500000000000000 -1.280410327770725 -4.030207412011650
v 3.003581396201465 -3.500000000000000 -2.599342080000000
v 2.976749530478012 -3.500000000000000 -6.000000000000000
v 2.500000000000000 -3.500000000000000 -5.496748159235644
v 2.500000000000000 -3.500000000000000 -4.951604762144311
v 2.500000000000000 -3.500000000000000 -3.574212001823621
v 2.500000000000000 -3.500000000000000 -4.318474963674561
v 2.500000000000000 -2.952642858992402 -3.033501446200098
v 2.500000000000000 -1.932409467221514 -3.691286913707055
v 2.500000000000000 -2.408320728771006 -3.406846485673431
v 2.500000000000000 -3.080035552222869 -6.000000000000000
v 2.500000000000000 -2.525147256585189 -6.000000000000000
v 2.500000000000000 -1.000000000000000 -4.546733620043062
v 2.500000000000000 -1.149837702811789 -5.520598672061515
v 2.500000000000000 -1.000000000000000 -4.908300181165984
v 2.500000000000000 -1.030718590769713 -5.233013498145065
v 2.500000000000000 -1.686573664099032 -5.944888440628572
v 2.500000000000000 -1.468516304720893 -3.939683753290364
v 2.500000000000000 -2.092414699470992 -6.000000000000000
v 2.034257937358348 -5.000000000000000 -6.000000000000000
v 3.458708934644902 -5.000000000000000 -6.000000000000000
v 2.741907353365128 -5.000000000000000 -6.000000000000000
v 4.116517557838161 -5.000000000000000 -6.000000000000000
v 1.270668780617403 -5.000000000000000 -6.000000000000000
v 1.541337561234806 -5.000000000000000 -6.000000000000000
v 4.498521731645162 -5.000000000000000 -6.000000000000000
v 4.749260865822581 -5.000000000000000 -6.000000000000000
v 1.000000000000000 -5.000000000000000 -1.325893668910500
v 1.000000000000000 -5.000000000000000 -1.651787337821000
v 1.000000000000000 -5.000000000000000 -2.080155255435842
v 1.000000000000000 -5.000000000000000 -3.865096657530303
v 1.000000000000000 -5.000000000000000 -4.866280564089161
v 1.000000000000000 -5.000000000000000 -3.037722303882722
v 1.000000000000000 -5.000000000000000 -2.542610825053722
v 1.000000000000000 -5.000000000000000 -5.428469413382103
v 1.000000000000000 -5.000000000000000 -5.714234706691052
v 5.000000000000000 -5.000000000000000 -4.052246256955264
v 5.000000000000000 -5.000000000000000 -2.549198963657712
v 3.233012823821362 -5.000000000000000 -1.000000000000000
v 4.080537445070402 -5.000000000000000 -1.000000000000000
v 5.000000000000000 -5.000000000000000 -2.029356889546584
v 5.000000000000000 -5.000000000000000 -4.908000561970615
v 2.308826209413581 -5.000000000000000 -1.000000000000000
v 5.000000000000000 -5.000000000000000 -5.433638015514983
v 5.000000000000000 -5.000000000000000 -5.716819007757492
v 5.000000000000000 -5.000000000000000 -1.303437420421530
v 5.000000000000000 -5.000000000000000 -1.606874840843061
v 4.749683392131207 -5.000000000000000 -1.000000000000000
v 4.499366784262413 -5.000000000000000 -1.000000000000000
v 1.221654150541303 -5.000000000000000 -1.000000000000000
v 1.443308301082606 -5.000000000000000 -1.000000000000000
v 1.664962451623909 -5.000000000000000 -1.000000000000000
v 5.000000000000000 -5.000000000000000 -3.228615974173528
v 2.024931494806793 -1.000000000000000 -4.165151390000000
v 1.309753478267308 -1.000000000000000 -4.165151390000000
v 1.619506956534616 -1.000000000000000 -4.165151390000000
v 5.000000000000000 -2.471572410000000 -5.134565300000000
v 3.500000000000000 -2.471572410000000 -5.134565300000000
v 3.500000000000000 -2.471572410000000 -4.465434700000000
v 5.000000000000000 -2.471572410000000 -4.465434700000000
v 5.000000000000000 -1.728427590000000 -5.134565300000000
v 3.500000000000000 -1.728427590000000 -4.465434700000000
v 5.000000000000000 -1.728427590000000 -4.465434700000000
v 3.500000000000000 -1.728427590000000 -5.134565300000000
v 3.500000000000000 -3.500000000000000 -2.599342080000000
v 3.500000000000000 -1.000000000000000 -4.165151390000000
v 3.500000000000000 -3.500000000000000 -6.000000000000000
v 3.500000000000000 -1.292893220000000 -5.707106780000000
v 2.500000000000000 -3.500000000000000 -2.599342080000000
v 2.500000000000000 -3.500000000000000 -6.000000000000000
v 2.500000000000000 -1.000000000000000 -4.165151390000000
v 2.500000000000000 -1.292893220000000 -5.707106780000000
v 1.000000000000000 -5.000000000000000 -6.000000000000000
v 5.000000000000000 -5.000000000000000 -6.000000000000000
v 5.000000000000000 -1.292893220000000 -5.707106780000000
v 5.000000000000000 -1.000000000000000 -4.165151390000000
v 1.000000000000000 -5.000000000000000 -1.000000000000000
v 1.000000000000000 -4.032296310000000 -2.109627880000000
v 1.000000000000000 -1.292893220000000 -5.707106780000000
v 1.000000000000000 -1.000000000000000 -4.165151390000000
v 5.000000000000000 -5.000000000000000 -1.000000000000000
v 5.000000000000000 -4.032296310000000 -2.109627880000000
f 16 19 20 1
f 20 511 512 1
f 512 7 25 1
f 25 8 16 1
f 5 15 14 2
f 14 9 10 2
f 10 24 17 2
f 17 44 5 2
f 433 436 52 3
f 52 56 22 3
f 22 12 23 3
f 23 510 433 3
f 22 56 48 4
f 48 51 13 4
f 13 19 11 4
f 11 12 22 4
f 6 513 15 5
f 44 55 6 5
f 55 357 358 6
f 358 337 513 6
f 512 71 72 7
f 72 69 54 7
f 54 21 25 7
f 10 9 16 8
f 25 21 18 8
f 18 24 10 8
f 14 12 11 9
f 11 19 16 9
f 14 15 23 12
f 51 49 26 13
f 26 20 19 13
f 513 510 23 15
f 24 30 46 17
f 46 27 44 17
f 21 57 39 18
f 39 30 24 18
f 26 432 511 20
f 54 33 57 21
f 49 435 432 26
f 47 516 32 27
f 32 55 44 27
f 46 42 47 27
f 320 327 516 28
f 516 47 50 28
f 50 35 514 28
f 514 315 320 28
f 35 50 40 29
f 40 38 41 29
f 41 48 56 29
f 56 52 35 29
f 39 43 37 30
f 37 42 46 30
f 45 43 34 31
f 34 515 434 31
f 434 517 53 31
f 53 36 45 31
f 516 307 308 32
f 308 357 55 32
f 515 34 57 33
f 54 69 60 33
f 60 58 515 33
f 43 39 57 34
f 52 436 514 35
f 41 38 45 36
f 53 49 51 36
f 51 48 41 36
f 43 45 38 37
f 38 40 42 37
f 50 47 42 40
f 53 517 435 49
f 75 63 515 58
f 60 438 453 58
f 453 454 75 58
f 64 168 151 59
f 151 451 70 59
f 70 65 517 59
f 517 434 64 59
f 69 437 438 60
f 435 517 65 61
f 65 444 441 61
f 441 440 68 61
f 68 432 435 61
f 71 512 73 62
f 73 450 446 62
f 446 518 442 62
f 442 448 71 62
f 167 168 64 63
f 64 434 515 63
f 75 164 167 63
f 70 452 444 65
f 67 439 445 66
f 445 520 443 66
f 443 447 74 66
f 74 511 67 66
f 68 440 439 67
f 511 432 68 67
f 72 449 437 69
f 451 521 452 70
f 448 449 72 71
f 512 511 74 73
f 74 447 450 73
f 454 519 164 75
f 447 443 78 76
f 78 457 458 76
f 458 460 77 76
f 77 450 447 76
f 460 459 79 77
f 79 446 450 77
f 443 520 456 78
f 456 523 457 78
f 459 522 455 79
f 455 518 446 79
f 86 91 87 80
f 87 90 94 80
f 94 81 93 80
f 93 89 86 80
f 94 95 92 81
f 92 83 84 81
f 84 85 93 81
f 90 472 470 82
f 470 525 467 82
f 467 469 95 82
f 95 94 90 82
f 92 468 466 83
f 466 524 471 83
f 471 462 84 83
f 462 463 85 84
f 88 89 93 85
f 463 461 88 85
f 458 457 91 86
f 89 460 458 86
f 91 464 465 87
f 465 472 90 87
f 459 460 89 88
f 461 522 459 88
f 457 523 464 91
f 95 469 468 92
f 101 475 473 96
f 473 478 115 96
f 115 126 120 96
f 120 127 101 96
f 108 106 105 97
f 105 104 103 97
f 103 109 128 97
f 128 112 108 97
f 118 322 313 98
f 313 326 139 98
f 139 138 110 98
f 110 130 118 98
f 135 323 342 99
f 342 322 118 99
f 118 130 100 99
f 100 132 135 99
f 130 140 111 100
f 111 122 132 100
f 102 474 475 101
f 127 123 102 101
f 131 476 474 102
f 123 121 131 102
f 104 133 136 103
f 136 129 109 103
f 105 193 197 104
f 197 206 133 104
f 106 188 193 105
f 108 124 107 106
f 107 219 188 106
f 124 114 113 107
f 113 209 219 107
f 112 126 124 108
f 129 472 465 109
f 465 464 128 109
f 138 134 137 110
f 137 140 130 110
f 140 439 440 111
f 440 441 122 111
f 128 464 523 112
f 523 120 126 112
f 114 477 526 113
f 526 489 209 113
f 115 478 477 114
f 124 126 115 114
f 138 139 117 116
f 117 119 125 116
f 125 131 121 116
f 121 134 138 116
f 139 326 325 117
f 325 332 119 117
f 332 527 480 119
f 480 479 125 119
f 523 456 127 120
f 123 520 134 121
f 156 143 132 122
f 441 444 156 122
f 127 456 520 123
f 479 476 131 125
f 136 295 297 129
f 297 470 472 129
f 143 154 135 132
f 206 215 304 133
f 304 295 136 133
f 520 445 137 134
f 154 334 323 135
f 445 439 140 137
f 153 345 528 141
f 528 347 142 141
f 142 146 148 141
f 148 152 153 141
f 347 334 154 142
f 154 143 146 142
f 156 149 146 143
f 152 145 155 144
f 155 161 160 144
f 160 162 150 144
f 150 153 152 144
f 152 148 147 145
f 147 521 451 145
f 451 151 155 145
f 149 147 148 146
f 149 452 521 147
f 156 444 452 149
f 162 356 335 150
f 335 345 153 150
f 168 161 155 151
f 162 160 158 157
f 158 159 172 157
f 172 173 169 157
f 169 356 162 157
f 160 161 163 158
f 163 166 159 158
f 166 165 171 159
f 171 170 172 159
f 168 167 163 161
f 167 164 166 163
f 519 165 166 164
f 519 454 399 165
f 399 431 171 165
f 173 355 327 169
f 327 320 356 169
f 171 431 425 170
f 425 424 529 170
f 529 173 172 170
f 529 424 355 173
f 213 187 185 174
f 185 176 175 174
f 175 178 211 174
f 211 208 213 174
f 176 179 182 175
f 182 181 178 175
f 185 186 184 176
f 184 221 179 176
f 218 207 198 177
f 198 204 196 177
f 196 180 214 177
f 214 202 218 177
f 181 217 215 178
f 215 206 211 178
f 221 533 210 179
f 210 222 182 179
f 196 199 216 180
f 216 203 192 180
f 192 205 214 180
f 182 222 220 181
f 220 532 217 181
f 486 487 212 183
f 212 195 199 183
f 199 196 204 183
f 204 484 486 183
f 186 378 395 184
f 395 414 221 184
f 187 191 186 185
f 191 367 378 186
f 192 203 191 187
f 213 205 192 187
f 219 218 202 188
f 202 201 193 188
f 391 531 190 189
f 190 483 482 189
f 482 481 408 189
f 408 409 391 189
f 531 195 212 190
f 212 487 483 190
f 203 200 367 191
f 201 208 197 193
f 195 531 403 194
f 403 421 200 194
f 200 203 216 194
f 216 199 195 194
f 208 211 206 197
f 207 488 485 198
f 485 484 204 198
f 421 368 367 200
f 202 214 205 201
f 205 213 208 201
f 209 489 488 207
f 218 219 209 207
f 533 508 359 210
f 359 360 222 210
f 217 299 304 215
f 532 298 299 217
f 222 360 303 220
f 303 298 532 220
f 414 508 533 221
f 226 262 224 223
f 224 291 259 223
f 259 243 244 223
f 244 290 226 223
f 262 255 257 224
f 257 260 291 224
f 261 289 276 225
f 276 250 292 225
f 292 251 252 225
f 252 254 261 225
f 228 288 262 226
f 290 229 228 226
f 264 267 258 227
f 258 269 289 227
f 289 261 287 227
f 287 270 264 227
f 256 284 288 228
f 229 265 256 228
f 290 249 253 229
f 253 268 265 229
f 238 235 245 230
f 245 231 247 230
f 247 233 277 230
f 277 250 238 230
f 245 232 240 231
f 240 239 237 231
f 237 246 247 231
f 243 259 266 232
f 266 241 240 232
f 245 235 243 232
f 247 246 234 233
f 234 275 293 233
f 293 283 277 233
f 246 484 485 234
f 485 488 275 234
f 248 244 243 235
f 238 242 248 235
f 483 487 239 236
f 239 240 241 236
f 241 285 286 236
f 286 482 483 236
f 239 487 486 237
f 486 484 246 237
f 250 276 242 238
f 266 282 285 241
f 269 249 248 242
f 276 289 269 242
f 248 249 290 244
f 269 258 253 249
f 277 283 292 250
f 292 283 263 251
f 263 473 475 251
f 475 474 252 251
f 474 476 254 252
f 258 267 268 253
f 279 287 261 254
f 476 479 279 254
f 278 502 493 255
f 493 492 257 255
f 262 288 278 255
f 494 500 284 256
f 265 491 494 256
f 492 496 260 257
f 291 282 266 259
f 496 505 294 260
f 294 282 291 260
f 283 293 281 263
f 281 478 473 263
f 270 497 495 264
f 495 490 267 264
f 268 506 491 265
f 490 506 268 267
f 271 498 497 270
f 287 279 271 270
f 480 527 498 271
f 279 479 480 271
f 284 500 499 272
f 499 534 501 272
f 501 502 278 272
f 278 288 284 272
f 481 482 286 273
f 286 285 280 273
f 280 504 503 273
f 503 530 481 273
f 281 293 275 274
f 275 488 489 274
f 489 526 477 274
f 477 478 281 274
f 294 505 504 280
f 285 282 294 280
f 304 299 301 295
f 301 302 297 295
f 362 363 306 296
f 306 305 300 296
f 300 298 303 296
f 303 360 362 296
f 302 525 470 297
f 300 301 299 298
f 305 302 301 300
f 305 467 525 302
f 306 469 467 305
f 363 468 469 306
f 355 424 423 307
f 423 398 308 307
f 516 327 355 307
f 398 319 357 308
f 353 321 350 309
f 350 349 348 309
f 348 344 312 309
f 312 314 353 309
f 311 317 330 310
f 330 336 351 310
f 351 349 350 310
f 350 321 311 310
f 337 328 317 311
f 321 513 337 311
f 344 325 326 312
f 326 313 314 312
f 322 324 314 313
f 324 510 353 314
f 335 356 320 315
f 514 352 339 315
f 339 345 335 315
f 352 514 436 316
f 436 433 354 316
f 354 342 323 316
f 323 334 352 316
f 328 369 422 317
f 422 331 330 317
f 319 397 376 318
f 376 369 328 318
f 328 337 358 318
f 358 357 319 318
f 398 412 397 319
f 353 510 513 321
f 342 354 324 322
f 354 433 510 324
f 344 333 332 325
f 351 336 343 329
f 343 506 490 329
f 490 495 346 329
f 346 349 351 329
f 331 341 336 330
f 422 382 407 331
f 407 400 341 331
f 333 498 527 332
f 344 348 338 333
f 338 497 498 333
f 347 339 352 334
f 341 340 343 336
f 348 349 346 338
f 346 495 497 338
f 347 528 345 339
f 341 400 535 340
f 535 494 491 340
f 491 506 343 340
f 508 509 361 359
f 361 362 360 359
f 509 507 364 361
f 364 363 362 361
f 364 466 468 363
f 507 524 466 364
f 380 463 462 365
f 462 471 429 365
f 429 415 396 365
f 396 379 380 365
f 373 438 437 366
f 437 449 371 366
f 371 377 372 366
f 372 427 373 366
f 368 379 378 367
f 421 392 381 368
f 381 380 379 368
f 376 377 375 369
f 375 382 422 369
f 418 430 388 370
f 388 522 392 370
f 392 421 403 370
f 403 531 418 370
f 449 448 387 371
f 387 375 377 371
f 377 376 397 372
f 397 412 427 372
f 374 453 438 373
f 427 428 374 373
f 399 454 453 374
f 428 431 399 374
f 387 393 382 375
f 379 396 395 378
f 381 461 463 380
f 392 522 461 381
f 393 386 407 382
f 417 389 406 383
f 406 430 402 383
f 402 394 390 383
f 390 419 417 383
f 401 410 389 384
f 389 417 411 384
f 411 385 535 384
f 535 400 401 384
f 411 405 404 385
f 404 499 500 385
f 500 494 535 385
f 393 442 518 386
f 518 410 401 386
f 401 400 407 386
f 448 442 393 387
f 420 455 522 388
f 430 406 420 388
f 410 420 406 389
f 394 496 492 390
f 492 493 419 390
f 416 418 531 391
f 409 426 416 391
f 402 416 426 394
f 426 505 496 394
f 396 415 414 395
f 423 413 412 398
f 430 418 416 402
f 405 502 501 404
f 501 534 499 404
f 411 417 419 405
f 419 493 502 405
f 481 530 503 408
f 503 504 409 408
f 504 505 426 409
f 518 455 420 410
f 413 428 427 412
f 425 431 428 413
f 423 424 425 413
f 415 509 508 414
f 429 507 509 415
f 471 524 507 429
