v 3.632519632051566 -2.585305874253897 -4.910779710606240
v 4.861285382380667 -2.149987608383066 -4.304961125315060
v 3.766339427791847 -2.227365179603356 -5.281643290250450
v 4.858037332616723 -2.367434619028590 -5.220571172458760
v 4.453040426997907 -2.285828559637164 -4.337096334237712
v 4.591515608649310 -2.410249909338230 -4.409448922264687
v 3.897080814565568 -2.273411170786725 -4.331779689283698
v 3.764986996929537 -2.267188519216045 -4.329081859157642
v 4.720210450260717 -2.226746734516952 -5.281591382510142
v 3.633545720380705 -2.224851575864649 -5.282727260095571
v 4.871286455350489 -2.498073305101260 -5.101593357304113
v 4.446499556259509 -2.226198399545767 -5.283232292488844
v 4.724539749154674 -2.404062049188001 -4.405901172576541
v 3.758536032222227 -2.589348459526686 -4.704426491290804
v 4.456349108678398 -2.413918734887798 -4.413476753363331
v 4.309727624002637 -2.148841124850118 -4.305173512090601
v 4.724786120897285 -2.281091714760207 -4.336217667243582
v 4.171014445264588 -2.371706847201507 -5.218872463277699
v 4.864418519540944 -2.274380048572101 -4.332549295759994
v 4.034415534807966 -2.277131035699147 -4.333883033085014
v 4.171041977305754 -2.507435616388644 -5.088838147937240
v 4.030066864170839 -2.411183839706267 -4.410901459857579
v 4.866975905136980 -2.393532547451624 -4.396989330716431
v 3.635520328194553 -2.389394808746871 -4.394007662740226
v 3.898088229654478 -2.372518501771133 -5.217234133266743
v 4.992530162136575 -2.368346856101413 -5.219519402628155
v 4.311094368174819 -2.282110826775443 -4.335694755118176
v 4.982715971886442 -2.224692523795912 -5.282812521292225
v 4.307136075994485 -2.373263291111445 -5.216583921074086
v 4.591418976320210 -2.372182455832632 -5.217967220017944
v 4.448489228604388 -2.374036840269723 -5.215538297842922
v 4.033215426358694 -2.371925748588680 -5.219089024106747
v 4.170646960734693 -2.413525655885688 -4.411935523105269
v 4.027157210717185 -2.527076502913748 -4.544711346633006
v 4.170421770491654 -2.586344617297442 -4.911793795245957
v 4.594170336447449 -2.522503154538273 -4.534816025741999
v 4.031591352607642 -2.507117465924402 -5.088876714465735
v 4.454267875671342 -2.527990223923910 -4.541977684049957
v 4.312710616468340 -2.530153232061197 -4.546662734493697
v 4.311895555023739 -2.593046203116600 -4.721226107945691
v 3.889699336738481 -2.407180709274666 -4.406895336913074
v 4.453827988495895 -2.591850434764876 -4.718487137966211
v 3.890066900247169 -2.587415661339942 -4.906367113744498
v 4.169940458744605 -2.529456884636924 -4.547439116290057
v 4.732087272435839 -2.516164627063930 -4.526323309020359
v 3.765742811899809 -2.371351380183931 -5.217507984157343
v 4.310719186565361 -2.506628064422352 -5.088090428480514
v 4.172842584596033 -2.144778138915613 -4.303892525008239
v 4.169649984748502 -2.592256848320418 -4.721494852371113
v 4.595941820877975 -2.586863341485997 -4.909117066179075
v 4.451837211103543 -2.506820742098661 -5.086784696435277
v 4.449876101927126 -2.152552341098248 -4.304846225481671
v 3.760325504741290 -2.586774075019490 -4.904930385872541
v 3.894611200403936 -2.506068873284718 -5.089541587222861
v 4.028998268017553 -2.586354192444176 -4.909810720950665
v 4.873028882809073 -2.503042677163855 -4.505945649581514
v 3.758681765172184 -2.518653152874914 -4.529311108501732
v 3.766251750388525 -2.123427681782277 -4.301900948172098
v 4.311712050007682 -2.585935288024114 -4.911845477040423
v 4.733812892468311 -2.504123818550770 -5.092518801996185
v 4.313954363184640 -2.415105952171638 -4.413365706922264
v 4.026584072945580 -2.591234276285782 -4.718726095839507
v 4.593540490043681 -2.506188844861338 -5.089532570210978
v 3.633227824404396 -2.111923075554303 -4.300952709145566
v 4.739007417152662 -2.587529874868286 -4.906593828651236
v 4.453365244630530 -2.585568247741924 -4.910652017916393
v 3.900064072833269 -2.132275061021959 -4.302934587417110
v 3.633587861307976 -2.255349695656899 -4.325120218811711
v 4.882983396925452 -2.585199737089983 -4.681709861683336
v 4.882695394864228 -2.589053816409011 -4.900684879220074
v 3.885284633856484 -2.591279642677152 -4.711948891403107
v 4.596003290253142 -2.591384012681393 -4.711940542544177
v 4.725283816210710 -2.369383665286659 -5.220695926274520
v 4.171013854805111 -2.230404344929707 -5.280487706042313
v 3.885416168200769 -2.524573883197710 -4.538475239311589
v 4.172270892193075 -2.280189071030939 -4.335074395047488
v 4.034986686624257 -2.230600008258239 -5.280648531425296
v 4.738418214899848 -2.589412295066002 -4.701256439759629
v 4.998127861346517 -2.145597756099409 -4.304740213224370
v 3.634884841553689 -2.587046382261263 -4.694122936038629
v 3.762779796505134 -2.503873627882745 -5.091428781296740
v 4.852748577301829 -2.225850436866422 -5.282746526057678
v 4.587808619636562 -2.153966941955823 -4.303862058695685
v 4.589352869951966 -2.286488128488290 -4.338236776225386
v 4.036556800808395 -2.139124848193582 -4.303028041522699
v 3.635066873573045 -2.367687087275843 -5.221287482627104
v 3.635600024984509 -2.506682604049775 -4.511379947475554
v 3.899805731909619 -2.229750638002368 -5.281681782797244
v 4.724575629281770 -2.152710400306526 -4.303674677886375
v 3.633132441238011 -2.495975784816347 -5.103115209255220
v 4.585618540155310 -2.227267987956183 -5.282302596004533
v 4.306973357546847 -2.229670225461809 -5.281850506658225
v 3.761716585248423 -2.402719414311775 -4.402632034803492
v 3.022773311235837 -5.000000000000014 -4.789209270751757
v 3.353741125865364 -5.000000000000014 -4.794571147179255
v 3.358247113933436 -5.000000000000007 -5.208333056193390
v 3.682272832122076 -5.000000000000007 -4.802958832856351
v 3.351983049389691 -5.000000000000020 -2.670884350584839
v 3.349354102680948 -4.999999999999945 -3.103797298156922
v 4.340573086615418 -5.000000000000014 -4.423271041221279
v 4.011915415410570 -5.000000000000002 -4.814801636965349
v 4.010885007916993 -5.000000000000002 -4.403443342936194
v 4.341062262733370 -5.000000000000002 -4.828442640334458
v 4.340282763035333 -5.000000000000014 -4.008268680423184
v 1.338600446187153 -5.000000000000060 -3.944130530272901
v 3.021360670041544 -4.999999999999984 -2.663681447887260
v 2.349197433164487 -4.999999999999996 -3.511331126092978
v 2.683104297039375 -4.999999999999996 -3.517246673694906
v 1.676694375110870 -4.999999999999986 -3.936485936615096
v 2.013212855415691 -4.999999999999987 -3.937342761317781
v 2.013280867493394 -4.999999999999980 -3.507704756207457
v 2.015696464352109 -4.999999999999996 -4.361663509177102
v 1.676295255259524 -5.000000000000062 -3.505145508839349
v 1.678362105120754 -5.000000000000062 -3.068843173083482
v 1.339599258622551 -4.999999999999925 -3.061627499536145
v 2.690692201467892 -5.000000000000046 -4.783624305332175
v 2.685985932379986 -5.000000000000046 -4.365323923864494
v 3.018238813406420 -4.999999999999987 -4.371006884971790
v 4.670571727810401 -5.000000000000025 -4.850684796721862
v 2.351768179905143 -5.000000000000002 -4.361594303635823
v 2.349001608356200 -5.000000000000005 -3.938734790214215
v 2.683713925127011 -5.000000000000005 -3.942601187610539
v 1.338836157677990 -4.999999999999964 -4.374206888265547
v 4.670046672874090 -4.999999999999975 -3.612890369648813
v 3.015967593348118 -5.000000000000011 -3.524880915416018
v 3.348315895079986 -5.000000000000011 -3.533201624204123
v 1.338218263574877 -5.000000000000014 -3.502512775339634
v 3.016647035891631 -5.000000000000018 -3.949922947470572
v 3.350454693426100 -4.999999999999993 -4.378126996750200
v 3.348566183464729 -4.999999999999993 -3.959044199424158
v 3.680915352167474 -4.999999999999974 -4.392192473687006
v 2.019840913945979 -4.999999999999996 -4.780420222789578
v 1.682178245026900 -5.000000000000021 -4.781731568132070
v 1.678397024221084 -5.000000000000021 -4.363724743894889
v 2.697248983298037 -4.999999999999972 -2.228752765006409
v 3.364659616017891 -5.000000000000011 -5.607117316480743
v 3.355713626508996 -5.000000000000046 -2.235217902667875
v 2.041166709158027 -5.000000000000004 -5.602021475146140
v 4.011749530250882 -4.999999999999964 -2.243325994027553
v 4.010219504063803 -5.000000000000052 -3.986602872979136
v 3.027351539441806 -5.000000000000082 -2.232424932606022
v 3.683869255759483 -4.999999999999968 -2.239667931735148
v 3.028725248232012 -5.000000000000011 -5.203092120889021
v 2.028676162718186 -4.999999999999942 -5.194738817816282
v 1.342055242698359 -5.000000000000014 -4.793828615512165
v 4.670220393872084 -5.000000000000021 -2.704348061732378
v 4.011181125225930 -4.999999999999986 -2.688089130182329
v 2.027973324064924 -5.000000000000057 -2.220905456638283
v 4.013337299494659 -4.999999999999996 -5.612189435947875
v 2.684874148712311 -5.000000000000007 -3.088505939088585
v 4.670157380157688 -4.999999999999954 -3.170950426855021
v 2.363961341122686 -4.999999999999972 -2.225362166558295
v 3.689114607433271 -5.000000000000002 -5.609817383940316
v 3.039212804342053 -5.000000000000004 -5.606496273906139
v 2.014837563863316 -4.999999999999982 -3.074264559461620
v 2.377714505664335 -4.999999999999984 -5.604037811909033
v 3.685231036106419 -4.999999999999982 -5.212852051595886
v 4.670319266826686 -4.999999999999986 -4.449184490849868
v 1.343865318343965 -5.000000000000014 -2.202936724199628
v 4.670470292151239 -5.000000000000003 -5.619227388976160
v 4.010326211864450 -4.999999999999892 -3.126795795383716
v 4.670174144195922 -4.999999999999975 -4.038628847740098
v 2.019622843152312 -4.999999999999950 -2.645603440160491
v 1.348485514120950 -5.000000000000014 -5.602266664461212
v 4.670046960225369 -5.000000000000005 -2.252166573936722
v 2.710567171935880 -5.000000000000025 -5.605313488007416
v 3.018093498830333 -5.000000000000007 -3.095796147314481
v 3.679358345654119 -4.999999999999979 -3.546387961105264
v 1.343461531651153 -5.000000000000027 -5.201525876216999
v 1.340590284115829 -5.000000000000039 -2.608948462012787
v 4.670524299213393 -5.000000000000000 -5.238018879598123
v 2.351123876441882 -4.999999999999972 -3.082331200362353
v 1.688365607500087 -5.000000000000036 -5.194943134273254
v 4.340622466703017 -5.000000000000000 -2.698533957696791
v 1.687853676518724 -4.999999999999995 -2.211714750801364
v 4.340875783075002 -5.000000000000007 -5.616092327595313
v 2.356883733114342 -4.999999999999989 -4.780410745669796
v 2.365475208775669 -4.999999999999984 -5.195821984761723
v 1.697338636839477 -5.000000000000000 -5.601778686362538
v 4.340590491545514 -4.999999999999984 -2.247833688281581
v 3.679465187129484 -5.000000000000044 -3.971823480555627
v 4.340280045090918 -5.000000000000089 -3.142300374225892
v 3.681829201504362 -5.000000000000093 -2.677579451899247
v 4.012213343395127 -5.000000000000012 -5.218315266221614
v 1.681813973038345 -5.000000000000098 -2.636470451073365
v 4.341231320430826 -4.999999999999977 -5.226170858114680
v 2.355720924711942 -5.000000000000007 -2.652767608132552
v 2.689892531012414 -4.999999999999962 -2.658922959846936
v 2.700367916092714 -4.999999999999959 -5.198371869497932
v 3.680187815510067 -5.000000000000010 -3.113911976118849
v 4.009921008917957 -5.000000000000016 -3.562306091387433
v 4.340086490575211 -5.000000000000016 -3.584260988466255
v 1.000000000000008 -4.529580245004599 -3.989009023542679
v 1.000000000000008 -4.512964303983091 -3.531264251942934
v 0.999999999999908 -1.286243701785605 -5.020522966746074
v 0.999999999999997 -3.171954960339989 -5.018685476884817
v 1.000000000000025 -1.981993315372378 -4.926581012714540
v 1.000000000000002 -1.988513294919613 -4.632881867758040
v 1.000000000000002 -2.004128890464127 -4.315364398813750
v 0.999999999999991 -1.624266906791719 -4.462628893754745
v 0.999999999999991 -1.641723547819179 -4.161222026296468
v 0.999999999999989 -3.202595668352465 -3.845215204322839
v 0.999999999999998 -2.347141006301539 -5.168621344069082
v 1.000000000000009 -2.798607180188272 -4.008193007117391
v 0.999999999999996 -2.794961351823358 -3.595807701927715
v 0.999999999999905 -1.612982199507861 -4.734181938739915
v 1.000000000000000 -3.139974157583622 -5.372916069396297
v 1.000000000000004 -3.997232665120384 -3.083725338638779
v 0.999999999999995 -1.299887743384785 -4.308190746533693
v 0.999999999999996 -3.096798494668169 -5.698382197523450
v 1.000000000000007 -2.017736927874949 -3.986360855956256
v 0.999999999999998 -1.688990710372246 -5.465499503886784
v 1.000000000000001 -2.362784498797478 -4.850772507328371
v 1.000000000000001 -4.021003013114800 -5.649363949658403
v 1.000000000000002 -3.564131806003550 -5.671747384372837
v 1.000000000000000 -4.073921041602377 -4.056606285684284
v 1.000000000000000 -4.529114233757571 -4.835967595673679
v 1.000000000000000 -4.534441340040436 -4.424847930015716
v 1.000000000000003 -2.652878695073622 -5.730001623435740
v 0.999999999999987 -2.398190604181629 -4.162853351901156
v 1.000000000000006 -3.181301111950295 -3.390287281552688
v 1.000000000000002 -2.408447779940438 -3.810585582144392
v 1.000000000000008 -2.791604682576777 -4.384691835754008
v 1.000000000000009 -3.575914020830773 -3.214152202241726
v 1.000000000000001 -3.205056089799628 -4.256233500006442
v 1.000000000000004 -4.059303810393805 -3.603892402258344
v 5.000000000000078 -2.533335251430157 -4.424019210604063
v 0.999999999999975 -1.642440839273061 -5.227701502773455
v 0.999999999999975 -1.613956104561128 -4.980370255095128
v 1.000000000000001 -2.385926201636295 -4.512445938367167
v 1.000000000000007 -4.475356323059027 -3.032001378474085
v 0.999999999999997 -3.195613215752348 -4.647728424888120
v 0.999999999999998 -2.773747967229687 -4.751259905021382
v 1.000000000000003 -2.744011124830436 -5.099349779802047
v 0.999999999999997 -1.982656500234725 -5.218321421258686
v 1.000000000000001 -4.501798143652022 -5.621945585069049
v 0.999999999999972 -2.290770525217724 -5.755787273967811
v 0.999999999999929 -1.461827520447309 -5.631117424148184
v 0.999999999999995 -4.066990316677972 -4.886555916330483
v 0.999999999999995 -4.043774962202972 -5.277820385440311
v 1.000000000000001 -3.589812560116728 -5.321073962034150
v 1.000000000000001 -4.074809835386590 -4.477698563665133
v 1.000000000000001 -2.320874088110660 -5.477788976714091
v 1.000000000000043 -1.322894574035168 -5.225660012072659
v 1.000000000000006 -4.519147046487136 -5.235076850758603
v 1.000000000000003 -1.993708307680632 -5.491375875403651
v 1.000000000000085 -1.386843661364456 -5.425929225600142
v 1.000000000000005 -3.622153285901977 -3.711803140731121
v 0.999999999999995 -3.633924048057875 -4.148771733813557
v 0.999999999999997 -2.698637295588522 -5.430699912648564
v 0.999999999999997 -1.286494633439999 -4.573635206264095
v 1.000000000000000 -3.629495554866312 -4.554949128835805
v 1.000000000000004 -3.613378887689156 -4.943130431439648
v 1.000000000000016 -1.998666797947791 -5.758118043326522
v 1.000000000000077 -1.731776129891643 -5.716791935541443
v 1.000000000000057 -1.270962927910725 -4.805688609446111
v 4.850550464098694 -2.073252142506492 -5.297350915913743
v 3.628213113446012 -1.768178545420931 -5.173798479180104
v 3.630612787423702 -1.913195247314574 -5.261987832129325
v 4.446871805166650 -1.933672133230471 -5.269202019805096
v 4.582899705586133 -1.792071175440735 -5.191831529422859
v 4.723729127309754 -1.896353341062778 -4.345775635267827
v 4.724902401251313 -1.776727842021240 -4.421231132904189
v 4.172419465650796 -2.006553874416423 -4.310023654158561
v 4.865224100002093 -1.684662947425395 -4.523808424966361
v 4.713703376844784 -1.783645616331323 -5.185642762297454
v 4.307483782285558 -1.681667847434281 -5.072139199123655
v 4.449675864997658 -1.796536013510954 -5.195938905708029
v 4.448634634520275 -2.018117621046620 -4.308101313795685
v 4.989541999189344 -1.903942502803636 -4.340554305001257
v 4.171211430156908 -1.874465915755817 -4.356247400061805
v 3.898432273156298 -1.857656942469540 -4.363377019433700
v 4.850808771028237 -1.921307380425030 -5.265593979987793
v 4.857628143081302 -1.660121434984297 -5.035822954521695
v 4.859532526126916 -1.790707485765462 -4.408322834980534
v 4.996651445240989 -1.654680605757256 -5.022608861793350
v 3.629847432428627 -1.618829203896527 -4.932526109236409
v 4.986271544470046 -1.916957147051578 -5.263823055085132
v 4.035882315039019 -1.998926506792952 -4.311937437697378
v 3.633171832034236 -1.725004789162355 -4.471233300830088
v 4.170363529320009 -1.748621877532860 -4.445191382942050
v 4.854728646549992 -1.768826042872366 -5.172410303715225
v 4.995437645178615 -1.798650602460233 -4.402019228080356
v 4.306568497715302 -1.938828974132199 -5.271299082437706
v 4.306829207656484 -1.879801332065934 -4.351905430764154
v 4.307800344132047 -1.754928457036489 -4.440548802485170
v 4.033904659062289 -1.867244336382177 -4.360034006824991
v 4.166452252463953 -1.802903265816292 -5.200218320525291
v 4.169220280020562 -1.650796375276258 -4.584028928595620
v 4.026382241232096 -1.685492888396807 -5.076088744382873
v 4.995974899116852 -1.605959214075869 -4.867999957099761
v 4.583818541891272 -1.676188620724057 -5.062330045234859
v 4.446784583653956 -1.679372337631615 -5.068578729690282
v 4.447827702906224 -1.887115613349580 -4.348823272851174
v 4.025996174846082 -1.801526793805307 -5.198429684006598
v 4.589311150974819 -1.767529825111878 -4.427658747562851
v 4.168030124489037 -1.604387233649605 -4.747106089044966
v 4.026661224793513 -1.615192233731030 -4.921355802272815
v 4.857404268184291 -1.901626999872783 -4.342597956392165
v 4.307012210165406 -1.614565859135588 -4.911379998113738
v 4.030227241821040 -1.647264233709936 -4.591592748236554
v 4.446243307963676 -1.613160240427150 -4.904408584171184
v 4.031568230666116 -1.742189943343574 -4.451322152350786
v 4.448168215329109 -1.759346667750367 -4.437031327123618
v 4.167137344235467 -1.614781899632871 -4.917043372551136
v 4.308311839066242 -1.653744258463265 -4.576002838093383
v 4.166860719356406 -1.683768566091355 -5.074776015932378
v 4.448005412343855 -1.657651973631792 -4.567544321735141
v 3.764758936327890 -1.848533567969488 -4.369738545293364
v 4.719317745380179 -1.669924419134221 -5.050326045802999
v 4.170680519960191 -2.081939060360159 -5.298429978089276
v 3.895296111861251 -1.736008315090609 -4.459126179928507
v 3.760931172327632 -1.640907269596070 -4.607873358729150
v 4.586507838551450 -1.607495814362485 -4.719928522146930
v 4.445464757361626 -2.079123953289905 -5.298093116822000
v 3.890332425947701 -1.602664888262773 -4.761069805481217
v 3.892614312440988 -1.643304508156488 -4.599532568085213
v 3.759216614619247 -1.601295581405239 -4.767581753013548
v 3.756600218064311 -1.785883341124103 -5.186516588491433
v 4.308565379746096 -1.800088170409403 -5.199354743364070
v 4.864555724308292 -1.612090410828350 -4.695970228124597
v 3.765196629301355 -2.073276920821173 -5.297691247650316
v 4.307588716948375 -1.604764857384991 -4.739501842320662
v 3.755753119129336 -1.618838374365192 -4.927689296010617
v 4.588142614421095 -1.664318849891842 -4.557320569239484
v 4.028141145186906 -1.604326524134399 -4.754301139952436
v 3.632340911042360 -2.070259946588416 -5.297523374530337
v 4.726170996058624 -1.608834555066225 -4.707092676429243
v 4.447014375722679 -1.606618764184619 -4.730925598026930
v 3.899156585435330 -2.077435706620124 -5.298072061410454
v 4.587470755343785 -2.020084603140601 -4.307027049667344
v 4.306514376668368 -2.081598044231029 -5.298185555305029
v 3.888530900444650 -1.616926225707163 -4.923997799107971
v 4.584875524671411 -1.609958273401152 -4.895439994477297
v 4.723694306659471 -2.021633386599031 -4.306808426634952
v 3.888228830457132 -1.683087223459101 -5.074204538464194
v 4.860328724033560 -1.606218080133171 -4.873204223528145
v 4.726690549833748 -1.672628399604068 -4.544330014854654
v 4.722998773415380 -1.609018390159876 -4.883927937419410
v 3.631616810504508 -1.635882453078103 -4.615212319201760
v 3.891378512130096 -1.795832567765294 -5.195646538287535
v 4.168977539454785 -1.938038745282822 -5.272509061882081
v 3.896194370682081 -1.927946605765746 -5.268858494853378
v 3.633632457220866 -1.970377218770240 -4.318538456066316
v 4.982437887329540 -2.074042938764316 -5.297762455137764
v 3.762199239298887 -1.729907766324526 -4.466659004697693
v 4.715004274846972 -1.923815934425022 -5.265876336380932
v 3.627929650711095 -1.674900611741369 -5.060319720657729
v 4.581812727658569 -1.927665102934978 -5.267564768537881
v 4.991547220551513 -2.023289096096031 -4.307802082808244
v 4.717021149180135 -2.074306731224194 -5.298231065206708
v 3.766260623051046 -1.980766658198303 -4.315779615544674
v 4.035006981439007 -2.080531867914343 -5.298575119927040
v 3.900299953916798 -1.990246319113265 -4.313230771871192
v 3.751665357833763 -1.679283499470184 -5.069190471724676
v 3.630676883422564 -1.601632856678794 -4.775882518820206
v 4.309086309530285 -2.012247779334739 -4.307876776706455
v 4.589544171425137 -1.891520819913779 -4.346170010768932
v 4.582388401701519 -2.076511468620114 -5.298371915914293
v 4.858626472365680 -2.022640281348696 -4.306037246561499
v 4.032061285051266 -1.934248267191979 -5.271338723254076
v 3.762536939427148 -1.920417301705204 -5.265814097628526
v 3.635081682388603 -1.839765426844256 -4.374146320731207
v 3.499999999999993 -1.930903236754911 -4.156652974377875
v 3.500000000000017 -1.266506037821066 -5.176442850047247
v 3.499999999999994 -3.202363544942116 -3.428010727107038
v 3.500000000000010 -1.237137988146885 -5.012162360940564
v 3.499999999999989 -2.805789312074491 -4.932045000078133
v 3.499999999999985 -2.872142904452234 -4.021721582034187
v 3.500000000000059 -1.312713445972321 -5.354329432606947
v 3.499999999999999 -1.439412280610232 -4.486866291102949
v 3.500000000000018 -2.806085957136770 -4.671046279188085
v 3.500000000000001 -1.205731028781346 -4.373508256859001
v 3.500000000000014 -2.905498138938425 -3.566277934049980
v 3.499999999999996 -1.205200147869480 -4.534168259908006
v 3.500000000000002 -1.588263971105828 -4.072999731135171
v 3.500000000000002 -1.601122245087558 -4.246043450187826
v 3.500000000000000 -1.563268974930240 -5.555772150303827
v 3.500000000000000 -3.211141011661722 -5.640578554610527
v 3.500000000000007 -3.193650878486785 -3.928963880102815
v 3.499999999999994 -2.633569595737795 -3.685161772732304
v 3.500000000000001 -1.773119379738303 -4.199078372677077
v 3.499999999999997 -1.896941612544689 -3.952873362805363
v 3.500000000000017 -1.464721604606376 -4.963444392529277
v 3.500000000000051 -1.375349743724068 -5.551808914818448
v 3.500000000000000 -3.137645452150005 -4.647287946812037
v 3.499999999999994 -2.076598878212098 -4.134951357268200
v 3.500000000000002 -2.236305419160496 -4.121078866889960
v 3.500000000000070 -1.535626451545741 -5.295774144826912
v 3.499999999999943 -1.918080196371348 -5.536064448137346
v 3.500000000000007 -3.164916430594258 -4.330633919229475
v 3.500000000000025 -2.831156084526562 -5.220244462288456
v 3.500000000000004 -1.219482961536307 -4.853014288670351
v 3.500000000000004 -1.207544251834088 -4.694736574317750
v 3.500000000000006 -2.399940931852101 -3.779485429650844
v 3.500000000000006 -2.220367336522880 -3.853372445243026
v 3.500000000000007 -3.159092499653208 -5.267786967620879
v 3.500000000000000 -2.425575811824157 -5.543140460729307
v 3.500000000000092 -1.745771621709104 -5.542557231397908
v 3.499999999999956 -2.391931849382931 -4.123046023217332
v 3.499999999999993 -2.916729622800821 -5.611138138722970
v 3.499999999999999 -1.444951028342484 -4.811856436978529
v 3.500000000000019 -1.500215483878944 -5.114514972239074
v 3.499999999999982 -2.642558775952141 -5.564557510100158
v 3.499999999999971 -2.080818166696247 -5.535100678835737
v 3.500000000000001 -1.440785634200488 -4.654726774817780
v 3.499999999999980 -2.244198593267307 -5.537030878373892
v 3.500000000000000 -2.054610417037869 -3.901132764184064
v 3.499999999999972 -2.821687094711414 -4.391380457130190
v 3.500000000000015 -2.597919869599115 -4.095801360385174
v 3.499999999999995 -1.744410783371914 -4.019065231070908
v 3.500000000000000 -1.396377098605964 -4.137413887635216
v 3.500000000000000 -1.202412109998562 -4.228995209688337
v 3.499999999999993 -3.134197109385354 -4.953594441655568
v 3.499999999999996 -1.408822795967320 -4.306682416063038
v 2.834566128609172 -3.499999999999992 -5.672182065765642
v 3.167247719237609 -3.500000000000008 -5.672182065765643
v 2.838336521385695 -3.499999999999993 -3.777918183619937
v 3.191576705481573 -3.499999999999996 -4.260241807589272
v 2.862620663306782 -3.500000000000002 -4.260033323862192
v 3.188219261523797 -3.500000000000000 -4.631663850813123
v 2.857655482510444 -3.500000000000000 -4.649740791076018
v 3.172003137772617 -3.500000000000002 -3.793507646798936
v 3.184614781261261 -3.500000000000004 -4.984788961331908
v 2.853350811929607 -3.499999999999993 -5.007785234479621
v 2.838707655283564 -3.500000000000000 -5.351497760018297
v 3.165813115557799 -3.500000000000011 -3.261277296947066
v 3.173514726983530 -3.500000000000002 -5.325077330724947
v 2.832393168939225 -3.499999999999981 -3.257332680969730
v 2.499999999999992 -1.636719947383019 -4.743197083949578
v 2.499999999999994 -1.651482657534858 -4.462277796223383
v 2.500000000000024 -1.315344028885860 -4.299971713575374
v 2.499999999999996 -1.669037097555092 -4.156682452765841
v 2.499999999999996 -1.640410192903211 -4.999069590300024
v 2.500000000000024 -1.661656715048827 -5.247690369564577
v 2.500000000000002 -2.016586885371353 -5.509794687751618
v 2.500000000000009 -2.018596269262967 -5.235209295957170
v 2.500000000000007 -2.468240700296318 -4.157314746377340
v 2.499999999999978 -2.455242349326568 -4.526314650005087
v 2.500000000000000 -1.299798315589727 -5.038593819928409
v 2.500000000000002 -1.303188075132184 -4.572534696321767
v 2.500000000000009 -2.369513614178715 -5.489831834031676
v 2.499999999999996 -3.199884234293096 -4.732839115804519
v 2.500000000000005 -3.197365447309082 -4.343595604985186
v 2.500000000000014 -2.883238902956098 -4.404944450254787
v 2.500000000000014 -2.865612497913531 -4.783873526093216
v 2.499999999999998 -1.467606584582255 -5.636245276390587
v 2.500000000000019 -3.216523674611430 -3.427269378471030
v 2.499999999999980 -2.891331512662286 -4.000879582129966
v 2.500000000000003 -3.208635708410780 -3.906093713884519
v 2.499999999999996 -3.179388036152663 -5.703269804583333
v 2.499999999999996 -3.175170208333578 -5.398123023092159
v 2.500000000000011 -2.063114552955929 -3.971693193023274
v 2.500000000000000 -2.894419203471724 -3.581618817956733
v 2.499999999999995 -2.475900092966734 -3.770548750672766
v 2.500000000000004 -1.397923826683408 -5.439607012571654
v 2.500000000000001 -2.012831221362587 -5.765030375384062
v 2.500000000000004 -3.200614265872062 -5.081298380202270
v 2.500000000000016 -2.021981034247917 -4.945855655607412
v 2.500000000000010 -1.701044693576764 -5.485705374275952
v 2.500000000000027 -1.736489133808810 -5.728829602843026
v 2.500000000000017 -1.333521965432696 -5.246740583444264
v 2.500000000000015 -2.049992409504060 -4.318823180932668
v 2.499999999999991 -2.322609726393931 -5.760825187353708
v 2.500000000000015 -2.435784140838363 -4.866659614053640
v 2.499999999999964 -1.291880228226424 -4.816446958777855
v 2.500000000000012 -2.739963351209850 -5.734723168489735
v 2.500000000000024 -2.407624976543557 -5.188820197911729
v 2.500000000000004 -2.031580811933202 -4.640507070001945
v 2.499999999999994 -2.850207780877069 -5.117631987495290
v 2.499999999999993 -2.823826170826958 -5.427763712189181
v 2.138357183325721 -2.252723696085466 -6.000000000000040
v 3.778674472312856 -2.259638040072817 -5.999999999999987
v 1.772051789499161 -3.937074127625495 -5.999999999999972
v 2.151483865726339 -3.890458831285535 -5.999999999999973
v 4.724637060833265 -2.257921272460811 -5.999999999999979
v 4.718749470497477 -3.273201797078615 -5.999999999999986
v 4.738045419603288 -2.710171663625864 -6.000000000000014
v 4.735551296379557 -2.476224939197564 -6.000000000000014
v 1.381599168283762 -2.579679574677960 -5.999999999999929
v 2.191602288883425 -3.116059651381073 -6.000000000000020
v 4.029033307493689 -3.970522019393759 -6.000000000000012
v 4.013609380083109 -3.606120448315572 -6.000000000000011
v 3.748700251565515 -2.710769227672458 -5.999999999999996
v 1.815346771886972 -3.496248281614410 -6.000000000000007
v 2.753855747064408 -4.403746370253703 -5.999999999999996
v 4.358441105935225 -3.635690834534254 -5.999999999999992
v 1.767076986313693 -2.578228798069727 -6.000000000000091
v 4.675160899879832 -4.023498833447205 -6.000000000000004
v 1.383793861737275 -3.970798537198916 -6.000000000000014
v 3.706148105420583 -4.440437853178809 -6.000000000000050
v 1.793619244895097 -3.038399374771169 -6.000000000000005
v 3.762371044709980 -2.472620921351868 -5.999999999999963
v 3.077097809719277 -4.407724766773843 -5.999999999999979
v 4.672763767030954 -4.495280556000722 -6.000000000000021
v 1.385959673150270 -3.025959059963716 -5.999999999999939
v 4.682048935915301 -3.614268980412755 -5.999999999999970
v 3.748119298751924 -3.256463595984318 -6.000000000000005
v 2.776030427311678 -3.872186818829596 -5.999999999999993
v 4.413792140955181 -2.714920827969438 -5.999999999999970
v 4.727934425843276 -2.975930195071456 -5.999999999999985
v 3.436900102338591 -3.896189790657192 -5.999999999999986
v 2.090247169859156 -4.423926059207243 -5.999999999999989
v 2.427204193047968 -4.407365675026014 -5.999999999999989
v 2.467484002528324 -3.880392808365105 -5.999999999999989
v 2.145148881770578 -2.617548398778714 -6.000000000000060
v 3.791890928847296 -2.073914589057664 -6.000000000000023
v 3.128164118688258 -3.878503016986327 -5.999999999999988
v 4.713760972292264 -2.070882728791219 -5.999999999999951
v 1.394318893364392 -3.513622111434430 -6.000000000000004
v 4.350002711382809 -4.021827724452175 -5.999999999999986
v 2.179935809585662 -3.498251938084740 -5.999999999999993
v 4.407863123879705 -2.984476008318426 -6.000000000000053
v 1.368136946493254 -4.471053970495484 -5.999999999999957
v 4.050918594611817 -2.989510179270759 -6.000000000000022
v 4.019736820651035 -4.461532619715232 -6.000000000000000
v 4.346026932281276 -4.484518630850271 -6.000000000000000
v 1.378898034126450 -2.236671519926855 -6.000000000000151
v 3.747873229066029 -2.979307300532980 -6.000000000000021
v 1.735247095337219 -4.449338111399392 -6.000000000000012
v 4.036340427800259 -3.287794513216601 -6.000000000000010
v 4.092132593208634 -2.069027965888296 -6.000000000000007
v 4.409938375377513 -2.067214370609897 -5.999999999999966
v 3.718288916044629 -3.924781380892533 -6.000000000000007
v 3.749560452270812 -3.554043262949169 -6.000000000000006
v 1.761011521045478 -2.237136344345987 -6.000000000000188
v 4.381933131298418 -3.293374240193448 -5.999999999999973
v 3.395682355208884 -4.418621330376403 -6.000000000000016
v 4.075472306397317 -2.467067262315030 -6.000000000000028
v 4.062775978124453 -2.715772897378159 -5.999999999999980
v 4.084765257061767 -2.248547316373081 -5.999999999999893
v 4.410074651628849 -2.247600730109129 -5.999999999999993
v 4.413788095740243 -2.466097698748133 -5.999999999999920
v 4.417047237206024 -1.739580337827210 -5.963581188425376
v 4.102967631206742 -1.743904221535880 -5.963101950676740
v 4.723161574854710 -1.296445685413322 -5.704222571225701
v 4.716156734529592 -1.572921866756871 -5.900340989506602
v 4.722780341489603 -1.187662149175426 -5.576853669768825
v 4.107479780157429 -1.041485985755984 -5.273602170277359
v 4.720728081991789 -1.425673935257755 -5.814458568732767
v 4.107011565942134 -1.588866744647348 -5.910013916067459
v 4.113061500819406 -1.435628736726702 -5.823542292993981
v 3.801449079371130 -1.088529823094990 -5.408966908665761
v 3.805332862330893 -1.290915390465154 -5.703813610580804
v 4.115726919287787 -1.179441336333841 -5.569057343412636
v 4.110640781509905 -1.093536437327266 -5.419521830061045
v 3.805167254808362 -1.434429156316275 -5.823679504798759
v 3.804135087476022 -1.171957818443903 -5.558957642921584
v 4.431990796455040 -1.099014204950764 -5.429893801149795
v 4.427090057548108 -1.582163288768368 -5.906510872079681
v 4.439170438304381 -1.431251068743705 -5.820334368456171
v 4.442087410327342 -1.182968537369081 -5.574245710881778
v 4.117314962236224 -1.295694781513254 -5.707650889663745
v 3.802973561725572 -1.584762936096007 -5.908950559796827
v 4.445275107524949 -1.296550022316461 -5.708430196430570
v 4.718432660729944 -1.008913106180719 -5.122438512496871
v 3.796607978675202 -1.906359799800009 -5.993412654581323
v 4.419480716424245 -1.010048964578513 -5.132851619203651
v 4.101602550448182 -1.011719915899389 -5.125430835320184
v 3.790764826903406 -1.007094121456179 -5.099991846393934
v 4.711624439312114 -1.900928884784514 -5.992139952845918
v 4.716643546250015 -1.040519860586567 -5.280398239135228
v 3.799963447047801 -1.741757514983258 -5.965440683796089
v 4.412443852027282 -1.901356341900125 -5.992205331583872
v 4.097793146847025 -1.904685828573808 -5.991804337723852
v 3.797664441311838 -1.034251220011398 -5.256013728847709
v 4.713532998020019 -1.733641271035939 -5.960445138113053
v 4.719275279659122 -1.101307598385585 -5.434096261417018
v 4.423292710067016 -1.041713324149149 -5.282837622397488
v 4.747103658973479 -1.000000000000000 -4.644012411587312
v 3.751552120184539 -1.000000000000000 -4.626860336110826
v 3.734146845871492 -1.000000000000000 -4.321329051526504
v 4.762815724494038 -1.000000000000000 -4.328276751523368
v 4.739704669485596 -0.999999999999998 -4.806697625282667
v 3.757643510169373 -1.000000000000000 -4.785736748102585
v 4.434408075495710 -0.999999999999999 -4.677586233436611
v 4.753059214090376 -1.000000000000000 -4.484015923680630
v 3.744242111647465 -1.000000000000000 -4.471243060231906
v 3.777919554282972 -1.000000000000000 -4.942916575611699
v 4.725201517372275 -1.000000000000002 -4.963829982440708
v 4.094661058143940 -1.000000000000005 -4.978037623757777
v 4.420615908716454 -0.999999999999994 -4.984718636027814
v 4.028598878838109 -0.999999999999999 -4.333488187503827
v 4.460251640282601 -1.000000000000002 -4.336452900945324
v 4.053447036796385 -1.000000000000000 -4.502208012306099
v 4.443234125516092 -1.000000000000001 -4.507174840544950
v 4.426219985565243 -1.000000000000000 -4.838786636261197
v 4.065903942025981 -1.000000000000000 -4.672521427422957
v 4.085220655490938 -1.000000000000000 -4.832405083500532
v 2.161773253871123 -1.357155776085316 -5.765565158986068
v 1.767973573966119 -1.778923932898183 -5.972610103570529
v 1.773341235034939 -1.037585953831162 -5.262128221365915
v 1.387466445605380 -1.369270184329118 -5.771787187386325
v 2.143747330828917 -1.769480280426599 -5.969783744132746
v 1.383838156701073 -1.098063657365083 -5.428034413444572
v 1.792275246266561 -1.376940825663806 -5.780605740025962
v 1.779483921298278 -1.573576654692256 -5.902067634760531
v 1.387652559375706 -1.205936803066209 -5.603424294130665
v 1.792537449614138 -1.215547510553046 -5.618318989741544
v 1.382394123497836 -1.565688475688645 -5.898662341550175
v 1.765632085009042 -1.007019456350811 -5.081755060619109
v 2.135032617328523 -1.005883175210941 -5.080717860428267
v 2.139086843234987 -1.999181043491289 -5.999935026099531
v 2.142821454383517 -1.036028685763161 -5.265714338665131
v 1.380793529799939 -1.005307308251438 -5.071083431715070
v 2.152755089946769 -1.106624861881390 -5.443925998901952
v 1.760851282569453 -1.996040246293593 -5.999731807656826
v 2.153197967777325 -1.551284377740613 -5.890017203871768
v 1.379530955758506 -1.995325762840986 -5.999671826613526
v 1.787311971620241 -1.102776998556842 -5.437471677080772
v 1.381000075483551 -1.774109428342764 -5.972739665031641
v 2.160558391292533 -1.210875976115363 -5.611435482002563
v 1.382800504718698 -1.033140867276643 -5.252412567920379
v 4.999999999999939 -2.863226994916114 -5.374508460317314
v 4.999999999999989 -1.242192252943322 -5.068070792962456
v 5.000000000000007 -1.516922951368215 -5.206262007786830
v 4.999999999999991 -2.697170999364363 -3.625862725318001
v 5.000000000000039 -3.147652571186078 -4.511644864659281
v 4.999999999999999 -2.084144821674843 -5.679813061308072
v 4.999999999999995 -4.022352578669212 -2.902245422162675
v 5.000000000000071 -3.196384761062061 -4.177169783031554
v 4.999999999999956 -3.553697408646059 -5.367042742860058
v 5.000000000000041 -2.862290755074307 -4.301474386199825
v 4.999999999999910 -4.510843042639934 -4.922192817170231
v 5.000000000000000 -1.920590775437711 -5.426619440423818
v 5.000000000000000 -1.195094264746920 -4.406152751154034
v 5.000000000000073 -2.974994720928606 -3.474102600643485
v 4.999999999999968 -4.017078631576079 -5.674469375190721
v 5.000000000000087 -2.443249405380691 -5.690521873877143
v 4.999999999999947 -3.273287506142749 -3.286749041679788
v 4.999999999999966 -3.132308948915089 -4.800235085087416
v 5.000000000000007 -4.473343004223675 -2.783241506739387
v 4.999999999999993 -1.738270619676528 -4.219763707465882
v 5.000000000000036 -1.323526707619607 -5.415520532560976
v 4.999999999999959 -1.564894858520310 -5.629648469624978
v 5.000000000000002 -4.517263518899865 -4.544809643092820
v 4.999999999999908 -3.645177925992567 -3.562527682387200
v 5.000000000000053 -3.646606391507758 -3.077255005305535
v 4.999999999999962 -2.452549668968560 -4.090131953482874
v 4.999999999999989 -4.500964972358284 -5.643629081392676
v 5.000000000000118 -4.071743460337423 -3.405089865550503
v 4.999999999999954 -2.604397428001771 -5.384523464600182
v 5.000000000000007 -3.551767515399765 -4.392864031204059
v 5.000000000000004 -2.233184014492415 -5.432009044905341
v 4.999999999999982 -2.283519317947025 -4.116755602513576
v 5.000000000000009 -1.384011859109252 -5.594318345092779
v 5.000000000000018 -3.244303764088681 -3.759876962751356
v 4.999999999999974 -2.142618759973542 -4.127393050228489
v 5.000000000000055 -4.513014521396229 -3.273842550820874
v 4.999999999999975 -1.219542617628270 -4.901949249194882
v 5.000000000000005 -1.846944710527933 -3.987707345201773
v 5.000000000000004 -1.714170658775232 -4.038988943144416
v 5.000000000000057 -1.274993820255054 -5.239466782445262
v 4.999999999999978 -4.063368631367953 -3.844683959124277
v 4.999999999999987 -2.257092772441619 -5.682393321140482
v 5.000000000000031 -1.914493636088006 -5.676702341074739
v 5.000000000000068 -2.924001241222140 -5.694866771768474
v 5.000000000000081 -3.523997833316992 -5.045137044151761
v 4.999999999999979 -2.665472638938947 -5.698738817908952
v 5.000000000000020 -1.203876452136558 -4.737250594546955
v 5.000000000000020 -1.199668873272897 -4.572449882663707
v 5.000000000000072 -4.521453033063241 -4.147209746352161
v 5.000000000000072 -4.526262532870887 -3.728152371790361
v 4.999999999999929 -1.430199506824995 -4.530702568324187
v 4.999999999999979 -4.015498285263368 -5.330002718275569
v 4.999999999999990 -1.743863778703106 -5.407166084526975
v 5.000000000000085 -3.523476372158961 -4.726655414232523
v 5.000000000000108 -3.138367023229160 -5.080275296060929
v 5.000000000000028 -2.401228507140307 -5.409702968726316
v 4.999999999999955 -1.435510413787067 -4.708909126009617
v 4.999999999999968 -4.025185021869865 -4.629172562484037
v 4.999999999999997 -2.827257477694487 -4.849011687197783
v 4.999999999999798 -1.609022454455192 -4.690739723012941
v 4.999999999999957 -3.173655844492196 -5.379293900176737
v 1.000000000000005 -4.267386859177053 -2.323725610913666
v 5.000000000000313 -2.833168350644963 -4.599030039724061
v 4.999999999999998 -4.014859444715670 -4.982521038304649
v 4.999999999999973 -3.574831729009495 -5.690927222944966
v 5.000000000000121 -1.479204956326241 -5.037024439419516
v 4.999999999999974 -1.448643869648478 -4.875644754907082
v 4.999999999999854 -3.599573301032190 -4.007878534080491
v 5.000000000000000 -2.626344018426534 -4.883681179681600
v 4.999999999999838 -2.270425577322586 -4.324714173535279
v 4.999999999999979 -2.136840402109969 -3.875556093236687
v 4.999999999999979 -1.988882440016942 -3.921132506407228
v 4.999999999999990 -2.079372076610828 -5.435002785547405
v 5.000000000000004 -2.614692889268099 -4.647816597059144
v 5.000000000000009 -2.394870664935660 -4.367939443029751
v 4.999999999999889 -1.740487953102229 -5.663801895331970
v 4.999999999999904 -1.545434919968042 -5.403781860898569
v 5.000000000000030 -1.589707575566583 -4.268226805697330
v 4.999999999999968 -4.506988103397665 -5.287147554366884
v 4.999999999999978 -1.403877412932463 -4.340504612544851
v 4.999999999999974 -2.008911890486223 -4.152546907742002
v 4.999999999999974 -1.876071550836840 -4.176969508508216
v 5.000000000000004 -2.293668659354624 -3.818752971483567
v 5.000000000000019 -1.567459311364768 -4.082946598690874
v 5.000000000000068 -2.828373518660209 -5.099943383595468
v 5.000000000000153 -2.660818269947649 -4.030667438235527
v 5.000000000000225 -2.922109879908772 -3.917297835614197
v 4.999999999999987 -4.043337467790724 -4.255876882078559
v 5.000000000000002 -1.384470624468925 -4.152892297605823
v 4.999999999999994 -1.195205517776970 -4.247021997295543
v 5.000000000000092 -3.222764853724520 -5.697497661767015
v 4.999999999999979 -2.484255308053961 -3.717478320410734
v 1.759511428870023 -1.000000000000004 -4.694497312725631
v 2.124891740991464 -0.999999999999979 -4.687155689889578
v 1.378646321685511 -1.000000000000008 -4.682292343389094
v 2.123408244276848 -0.999999999999983 -4.437225582079251
v 1.758401656758240 -0.999999999999995 -4.447842366612192
v 2.128388812472469 -0.999999999999996 -4.896975626267380
v 1.378934559522057 -1.000000000000036 -4.888890545198901
v 1.761609429598574 -1.000000000000055 -4.899410043245917
v 1.378424350359019 -1.000000000000007 -4.445203572701233
v 1.778888728388568 -2.832411514765224 -3.120389695844155
v 4.397951024098919 -2.819983701092891 -3.126976462646792
v 4.428057079142740 -2.587805249757133 -3.287018982377845
v 1.764262888363908 -2.455473784081645 -3.377091071524253
v 4.052137918096035 -2.619002262407015 -3.267363745674498
v 4.432560177136843 -2.361726206471483 -3.440704396502603
v 4.017961798296403 -2.402137792731994 -3.411445274130678
v 4.459091942808437 -2.192705369050023 -3.541115119990955
v 4.488247368058435 -2.025752226839058 -3.639638488568775
v 4.517402793308432 -1.858799084628094 -3.738161857146595
v 1.757020215762997 -2.075414829194242 -3.611794593735115
v 1.819887875619669 -3.178856432515335 -2.860496667050686
v 4.367868113561768 -3.087839023653021 -2.930871125097608
v 1.406364937339870 -3.147816757909494 -2.883180785556490
v 4.328719778701670 -3.903313556347610 -2.232744565925397
v 4.009483273960465 -3.910029594448400 -2.226744288163227
v 4.023443881594478 -3.159570124111996 -2.875984449523838
v 4.051528964596061 -2.850241230162450 -3.108892050542016
v 2.753707766330606 -4.226251195747999 -1.906657515665165
v 3.753838882311641 -3.188762024019823 -2.852832538378371
v 2.187234910336785 -3.211897364791003 -2.835103295797613
v 2.427616550803215 -4.229142504833394 -1.903880787246230
v 4.660365853314761 -3.867488245355069 -2.266556859333068
v 4.003288448191100 -3.420616093749882 -2.663263125872751
v 3.751644224095539 -3.460308046874934 -2.631302602936373
v 1.822568568901379 -3.458454435132311 -2.631561147703768
v 4.695532977351137 -3.026749078120095 -2.978915870580313
v 2.183738127371669 -3.473721873444516 -2.618404632586226
v 2.097612615020360 -4.236715158281817 -1.896608233044541
v 1.813771203540801 -3.722309754631441 -2.402455876624439
v 3.989341062366253 -3.657796204140656 -2.459219663522431
v 3.731472709415501 -3.690779961369258 -2.428095056967388
v 3.751064695573094 -2.396936547713196 -3.416639266206128
v 3.751064695573094 -2.208754007219921 -3.534502457734413
v 4.666577217658089 -3.320626691173521 -2.747327135191387
v 4.703969053776152 -2.770832495993850 -3.162671233612797
v 4.732680391905718 -2.537796375985553 -3.323515741296873
v 1.380036929254549 -2.432924489570381 -3.393773307876264
v 1.395894966924402 -2.802635091525151 -3.139026102987014
v 3.732514615193782 -1.874879057611647 -3.729077736840082
v 3.732514615193782 -1.720495090934605 -3.813485673549804
v 4.747417685624567 -2.166621253992813 -3.558802800864432
v 4.761130487710927 -1.998599796726525 -3.658448214375856
v 1.375816756746366 -2.056639041231367 -3.622198257687186
v 3.074430259377039 -4.223589387867944 -1.910169519890641
v 3.383423211069738 -4.219433713915923 -1.917689048031575
v 1.415454484493048 -3.466735546465834 -2.626467542532935
v 1.404714078839824 -3.745032083256072 -2.380917602156558
v 4.663615204513521 -3.611733492802097 -2.498644431794713
v 1.373535194725046 -1.329670216341299 -4.013314741987020
v 4.505272096894119 -1.695847135370489 -3.826227495069449
v 4.472333760422737 -1.535130842835170 -3.908963772357530
v 4.439395423951354 -1.374414550299852 -3.991700049645611
v 2.150099278080958 -2.868448823590446 -3.095756932990300
v 3.763301212823724 -2.616062616322221 -3.271373335163811
v 2.139098778564059 -2.471377355363433 -3.366592180858384
v 1.375898263618824 -4.262685171310502 -1.871490460157759
v 3.995774861910844 -2.207052361385057 -3.535129311915210
v 3.981639109693242 -2.039015279777864 -3.633743161996770
v 3.739936176200970 -2.036431190781173 -3.637211403072397
v 3.967503357475641 -1.870978198170671 -3.732357012078330
v 2.134031113679298 -2.079666970581430 -3.610848921285487
v 2.172461075340326 -3.708592888642921 -2.414369847802833
v 3.455011794229971 -3.704952872965517 -2.415735086844892
v 1.763808206566286 -3.990582364666848 -2.147367773623290
v 1.755609720048629 -1.336574973296645 -4.009445414048576
v 4.764737832589357 -1.847082029991339 -3.743972782717497
v 4.764737832589357 -1.701455585369336 -3.824456633211906
v 3.715175629850544 -1.393514746956676 -3.981832717398528
v 1.742423634638275 -4.247962013137025 -1.885730458526962
v 3.768274351351859 -2.887141164735647 -3.081868033069400
v 4.739683792804466 -2.341692075896581 -3.451451591523890
v 2.132543390428540 -1.698639615194160 -3.825033626092246
v 3.957490161841834 -1.710098474074054 -3.818356513822780
v 3.724293392264602 -1.561633488817315 -3.896917800542883
v 1.754884130277027 -1.699065760996191 -3.824565911078727
v 3.718445784836041 -1.199034391973225 -4.073428437868032
v 2.132492342086574 -1.333485301720899 -4.011468293700659
v 2.461532809198085 -3.950651644683417 -2.187762631821593
v 1.373042452805803 -1.687433246216192 -3.830600655416323
v 4.777403209619807 -1.540619188594998 -3.906672620646304
v 4.791838991451364 -1.377656698594172 -3.989130731433787
v 2.133389312714089 -3.965912714585325 -2.170783258015641
v 3.134487807679269 -3.707575881954712 -2.413904760263194
v 3.417032144171200 -3.938289979111771 -2.197820523928935
v 3.698402684338745 -3.919170731180456 -2.217904880201455
v 2.787067440456150 -3.710217666304322 -2.412021876900347
v 2.479719978140779 -3.713158484674174 -2.408260414310877
v 3.980386077496393 -1.548091592953153 -3.902440556536540
v 4.003787490201742 -1.386066545733116 -3.986540174079336
v 3.695872964073691 -4.214004613062908 -1.924216906071750
v 4.007905591783720 -4.206457671557847 -1.932460475214115
v 1.390512685451732 -4.018854064471103 -2.118990367024900
v 4.663788744378563 -4.148218517176949 -1.992349110901815
v 4.333405635252589 -4.189517172115356 -1.950531226223996
v 3.104294517243987 -3.949118157697538 -2.188253925458619
v 4.456016687235255 -1.188493454048978 -4.078307474030268
v 4.317923334517774 -3.639412957129204 -2.474294380106181
v 4.334477992091394 -3.378602508822543 -2.700429131449916
v 4.787989734175285 -1.197588575052558 -4.075230593329096
v 2.767505882306509 -3.954952300604499 -2.182502334893301
v 4.003575898262568 -1.193706859531556 -4.075752362473477
v 3.500000000000000 -2.223739361934689 -5.282645747223037
v 3.500000000000000 -2.377366272976098 -4.385950004190097
v 3.500000000000000 -2.367734619451868 -5.219610833059815
v 3.500000000000000 -2.581696325018605 -4.925490034953113
v 3.500000000000000 -2.583140601005715 -4.681304749492831
v 3.500000000000000 -2.239675533342445 -4.322532228821355
v 4.669244656660181 -5.000000000000000 -1.800000000000000
v 4.338489313320363 -5.000000000000000 -1.800000000000000
v 1.363341535425397 -4.494784160000000 -1.620287790000000
v 3.688527678315285 -4.494784160000000 -1.620287790000000
v 4.010523910990917 -4.494784160000000 -1.620287790000000
v 4.332520143666549 -4.494784160000000 -1.620287790000000
v 1.699003127462604 -5.000000000000000 -1.800000000000000
v 2.039174317912031 -5.000000000000000 -1.800000000000000
v 1.723294578728943 -4.494784160000000 -1.620287790000000
v 2.066122056115593 -4.494784160000000 -1.620287790000000
v 1.349967163207832 -5.000000000000000 -1.800000000000000
v 3.685903358389219 -5.000000000000000 -1.800000000000000
v 4.012161281814804 -5.000000000000000 -1.800000000000000
v 4.666245224009364 -4.494784160000000 -1.620287790000000
v 2.404977740476864 -4.494784160000000 -1.620287790000000
v 2.729797969145292 -4.494784160000000 -1.620287790000000
v 3.036509405221368 -5.000000000000000 -1.800000000000000
v 3.361158965989403 -5.000000000000000 -1.800000000000000
v 2.377912319211812 -5.000000000000000 -1.800000000000000
v 2.707487843980203 -5.000000000000000 -1.800000000000000
v 3.053374107441542 -4.494784160000000 -1.620287790000000
v 3.370795598411716 -4.494784160000000 -1.620287790000000
v 1.000000000000000 -5.000000000000000 -3.045804117033600
v 1.000000000000000 -5.000000000000000 -2.584097678878799
v 5.000000000000000 -5.000000000000000 -4.870582998067678
v 5.000000000000000 -5.000000000000000 -5.255097945768667
v 1.000000000000000 -5.000000000000000 -4.383118719282450
v 1.000000000000000 -5.000000000000000 -3.953775973019748
v 5.000000000000000 -5.000000000000000 -3.201925308573148
v 5.000000000000000 -5.000000000000000 -3.644065414890076
v 1.000000000000000 -5.000000000000000 -3.502588134388374
v 3.050098500197701 -5.000000000000000 -6.000000000000000
v 3.372497352444102 -5.000000000000000 -6.000000000000000
v 1.711611048069157 -5.000000000000000 -6.000000000000000
v 2.053613226945576 -5.000000000000000 -6.000000000000000
v 1.000000000000000 -5.000000000000000 -5.210386867244051
v 1.000000000000000 -5.000000000000000 -4.802061136368812
v 5.000000000000000 -5.000000000000000 -2.722649756974911
v 3.694899885992460 -5.000000000000000 -6.000000000000000
v 4.017340780997952 -5.000000000000000 -6.000000000000000
v 1.000000000000000 -5.000000000000000 -2.185069289460836
v 5.000000000000000 -5.000000000000000 -5.628297038053999
v 4.339933511873095 -5.000000000000000 -6.000000000000000
v 4.669966755936548 -5.000000000000000 -6.000000000000000
v 1.000000000000000 -5.000000000000000 -5.606859775869095
v 5.000000000000000 -5.000000000000000 -2.255847112748854
v 1.356776297957419 -5.000000000000000 -6.000000000000000
v 2.393236497248409 -5.000000000000000 -6.000000000000000
v 2.722175657515133 -5.000000000000000 -6.000000000000000
v 5.000000000000000 -5.000000000000000 -4.071651454951159
v 5.000000000000000 -5.000000000000000 -4.479233314230131
v 1.000000000000000 -1.094071526873096 -5.416267495210830
v 1.000000000000000 -1.322318607800351 -4.012368327862067
v 1.000000000000000 -3.054219026813056 -6.000000000000000
v 1.000000000000000 -3.533869984433388 -6.000000000000000
v 1.000000000000000 -1.657208286659138 -3.846170581573096
v 1.000000000000000 -2.028811786101967 -3.640795242155951
v 1.000000000000000 -2.606995385355987 -6.000000000000000
v 1.000000000000000 -3.999814629832972 -6.000000000000000
v 1.000000000000000 -3.143931860981182 -2.889565107913906
v 1.000000000000000 -3.476991490811714 -2.613755865007354
v 1.000000000000000 -2.260202462184431 -6.000000000000000
v 1.000000000000000 -2.407381282052437 -3.406270281641884
v 1.000000000000000 -2.780984075063840 -3.154723959917132
v 1.000000000000000 -3.782432370206836 -2.342229604998453
v 1.000000000000000 -1.525759413048830 -5.874941209958880
v 1.000000000000000 -1.189286193241146 -5.580861249958632
v 1.000000000000000 -4.281598860000000 -1.847004425000000
v 1.000000000000000 -4.480030289603371 -6.000000000000000
v 1.000000000000000 -1.994730107017027 -5.999480960828309
v 1.000000000000000 -1.000000000000000 -4.413146315391343
v 1.000000000000000 -1.004787345991540 -5.048606738034181
v 1.000000000000000 -1.759251025283923 -5.966934877975057
v 1.000000000000000 -1.031792139335495 -5.236552513344604
v 1.000000000000000 -1.000000000000000 -4.845895612388714
v 1.000000000000000 -1.000000000000000 -4.638814660383986
v 3.500000000000000 -1.959770458542402 -4.322712236972326
v 3.500000000000000 -1.827752879532153 -4.382994460379862
v 3.500000000000000 -1.672328090731943 -5.057350967426813
v 3.500000000000000 -1.602739050000000 -4.788040912106571
v 3.500000000000000 -1.620764610585727 -4.937067826951342
v 3.500000000000000 -1.907680262262399 -5.260362632042052
v 3.500000000000000 -2.098494752661910 -4.300158207868681
v 3.500000000000000 -2.071265376627647 -5.296979869416766
v 3.500000000000000 -1.632927076743181 -4.626500504971088
v 3.500000000000000 -3.500000000000000 -3.320827453039737
v 3.500000000000000 -3.500000000000000 -3.846273558977868
v 3.500000000000000 -2.708728932909035 -6.000000000000000
v 3.500000000000000 -2.474980466235289 -6.000000000000000
v 3.500000000000000 -2.268409922568003 -6.000000000000000
v 3.500000000000000 -3.208945039050098 -2.833735056878344
v 3.500000000000000 -1.000000000000000 -4.302602244352578
v 3.500000000000000 -1.000000000000000 -4.440053098705156
v 3.500000000000000 -3.500000000000000 -4.965809175381316
v 3.500000000000000 -3.500000000000000 -5.298881149826826
v 3.500000000000000 -2.915461184672614 -3.058571255477631
v 3.500000000000000 -2.618563592200002 -3.269975683992879
v 3.500000000000000 -2.081955591192036 -6.000000000000000
v 3.500000000000000 -3.500000000000000 -5.648871699377669
v 3.500000000000000 -1.027662889339168 -5.222940200902040
v 3.500000000000000 -1.739729725076970 -5.961013156067191
v 3.500000000000000 -3.226454455005821 -6.000000000000000
v 3.500000000000000 -2.952908910011641 -6.000000000000000
v 3.500000000000000 -2.407694302164053 -3.407359140441228
v 3.500000000000000 -2.219511761670777 -3.525222331969513
v 3.500000000000000 -2.035553536644155 -3.638904117763364
v 3.500000000000000 -1.881169569967112 -3.723312054473085
v 3.500000000000000 -1.726785603290070 -3.807719991182807
v 3.500000000000000 -1.572401636613028 -3.892127927892528
v 3.500000000000000 -1.907354003435456 -5.990875165497147
v 3.500000000000000 -1.168075555531881 -5.554719294562302
v 3.500000000000000 -1.079311878454858 -5.388654135258196
v 3.500000000000000 -3.500000000000000 -4.255084011129963
v 3.500000000000000 -3.500000000000000 -4.631819594268466
v 3.500000000000000 -1.420004337333561 -5.811424175876200
v 3.500000000000000 -1.575641484038525 -5.901603732427872
v 3.500000000000000 -1.005691054345492 -5.057782242645190
v 3.500000000000000 -1.387929977214805 -3.981988745893758
v 3.500000000000000 -1.193964988607402 -4.073570067946878
v 3.500000000000000 -1.000000000000000 -4.584745205339328
v 3.500000000000000 -1.000000000000000 -4.741450625420081
v 3.500000000000000 -1.000000000000000 -4.898156045500833
v 2.823841041166999 -3.500000000000000 -6.000000000000000
v 3.155815255610167 -3.500000000000000 -2.599342080000000
v 3.156601102865833 -3.500000000000000 -6.000000000000000
v 2.823145252589033 -3.500000000000000 -2.599342080000000
v 2.500000000000000 -3.500000000000000 -5.372423437925583
v 2.500000000000000 -3.500000000000000 -5.686211718962792
v 2.500000000000000 -3.500000000000000 -4.266970186853461
v 2.500000000000000 -3.500000000000000 -3.316242149346651
v 2.500000000000000 -3.500000000000000 -3.810858006232497
v 2.500000000000000 -3.500000000000000 -4.691811649474760
v 2.500000000000000 -3.500000000000000 -5.034541163563863
v 2.500000000000000 -1.331216790252117 -4.008766097194005
v 2.500000000000000 -3.222476174105927 -2.822838135499896
v 2.500000000000000 -1.684314476271942 -3.830940668034801
v 2.500000000000000 -2.696012711775122 -6.000000000000000
v 2.500000000000000 -2.896474419375220 -3.072090685640807
v 2.500000000000000 -3.131430630652349 -6.000000000000000
v 2.500000000000000 -1.000000000000000 -4.407393635189310
v 2.500000000000000 -1.000000000000000 -4.644416573024738
v 2.500000000000000 -2.288115621966639 -6.000000000000000
v 2.500000000000000 -2.005700977357005 -6.000000000000000
v 2.500000000000000 -2.073349438263632 -3.616767264208173
v 2.500000000000000 -2.478688192187661 -3.362893982115398
v 2.500000000000000 -1.195251455429795 -5.588129943119711
v 2.500000000000000 -1.037748439075519 -5.256187801383567
v 2.500000000000000 -1.760735827467597 -5.967385287810811
v 2.500000000000000 -1.000000000000000 -4.866384354690195
v 2.500000000000000 -1.104064261238957 -5.434962586254775
v 2.500000000000000 -1.006487700196516 -5.065870723455894
v 2.500000000000000 -1.519961524524862 -5.871842173973086
v 5.000000000000000 -3.590635298698208 -6.000000000000000
v 5.000000000000000 -3.266100432592363 -6.000000000000000
v 5.000000000000000 -2.958325370149301 -6.000000000000000
v 5.000000000000000 -2.707552581827814 -6.000000000000000
v 5.000000000000000 -2.474670256877792 -6.000000000000000
v 5.000000000000000 -2.266249997728883 -6.000000000000000
v 5.000000000000000 -4.024634734365363 -6.000000000000000
v 5.000000000000000 -2.079795367641476 -6.000000000000000
v 5.000000000000000 -4.495086807285837 -6.000000000000000
v 5.000000000000000 -1.731681555213803 -5.958571770335108
v 5.000000000000000 -1.100732922468469 -5.428730089789616
v 5.000000000000000 -1.414173681576917 -5.806639080460923
v 5.000000000000000 -1.040357654297217 -5.264789230906906
v 5.000000000000000 -1.902768570593378 -5.990423539767385
v 5.000000000000000 -1.009625528033784 -5.097729623136835
v 5.000000000000000 -1.565226700201655 -5.896036914480044
v 5.000000000000000 -1.188201346365125 -5.579539360187626
v 3.750612677091087 -1.000000000000000 -4.165151390000000
v 4.743242236093282 -1.000000000000000 -4.165151390000000
v 4.475112155332686 -1.000000000000000 -4.165151390000000
v 4.002311726563283 -1.000000000000000 -4.165151390000000
v 5.000000000000000 -1.000000000000000 -4.310623813827855
v 5.000000000000000 -1.000000000000000 -4.456096237655708
v 5.000000000000000 -1.000000000000000 -4.609935117154953
v 5.000000000000000 -1.000000000000000 -4.771473191801311
v 5.000000000000000 -1.000000000000000 -4.933011266447670
v 5.000000000000000 -2.985881888384101 -3.005519610025530
v 5.000000000000000 -2.720445265043103 -3.198807660206490
v 5.000000000000000 -2.509225631153282 -3.341400825049440
v 5.000000000000000 -2.325036251310586 -3.458719705144242
v 5.000000000000000 -2.140846871467889 -3.576038585239044
v 5.000000000000000 -1.988170194204511 -3.663256765642431
v 5.000000000000000 -1.842543749582507 -3.743740616136840
v 5.000000000000000 -1.696917304960504 -3.824224466631249
v 5.000000000000000 -3.584062158449687 -2.525089821050737
v 5.000000000000000 -3.271791910460984 -2.783683216845443
v 5.000000000000000 -3.829848932749176 -2.297710060806475
v 5.000000000000000 -1.548447830914999 -3.905180240329348
v 5.000000000000000 -1.365631887276666 -3.991837290219565
v 5.000000000000000 -1.182815943638333 -4.078494340109782
v 1.381238542145083 -1.000000000000000 -4.165151390000000
v 2.127070132201796 -1.000000000000000 -4.165151390000000
v 1.755420112203899 -1.000000000000000 -4.165151390000000
v 5.000000000000000 -2.471572410000000 -5.134565300000000
v 3.500000000000000 -2.471572410000000 -5.134565300000000
v 3.500000000000000 -2.471572410000000 -4.465434700000000
v 5.000000000000000 -4.068413560000000 -2.073721060000000
v 5.000000000000000 -5.000000000000000 -1.800000000000000
v 1.000000000000000 -4.494784160000000 -1.620287790000000
v 1.000000000000000 -5.000000000000000 -1.800000000000000
v 5.000000000000000 -4.494784160000000 -1.620287790000000
v 5.000000000000000 -5.000000000000000 -6.000000000000000
v 1.000000000000000 -5.000000000000000 -6.000000000000000
v 1.000000000000000 -1.000000000000000 -4.165151390000000
v 5.000000000000000 -1.000000000000000 -4.165151390000000
v 1.000000000000000 -1.292893220000000 -5.707106780000000
v 5.000000000000000 -1.728427590000000 -5.134565300000000
v 3.500000000000000 -1.728427590000000 -4.465434700000000
v 5.000000000000000 -1.728427590000000 -4.465434700000000
v 3.500000000000000 -1.728427590000000 -5.134565300000000
v 3.500000000000000 -3.500000000000000 -2.599342080000000
v 3.500000000000000 -1.000000000000000 -4.165151390000000
v 3.500000000000000 -3.500000000000000 -6.000000000000000
v 3.500000000000000 -1.292893220000000 -5.707106780000000
v 2.500000000000000 -3.500000000000000 -6.000000000000000
v 2.500000000000000 -3.500000000000000 -2.599342080000000
v 2.500000000000000 -1.000000000000000 -4.165151390000000
v 2.500000000000000 -1.292893220000000 -5.707106780000000
v 5.000000000000000 -1.292893220000000 -5.707106780000000
f 53 81 90 1
f 90 1019 820 1
f 820 821 80 1
f 80 14 53 1
f 79 683 19 2
f 19 17 89 2
f 89 335 360 2
f 360 350 79 2
f 88 330 322 3
f 322 327 10 3
f 10 86 46 3
f 46 25 88 3
f 26 28 82 4
f 82 9 73 4
f 73 60 11 4
f 11 1018 26 4
f 84 6 15 5
f 15 61 27 5
f 27 16 52 5
f 52 83 84 5
f 13 45 36 6
f 36 38 15 6
f 84 17 13 6
f 20 22 41 7
f 41 93 8 7
f 8 58 67 7
f 67 85 20 7
f 93 24 68 8
f 68 64 58 8
f 82 257 351 9
f 351 359 91 9
f 91 30 73 9
f 327 906 817 10
f 817 819 86 10
f 60 65 70 11
f 70 682 1018 11
f 91 359 315 12
f 315 332 92 12
f 92 29 31 12
f 31 30 91 12
f 23 56 45 13
f 17 19 23 13
f 71 43 53 14
f 80 87 57 14
f 57 75 71 14
f 38 39 61 15
f 27 76 48 16
f 48 264 357 16
f 357 269 52 16
f 84 83 89 17
f 29 92 74 18
f 74 77 32 18
f 32 37 21 18
f 21 47 29 18
f 683 688 23 19
f 76 33 22 20
f 85 48 76 20
f 37 55 35 21
f 35 59 47 21
f 33 44 34 22
f 34 75 41 22
f 807 675 890 771
f 93 57 87 24
f 87 1020 818 24
f 818 822 68 24
f 32 77 88 25
f 46 81 54 25
f 54 37 32 25
f 669 644 28 26
f 1018 642 669 26
f 61 33 76 27
f 644 686 345 28
f 345 257 82 28
f 47 51 31 29
f 31 51 63 30
f 63 60 73 30
f 61 39 44 33
f 44 49 62 34
f 62 71 75 34
f 55 62 49 35
f 49 40 59 35
f 45 78 72 36
f 72 42 38 36
f 54 43 55 37
f 42 40 39 38
f 40 49 44 39
f 42 66 59 40
f 75 57 93 41
f 72 50 66 42
f 54 81 53 43
f 71 62 55 43
f 56 69 78 45
f 86 90 81 46
f 59 66 51 47
f 85 279 264 48
f 65 60 63 50
f 63 51 66 50
f 72 78 65 50
f 269 331 83 52
f 887 675 807 762
f 64 344 352 58
f 352 354 67 58
f 68 822 905 64
f 905 899 344 64
f 78 69 70 65
f 354 279 85 67
f 687 682 70 69
f 92 332 311 74
f 311 353 77 74
f 353 330 88 77
f 350 694 648 79
f 648 645 683 79
f 821 1020 87 80
f 331 335 89 83
f 819 1019 90 86
f 95 129 118 94
f 118 117 116 94
f 116 189 143 94
f 143 96 95 94
f 97 131 129 95
f 96 157 97 95
f 143 154 136 96
f 136 153 157 96
f 101 102 131 97
f 157 184 101 97
f 183 142 137 98
f 137 141 106 98
f 106 167 99 98
f 99 190 183 98
f 167 125 126 99
f 126 168 190 99
f 158 162 104 100
f 104 140 102 100
f 102 101 103 100
f 103 119 158 100
f 184 186 103 101
f 140 181 131 102
f 186 171 119 103
f 162 124 192 104
f 192 191 140 104
f 109 113 127 105
f 127 853 850 105
f 850 849 123 105
f 123 134 109 105
f 141 135 188 106
f 188 150 167 106
f 108 150 172 107
f 172 155 111 107
f 111 110 121 107
f 121 122 108 107
f 125 167 150 108
f 122 128 125 108
f 110 111 113 109
f 134 112 110 109
f 112 120 121 110
f 155 114 113 111
f 134 133 132 112
f 132 177 120 112
f 114 115 127 113
f 155 163 185 114
f 185 170 115 114
f 170 846 845 115
f 845 853 127 115
f 117 120 177 116
f 177 178 189 116
f 118 128 122 117
f 122 121 120 117
f 129 130 128 118
f 171 848 847 119
f 847 873 158 119
f 849 859 145 123
f 145 133 134 123
f 162 872 852 124
f 852 851 151 124
f 151 182 192 124
f 128 130 126 125
f 130 181 168 126
f 131 181 130 129
f 133 173 144 132
f 144 178 177 132
f 145 169 173 133
f 141 839 842 135
f 842 841 152 135
f 152 187 188 135
f 154 854 855 136
f 855 861 153 136
f 142 834 840 137
f 840 839 141 137
f 156 178 144 138
f 144 173 179 138
f 179 856 857 138
f 857 870 156 138
f 180 824 835 139
f 835 834 142 139
f 142 183 147 139
f 147 174 180 139
f 191 168 181 140
f 189 166 154 143
f 859 858 169 145
f 860 868 165 146
f 165 180 174 146
f 174 182 151 146
f 151 851 860 146
f 183 190 161 147
f 161 182 174 147
f 152 841 830 148
f 830 829 175 148
f 175 185 163 148
f 163 187 152 148
f 176 186 184 149
f 184 157 153 149
f 153 861 862 149
f 862 865 176 149
f 188 187 172 150
f 166 871 854 154
f 172 187 163 155
f 166 189 178 156
f 870 871 166 156
f 873 872 162 158
f 863 846 170 159
f 170 185 175 159
f 175 829 833 159
f 833 1024 863 159
f 866 1026 864 160
f 864 848 171 160
f 171 186 176 160
f 176 865 866 160
f 190 168 191 161
f 191 192 182 161
f 179 173 169 164
f 169 858 867 164
f 867 1027 869 164
f 869 856 179 164
f 868 1022 823 165
f 823 824 180 165
f 850 853 194 193
f 194 226 216 193
f 216 242 218 193
f 218 849 850 193
f 853 845 231 194
f 231 208 226 194
f 229 206 256 195
f 256 897 894 195
f 894 896 244 195
f 244 228 229 195
f 207 241 253 196
f 253 252 232 196
f 232 233 234 196
f 234 250 207 196
f 213 230 198 197
f 198 206 229 197
f 229 228 235 197
f 235 203 213 197
f 230 220 199 198
f 199 200 206 198
f 220 222 211 199
f 211 201 200 199
f 201 209 251 200
f 251 256 206 200
f 211 879 878 201
f 878 875 209 201
f 248 224 221 202
f 221 205 204 202
f 204 223 225 202
f 225 249 248 202
f 243 250 234 203
f 234 233 213 203
f 235 246 243 203
f 205 222 220 204
f 220 230 223 204
f 221 882 886 205
f 886 885 222 205
f 210 215 241 207
f 250 219 210 207
f 227 688 639 699
f 887 883 224 208
f 224 248 226 208
f 875 1028 893 209
f 893 898 251 209
f 876 877 215 210
f 219 880 876 210
f 222 885 879 211
f 246 235 228 212
f 228 244 247 212
f 247 238 255 212
f 255 254 246 212
f 233 223 230 213
f 881 891 236 214
f 236 245 240 214
f 240 241 215 214
f 215 877 881 214
f 226 248 249 216
f 249 252 242 216
f 859 849 218 217
f 218 242 239 217
f 239 240 245 217
f 245 858 859 217
f 250 243 237 219
f 237 884 880 219
f 224 883 882 221
f 233 232 225 223
f 232 252 249 225
f 227 623 676 687
f 227 699 700 623
f 891 1027 867 236
f 867 858 245 236
f 243 246 254 237
f 254 892 884 237
f 247 874 889 238
f 889 1030 888 238
f 888 895 255 238
f 242 252 253 239
f 253 241 240 239
f 896 874 247 244
f 898 897 256 251
f 255 895 892 254
f 345 278 273 257
f 273 347 351 257
f 319 355 348 258
f 348 901 1034 258
f 1034 904 259 258
f 259 362 319 258
f 904 906 327 259
f 327 322 362 259
f 349 261 268 260
f 268 320 284 260
f 284 332 315 260
f 315 359 349 260
f 266 310 292 261
f 292 293 268 261
f 349 347 266 261
f 299 360 335 262
f 335 331 358 262
f 358 296 263 262
f 263 275 299 262
f 338 265 275 263
f 296 325 338 263
f 279 287 271 264
f 271 285 357 264
f 321 673 1033 265
f 1033 283 275 265
f 338 328 321 265
f 282 274 310 266
f 347 273 282 266
f 293 302 300 267
f 300 305 307 267
f 307 288 320 267
f 320 268 293 267
f 357 285 294 269
f 294 358 331 269
f 283 633 695 270
f 695 694 350 270
f 350 360 299 270
f 299 275 283 270
f 287 303 281 271
f 281 286 285 271
f 287 279 354 272
f 354 352 309 272
f 309 346 312 272
f 312 303 287 272
f 278 1031 282 273
f 276 291 337 274
f 337 339 310 274
f 282 1031 276 274
f 679 680 291 276
f 1031 616 679 276
f 324 318 356 277
f 356 902 903 277
f 903 901 348 277
f 348 355 324 277
f 625 666 1031 278
f 345 686 625 278
f 340 313 346 280
f 346 309 363 280
f 363 900 1032 280
f 1032 907 340 280
f 303 301 289 281
f 289 306 286 281
f 1033 691 633 283
f 320 288 342 284
f 342 311 332 284
f 286 304 294 285
f 306 308 304 286
f 307 290 295 288
f 295 361 342 288
f 301 326 297 289
f 297 323 306 289
f 307 305 298 290
f 298 333 336 290
f 336 341 295 290
f 680 670 673 291
f 673 321 337 291
f 310 339 334 292
f 334 302 293 292
f 304 296 358 294
f 341 343 361 295
f 304 308 325 296
f 326 298 305 297
f 305 300 323 297
f 326 316 333 298
f 302 329 323 300
f 303 312 317 301
f 317 316 326 301
f 334 314 329 302
f 323 329 308 306
f 329 314 325 308
f 352 344 363 309
f 342 361 353 311
f 346 313 317 312
f 340 356 318 313
f 318 316 317 313
f 328 338 325 314
f 334 339 328 314
f 318 324 333 316
f 341 336 355 319
f 362 343 341 319
f 328 339 337 321
f 330 343 362 322
f 355 336 333 324
f 353 361 343 330
f 907 902 356 340
f 899 900 363 344
f 349 359 351 347
f 382 900 899 364
f 899 905 387 364
f 387 408 383 364
f 383 411 382 364
f 367 939 922 365
f 922 934 370 365
f 370 389 403 365
f 403 384 367 365
f 374 369 380 366
f 380 909 908 366
f 908 1035 913 366
f 913 918 374 366
f 393 944 939 367
f 384 402 393 367
f 820 1019 392 368
f 392 397 414 368
f 414 386 372 368
f 372 821 820 368
f 410 1020 409 369
f 409 391 380 369
f 374 381 410 369
f 934 933 385 370
f 385 378 389 370
f 375 394 406 371
f 406 907 1032 371
f 1032 377 415 371
f 415 373 375 371
f 386 391 409 372
f 409 1020 821 372
f 915 942 375 373
f 415 412 413 373
f 413 914 915 373
f 918 919 381 374
f 942 943 394 375
f 412 415 377 376
f 377 382 411 376
f 411 930 931 376
f 931 940 412 376
f 1032 900 382 377
f 385 937 938 378
f 938 923 399 378
f 399 1034 389 378
f 401 925 924 379
f 924 1037 921 379
f 921 917 397 379
f 397 392 401 379
f 391 935 909 380
f 395 400 410 381
f 919 926 395 381
f 408 928 929 383
f 929 930 411 383
f 403 901 903 384
f 903 902 402 384
f 933 1038 937 385
f 414 916 936 386
f 936 935 391 386
f 905 822 388 387
f 388 396 408 387
f 822 818 400 388
f 400 395 396 388
f 1034 901 403 389
f 904 1034 399 390
f 399 923 932 390
f 932 920 405 390
f 405 906 904 390
f 1019 404 401 392
f 402 406 394 393
f 394 943 944 393
f 926 927 396 395
f 927 928 408 396
f 917 916 414 397
f 819 817 407 398
f 407 912 911 398
f 911 910 404 398
f 404 1019 819 398
f 818 1020 410 400
f 404 910 925 401
f 902 907 406 402
f 920 912 407 405
f 407 817 906 405
f 940 941 413 412
f 941 1036 914 413
f 417 947 945 416
f 945 1039 950 416
f 950 949 426 416
f 426 428 417 416
f 921 1037 947 417
f 428 917 921 417
f 423 419 420 418
f 420 951 953 418
f 953 952 429 418
f 429 427 423 418
f 935 936 421 419
f 421 422 420 419
f 423 909 935 419
f 422 954 951 420
f 936 916 424 421
f 424 425 422 421
f 425 955 954 422
f 427 908 909 423
f 916 917 428 424
f 428 426 425 424
f 426 949 955 425
f 429 948 946 427
f 946 1035 908 427
f 952 1040 948 429
f 469 459 434 430
f 434 440 466 430
f 466 441 431 430
f 431 463 469 430
f 441 432 433 431
f 433 453 463 431
f 441 963 962 432
f 962 1041 956 432
f 956 958 433 432
f 958 966 453 433
f 459 437 435 434
f 435 462 440 434
f 437 436 460 435
f 460 456 462 435
f 442 464 457 436
f 457 461 460 436
f 437 468 442 436
f 459 465 468 437
f 449 445 439 438
f 439 469 463 438
f 463 453 455 438
f 455 454 449 438
f 445 446 465 439
f 465 459 469 439
f 462 969 973 440
f 973 971 466 440
f 466 971 963 441
f 471 467 464 442
f 468 470 471 442
f 954 955 458 443
f 458 470 446 443
f 446 445 444 443
f 444 951 954 443
f 445 449 450 444
f 450 953 951 444
f 470 468 465 446
f 461 970 974 447
f 974 1042 968 447
f 968 972 456 447
f 456 460 461 447
f 952 953 450 448
f 450 449 454 448
f 454 960 957 448
f 957 1040 952 448
f 950 1039 961 451
f 961 959 467 451
f 467 471 452 451
f 452 949 950 451
f 471 470 458 452
f 458 955 949 452
f 966 967 455 453
f 455 967 960 454
f 972 969 462 456
f 464 964 965 457
f 965 970 461 457
f 467 959 964 464
f 506 488 526 472
f 526 607 603 472
f 603 965 964 472
f 964 959 506 472
f 507 522 531 473
f 531 529 493 473
f 493 911 912 473
f 912 920 507 473
f 475 503 520 474
f 520 514 490 474
f 490 510 485 474
f 485 512 475 474
f 505 504 503 475
f 512 1039 505 475
f 509 982 980 476
f 980 979 479 476
f 479 533 532 476
f 532 523 509 476
f 501 977 976 477
f 976 975 497 477
f 497 487 527 477
f 527 513 501 477
f 479 979 978 478
f 978 977 501 478
f 501 513 500 478
f 500 533 479 478
f 496 876 880 480
f 880 884 518 480
f 518 526 488 480
f 488 492 496 480
f 512 485 492 481
f 492 488 506 481
f 506 959 961 481
f 961 1039 512 481
f 483 487 511 482
f 511 517 516 482
f 516 491 524 482
f 524 525 483 482
f 521 527 487 483
f 525 498 521 483
f 493 529 530 484
f 530 515 519 484
f 519 925 910 484
f 910 911 493 484
f 510 496 492 485
f 494 854 871 486
f 871 870 504 486
f 504 505 499 486
f 499 508 494 486
f 497 489 511 487
f 497 975 981 489
f 981 983 495 489
f 495 517 511 489
f 514 891 881 490
f 881 877 510 490
f 516 862 861 491
f 861 855 528 491
f 528 502 524 491
f 528 855 854 494
f 508 502 528 494
f 983 1026 866 495
f 866 865 517 495
f 510 877 876 496
f 519 515 521 498
f 525 1037 924 498
f 924 925 519 498
f 505 1039 945 499
f 945 947 508 499
f 513 515 530 500
f 530 529 533 500
f 508 947 1037 502
f 1037 525 524 502
f 504 870 857 503
f 857 856 520 503
f 557 565 522 507
f 920 932 557 507
f 561 988 982 509
f 523 564 561 509
f 527 521 515 513
f 520 856 869 514
f 869 1027 891 514
f 517 865 862 516
f 884 892 609 518
f 609 607 526 518
f 565 564 523 522
f 523 532 531 522
f 531 532 533 529
f 550 537 567 534
f 567 561 564 534
f 564 565 535 534
f 535 541 550 534
f 565 557 563 535
f 563 554 541 535
f 538 991 1043 536
f 1043 986 540 536
f 540 551 555 536
f 555 552 538 536
f 540 986 990 537
f 990 984 567 537
f 550 551 540 537
f 568 985 991 538
f 552 549 568 538
f 569 549 546 539
f 546 543 566 539
f 566 560 559 539
f 559 558 569 539
f 542 551 550 541
f 554 547 542 541
f 553 555 551 542
f 547 544 553 542
f 546 545 548 543
f 548 933 934 543
f 934 922 566 543
f 548 545 553 544
f 547 937 1038 544
f 1038 933 548 544
f 546 549 552 545
f 552 555 553 545
f 554 938 937 547
f 569 562 568 549
f 563 923 938 554
f 562 569 558 556
f 558 582 580 556
f 580 1000 989 556
f 989 987 562 556
f 932 923 563 557
f 559 581 582 558
f 560 579 581 559
f 566 922 939 560
f 939 944 579 560
f 567 984 988 561
f 987 985 568 562
f 574 587 576 570
f 576 586 577 570
f 577 997 998 570
f 998 999 574 570
f 588 589 575 571
f 575 943 942 571
f 942 915 578 571
f 578 585 588 571
f 578 915 914 572
f 914 1036 992 572
f 992 995 583 572
f 583 585 578 572
f 577 586 584 573
f 584 994 993 573
f 993 1029 996 573
f 996 997 577 573
f 580 582 587 574
f 999 1000 580 574
f 589 581 579 575
f 579 944 943 575
f 587 589 588 576
f 588 585 586 576
f 589 587 582 581
f 995 994 584 583
f 584 586 585 583
f 608 597 596 590
f 596 599 612 590
f 612 968 1042 590
f 1042 974 608 590
f 607 609 611 591
f 611 600 597 591
f 597 608 594 591
f 594 603 607 591
f 601 602 604 592
f 604 606 610 592
f 610 595 613 592
f 613 605 601 592
f 600 888 1030 593
f 1030 889 598 593
f 598 599 596 593
f 596 597 600 593
f 608 974 970 594
f 970 965 603 594
f 610 599 598 595
f 598 889 874 595
f 874 896 613 595
f 610 606 612 599
f 611 895 888 600
f 713 711 602 601
f 605 712 713 601
f 973 969 604 602
f 711 971 973 602
f 969 972 606 604
f 613 896 894 605
f 894 897 712 605
f 972 968 612 606
f 892 895 611 609
f 642 1018 698 614
f 698 668 674 614
f 674 704 657 614
f 657 659 642 614
f 989 1000 650 615
f 650 680 679 615
f 679 616 653 615
f 653 987 989 615
f 1031 666 690 616
f 690 634 653 616
f 705 1003 1002 617
f 1002 1001 627 617
f 627 700 699 617
f 699 639 705 617
f 676 623 621 618
f 621 681 643 618
f 643 667 631 618
f 631 672 676 618
f 656 625 686 619
f 686 644 655 619
f 655 980 982 619
f 982 988 656 619
f 638 1009 1011 620
f 1011 1021 632 620
f 632 649 641 620
f 641 637 638 620
f 623 700 647 621
f 647 637 681 621
f 674 668 658 622
f 658 677 665 622
f 665 628 678 622
f 678 704 674 622
f 231 845 846 675
f 675 846 863 890
f 677 671 636 624
f 636 873 847 624
f 847 848 692 624
f 692 665 677 624
f 656 689 666 625
f 997 996 703 626
f 703 702 693 626
f 693 664 661 626
f 661 998 997 626
f 1001 1010 630 627
f 630 647 700 627
f 665 692 640 628
f 640 983 981 628
f 981 975 678 628
f 655 644 669 629
f 669 642 659 629
f 659 978 979 629
f 979 980 655 629
f 1010 1009 638 630
f 638 637 647 630
f 667 658 668 631
f 668 698 672 631
f 1021 868 860 632
f 860 851 649 632
f 691 697 652 633
f 652 651 695 633
f 985 987 653 634
f 690 635 646 634
f 646 991 985 634
f 690 666 689 635
f 689 984 990 635
f 990 986 646 635
f 671 701 662 636
f 662 872 873 636
f 641 654 681 637
f 645 696 705 639
f 675 887 208 231
f 688 683 645 639
f 692 848 864 640
f 864 1026 983 640
f 649 663 654 641
f 681 654 701 643
f 701 671 667 643
f 648 684 696 645
f 986 1043 991 646
f 694 685 684 648
f 851 852 663 649
f 1000 999 660 650
f 660 670 680 650
f 652 1008 1007 651
f 1007 1006 685 651
f 685 694 695 651
f 697 1012 1008 652
f 663 662 701 654
f 988 984 689 656
f 704 976 977 657
f 977 978 659 657
f 667 671 677 658
f 999 998 661 660
f 661 664 670 660
f 663 852 872 662
f 693 691 1033 664
f 1033 673 670 664
f 682 687 676 672
f 698 1018 682 672
f 975 976 704 678
f 685 1006 1005 684
f 1005 1004 696 684
f 693 702 697 691
f 1004 1003 705 696
f 702 1013 1012 697
f 703 1014 1013 702
f 996 1029 1014 703
f 710 709 707 706
f 707 711 713 706
f 713 712 708 706
f 708 714 710 706
f 963 971 711 707
f 709 962 963 707
f 712 897 898 708
f 898 893 714 708
f 1016 1041 962 709
f 710 1017 1016 709
f 714 1015 1017 710
f 893 1028 1015 714
f 726 735 768 715
f 768 770 718 715
f 718 752 753 715
f 753 728 726 715
f 717 719 732 716
f 732 731 727 716
f 727 741 750 716
f 750 751 717 716
f 720 721 719 717
f 751 786 720 717
f 770 776 725 718
f 725 758 752 718
f 721 747 769 719
f 769 785 732 719
f 722 772 721 720
f 786 756 722 720
f 772 748 747 721
f 723 773 772 722
f 756 757 723 722
f 724 775 773 723
f 757 781 724 723
f 765 788 775 724
f 781 782 765 724
f 776 787 790 725
f 790 794 758 725
f 740 742 735 726
f 728 761 740 726
f 731 738 813 727
f 813 749 741 727
f 753 886 882 728
f 882 883 761 728
f 812 745 730 729
f 730 806 809 729
f 809 808 737 729
f 737 763 812 729
f 745 746 800 730
f 800 805 806 730
f 732 785 734 731
f 734 739 738 731
f 759 810 815 733
f 815 793 736 733
f 736 837 838 733
f 838 843 759 733
f 785 918 913 734
f 913 1035 739 734
f 742 1040 957 735
f 957 960 768 735
f 793 797 743 736
f 743 832 837 736
f 808 1021 1011 737
f 1011 1009 763 737
f 739 746 745 738
f 745 812 813 738
f 1035 778 746 739
f 744 777 742 740
f 761 762 744 740
f 749 1010 1001 741
f 1001 1002 750 741
f 777 802 1040 742
f 797 779 784 743
f 784 831 832 743
f 779 797 777 744
f 762 807 779 744
f 778 799 800 746
f 748 927 926 747
f 926 919 769 747
f 774 928 927 748
f 772 773 774 748
f 813 812 763 749
f 763 1009 1010 749
f 1002 1003 751 750
f 1003 1004 786 751
f 758 879 885 752
f 885 886 753 752
f 755 930 929 754
f 929 928 774 754
f 774 773 775 754
f 775 788 755 754
f 789 931 930 755
f 788 803 789 755
f 786 1004 1005 756
f 1005 1006 757 756
f 1006 1007 781 757
f 794 878 879 758
f 760 799 810 759
f 843 844 760 759
f 805 800 799 760
f 844 826 805 760
f 883 887 762 761
f 227 687 69 56
f 794 790 780 764
f 780 1017 1015 764
f 1015 1028 875 764
f 875 878 794 764
f 766 803 788 765
f 782 795 766 765
f 767 804 803 766
f 795 796 767 766
f 811 816 804 767
f 796 814 811 767
f 960 967 770 768
f 919 918 785 769
f 967 966 776 770
f 784 779 807 771
f 688 227 56 23
f 890 1023 825 771
f 825 831 784 771
f 966 958 787 776
f 797 793 802 777
f 1035 946 798 778
f 798 810 799 778
f 790 787 792 780
f 792 1016 1017 780
f 1007 1008 782 781
f 1008 1012 795 782
f 791 941 940 783
f 940 931 789 783
f 789 803 804 783
f 804 816 791 783
f 958 956 792 787
f 992 1036 941 791
f 816 995 992 791
f 956 1041 1016 792
f 815 801 802 793
f 1012 1013 796 795
f 1013 1014 814 796
f 946 948 801 798
f 801 815 810 798
f 948 1040 802 801
f 826 827 806 805
f 827 828 809 806
f 809 828 836 808
f 836 1025 1021 808
f 994 995 816 811
f 814 993 994 811
f 1014 1029 993 814
f 1022 1025 836 823
f 836 828 824 823
f 828 827 835 824
f 1023 1024 833 825
f 833 829 831 825
f 844 840 834 826
f 834 835 827 826
f 830 832 831 829
f 841 837 832 830
f 841 842 838 837
f 842 839 843 838
f 840 844 843 839
f 1024 1023 890 863
f 1021 1025 1022 868
