v 4.417968473051408 -2.461671894733641 -4.456517757445461
v 3.569140079657201 -2.597777822287462 -4.772961943211776
v 4.518777539002858 -2.451224555336302 -5.154672728600898
v 4.078539917803070 -2.450903709723729 -5.153731510812182
v 3.981933440638349 -2.471209912386283 -4.467137254103606
v 4.469636474359572 -2.597797536699561 -4.804315174824541
v 3.954234649949163 -2.163060428868336 -4.306054587840371
v 4.022000436315292 -2.598636521539241 -4.804292561204118
v 4.902724362171553 -2.599840378052482 -4.794711010818371
v 4.357294850660208 -2.125810592144387 -4.301989331624050
v 3.557690835480479 -2.200153928700298 -4.311292473751797
v 5.000000000000034 -1.668293763974291 -4.434186982197130
v 4.242431766791531 -4.170420105297469 -1.975028987063687
v 4.848486905319598 -4.189966984730628 -1.958045039626339
v 1.153237316683075 -4.188177278851668 -1.960019588780856
v 1.711473638507078 -4.942098541846274 -2.118629778883603
v 1.757529648707608 -4.168809947948851 -1.976493691088928
v 2.248937088083344 -4.593856580102665 -1.859350190530914
v 2.241740925082318 -4.949295236540991 -2.132284415050059
v 3.715822717037929 -4.165844447828938 -1.978918106631004
v 2.283505477313268 -4.165092504434135 -1.979584319398345
v 3.231992844768349 -4.162957209728532 -1.981383156624981
v 2.766756244459284 -4.162811050561295 -1.981506387459124
v 1.707882120740324 -4.587976075292737 -1.858192650118322
v 2.748122963309561 -4.951470546262485 -2.136390142346762
v 3.247353080408068 -4.951958518047519 -2.136045954190816
v 3.753533182511944 -4.949119180861871 -2.132062652673275
v 4.283495433025905 -4.941885716707278 -2.118063624110651
v 4.289528627088369 -4.588520171932988 -1.858334053081196
v 2.752514461650927 -4.595624129756196 -1.859679270589922
v 3.244784736444044 -4.595728261518900 -1.859643764916535
v 3.748357103533321 -4.594228032939172 -1.859355546624618
v 1.044070459337937 -4.583823783580148 -1.856813127446828
v 4.953375424644072 -4.583935998082076 -1.856871330791595
v 5.000000000000004 -1.700983244867390 -5.179138945030269
v 4.546895279665883 -4.999999999999994 -5.474050076392332
v 4.991286340376552 -4.999999999999994 -5.516973072477843
v 4.545676216329820 -5.000000000000016 -5.936231540593658
v 4.203706513710598 -4.999999999999908 -3.072695430822813
v 3.653639027264488 -4.999999999999988 -5.862340304207841
v 3.661732084878235 -4.999999999999988 -5.418934967476240
v 4.104861300341340 -5.000000000000009 -5.441020676874608
v 4.572177424173333 -4.999999999999994 -4.538307692246123
v 1.819309668575284 -4.999999999999940 -3.561798537555168
v 2.271460480424594 -5.000000000000007 -3.076551505416980
v 4.632896185056377 -5.000000000000001 -3.568083735624399
v 3.243801928402469 -5.000000000000178 -2.601045210140568
v 2.772419221026489 -5.000000000000000 -4.958650415898980
v 3.721341539067488 -5.000000000000052 -3.075147865913410
v 2.332747373544627 -4.999999999999993 -5.422634256472399
v 4.114713555090524 -5.000000000000020 -4.982945354923771
v 1.747746846860895 -4.999999999999545 -2.586820688715830
v 4.756547733712495 -5.000000000000774 -2.559679479098547
v 2.754839117436636 -5.000000000000041 -3.076882953811203
v 2.750058823627003 -5.000000000000279 -2.601344944960412
v 1.878083912276716 -4.999999999999998 -4.984789760535380
v 1.434812935213316 -4.999999999999993 -5.011746798217842
v 3.231991909434103 -4.999999999999965 -3.552657682607212
v 4.096876926447930 -5.000000000000002 -5.889461028108786
v 3.216868419926758 -5.000000000000006 -5.852833040210440
v 1.356381907155411 -5.000000000000006 -3.572563358462173
v 2.342051363200342 -4.999999999999988 -5.863146993162511
v 2.778795734309158 -4.999999999999991 -5.853073148474122
v 1.889642717492173 -5.000000000000022 -5.443761943341900
v 1.899591404441384 -5.000000000000004 -5.889955127665066
v 4.557112646265741 -5.000000000000012 -5.009472442246698
v 4.997434171930449 -5.000000000000012 -5.039780219837008
v 2.289181118974735 -4.999999999999990 -3.556207741990673
v 1.786621109659714 -4.999999999999845 -3.074563877732444
v 3.668366819395673 -4.999999999999993 -4.966002090256401
v 1.235291438774599 -4.999999999999780 -2.563162962570361
v 1.863724821470292 -4.999999999999940 -4.518280435123645
v 2.760396791550803 -4.999999999999925 -3.553224738552089
v 1.452683160087388 -4.999999999999978 -5.934464776143646
v 1.004539559573739 -5.000000000000020 -5.519074976921823
v 1.446228307102212 -5.000000000000021 -5.477297595329711
v 3.702180692034069 -5.000000000000028 -3.554986038175942
v 1.415781125445588 -4.999999999999935 -4.539627115561295
v 2.303943149689959 -4.999999999999973 -4.033084327017894
v 2.776288457985169 -4.999999999999997 -5.410515774027540
v 3.218627119800036 -4.999999999999998 -5.411169516876123
v 1.390377837374821 -5.000000000000000 -4.060640003968885
v 4.170882474788642 -5.000000000000047 -3.559365224372234
v 4.245138436119905 -4.999999999999659 -2.585006164685165
v 4.128317332172799 -5.000000000000038 -4.515673870436906
v 1.307981837146813 -5.000000000000449 -3.073382026219162
v 2.764885800469830 -4.999999999999973 -4.027153376294583
v 3.221472404186720 -4.999999999999999 -4.957405641345080
v 2.768953250146860 -4.999999999999954 -4.495740869464964
v 3.676579590851904 -4.999999999999996 -4.502688910672044
v 3.227453194726364 -5.000000000000014 -4.026554580031970
v 3.687851056537229 -5.000000000000061 -4.031469068841313
v 4.146371871168961 -4.999999999999941 -4.041019369710746
v 3.740510532811051 -5.000000000000872 -2.596705284348997
v 2.315678465227309 -5.000000000000037 -4.503937299981674
v 2.252883723456845 -4.999999999999210 -2.597592674042611
v 4.598151492920024 -4.999999999999984 -4.057099710356171
v 3.223462721209282 -4.999999999999992 -4.495560279396315
v 3.238006793846315 -5.000000000000185 -3.076455965828812
v 4.681614520265989 -4.999999999999815 -3.069296615765747
v 2.324920988560177 -5.000000000000017 -4.967996588630907
v 1.843998723794003 -5.000000000000024 -4.043200389021173
v 0.999999999999994 -1.500366229572462 -3.936897337636972
v 0.999999999999999 -3.719610523379763 -5.163871607412394
v 0.999999999999978 -1.554537863782749 -4.660368374226292
v 1.000000000000007 -4.141856767860313 -5.118355296300101
v 0.999999999999996 -1.954482743454021 -4.182399233458238
v 1.000000000000000 -2.909320985231593 -5.689277137994506
v 1.000000000000002 -3.328838293460449 -5.651914809475073
v 1.000000000000002 -2.431788907690581 -4.895048175076513
v 0.999999999999947 -1.634092391198147 -5.380314572043931
v 0.999999999999997 -2.402451007765517 -4.482135132002860
v 0.999999999999997 -2.820069477869367 -4.390828099110856
v 1.000000000000000 -3.748689762141198 -5.615183455128008
v 1.000000000000000 -1.934971110900682 -3.766328894662383
v 1.000000000000000 -2.880358430202698 -5.258787480668919
v 0.999999999999993 -2.759201485616750 -3.463999119638336
v 1.000000000000000 -2.850394962520497 -4.828386061800582
v 1.000000000000001 -3.982030067340052 -3.151699287663127
v 1.000000000000004 -4.905407173368008 -3.593885425968182
v 1.000000000000002 -2.351417164342641 -3.621661217435611
v 1.000000000000001 -3.513702341714672 -2.664902359507263
v 1.000000000000002 -1.981155877547437 -4.573087049756669
v 1.000000000000021 -2.012845940013839 -4.960676278943421
v 1.000000000000021 -4.946142402217069 -4.088442837232603
v 1.000000000000000 -3.237283798680568 -4.306278997820951
v 0.999999999999998 -4.974476721873149 -4.569415738341340
v 0.999999999999998 -3.166044083466384 -3.343121348791069
v 1.000000000000001 -3.203026637610630 -3.836097571807564
v 1.000000000000000 -2.490461464228948 -5.722974178967778
v 1.000000000000000 -2.373645658937288 -4.053077471693555
v 1.000000000000001 -2.790064508416405 -3.940240710304015
v 1.000000000000013 -3.618893125391473 -3.750575554311378
v 1.000000000000006 -4.994854186704044 -5.043999751770211
v 0.999999999999996 -2.045595609664829 -5.351091308690424
v 1.000000000000003 -4.113846766636192 -4.652128233594171
v 0.999999999999998 -3.690509826371396 -4.705736189885599
v 0.999999999999999 -4.585861952410105 -5.548981290147433
v 1.000000000000000 -4.540142799752466 -4.605525896774326
v 1.000000000000000 -2.462002649500468 -5.306398924548924
v 0.999999999999995 -4.079003609183677 -4.171840221363399
v 1.000000000000004 -4.309914218671971 -2.520931136254018
v 1.000000000000003 -4.507258167336088 -4.122814540086187
v 0.999999999999995 -4.037359531842599 -3.678162119627167
v 0.999999999999950 -3.906286988424903 -2.569157446707674
v 0.999999999999993 -3.269257692396991 -4.761053923752932
v 0.999999999999997 -3.656723055775702 -4.235044136406595
v 1.000000000000010 -4.465086259833240 -3.626269584037200
v 1.000000000000004 -3.299565342948738 -5.209521790373735
v 0.999999999999994 -1.078490484398874 -4.415732123362561
v 0.999999999999995 -4.565747829515469 -5.080757413385200
v 1.000000000000003 -4.166925221705876 -5.582254660484045
v 0.999999999999998 -1.594056623782024 -5.016349655358429
v 1.000000000000024 -1.170638542080662 -5.065810548917076
v 1.000000000000020 -1.225143711028712 -5.411426530212516
v 1.000000000000006 -1.516367657777099 -4.313336514722756
v 0.999999999999993 -3.573060621322433 -3.236666477503828
v 0.999999999999992 -4.742246222160434 -2.530116439622007
v 1.000000000000004 -2.074350981237625 -5.752413451722514
v 0.999999999999974 -4.844314516820624 -3.078029291157552
v 1.000000000000014 -4.403763639018880 -3.100363449243044
v 1.000000000000003 -1.667062870332030 -5.757444373658148
v 1.000000000000024 -1.128440671276250 -4.730332221083997
v 3.920866503575201 -1.821123241746650 -4.388321252941138
v 3.568566844274280 -1.892466278334153 -4.347268938022987
v 4.207499904493059 -1.730883227782305 -5.135101602416871
v 4.302685440899777 -1.775025506916903 -4.421214519511645
v 4.255236589242450 -1.602079886101994 -4.763335313275672
v 4.602342681815838 -1.738126871792407 -5.143190786375617
v 4.562896975901441 -2.090969870618969 -5.299237529322827
v 4.752508963311907 -2.088520760321549 -4.300931595018202
v 3.823705421715193 -1.725986692034349 -5.130312336854670
v 4.148252300962092 -2.088673851723365 -5.298999824318522
v 4.677196883920793 -1.746709731323323 -4.448003358270293
v 3.738229242396434 -2.090524300694229 -5.299176285629312
v 4.636827431202052 -1.600638870542492 -4.792466502894525
v 3.871792345353892 -1.606392333546407 -4.726012190746657
v 4.969941758948330 -2.090412116404185 -5.299272866609304
v 3.500000000000004 -1.637419987714772 -4.616814900810010
v 3.499999999999995 -3.416469545171640 -3.537065566853498
v 3.499999999999994 -3.021227952091569 -3.659185491810266
v 3.500000000000003 -2.625075240617079 -3.801095818499741
v 3.500000000000019 -3.068053810101115 -2.952170173888112
v 3.500000000000003 -1.070278431203980 -4.447073026794433
v 3.500000000000001 -3.379359480976374 -5.108796072129849
v 3.500000000000000 -2.095118462896939 -5.918708851390694
v 3.499999999999994 -3.414628797872716 -5.550748694186847
v 3.499999999999998 -2.990046226233133 -5.993333940804204
v 3.499999999999932 -1.695859730155050 -5.211070853231395
v 3.500000000000006 -3.372493746707917 -4.650094848481817
v 3.499999999999994 -2.532862241585872 -5.966603954929090
v 3.500000000000004 -1.175215238740080 -5.283980905781441
v 3.500000000000006 -3.388860053418964 -4.138026637326592
v 3.500000000000004 -1.668653368808764 -5.835017112738702
v 3.499999999999998 -2.951426484088657 -5.125662710203319
v 3.499999999999998 -2.512845716458620 -4.405920296143027
v 3.499999999999999 -2.969990406781578 -5.549788359394574
v 3.499999999999996 -2.953900708385648 -4.702511188931958
v 3.500000000000025 -2.093919666706868 -5.457420863253061
v 3.499999999999998 -2.239726041841288 -3.937744286830735
v 3.500000000000001 -2.982245085145134 -4.217947395873459
v 3.499999999999996 -1.885802522665838 -4.063358437676150
v 3.500000000000000 -2.522029716466125 -5.528779431098508
v 3.499999999999996 -1.118007609103552 -4.836627331576066
v 3.500000000000005 -1.524570628925766 -4.242232033083797
v 2.835870325615219 -3.500000000000006 -5.986274365951233
v 3.168431844513793 -3.499999999999997 -2.693834752665675
v 2.835155710336238 -3.499999999999996 -2.696896711047299
v 3.169173077721940 -3.499999999999995 -5.986439816484182
v 2.830938013966897 -3.500000000000002 -5.552908349963773
v 3.192278596801331 -3.500000000000004 -5.549088068247066
v 3.197179295075859 -3.500000000000008 -3.497011011774467
v 3.220795338909643 -3.499999999999999 -4.620975607731937
v 2.820919007480725 -3.499999999999998 -4.101198704052434
v 3.212694839683309 -3.500000000000003 -4.103992758405600
v 3.216465893173117 -3.499999999999998 -5.095248453779760
v 2.819866412816837 -3.499999999999996 -4.621668974883084
v 2.821868055273048 -3.500000000000000 -5.102805666300975
v 2.822299593717875 -3.500000000000005 -3.497504730937870
v 2.499999999999998 -1.804379090493497 -4.544135908756537
v 2.500000000000012 -1.412729867803914 -4.281084350121763
v 2.500000000000010 -1.832680132500272 -4.125317745729030
v 2.499999999999993 -1.384732382385870 -4.651615249685350
v 2.499999999999992 -1.761112058941619 -5.330447755999989
v 2.499999999999993 -1.782084771525046 -4.942224563183826
v 2.499999999999995 -2.182784236986453 -5.275054346365919
v 2.500000000000006 -3.071749539608520 -2.958859707721688
v 2.499999999999998 -2.625833800894394 -4.312523474854317
v 2.500000000000000 -2.594153904918110 -5.651625564360674
v 2.500000000000002 -3.020689879368046 -4.703234163620916
v 2.500000000000002 -3.421459254929732 -4.654530716445257
v 2.500000000000004 -3.426061607961619 -4.134891740975036
v 2.500000000000000 -3.043484606210376 -3.662304318768149
v 2.500000000000000 -3.027647085484543 -4.212475063416601
v 2.500000000000004 -3.449613909107691 -5.569517763602414
v 2.500000000000023 -2.240520481814587 -3.957342729987039
v 2.500000000000001 -3.016630717375944 -5.167032630168777
v 2.500000000000010 -2.643819455003733 -3.799656623919700
v 2.499999999999985 -1.361323127216120 -5.015701630375069
v 2.500000000000000 -3.437141275953473 -3.536651948663619
v 2.499999999999984 -1.341448887303152 -5.378571266399286
v 2.500000000000002 -3.424515344747514 -5.123892519059318
v 2.500000000000000 -2.199744707332007 -4.859396816058827
v 2.499999999999967 -1.739083322923158 -5.715571810710729
v 2.499999999999997 -2.218857849600811 -4.425396875201089
v 2.499999999999991 -2.166538538908950 -5.690085939564122
v 2.500000000000004 -2.612847735809678 -4.776404640958658
v 2.500000000000000 -3.023496963251797 -5.610063831696927
v 2.500000000000004 -2.602969299091605 -5.218714465312168
v 4.908977179246136 -3.360562951267821 -5.999999999999996
v 1.144681437964140 -2.516093537085089 -5.999999999999946
v 4.849546671737157 -2.511760678119703 -5.999999999999972
v 2.447834527163057 -3.022267352777206 -6.000000000000001
v 4.025568821628957 -3.842188599065069 -6.000000000000009
v 1.965688265390955 -3.844114050328876 -6.000000000000001
v 2.787702994185878 -4.716502985087033 -5.999999999999979
v 1.093824236498655 -3.358080506605997 -5.999999999999999
v 1.066355711050623 -3.777523978282538 -5.999999999999992
v 1.038067927882682 -4.194230486854574 -5.999999999999992
v 4.964589727401531 -4.197019598212023 -6.000000000000011
v 4.937830051956388 -3.781311843067007 -6.000000000000010
v 4.059508316702110 -4.258243325181673 -5.999999999999996
v 3.643208669685011 -4.704875928002807 -6.000000000000005
v 3.622572886705906 -4.282966225777217 -6.000000000000004
v 1.915365754215538 -4.680180216063508 -6.000000000000012
v 1.937328375623093 -4.259566932758196 -6.000000000000002
v 2.417278473250570 -2.580934032485057 -5.999999999999998
v 4.081134382764622 -4.680042746847091 -6.000000000000010
v 2.353637435576831 -4.705628465956464 -5.999999999999999
v 1.998067171389153 -2.995779070605144 -6.000000000000040
v 3.208832515110162 -4.716549250247029 -5.999999999999984
v 4.984038262656300 -4.601415714639271 -5.999999999999997
v 1.554649729275377 -2.965195532101992 -6.000000000000028
v 4.529191628877250 -4.642540183312020 -5.999999999999999
v 4.479547515308932 -3.809127860058815 -5.999999999999995
v 4.879753623055127 -2.937109761079014 -6.000000000000012
v 1.515484912970865 -3.809431888241318 -6.000000000000014
v 3.582840502631984 -3.878935193720443 -5.999999999999999
v 2.412967549690784 -3.879196518574934 -5.999999999999993
v 3.922860450616248 -2.530757736567210 -6.000000000000002
v 1.990041365617665 -2.562409299482221 -5.999999999999988
v 2.374034918674745 -4.284082828714155 -6.000000000000002
v 2.808883825904648 -3.887671993889118 -5.999999999999986
v 3.192516088954210 -3.887376161322273 -5.999999999999986
v 4.349277754894050 -2.086524425958722 -5.999999999999973
v 1.119798072983098 -2.937092939321224 -5.999999999999979
v 1.017319115522650 -4.600046807265525 -6.000000000000036
v 1.468945317702000 -4.644271199232147 -5.999999999999982
v 1.490511069922516 -4.226481314158320 -6.000000000000012
v 4.507160267572647 -4.227139490203203 -5.999999999999993
v 4.416383116586679 -2.954932893213810 -5.999999999999975
v 3.891076581400950 -2.091016441035026 -6.000000000000012
v 1.567084368424450 -2.540475395618627 -6.000000000000133
v 3.985768218102135 -3.418963569168147 -6.000000000000001
v 1.980659801998793 -2.134152606187531 -5.999999999999835
v 1.578073984232611 -2.117018619520509 -5.999999999999924
v 1.170825039235539 -2.096990243198665 -5.999999999999963
v 4.812528855101743 -2.084578763636529 -5.999999999999996
v 1.991344320186288 -3.425648149443831 -6.000000000000004
v 4.447859137645839 -3.385808849516393 -5.999999999999982
v 3.953028396530429 -2.977862283901721 -5.999999999999998
v 3.205206472511481 -4.295712127013739 -5.999999999999986
v 2.793270884017358 -4.295626093734899 -5.999999999999990
v 1.538987199677738 -3.389540400702131 -5.999999999999972
v 2.390815042135302 -2.149977808432916 -6.000000000000021
v 4.384293117113518 -2.521782117005604 -5.999999999999943
v 4.273539097932693 -1.056113751559930 -5.326426532758752
v 4.687999053157723 -1.288574306955770 -5.696535534657190
v 4.749869492269239 -1.657891050466751 -5.937459339220654
v 3.868827329625692 -1.285883521162753 -5.698808612009001
v 4.313175326461979 -1.655686912295739 -5.936175769607884
v 4.285624651084454 -1.287571287391479 -5.697259484262041
v 4.696203641211657 -1.054624380978341 -5.320744696175618
v 3.843664889231327 -1.054062647276414 -5.316787976225472
v 3.873380553201693 -1.658357452777760 -5.937428584566143
v 3.863023898484002 -1.000000000000000 -4.489640009249441
v 4.675839621088317 -0.999999999999998 -4.499176448792210
v 4.697406866718397 -0.999999999999993 -4.903528000554713
v 4.272416524553783 -0.999999999999991 -4.490190521660432
v 3.839057774437694 -0.999999999999997 -4.891188158816422
v 4.270237155835321 -0.999999999999985 -4.905579044232887
v 1.966482816566530 -1.713507471062034 -5.953808749868563
v 1.593778894907056 -1.702889528082100 -5.951445549268893
v 2.278419938104999 -1.337751703856688 -5.745359634463798
v 1.271773244221475 -1.332427684668781 -5.741991866489784
v 1.612558967086305 -1.349269501387051 -5.755569642789192
v 1.266318172621873 -1.104927860286705 -5.442654912994958
v 1.627624165733627 -1.112953990694477 -5.454725283265264
v 1.985779787722953 -1.112257033562822 -5.451011359525336
v 1.960085033824406 -1.351304024053554 -5.756701403795872
v 1.645566896079012 -1.010387152418193 -5.107006662908069
v 2.026414288056949 -1.007332823700045 -5.100427041742345
v 1.215891684026903 -1.684811352907817 -5.947279394929856
v 1.257738114757668 -1.006936632754199 -5.097772038600923
v 2.344951167732813 -1.101321439020442 -5.429125888421563
v 2.428938895250876 -1.005052598235183 -5.073529081771406
v 2.341556416273325 -1.719381841051622 -5.959657382465808
v 5.000000000000046 -4.523008645684854 -4.113927495873284
v 5.000000000000027 -4.130081999208868 -4.637179650839526
v 5.000000000000018 -2.921505399435615 -5.655522608821038
v 4.999999999999982 -4.959351822342287 -4.082306674657276
v 4.999999999999937 -3.320478401120706 -5.173857789904804
v 5.000000000000022 -3.340026579434809 -5.630393830153721
v 4.999999999999989 -2.890993332090813 -4.771145420543487
v 5.000000000000032 -3.189359320719621 -3.333671142520348
v 5.000000000000044 -4.918691224065232 -3.587480495086954
v 4.999999999999988 -4.985362445037514 -4.563281999417375
v 5.000000000000019 -3.680726018591685 -4.216006546004627
v 5.000000000000002 -4.589607803404221 -5.545361461627012
v 4.999999999999993 -4.480798176906976 -3.618196327525393
v 5.000000000000000 -1.981101655403571 -3.779125295688234
v 4.999999999999966 -2.430592018022373 -4.048335777120004
v 4.999999999999987 -4.057447458086333 -3.669563058796450
v 5.000000000000028 -1.106900359829197 -4.484296979560802
v 4.999999999999951 -4.418363066986752 -3.096620254107000
v 4.999999999999945 -4.319816155494395 -2.519967627817091
v 4.999999999999959 -2.086522354555117 -5.707185917168252
v 5.000000000000037 -4.098071172299119 -4.159016634914640
v 5.000000000000023 -3.526466169778812 -2.664083955895751
v 5.000000000000050 -4.554370206598438 -4.596559734446963
v 4.999999999999982 -1.670069106018784 -5.714432311416491
v 4.999999999999915 -3.641932227607136 -3.737090634840603
v 5.000000000000028 -4.155103205177987 -5.105801454230734
v 5.000000000000000 -3.758450618841777 -5.601138810266250
v 5.000000000000014 -3.233469383183299 -3.824747567512228
v 5.000000000000048 -3.591076881185678 -3.226356741426208
v 4.999999999999980 -3.711631483836157 -4.682292070982527
v 4.999999999999969 -3.298316556719408 -4.728298386788420
v 5.000000000000000 -2.388880513087773 -3.613628847629461
v 5.000000000000000 -4.751849292867358 -2.527888166425760
v 4.999999999999979 -4.575964002008479 -5.072553825835822
v 5.000000000000086 -2.864037542541661 -4.357966747778567
v 5.000000000000002 -2.789507468446845 -3.460665026024304
v 1.057738309532751 -4.880503845686749 -2.027293403374196
v 4.999999999999980 -1.201255036509653 -5.288047280661248
v 5.000000000000044 -3.269777974506713 -4.283561437357138
v 4.999999999999965 -2.829513076682907 -3.927272225000704
v 5.000000000000004 -4.175535295276624 -5.572173952482487
v 4.999999999999980 -1.588872344140049 -4.824359773651574
v 5.000000000000082 -3.917378780279206 -2.568772269231277
v 4.999999999999964 -3.736787660726997 -5.141360198153658
v 4.999999999999936 -4.856983245438994 -3.072671295257244
v 5.000000000000011 -2.037039435919854 -4.188469838791013
v 5.000000000000057 -2.502926211799562 -5.680297664037859
v 5.000000000000003 -3.999365075241557 -3.146430244874148
v 5.000000000000021 -2.905701569280188 -5.197214670786691
v 5.000000000000050 -1.149515334358540 -4.876247400705811
v 5.000000000000000 -1.550874898927415 -3.962425355809884
v 4.939945803858175 -4.880584347431612 -2.027367104433372
v 1.280358590710108 -0.999999999999992 -4.753782332353184
v 1.669486858843639 -0.999999999999993 -4.753891506033352
v 2.059087340912225 -0.999999999999982 -4.749641845469684
v 2.464940827745973 -0.999999999999997 -4.727202549072857
v 2.485278721670515 -1.000000000000009 -4.425090048306734
v 2.077866720932888 -0.999999999999988 -4.404248487679476
v 1.691639239078631 -1.000000000000003 -4.399938904417851
v 1.316482763289809 -0.999999999999991 -4.423268801966703
v 2.796650754538507 -3.824447140838253 -2.309118615543759
v 1.845156791598052 -3.835973956209511 -2.298093766895763
v 4.157155914259344 -3.838898802591871 -2.295387425162295
v 1.940779419147547 -3.479269320589827 -2.614263142463042
v 4.063920329905990 -3.482604360061393 -2.611030455323445
v 4.566569557114954 -3.499161868070838 -2.599399075587199
v 4.467633767821064 -3.123751073142695 -2.904619537780962
v 2.054254154997694 -2.295282089494288 -3.482395363034202
v 2.038218150887575 -2.697262590586034 -3.214394342671270
v 4.305642155181523 -1.511517058163884 -3.921894679249120
v 1.699404602725523 -1.511274293190446 -3.922015339059824
v 1.438345303398024 -3.490490994829860 -2.605715668810061
v 1.605294366508697 -2.718665837471660 -3.200589981286374
v 1.339738014706584 -1.511349830094530 -3.922840981671140
v 4.678826799429375 -1.525286118070520 -3.915669437532576
v 2.480685758360695 -2.668735740055702 -3.234462602820988
v 4.756187814022772 -2.359346012873065 -3.439873484421436
v 1.261254288417390 -2.331906662123672 -3.457993566651954
v 3.969904698267347 -2.704711140550685 -3.209465353354029
v 3.957768879947758 -2.306876776400720 -3.474456979567811
v 1.308931699808440 -1.923165615929650 -3.701343540099448
v 4.713818970273128 -1.951849896992466 -3.684983126036780
v 1.649815746729895 -2.316252417118939 -3.466176388078268
v 4.362580077361320 -2.333745723612596 -3.455409444954257
v 3.998419296274130 -3.101047105659185 -2.918720477389671
v 1.181913660876730 -2.734790619252764 -3.191283262234074
v 3.530276026888627 -2.666384296544243 -3.236263850957285
v 4.824966068041893 -2.755821316370965 -3.177087829017617
v 4.404361824774707 -2.733129737471910 -3.191107873862768
v 4.931627757403172 -3.143433379574709 -2.888815161206259
v 1.076552117859702 -3.127866977762931 -2.900453836943500
v 1.681937106106743 -1.910417717583937 -3.710775738244479
v 4.331057091651772 -1.928475356967147 -3.700327403043185
v 3.948951102684204 -1.906030360333836 -3.710776264785641
v 2.073790431707732 -1.485745416748995 -3.933611518492105
v 3.929076904372222 -1.492068151687409 -3.930399691402379
v 1.539147667444865 -3.113474038741989 -2.913396645499752
v 2.434200473519030 -1.452546662656825 -3.952755489448273
v 4.283679060170773 -1.094169611973578 -4.121406499432418
v 1.703349820147940 -1.129263493053677 -4.105104234240212
v 3.556982526076861 -2.272865239445521 -3.492434803181909
v 2.455751114852462 -2.265871903300987 -3.496676730748038
v 3.203038797240458 -3.823286519869864 -2.309934715407095
v 3.574070494401164 -1.489668421779348 -3.934341232404518
v 3.573105864634751 -1.882713291112612 -3.723304835926198
v 2.437649335607933 -1.860461635972007 -3.735347604708422
v 2.060773570493299 -1.890713519867850 -3.719665563720915
v 2.006507222013690 -3.095777137805037 -2.921785073426602
v 2.356203473060757 -3.832843649776002 -2.300705762478966
v 3.645847524105300 -3.833421011701634 -2.300211621582684
v 2.080166618479220 -1.112014944804360 -4.114115593708950
v 4.653203084024076 -1.071020530783428 -4.132074653209965
v 1.342664791304162 -1.097461264433331 -4.119760281889078
v 3.900927838900364 -1.082163533515327 -4.127834786617036
v 1.307561531098206 -3.849287930408034 -2.285848817902010
v 4.695985618110541 -3.853923149835220 -2.281337896564755
v 5.000000000000000 -2.471572410000000 -5.134565300000000
v 3.500000000000000 -2.471572410000000 -5.134565300000000
v 5.000000000000000 -1.000000000000000 -4.165151390000000
v 5.000000000000000 -2.471572410000000 -4.465434700000000
v 5.000000000000000 -1.292893220000000 -5.707106780000000
v 2.500000000000000 -1.292893220000000 -5.707106780000000
v 5.000000000000000 -5.000000000000000 -6.000000000000000
v 1.000000000000000 -5.000000000000000 -6.000000000000000
v 1.000000000000000 -1.000000000000000 -4.165151390000000
v 1.000000000000000 -1.292893220000000 -5.707106780000000
v 2.500000000000000 -1.000000000000000 -4.165151390000000
v 2.500000000000000 -3.500000000000000 -2.599342080000000
v 2.500000000000000 -3.500000000000000 -6.000000000000000
v 3.500000000000000 -1.292893220000000 -5.707106780000000
v 3.500000000000000 -3.500000000000000 -2.599342080000000
v 3.500000000000000 -1.000000000000000 -4.165151390000000
v 3.500000000000000 -3.500000000000000 -6.000000000000000
f 457 9 6 1
f 6 8 5 1
f 5 7 10 1
f 10 171 457 1
f 8 4 455 2
f 455 195 198 2
f 35 375 387 379
f 458 375 35 361
f 454 178 170 3
f 170 173 4 3
f 4 8 6 3
f 6 9 454 3
f 173 175 455 4
f 12 379 387 354
f 11 165 164 7
f 164 167 10 7
f 344 386 454 9
f 457 372 344 9
f 167 174 171 10
f 456 388 12 354
f 200 202 165 11
f 12 388 351 383
f 192 467 194 189
f 189 179 204 192
f 400 447 20 13
f 20 32 29 13
f 29 34 14 13
f 14 453 400 13
f 34 370 356 14
f 356 380 453 14
f 33 24 17 15
f 17 399 452 15
f 452 145 142 15
f 142 158 33 15
f 19 18 24 16
f 199 189 194 186
f 204 179 205 184
f 52 96 19 16
f 21 446 399 17
f 24 18 21 17
f 30 23 21 18
f 19 25 30 18
f 96 55 25 19
f 447 440 22 20
f 22 31 32 20
f 23 398 446 21
f 440 398 23 22
f 23 30 31 22
f 26 31 30 25
f 55 47 26 25
f 27 32 31 26
f 47 94 27 26
f 28 29 32 27
f 94 84 28 27
f 201 181 182 196
f 38 460 37 36
f 37 67 66 36
f 66 51 42 36
f 42 59 38 36
f 460 272 349 37
f 349 371 67 37
f 274 272 460 38
f 59 268 274 38
f 100 53 84 39
f 84 94 49 39
f 49 77 83 39
f 83 46 100 39
f 59 42 41 40
f 41 81 60 40
f 60 271 263 40
f 263 268 59 40
f 42 51 70 41
f 70 88 81 41
f 66 67 347 43
f 347 341 97 43
f 97 93 85 43
f 85 51 66 43
f 68 45 69 44
f 69 86 61 44
f 61 82 102 44
f 102 79 68 44
f 54 55 96 45
f 96 52 69 45
f 68 73 54 45
f 346 382 100 46
f 83 93 97 46
f 97 341 346 46
f 55 54 99 47
f 99 49 94 47
f 88 98 89 48
f 89 95 101 48
f 101 50 80 48
f 80 81 88 48
f 99 58 77 49
f 101 56 64 50
f 64 65 62 50
f 62 63 80 50
f 85 90 70 51
f 71 86 69 52
f 100 382 370 53
f 73 58 99 54
f 101 95 72 56
f 72 78 57 56
f 57 76 64 56
f 78 127 134 57
f 134 75 76 57
f 73 87 91 58
f 91 92 77 58
f 81 80 63 60
f 63 256 271 60
f 86 160 120 61
f 120 125 82 61
f 65 265 269 62
f 269 256 63 62
f 76 74 65 64
f 74 288 265 65
f 371 360 347 67
f 79 87 73 68
f 90 98 88 70
f 158 160 86 71
f 95 79 102 72
f 102 82 78 72
f 76 75 461 74
f 461 287 288 74
f 134 151 138 75
f 138 287 461 75
f 92 93 83 77
f 82 125 127 78
f 95 89 87 79
f 93 92 90 85
f 89 98 91 87
f 92 91 98 90
f 115 418 411 103
f 411 450 462 103
f 462 150 156 103
f 156 107 115 103
f 114 152 106 104
f 106 136 137 104
f 137 146 149 104
f 149 109 114 104
f 123 107 156 105
f 156 150 163 105
f 163 154 153 105
f 153 124 123 105
f 152 138 151 106
f 151 139 136 106
f 131 121 115 107
f 123 112 131 107
f 286 257 109 108
f 109 149 116 108
f 116 140 130 108
f 130 251 286 108
f 257 258 114 109
f 140 116 118 110
f 118 113 112 110
f 112 123 124 110
f 124 135 140 110
f 135 124 153 111
f 153 154 155 111
f 155 463 162 111
f 162 159 135 111
f 113 132 131 112
f 126 129 132 113
f 118 146 126 113
f 258 259 152 114
f 121 415 418 115
f 149 146 118 116
f 128 428 423 117
f 423 415 121 117
f 121 131 132 117
f 132 129 128 117
f 161 142 145 119
f 145 122 157 119
f 157 133 144 119
f 144 148 161 119
f 160 161 148 120
f 148 143 125 120
f 145 452 409 122
f 409 434 428 122
f 428 128 157 122
f 143 139 127 125
f 147 133 129 126
f 146 137 147 126
f 139 151 134 127
f 129 133 157 128
f 140 135 159 130
f 159 297 251 130
f 147 141 144 133
f 139 143 141 136
f 141 147 137 136
f 152 259 287 138
f 143 148 144 141
f 161 160 158 142
f 462 450 397 150
f 397 390 163 150
f 163 390 334 154
f 334 327 155 154
f 327 325 463 155
f 162 333 297 159
f 463 325 333 162
f 35 178 357 361
f 177 168 167 164
f 176 379 12 174
f 169 176 168 166
f 168 177 172 166
f 172 175 173 166
f 173 170 169 166
f 168 176 174 167
f 189 199 175 172
f 177 179 189 172
f 383 352 457 171
f 174 12 383 171
f 170 178 35 169
f 35 379 176 169
f 179 165 202 205
f 199 203 455 175
f 179 177 164 165
f 454 384 357 178
f 374 33 158 71
f 181 201 193 180
f 193 215 212 180
f 212 207 468 180
f 468 183 181 180
f 183 424 182 181
f 424 438 200 182
f 468 402 422 183
f 422 416 424 183
f 316 320 204 184
f 374 71 52 16
f 205 441 469 184
f 469 451 316 184
f 195 197 187 185
f 187 211 216 185
f 216 213 190 185
f 190 198 195 185
f 194 315 292 186
f 292 280 191 186
f 191 203 199 186
f 374 16 24 33
f 197 188 470 187
f 470 209 211 187
f 191 280 301 188
f 301 294 470 188
f 197 203 191 188
f 389 53 370 34
f 28 84 53 389
f 213 215 193 190
f 193 201 198 190
f 204 320 314 192
f 314 310 467 192
f 467 310 315 194
f 455 203 197 195
f 438 442 202 200
f 442 441 205 202
f 209 284 283 206
f 283 279 466 206
f 466 235 210 206
f 210 211 209 206
f 212 219 208 207
f 208 398 440 207
f 440 447 468 207
f 219 240 465 208
f 465 446 398 208
f 470 278 284 209
f 235 242 218 210
f 218 216 211 210
f 215 214 219 212
f 216 218 217 213
f 217 214 215 213
f 217 231 232 214
f 232 240 219 214
f 218 242 231 217
f 245 243 225 220
f 225 239 223 220
f 223 221 222 220
f 222 236 245 220
f 223 393 394 221
f 394 464 435 221
f 435 443 222 221
f 443 439 236 222
f 239 336 393 223
f 226 246 244 224
f 244 459 241 224
f 241 239 225 224
f 225 243 226 224
f 249 229 246 226
f 243 247 249 226
f 465 240 233 227
f 233 238 413 227
f 413 406 445 227
f 445 401 465 227
f 234 230 247 228
f 247 243 245 228
f 245 236 238 228
f 238 233 234 228
f 248 253 267 229
f 267 305 246 229
f 249 237 248 229
f 231 242 237 230
f 237 249 247 230
f 234 232 231 230
f 234 233 240 232
f 466 253 248 235
f 248 237 242 235
f 439 413 238 236
f 241 335 336 239
f 459 324 335 241
f 246 305 337 244
f 337 324 459 244
f 276 340 343 250
f 343 364 261 250
f 261 275 300 250
f 300 291 276 250
f 297 296 293 251
f 293 273 286 251
f 298 357 384 252
f 384 340 276 252
f 276 291 306 252
f 306 285 298 252
f 466 299 270 253
f 270 281 267 253
f 294 300 275 254
f 275 290 262 254
f 262 264 278 254
f 278 470 294 254
f 279 282 266 255
f 266 289 277 255
f 277 304 299 255
f 299 466 279 255
f 269 282 303 256
f 303 302 271 256
f 304 277 258 257
f 286 273 304 257
f 277 289 259 258
f 289 288 287 259
f 261 364 378 260
f 378 349 272 260
f 272 274 290 260
f 290 275 261 260
f 290 274 268 262
f 268 263 264 262
f 271 302 264 263
f 302 284 278 264
f 288 289 266 265
f 266 282 269 265
f 281 295 305 267
f 299 304 273 270
f 273 293 281 270
f 283 303 282 279
f 292 285 306 280
f 306 291 301 280
f 293 296 295 281
f 284 302 303 283
f 311 309 298 285
f 292 315 311 285
f 300 294 301 291
f 296 323 322 295
f 322 337 305 295
f 297 333 323 296
f 309 361 357 298
f 312 310 314 307
f 314 320 321 307
f 321 318 313 307
f 313 308 312 307
f 313 375 458 308
f 458 361 309 308
f 309 311 312 308
f 312 311 315 310
f 318 387 375 313
f 319 321 320 316
f 451 436 319 316
f 318 321 319 317
f 319 436 449 317
f 449 456 354 317
f 354 387 318 317
f 323 326 330 322
f 330 324 337 322
f 333 325 326 323
f 330 329 335 324
f 327 328 326 325
f 328 329 330 326
f 334 331 328 327
f 331 332 329 328
f 332 336 335 329
f 391 392 332 331
f 334 390 391 331
f 392 393 336 332
f 358 353 350 338
f 350 346 341 338
f 341 347 360 338
f 360 339 358 338
f 367 348 358 339
f 360 371 363 339
f 363 381 367 339
f 384 454 386 340
f 386 342 343 340
f 386 344 368 342
f 368 367 381 342
f 381 364 343 342
f 372 376 368 344
f 373 425 427 345
f 427 359 366 345
f 366 362 365 345
f 365 377 373 345
f 350 355 382 346
f 376 365 362 348
f 362 353 358 348
f 367 368 376 348
f 378 363 371 349
f 353 385 355 350
f 388 412 419 351
f 419 414 369 351
f 369 352 383 351
f 389 34 29 28
f 369 373 377 352
f 377 372 457 352
f 362 366 385 353
f 196 182 200 11
f 196 11 7 5
f 385 380 356 355
f 356 370 382 355
f 427 404 403 359
f 403 453 380 359
f 380 385 366 359
f 196 5 8 2
f 378 364 381 363
f 376 372 377 365
f 414 425 373 369
f 196 2 198 201
f 456 449 412 388
f 397 396 391 390
f 396 395 392 391
f 395 394 393 392
f 395 448 464 394
f 396 437 448 395
f 397 450 437 396
f 446 465 401 399
f 401 409 452 399
f 402 468 447 400
f 453 403 402 400
f 445 434 409 401
f 403 404 422 402
f 426 416 422 404
f 427 425 426 404
f 406 413 439 405
f 439 443 444 405
f 444 429 420 405
f 420 410 406 405
f 410 434 445 406
f 436 451 433 407
f 433 431 430 407
f 430 419 412 407
f 412 449 436 407
f 429 444 432 408
f 432 448 437 408
f 437 450 411 408
f 411 418 429 408
f 420 415 423 410
f 423 428 434 410
f 419 430 421 414
f 421 426 425 414
f 420 429 418 415
f 417 438 424 416
f 426 421 417 416
f 431 442 438 417
f 421 430 431 417
f 433 441 442 431
f 444 443 435 432
f 435 464 448 432
f 451 469 441 433
