v 1.262389252794033 -0.015971726884798 4.824443227323933
v 0.519481349276486 -0.006110656365250 4.971182052390596
v -2.818100159725960 -1.897311193869873 3.632115637076416
v 0.198485175890200 -4.364111659808048 2.392189560115063
v 1.314520586738345 -0.642690915074550 4.756913668220063
v -1.157056145506335 -0.578525246112509 4.810916761218513
v 2.078404587213933 -1.210135789281816 -4.355932780937135
v -2.066073931266176 -1.270119183203967 4.353914062750000
v 2.320977376433355 -0.756671060089087 4.338687049863840
v -2.005319022425835 -0.578264807930787 4.521599176912400
v -2.699760612351163 -2.573747254863480 3.294094634925149
v 1.457198926859330 -1.370104345162989 4.570310603530776
v 0.034478926697659 -1.078099537032154 4.878455490181812
v -2.551169119579741 -1.217425917089684 -4.082750987028987
v 0.187161303062250 -3.801071897289507 3.209174088303962
v 3.253784936881021 -0.846833437451483 3.679697307785957
v -2.012339585584092 -2.730609659929593 3.643446619599912
v 2.260786370880325 -0.037271372212048 4.451802572685558
v 3.503915627101517 -1.168886847095873 -3.325860958596993
v -3.715305635533741 -3.116899849466133 -1.128330062105318
v 1.301944505526245 -1.996806610597460 -4.375314722088671
v 2.382959033818794 -1.505748204975462 4.111708531694579
v 3.200362375764343 -1.573623603017766 3.478397065217488
v -4.617746552775657 -1.776882847533257 0.554278456761295
v -2.924497034456729 -0.523547687593580 3.989921756306170
v 0.631996961409508 -1.175551761701982 4.808815691128368
v -4.340893648396402 -0.257797731488757 2.425620063071094
v 3.126625534801015 -3.059944184211828 2.366979062470715
v 0.743480878775198 -4.487190794389655 -2.013414597913025
v -3.718725658036208 -3.282734154948066 0.529185580227147
v -1.303804788944054 -2.863670439103895 3.860409214589790
v -1.304247094879441 -2.046138735434631 4.349565081615909
v -2.896310514832455 -1.220527528114062 3.858531099879146
v -1.228909764675132 -1.235184554473533 4.667445018555306
v -3.640279403305748 -1.995541759436877 -2.739017410678928
v 3.974104076986867 -0.890005109897406 2.882592300210261
v -0.582554982285924 -2.969117802524718 3.959992927873692
v -3.332733314230073 -2.413622781468527 2.794485337612327
v -1.297425199324437 -3.633758898387244 3.146000764328237
v 0.086956015808063 -2.102559916233093 4.520112837237006
v 0.813966903459949 -2.168473129963067 4.414419882843942
v 3.268437149060386 -3.285162253245787 1.815474046139902
v 4.245084645038352 -2.065423515085561 -1.577787062321949
v -0.630168615634033 -4.700359511537589 1.528039919637606
v 0.961420242833378 -3.778983730123482 3.096430089421705
v 2.736392275343630 -3.263448725922709 -2.567049797698236
v 0.586007135337509 -2.775465618447024 -4.086066895071767
v -4.087095556437122 -1.763300463624974 2.231285098323818
v 3.260514469508688 -0.068152543759724 3.764678209298563
v -2.748202455261110 -3.587814293512090 2.088584874616243
v 3.373860390787070 -3.484803057950516 1.109826881162081
v -1.421395267415689 -4.530245316333440 1.478983726531895
v -1.343557518072934 -4.191989289684913 2.329531862924766
v 0.916231004877653 -4.889952539520721 -0.250120429737555
v -1.980920078443599 -3.454549360789655 2.997821973928663
v 4.550347713095830 -0.115488773585412 2.002158326468129
v 2.648501886482459 -4.038354340187920 1.224241811352806
v -0.604348553842875 -2.074125804530282 4.494109291315088
v -3.330123740764675 -3.093648131109300 2.032292401349457
v -3.780080675547070 -2.458638309985375 2.095602454540140
v -4.256172569236560 -1.029234170721616 2.355775844941761
v 0.069435532351633 -4.970082529868000 -0.246846857416272
v 4.016989680729683 -0.084161605789107 2.932379672967783
v 1.656816870327125 -4.571351762785778 -1.111848039983401
v -0.765147272884520 -4.027385882793575 -2.818592329717667
v 4.002256794413548 -2.774276596025210 1.021540510796159
v -2.293030017434809 -3.981217803869719 -1.927700771849588
v 4.968095429301158 -0.276101138797464 0.010046111678492
v -3.254733243211488 -1.245270756253636 -3.548125407683717
v 1.783638798121354 -4.643837603853983 -0.280277402656723
v -4.953133171193073 -0.060037179147494 0.583353112424568
v -1.525896397641439 -4.696328293795842 0.621957097456010
v -4.230918200602566 -2.565473697673495 0.526983105658818
v -4.576040607105401 -1.598253188493473 -1.195416601398088
v 4.873013159885268 -0.357009874002528 -0.947017613642220
v 3.410820081740293 -3.611939150796473 0.339079066170809
v -3.399629070807913 -0.538602165821790 -3.585005984657689
v 1.248799303569388 -0.466628280509805 -4.778550616556712
v -2.062717943633209 -1.987117655069886 4.079913012119450
v 1.292087294708122 -2.726256544272129 -3.957378533444313
v 4.257957285029926 -1.774401967939553 1.859676511921609
v 2.606215871013176 -4.226631463870135 -0.350290576433566
v 1.365755744335619 -3.938493416805774 -2.723449961863677
v -0.769891081177070 -3.446092007835144 -3.531844228195783
v -1.438604619921183 -3.304666404445702 -3.441326190245018
v 4.480180815633914 -0.962985897926177 1.967092894465479
v -0.754943878131739 -4.935269047370555 -0.243675619235045
v -4.316649620479208 -1.435347289643031 -2.043764184989587
v 3.389512568895024 -1.895980126601019 -3.113129446526807
v 2.281308308072355 -3.988491527028336 -1.900198011726774
v -0.116996730456237 -2.782344296498724 -4.135010908758393
v -0.252035172504016 -1.253764258687282 -4.812453075994028
v -0.178662070740148 -2.017021893106509 -4.540784495746760
v 3.030824072594593 -3.438319319137317 -1.951839016920511
v -1.986415536138083 -3.119825986195321 -3.330817364662460
v -0.832703373618239 -2.721461452730555 -4.085608706654773
v 1.965978979008666 -2.636832748383023 -3.735736927891641
v 2.587325586048639 -2.563575876562965 -3.385966331786980
v 2.484223999493949 -4.156086530504196 -1.149910515582446
v 3.373954971481057 -3.627220207432614 -0.474317299099631
v -4.067449356609067 -2.545841868060192 1.338951805620607
v -2.146555138728175 -3.636594368967420 -2.664598305271067
v 2.042161072930882 -1.936321116500030 -4.119026094748672
v 1.885095315084409 -3.256311668859606 -3.248679734226064
v -2.970325366278622 -3.503155598058116 -1.902474894027844
v -2.759375702407846 -3.219663448809271 -2.610463696697977
v 2.079347000390870 -3.684976569292958 -2.622115099341330
v 3.867618756004086 -2.580172406687700 1.778755293645292
v -3.100819493092394 -3.727444359336038 -1.112426964982727
v -3.556279316569271 -2.913565153562338 -1.935393976253820
v 0.452797148061714 -0.473132949913952 -4.931107023747071
v 0.993947319070646 -4.294544611251202 2.296043576064323
v -3.519205936490205 -1.795119131368799 3.033228200078458
v -4.747207366617005 -0.153454061690330 1.517452979290152
v 2.658435313437491 -4.176615375596521 0.447972573592957
v -2.409879226045383 -4.347773009617050 -0.269910211126145
v 4.867670641993068 -0.179604457929615 1.004385529148046
v 0.147769362611576 -3.040305822549450 3.952723801994577
v -4.758411051268132 -0.733622998905470 -1.250338163151079
v -0.567234699211713 -3.757985422775689 3.228044778607499
v -4.460587042797031 -0.637727363370193 -2.101306950081655
v 4.598870668333692 -0.395739870492132 -1.862640882369180
v -2.351854645758417 -4.359074572439597 0.578414188156021
v -1.517517839725687 -2.628971460540370 -3.945918869040286
v -2.676212369930477 -0.501318180133714 -4.159709044893241
v 1.490992887319108 -4.333920631015920 -1.944221395246688
v -3.271863750727528 -2.653730204370043 -2.646853464860451
v -3.057701742237121 -1.899160613217187 -3.443201888365850
v -1.527354619570123 -4.319411467997901 -1.961894870810299
v 1.786265412855516 -4.130546357113917 2.135953259016057
v -4.892771381084001 -0.853638759764559 -0.333733035565276
v 1.721806942069902 -3.682834147049637 2.889778374262571
v 3.633022817726632 -2.357937227311176 2.483140590876078
v -3.637299149884765 -1.115774566725817 3.203156531782227
v -4.005526500709330 -0.579704951835167 -2.886710281995572
v 4.147365228161115 -0.406324832302047 -2.717776619591537
v 3.533094183931533 -0.415034299869449 -3.475597516057683
v -1.468638191025499 -3.878327478536857 -2.751541688410777
v 3.158035420391474 -2.605945040547150 -2.823693006251421
v 0.821175395699058 -4.778500271587117 -1.142621744680968
v 3.832527276670938 -1.649507229362987 2.712168129671834
v 4.003809579624681 -2.900585014144655 -0.613660878925167
v 4.502693300809046 -1.233938434379819 -1.735798234459110
v 4.068216243110581 -2.879246917879370 0.203122626406567
v 1.623549477539104 -2.252486566162963 4.141798747048471
v 0.557556949465565 -2.027997877224950 -4.513674873940649
v 3.235483891171310 -3.565723093279593 -1.247152829287148
v 2.452678014225248 -3.464643304477494 2.621249291886720
v -0.071472468580632 -3.492755157109837 -3.554656692892249
v -3.866382240029630 -1.316891443289543 -2.848945267865796
v 2.569125017612058 -3.799571593019374 1.951017892202227
v 2.388856069777161 -2.959869734850647 3.234126860991642
v -2.385875645332680 -4.221360566267685 -1.117789802838251
v -0.707288886554908 -4.890314235298760 0.643905864508826
v 2.748418881022751 -1.898056986234725 -3.701876408910975
v 2.074536211588963 -0.453549260311620 -4.505543092428173
v 2.838737420427643 -0.431543863467538 -4.063455671897469
v -3.560693918960137 -3.227931609298639 1.320612782195281
v 4.762153588217631 -1.066228506947975 0.993847696486871
v -4.671189818903411 -1.722700935018615 -0.310221434240376
v -2.215580490191270 -4.234899122981832 1.404904067381866
v 0.016933928838325 -4.840055940987257 -1.156622882788705
v 4.472069627965136 -1.941815450617316 0.983055668284125
v 1.298589591591250 -3.393378261340500 -3.402052049341890
v -1.585822521378433 -4.577538495028409 -1.136279319854998
v -2.785156438574671 -2.466602649864519 -3.304784681281948
v 4.740059292708175 -1.240374476643748 -0.856812009700192
v -3.715868528724423 -0.389156932018837 3.284305705658952
v -1.583874922281676 -4.713296382456274 -0.256904603158038
v -2.580465618000462 -3.215020241799000 2.792095955536932
v 1.681234910215414 -3.052410793354990 3.579976642950765
v -1.898712836304112 -0.470477834097672 -4.571211742428547
v -3.770295008587965 -3.244347531108533 -0.300250485971951
v 4.540009419180058 -2.063532849530424 0.115989089662197
v 0.177065210438781 -4.738825746567171 1.531838562757599
v -3.085694666276758 -3.885918651192338 0.542566995681979
v 4.088041822791265 -1.201259627911165 -2.572897526327118
v 1.008859550688698 -4.650778599500685 1.472366412764035
v -4.851827819112733 -0.934654424647714 0.572696713080889
v -4.011303541224713 -2.205644297375404 -1.967226035310377
v 0.129485172791483 -4.938427667017535 0.643659556153775
v 4.832533170100419 -1.184722582273061 0.055501022976758
v -2.158474322059948 -2.514083525124569 -3.723423649337210
v 3.831236746752215 -2.846594778320157 -1.398417029743245
v -2.080794239870318 -3.947783508982251 2.207603318434766
v -1.656969908746714 -1.938551888282557 -4.283747575613701
v 2.399606593277769 -2.258655460451161 3.741471686901649
v -4.651566176786917 -0.973016241580522 1.465348431204277
v -0.544706236743912 -1.120628366413666 4.836263431929805
v 2.829373970413201 -1.180365497919473 -3.918562958593622
v 1.846260834445327 -4.593809322413595 0.543122240538299
v -0.781674903806531 -4.787280857619821 -1.151488927339757
v -1.095964772415964 -0.460204533014252 -4.831003820824460
v 3.107757362518901 -2.264357392359806 3.178313361634595
v 0.626400530600862 -3.470333199986749 -3.511757618496649
v 3.580236091377441 -2.731261758484083 -2.127270184352857
v 0.986175495066392 -4.847712333168424 0.610451161037020
v 4.462931784778442 -2.104752611579840 -0.749955714112883
v -2.373525550833090 -1.888832519027561 -3.951917442916122
v 1.301440502992733 -1.242033950629629 -4.636870097593466
v -4.436370993408600 -1.776269363199616 1.405351877364980
v -4.205513013444904 -2.396275695964180 -1.157305689245986
v 3.910193958370582 -1.973301293621602 -2.367680286050780
v -0.047461767445730 -4.087233628552466 -2.844104142629398
v -0.022820430564445 -4.543942706577609 -2.038646444325728
v 0.912765556712855 -3.075927387447735 3.830523841880144
v -0.781383321628130 -4.487845106413777 -2.021993863471562
v -4.276891352508587 -2.519853808726917 -0.310509029680560
v -0.915610691369979 -1.982934517820114 -4.472836890053707
v -0.500278338416067 -0.007253134147311 4.974532719941413
v -3.138034077722148 -3.859410493219021 -0.284704726570888
v -0.590443860223237 -4.325387791260076 2.401511057919643
v 0.677753340225242 -4.057009323776809 -2.816455068233193
v -2.949528864487281 -3.804968884442319 1.343392105946686
v -1.005373367988563 -1.225225091385089 -4.724434353555441
v -1.794431337991337 -1.218044066358251 -4.493416703258076
v 1.847794566897889 -4.428311510141885 1.356955449109651
v 0.510129313535005 -1.253964848548566 -4.795076312301823
v -0.321439742208918 -0.466706768783436 -4.931708835960507
v 0.000563290738601 0.500000000000000 4.584373782514316
v -0.000335661856181 0.500000000000000 3.370614087430306
v -0.000094606756936 0.500000000000000 3.771428013769223
v 0.000416434476796 0.500000000000000 4.186148335139961
v 0.500000000000000 -0.002792925372211 4.598818045975305
v 0.500000000000000 -0.498073242758357 4.174946153651374
v 0.500000000000000 -0.499036621379178 4.562346811825687
v 0.500000000000000 0.497126802114908 4.178015264427589
v 0.500000000000000 0.498563401057454 4.563881367213796
v 0.500000000000000 -0.000261430043611 3.371038659434106
v 0.500000000000000 0.498536054908017 3.393927159432314
v 0.500000000000000 0.497072109816035 3.787854318864625
v 0.500000000000000 -0.499021474082584 3.392403292214210
v 0.500000000000000 -0.498042948165168 3.784806584428421
v 0.500000000000000 -0.000724062205685 3.776273579737545
v 0.500000000000000 -0.001282084557044 4.197144976606642
v 0.000035243957667 -0.000011641245035 3.000000000000000
v -0.000018403774390 -0.500000000000000 4.583222043999669
v 0.000145447009955 -0.500000000000000 3.369419022052104
v 0.000129878215808 -0.500000000000000 3.769671976844154
v 0.000037388208092 -0.500000000000000 4.184397091021124
v -0.500000000000000 -0.003368544981528 4.592040634539911
v -0.500000000000000 -0.498194663768476 4.171500841990794
v -0.500000000000000 -0.499097331884238 4.560624155995398
v -0.500000000000000 0.497367403020901 4.173850015008037
v -0.500000000000000 0.498683701510451 4.561798742504019
v -0.500000000000000 -0.000595557978319 3.369304691275367
v -0.500000000000000 0.498671301590588 3.391802438980253
v -0.500000000000000 0.497342603181176 3.783604877960507
v -0.500000000000000 -0.499092501083833 3.390664112898868
v -0.500000000000000 -0.498185002167666 3.781328225797736
v -0.500000000000000 -0.000943857676532 3.772813848715970
v -0.500000000000000 -0.001183542136156 4.192423238584079
v -1.718126938115192 4.646097436471391 -0.366878914495626
v -3.348759014970629 1.560782675225979 -3.316981402961275
v 0.620092913675494 1.104586038017619 4.825856499230268
v -2.163352547993480 3.479326450013129 2.817860908177384
v -1.162931195656050 0.303695256438535 -4.817555737362128
v -1.162362978400139 0.014936480808402 4.844156579336642
v -3.889899081722362 1.576113554400873 -2.666535545563899
v 4.082911953889733 2.245377371935774 1.722976190811237
v -3.080827381857663 3.715720844021899 -1.146929648563041
v -4.731490984735334 0.906560517595766 -1.241476424210949
v -4.552078870507971 1.677581855142503 -1.189620863926284
v 3.945392495659500 1.176365372700624 -2.779159641948526
v 2.302302288313819 2.077750257561497 3.897262633968871
v -1.129741637607382 0.601892263324051 4.815899616882948
v 2.214350065228941 2.750267504540738 3.507743108820780
v -2.015789572850684 1.464162510488427 4.314230207434345
v 0.384197910120966 0.304510919385397 -4.938983228640407
v -0.391713068043128 0.309718089155829 -4.937849715057277
v -3.447640861496623 0.912891608956373 -3.465720678890891
v 0.070077004382269 2.053930675185949 4.540710106013273
v 1.883289827205563 1.054413278766159 -4.472056828496578
v 3.678133482354433 2.172800462240872 2.578280145724571
v -3.633153233703609 2.254295319219136 -2.541587129963782
v 4.327568239597845 2.312346015760133 0.839184524784597
v -0.507602382649406 1.858536993124120 -4.591920639015765
v 0.011103825391154 4.826185698863235 -1.234324935275808
v -0.460172437982285 1.093343935856675 -4.836297257780248
v -2.716196156738530 2.315337310187288 3.475915180683518
v 2.312070762905056 1.356689506003508 4.197881784082767
v 0.859038373782759 4.763865230689689 -1.220345814869580
v -2.291377542294480 3.987932301531453 -1.881469956863867
v 2.286247126488369 0.642719713055558 4.377361472013581
v -3.279337479419700 2.853360549763404 -2.413996678338065
v 4.846583436378474 0.525088892237450 -0.982494366425130
v 1.256729285915916 0.594486446676912 4.784307220873699
v -1.386143452608754 3.034582767587322 3.710331499491637
v -0.519109386059805 1.132101124377984 4.832152541784070
v -3.726233247881757 0.364072835629855 3.273963331467028
v 3.362550851239906 2.811109352861994 2.350798616136284
v -1.191624702822291 1.278960484807327 4.666642806463781
v -3.474072597833855 0.195086864014546 -3.563322610447541
v 0.785876031182770 2.953116435518091 3.936569291608822
v -1.968338814626513 0.063850714011826 4.568995596079104
v -1.958549465794993 0.713414363787851 4.533056784385450
v -1.968633301105449 0.278851818221602 -4.561897379152965
v -3.657271987851709 1.119292596092500 3.180471295285168
v 0.779516295988002 3.701753723782200 3.245926461428912
v 4.565600296655577 0.454326414966369 -1.911921857693033
v -2.915725944209133 0.176815414756911 4.029963410243145
v -0.609017017553299 2.116615000616445 4.478318077778848
v 0.776717989803643 4.280264321313875 2.426709930736752
v -2.424293677191911 4.144948821571422 1.320030369795066
v -2.850035439941912 1.642638056854680 3.747647015873640
v 0.798883233459535 4.678851069069403 1.510668184950645
v 2.444868299944019 1.733061838698839 -3.974576328751487
v 1.517104358258049 2.089637809097683 4.273441773758169
v 0.008951145293009 3.764165161463973 3.264798222849796
v -1.290441434244288 2.552975359865300 -4.066366520956961
v 0.835225613497908 4.876945248366511 0.550467669952452
v -1.654334468802486 4.485252896049264 1.400550851448896
v -2.742572318356086 0.234870367483453 -4.149664417722020
v -2.054290545241477 2.976451745256765 3.425434341780805
v 1.545612688867693 4.109945184661385 2.354032027398124
v -4.441912881061779 0.904961971520395 -2.038163931920398
v 1.531163626581586 2.868060822160118 3.779621419575518
v -2.798320542203006 3.158660560717269 2.634626830228634
v -1.723277357749062 4.643025252146537 0.504541937042740
v 2.240488477722956 3.853946902134188 2.218943199030186
v 3.214201052018076 3.646993355385266 -1.066091761027009
v 0.046893951971530 3.011383397156450 3.974790702996843
v 1.610957056524309 4.475956555059726 1.466018367269692
v -0.894448230105941 4.865394505509303 0.539530589387306
v 1.612680141497761 4.264539862500392 -1.992476518619898
v -2.490020687437479 4.279667695040104 0.456229599092893
v -0.867463396819058 4.748991238898385 -1.203212712218368
v 3.244680896475038 0.693843889990493 3.717141189678453
v -0.742833511719452 3.759050946798628 3.181552830899310
v -4.817934642605072 0.112869416234820 -1.281099021477916
v 2.005269699765957 0.304439512716786 -4.547018846379991
v 0.831046143430108 3.978584377405495 -2.862493753544115
v -3.684486181877650 3.138929408403437 -1.141782889757226
v 2.226026755226337 3.556250623649104 -2.672341371536701
v -2.562295631705516 2.894928097578774 -3.130351053333274
v -0.031361626620195 4.948394056743424 0.555516249417025
v 3.063952107610192 3.442784923786741 -1.868522240659832
v 1.541108276193976 3.828524502803266 -2.777382426788735
v -3.188869981123649 2.137524764039770 -3.154156282660464
v -3.196430931207251 3.783462849812377 0.436066399814565
v -2.042039979625459 3.120665901559519 -3.301773308729482
v -2.597098456408801 2.271727353693892 -3.587678653047428
v 3.719332548565102 1.902232756854994 -2.709379932554026
v -1.964870712913764 2.430709893204064 -3.868950486390630
v 0.843990517191228 4.456685961153203 -2.058851763181465
v 0.116394018291492 3.404969362311634 -3.646299855685598
v -3.510383839272981 3.036096636717657 -1.799838211194210
v -1.369155933762157 3.284073253946257 -3.476481448384005
v -0.639425178943546 3.380980224583423 -3.603550513906761
v 2.076264739048445 3.070664714279701 -3.316651295234161
v -3.227899426240140 2.550480632193304 2.805226049546671
v 0.857534266123990 3.337450995980891 -3.587628213264555
v 4.416847452797985 1.252888827440586 -1.910860398265159
v 3.685595891877454 2.777711287685797 -1.849148365949262
v 3.869440567696757 1.462790593399859 2.760786481997745
v -0.016399214660382 4.966832218129126 -0.360679965212105
v -4.182079393369023 2.434383404130821 -1.151697675027418
v -0.028593627977005 4.342659298253531 2.435206253642863
v 4.151128492893244 2.021695585754085 -1.852373944163451
v 3.864777749860839 2.958739586374062 -1.021027131760770
v -3.571171032043795 2.785505387713828 2.064225958324139
v 3.245710168023242 3.735905161493448 0.659805396951493
v -2.491964364066034 4.292436026949581 -0.389232039941016
v 4.757541319288596 1.475152228982826 -0.044282491618805
v -3.829307142790287 3.139798221512869 0.453815517014410
v -4.331200741709789 2.447915199994132 -0.379062458639508
v -3.798778887245512 3.206966848361493 -0.404376301840591
v -3.751120350003854 3.006562057387248 1.301818943630630
v 0.918990154519221 2.604634465204420 -4.136997190956594
v -2.715350593780124 3.371909900461000 -2.484564956831489
v -2.123951341648501 3.695397029849608 -2.586774802845577
v 2.388621292301393 4.120089117043756 1.440462530712244
v -4.881487824183170 0.782271705231933 0.568805041551794
v 3.927765923855735 3.060448131786945 -0.143849603503616
v 4.002319402395533 0.718672005500039 2.893999307611391
v -3.507853735633919 1.846079477532101 3.006830234044282
v -4.885438780876301 0.871405544409983 -0.373323213996104
v -4.977361327646568 0.025241968560080 -0.352365276722523
v -1.464660539889686 3.682754193828345 3.013793988060948
v 4.420967186144680 2.291063520708669 -0.093042143644394
v -0.042726583050585 4.749695638112048 1.524253705742836
v 0.860129589018622 4.892536609823502 -0.350106034864382
v 4.835432332341661 0.680169540985992 0.988200064382998
v 4.937093925174244 0.618059443977885 -0.019279395943477
v -4.690574022960437 0.667920146013158 1.506286444449004
v -3.966629731403851 2.053437636850816 2.204191274961219
v 0.063660920690250 4.049870211274254 -2.891687673390447
v 3.851096440236148 3.060480696958254 0.749099258636552
v 1.534549220549700 3.222598067170464 -3.472222991795539
v -2.989285888438239 3.431090062700306 2.023521369298126
v 2.473916246875385 4.172973664671618 -1.117456995408627
v 2.833714101341792 3.185018605968360 -2.575433244586595
v -4.333653979570530 2.397360204240695 0.493706756646038
v -0.721107880375845 4.017974398009059 -2.845355358795276
v -2.933876806966905 3.591294565638172 -1.836658911253629
v -0.864452242229493 4.686371369240533 1.488446240939158
v -3.128387897963236 3.660458051862887 1.273034431471618
v -2.904806572751317 0.919576499157811 3.936014362467307
v 0.177554317574622 2.632934344581965 -4.226836697771790
v 4.527172274290431 0.712533415306423 1.979008636622777
v -3.181085459061987 3.817364296442290 -0.413368829876847
v 2.872591328231407 2.715409186675934 3.024954242101616
v -0.802842114127270 4.470373639629980 -2.030550354570877
v -1.582769817110551 4.309652707027838 -1.936892995279436
v -4.315232861355396 0.529539840685402 2.415474664012817
v 4.647190922887221 1.515910237494841 0.922678787791138
v 3.279154621879354 3.750853775832509 -0.210327102116690
v 2.364565137085041 3.937479022833624 -1.919626802818454
v -2.417505782411194 4.194647901026133 -1.151311431302151
v -2.701710535648353 1.633174708408699 -3.855885628260749
v 3.066386662220377 2.101790920621015 3.327470017479776
v -3.960099329557893 2.357505453766438 -1.870834228352612
v 1.679986792676105 4.650209904045409 0.553886899301958
v -1.292494492029785 2.186315564086029 4.287662467005301
v 3.334943821263169 1.099011458365406 -3.517415156068941
v 1.181401063561687 0.305815228362773 -4.825013172872428
v 3.406528970970966 2.563074827364675 -2.578359427280887
v 1.518412450115803 3.570320659800720 3.130522838349775
v -1.458938502697006 3.895453191051019 -2.725694614681434
v -4.521265659197274 0.154112673143484 -2.096480438095821
v 4.363045946310551 2.187662659476442 -0.991607454487777
v 2.489919997028329 4.268750775869840 0.586864445691792
v -4.675853740396281 1.674911131468929 -0.375524217116291
v 3.475249015438623 0.359222132903406 -3.538337060055713
v 2.776183253344024 0.326605639250543 -4.119312986468847
v 4.103176382177166 0.402590461181056 -2.786676002601842
v 2.887192589210589 3.397688027708878 2.215827380705753
v -4.221306105481189 2.260092121273614 1.373126021045385
v -0.901616824576077 4.883240836481442 -0.369984873312298
v 3.656367454140795 2.966908396512179 1.604250994415849
v 0.767683815200568 2.041849584264963 4.486818700347619
v -0.563320574068003 2.618648024915542 -4.198814442039817
v -4.020919437283404 0.900348765309024 -2.790215469249461
v 2.259259675743140 2.411883146514892 -3.724475799001949
v 1.620759458443247 2.524309802649510 -3.977402288166212
v 0.242809191527494 1.865846621478516 -4.606212754845785
v 4.355391074301774 1.502944034400042 1.876952008301436
v 3.184339970185739 1.414283154761051 3.560971544943422
v -0.676941795503371 3.042533579405760 3.894321800301272
v 1.384665943970430 1.264032916695107 4.621634233555366
v -1.562754839068077 4.157990501961739 2.250369403490510
v 4.694398585522437 1.368138159469686 -0.987609738090413
v 0.051929688104389 1.070466078238433 4.876683659416094
v -4.072015718055640 0.166559193025242 -2.873353281103169
v 3.102207063914117 3.596663239095929 1.504645757966233
v -1.242862935682262 1.809208237618916 -4.482169630290003
v 3.114244043204915 1.796007924595892 -3.445094640239093
v -2.292070591047938 3.887012162600393 2.106697066190765
v -1.994451504177204 2.240749971804376 3.977162571488216
v -0.811508517428818 4.301696642856935 2.369671191638244
v -2.757774334336018 0.958128690054891 -4.034319404401792
v 0.313073935541468 1.090410180284452 -4.848505040775560
v 1.710912557474960 4.668412706766645 -0.321370519176677
v -4.273263777165305 1.645163368117533 -1.965882948385763
v 2.166705312332429 3.389622320037812 2.958273137737524
v 2.515572479220202 4.284472840327091 -0.275058257453979
v 2.644097208766937 1.056158155130535 -4.084686178723242
v 0.988089742133553 1.834262712170641 -4.521629631585625
v -4.536980930043864 1.476907371047218 1.454654052577402
v 1.712447099853216 1.773813654947306 -4.323374988088262
v 0.035306913481970 4.518840476264825 -2.074711068135262
v -1.221313340117360 1.066008200682989 -4.706556526999094
v -1.665226262072478 4.553229921329320 -1.152101381198851
v -4.204717183026330 1.307371351541979 2.347319998467450
v 2.845021170172343 2.410750297291951 -3.303747753019660
v -1.996562219006051 1.740791846038352 -4.219882519059302
v 1.688674572787146 4.543335149989241 -1.175721400393281
v 1.082872714757938 1.064903737678581 -4.743299969808881
v -4.689553043251629 1.609465695104644 0.535170384951542
v -2.002388909874970 1.021780712524297 -4.446617150823536
v 0.000000000000000 -0.500000000000000 4.949747470000000
v 0.000000000000000 0.500000000000000 4.949747470000000
v 0.000000000000000 0.500000000000000 3.000000000000000
v 0.500000000000000 0.000000000000000 3.000000000000000
v -0.500000000000000 0.000000000000000 3.000000000000000
v 0.000000000000000 -0.500000000000000 3.000000000000000
v 0.500000000000000 -0.500000000000000 4.949747470000000
v -0.500000000000000 -0.500000000000000 4.949747470000000
v 2.980174130000000 -2.863598760000000 2.813958830000000
v -3.082057770000000 -2.949495020000000 2.607949200000000
v 2.392873180000000 -3.128753510000000 -3.079782370000000
v -2.476839550000000 -2.923952050000000 -3.211817280000000
v -0.500000000000000 0.500000000000000 4.949747470000000
v 0.500000000000000 0.500000000000000 4.949747470000000
v 0.500000000000000 0.500000000000000 3.000000000000000
v -0.500000000000000 0.500000000000000 3.000000000000000
v 0.500000000000000 -0.500000000000000 3.000000000000000
v -0.500000000000000 -0.500000000000000 3.000000000000000
v -3.020842230000000 2.643561440000000 -2.980955400000000
v -2.628579940000000 2.902226630000000 3.109284180000000
v 2.544581300000000 2.933866340000000 -3.149211700000000
v 2.684333430000000 3.174553500000000 2.777870430000000
f 287 484 2 1
f 2 477 5 1
f 5 9 18 1
f 18 284 287 1
f 484 228 224 2
f 224 226 477 2
f 33 134 113 3
f 113 38 11 3
f 11 17 79 3
f 79 8 33 3
f 15 120 212 4
f 212 44 175 4
f 175 178 112 4
f 112 45 15 4
f 477 26 12 5
f 12 22 9 5
f 258 295 10 6
f 10 8 34 6
f 34 189 478 6
f 478 210 258 6
f 103 21 200 7
f 200 78 156 7
f 156 157 190 7
f 190 155 103 7
f 10 25 33 8
f 79 32 34 8
f 22 23 16 9
f 16 49 18 9
f 295 301 25 10
f 38 480 170 11
f 170 55 17 11
f 26 41 145 12
f 145 187 22 12
f 471 478 189 13
f 189 58 40 13
f 40 41 26 13
f 26 477 471 13
f 125 172 216 14
f 216 186 199 14
f 199 128 69 14
f 69 77 125 14
f 118 37 120 15
f 45 206 118 15
f 23 141 36 16
f 36 63 49 16
f 55 39 31 17
f 31 32 79 17
f 49 328 284 18
f 137 136 177 19
f 177 203 89 19
f 89 155 190 19
f 190 157 137 19
f 202 180 110 20
f 110 105 109 20
f 109 211 173 20
f 173 208 202 20
f 80 47 146 21
f 146 218 200 21
f 103 97 80 21
f 187 194 23 22
f 194 133 141 23
f 179 131 160 24
f 160 208 73 24
f 73 101 201 24
f 201 188 179 24
f 301 290 168 25
f 168 134 33 25
f 405 385 114 27
f 114 188 61 27
f 61 134 168 27
f 168 290 405 27
f 479 152 148 28
f 148 151 42 28
f 42 108 133 28
f 133 194 479 28
f 140 162 205 29
f 205 204 213 29
f 213 83 126 29
f 126 64 140 29
f 73 208 173 30
f 173 211 176 30
f 176 214 158 30
f 158 101 73 30
f 39 120 37 31
f 37 58 32 31
f 58 189 34 32
f 150 69 128 35
f 128 166 127 35
f 127 110 180 35
f 180 88 150 35
f 141 81 86 36
f 86 56 63 36
f 118 40 58 37
f 113 48 60 38
f 60 59 480 38
f 55 185 53 39
f 53 212 120 39
f 118 206 41 40
f 206 171 145 41
f 151 57 51 42
f 51 66 108 42
f 143 167 198 43
f 198 142 184 43
f 184 196 203 43
f 203 177 143 43
f 212 53 52 44
f 52 72 154 44
f 154 181 175 44
f 112 130 132 45
f 132 171 206 45
f 94 90 107 46
f 107 104 481 46
f 481 98 139 46
f 139 196 94 46
f 195 149 91 47
f 91 93 146 47
f 80 164 195 47
f 61 188 201 48
f 201 101 60 48
f 113 134 61 48
f 63 375 328 49
f 170 480 59 50
f 59 158 214 50
f 214 161 185 50
f 185 55 170 50
f 57 115 76 51
f 76 144 66 51
f 53 185 161 52
f 161 123 72 52
f 197 181 62 54
f 62 162 140 54
f 140 64 70 54
f 70 191 197 54
f 400 375 63 56
f 86 159 117 56
f 117 383 400 56
f 151 130 217 57
f 217 191 115 57
f 60 101 158 59
f 181 154 87 62
f 87 192 162 62
f 126 90 99 64
f 99 82 70 64
f 207 129 138 65
f 138 85 84 65
f 84 149 204 65
f 204 205 207 65
f 163 81 108 66
f 144 174 163 66
f 153 109 105 67
f 105 106 102 67
f 102 138 129 67
f 129 165 153 67
f 384 383 117 68
f 117 159 182 68
f 182 167 75 68
f 75 286 384 68
f 150 135 77 69
f 82 115 191 70
f 373 377 378 71
f 378 131 179 71
f 179 188 114 71
f 114 385 373 71
f 123 116 169 72
f 169 87 154 72
f 119 121 88 74
f 88 180 202 74
f 202 208 160 74
f 160 131 119 74
f 167 143 122 75
f 122 300 286 75
f 115 82 100 76
f 100 142 144 76
f 293 313 125 77
f 135 444 293 77
f 416 331 156 78
f 200 218 111 78
f 111 269 416 78
f 97 104 164 80
f 141 133 108 81
f 163 159 86 81
f 99 147 100 82
f 213 195 164 83
f 164 104 107 83
f 107 90 126 83
f 85 124 96 84
f 96 91 149 84
f 138 102 95 85
f 95 183 124 85
f 169 165 192 87
f 121 135 150 88
f 203 196 139 89
f 139 98 155 89
f 94 147 99 90
f 96 209 93 91
f 219 111 218 92
f 218 146 93 92
f 93 209 215 92
f 215 193 219 92
f 196 184 147 94
f 482 166 183 95
f 102 106 482 95
f 124 186 209 96
f 103 155 98 97
f 98 481 104 97
f 147 184 142 100
f 110 127 106 105
f 127 166 482 106
f 153 116 211 109
f 219 270 269 111
f 178 217 130 112
f 123 176 211 116
f 153 165 169 116
f 330 420 121 119
f 131 378 330 119
f 420 444 135 121
f 143 177 136 122
f 136 426 300 122
f 161 214 176 123
f 183 199 186 124
f 313 297 172 125
f 199 183 166 128
f 207 192 165 129
f 151 148 132 130
f 148 152 171 132
f 137 424 426 136
f 157 425 424 137
f 198 174 144 142
f 171 152 187 145
f 195 213 204 149
f 479 194 187 152
f 331 425 157 156
f 163 174 182 159
f 192 207 205 162
f 182 174 198 167
f 297 257 193 172
f 193 215 216 172
f 181 197 178 175
f 197 191 217 178
f 216 215 209 186
f 257 270 219 193
f 483 266 258 210
f 478 243 241 210
f 241 245 483 210
f 228 484 472 220
f 472 483 245 220
f 245 244 223 220
f 223 227 228 220
f 230 231 222 221
f 222 248 247 221
f 247 486 473 221
f 473 485 230 221
f 231 227 223 222
f 223 244 248 222
f 228 227 235 224
f 235 225 226 224
f 240 237 226 225
f 235 234 233 225
f 233 239 240 225
f 237 471 477 226
f 231 234 235 227
f 232 233 234 229
f 234 231 230 229
f 230 485 474 229
f 474 487 232 229
f 238 239 233 232
f 487 476 238 232
f 473 486 475 236
f 475 488 476 236
f 476 487 474 236
f 474 485 473 236
f 243 478 471 237
f 240 242 243 237
f 249 250 239 238
f 476 488 249 238
f 250 242 240 239
f 243 242 252 241
f 252 244 245 241
f 250 251 252 242
f 252 251 248 244
f 247 248 251 246
f 251 250 249 246
f 249 488 475 246
f 475 486 247 246
f 463 409 363 253
f 363 326 319 253
f 319 324 429 253
f 429 327 463 253
f 339 342 410 254
f 410 451 271 254
f 271 433 259 254
f 259 275 339 254
f 431 272 443 255
f 443 472 484 255
f 484 287 440 255
f 440 308 431 255
f 448 390 318 256
f 318 490 314 256
f 314 288 379 256
f 379 441 448 256
f 462 279 270 257
f 297 470 462 257
f 266 296 295 258
f 433 316 454 259
f 454 412 275 259
f 430 291 274 260
f 274 355 437 260
f 437 406 276 260
f 276 388 430 260
f 409 283 395 261
f 395 347 333 261
f 333 367 401 261
f 401 363 409 261
f 263 454 316 262
f 316 420 330 262
f 330 378 377 262
f 377 423 263 262
f 357 412 454 263
f 423 366 357 263
f 343 359 353 264
f 353 300 426 264
f 426 424 415 264
f 415 447 343 264
f 267 317 308 265
f 308 440 281 265
f 281 438 411 265
f 411 402 267 265
f 292 268 296 266
f 483 289 292 266
f 455 418 317 267
f 402 492 455 267
f 449 280 305 268
f 305 398 296 268
f 292 414 449 268
f 452 468 416 269
f 270 279 452 269
f 451 313 293 271
f 293 444 433 271
f 322 439 302 272
f 302 289 443 272
f 431 294 322 272
f 331 416 468 273
f 468 458 460 273
f 460 307 457 273
f 457 425 331 273
f 291 402 411 274
f 411 438 355 274
f 285 489 339 275
f 412 347 285 275
f 406 364 380 276
f 380 374 388 276
f 432 399 436 277
f 436 452 279 277
f 279 462 446 277
f 446 310 432 277
f 461 403 327 278
f 327 429 356 278
f 356 382 282 278
f 282 345 461 278
f 490 318 351 280
f 351 376 305 280
f 449 314 490 280
f 440 287 284 281
f 284 328 438 281
f 382 453 467 282
f 467 325 345 282
f 404 419 371 283
f 371 370 395 283
f 409 463 404 283
f 370 335 489 285
f 347 395 370 285
f 442 364 384 286
f 300 353 442 286
f 314 449 414 288
f 414 302 439 288
f 439 329 379 288
f 302 414 292 289
f 483 472 443 289
f 298 464 405 290
f 301 398 298 290
f 427 492 402 291
f 430 445 427 291
f 299 309 322 294
f 431 308 317 294
f 317 418 299 294
f 296 398 301 295
f 313 451 470 297
f 376 386 464 298
f 398 305 376 298
f 303 358 309 299
f 418 315 303 299
f 306 381 358 303
f 315 323 306 303
f 326 340 397 304
f 397 390 448 304
f 448 441 312 304
f 312 319 326 304
f 311 336 381 306
f 323 413 311 306
f 460 435 434 307
f 434 465 447 307
f 447 415 457 307
f 358 450 329 309
f 329 439 322 309
f 446 466 344 310
f 344 341 348 310
f 348 349 432 310
f 382 356 336 311
f 413 453 382 311
f 441 450 396 312
f 396 324 319 312
f 418 455 320 315
f 320 372 323 315
f 433 444 420 316
f 390 361 351 318
f 455 492 427 320
f 427 445 372 320
f 337 408 391 321
f 391 456 407 321
f 407 374 360 321
f 360 354 337 321
f 372 422 413 323
f 396 381 336 324
f 336 356 429 324
f 338 332 345 325
f 467 391 408 325
f 408 334 338 325
f 363 401 340 326
f 403 404 463 327
f 375 355 438 328
f 450 441 379 329
f 352 346 387 332
f 387 461 345 332
f 338 389 352 332
f 347 412 357 333
f 357 366 367 333
f 350 389 338 334
f 408 337 392 334
f 392 491 350 334
f 370 371 341 335
f 341 344 342 335
f 342 339 489 335
f 354 417 392 337
f 401 367 365 340
f 365 368 397 340
f 371 419 348 341
f 344 466 410 342
f 417 354 359 343
f 447 465 417 343
f 399 432 349 346
f 349 394 387 346
f 352 369 399 346
f 419 394 349 348
f 434 435 389 350
f 491 465 434 350
f 361 386 376 351
f 389 435 369 352
f 359 421 442 353
f 360 421 359 354
f 375 400 437 355
f 381 396 450 358
f 374 380 421 360
f 390 397 368 361
f 368 428 386 361
f 407 456 422 362
f 422 372 445 362
f 445 430 388 362
f 388 374 407 362
f 406 383 384 364
f 442 421 380 364
f 367 366 393 365
f 393 428 368 365
f 423 469 393 366
f 458 436 399 369
f 435 460 458 369
f 469 423 377 373
f 385 459 469 373
f 406 437 400 383
f 405 464 459 385
f 428 459 464 386
f 394 403 461 387
f 467 453 456 391
f 417 465 491 392
f 469 459 428 393
f 419 404 403 394
f 466 470 451 410
f 422 456 453 413
f 424 425 457 415
f 458 468 452 436
f 462 470 466 446
