v 1.511051179879793 -2.848334292722376 1.810772183691887
v 2.367601427792850 -3.641218895711757 1.581260239679437
v 2.376247467767580 -0.976204545196065 1.578943537315583
v 4.930247402087117 -1.724397602369457 0.894601312696948
v 4.081852238517483 -3.474966002898059 1.121928114102292
v 4.079324463469767 -2.624095939291573 1.122605431382863
v 3.226777999458505 -2.682316794552889 1.351044567073503
v -1.044599166897509 -3.080624383289112 2.495556629868034
v 4.925942015496148 -2.582414082589375 0.895754937578255
v -1.056028891357142 -2.176091448424609 2.498619215265879
v 4.929497066173437 -3.423549505376383 0.894802364394941
v 2.372038554813803 -1.873873242237210 1.580071311435606
v 2.365573726724080 -4.513695652752547 1.581803558178176
v 1.505319190424466 -4.631076416382967 1.812308067958037
v 1.511047027126362 -1.958672951262207 1.810773298804348
v 2.384210938435728 -0.060636759092858 1.576809734189153
v 1.512209927105988 -0.173285342062704 1.810461699556979
v 3.227766347824010 -4.404313737073846 1.350779739055334
v 4.085395285531082 -1.749351109134414 1.120978759557768
v 0.640437231315408 -0.282298286217549 2.044052488335831
v 0.647800207671971 -4.753208043304385 2.042079585612345
v 0.653404349647219 -3.841557787266928 2.040577958445502
v 2.369320078731188 -2.761532602694580 1.580799725412315
v -0.198719140525154 -3.019771791644979 2.268903757456074
v -1.041195232324406 -4.013652299742690 2.494644548262369
v 4.949396976447439 -4.235045718216488 0.889470199479866
v 4.947444612355901 -0.855624277473240 0.889993333635663
v 0.647027937350201 -1.158454660491818 2.042286510588254
v 4.099216327077841 -0.855166233275826 1.117275420482421
v -0.215188383598029 -1.240444496886918 2.273316679684109
v 1.511141090834651 -1.067708759930870 1.810748092974376
v -0.204622330891839 -2.120352643693720 2.270485511557057
v 0.652110618937551 -2.043156328236661 2.040924612009984
v 0.654503806071517 -2.937444370462568 2.040283357824180
v 3.230774702158229 -1.800726445556796 1.349973651512373
v 3.226374801672396 -3.549249853475814 1.351152604919347
v 1.509443423320519 -3.739897226593286 1.811202978458471
v 4.090995373509681 -4.308670726231326 1.119478217751933
v 3.239546474742033 -0.899706040731135 1.347623263829140
v -0.198217805061615 -3.938663694020275 2.268769426557921
v -0.229417721838957 -0.381335390378311 2.277129418993782
v -0.205656210569388 -4.879272602165337 2.270762542518929
v 3.278662555740964 0.000000000000000 2.384449641256410
v 2.396624988660220 0.000000000000000 2.460838516053818
v 4.122024367058847 0.000000000000000 1.239247632923257
v 3.254432604096087 0.000000000000000 1.390747235895905
v 4.156068993576731 0.000000000000000 2.348603550320256
v 5.000000000000013 1.694357521211653 1.272013111312328
v 4.999999999999996 2.536981390385118 0.340339979333869
v 4.999999999999995 2.544852447082524 1.312006319137850
v 5.000000000000009 3.390846187701442 1.346512917546712
v 5.000000000000008 1.702883739377598 2.271347027667009
v 5.000000000000003 -0.862888332357068 -0.771731035871698
v 4.999999999999991 0.831046444169763 -1.601332765278228
v 4.999999999999990 3.377858137863448 -0.586831803889184
v 5.000000000000000 -0.008934585264296 0.114681615286610
v 4.999999999999996 -1.714317193169872 0.083944199709395
v 4.999999999999996 -1.710431889189656 -0.780919990012138
v 4.999999999999972 1.679482887199145 -1.573839973544454
v 4.999999999999989 -1.711261957467079 -1.653905150229474
v 5.000000000000004 1.676590440244603 -2.486665490008471
v 5.000000000000011 -0.017579858245349 -1.626547786699944
v 5.000000000000004 -2.553850671898064 -0.782699245027341
v 5.000000000000032 3.371527182710846 -1.533177218401158
v 5.000000000000003 2.524670762812612 -2.474016257912838
v 5.000000000000007 4.229548418377206 0.393087420870075
v 4.999999999999982 3.368754387343227 -2.468058927893144
v 4.999999999999993 2.560398267801051 2.291861017304607
v 5.000000000000007 -0.865473986282727 -1.644557966548482
v 5.000000000000000 -3.389235417840886 -1.650003854389327
v 5.000000000000000 -2.553657079356499 -1.655996323770898
v 4.999999999999992 2.531138902575745 -0.613268541925573
v 4.999999999999987 3.407646616214706 2.325935635569429
v 4.999999999999996 -0.860968383666621 0.085927366502557
v 4.999999999999998 -3.401722552766170 0.084386673984099
v 4.999999999999998 -2.563822607951761 0.084401303687379
v 5.000000000000007 1.688765376258202 0.286947582566214
v 5.000000000000019 4.225629225637331 -0.570054678190814
v 5.000000000000005 0.840302882305209 0.204158420351531
v 5.000000000000004 4.228988085590665 2.386004325558494
v 5.000000000000001 4.199393188048097 -2.474206337830327
v 4.999999999999997 1.683648978693600 -0.653316787358484
v 4.999999999999995 -0.013522140205158 -0.746820807054448
v 4.999999999999994 0.835428049980213 -0.702863496391585
v 5.000000000000000 -4.226750529706476 0.081245731239287
v 5.000000000000014 0.841263383608916 2.288944377073409
v 5.000000000000004 -3.392068833517947 -0.779394477126663
v 5.000000000000012 4.227667937636296 1.377692928046163
v 4.999999999999964 2.526902984413947 -1.548906488018809
v 5.000000000000000 -4.218965880915150 -1.636720403906882
v 5.000000000000013 3.383488012234688 0.371696762167329
v 5.000000000000009 0.844301469574869 1.194929091143996
v 4.999999999999988 4.213459665222752 -1.523920263354873
v 4.999999999999999 -4.225379629966801 -0.771068236849126
v 2.348915777517616 -5.000000000000000 0.302653526160667
v 3.217560760526965 -5.000000000000002 0.223359166603389
v -1.084137334009945 -4.999999999999996 1.472468826770543
v -0.226796674865506 -5.000000000000012 1.426191944488917
v -2.896569507932528 -5.000000000000016 -0.420144703503604
v -2.778471581995676 -5.000000000000000 1.489685068403412
v -2.023441871921953 -5.000000000000009 -0.406510750553406
v -1.190529642821597 -5.000000000000000 -1.324002361609252
v 3.202277538521899 -4.999999999999997 -2.362008366486063
v 1.464961897720897 -5.000000000000009 -0.520818266172073
v 1.450319398189195 -4.999999999999988 -1.404361945682119
v 2.328397899131756 -4.999999999999997 -1.450084531418046
v -2.074535306784130 -5.000000000000011 -1.325709408377197
v 0.592288678491574 -4.999999999999987 -0.471669810575053
v -1.977679410416343 -5.000000000000009 0.531444181059513
v -2.118728222090947 -4.999999999999988 -2.222773383511898
v -0.309085830920909 -4.999999999999990 -1.338732070857093
v -4.531290399645835 -4.999999999999996 0.465195931103532
v 4.087289219145740 -5.000000000000001 0.147426699000788
v 0.571203194092385 -4.999999999999996 -1.366609687709738
v 2.319298063839085 -5.000000000000001 -2.318731269815435
v 3.205242228299880 -5.000000000000002 -1.501997043156935
v 0.551904430206009 -4.999999999999996 -2.250506401523079
v -2.962980427383766 -5.000000000000013 -1.347339209395423
v -1.223488198900476 -5.000000000000018 -2.218254361166191
v 1.436116546939060 -5.000000000000009 -2.281250616428357
v -3.025775469956326 -5.000000000000000 -2.247399455153700
v -2.747080877971549 -4.999999999999989 2.465469401606434
v -3.682552334600095 -4.999999999999986 0.503079357989613
v -0.334211743100457 -5.000000000000023 -2.228644159181484
v -0.279836523305113 -5.000000000000000 -0.433719669360918
v -1.151415833226742 -4.999999999999993 -0.410328182797308
v -1.054108114785144 -5.000000000000011 2.487304238729196
v 3.225404167984407 -5.000000000000002 1.091050372282531
v 4.934052009672658 -5.000000000000001 -0.743916545878178
v 0.632850899415264 -4.999999999999996 1.357834481247010
v 1.494855081397415 -4.999999999999998 1.277203724375060
v -3.558560917108497 -5.000000000000005 2.466429109836285
v 2.359038766729517 -5.000000000000002 1.186894532617306
v 4.943453643291697 -4.999999999999997 -1.605767052952500
v -1.909381270946323 -4.999999999999995 2.471428890678871
v -4.632470408487105 -5.000000000000012 -0.499292428481016
v -1.117178228325481 -5.000000000000000 0.518589204725851
v -4.311748137927482 -4.999999999999993 2.477434018805786
v 4.946183095178577 -4.999999999999999 0.092896414171518
v 4.088335520506991 -5.000000000000004 -2.413117788463665
v -1.936335973098393 -5.000000000000007 1.492672170686022
v 2.337372201416773 -5.000000000000000 -0.578825866442278
v -3.767734131598983 -5.000000000000008 -0.452871604250936
v 4.079730763348493 -4.999999999999999 -1.556063743334545
v 4.096442032611057 -4.999999999999999 0.987090474007170
v -0.252810258370414 -4.999999999999993 0.484571081397598
v 1.479859823437395 -4.999999999999989 0.371854111825210
v 0.613041500842304 -5.000000000000003 0.434386008119266
v -4.750680947229036 -5.000000000000017 -1.462576318589373
v 4.077492519169450 -4.999999999999996 -0.698381179455881
v -4.424689444485047 -5.000000000000017 1.452176359819025
v -2.831026738426742 -5.000000000000011 0.526253339578294
v -3.956397244694124 -5.000000000000053 -2.305006785295781
v -3.857666661345551 -4.999999999999988 -1.391874662464689
v -3.609662678548187 -5.000000000000016 1.476824624882539
v 3.209229259728771 -4.999999999999995 -0.640458658707211
v -0.326315490376830 3.753299792725487 2.499999999999994
v 1.455530780993036 4.524512733655929 2.500000000000000
v -0.347008456551573 4.633177176640662 2.500000000000002
v 0.574286843755133 3.695396875294012 2.499999999999990
v -1.250623859598385 4.685122483266191 2.500000000000000
v 2.357682781852888 4.465467831550960 2.500000000000002
v -1.097071296769261 -0.461215945481968 2.500000000000007
v -2.102021271438206 2.992025533752106 2.499999999999989
v 3.317377654246313 1.743861526453411 2.499999999999998
v 0.593701020087820 2.813188211548848 2.499999999999973
v -2.071558189052238 2.120203872742691 2.499999999999995
v -3.822461212150309 1.341977987375172 2.500000000000013
v -3.001322604228211 3.046641513615777 2.500000000000025
v -3.624412879391070 -3.115089597925830 2.500000000000000
v 1.493635589201097 2.749290125833062 2.500000000000001
v -1.931095897837179 -2.206945798111958 2.500000000000000
v 3.292845985045156 3.513782326685774 2.500000000000006
v -4.488205415192960 -3.082273846490124 2.500000000000004
v -4.549257399223842 -2.165715539703756 2.499999999999989
v -2.899358531870135 0.430673477734974 2.499999999999993
v -3.859682541292671 2.220453213738075 2.500000000000005
v -4.596978827906053 -1.267596933359143 2.500000000000015
v -4.792604889885665 3.154200022326568 2.499999999999964
v -3.786751037185841 0.464565025049140 2.500000000000028
v -1.913284452706419 -3.120352898808849 2.500000000000004
v 0.554523089156170 4.580121600040970 2.499999999999981
v -4.637619919905134 -0.380364003839739 2.499999999999999
v 3.262628867645117 4.398675986580246 2.500000000000004
v -3.670725212416810 -2.197005086797420 2.500000000000002
v -4.749244349095715 2.265907693241179 2.500000000000003
v -2.965651086701936 2.170792317785935 2.499999999999986
v -3.750730888779568 -0.414085930604832 2.500000000000009
v -4.711380288233364 1.382724760124885 2.500000000000004
v -4.675040234313609 0.501703932177366 2.499999999999986
v -2.157815976170953 4.737478587035170 2.499999999999977
v 0.609562782617462 1.928300049494551 2.500000000000002
v -2.834596062185280 -1.315819493832156 2.500000000000004
v -2.749113360822845 -4.068112397852599 2.499999999999989
v 1.475835561166862 3.636758534825792 2.499999999999986
v 2.398567617308355 2.687721837036035 2.500000000000014
v -3.901834937412213 3.102176843505105 2.500000000000012
v -3.712543113140901 -1.299376459148981 2.499999999999988
v 1.512957442685745 0.961898636779129 2.500000000000004
v -0.283963944902830 1.998887343647041 2.499999999999998
v -0.304269156821305 2.875930556659256 2.499999999999981
v -1.227846127745153 3.809718063561611 2.499999999999998
v -0.245885612512526 0.257382120303822 2.499999999999993
v -1.124768669731672 0.361160207594478 2.500000000000009
v -1.151565142341076 1.199981647429520 2.499999999999996
v -0.263549264196173 1.128305456115324 2.500000000000013
v 4.248160227259485 2.588927830815852 2.500000000000000
v 4.250401108438450 1.712372380789247 2.499999999999998
v -1.177422865959038 2.063578251131604 2.500000000000024
v 1.514104363585856 0.051740538809551 2.500000000000005
v 0.623829930272153 1.044328548322095 2.500000000000009
v -1.202202140510526 2.935470307164579 2.499999999999987
v 0.633178091596432 0.151527243703761 2.500000000000020
v -3.072192006748494 4.793736978457606 2.499999999999980
v -2.866636571600743 -0.438396520291481 2.499999999999985
v 2.406380309745535 1.794246980679115 2.500000000000012
v 3.311816315643756 2.631161650773183 2.500000000000013
v -2.011877432619446 0.396681571215455 2.500000000000004
v -4.852171733593146 4.053198203609274 2.500000000000026
v 1.505426870282150 1.858110634740358 2.499999999999997
v -2.041364552088892 1.253714664255924 2.500000000000000
v -2.801557960630217 -2.213005610046572 2.499999999999991
v -2.931914938612582 1.298372716131340 2.500000000000006
v 4.214686334016308 0.821330200632548 2.500000000000008
v -2.131455019827698 3.865519005017745 2.500000000000021
v 2.405949320963909 0.889395015922535 2.499999999999991
v -1.073170730695501 -1.298789095243997 2.500000000000004
v -1.982540274673902 -0.455470886854395 2.499999999999971
v -4.001021304558222 4.861739741939614 2.500000000000000
v 4.173826310850240 4.313697823417456 2.500000000000000
v -4.407128996462262 -4.028605511064487 2.499999999999989
v 4.220893100006455 3.453477516996209 2.500000000000000
v -1.902670727069744 -4.057568271880699 2.499999999999991
v -3.950369698132050 3.986442064828280 2.499999999999949
v 3.304875922877885 0.837904175980401 2.500000000000015
v -2.773116091782154 -3.128696832105336 2.500000000000016
v -3.583351334867864 -4.060002018877698 2.500000000000008
v -3.039342982294635 3.923329526031143 2.500000000000063
v -1.954612123364422 -1.319870187812485 2.500000000000003
v 2.380810615827158 3.575758807419177 2.499999999999996
v -0.419374780281077 2.504974640100340 -2.500000000000046
v 3.194171497476120 -3.437256809498123 -2.499999999999994
v 2.304178523459822 -3.462909322348411 -2.499999999999999
v 0.520042347894126 -3.507005969136827 -2.500000000000002
v -2.185388460224633 -3.530880311834075 -2.500000000000000
v -2.231524793677279 3.340337582306663 -2.500000000000009
v 0.485232847913498 2.515386300856349 -2.500000000000007
v -1.277808365768567 -3.530215209725708 -2.500000000000011
v -1.325132401616829 3.355849118022666 -2.500000000000007
v 3.200537490251508 3.386091164112804 -2.500000000000013
v 1.413337635900787 -3.487174683102107 -2.499999999999995
v -3.105686347096714 -3.524194157967880 -2.500000000000003
v -0.375881778372736 -3.522183006362008 -2.500000000000000
v -3.138236611037016 3.324328378729717 -2.499999999999955
v -2.228388576938029 0.754803217054842 -2.499999999999973
v 4.078572473832969 -1.726497404280649 -2.500000000000006
v 3.187637305326851 -0.888531510760635 -2.499999999999997
v -2.229470976869897 1.615472524716672 -2.500000000000016
v 4.079053513733943 -2.571947305684742 -2.500000000000000
v 4.083155717912719 -3.412408346575629 -2.500000000000000
v -1.321814271527528 0.768833416782128 -2.500000000000026
v 3.195548060635967 4.250140779239569 -2.499999999999975
v -1.254735861000110 -4.400589037598351 -2.500000000000008
v -3.076927308793040 -4.378666533118928 -2.500000000000003
v -2.231735932827578 4.204303619798859 -2.500000000000000
v -0.419139970763503 4.236957062445979 -2.499999999999976
v 2.291026518532908 4.258860517091414 -2.499999999999980
v 4.087633324892691 -0.028490614228444 -2.499999999999990
v 0.485947323214077 1.653091725036879 -2.499999999999996
v -1.306675348520853 -1.807484706301027 -2.499999999999996
v 3.190248264491360 -2.589069561975752 -2.499999999999993
v -2.216250608959203 -1.818046892779349 -2.500000000000033
v 2.291999554532408 -0.900131006614652 -2.499999999999987
v 1.391346067241926 -0.055509428453048 -2.500000000000007
v -0.416629207738159 0.781412050943525 -2.499999999999996
v 0.499800835760518 -1.783728529157932 -2.500000000000006
v -2.226547572900749 -0.104182652648207 -2.500000000000001
v -1.324686663932373 2.491957904025709 -2.500000000000013
v 4.997518069943655 0.827156803858060 -2.499999999999997
v 4.965378193475704 -1.716597765662021 -2.499999999999997
v 4.970459426055358 -3.393356611716063 -2.499999999999998
v 0.534447812329383 -4.374866500733575 -2.500000000000001
v -4.975437213218854 -1.865912691425974 -2.500000000000017
v -4.948572984482105 0.700379945735796 -2.499999999999998
v -4.941977961128492 2.429815704790128 -2.499999999999992
v 0.484977154591574 4.249394802845181 -2.499999999999991
v 2.291560255840343 -0.045159280088026 -2.499999999999997
v 1.390311833957879 0.802384447434687 -2.499999999999996
v 1.398016368378638 -1.769283156018787 -2.500000000000004
v -0.413741699241513 -0.078204647798609 -2.499999999999996
v -1.318916816731682 -0.090663138814122 -2.499999999999996
v 1.389851176707251 1.661791567468248 -2.499999999999983
v -1.323620594504036 1.629592889016980 -2.500000000000007
v -0.391052463356565 -2.657451154440515 -2.499999999999982
v 3.187649354035272 -1.739495553698492 -2.499999999999992
v -2.159129425096877 -4.397388973711379 -2.500000000000004
v -4.965479659823028 -1.017161546370717 -2.499999999999967
v -1.324641280473765 4.221403466487351 -2.499999999999983
v 1.388105355709891 4.257445414571471 -2.499999999999974
v 2.292319522827562 0.810782603678501 -2.500000000000019
v 1.393548597526014 -0.912320358610519 -2.499999999999995
v 0.489751748248272 -0.066380652755750 -2.499999999999978
v -0.409055142571382 -0.937170888851350 -2.499999999999997
v -0.401828119907062 -1.796423207572131 -2.500000000000004
v -0.418373273733058 1.642355228516477 -2.499999999999993
v -1.314200631679652 -0.949220101148621 -2.500000000000000
v -2.222814790232561 -0.961620504273733 -2.499999999999995
v 2.294184011073829 -1.754508111891301 -2.500000000000006
v -0.358036948257813 -4.392315288965387 -2.500000000000000
v 2.293628784183369 3.389627134579550 -2.499999999999996
v 3.190285735775275 -0.036420903515792 -2.500000000000014
v 0.493736835510842 -0.924940529158615 -2.499999999999998
v 0.487321497605335 0.792750927986527 -2.500000000000007
v 2.311875454475303 -4.320881022366036 -2.499999999999995
v -3.140886689944203 4.186544342675369 -2.500000000000063
v 3.194273939026179 0.817210460981128 -2.499999999999989
v -2.230477314787958 2.477495621481625 -2.500000000000026
v 4.970822257607372 -0.870746363424353 -2.500000000000001
v 4.982023080353913 -0.022414758760861 -2.500000000000001
v 4.965235990498896 -2.558387217873370 -2.499999999999999
v 1.424405528679727 -4.351272705082312 -2.500000000000003
v -4.984386517440750 -2.702768944946750 -2.499999999999997
v -4.956266175149540 -0.160531119176918 -2.500000000000032
v -4.943349320046565 1.564263479930927 -2.500000000000010
v 4.095754783300877 0.822643365838066 -2.500000000000007
v -2.204566729742025 -2.673839757967267 -2.500000000000020
v 4.081550027645694 -0.878431904230161 -2.500000000000019
v 3.198192587426812 1.671865869370921 -2.500000000000008
v 1.404580523533995 -2.627117089655814 -2.500000000000012
v 4.104253078859475 1.674434959814814 -2.499999999999995
v -4.991114027460677 -3.519414917418750 -2.500000000000020
v -4.946487426274837 3.295160815978015 -2.499999999999948
v 2.293536899028593 1.668086525651120 -2.500000000000011
v 0.484781544777583 3.380440898508995 -2.500000000000023
v 1.388959740228638 3.387486418947099 -2.499999999999998
v -1.295015416851851 -2.666520657710310 -2.499999999999991
v -0.419718233997084 3.369412036281020 -2.499999999999992
v 4.111486270359364 3.377905773614376 -2.500000000000016
v 3.199173418261304 -4.286208591481948 -2.499999999999993
v 0.508563269456899 -2.643853564135480 -2.499999999999996
v 4.981730991886552 -4.211907107421332 -2.500000000000001
v -4.996002862747627 -4.287994988248973 -2.500000000000001
v -4.961842165170374 4.155601766408910 -2.499999999999967
v 2.294322630455830 2.527295340411669 -2.499999999999998
v 4.110582875383201 2.526472215256260 -2.499999999999981
v 3.200882440612521 2.527754620298522 -2.499999999999996
v -3.135190611100949 0.739066249716537 -2.499999999999996
v -3.134437728730454 -0.975510834805658 -2.500000000000004
v -4.050717078468001 -1.842338096978134 -2.499999999999995
v -4.042659420380840 0.721103621412585 -2.500000000000013
v -3.135270080474761 -0.119630461182599 -2.500000000000033
v -4.045855208508339 -0.137703083029903 -2.499999999999989
v -3.131217032738789 -1.827877025592719 -2.500000000000015
v -4.048933715985552 -0.992594650766667 -2.500000000000014
v -4.040444461022435 1.582633638313242 -2.500000000000003
v -3.135458222317320 1.599846573804436 -2.499999999999988
v 2.298404190692279 -2.608714203833054 -2.499999999999997
v -4.048667403977834 -2.684797467212014 -2.499999999999986
v -4.044650634065221 3.308462644684338 -2.500000000000022
v 4.088936083051804 -4.248116723754972 -2.500000000000000
v 1.389491291918498 2.523410257519391 -2.500000000000011
v -4.018639883870415 -4.340638035748817 -2.500000000000001
v -4.040081259783680 -3.516492122505658 -2.500000000000005
v -4.051974137180292 4.169259200864287 -2.499999999999993
v 4.105104311232060 4.228352855523003 -2.500000000000000
v -3.123042080769544 -2.677257370608402 -2.500000000000038
v -3.136329202877711 2.461797806906104 -2.499999999999901
v -4.040444716141131 2.445815984075383 -2.500000000000018
v -4.999999999999989 3.234642064821827 0.960727357667080
v -5.000000000000005 -3.654515399145883 -0.600507022396591
v -5.000000000000013 3.275027993142421 -0.782058316263702
v -4.999999999999947 -0.300974114958633 1.076950253840639
v -5.000000000000027 2.307855863614172 1.867573400291214
v -4.999999999999986 -3.021164625061722 2.127776901863765
v -4.999999999999989 3.286480279932727 -1.663327977474001
v -4.999999999999986 -2.803906645698053 -0.640702374401762
v -4.999999999999998 -1.226014322464572 2.012890389358779
v -4.999999999999943 3.200847918964133 1.829570527488341
v -4.999999999999982 1.422297519265350 1.901376362167149
v -5.000000000000068 0.540124578461032 1.935166479132612
v -5.000000000000005 -2.117412938733276 2.062869594761601
v -4.999999999999972 -1.948247143595989 -0.674530157660955
v -4.999999999999981 2.371633262708566 0.108139186407243
v -4.999999999999953 1.490967919234308 0.126687524289864
v -5.000000000000103 1.459040296306929 1.014452279715451
v -5.000000000000008 -1.900434382057451 -1.598259270846281
v -4.999999999999972 -1.087811975365016 -0.702400395586130
v -4.999999999999978 0.614523199556144 0.149166108845893
v -4.999999999999965 -0.341517183127516 1.971392838341956
v -4.999999999999983 -1.047489574247629 -1.617325457690031
v -5.000000000000021 -2.744927149318899 -1.576441298688288
v -5.000000000000005 2.343631761429609 0.986679469262157
v -5.000000000000090 4.134920425126413 0.939067002667631
v -5.000000000000012 -0.259664484391194 0.176707637552704
v -4.999999999999986 0.647100579509014 -0.746879583718684
v -4.999999999999948 -0.222072306680664 -0.726567956109484
v -5.000000000000043 -0.188116625166744 -1.633862040079119
v -4.999999999999993 -4.508902140564411 -0.551478057237545
v -4.999999999999994 -4.611299819569156 0.410679605477016
v -4.999999999999924 0.578279858827665 1.044109998921703
v -5.000000000000004 -2.951366600922663 1.221598194521684
v -4.999999999999988 -1.180871557125919 1.114923327241826
v -4.999999999999944 -2.063062159058981 1.161081328134799
v -4.999999999999986 0.675829057514142 -1.647645550713959
v -4.999999999999917 1.543349519573963 -1.658240207010783
v -4.999999999999917 2.413686467571081 -1.664034666072604
v -5.000000000000044 -2.003232357322720 0.247508028436208
v -4.999999999999928 -1.132153600803004 0.209018792823864
v -5.000000000000005 1.519527658767374 -0.763262337248191
v -5.000000000000068 4.159338732198671 -0.780115578989310
v -4.999999999999953 4.151117628870848 0.084676234049933
v -5.000000000000239 3.258820096298479 0.092477533400166
v -4.999999999999998 -4.732089714704587 1.390438708812125
v -4.999999999999982 -4.400318856540796 -1.518657234528190
v -4.999999999999797 4.106469768358165 1.783951961164313
v -5.000000000000000 -3.951333457071650 2.227156292033792
v -4.999999999999990 -3.579377296977921 -1.551165443486425
v -5.000000000000026 -3.839836800230928 1.294038603662607
v -4.999999999999976 4.159626360207602 -1.652946596031494
v -5.000000000000012 -2.875921457594950 0.295510471890548
v -4.999999999999823 2.395310823342985 -0.775576199025647
v -5.000000000000012 -3.741984008945862 0.347413058949003
v -4.032800863558135 4.999999999999905 0.953621064527889
v -3.129576756984685 4.999999999999899 -0.727176706164254
v -3.112993739018762 5.000000000000057 0.989043671733487
v -0.383237062922233 5.000000000000063 1.108934767421269
v 0.489576760128606 5.000000000000052 -1.500784055587308
v -3.097753225380442 5.000000000000000 1.845881638898407
v 2.310866988980604 4.999999999999994 1.234801346718372
v -2.219358328060261 5.000000000000064 -0.700440124788505
v -1.271682954502324 5.000000000000009 1.942185142218600
v 4.918575139786187 5.000000000000000 0.396056591168412
v -2.181316206075504 5.000000000000087 1.894885245070826
v -4.946355650304252 4.999999999999956 0.087197843858878
v 2.295607205293330 5.000000000000018 0.324533737946995
v 1.416746326364799 5.000000000000020 1.190675898301574
v -2.226046327775656 5.000000000000004 -1.565766589381159
v 1.402980752190645 5.000000000000027 0.295300334406194
v -1.311390830696154 4.999999999999988 -0.673011386729195
v 3.224986614037179 5.000000000000027 2.199544784280580
v 2.331566925804089 4.999999999999992 2.136972081121749
v 1.434866111758452 5.000000000000016 2.084003410377045
v 0.535506289938177 4.999999999999994 2.035294126042537
v -0.366458641315003 5.000000000000029 1.988616512201828
v -3.140911536151803 5.000000000000004 -2.451484732834203
v -2.230342276756814 4.999999999999920 -2.431195612297429
v -1.322712276561390 4.999999999999971 -2.411605881803567
v -0.417338317002097 5.000000000000003 -2.393565518637450
v 0.485983270652412 5.000000000000018 -2.378300732306636
v 1.387392318117914 4.999999999999972 -2.367518426613058
v 2.287189455892250 5.000000000000015 -2.363842179099080
v 3.185978149751413 4.999999999999963 -2.371763738387394
v -1.318163017092194 5.000000000000025 -1.542621627347279
v 3.198459102723567 5.000000000000000 1.283096941052477
v -3.136449693034518 4.999999999999853 -1.588800663421305
v 4.934324811975845 5.000000000000000 1.380891403434700
v -4.946378466509621 5.000000000000028 -0.769087004035038
v 4.919131091187451 5.000000000000033 -0.561403944953121
v -4.954142973295486 4.999999999999931 0.929538534652430
v -0.396254856684130 5.000000000000004 0.231704114047297
v 0.495510003988556 4.999999999999943 -0.620247968694489
v -0.412909363609096 4.999999999999985 -1.520309348891944
v 0.505356094430955 5.000000000000014 0.263925489930388
v -0.406297644719272 5.000000000000028 -0.645976341461060
v 4.085746565469805 4.999999999999984 -2.401556943040263
v 4.115332127771769 5.000000000000014 2.289997521387059
v -4.971087647121504 5.000000000000049 1.739915163080228
v -4.057661079321321 4.999999999999942 -2.472696928008988
v -4.958643614617181 5.000000000000075 -1.633025214319170
v 0.518550363542231 5.000000000000000 1.149295887675692
v 3.177225509419728 5.000000000000020 -1.476819526212424
v 1.389311832868167 4.999999999999986 -1.485360607442681
v 2.285660009217571 4.999999999999994 -1.475770126618089
v 1.393620812865722 4.999999999999993 -0.596761311685210
v -2.210588454349940 5.000000000000068 0.164882305028469
v -1.301640069513958 4.999999999999996 0.198053537291912
v -1.288643507886157 4.999999999999945 1.068871960650936
v 4.053821614698867 5.000000000000015 -0.558720452251368
v 3.180809530728703 4.999999999999979 0.355381982836708
v 4.057821525538005 5.000000000000001 0.381704499506365
v -4.040274535738211 4.999999999999918 -0.750775025288798
v -3.122318748731049 5.000000000000114 0.132870138961284
v 4.935908254695313 4.999999999999978 -1.511963428063749
v -4.027770735694803 5.000000000000142 1.790860756707790
v 4.076603596231315 5.000000000000014 1.336676722895576
v -4.048836251700410 5.000000000000030 -1.611362361237049
v 4.064105871274897 4.999999999999997 -1.489260673674958
v 3.174013029270604 4.999999999999988 -0.564905809452033
v 2.287011561131746 5.000000000000038 -0.576220076846065
v -4.034886975828440 4.999999999999978 0.106440499337850
v -2.198342691404613 5.000000000000087 1.028771521289798
v 5.000000000000000 -5.000000000000000 0.875911160000000
v 5.000000000000000 0.000000000000000 0.875911160000000
v 5.000000000000000 0.000000000000000 2.500000000000000
v 5.000000000000000 5.000000000000000 2.500000000000000
v 5.000000000000000 5.000000000000000 -2.500000000000000
v 5.000000000000000 -5.000000000000000 -2.500000000000000
v -5.000000000000000 -5.000000000000000 2.500000000000000
v -5.000000000000000 -5.000000000000000 -2.500000000000000
v -5.000000000000000 5.000000000000000 2.500000000000000
v -5.000000000000000 5.000000000000000 -2.500000000000000
f 15 33 34 1
f 34 22 37 1
f 37 2 23 1
f 23 12 15 1
f 37 14 13 2
f 13 18 36 2
f 36 7 23 2
f 16 17 31 3
f 31 15 12 3
f 12 35 39 3
f 39 46 16 3
f 27 29 19 4
f 19 6 9 4
f 9 76 57 4
f 57 74 27 4
f 6 7 36 5
f 36 18 38 5
f 38 26 11 5
f 11 9 6 5
f 19 35 7 6
f 35 12 23 7
f 10 172 181 8
f 181 233 25 8
f 25 40 24 8
f 24 32 10 8
f 11 75 76 9
f 227 239 172 10
f 32 30 227 10
f 26 85 75 11
f 14 131 133 13
f 133 128 18 13
f 37 22 21 14
f 21 130 131 14
f 31 28 33 15
f 44 210 17 16
f 46 43 44 16
f 210 213 20 17
f 20 28 31 17
f 128 145 38 18
f 29 39 35 19
f 213 203 41 20
f 41 30 28 20
f 22 40 42 21
f 42 98 130 21
f 34 24 40 22
f 34 33 32 24
f 233 135 127 25
f 127 42 40 25
f 38 145 492 26
f 492 139 85 26
f 493 45 29 27
f 74 56 493 27
f 30 32 33 28
f 45 46 39 29
f 41 163 227 30
f 203 204 163 41
f 127 97 98 42
f 235 226 44 43
f 46 45 47 43
f 47 224 235 43
f 226 199 210 44
f 493 494 47 45
f 494 86 224 47
f 52 86 92 48
f 92 79 77 48
f 77 49 50 48
f 50 68 52 48
f 91 51 50 49
f 77 82 72 49
f 72 55 91 49
f 51 73 68 50
f 88 80 73 51
f 91 66 88 51
f 208 224 86 52
f 68 207 208 52
f 83 56 74 53
f 74 57 58 53
f 58 60 69 53
f 69 62 83 53
f 59 82 84 54
f 84 83 62 54
f 62 319 279 54
f 279 61 59 54
f 78 66 91 55
f 72 89 64 55
f 64 93 78 55
f 79 92 493 56
f 83 84 79 56
f 76 63 58 57
f 63 71 60 58
f 89 72 82 59
f 61 65 89 59
f 71 320 280 60
f 280 318 69 60
f 279 325 330 61
f 330 345 65 61
f 69 318 319 62
f 76 75 87 63
f 87 70 71 63
f 89 65 67 64
f 67 81 93 64
f 345 338 67 65
f 432 456 88 66
f 78 458 432 66
f 338 365 81 67
f 73 232 207 68
f 87 94 90 70
f 90 341 281 70
f 281 320 71 70
f 80 230 232 73
f 85 94 87 75
f 79 84 82 77
f 93 483 458 78
f 88 456 495 80
f 495 466 230 80
f 496 483 93 81
f 365 465 496 81
f 139 129 94 85
f 494 493 92 86
f 94 129 134 90
f 134 497 341 90
f 133 131 147 95
f 147 104 142 95
f 142 156 96 95
f 96 128 133 95
f 156 150 113 96
f 113 145 128 96
f 127 135 141 97
f 141 109 137 97
f 137 146 98 97
f 146 148 130 98
f 152 123 143 99
f 143 154 118 99
f 118 107 101 99
f 101 109 152 99
f 122 132 155 100
f 155 123 152 100
f 152 109 141 100
f 141 135 122 100
f 107 102 126 101
f 126 137 109 101
f 107 110 119 102
f 119 124 111 102
f 111 125 126 102
f 116 106 115 103
f 115 314 339 103
f 339 360 140 103
f 140 144 116 103
f 147 148 108 104
f 108 114 105 104
f 105 106 142 104
f 114 117 120 105
f 120 115 106 105
f 116 156 142 106
f 118 121 110 107
f 148 146 125 108
f 125 111 114 108
f 121 264 296 110
f 296 263 119 110
f 124 117 114 111
f 151 413 399 112
f 399 398 136 112
f 136 143 123 112
f 123 155 151 112
f 150 129 139 113
f 139 492 145 113
f 120 321 314 115
f 144 150 156 116
f 124 309 282 117
f 282 321 120 117
f 154 153 121 118
f 263 309 124 119
f 153 362 264 121
f 194 237 132 122
f 135 233 194 122
f 146 137 126 125
f 150 144 134 129
f 148 147 131 130
f 237 231 138 132
f 138 151 155 132
f 144 140 497 134
f 398 414 149 136
f 149 154 143 136
f 231 416 498 138
f 498 413 151 138
f 360 341 497 140
f 414 342 499 149
f 499 153 154 149
f 499 342 362 153
f 159 161 202 157
f 202 212 201 157
f 201 166 160 157
f 160 182 159 157
f 442 443 182 158
f 182 160 195 158
f 195 240 162 158
f 162 441 442 158
f 444 431 161 159
f 182 443 444 159
f 166 171 195 160
f 431 433 191 161
f 191 225 202 161
f 240 173 184 162
f 184 440 441 162
f 204 218 228 163
f 228 239 227 163
f 225 238 169 164
f 169 187 167 164
f 167 209 212 164
f 212 202 225 164
f 217 196 216 165
f 216 226 235 165
f 235 224 208 165
f 208 207 217 165
f 201 200 192 166
f 192 220 171 166
f 187 223 221 167
f 221 205 209 167
f 177 186 189 168
f 189 190 180 168
f 180 176 223 168
f 223 187 177 168
f 238 234 197 169
f 197 177 187 169
f 185 175 174 170
f 174 231 237 170
f 237 194 236 170
f 236 222 185 170
f 220 216 196 171
f 196 240 195 171
f 239 193 222 172
f 222 236 181 172
f 240 196 217 173
f 217 207 232 173
f 232 230 184 173
f 175 381 374 174
f 374 416 231 174
f 178 377 381 175
f 185 198 178 175
f 180 188 215 176
f 215 228 218 176
f 218 221 223 176
f 197 179 186 177
f 183 389 377 178
f 198 188 183 178
f 219 415 378 179
f 378 373 186 179
f 197 234 219 179
f 190 183 188 180
f 236 194 233 181
f 190 380 389 183
f 230 466 440 184
f 222 193 198 185
f 373 379 189 186
f 198 193 215 188
f 379 380 190 189
f 433 428 214 191
f 214 238 225 191
f 200 206 211 192
f 211 199 220 192
f 239 228 215 193
f 211 213 210 199
f 226 216 220 199
f 201 212 209 200
f 209 205 206 200
f 206 205 204 203
f 213 211 206 203
f 205 221 218 204
f 428 484 229 214
f 229 234 238 214
f 500 467 415 219
f 234 229 500 219
f 484 467 500 229
f 305 293 278 241
f 278 249 337 241
f 337 334 247 241
f 247 269 305 241
f 339 314 243 242
f 243 357 271 242
f 271 259 260 242
f 260 360 339 242
f 314 321 251 243
f 251 329 357 243
f 282 309 253 244
f 253 294 340 244
f 340 329 251 244
f 251 321 282 244
f 296 264 252 245
f 252 366 326 245
f 326 336 248 245
f 248 263 296 245
f 317 367 254 246
f 254 315 265 246
f 265 298 249 246
f 249 278 317 246
f 334 335 361 247
f 361 292 269 247
f 336 294 253 248
f 253 309 263 248
f 298 266 337 249
f 262 365 338 250
f 338 345 346 250
f 346 344 310 250
f 310 267 262 250
f 264 362 363 252
f 363 358 366 252
f 367 368 359 254
f 359 364 315 254
f 277 351 347 255
f 347 356 258 255
f 258 293 261 255
f 261 291 277 255
f 327 318 280 256
f 280 320 259 256
f 259 271 295 256
f 295 257 327 256
f 311 268 327 257
f 295 308 273 257
f 273 287 311 257
f 356 367 317 258
f 317 278 293 258
f 320 281 260 259
f 281 341 360 260
f 293 305 275 261
f 275 290 291 261
f 452 465 365 262
f 267 451 452 262
f 315 445 446 265
f 446 447 298 265
f 448 449 286 266
f 286 334 337 266
f 298 447 448 266
f 310 335 299 267
f 299 450 451 267
f 325 279 319 268
f 319 318 327 268
f 311 316 325 268
f 292 288 313 269
f 313 275 305 269
f 336 326 272 270
f 272 307 306 270
f 306 303 304 270
f 304 294 336 270
f 357 308 295 271
f 326 366 353 272
f 353 348 307 272
f 308 289 301 273
f 301 274 287 273
f 301 312 302 274
f 302 313 288 274
f 288 300 287 274
f 313 302 290 275
f 340 294 304 276
f 304 303 312 276
f 312 301 289 276
f 289 329 340 276
f 307 348 351 277
f 291 306 307 277
f 322 391 386 283
f 386 390 297 283
f 297 354 349 283
f 349 358 322 283
f 324 355 350 284
f 350 352 323 284
f 323 397 404 284
f 404 405 324 284
f 332 359 368 285
f 368 355 324 285
f 324 405 406 285
f 406 375 332 285
f 449 450 299 286
f 299 335 334 286
f 300 316 311 287
f 292 333 300 288
f 308 357 329 289
f 303 306 291 290
f 302 312 303 290
f 361 344 333 292
f 390 397 323 297
f 323 352 354 297
f 333 328 316 300
f 344 361 335 310
f 364 468 445 315
f 328 330 325 316
f 331 417 391 322
f 358 363 331 322
f 346 345 330 328
f 333 344 346 328
f 342 414 417 331
f 363 362 342 331
f 343 364 359 332
f 375 419 343 332
f 501 468 364 343
f 419 469 501 343
f 351 352 350 347
f 350 355 356 347
f 353 349 354 348
f 354 352 351 348
f 353 366 358 349
f 368 367 356 355
f 393 411 412 369
f 412 383 392 369
f 392 373 378 369
f 378 415 393 369
f 422 420 376 370
f 376 391 417 370
f 417 414 398 370
f 398 399 422 370
f 410 419 375 371
f 375 406 421 371
f 421 383 412 371
f 412 411 410 371
f 400 388 394 372
f 394 408 402 372
f 402 377 389 372
f 389 380 400 372
f 392 385 379 373
f 381 403 401 374
f 401 418 416 374
f 420 407 382 376
f 382 386 391 376
f 402 403 381 377
f 385 400 380 379
f 387 390 386 382
f 407 408 387 382
f 421 409 384 383
f 384 385 392 383
f 409 395 388 384
f 388 400 385 384
f 396 397 390 387
f 408 394 396 387
f 395 396 394 388
f 459 434 411 393
f 415 467 459 393
f 409 405 404 395
f 404 397 396 395
f 413 418 422 399
f 403 407 420 401
f 420 422 418 401
f 408 407 403 402
f 409 421 406 405
f 457 469 419 410
f 411 434 457 410
f 498 416 418 413
f 490 434 459 423
f 459 467 484 423
f 484 428 425 423
f 425 482 490 423
f 455 486 481 424
f 481 490 482 424
f 482 475 430 424
f 430 437 455 424
f 428 433 491 425
f 491 475 482 425
f 460 476 477 426
f 477 431 444 426
f 444 443 470 426
f 470 463 460 426
f 449 448 462 427
f 462 464 461 427
f 461 474 472 427
f 472 450 449 427
f 435 438 436 429
f 436 442 441 429
f 441 440 454 429
f 454 479 435 429
f 475 476 439 430
f 439 453 437 430
f 477 491 433 431
f 480 485 456 432
f 458 478 480 432
f 490 481 457 434
f 489 474 438 435
f 479 488 489 435
f 438 463 470 436
f 470 443 442 436
f 446 445 455 437
f 453 447 446 437
f 474 461 463 438
f 476 460 464 439
f 464 462 453 439
f 466 485 454 440
f 468 486 455 445
f 453 462 448 447
f 472 473 451 450
f 473 471 452 451
f 471 487 465 452
f 485 480 479 454
f 485 466 495 456
f 481 486 469 457
f 483 487 478 458
f 463 461 464 460
f 487 483 496 465
f 501 469 486 468
f 473 489 488 471
f 488 478 487 471
f 474 489 473 472
f 491 477 476 475
f 488 479 480 478
