v 2.166611531996024 -3.745727801780087 1.635115318584274
v 4.334327482947689 -1.502759985050423 1.054277577339886
v -0.688641031223530 -2.876329481215459 2.400177932923856
v 2.300983742195670 -1.369373056834197 1.599110392267261
v 3.317020740951091 -2.415518043172750 1.326864095876328
v 4.242341609303714 -2.381527420903914 1.078925118404919
v 2.228201943724985 -2.479548258380826 1.618612215572451
v -0.598733970454515 -1.678105653150631 2.376087410471433
v 2.336819640958533 -0.631281190956334 1.589508192399843
v 2.379189088983462 -0.151648230068541 1.578155334408094
v 1.169642542378254 -2.614807219968364 1.902252350598259
v 0.441786736550448 -0.250885633503926 2.097280728520398
v 3.407430406567459 -0.097139487290808 1.302638903615566
v 4.332748484689371 -0.852298013074698 1.054700665602095
v 1.288553888388710 -0.693077292337736 1.870390151331783
v 3.375237371935657 -0.627116178457451 1.311264999119409
v 0.454580857344913 -0.676222337999056 2.093852552865627
v 1.284298567024510 -0.230323611415456 1.871530363479958
v 0.353591039442698 -3.832880527858916 2.120912692324280
v -0.159654421962713 -2.782436131361842 2.258436396316726
v -0.597642746930213 -0.696219308262671 2.375795015399284
v -0.973930866190888 -0.805174744871952 2.476621115254656
v -0.928171791749738 -0.491374983245460 2.464360007946890
v 1.133695625696700 -3.793102356283235 1.911884298853383
v 4.293837064145191 -0.219404200875926 1.065126947773257
v -0.540489333610289 -0.381806552768171 2.360480805260706
v -0.470600653888499 -0.066708664042611 2.341754191970310
v -0.881289588783975 -0.177514799429854 2.451797959363436
v 3.392508074749179 -1.382580592124796 1.306637326332030
v -0.767024184881570 -3.963034324892666 2.421180637113513
v 1.266139683124282 -1.444932751102225 1.876396023294578
v 4.134403592699072 -3.672122943203798 1.107847020864519
v 3.191412623187070 -3.704801392896389 1.360520692040651
v -0.222894694937829 -3.909790880373818 2.275381579279198
v -0.129978151043534 -0.666474627521291 2.250484665793884
v -0.075827983325920 -0.333230319765818 2.235975173783783
v 0.430189432974560 -1.512914023688584 2.100388212833514
v -0.100118189345820 -1.582793107363107 2.242483714003706
v 0.371328630803847 -2.727286616838105 2.116159916609347
v 1.126680483728823 0.000000000000000 2.153194050592361
v 2.168382597870199 0.000000000000000 2.413450591179429
v 3.246103688009428 0.000000000000000 2.380291481429629
v 2.306716892499827 0.000000000000000 1.917109771204627
v 4.196421108835555 0.000000000000000 1.812857579267198
v 3.309526701624741 0.000000000000000 1.827922049598832
v 1.080206556866353 0.000000000000000 2.494714917474742
v 0.459865577966563 0.000000000000000 2.210116249831550
v -0.035155139889856 0.000000000000000 2.260277576245547
v 5.000000000000000 -0.016594978097457 -1.486862772770498
v 4.999999999999989 0.685554434453639 -1.458331381115872
v 4.999999999999989 1.440527339009071 -1.464285487829136
v 5.000000000000027 3.032823826088968 -0.507730292512155
v 4.999999999999998 1.687387280247628 1.356557425580323
v 5.000000000000014 2.862866166114724 0.469316365973558
v 5.000000000000011 2.653686419359337 1.451086907077950
v 5.000000000000000 -0.551281754137379 0.471063498075964
v 4.999999999999996 -1.450582449996491 -1.598999373131010
v 5.000000000000000 -0.054092428985881 0.107012878534301
v 5.000000000000000 -0.027046214492940 0.491462019267151
v 5.000000000000002 -0.718290985972624 -1.537005509282572
v 4.999999999999997 -1.886415665851719 -0.151204855800957
v 4.999999999999996 -1.325558978389363 -0.730418317553732
v 5.000000000000001 -2.252672642589522 -1.679153966339247
v 5.000000000000003 0.468433956142834 0.216006314395915
v 5.000000000000003 0.470446736738420 0.692703107186248
v 5.000000000000007 -2.060024833687319 -0.846215227017618
v 5.000000000000017 3.159446295133868 -1.499260298957569
v 5.000000000000013 3.926911659402663 0.485067354472651
v 5.000000000000005 -1.182001177328160 -0.034699804045212
v 5.000000000000005 -0.601889381807886 0.043297608679016
v 5.000000000000000 -2.598776227607579 0.328824637378979
v 4.999999999999999 -1.704302790630233 0.420412368667859
v 5.000000000000002 -3.126346444427464 -1.742196664776567
v 5.000000000000035 2.276979982332534 -1.487573338563646
v 5.000000000000003 -1.104748776874712 0.436094349639179
v 5.000000000000001 -2.981311254957335 -1.004802878834846
v 4.999999999999993 1.871833137209919 0.417269304680542
v 5.000000000000000 1.086342122139155 0.297267696673718
v 4.999999999999999 -2.786989630990564 -0.303955193740879
v 4.999999999999969 1.261900829216275 -0.494682017075003
v 4.999999999999991 0.580852409797947 -0.533815232291883
v 4.999999999999991 -0.660794618816106 -0.646488836544958
v 5.000000000000005 -0.038698645620397 -0.577681742169783
v 4.999999999999998 -3.807400772956153 0.259876321464207
v 4.999999999999970 4.009994342580347 -0.507600089658073
v 5.000000000000004 -3.892990288842994 -0.387891746774468
v 5.000000000000025 2.101771745364539 -0.496075046406259
v 5.000000000000000 -4.046523818957449 -1.773217107670118
v 5.000000000000003 0.955470527768406 1.125398159102421
v 4.999999999999986 4.071530897509902 -1.502365261807942
v 5.000000000000009 3.823392904533659 1.484662454762353
v 5.000000000000000 -3.979334610858322 -1.066730742796306
v 1.516711020578087 -4.999999999999998 0.111985142101338
v 2.334702489847925 -4.999999999999998 0.776661235115017
v 3.259183871834474 -5.000000000000000 -0.181585322872694
v 3.234938534824306 -5.000000000000002 0.582986014757007
v -1.419294351581582 -4.999999999999993 1.787273705371825
v -1.611222525552382 -5.000000000000007 -0.367794269952365
v -2.395604586433765 -4.999999999999988 -0.377948909704638
v -3.237361674374695 -4.999999999999972 -0.409999004073417
v -0.840035969467765 -5.000000000000014 -1.481635023821163
v 1.576395139695429 -4.999999999999995 -0.761842464577958
v 1.609549853016630 -4.999999999999995 -1.634545148598784
v 2.448677463222632 -5.000000000000006 -1.684948668847632
v -1.642230719115156 -4.999999999999996 -1.455067945685096
v 0.781255560262824 -5.000000000000008 -1.581752464608062
v 0.743045744400444 -5.000000000000004 -0.645227304925385
v -0.034897557448241 -4.999999999999991 -1.527949971955065
v 4.132104263382708 -4.999999999999996 -0.300599735161899
v 3.296489172287696 -4.999999999999996 -1.725641139057807
v -0.063450071325517 -5.000000000000000 -0.519881748073653
v 2.388012277452161 -5.000000000000002 -0.050142292501656
v -2.458264807472165 -5.000000000000004 -1.450017866586834
v -3.289847958256447 -5.000000000000010 -1.456779834283690
v -4.044893695718649 -5.000000000000000 0.577742001104635
v -0.845124527216282 -5.000000000000002 -0.426248091328540
v -0.852081036340490 -5.000000000000000 1.733935757937437
v -0.224560608306642 -4.999999999999996 1.542237070510849
v 0.547634931802794 -4.999999999999999 1.282649767257532
v 1.423352055720196 -4.999999999999996 1.009336318655796
v -2.917876428252180 -5.000000000000000 1.668232933876715
v -1.520033226375701 -4.999999999999998 0.781274033129215
v -2.081811959766785 -5.000000000000007 1.758003637061375
v 2.424639487359269 -5.000000000000003 -0.864008020607315
v -4.107588986466610 -5.000000000000000 -0.441845597766540
v 4.147045388104170 -4.999999999999998 -1.755654954635897
v 4.125047909639559 -4.999999999999999 0.408370057868361
v -0.130883573949557 -5.000000000000008 0.526305547775143
v -0.853940476997149 -5.000000000000009 0.743098626400576
v 0.672145848300959 -5.000000000000001 0.304016122363291
v -2.267107599973929 -5.000000000000012 0.741607285534718
v 4.139926614194042 -5.000000000000000 -1.021884620596605
v 3.280461081484713 -4.999999999999996 -0.951658264561142
v -3.120527113863604 -4.999999999999992 0.648632777140279
v -4.138545186316096 -4.999999999999996 -1.468823029987941
v -3.927183254551418 -5.000000000000022 1.573855224807736
v -1.671493622423041 -0.597566950798226 2.499999999999998
v -1.632917460869261 -0.270154152016362 2.499999999999997
v -1.224067291125071 2.948393837662024 2.500000000000000
v -1.345279937357122 -0.864103122178621 2.499999999999996
v -1.300302791596017 -0.558223427678234 2.499999999999996
v -1.255325645834912 -0.252343733177847 2.499999999999996
v -3.321663933551715 -3.265943346170340 2.500000000000012
v 3.243608226636547 2.006353346298281 2.500000000000004
v 0.836546316318308 2.741777746146909 2.499999999999969
v -3.376320259035865 1.664213475612252 2.499999999999917
v -2.489537391462338 2.139081717593427 2.500000000000052
v -2.248192556260681 -2.224500335485865 2.500000000000004
v -2.071593871168876 3.362711372658183 2.500000000000025
v 3.300479780837740 3.458044884208675 2.500000000000008
v -2.647074850479203 0.653885984437734 2.499999999999984
v -2.406769537613307 -3.146115254622934 2.500000000000002
v -2.894034978954297 -1.561818199954796 2.499999999999999
v 1.618111287080826 3.025344330144485 2.499999999999994
v -3.828673061505558 2.769304762385987 2.499999999999970
v 2.150553160517435 0.351088421942749 2.499999999999998
v -0.440345054311460 0.046376195783632 2.500000000000000
v -0.836876486798816 0.056083186685518 2.500000000000000
v -0.444044608522563 0.306341630544453 2.500000000000000
v -0.840576041009919 0.316048621446338 2.500000000000000
v 0.443806238149736 0.024655264413909 2.500000000000006
v -0.017898736404412 0.037697001030052 2.500000000000006
v 0.446043552831054 0.299466200499828 2.500000000000005
v -0.507956611794830 2.604199629560888 2.499999999999937
v -1.227882668659219 0.066952883556560 2.500000000000006
v -1.603523434206661 0.053879934028447 2.500000000000007
v -1.622003385209620 0.360298027711012 2.500000000000007
v 0.132379797541371 2.556289054059793 2.499999999999935
v -0.015350142835513 0.312229513753728 2.499999999999999
v -0.004436886413172 0.579280254829531 2.499999999999999
v -0.440813855399384 0.569667360018733 2.499999999999999
v -1.484344874898166 1.421545074990878 2.499999999999986
v -1.243878693342971 0.367350584387325 2.500000000000000
v -0.846415453651766 0.589159006987480 2.500000000000000
v -1.250436095728293 0.644871513964076 2.500000000000000
v -0.921261341020360 1.139754445781769 2.500000000000003
v 0.016622491966327 1.068698627088734 2.499999999999992
v -0.421192915665320 1.027560170537340 2.499999999999992
v 4.142137749535676 2.238866992196137 2.500000000000007
v 0.602114839294980 1.186537938904208 2.499999999999992
v 0.485344519381450 0.597686851541273 2.499999999999990
v 1.101845060249440 0.340007770861132 2.500000000000000
v 1.124538635848432 0.685354126366313 2.500000000000000
v 1.348282363103741 1.422764287068381 2.499999999999992
v 3.208654295432002 0.389412769448316 2.500000000000000
v -1.224623208778007 -2.984532659312923 2.499999999999995
v -1.785153389175989 -3.074541217918936 2.499999999999995
v -1.783429914932961 0.766239003772444 2.499999999999967
v 4.149274907655998 1.244258069503742 2.500000000000000
v 4.154880943628979 0.011848534061400 2.500000000000001
v 2.145454337504725 0.860513875564808 2.500000000000007
v -1.067627884007749 -1.715414584254675 2.499999999999987
v -2.205920925733679 -0.332654401023269 2.499999999999989
v 2.278446234365961 1.734994577573396 2.499999999999992
v -1.319727491492462 -4.009597776673302 2.499999999999996
v -1.617678640122462 -1.991770279010443 2.500000000000008
v -3.469486032666104 -4.122735209918927 2.500000000000014
v -3.117889408834404 -2.401864359848052 2.500000000000006
v 4.152422672216781 3.594572855930087 2.499999999999999
v -1.892849295070624 -4.046969860101215 2.499999999999996
v -3.994619732139618 3.881543834399503 2.499999999999987
v 3.198022067553417 1.002485083062255 2.500000000000007
v 4.149273308648773 0.542239263706816 2.500000000000002
v -2.498597174809548 -4.060226679497726 2.500000000000003
v -2.047547531136505 0.067876172616207 2.499999999999972
v -3.007637504373191 3.675278966588436 2.500000000000012
v -2.486430722031226 -0.821610662239372 2.500000000000019
v -1.831766585248773 -1.150076446787897 2.499999999999986
v 2.448781885306177 3.282598801007126 2.499999999999971
v -0.823175307948114 2.485385863757157 -2.500000000000007
v 3.316787646973944 -4.140920010858114 -2.500000000000000
v 2.486018176853429 -3.307993885604965 -2.500000000000003
v -0.010014953153394 -3.333560673245454 -2.499999999999991
v -0.819201023842067 3.322292786037449 -2.499999999999995
v -2.496667128879491 -3.344369688693755 -2.499999999999991
v -2.488896084063486 3.317416973504015 -2.500000000000014
v 0.010110453343488 2.486439091010448 -2.499999999999989
v -1.666707212524368 -3.341051968943712 -2.499999999999996
v -1.653346786382274 3.320421523268264 -2.500000000000000
v 3.322688077147125 -3.290227456687109 -2.500000000000000
v 1.651293685610510 -3.320893963914733 -2.500000000000002
v 0.819877252969191 -3.328071943903606 -2.500000000000004
v 3.339036420014230 3.294728722057227 -2.500000000000017
v -3.325185478515534 3.312595403843943 -2.500000000000060
v -3.329192093538786 -3.348279731321920 -2.500000000000004
v 3.326401217640464 -2.451807313492885 -2.499999999999996
v 2.497721936492291 -0.821265691502560 -2.499999999999998
v -0.828910237808373 0.816793039434364 -2.499999999999998
v -1.662415237651826 0.812297532575935 -2.499999999999978
v -2.494356261925926 1.640765376676805 -2.499999999999994
v -2.496180197734693 0.805954026770001 -2.499999999999988
v 2.511073106975383 4.153120729073139 -2.499999999999996
v -2.498995071100255 -1.687780874297469 -2.500000000000012
v 4.167272210558757 0.794723892967168 -2.499999999999996
v 4.165659287911723 -0.793684981196167 -2.499999999999996
v 4.160748586330499 -3.260383114768962 -2.500000000000004
v 0.812727758582566 -4.163175273803549 -2.500000000000003
v -0.839222043530215 -4.168485925814979 -2.500000000000016
v -3.324754339279894 -4.174224445052869 -2.499999999999989
v -4.165658039790825 -1.702418897992155 -2.499999999999986
v -4.165558220444211 -0.045680033582572 -2.500000000000012
v -4.164508487517285 1.622755409811042 -2.500000000000003
v -1.648459474375532 4.159900282646376 -2.500000000000042
v 0.018638836225254 4.160643907205500 -2.500000000000024
v 1.681002911413518 4.157299351315865 -2.499999999999990
v 3.333188205860349 -0.000880843215566 -2.500000000000007
v 2.491210068521995 -2.472302051196463 -2.499999999999992
v 3.331486844096698 -0.810329005554885 -2.499999999999995
v -0.834947685288014 -1.676188825826769 -2.500000000000002
v 0.834325468223482 -0.007296116411124 -2.500000000000000
v -1.666897406634396 -2.511336629490696 -2.500000000000005
v -2.497567662875641 -0.026822087404955 -2.500000000000043
v -1.657114141158033 2.482739342979757 -2.499999999999993
v 1.667091865653218 -0.004500271374214 -2.500000000000007
v 1.661312017490208 -1.656028638774020 -2.500000000000004
v 0.836859458796946 0.821216380913622 -2.500000000000013
v -0.831117194728170 -0.014958273440797 -2.499999999999980
v 0.006854708537086 1.652153058784782 -2.499999999999993
v -1.664195941539774 -0.020320924678655 -2.500000000000002
v -0.826355620874965 1.649962775516384 -2.499999999999993
v -1.660084429037710 1.646617938597384 -2.500000000000011
v -0.836504285547417 -2.506610705085275 -2.499999999999996
v 1.657184323487865 -2.486255198086097 -2.500000000000004
v 0.828692351243790 -1.664093922847714 -2.500000000000012
v 4.163021349050776 -2.414645353320047 -2.499999999999996
v 4.164597727708221 -1.593777874057025 -2.499999999999996
v -1.664329811871665 -4.170369305498947 -2.500000000000007
v -4.165752286482940 -0.875226945488835 -2.500000000000008
v -4.165134650620825 0.786811961461933 -2.500000000000047
v -0.814203789254734 4.160661937998064 -2.499999999999993
v 0.850281397052782 4.159651336567215 -2.500000000000017
v 3.329357714778553 -1.625420744295441 -2.499999999999996
v 3.340760915013636 4.144868002433857 -2.499999999999986
v 2.502019083530531 0.817405991977193 -2.499999999999995
v 0.001628384760733 -0.010806220348739 -2.499999999999985
v -0.000687084583008 -0.840767238978266 -2.500000000000017
v 0.004080118097503 0.819950134177304 -2.499999999999996
v -0.833092865259466 -0.845772477202525 -2.500000000000015
v -0.003190230178411 -1.670627964374141 -2.499999999999985
v -1.665540472104834 -0.851482268118295 -2.499999999999998
v -1.666519128089183 -1.681601771576912 -2.499999999999988
v -2.498527061146348 -0.857948340503260 -2.499999999999973
v 2.494969350022786 -1.643310651318366 -2.500000000000003
v 1.671911146499857 1.648835958838951 -2.500000000000012
v 4.166520240881852 -0.000589092146703 -2.500000000000004
v -0.014211398299775 -4.166201055705167 -2.500000000000004
v 2.499993453649820 -0.002212993608841 -2.499999999999994
v 1.664475848085814 -0.829482476746715 -2.499999999999997
v 0.839500782169166 1.651546916408261 -2.500000000000012
v 4.167989862899592 1.601161631289233 -2.499999999999998
v 4.168742899423128 2.426654934977201 -2.499999999999998
v 2.477890909804228 -4.152451780222023 -2.500000000000004
v 1.642665826419650 -4.159823877560420 -2.500000000000004
v 1.669488629162693 0.820983966303361 -2.499999999999986
v -2.491995614081306 2.478137459272945 -2.500000000000006
v -2.492093895911431 -4.172308583228058 -2.500000000000002
v -2.484312040365688 4.158251882371104 -2.499999999999978
v 3.334641768134313 0.809927240857987 -2.499999999999992
v -2.498466234397923 -2.516374454042194 -2.499999999999988
v 3.336022077291013 1.627893775035592 -2.500000000000004
v 0.831686723160993 -0.835288554380371 -2.499999999999986
v -0.006140205600538 -2.501472280811369 -2.500000000000003
v 0.013973151453913 3.322764965784561 -2.499999999999993
v 0.825003595836838 -2.494905901208126 -2.499999999999996
v 0.846039039408046 3.321089673999873 -2.500000000000000
v 2.508379543184377 3.308670334350175 -2.500000000000003
v 4.169560048568427 3.272509127213780 -2.499999999999990
v -4.162262144631566 3.305943509970346 -2.499999999999942
v -4.163550677079222 -3.352565182461064 -2.500000000000000
v 2.503988628929527 1.641048221859281 -2.499999999999993
v 1.674517033926580 2.480480476309882 -2.499999999999972
v -3.322048234877460 4.155769216255168 -2.500000000000006
v -0.837762058787956 -3.337215690126788 -2.500000000000002
v 2.506089329237970 2.471282978345350 -2.500000000000014
v 3.337456970455795 2.455948664235987 -2.500000000000014
v -3.330525049593406 0.797702082786552 -2.500000000000020
v -3.331421390893853 -0.035352164166074 -2.499999999999979
v -3.331888081667595 -0.865741672805651 -2.499999999999970
v -3.331837513843197 -1.694291098510173 -2.500000000000021
v -3.329213754972049 1.633526890864147 -2.499999999999988
v -4.165086379610837 -2.528084518638813 -2.500000000000010
v 0.842517011107914 2.484900474441621 -2.499999999999983
v 1.677448107082283 3.316873599694611 -2.500000000000012
v -4.160824796000661 -4.176285827189299 -2.499999999999965
v 4.157630840305421 -4.123303844886428 -2.500000000000004
v -4.160662482815724 4.152405364625073 -2.499999999999988
v 4.170364220642275 4.132871164397329 -2.500000000000036
v -3.327499529632014 2.471761208171436 -2.499999999999969
v -4.163615173797341 2.462356896539040 -2.499999999999968
v -3.331098602223914 -2.521734228827985 -2.500000000000020
v -4.999999999999974 -3.368499103409979 -0.486099456098797
v -4.999999999999998 -2.544686897171866 -1.494888725030303
v -5.000000000000005 -2.554756706688169 -0.491651338647158
v -4.999999999999910 1.405009406020532 1.500424970174093
v -5.000000000000074 2.257450355474759 1.500257938765204
v -4.999999999999919 -0.929048686336394 -0.497015646506350
v -5.000000000000000 1.492082700352213 0.500643722237513
v -5.000000000000018 -1.725801381031637 -1.496860864350754
v -5.000000000000014 -1.742603828106182 -0.495014951640538
v -5.000000000000024 -0.905368650820630 -1.498126442584699
v -5.000000000000025 -3.363348912100218 -1.492038372570256
v -4.999999999999860 3.145495455174132 1.500177922401054
v -4.999999999999997 2.339900021000574 0.500385030292227
v -4.999999999999969 -0.152221044578099 0.501855362904850
v -5.000000000000026 -0.111084022268370 -0.498220971333536
v -4.999999999999972 0.712431319484389 -0.498946661607761
v -4.999999999999986 0.662489334712649 0.501102181795012
v -5.000000000000012 -0.198449780870551 1.501187589981976
v -5.000000000000044 -0.081613186207838 -1.498909880964669
v -5.000000000000003 -4.183709061359071 -0.477654344422166
v -4.999999999999931 0.592073459673355 1.500688359802931
v -5.000000000000014 -3.369047128463833 1.509524491586665
v -5.000000000000013 -2.563888843962988 1.505642398694599
v -5.000000000000135 3.279782472836617 -1.499837505831614
v -4.999999999999972 -0.983969413784033 1.502024535123027
v -4.999999999999973 -1.770527515350844 1.503414314447475
v -4.999999999999980 0.747258188618976 -1.499380223815248
v -5.000000000000029 -1.756674417185432 0.505128277951286
v -4.999999999999922 1.583129847122411 -1.499647822078039
v -5.000000000000053 -0.954932385797625 0.503105160460724
v -4.999999999999930 1.546241506113080 -0.499385105620563
v -5.000000000000013 -4.184406754561661 0.523683577686121
v -5.000000000000104 4.123106988008491 -0.499749929657803
v -5.000000000000012 3.209111280841933 0.500268026227520
v -5.000000000000069 4.098079301484979 0.500248490762246
v -4.999999999999988 -3.371996746858767 0.514738072131742
v -4.999999999999986 4.062300809569729 1.500162715077929
v -4.999999999999989 -4.181595417483393 -1.487326790578892
v -5.000000000000000 -4.181719217563264 1.516036460394972
v -5.000000000000014 4.137810376776764 -1.499839496321837
v -4.999999999999980 3.253402064569393 -0.499729630029179
v -4.999999999999988 -2.562724002744728 0.508574214475335
v -5.000000000000171 2.393661493492420 -0.499632623250085
v -5.000000000000166 2.427125348479680 -1.499788065627596
v 3.348354275674746 4.999999999999995 0.497792535561221
v -3.296613373033040 5.000000000000105 -0.499900122982963
v 2.524042700176492 4.999999999999981 1.499127858930830
v 2.525351672133708 4.999999999999991 0.498672470613627
v -2.467522675865673 5.000000000000004 -1.499993327396377
v -2.451341616828074 5.000000000000032 -0.499989440956645
v 0.884748151256826 5.000000000000000 0.499497010312073
v 1.708640485601614 5.000000000000005 1.499460128664737
v -1.629834539396642 5.000000000000032 -1.500040959066974
v 1.704172689415801 4.999999999999945 0.499186248319766
v -1.612582046835910 4.999999999999946 -0.500075275106493
v 0.897342983021018 5.000000000000028 1.499666044156417
v -0.795842839595391 4.999999999999993 -1.500102485783835
v 3.345920231458566 4.999999999999986 1.498536078300594
v -3.308977920027251 4.999999999999938 -1.499940012164576
v 0.066120958910481 5.000000000000039 0.499690736051575
v 0.048401098003759 5.000000000000024 -0.500304161845209
v -0.756088155707213 4.999999999999982 0.499825492156798
v 0.035047052553503 4.999999999999955 -1.500190381205382
v 0.087053705382836 5.000000000000028 1.499797526173859
v -0.779908829872578 5.000000000000050 -0.500170911794559
v 4.173346965704702 5.000000000000010 0.496330273799443
v -4.146498105617718 5.000000000000028 -0.499808007593607
v 3.345381521371786 4.999999999999961 -1.501117527481603
v -3.242410908843086 4.999999999999848 1.500074699558748
v 0.863775245113084 5.000000000000001 -1.500313398801925
v 1.691221652188482 5.000000000000011 -1.500489042960391
v -0.726052998842863 4.999999999999942 1.499888230312267
v 1.698463990678460 4.999999999999982 -0.500770916458496
v -1.546531736480340 5.000000000000027 1.499952858835274
v 0.874246756942993 4.999999999999944 -0.500493008571603
v -1.586621144237034 5.000000000000071 0.499922646245572
v 4.173409007770292 4.999999999999997 -0.503098112511895
v -4.134499056669924 4.999999999999988 0.500195213861854
v 3.347598468324085 5.000000000000007 -0.501996430539714
v 4.171690603548676 4.999999999999999 1.497413161099031
v -4.153330337436094 4.999999999999915 -1.499875411779239
v -4.114785979328044 4.999999999999964 1.500129961301285
v 4.172550705216519 5.000000000000004 -1.501652590411172
v -3.276587095559247 5.000000000000061 0.500106017157298
v 2.522312346158189 4.999999999999993 -0.501236639079476
v -2.425394170891998 5.000000000000041 0.500010895635059
v 2.518211660798945 5.000000000000001 -1.500744157902678
v -2.383439614465278 4.999999999999861 1.500007855335422
v 5.000000000000000 -1.637289153940559 0.875911160000000
v 5.000000000000000 -1.030102914960930 0.875911160000000
v 5.000000000000000 -2.445966327113906 0.875911160000000
v 5.000000000000000 -3.690388715168743 0.875911160000000
v 2.258891577694962 -5.000000000000000 1.610388955646537
v 1.284217195413639 -5.000000000000000 1.871552168381625
v 3.214162648608048 -5.000000000000000 1.354424844505529
v 4.125833266518529 -5.000000000000000 1.110143429592479
v 0.411455264932604 -5.000000000000000 2.105408022050215
v 5.000000000000000 -0.512709486041639 0.875911160000000
v -0.293245488580219 -5.000000000000000 2.294232019222971
v -0.835501214288602 -5.000000000000000 2.439529002527824
v 5.000000000000000 1.453757173142690 2.500000000000000
v 5.000000000000000 -0.767402870810418 -2.500000000000000
v 5.000000000000000 -0.004493199994053 -2.500000000000000
v 5.000000000000000 1.559899227589921 -2.500000000000000
v 5.000000000000000 2.383134545257866 -2.500000000000000
v 5.000000000000000 0.765759892686719 -2.500000000000000
v 5.000000000000000 5.000000000000000 0.493296448287053
v 5.000000000000000 -3.206112842122813 -2.500000000000000
v 5.000000000000000 3.236462458654932 -2.500000000000000
v 5.000000000000000 2.433923443410529 2.500000000000000
v 5.000000000000000 5.000000000000000 1.494720467174741
v 5.000000000000000 -2.358121132235878 -2.500000000000000
v 5.000000000000000 -1.548503738704437 -2.500000000000000
v 5.000000000000000 3.703739194324935 2.500000000000000
v 5.000000000000000 5.000000000000000 -0.504928657609746
v 5.000000000000000 0.812786003503087 2.500000000000000
v 5.000000000000000 0.406393001751543 2.500000000000000
v 5.000000000000000 -5.000000000000000 -1.067524912613336
v 5.000000000000000 -5.000000000000000 -0.382527133726568
v 5.000000000000000 4.111923385244637 -2.500000000000000
v 5.000000000000000 5.000000000000000 -1.502218052877590
v 5.000000000000000 -4.092385339697657 -2.500000000000000
v 5.000000000000000 -5.000000000000000 -1.776610861716406
v 5.000000000000000 -5.000000000000000 0.266157466356416
v 3.307983687741467 -5.000000000000000 -2.500000000000000
v 2.466892699524586 -5.000000000000000 -2.500000000000000
v 0.801744159006091 -5.000000000000000 -2.500000000000000
v -1.659821170478208 -5.000000000000000 -2.500000000000000
v -5.000000000000000 -5.000000000000000 -0.463341655727269
v 1.631201428472218 -5.000000000000000 -2.500000000000000
v -5.000000000000000 -5.000000000000000 0.542068586552384
v -2.484598454296814 -5.000000000000000 -2.500000000000000
v -2.712214249143972 -5.000000000000000 2.500000000000000
v -3.316266907611707 -5.000000000000000 -2.500000000000000
v -0.021473737087280 -5.000000000000000 -2.500000000000000
v -0.839958589348253 -5.000000000000000 -2.500000000000000
v -5.000000000000000 -5.000000000000000 -1.479506940280986
v -3.737885655454200 -5.000000000000000 2.500000000000000
v -1.386869117316215 -5.000000000000000 2.500000000000000
v -1.944732936026130 -5.000000000000000 2.500000000000000
v -5.000000000000000 -5.000000000000000 1.530074763909863
v -4.155245869112161 -5.000000000000000 -2.500000000000000
v 4.152967280478446 -5.000000000000000 -2.500000000000000
v 1.705349692703624 5.000000000000000 2.500000000000000
v -0.681765605830140 5.000000000000000 2.500000000000000
v -1.489436659216570 5.000000000000000 2.500000000000000
v -5.000000000000000 -1.767775213264225 2.500000000000000
v -5.000000000000000 -1.004015835765563 2.500000000000000
v -5.000000000000000 3.024620017637073 2.500000000000000
v -5.000000000000000 3.996521629371568 2.500000000000000
v -5.000000000000000 -2.552346943075495 2.500000000000000
v 2.516526937798345 5.000000000000000 2.500000000000000
v 0.904829761497552 5.000000000000000 2.500000000000000
v 0.112729394478910 5.000000000000000 2.500000000000000
v -5.000000000000000 -0.258950198346949 2.500000000000000
v -5.000000000000000 2.118211911276276 2.500000000000000
v -5.000000000000000 1.282333014596595 2.500000000000000
v -5.000000000000000 0.497863559845899 2.500000000000000
v 3.337882114625913 5.000000000000000 2.500000000000000
v -2.319967437806387 5.000000000000000 2.500000000000000
v -5.000000000000000 -3.355155269428823 2.500000000000000
v -3.182302346161020 5.000000000000000 2.500000000000000
v -4.077778969216549 5.000000000000000 2.500000000000000
v -5.000000000000000 -4.172478618641524 2.500000000000000
v 4.166973991954927 5.000000000000000 2.500000000000000
v -5.000000000000000 -1.712060553316173 -2.500000000000000
v -5.000000000000000 0.772118842949768 -2.500000000000000
v -5.000000000000000 2.450527509417119 -2.500000000000000
v -3.317614795961317 5.000000000000000 -2.500000000000000
v -1.641983427517550 5.000000000000000 -2.500000000000000
v 0.025039982272620 5.000000000000000 -2.500000000000000
v 0.855575914473624 5.000000000000000 -2.500000000000000
v 2.514025774089826 5.000000000000000 -2.500000000000000
v 3.342678791122315 5.000000000000000 -2.500000000000000
v -5.000000000000000 -2.535050636110949 -2.500000000000000
v -5.000000000000000 -0.059906185160031 -2.500000000000000
v -5.000000000000000 -0.887409994984290 -2.500000000000000
v -5.000000000000000 1.608818935026361 -2.500000000000000
v -2.478750363391652 5.000000000000000 -2.500000000000000
v -0.807429688179228 5.000000000000000 -2.500000000000000
v 1.685084713916586 5.000000000000000 -2.500000000000000
v -5.000000000000000 -3.357102226324604 -2.500000000000000
v -5.000000000000000 3.296989144056797 -2.500000000000000
v 4.171266518614190 5.000000000000000 -2.500000000000000
v -5.000000000000000 -4.178697483057111 -2.500000000000000
v -5.000000000000000 4.147296056301736 -2.500000000000000
v -4.158221514879720 5.000000000000000 -2.500000000000000
v -5.000000000000000 5.000000000000000 -0.499663618157863
v -5.000000000000000 5.000000000000000 0.500336333241785
v -5.000000000000000 5.000000000000000 -1.499759583312628
v -5.000000000000000 5.000000000000000 1.500232069574324
v 5.000000000000000 -5.000000000000000 0.875911160000000
v 5.000000000000000 0.000000000000000 1.525546696000000
v -5.000000000000000 5.000000000000000 -2.500000000000000
v 5.000000000000000 5.000000000000000 2.500000000000000
v 5.000000000000000 5.000000000000000 -2.500000000000000
v 5.000000000000000 -5.000000000000000 -2.500000000000000
v -5.000000000000000 -5.000000000000000 2.500000000000000
v -5.000000000000000 -5.000000000000000 -2.500000000000000
v -5.000000000000000 5.000000000000000 2.500000000000000
f 7 11 24 1
f 24 424 423 1
f 423 425 33 1
f 33 5 7 1
f 14 16 29 2
f 29 5 6 2
f 6 421 419 2
f 419 420 14 2
f 8 192 186 3
f 186 195 30 3
f 30 34 20 3
f 20 38 8 3
f 9 15 31 4
f 31 11 7 4
f 7 5 29 4
f 29 16 9 4
f 33 32 6 5
f 32 422 421 6
f 21 22 192 8
f 38 35 21 8
f 10 18 15 9
f 16 13 10 9
f 43 40 18 10
f 13 45 43 10
f 31 37 39 11
f 39 19 24 11
f 47 48 36 12
f 36 35 17 12
f 17 15 18 12
f 18 40 47 12
f 16 14 25 13
f 25 44 45 13
f 420 428 25 14
f 17 37 31 15
f 35 38 37 17
f 39 20 34 19
f 34 429 427 19
f 427 424 24 19
f 39 37 38 20
f 26 23 22 21
f 35 36 26 21
f 23 141 140 22
f 140 196 192 22
f 28 142 141 23
f 26 27 28 23
f 523 59 65 447
f 36 48 27 26
f 157 158 28 27
f 48 162 157 27
f 158 165 142 28
f 195 469 430 30
f 430 429 34 30
f 33 425 426 32
f 426 522 422 32
f 46 161 47 40
f 43 41 46 40
f 156 182 46 41
f 43 45 42 41
f 42 185 156 41
f 45 44 190 42
f 190 203 185 42
f 59 523 428 56
f 182 163 161 46
f 161 162 48 47
f 50 81 83 49
f 83 82 60 49
f 60 432 433 49
f 433 436 50 49
f 51 80 81 50
f 436 434 51 50
f 74 87 80 51
f 434 435 74 51
f 85 68 54 52
f 54 77 87 52
f 87 74 67 52
f 67 90 85 52
f 431 446 89 53
f 89 78 77 53
f 77 54 55 53
f 55 440 431 53
f 68 91 55 54
f 91 444 440 55
f 523 447 190 44
f 428 420 75 56
f 75 69 70 56
f 70 58 59 56
f 60 82 62 57
f 62 66 63 57
f 63 442 443 57
f 443 432 60 57
f 64 65 59 58
f 70 82 83 58
f 83 81 64 58
f 523 44 25 428
f 69 75 72 61
f 72 71 79 61
f 79 76 66 61
f 66 62 69 61
f 82 70 69 62
f 66 76 73 63
f 73 438 442 63
f 78 89 65 64
f 81 80 78 64
f 89 446 447 65
f 74 435 439 67
f 439 450 90 67
f 437 441 91 68
f 85 445 437 68
f 72 419 421 71
f 421 422 84 71
f 84 86 79 71
f 75 420 419 72
f 76 92 88 73
f 88 452 438 73
f 79 86 92 76
f 78 80 87 77
f 422 522 454 84
f 454 449 86 84
f 90 451 445 85
f 449 448 92 86
f 92 448 453 88
f 453 527 452 88
f 450 526 451 90
f 441 525 444 91
f 120 119 130 93
f 130 107 102 93
f 102 124 112 93
f 112 94 120 93
f 423 424 120 94
f 112 95 96 94
f 96 425 423 94
f 112 124 133 95
f 133 132 109 95
f 109 127 96 95
f 127 426 425 96
f 469 470 123 97
f 123 131 122 97
f 122 129 117 97
f 117 430 469 97
f 122 131 99 98
f 99 113 105 98
f 105 101 116 98
f 116 129 122 98
f 131 134 100 99
f 100 114 113 99
f 134 115 125 100
f 125 135 114 100
f 105 458 466 101
f 466 465 108 101
f 108 111 116 101
f 107 106 103 102
f 103 104 124 102
f 106 457 460 103
f 460 456 104 103
f 456 455 110 104
f 110 133 124 104
f 113 462 458 105
f 107 111 108 106
f 108 465 457 106
f 130 128 111 107
f 132 448 449 109
f 449 454 127 109
f 455 473 126 110
f 126 132 133 110
f 128 129 116 111
f 114 464 462 113
f 135 472 464 114
f 136 471 461 115
f 461 459 125 115
f 134 121 136 115
f 129 128 118 117
f 118 429 430 117
f 128 130 119 118
f 119 427 429 118
f 120 424 427 119
f 463 468 136 121
f 134 131 123 121
f 123 470 463 121
f 459 467 135 125
f 473 527 453 126
f 453 448 132 126
f 454 522 426 127
f 467 529 472 135
f 468 528 471 136
f 138 193 207 137
f 207 153 208 137
f 208 140 141 137
f 141 142 138 137
f 166 205 193 138
f 142 165 166 138
f 476 490 149 139
f 149 172 176 139
f 176 178 164 139
f 164 475 476 139
f 208 148 196 140
f 198 481 491 143
f 491 494 197 143
f 197 204 152 143
f 152 148 198 143
f 150 209 194 144
f 194 191 202 144
f 202 189 179 144
f 179 199 150 144
f 483 484 168 145
f 168 177 180 145
f 180 184 154 145
f 154 474 483 145
f 155 479 486 146
f 486 487 151 146
f 151 167 188 146
f 188 147 155 146
f 206 201 155 147
f 188 175 172 147
f 172 149 206 147
f 208 153 198 148
f 152 187 196 148
f 490 492 206 149
f 489 482 209 150
f 199 495 489 150
f 487 488 205 151
f 205 166 167 151
f 204 200 187 152
f 207 478 477 153
f 477 481 198 153
f 184 194 209 154
f 209 482 474 154
f 201 480 479 155
f 191 183 182 156
f 185 202 191 156
f 159 160 158 157
f 162 169 159 157
f 160 173 165 158
f 171 174 160 159
f 169 170 171 159
f 174 175 173 160
f 163 169 162 161
f 181 170 169 163
f 182 183 181 163
f 178 177 168 164
f 168 484 475 164
f 173 167 166 165
f 173 175 188 167
f 177 178 171 170
f 181 180 177 170
f 178 176 174 171
f 175 174 176 172
f 189 431 440 179
f 440 444 199 179
f 181 183 184 180
f 191 194 184 183
f 203 189 202 185
f 192 196 187 186
f 187 200 195 186
f 203 446 431 189
f 447 446 203 190
f 205 488 485 193
f 485 478 207 193
f 200 470 469 195
f 494 528 468 197
f 468 463 204 197
f 444 525 495 199
f 204 463 470 200
f 493 530 480 201
f 206 492 493 201
f 260 261 253 210
f 253 219 214 210
f 214 303 217 210
f 217 258 260 210
f 455 456 292 211
f 292 212 220 211
f 220 236 325 211
f 325 473 455 211
f 292 293 221 212
f 221 263 247 212
f 247 226 220 212
f 286 238 313 213
f 313 262 302 213
f 302 304 222 213
f 222 237 286 213
f 219 243 270 214
f 270 244 303 214
f 296 239 225 215
f 225 330 299 215
f 299 251 218 215
f 218 267 296 215
f 295 328 224 216
f 224 312 297 216
f 297 243 219 216
f 219 253 295 216
f 303 305 322 217
f 322 289 258 217
f 251 262 313 218
f 313 238 267 218
f 226 265 236 220
f 293 237 222 221
f 222 304 263 221
f 273 327 307 223
f 307 291 315 223
f 315 314 306 223
f 306 232 273 223
f 328 329 308 224
f 308 326 312 224
f 239 324 309 225
f 309 321 330 225
f 247 283 272 226
f 272 266 265 226
f 283 255 288 227
f 288 254 287 227
f 287 246 248 227
f 248 272 283 227
f 257 259 229 228
f 229 261 260 228
f 260 258 277 228
f 277 275 257 228
f 259 252 231 229
f 231 230 261 229
f 231 316 320 230
f 320 328 295 230
f 295 253 261 230
f 252 317 316 231
f 503 504 273 232
f 306 323 245 232
f 245 511 503 232
f 299 330 319 233
f 319 318 282 233
f 282 280 281 233
f 281 251 299 233
f 290 434 436 234
f 436 433 285 234
f 285 246 298 234
f 298 300 290 234
f 285 433 432 235
f 432 443 266 235
f 266 272 248 235
f 248 246 285 235
f 265 442 438 236
f 438 452 325 236
f 457 465 286 237
f 293 460 457 237
f 466 458 267 238
f 286 465 466 238
f 464 472 324 239
f 296 462 464 239
f 321 505 496 240
f 496 507 268 240
f 268 318 319 240
f 319 330 321 240
f 268 507 506 241
f 506 497 269 241
f 269 316 317 241
f 317 318 268 241
f 329 328 320 242
f 320 316 269 242
f 269 497 508 242
f 508 498 329 242
f 297 509 500 243
f 500 510 270 243
f 501 502 271 244
f 271 305 303 244
f 270 510 501 244
f 323 305 271 245
f 271 502 511 245
f 287 274 298 246
f 263 255 283 247
f 262 251 281 249
f 281 280 278 249
f 278 276 279 249
f 279 302 262 249
f 301 276 275 250
f 275 277 256 250
f 256 294 254 250
f 254 288 301 250
f 282 318 317 252
f 259 280 282 252
f 294 274 287 254
f 263 304 264 255
f 264 301 288 255
f 277 258 289 256
f 289 284 294 256
f 278 280 259 257
f 275 276 278 257
f 304 302 279 264
f 279 276 301 264
f 266 443 442 265
f 458 462 296 267
f 504 514 327 273
f 310 300 298 274
f 294 284 310 274
f 311 314 310 284
f 289 322 311 284
f 291 435 434 290
f 300 315 291 290
f 307 439 435 291
f 456 460 293 292
f 312 499 509 297
f 310 314 315 300
f 323 311 322 305
f 314 311 323 306
f 327 450 439 307
f 329 498 513 308
f 513 516 326 308
f 324 515 512 309
f 512 505 321 309
f 326 517 499 312
f 472 529 515 324
f 452 527 473 325
f 516 524 517 326
f 514 526 450 327
f 366 372 333 331
f 333 332 341 331
f 341 368 350 331
f 350 362 366 331
f 333 339 338 332
f 338 496 505 332
f 505 512 341 332
f 372 358 339 333
f 335 343 337 334
f 337 347 351 334
f 351 488 487 334
f 487 486 335 334
f 342 364 343 335
f 486 479 342 335
f 345 349 340 336
f 340 338 339 336
f 339 358 360 336
f 360 344 345 336
f 343 373 361 337
f 361 346 347 337
f 340 507 496 338
f 349 506 507 340
f 512 515 368 341
f 367 365 364 342
f 479 480 367 342
f 364 371 373 343
f 347 346 345 344
f 360 355 348 344
f 348 351 347 344
f 346 357 349 345
f 361 359 357 346
f 355 478 485 348
f 485 488 351 348
f 357 497 506 349
f 368 467 459 350
f 459 461 362 350
f 353 372 366 352
f 366 362 369 352
f 369 494 491 352
f 491 481 353 352
f 356 358 372 353
f 481 477 356 353
f 370 516 513 354
f 513 498 374 354
f 374 373 371 354
f 371 363 370 354
f 360 358 356 355
f 356 477 478 355
f 359 508 497 357
f 374 498 508 359
f 361 373 374 359
f 461 471 369 362
f 518 520 370 363
f 371 364 365 363
f 365 519 518 363
f 367 521 519 365
f 480 530 521 367
f 515 529 467 368
f 471 528 494 369
f 520 524 516 370
f 378 377 388 375
f 388 410 396 375
f 396 407 409 375
f 409 415 378 375
f 389 411 397 376
f 397 408 414 376
f 414 416 380 376
f 380 379 389 376
f 378 384 382 377
f 382 474 482 377
f 482 489 388 377
f 415 403 384 378
f 509 499 389 379
f 380 385 383 379
f 383 500 509 379
f 416 406 385 380
f 405 391 390 381
f 390 394 386 381
f 386 382 384 381
f 384 403 405 381
f 386 483 474 382
f 385 395 387 383
f 387 510 500 383
f 406 392 395 385
f 394 484 483 386
f 395 391 393 387
f 393 501 510 387
f 489 495 410 388
f 499 517 411 389
f 391 395 392 390
f 392 402 394 390
f 405 400 393 391
f 406 404 402 392
f 400 502 501 393
f 402 475 484 394
f 410 441 437 396
f 437 445 407 396
f 411 520 518 397
f 518 519 408 397
f 417 415 409 398
f 409 407 413 398
f 413 514 504 398
f 504 503 417 398
f 414 408 412 399
f 412 493 492 399
f 492 490 418 399
f 418 416 414 399
f 405 403 401 400
f 401 511 502 400
f 403 415 417 401
f 417 503 511 401
f 404 476 475 402
f 406 416 418 404
f 418 490 476 404
f 445 451 413 407
f 519 521 412 408
f 495 525 441 410
f 517 524 520 411
f 521 530 493 412
f 451 526 514 413
