v 1.205697186362499 -3.433817626583259 1.892591536615969
v 1.173714561866164 -2.664165338397274 1.901161256181898
v 2.571933694684921 -0.842787270937387 1.526509569364729
v 2.579540580065869 -4.186947984162970 1.524471310422473
v 3.767841054966354 -2.497580905006639 1.206067158218124
v -0.805644402200210 -3.523896394276084 2.431528893690596
v -0.802455606489606 -2.772490915609974 2.430674456528041
v 2.504517677393226 -1.719722451522991 1.544573637058876
v 2.475687272813899 -2.559310999968763 1.552298719811772
v -0.790833285426639 -1.342078472719929 2.427560266815121
v 1.186300212827328 -1.879980223774468 1.897788944882680
v 2.507873773206063 -3.376377224103645 1.543674378012996
v -0.797885651580857 -2.031187470693327 2.429449941528144
v 1.438147821649061 -0.230897727383966 1.830306580212976
v 0.411990143021212 -0.530233160022408 2.105264701111221
v 0.345841634304938 -4.183602331225903 2.122989139678993
v -0.255140919872331 -2.745673441697453 2.284021926053806
v 3.777700065863169 -3.341031254009191 1.203425444217509
v -0.810833947870069 -4.253797535080272 2.432919427178119
v -0.783016980170562 -0.679609159817653 2.425465892566567
v 0.361971077107106 -3.478570325894233 2.118667267779541
v -0.775861758930362 -0.031490983242882 2.423548658487739
v 3.815258744184074 -0.710312092044590 1.193361627219916
v 3.778098645607746 -1.631357310068330 1.203318644739292
v -0.237654401686731 -1.306440252994701 2.279336431148872
v -0.248012895035203 -2.008722653768730 2.282111978709469
v -0.256175751561972 -3.517964816972542 2.284299212536141
v 1.254067914722950 -1.105390448589343 1.879630641224287
v 1.295980995248335 -4.188218311895421 1.868400068274811
v 3.814777587066631 -4.171258743565033 1.193490550546330
v 0.338300369203143 -1.257392900477960 2.125009814063459
v -0.250434128525276 -4.229772471130374 2.282760747402523
v -0.229876912022867 -0.635718913747130 2.277252457600117
v 0.307948857074304 -1.958335312677014 2.133142477133403
v 0.309008058850706 -2.730243590752025 2.132858663291775
v 1.633392821851269 0.000000000000000 2.499321524766197
v 3.870732689277220 0.000000000000000 1.642694350974647
v 2.695933466568087 0.000000000000000 1.637137236855656
v -0.231787074051471 0.000000000000000 2.316231073039118
v 0.549729175417008 0.000000000000000 2.357232927090001
v 5.000000000000012 3.297208185481461 0.359388415929572
v 4.999999999999997 -0.004563340453467 -1.024107425581689
v 4.999999999999998 0.819424042785938 -0.916585435643669
v 5.000000000000004 1.596126165137483 1.153956623213383
v 4.999999999999994 3.270332034353572 1.397331587214170
v 4.999999999999986 1.645672612753417 -0.804216476171415
v 4.999999999999996 -1.661515329000197 -1.116554092300694
v 5.000000000000016 0.823367359129307 -1.711328493539835
v 5.000000000000008 3.312821318171729 -0.623785988821834
v 4.999999999999996 -0.001803989870890 0.327377193984627
v 5.000000000000009 -0.830758072090844 -1.088811876774152
v 5.000000000000005 -1.647124331706832 0.225307052814281
v 5.000000000000006 -1.654769332757922 -0.439766675167589
v 5.000000000000011 1.652931565502027 -1.661551674524259
v 4.999999999999996 2.418886134952636 1.322572259345927
v 4.999999999999996 -1.665175231999799 -1.803314349171282
v 4.999999999999996 -0.005413930160952 -1.753967215271026
v 5.000000000000000 0.800257266015657 0.748916328079825
v 5.000000000000003 -2.491060020804333 -0.452786280323519
v 4.999999999999996 -2.494782536091642 -1.128121647294124
v 4.999999999999972 3.321085855661476 -1.573346487493103
v 5.000000000000021 4.145588286428016 0.420888179926981
v 4.999999999999996 -0.825687610709893 -0.403865535758252
v 5.000000000000000 -2.486708650844099 0.213786058619316
v 5.000000000000000 -2.497625056035677 -1.812310782842947
v 5.000000000000003 -0.834593886629568 -1.784617051376106
v 4.999999999999998 -3.331499449983420 -1.811348053729772
v 4.999999999999987 2.475651122516767 -0.699153883251606
v 4.999999999999986 2.485303814611322 -1.611195950427065
v 4.999999999999996 -0.812946306902304 0.256171902266421
v 4.999999999999995 0.814379161898294 -0.135447918561596
v 4.999999999999998 -3.326303157074824 0.215234117308350
v 5.000000000000008 1.633049409489958 0.082329273767951
v 5.000000000000007 4.154573750603387 -0.573427215889546
v 5.000000000000000 -0.003663515768748 -0.306294240256662
v 5.000000000000000 -4.163848811119113 0.226846463924783
v 5.000000000000000 2.456645257666839 0.267165201889248
v 5.000000000000000 -4.164168807817095 -0.436644870842356
v 4.999999999999999 -3.328092545746969 -0.452882230439250
v 5.000000000000011 -4.165580395794668 -1.805021754836353
v 5.000000000000000 -3.329481547246348 -1.128622780277773
v 5.000000000000028 4.159433135155906 -1.544731955533504
v 5.000000000000000 4.131018931646199 1.446047679481576
v 5.000000000000001 -4.164784610209314 -1.116208324522915
v 1.937264773099484 -5.000000000000000 0.035983524288574
v 2.842080997653526 -4.999999999999998 0.663608849870017
v -1.456529511628552 -5.000000000000011 -1.452353248543790
v -1.460990384983709 -4.999999999999977 -0.352602417926570
v -2.276695514277765 -4.999999999999998 -0.360247933616696
v -3.154711264182028 -5.000000000000009 -0.393914937965002
v -0.595029591031734 -4.999999999999988 -1.482412467676665
v 1.093498549095864 -5.000000000000009 -0.696124363454570
v 2.109028061343208 -5.000000000000008 -1.664453329584672
v -2.318392465816753 -5.000000000000024 -1.441964275774439
v 1.180603289770410 -5.000000000000010 -1.604361042315882
v 0.192160472658450 -4.999999999999995 -0.561855831295985
v 0.278573017206993 -5.000000000000005 -1.540277271547163
v 2.939711270674685 -4.999999999999996 -0.134842585030494
v 3.968184551032531 -4.999999999999998 -0.288530564675760
v 3.059298107264098 -5.000000000000005 -1.715772318448501
v -3.195472323967419 -4.999999999999996 -1.450523165490965
v -4.009570479825527 -5.000000000000015 0.588359804801192
v -0.658714889748309 -5.000000000000005 -0.430205975214272
v -0.808655657646642 -5.000000000000004 1.742746948861001
v 1.772485765002462 -5.000000000000000 0.910414377518779
v -0.146206000933137 -4.999999999999996 1.534266600794154
v 0.732918347923051 -5.000000000000013 1.225030795058703
v -2.866764675416285 -4.999999999999993 1.687762088658939
v -1.377233507923837 -4.999999999999996 1.807195691315100
v -1.428976848152292 -5.000000000000000 0.815140809471560
v 2.036673140564916 -5.000000000000001 -0.819649230581894
v -4.065206167653900 -4.999999999999977 -0.433411250667418
v 4.024440010770527 -5.000000000000004 -1.756662803458255
v 3.921366590521374 -4.999999999999999 0.442789995570919
v -2.033513949607160 -5.000000000000000 1.785672550853440
v -0.733296581568641 -4.999999999999996 0.741777752583437
v 0.045629230175551 -5.000000000000006 0.500813609256196
v -2.178220762629058 -5.000000000000014 0.782226964522307
v 4.000077542588205 -5.000000000000004 -1.019238732117641
v 3.009698243594113 -5.000000000000000 -0.929699633170744
v -3.050989808916407 -5.000000000000016 0.671594827781896
v 0.959543740389968 -4.999999999999995 0.244663503017667
v -4.090959197486956 -4.999999999999934 -1.464664250506003
v -3.900188760144356 -4.999999999999998 1.582933809418566
v -1.333057633986066 -0.071591192543194 2.500000000000001
v -1.902352810067298 -0.089630032666553 2.500000000000001
v -1.409458742232500 2.768681553183121 2.500000000000007
v 0.324622451880023 3.923966911843515 2.499999999999996
v 3.992571979826663 2.243437537107868 2.499999999999992
v -3.497579702726002 -3.500476981291295 2.499999999999996
v -1.348301312553200 -0.706551548415661 2.499999999999989
v -2.246878071335435 2.848551710378125 2.499999999999988
v 0.241905774175912 2.818956971074440 2.500000000000006
v -3.138611878797288 2.957193805377004 2.499999999999977
v -2.136076872586576 1.680526917978494 2.499999999999938
v -2.518337257580890 -2.055307212953749 2.500000000000003
v 1.144982680478342 2.913260272898942 2.500000000000003
v -1.925540726364554 -2.056410113821928 2.500000000000005
v -3.916709016363116 1.147984532878755 2.500000000000028
v -4.012304941120858 2.092798135096345 2.499999999999937
v 1.228269054165370 3.964566736024283 2.500000000000011
v -2.542124810850705 -2.776834349988542 2.500000000000005
v -3.750030488080156 0.250304917654216 2.500000000000012
v -1.931521325914889 -2.784500065967972 2.500000000000004
v -3.471277296938990 -2.758109704641010 2.499999999999988
v -3.618209820973490 -0.541383657955151 2.500000000000032
v -3.475788907888569 -2.010179655940064 2.500000000000030
v 0.080671779888433 1.633196261456337 2.500000000000018
v -1.360991330311040 -2.786638906044208 2.500000000000001
v -4.060228194941317 3.056664866741013 2.499999999999994
v -3.527112598388822 -1.282212739733139 2.499999999999993
v -0.681922209642582 1.522633586354559 2.500000000000005
v 1.836225759889683 0.983322986774760 2.499999999999975
v -3.046218320580200 1.916202518623736 2.500000000000004
v 2.796668654931816 0.152683345668303 2.500000000000003
v -0.601654983568630 2.755981100727871 2.500000000000003
v -1.420307513011535 3.907409197586214 2.500000000000012
v -1.363166877223385 -3.535399120701127 2.499999999999999
v -0.553608241210866 3.903967809926616 2.500000000000001
v -0.105364447688909 0.618382324699031 2.500000000000004
v -1.385846513424342 1.536895503265363 2.499999999999994
v -0.759690247132608 0.583923503073451 2.499999999999992
v -1.334903013569153 0.597989212109074 2.499999999999992
v 0.774090957744777 0.771775880531317 2.500000000000025
v 2.985680762965703 2.123219761245927 2.500000000000009
v -2.579315885717827 -4.232164629951666 2.500000000000004
v -1.992778144037366 0.678711401160339 2.500000000000002
v 1.976243404859882 1.987522061728756 2.500000000000011
v 2.149373163070736 4.002791836267424 2.500000000000004
v 0.990840305891948 1.829317013332480 2.500000000000013
v -1.374659592907610 -4.260475720393492 2.500000000000000
v 3.954446338132853 1.322672962342048 2.499999999999993
v -2.289090802600574 3.937575474517979 2.500000000000018
v -2.507952268970225 -1.358367095217707 2.499999999999981
v -1.351134421137865 -1.360985048280967 2.500000000000003
v -1.932551202270037 -0.713127432543049 2.500000000000005
v -2.873133834196359 0.896731424345354 2.499999999999949
v -2.664546862246379 0.020877721864619 2.499999999999992
v -1.357169814833910 -2.047107231741857 2.500000000000000
v -3.552030920174225 -4.242711527957123 2.499999999999994
v 2.901739526986032 1.151260927785444 2.499999999999996
v 3.090702395954277 4.043149977935224 2.500000000000008
v 4.042580846851521 4.077891812243259 2.499999999999993
v 4.020953593934580 3.158474827922598 2.499999999999999
v -1.950445725230828 -4.253062683557457 2.500000000000003
v -4.083556933980944 4.024168042692803 2.500000000000043
v 2.084923519145437 3.000967431244689 2.499999999999996
v 3.919135175022615 0.367324700321326 2.500000000000005
v -1.935150305768734 -3.543867387181528 2.499999999999997
v -2.540048548321912 -3.513817072067340 2.499999999999997
v -3.177897847041862 3.978688313828364 2.499999999999993
v -2.539455763161372 -0.698718742742283 2.500000000000000
v 3.046330961198422 3.083423139907223 2.500000000000011
v -1.922655225581084 -1.367563976036752 2.500000000000000
v -0.472467213026706 2.486691962879000 -2.500000000000016
v 3.133850658997849 -3.335806350392275 -2.500000000000000
v 0.383099332844490 -3.340254339324308 -2.499999999999994
v -2.311362241884424 -3.348784152898518 -2.499999999999996
v -2.285673104145530 3.317221829269112 -2.500000000000026
v 0.436370842429753 2.489542876995095 -2.500000000000000
v -1.416738222566784 -3.345376714054234 -2.499999999999999
v -1.379455155393230 3.320766443158924 -2.500000000000015
v 2.209239441887196 -3.337096341769156 -2.500000000000002
v 1.291622928551734 -3.338476108569328 -2.500000000000009
v 3.171491251392042 3.328080499044585 -2.499999999999957
v -0.518710837097374 -3.342311003180652 -2.500000000000013
v -3.190993632316733 3.311758127442946 -2.500000000000000
v -3.206928142394000 -3.353783439061128 -2.499999999999996
v 4.076772069469808 -1.669847853010435 -2.499999999999998
v 4.072388012332575 -2.501996404596445 -2.500000000000006
v 3.161646403237985 -0.839569315387381 -2.500000000000004
v -2.286939725472170 1.638786898603241 -2.500000000000008
v -2.288674345121324 0.802383043679662 -2.499999999999988
v 4.065578706534459 -3.334510867300476 -2.500000000000000
v -1.383477715005885 0.809941926738489 -2.499999999999979
v 3.170817319005088 4.163805571975857 -2.500000000000014
v 1.267124318647210 -4.169267606203215 -2.499999999999999
v -1.428231289239354 -4.172815032257621 -2.499999999999999
v -3.209212216285845 -4.177258669730989 -2.499999999999998
v -2.286168708825953 4.158123207363637 -2.500000000000030
v -0.473125178053230 4.161698279664344 -2.499999999999988
v 0.435491819809890 4.162794314202348 -2.499999999999988
v 2.257556673574304 4.163824244702759 -2.499999999999989
v 4.082402690620220 -0.006227988281498 -2.500000000000009
v 0.434868048822757 1.654089897956894 -2.499999999999974
v 3.146119676148102 -2.503747307038251 -2.500000000000005
v -2.300167090580858 -1.693943478256132 -2.500000000000001
v 2.244907727865338 -0.841408409551988 -2.499999999999996
v 1.337982544521437 -0.011093195371869 -2.500000000000006
v -0.476508226137315 0.815323140058208 -2.499999999999992
v -1.406527383084011 -2.516766393661619 -2.500000000000000
v 0.412068424274455 -1.678651726929210 -2.499999999999994
v -2.291514268303141 -0.031675243926770 -2.499999999999995
v -1.379760975689599 2.482590593313716 -2.500000000000016
v 2.250670049364515 -0.008797511208503 -2.499999999999982
v 1.342343303940979 0.822323390864122 -2.499999999999988
v 1.322222639094428 -1.675829320622905 -2.500000000000008
v -0.480753879125670 -0.018429316589543 -2.499999999999999
v -1.387060415318338 -0.024069099021535 -2.499999999999998
v 1.345107132233494 1.656579707714490 -2.500000000000020
v -1.381049494932633 1.645575151127559 -2.499999999999981
v -0.505640882446198 -2.512790234467914 -2.499999999999997
v 3.155377378216361 -1.671684798240119 -2.500000000000002
v 2.225486883794631 -2.505426656887238 -2.500000000000015
v -2.317826625953810 -4.174801032979500 -2.500000000000008
v -1.380221661585274 4.160237110335553 -2.499999999999996
v 1.345736062825793 4.163470661180732 -2.500000000000003
v 2.254629612273832 0.824365429558629 -2.499999999999992
v 1.331536654755020 -0.843791205921971 -2.499999999999986
v 0.427289757570790 -0.014144027149573 -2.499999999999976
v -0.486787534929138 -0.851069781339360 -2.499999999999980
v -0.494944291453430 -1.682455361504116 -2.499999999999999
v -0.473891452700084 1.650437494694810 -2.499999999999977
v -1.391890992638608 -0.856441941880362 -2.500000000000014
v -1.398050462855229 -1.687257770663051 -2.499999999999996
v -2.295382376781808 -0.863838188881225 -2.500000000000016
v 2.236817453187141 -1.673570540662205 -2.499999999999994
v 0.360068998154555 -4.170154879151575 -2.500000000000002
v 3.165867841005803 -0.007306535530169 -2.499999999999990
v 0.420821386638501 -0.846837782478053 -2.499999999999989
v 0.431870877299529 0.819489088275311 -2.500000000000006
v 2.187062186851312 -4.168624170851846 -2.500000000000000
v 3.168643059848889 0.825435459200816 -2.500000000000013
v -2.285981877971050 2.477200604573550 -2.500000000000019
v -0.537155357025135 -4.171335380826070 -2.500000000000003
v 4.083974894957432 0.825837563818665 -2.499999999999995
v -2.305675094169355 -2.522045145035309 -2.500000000000005
v 0.399611403980169 -2.509724483577983 -2.499999999999995
v 4.080087266267109 -0.838012307854282 -2.500000000000000
v 3.170455397673456 1.658854503568824 -2.499999999999990
v 1.309469369369256 -2.507349079883707 -2.500000000000000
v 4.084966611254463 1.658555092019562 -2.500000000000000
v 2.257145947993164 1.658172821076546 -2.499999999999985
v 2.258563330275448 3.327955619774187 -2.499999999999952
v 0.436667571203317 3.325777416748224 -2.500000000000014
v -0.472085587980256 3.323866498519472 -2.500000000000028
v 3.117726499346719 -4.167929555292452 -2.500000000000001
v -4.095696289735802 3.304937834005585 -2.500000000000020
v -4.102873879868003 -3.359906930436180 -2.500000000000019
v 2.258431032677684 2.492683477082512 -2.500000000000004
v -3.191235690387547 4.155426353633223 -2.500000000000024
v 4.085449994954969 2.492309518685571 -2.499999999999967
v 4.085402025883690 3.327468221111562 -2.499999999999967
v 3.171438835644032 2.493005317399470 -2.499999999999992
v -3.193223237633500 0.792739967799854 -2.499999999999975
v -3.197341524392034 -0.873258662147110 -2.499999999999988
v -4.100285141160173 -1.713187085500437 -2.500000000000020
v -4.096802226320666 0.779964015772093 -2.500000000000060
v -3.195044985267460 -0.041711519468320 -2.499999999999962
v -4.097738044978076 -0.054549322541487 -2.500000000000001
v -4.098921679222569 -0.885507047947202 -2.500000000000020
v -4.096140237770543 1.618074151792417 -2.499999999999905
v -3.200249739773515 -1.702066022258374 -2.500000000000014
v -3.191926035319598 1.630161347763533 -2.499999999999968
v -4.101789890978800 -2.538019153486897 -2.500000000000008
v 1.346521691494919 2.491612097147903 -2.499999999999984
v 1.346871313245005 3.327223597133820 -2.500000000000036
v -4.103252504096151 -4.180342995571833 -2.499999999999962
v 4.056150916581731 -4.167191149375894 -2.500000000000002
v -4.095806946065983 4.151930408454399 -2.500000000000071
v 4.085043754251245 4.163412800230350 -2.499999999999979
v -3.191174754685115 2.469804287543123 -2.500000000000023
v -4.095765476426831 2.459742471327168 -2.500000000000004
v -3.203606074790216 -2.528880877796140 -2.499999999999961
v -4.999999999999987 -3.437134759866401 1.511024968540646
v -4.999999999999993 -3.394838579902871 -0.484408650440029
v -5.000000000000002 -2.566250703778058 -1.494236604287668
v -5.000000000000037 -2.589091128149157 -0.490607458548164
v -5.000000000000009 1.423574181491074 1.500458532504027
v -5.000000000000004 2.298423305735453 1.500269766158773
v -4.999999999999971 -0.961787119252451 -0.496627196760977
v -4.999999999999940 1.494137697739833 0.500702311928881
v -5.000000000000015 -1.749189873959921 -1.496480237180318
v -4.999999999999999 -1.779203489959715 -0.494389959609064
v -5.000000000000014 -0.927204232495422 -1.497904294677667
v -5.000000000000008 -3.380304597096890 -1.491128077805937
v -4.999999999999967 3.189745505111082 1.500178244897249
v -4.999999999999950 2.355203284462497 0.500408044368795
v -5.000000000000060 -0.188040533630946 0.502093205539390
v -4.999999999999917 -0.136658867019134 -0.498005146558691
v -5.000000000000012 0.697534105998739 -0.498828784227474
v -4.999999999999946 0.646342142757766 0.501226113170370
v -5.000000000000088 -0.255498895941885 1.501347538185351
v -4.999999999999953 -0.099195263068898 -1.498785576483415
v -4.999999999999991 -4.198195838096414 -0.475010271948009
v -4.999999999999998 -4.207980278652775 0.526662495056708
v -5.000000000000006 0.571290015621447 1.500774989036001
v -4.999999999999986 -2.653064331088526 1.506696218388008
v -5.000000000000099 3.280566552160110 -1.499837163258922
v -4.999999999999973 -1.065104147877291 1.502334810508549
v -4.999999999999984 -1.863299258544998 1.503986052745210
v -5.000000000000041 0.735485067630231 -1.499314091379425
v -5.000000000000003 -1.815243713983989 0.505931841373751
v -4.999999999999979 1.577282643581963 -1.499613649408239
v -4.999999999999966 -1.006916423258063 0.503555519584813
v -4.999999999999937 1.542341107958291 -0.499327145839576
v -4.999999999999921 4.128000524511632 -0.499769261215405
v -5.000000000000028 3.228581251625075 0.500268265177381
v -4.999999999999927 4.111647040439198 0.500229678284649
v -5.000000000000012 -3.414226231537206 0.516597349083332
v -5.000000000000020 4.091683626019994 1.500152002144734
v -5.000000000000053 -4.191059600044351 -1.485907557342508
v -5.000000000000004 -4.219014864338160 1.517974243965321
v -4.999999999999863 4.139008674862634 -1.499851388141744
v -5.000000000000095 3.259591870244156 -0.499728653175042
v -4.999999999999957 -2.617734624463131 0.509730052218178
v -4.999999999999984 2.397514269019453 -0.499609702550508
v -4.999999999999755 2.425678795597006 -1.499774405933508
v -0.507149571310286 5.000000000000017 1.499078828576820
v 0.428570771641107 5.000000000000028 -1.501638900004773
v 2.233032433831352 5.000000000000001 0.491720090386332
v -2.292344299014074 5.000000000000099 -0.500413839269751
v 2.216814279966747 5.000000000000015 1.494905050027954
v -2.289588640112007 5.000000000000016 -1.500268006170737
v 1.319192123637491 4.999999999999984 0.495298114970526
v -1.389495072975073 5.000000000000012 -0.500831121106035
v 1.301073045269207 5.000000000000016 1.497159226530508
v -1.385104022703677 5.000000000000028 -1.500527606283724
v 3.139909720597751 4.999999999999999 1.490814291770684
v -3.193335689776973 5.000000000000039 -1.500091056537185
v -0.494195945413353 5.000000000000036 0.498489626213910
v 0.421290950231879 4.999999999999950 -0.502695555496127
v 0.393210149060732 4.999999999999957 1.498409616864670
v 0.410337124792573 4.999999999999956 0.497322294187658
v -0.485265622233833 4.999999999999989 -0.501513945719347
v -0.479226617878909 4.999999999999959 -1.500948731960190
v 3.166061743013707 5.000000000000004 -1.509222072539066
v -3.196758655167139 5.000000000000060 1.499927569777682
v 1.338597142241441 5.000000000000032 -1.502844901817756
v 2.251099885629229 5.000000000000018 -1.505035582001764
v -2.298531060279707 4.999999999999983 1.499740670838127
v 2.244438477458514 5.000000000000016 -0.508395859660464
v 1.331003199689234 4.999999999999971 -0.504736571284553
v -1.402897905376710 5.000000000000089 1.499478318588180
v -1.395909247940698 4.999999999999965 0.499177367787965
v 4.079653319939210 5.000000000000036 -0.525296757927415
v -4.097768663658732 5.000000000000028 0.500077312852518
v 3.152139769592753 4.999999999999956 0.485332916117825
v -3.194883360287127 5.000000000000004 -0.500133715955519
v 4.074896315610076 5.000000000000029 0.474572841119694
v -4.097363570877974 4.999999999999988 -0.499926672127547
v 4.068272045007689 5.000000000000001 1.483767561743779
v -4.096762326085493 4.999999999999986 -1.499950909478970
v -4.097163285794828 5.000000000000024 1.500056990715091
v 4.082469755639950 5.000000000000044 -1.515632065353937
v 3.160815356289140 5.000000000000014 -0.514883621182330
v -3.196413113209864 5.000000000000025 0.499865247954814
v -2.296315664363487 5.000000000000099 0.499593965564403
v 5.000000000000000 -1.632719165538602 0.875911160000000
v 5.000000000000000 -2.482172288574607 0.875911160000000
v 5.000000000000000 -3.325869810752795 0.875911160000000
v 1.519782076552255 -5.000000000000000 1.808432748928202
v 2.703010469087552 -5.000000000000000 1.491387657755692
v 3.858720041546955 -5.000000000000000 1.181716205354846
v 0.488552307550413 -5.000000000000000 2.084749931811593
v 5.000000000000000 -4.164364913399638 0.875911160000000
v 5.000000000000000 -0.794601632054127 0.875911160000000
v -0.276101947938247 -5.000000000000000 2.289638421368031
v -0.827271724058878 -5.000000000000000 2.437323917274084
v 5.000000000000000 1.495286550065376 2.500000000000000
v 5.000000000000000 -0.836238558220957 -2.500000000000000
v 5.000000000000000 -0.005582404338443 -2.500000000000000
v 5.000000000000000 1.656998902856963 -2.500000000000000
v 5.000000000000000 2.490456614994553 -2.500000000000000
v 5.000000000000000 0.825156809897926 -2.500000000000000
v 5.000000000000000 5.000000000000000 0.452689136369038
v 5.000000000000000 -3.332898780966657 -2.500000000000000
v 5.000000000000000 3.325650576689998 -2.500000000000000
v 5.000000000000000 2.347481982226983 2.500000000000000
v 5.000000000000000 5.000000000000000 1.469349077082415
v 5.000000000000000 -2.499927011569022 -2.500000000000000
v 5.000000000000000 -1.667664803402089 -2.500000000000000
v 5.000000000000000 3.221504422931979 2.500000000000000
v 5.000000000000000 5.000000000000000 -0.545597438557690
v 5.000000000000000 0.709019284729385 2.500000000000000
v 5.000000000000000 -5.000000000000000 -1.087443875551303
v 5.000000000000000 -5.000000000000000 -0.400917599157854
v 5.000000000000000 4.107082481228421 2.500000000000000
v 5.000000000000000 4.162345021191813 -2.500000000000000
v 5.000000000000000 5.000000000000000 -1.527432890850653
v 5.000000000000000 -4.166343025345517 -2.500000000000000
v 5.000000000000000 -5.000000000000000 -1.789794166621927
v 5.000000000000000 -5.000000000000000 0.255824583639492
v 3.091811778612064 -5.000000000000000 -2.500000000000000
v 2.154707880340361 -5.000000000000000 -2.500000000000000
v 0.331102910654666 -5.000000000000000 -2.500000000000000
v -1.440889599734055 -5.000000000000000 -2.500000000000000
v -5.000000000000000 -5.000000000000000 -0.459428278639039
v 1.234437586274660 -5.000000000000000 -2.500000000000000
v -5.000000000000000 -5.000000000000000 0.546347680598279
v -2.322426425553916 -5.000000000000000 -2.500000000000000
v -2.702095586307434 -5.000000000000000 2.500000000000000
v -3.208514209161911 -5.000000000000000 -2.500000000000000
v -0.558619568563471 -5.000000000000000 -2.500000000000000
v -5.000000000000000 -5.000000000000000 -1.477240677113505
v -3.734214909965564 -5.000000000000000 2.500000000000000
v -1.380708876271333 -5.000000000000000 2.500000000000000
v -1.935817728665986 -5.000000000000000 2.500000000000000
v -5.000000000000000 -5.000000000000000 1.532990485662204
v -4.101406575288204 -5.000000000000000 -2.500000000000000
v 4.042267304416687 -5.000000000000000 -2.500000000000000
v 1.274071519771572 5.000000000000000 2.500000000000000
v -0.523703623597245 5.000000000000000 2.500000000000000
v -1.411528922261516 5.000000000000000 2.500000000000000
v -5.000000000000000 -1.919882065703466 2.500000000000000
v -5.000000000000000 -1.142431671752361 2.500000000000000
v -5.000000000000000 3.129611577943024 2.500000000000000
v -5.000000000000000 -2.692412958379831 2.500000000000000
v 2.190748786242398 5.000000000000000 2.500000000000000
v 0.369897529316116 5.000000000000000 2.500000000000000
v -5.000000000000000 -0.348490109729995 2.500000000000000
v -5.000000000000000 2.214786782190408 2.500000000000000
v -5.000000000000000 1.326077133556483 2.500000000000000
v -5.000000000000000 0.471927215282989 2.500000000000000
v 3.119370541105334 5.000000000000000 2.500000000000000
v -2.299667610158089 5.000000000000000 2.500000000000000
v -5.000000000000000 -3.462639822945584 2.500000000000000
v -3.193182248108814 5.000000000000000 2.500000000000000
v -4.093789991529812 5.000000000000000 2.500000000000000
v -5.000000000000000 4.061761030625394 2.500000000000000
v -5.000000000000000 -4.231532027432507 2.500000000000000
v 4.057416541358952 5.000000000000000 2.500000000000000
v -5.000000000000000 -1.727528815721769 -2.500000000000000
v -5.000000000000000 0.762518756867271 -2.500000000000000
v -5.000000000000000 2.447120573474423 -2.500000000000000
v -3.192083136612915 5.000000000000000 -2.500000000000000
v -1.381837669380474 5.000000000000000 -2.500000000000000
v 0.433308636767752 5.000000000000000 -2.500000000000000
v 2.255379180247244 5.000000000000000 -2.500000000000000
v 3.169027241081894 5.000000000000000 -2.500000000000000
v -5.000000000000000 -2.548970967972015 -2.500000000000000
v -5.000000000000000 -0.072739753305621 -2.500000000000000
v -5.000000000000000 -0.902518920504525 -2.500000000000000
v -5.000000000000000 1.602552257614309 -2.500000000000000
v -2.287397357863351 5.000000000000000 -2.500000000000000
v -0.475043770911828 5.000000000000000 -2.500000000000000
v 1.343431661854245 5.000000000000000 -2.500000000000000
v -5.000000000000000 -3.367718543979469 -2.500000000000000
v -5.000000000000000 3.295590245618895 -2.500000000000000
v 4.084059737509486 5.000000000000000 -2.500000000000000
v -5.000000000000000 -4.184542514565525 -2.500000000000000
v -5.000000000000000 4.146952962121569 -2.500000000000000
v -4.096210128714860 5.000000000000000 -2.500000000000000
v -5.000000000000000 5.000000000000000 -0.499710818165237
v -5.000000000000000 5.000000000000000 0.500289080754996
v -5.000000000000000 5.000000000000000 -1.499785921283975
v -5.000000000000000 5.000000000000000 1.500204138550236
v 5.000000000000000 -5.000000000000000 0.875911160000000
v 5.000000000000000 0.000000000000000 1.525546696000000
v -5.000000000000000 5.000000000000000 -2.500000000000000
v 5.000000000000000 5.000000000000000 2.500000000000000
v 5.000000000000000 5.000000000000000 -2.500000000000000
v 5.000000000000000 -5.000000000000000 -2.500000000000000
v -5.000000000000000 -5.000000000000000 2.500000000000000
v -5.000000000000000 -5.000000000000000 -2.500000000000000
v -5.000000000000000 5.000000000000000 2.500000000000000
f 2 35 21 1
f 21 16 29 1
f 29 4 12 1
f 12 9 2 1
f 11 34 35 2
f 9 8 11 2
f 38 14 28 3
f 28 11 8 3
f 8 24 23 3
f 23 37 38 3
f 29 392 393 4
f 393 394 30 4
f 30 18 12 4
f 24 8 9 5
f 9 12 18 5
f 18 391 390 5
f 390 389 24 5
f 7 149 158 6
f 158 171 19 6
f 19 32 27 6
f 27 17 7 6
f 13 179 149 7
f 17 26 13 7
f 20 131 175 10
f 175 179 13 10
f 13 26 25 10
f 25 33 20 10
f 28 31 34 11
f 36 40 15 14
f 15 31 28 14
f 38 155 36 14
f 40 39 33 15
f 33 25 31 15
f 21 27 32 16
f 32 398 395 16
f 395 392 29 16
f 27 21 35 17
f 35 34 26 17
f 30 396 391 18
f 171 437 399 19
f 399 398 32 19
f 22 125 131 20
f 33 39 22 20
f 162 163 125 22
f 39 160 162 22
f 24 389 397 23
f 489 397 70 50
f 26 34 31 25
f 394 488 396 30
f 153 164 40 36
f 155 181 153 36
f 188 155 38 37
f 489 50 58 415
f 40 164 160 39
f 62 83 45 41
f 45 55 77 41
f 77 68 49 41
f 49 74 62 41
f 43 71 75 42
f 75 63 51 42
f 51 66 57 42
f 57 48 43 42
f 46 73 71 43
f 48 54 46 43
f 400 415 58 44
f 58 71 73 44
f 73 77 55 44
f 55 409 400 44
f 83 418 413 45
f 413 409 55 45
f 68 77 73 46
f 54 69 68 46
f 51 63 53 47
f 53 59 60 47
f 60 65 56 47
f 56 66 51 47
f 57 402 405 48
f 405 403 54 48
f 68 69 61 49
f 61 82 74 49
f 489 415 188 37
f 489 37 23 397
f 70 63 75 50
f 75 71 58 50
f 70 397 389 52
f 389 390 64 52
f 64 59 53 52
f 53 63 70 52
f 403 404 69 54
f 65 411 412 56
f 412 401 66 56
f 66 401 402 57
f 64 72 79 59
f 79 81 60 59
f 81 67 65 60
f 69 404 408 61
f 408 419 82 61
f 406 410 83 62
f 74 414 406 62
f 390 391 72 64
f 67 407 411 65
f 81 84 80 67
f 80 421 407 67
f 391 396 76 72
f 76 78 79 72
f 82 420 414 74
f 396 488 423 76
f 423 417 78 76
f 417 416 84 78
f 84 81 79 78
f 84 416 422 80
f 422 493 421 80
f 419 492 420 82
f 410 491 418 83
f 105 107 122 85
f 122 92 111 85
f 111 120 98 85
f 98 86 105 85
f 393 392 105 86
f 98 99 114 86
f 114 394 393 86
f 88 89 94 87
f 94 431 427 87
f 427 434 91 87
f 91 103 88 87
f 110 118 89 88
f 103 116 110 88
f 118 121 90 89
f 90 101 94 89
f 121 102 112 90
f 112 123 101 90
f 434 426 97 91
f 97 96 103 91
f 122 117 96 92
f 96 97 95 92
f 95 93 111 92
f 95 429 425 93
f 425 424 100 93
f 100 120 111 93
f 101 433 431 94
f 97 426 429 95
f 117 116 103 96
f 120 119 99 98
f 119 416 417 99
f 417 423 114 99
f 424 441 113 100
f 113 119 120 100
f 123 440 433 101
f 124 439 430 102
f 430 428 112 102
f 121 108 124 102
f 399 437 109 104
f 109 110 116 104
f 116 117 106 104
f 106 398 399 104
f 392 395 107 105
f 117 122 107 106
f 107 395 398 106
f 432 436 124 108
f 121 118 115 108
f 115 438 432 108
f 437 438 115 109
f 115 118 110 109
f 428 435 123 112
f 441 493 422 113
f 422 416 119 113
f 423 488 394 114
f 435 495 440 123
f 436 494 439 124
f 163 167 126 125
f 126 176 131 125
f 167 177 178 126
f 178 192 176 126
f 157 173 132 127
f 132 135 161 127
f 161 152 156 127
f 156 159 157 127
f 450 443 159 128
f 159 156 133 128
f 133 137 141 128
f 141 442 450 128
f 184 193 165 129
f 165 181 172 129
f 172 400 409 129
f 409 413 184 129
f 145 448 457 130
f 457 461 180 130
f 180 166 190 130
f 190 142 145 130
f 176 194 175 131
f 173 191 134 132
f 134 154 135 132
f 156 152 148 133
f 148 170 137 133
f 191 186 150 134
f 150 140 154 134
f 154 177 167 135
f 167 163 161 135
f 174 151 147 136
f 147 145 142 136
f 142 144 138 136
f 138 194 174 136
f 170 168 187 137
f 187 169 141 137
f 144 149 179 138
f 179 175 194 138
f 140 452 453 139
f 453 454 143 139
f 143 178 177 139
f 177 154 140 139
f 150 447 452 140
f 169 449 442 141
f 190 189 144 142
f 454 451 146 143
f 146 192 178 143
f 189 158 149 144
f 147 445 448 145
f 451 446 151 146
f 151 174 192 146
f 151 446 445 147
f 152 162 160 148
f 160 164 170 148
f 186 460 447 150
f 161 163 162 152
f 168 170 164 153
f 181 165 168 153
f 188 172 181 155
f 444 456 173 157
f 159 443 444 157
f 189 185 171 158
f 193 187 168 165
f 180 436 432 166
f 432 438 185 166
f 185 189 190 166
f 187 193 182 169
f 182 455 449 169
f 185 438 437 171
f 188 415 400 172
f 456 458 191 173
f 194 176 192 174
f 461 494 436 180
f 193 184 183 182
f 183 462 455 182
f 184 413 418 183
f 418 491 462 183
f 459 496 460 186
f 191 458 459 186
f 253 241 234 195
f 234 202 276 195
f 276 275 200 195
f 200 225 253 195
f 277 262 203 196
f 203 244 226 196
f 226 210 214 196
f 214 299 277 196
f 258 265 206 197
f 206 242 268 197
f 268 271 204 197
f 204 217 258 197
f 245 219 208 198
f 208 304 267 198
f 267 231 201 198
f 201 218 245 198
f 264 302 207 199
f 207 281 220 199
f 220 246 202 199
f 202 234 264 199
f 275 297 296 200
f 296 240 225 200
f 231 242 206 201
f 206 265 218 201
f 246 221 276 202
f 262 217 204 203
f 204 271 244 203
f 216 301 283 205
f 283 282 284 205
f 284 280 274 205
f 274 223 216 205
f 302 303 278 207
f 278 300 281 207
f 219 298 279 208
f 279 295 304 208
f 269 401 412 209
f 412 411 210 209
f 210 226 243 209
f 243 211 269 209
f 411 407 214 210
f 259 224 269 211
f 243 257 228 211
f 228 235 259 211
f 213 285 294 212
f 294 302 264 212
f 264 234 241 212
f 241 215 213 212
f 233 289 285 213
f 215 239 233 213
f 407 421 299 214
f 241 253 230 215
f 230 238 239 215
f 470 480 301 216
f 223 469 470 216
f 429 426 258 217
f 262 425 429 217
f 427 431 245 218
f 265 434 427 218
f 433 440 298 219
f 245 431 433 219
f 281 466 475 220
f 475 467 246 220
f 476 468 222 221
f 222 275 276 221
f 246 467 476 221
f 468 477 247 222
f 247 297 275 222
f 274 297 247 223
f 247 477 469 223
f 266 405 402 224
f 402 401 269 224
f 259 263 266 224
f 240 236 261 225
f 261 230 253 225
f 244 257 243 226
f 267 304 293 227
f 293 286 256 227
f 256 254 255 227
f 255 231 267 227
f 257 237 249 228
f 249 229 235 228
f 249 260 250 229
f 250 261 236 229
f 236 248 235 229
f 261 250 238 230
f 255 252 242 231
f 268 242 252 232
f 252 251 260 232
f 260 249 237 232
f 237 271 268 232
f 256 286 289 233
f 239 254 256 233
f 248 263 259 235
f 240 273 248 236
f 257 244 271 237
f 251 254 239 238
f 250 260 251 238
f 296 280 273 240
f 273 270 263 248
f 252 255 254 251
f 426 434 265 258
f 277 424 425 262
f 270 272 266 263
f 272 403 405 266
f 284 282 272 270
f 273 280 284 270
f 282 404 403 272
f 280 296 297 274
f 299 441 424 277
f 303 465 479 278
f 479 482 300 278
f 298 481 478 279
f 478 471 295 279
f 300 483 466 281
f 283 408 404 282
f 301 419 408 283
f 289 290 288 285
f 288 292 294 285
f 293 287 291 286
f 291 290 289 286
f 295 471 463 287
f 463 473 291 287
f 293 304 295 287
f 290 472 464 288
f 464 474 292 288
f 291 473 472 290
f 303 302 294 292
f 474 465 303 292
f 440 495 481 298
f 421 493 441 299
f 482 490 483 300
f 480 492 419 301
f 328 346 340 305
f 340 326 343 305
f 343 461 457 305
f 457 448 328 305
f 340 346 308 306
f 308 307 316 306
f 316 342 325 306
f 325 326 340 306
f 308 314 313 307
f 313 463 471 307
f 471 478 316 307
f 346 333 314 308
f 310 318 312 309
f 312 322 327 309
f 327 454 453 309
f 453 452 310 309
f 317 338 318 310
f 452 447 317 310
f 320 324 315 311
f 315 313 314 311
f 314 333 335 311
f 335 319 320 311
f 318 347 336 312
f 336 321 322 312
f 315 473 463 313
f 324 472 473 315
f 478 481 342 316
f 341 339 338 317
f 447 460 341 317
f 338 345 347 318
f 322 321 320 319
f 335 330 323 319
f 323 327 322 319
f 321 332 324 320
f 336 334 332 321
f 330 446 451 323
f 451 454 327 323
f 332 464 472 324
f 342 435 428 325
f 428 430 326 325
f 430 439 343 326
f 331 333 346 328
f 448 445 331 328
f 344 482 479 329
f 479 465 348 329
f 348 347 345 329
f 345 337 344 329
f 335 333 331 330
f 331 445 446 330
f 334 474 464 332
f 348 465 474 334
f 336 347 348 334
f 484 486 344 337
f 345 338 339 337
f 339 485 484 337
f 341 487 485 339
f 460 496 487 341
f 481 495 435 342
f 439 494 461 343
f 486 490 482 344
f 361 375 374 349
f 374 444 443 349
f 443 450 363 349
f 363 364 361 349
f 468 476 366 350
f 366 365 362 350
f 362 373 369 350
f 369 477 468 350
f 372 373 355 351
f 355 357 353 351
f 353 359 378 351
f 378 386 372 351
f 354 360 379 352
f 379 387 388 352
f 388 375 356 352
f 356 358 354 352
f 357 442 449 353
f 449 455 359 353
f 475 466 360 354
f 358 467 475 354
f 373 362 364 355
f 364 363 357 355
f 375 361 365 356
f 365 366 358 356
f 363 450 442 357
f 366 476 467 358
f 455 462 382 359
f 382 380 378 359
f 466 483 383 360
f 383 381 379 360
f 364 362 365 361
f 370 372 386 367
f 386 376 385 367
f 385 480 470 367
f 470 469 370 367
f 387 377 384 368
f 384 459 458 368
f 458 456 371 368
f 371 388 387 368
f 373 372 370 369
f 370 469 477 369
f 456 444 374 371
f 374 375 388 371
f 386 378 380 376
f 380 406 414 376
f 414 420 385 376
f 381 484 485 377
f 485 487 384 377
f 387 379 381 377
f 382 410 406 380
f 383 486 484 381
f 462 491 410 382
f 483 490 486 383
f 487 496 459 384
f 420 492 480 385
