v -1.227937618600682 -2.727092559764217 0.845898286409471
v -1.237674034120649 -2.729423277482919 -0.376910741637542
v -2.843117998457283 -0.947877357278817 -0.897761114539087
v -0.593268847111657 -2.931916355379229 -1.002908406328382
v 0.481268744842606 -2.956801200428375 -1.029960219380045
v -0.041045426768743 -2.995737929431058 -1.018990314758074
v -2.826364363740982 -0.985501950352545 -0.299893236014145
v 0.994770937691747 -2.824077929826157 -1.029674765027809
v 1.478034761775998 -2.600319889093571 -1.024351350267660
v -2.801696738564585 -1.052785168008580 0.888855142668948
v 2.278730904200548 -1.949699462583159 -1.008373565091202
v 2.972641288510509 -0.302911445058246 -0.595497942461189
v -1.831889553025156 -2.371739799523111 -0.903699300829598
v 1.904145605473859 -2.311492784319727 -1.014732899391118
v -2.229644516521233 -1.993221684971139 -0.305145125515665
v -2.281335357826272 -1.941015313469788 -0.886596433281006
v -2.578973479716274 -1.508902776161394 -0.296792341435369
v 2.628022059001368 -1.445015135867241 -1.018403007279626
v -2.618355208215632 -1.459250484534739 -0.890809296205874
v 0.452413995805276 -2.957148077175353 -0.566023880359157
v -2.201521708814784 -2.031917396386427 0.275643156104733
v -1.233990290601783 -2.728669752577979 0.219470986237099
v -0.150088487350066 -2.988835892195160 0.763749975339243
v -2.537702918577688 -1.583384978995574 0.878043521671292
v 2.849527287932818 -0.898404407425619 -0.570371781021703
v -2.958257904894259 -0.436959496340302 -0.303657822540031
v -2.960675564556136 -0.467332283356362 0.293572487917658
v -2.166840781909548 -2.063532869944500 0.868099829804549
v -1.780937190628986 -2.407396158558069 -0.330386679761692
v 2.570537843648699 -1.525459319192730 -0.519009790752182
v -0.112894532851840 -2.991568489900297 0.021149104909239
v -0.621854400142119 -2.926308586284800 -0.459279944968880
v -0.066815988683332 -2.995302448440499 -0.525234962845674
v 1.817203692918514 -2.371879062748633 -0.526536571292212
v 1.432975961262835 -2.621099066569919 -0.553099982424625
v 0.959935770119730 -2.831380708831291 -0.571525296922297
v -1.722144068861724 -2.446792168474772 0.860557519770719
v -0.694533139993258 -2.912178820379514 0.815187662606041
v 2.870671519628452 -0.860273122930335 -1.033424895640653
v -1.755081358743957 -2.431540801265106 0.258680449712756
v -0.677089440022930 -2.914116933784241 0.153853926341172
v -1.240537785387409 -2.727819214462627 -0.953033712321904
v -2.965172115903031 -0.405733986046386 -0.901212961536829
v -2.956912472656474 -0.489900525153767 0.894109586271351
v -2.814150169230839 -1.024697827294141 0.291749628954513
v -2.561631917195821 -1.551924765866094 0.285240267203438
v 2.981198336337584 -0.289314815908167 -1.045027468529886
v 1.468774677377144 -0.289986297389794 -0.988115351896294
v 0.570144455785870 -1.385820035472312 1.040174093192121
v -1.090782033438592 -1.029463186806717 1.035144194208697
v -1.436552394818453 -0.409845553610537 0.048971827283088
v 1.125452983878802 -0.985728751066066 1.030227399632337
v -1.446094739057328 -0.371940479138040 -0.463693871626122
v 1.464622505740471 -0.315971516135118 0.025402054547423
v -1.407540031390049 -0.498140400333965 1.024451098134294
v 1.266733027276887 -0.787641002102843 -0.982233232215709
v -1.208393834980108 -0.886814882405378 -0.462037945184062
v -1.249441814908415 -0.821400317187269 -0.983346028513460
v 1.464283823289771 -0.306620832261043 -0.481571378780421
v 0.786678896401307 -1.272826724011574 -0.981265712267327
v 1.220790366354349 -0.867464121712977 0.028908273198364
v 1.244507252948246 -0.831300686952474 -0.484118734644474
v 1.185291815091330 -0.913733954735705 0.550137661242757
v -0.763453641207111 -1.290488864903733 -0.978865468808156
v -1.167370119692668 -0.934723461977447 0.065412162302897
v 0.011235185698153 -1.493231859281985 -0.456585828430842
v -1.129630486909654 -0.977816482359728 0.574120883875097
v 0.683435301018026 -1.332770002985970 0.051845109754260
v 0.003102242746409 -1.492419773767018 -0.978673772825875
v 0.626443531264800 -1.357739279028841 0.575792557983544
v 0.004318478116691 -1.493624018935037 0.072264825900181
v -0.646200726586669 -1.346528509415144 0.073522771303778
v -1.456307168373312 -0.339223176441906 -0.980879152365760
v -0.688876965995700 -1.326874092988291 -0.455513761299350
v 0.733852291995527 -1.306127271906558 -0.468542322068788
v -0.012075280603100 -1.494039532448819 0.584751476761187
v -0.614327840037353 -1.362841096966044 0.582719440848412
v -0.020282643784367 -1.497226174686742 1.039202601356598
v 1.453044601535909 -0.348445403377904 1.017382182024376
v -0.595961519624046 -1.371888448811049 1.034503142561187
v -1.425479164111938 -0.460278412968198 0.546462082984483
v 1.459720039867481 -0.331030968869591 0.528732778515810
v 1.155396663134705 0.952935344765737 1.018562184344413
v 0.086087933427780 1.492664908476878 0.544749298628312
v 1.477218049618845 0.233024841632944 -0.988917165873689
v -1.351610251093525 0.640521822284793 0.052074652251539
v 0.694176207202577 1.325126260715973 0.545737062300827
v 1.476552098675869 0.260544910168922 0.029830327492330
v -1.484720046634419 0.148915252039949 -0.973005628495164
v -1.354501194451542 0.641755308505044 -0.956281669903941
v -0.996266972398459 1.120790595755452 -0.963478852232898
v 1.277814538078054 0.773287528719548 -0.472026232652885
v -1.355599219090321 0.633270729354642 0.537783576505895
v 1.298361241256251 0.737002071482994 -0.988018639585829
v -1.354801836352994 0.641596034091843 -0.442448270477852
v -1.023941035108511 1.092624645725277 0.068880800803959
v 0.046283992090131 1.493088621968503 0.990142131652355
v 0.642103207683996 1.349196844407887 1.002335478191782
v 1.251594560558396 0.820170717470809 0.047095847343011
v 0.218199920303450 1.479534299704204 -0.973075954067533
v -0.475264523896263 1.421047296006961 0.088944434428324
v -0.527715735744891 1.400282433658025 1.004105844199242
v 0.132130476347853 1.491846795741226 0.084936896922827
v -1.014124349445537 1.101997080351354 -0.434773973580722
v 1.211055449943329 0.879842593007281 0.548557236907388
v 0.754323811942863 1.294678529577641 0.064487640542713
v -0.434532702301083 1.433661260734272 -0.969185213601032
v 0.810547991337382 1.256981316990887 -0.457113028346295
v -0.459405650718187 1.427225666488284 -0.439014327460818
v 0.860677188846452 1.219457477626777 -0.979701380449181
v -1.015041427785868 1.099401652827011 0.551518704877688
v -1.486856230705005 0.138653224685035 -0.458524009025269
v -1.362294079836097 0.624829602286431 1.016253609548854
v 0.183191315464530 1.487966673480492 -0.444213350920339
v -1.494731113932288 0.071321315449575 1.018826653662949
v -0.502021604527423 1.411422815764082 0.554690774850062
v -1.017779101169952 1.097014967424285 1.016052715690452
v -1.490827888576104 0.120307498557943 0.044408956395294
v -1.492408827543098 0.095308563424516 0.535500065080135
v 1.459167959910389 0.325944196432554 1.016230131267370
v 1.476561241556168 0.241210533506727 -0.478465155368056
v 1.468640939458723 0.291039452447151 0.529295752809462
v -1.107373535231975 2.774493426896777 0.839254070036605
v -2.913874996027511 0.684302396993183 -0.308182380297804
v 0.602839859414795 2.929637901345925 -1.028123014216471
v -0.374417436819334 2.975776986752278 -1.006010452920646
v -2.917024835838387 0.664229013941763 0.291222098734025
v 1.076349439220797 2.790437564479291 -1.027228994096149
v -2.016055586192062 2.215946336632175 -0.321805275818598
v 1.520547767743825 2.573003817765251 -1.022006041188251
v -2.034543260669811 2.191805916571333 0.266712822465922
v 2.284349610706051 1.943472498134980 -1.008072429811960
v 2.975146487433028 0.279043176702243 -0.601453572869287
v 1.919622953346634 2.296528516992874 -1.013658855516957
v -2.407199389636769 1.766401035557578 -0.900671160124380
v -2.421462711424303 1.765174566119077 -0.314403691687395
v -1.992409521821261 2.225268826909883 -0.902960878810564
v -2.715581722946647 1.243257754280568 -0.904810686873038
v 0.078929672278846 2.993066572657932 -0.532467035430851
v -0.041039690814653 2.996947131014505 0.743928038405582
v -2.449263879862842 1.714067021008408 0.881749541455135
v -0.993368508264512 2.823948730498060 -0.407070849502511
v 2.634910475650345 1.432541377194218 -1.019339263756931
v 2.855983946954119 0.877813400032522 -0.577229782127830
v -2.988634337705022 0.124476635223067 -0.306007514890345
v -1.496944150883371 2.584262344202618 -0.932727390486401
v -2.991447731493414 0.100545297287973 0.292653233435103
v -2.063619022125382 2.164731643926467 0.868804282561996
v -2.740832300503281 1.190046202017640 0.890475825024275
v 2.577265267730536 1.512952809771129 -0.520296798725942
v -0.505888856180924 2.952996964581054 0.124312149105400
v -1.538194409098839 2.565575827636946 -0.352883888777800
v -0.412566012049261 2.970168289099296 -0.485604919013757
v 1.830487971351463 2.360889147573426 -0.524151206655991
v 1.475597002808593 2.598144508654375 -0.547865686114598
v -1.612542606340838 2.517018573456766 0.860207277504476
v 1.036837775888868 2.807883693530484 -0.567008959503774
v -0.920653069789077 2.848590780940077 -0.985991908014331
v -1.056163560465137 2.798362944973519 0.199023679901204
v -0.575585221564911 2.938268049521436 0.801484284166849
v -2.733540406194388 1.225207501498142 -0.311849249347760
v 2.875474032635740 0.840186204288782 -1.038146122150061
v -2.432656954747261 1.741122177557638 0.280494594504918
v -1.575945589904773 2.539337412462361 0.244829033478103
v -2.738658234851133 1.207177404425419 0.287294882321143
v 0.118089796262581 2.993010658736161 -1.022224956219807
v -2.993543809595282 0.080581211690812 0.895089672902891
v -2.987692552120022 0.147977736533405 -0.902928099419049
v -2.922590079689792 0.646574926168846 0.894067620585235
v -2.907110651030644 0.702412971258854 -0.904141209137086
v 0.565472127573081 2.945538875396342 -0.570359331015833
v 2.979629047839621 0.276954529902512 -1.046052551503656
v 2.498276395048053 0.258373750296282 -1.500000000000000
v -1.475390644085728 -1.905787828412850 -1.499999999999997
v -1.615494550064459 1.847109082623962 -1.500000000000000
v 1.810426905856745 1.886295871647384 -1.499999999999997
v 2.109225233737971 -1.384391484320245 -1.500000000000001
v 1.537917679143315 1.310917268642148 -1.499999999999991
v -0.677316228523925 -2.119933356537423 -1.499999999999999
v 1.212500112723092 -2.071517853102502 -1.500000000000000
v 0.729719704689265 2.181238165197005 -1.499999999999990
v 1.509425878673497 -1.323502410052247 -1.500000000000001
v 2.124027838814162 1.371966429119788 -1.500000000000000
v 2.495188406034781 -0.279811358457254 -1.500000000000001
v 0.598617677280907 -2.219547777810605 -1.500000000000002
v -0.359804258918334 2.197109783489922 -1.499999999999992
v -0.024634661788550 -2.252646442279204 -1.500000000000003
v -0.945355703601768 2.015534708328776 -1.500000000000014
v 2.364551518400501 -0.831693555664954 -1.499999999999999
v 1.787289827042812 -1.899824674777206 -1.500000000000000
v -1.798555555028495 1.204337618411093 -1.499999999999999
v 0.183641670511571 2.250573070553203 -1.499999999999996
v 1.281364955608002 2.047026156586345 -1.499999999999993
v -1.713046044592771 -1.295504414822719 -1.500000000000010
v -1.909770121169118 -0.794509988426221 -1.500000000000001
v 1.887309413269849 -0.262699997101551 -1.500000000000003
v -2.025324933942884 0.165166758202978 -1.500000000000008
v 1.889128062834876 0.236002407107266 -1.500000000000003
v -2.011467001547851 -0.311346473437240 -1.500000000000003
v 2.375829890312062 0.812217528400922 -1.500000000000000
v 1.777585234155829 0.754565734581162 -1.500000000000010
v 1.764856271442656 -0.778755792192562 -1.500000000000001
v -1.952600918255532 0.662596859535974 -1.499999999999996
v 1.672210671459739 -2.079163657656684 1.499999999999997
v 5.086416423655753 1.337595506392673 1.500000000000007
v 2.409931115226092 2.112387152322208 1.499999999999998
v -0.557627107674285 2.013952541415492 1.499999999999980
v -1.882498887766801 -1.073565436330923 1.499999999999991
v 4.112818927299330 2.211784045994429 1.499999999999995
v 2.390301506949855 -2.133902584283366 1.499999999999997
v -1.737959262816175 1.772316028879109 1.500000000000021
v -1.861411379749078 1.148262422751129 1.500000000000011
v 8.074792984915751 -1.349389876682505 1.499999999999995
v 0.465679006403938 -2.067724519589992 1.499999999999983
v 5.010207364055427 -2.236994789196801 1.499999999999996
v -2.004630874461467 -0.487192115781975 1.500000000000057
v 4.093699240014363 -2.220405570396451 1.500000000000000
v -1.110518032280234 1.896304325859649 1.499999999999990
v 9.116687167053030 -0.443658664327458 1.500000000000006
v 2.432090797209149 -0.368375356083859 1.500000000000004
v -1.762024205488602 -1.726525364161391 1.499999999999986
v 9.122402594406360 -1.341550253867135 1.499999999999997
v -1.144520014869888 -1.865615885055207 1.500000000000023
v 1.038543353190251 -2.060633643997283 1.499999999999998
v 3.229556128685539 2.174049129481919 1.500000000000004
v 3.208677375630561 -2.172461085283633 1.499999999999998
v 6.008740495425160 2.228413825459255 1.499999999999993
v 5.038603819888507 2.218698263580608 1.499999999999992
v 7.014606233458827 -2.233278239597409 1.499999999999996
v 1.705347460083936 2.053619973263213 1.500000000000001
v 7.017089402365903 2.230613447990955 1.499999999999991
v 1.080797890956207 2.047690896832185 1.500000000000009
v 8.051949639785668 2.241089029077869 1.499999999999989
v 6.071851504235710 -0.445750448382051 1.499999999999993
v 2.414480934339848 -1.175630257348766 1.500000000000003
v 8.088902988718697 -0.447659667731379 1.500000000000006
v 7.072067048599035 0.449837410769940 1.500000000000007
v -1.985244421338573 0.579145444385475 1.500000000000037
v 5.106097861854773 0.444062405044484 1.500000000000005
v 7.054384981079628 1.348122809991644 1.499999999999984
v 7.069595507743452 -0.447694311803250 1.500000000000005
v 6.073712479774162 0.448997955220849 1.499999999999990
v 8.045996039070161 -2.234697628096174 1.500000000000007
v -2.043426636104581 0.045423004769501 1.500000000000080
v 5.103429308304198 -0.443144622357798 1.499999999999999
v 0.520626833136192 2.078719361726320 1.499999999999940
v 4.157874571031540 -0.433575466664641 1.499999999999992
v -0.019165342932587 2.080222870360373 1.500000000000050
v 6.054273436603124 1.345571528077824 1.500000000000008
v 2.412113649803855 1.165464777464072 1.500000000000000
v 4.160158183236562 0.434814626339953 1.499999999999996
v 7.049912084402232 -1.346230380106531 1.500000000000002
v 1.867756969873595 -0.344780163097594 1.500000000000000
v 1.741160414892378 1.106490759179136 1.500000000000008
v -0.074043056942515 -2.072679757444489 1.499999999999996
v 3.233956190320666 -0.403265291634866 1.500000000000005
v 1.730453566171962 -1.114746275336410 1.499999999999995
v 2.427267835609178 0.374878317955413 1.500000000000004
v 5.076137930142668 -1.334286582623987 1.500000000000000
v 4.149636395037106 1.312944953404789 1.499999999999998
v 1.858633053125309 0.352965369400893 1.499999999999996
v -0.606236514917341 -1.999004135944608 1.499999999999996
v 3.236270645628933 -1.257079277008881 1.500000000000002
v 9.083758349608617 2.230660147411440 1.500000000000014
v 8.080200036886701 1.347341427201229 1.500000000000008
v 8.093298978404066 0.450177486181226 1.499999999999997
v 5.997480588264311 -2.234811426647171 1.500000000000001
v 6.047422132182957 -1.340522980694560 1.500000000000004
v 3.241286362585780 1.260361139328197 1.499999999999990
v 3.234736398993898 0.406942565883084 1.499999999999992
v 9.078409105890138 -2.233724880982080 1.499999999999996
v 9.131691861991474 1.336455039520702 1.499999999999973
v 4.140662986406213 -1.314779570425060 1.500000000000002
v 9.140313655503890 0.454196992549161 1.500000000000028
v 4.224447990700112 1.699977606771287 -0.500000000000000
v 3.258822634931020 -2.280857402900343 -0.500000000000000
v 3.271747814800503 2.278567630047657 -0.499999999999999
v 4.036801230480197 -0.324027589991214 -0.500000000000000
v 7.759462923480339 -2.058125575154414 -0.500000000000000
v 5.479368296507269 1.895831554184633 -0.500000000000001
v 4.460093177161482 2.521543730696879 -0.500000000000001
v 4.048994751809955 -0.961766591113847 -0.500000000000000
v 4.075836021760928 0.953121124467098 -0.500000000000000
v 8.777297555148497 1.257236694797734 -0.500000000000000
v 5.623072391792154 2.664689402993738 -0.499999999999998
v 5.599522942764852 -2.670458796475632 -0.500000000000000
v 4.457951376871543 -2.536309671400355 -0.500000000000000
v 9.644118733504627 0.425471095622816 -0.500000000000000
v 9.669920648488205 1.280145691302086 -0.500000000000000
v 9.669752987983586 -1.288992749845848 -0.500000000000000
v 9.644574109361560 -0.431633126655484 -0.500000000000000
v 8.773212299215379 -1.265811404115557 -0.500000000000000
v 6.628016215577547 -2.001842003080533 -0.500000000000000
v 5.346312065088208 1.099287746254149 -0.500000000000002
v 6.738887136699155 2.734623766192516 -0.500000000000000
v 6.714381314896096 -2.741663905738276 -0.500000000000001
v 7.834822159745295 -2.792385260860520 -0.499999999999999
v 7.840975527121786 2.784767509895450 -0.500000000000000
v 5.456003157431146 -1.916673058287115 -0.500000000000000
v 3.281894131319209 0.876704970023725 -0.500000000000000
v 3.288962272772070 -0.893792695973900 -0.500000000000000
v 5.244598461125060 -0.374351650255491 -0.500000000000000
v 6.518133648135963 0.386758764558367 -0.500000000000000
v 3.195240107925343 -1.535818153790106 -0.500000000000000
v 8.913220741642238 -2.848020853817365 -0.500000000000000
v 7.656189143986035 -0.413641877634535 -0.500000000000000
v 3.198996135585034 1.524219039883135 -0.500000000000000
v 6.514652878215276 -0.399960775917340 -0.500000000000002
v 3.335155772095159 0.271863588311698 -0.500000000000000
v 8.916285304042798 2.844909619758317 -0.500000000000001
v 4.024934478395272 0.291305785476936 -0.500000000000000
v 3.351253092304897 -0.303911015557752 -0.500000000000000
v 9.747516327490285 -2.155122049655657 -0.500000000000000
v 8.731862557787487 -0.424221258632038 -0.500000000000001
v 5.259545763046093 0.349519832096000 -0.500000000000000
v 9.745789382349253 2.148427469089902 -0.500000000000000
v 7.689711064957999 -1.234632190590826 -0.500000000000000
v 6.651491969158561 1.990422516855857 -0.500000000000003
v 6.556091913109364 -1.194557855685702 -0.499999999999999
v 8.733611189793319 0.417546976044298 -0.500000000000000
v 6.567278556483506 1.177471454758202 -0.500000000000002
v 7.662087213504980 0.402512454386034 -0.500000000000001
v 5.316442575386612 -1.116974233174094 -0.500000000000000
v 4.211793011297631 -1.708687942724642 -0.500000000000000
v 8.837688895796173 2.102010817491016 -0.500000000000001
v 7.763574225123001 2.055055252256071 -0.500000000000003
v 8.833776249755477 -2.113742124703286 -0.500000000000000
v 7.696403356035384 1.222915454983969 -0.500000000000000
v 1.520213190311567 -3.000000000000000 0.526804414215793
v 0.949503976385701 -3.000000000000002 0.632726683613891
v 1.995064247143053 -3.000000000000001 -0.419915831096209
v 2.148817804685811 -2.999999999999996 0.480030865128902
v 0.937962171179631 -2.999999999999999 -0.178057149892024
v 1.424312886994117 -2.999999999999999 -0.340859943874851
v 2.930079098551044 -2.999999999999993 0.547583149593951
v 4.644783343169780 -3.000000000000000 -0.187439395894987
v 6.802725091505308 -2.999999999999996 -0.033139696078216
v 3.842992318088954 -2.999999999999993 0.610369435752138
v 6.889286371860171 -3.000000000000012 0.756000463870328
v 4.826201245872572 -2.999999999999996 0.696066830740360
v 3.549580259519062 -3.000000000000003 -0.346742876855909
v 5.833074661028816 -3.000000000000003 0.738910133199557
v 7.956713586222271 -3.000000000000016 0.794107505691492
v 7.895523750882637 -2.999999999999995 -0.006107341662589
v 9.958262187618050 -3.000000000000007 0.127532738809602
v 9.008404132515412 -3.000000000000023 0.812573173771756
v 9.955479378949082 -3.000000000000008 0.797558324165585
v 8.965236522415086 -3.000000000000007 0.039644125361552
v 2.609490116076412 -2.999999999999996 -0.489360433155953
v 0.378545279167797 -2.999999999999996 0.703533922429068
v 5.712561879754658 -2.999999999999998 -0.106043081066594
v 0.406240525694520 -2.999999999999976 -0.083584573974324
v 0.521317338092311 2.999999999999997 -0.085597263481312
v 1.573239032138229 3.000000000000000 0.496894825634778
v 0.464294858542468 2.999999999999999 0.663542462020174
v 1.008030294418639 2.999999999999980 0.569549197355797
v 1.010361312519604 3.000000000000004 -0.189069744900888
v 1.469669555656941 3.000000000000004 -0.347772577768093
v 2.032392704141436 2.999999999999999 -0.426175988420283
v 2.200399195273988 2.999999999999993 0.468435567529921
v 2.960398918123827 3.000000000000012 0.542434042015392
v 3.570558064419469 2.999999999999990 -0.349341576353974
v 5.741257783842478 2.999999999999996 -0.091482566497304
v 5.858029728897171 3.000000000000015 0.721292133690586
v 3.860804211170603 3.000000000000007 0.603138501887173
v 7.968959276715420 3.000000000000071 0.788379482145281
v 4.659620583493677 3.000000000000011 -0.193639226077455
v 4.845521157534137 3.000000000000006 0.700314956656602
v 6.822511885182046 2.999999999999998 -0.047523582358478
v 7.907150941941751 2.999999999999981 0.002830411646111
v 6.906493586915284 2.999999999999952 0.767346879776769
v 9.956931935287038 2.999999999999999 0.798812361785556
v 9.960134293953923 3.000000000000014 0.128660355001378
v 9.010825433745925 3.000000000000017 0.823816503105382
v 2.645359074401324 3.000000000000007 -0.489625273771710
v 0.024084444908096 2.999999999999940 -0.012911425293853
v 8.970302642450465 3.000000000000024 0.032050995749280
v 10.000000000000002 -0.434393857549403 -0.054279801647866
v 10.000000000000002 0.431715252146041 -0.054158201758734
v 10.000000000000027 -1.305596873888780 0.746101825743157
v 10.000000000000041 1.303528213505095 0.746448426960931
v 9.999999999999993 2.192810923505830 0.799352920350828
v 10.000000000000007 -2.195277245159293 0.799005586449661
v 10.000000000000000 0.435807276982271 0.729663368601168
v 10.000000000000057 -0.435402411942547 0.729346947515916
v 10.000000000000012 1.293308200091533 -0.030747010930289
v 10.000000000000016 -1.297938549254781 -0.031123816977879
v 10.000000000000014 -2.184079562868884 0.015214677895911
v 10.000000000000007 2.180227909059938 0.016036417733759
v 0.504369169763319 -2.943013344666748 -1.500000000000000
v 1.035670350021564 -2.804809090482159 -1.500000000000000
v 1.551915205343183 -2.560357606040212 -1.500000000000000
v 2.344334992959673 -1.855221171357380 -1.500000000000000
v -2.843501593816466 -0.903623323586604 -1.500000000000000
v -1.219687765215684 -2.733347577032462 1.500000000000000
v -1.262258075703718 -2.703925734843878 -1.500000000000000
v -2.625598450758738 -1.419461451659756 -1.500000000000000
v -2.328665556474370 -1.872623843802779 -1.500000000000000
v 2.654877297368849 -1.368749001556480 -1.500000000000000
v 2.970842889219373 -0.277411367992415 -1.500000000000000
v -0.685938235218516 -2.911818759548852 1.500000000000000
v -2.793242124492608 -1.076833022590942 1.500000000000000
v -2.510258075268885 -1.637058866429701 1.500000000000000
v -0.602301521503300 -2.922197180148025 -1.500000000000000
v 2.869629028124249 -0.823211349015409 -1.500000000000000
v -0.036149640235686 -2.983565690000000 -1.500000000000000
v -2.960898563915960 -0.372025299631151 -1.500000000000000
v -0.140507230563844 -2.986161245482961 1.500000000000000
v -2.950746845838271 -0.500075659213254 1.500000000000000
v -1.709593840489549 -2.459215555140191 1.500000000000000
v 1.452143657541153 -0.358272060658821 1.500000000000000
v -1.404832614093695 -0.503880483076179 1.500000000000000
v 1.292670246783796 -0.744595141438414 -1.500000000000000
v -1.286599775213969 -0.755109506520430 -1.500000000000000
v -0.575628423593069 -1.376673331959674 1.500000000000000
v -0.034354949854281 -1.491782840000000 1.500000000000000
v 0.515080847520441 -1.403630847653338 1.500000000000000
v -0.016178713796151 -1.491782840000000 -1.500000000000000
v -1.468010220455268 -0.304362414860845 -1.500000000000000
v 1.472446233515035 -0.262156570793152 -1.500000000000000
v -1.483536523433824 0.156639512869405 -1.500000000000000
v 1.451157084385763 0.361308420677285 1.500000000000000
v 0.565421872451525 1.381217580968855 1.500000000000000
v -1.350839774491651 0.643842564981453 -1.500000000000000
v -1.375229290302486 0.594990147151442 1.500000000000000
v 1.309318570645174 0.715759398931652 -1.500000000000000
v -0.537877081607762 1.393481311073570 1.500000000000000
v 0.223177868438686 1.477672234577926 -1.500000000000000
v 0.012498925020089 1.491782840000000 1.500000000000000
v -0.404895146166321 1.439047034424908 -1.500000000000000
v 1.476099135493070 0.227401530805144 -1.500000000000000
v -1.494710347164033 0.050327683836621 1.500000000000000
v 2.972521237499111 0.261442951376890 -1.500000000000000
v 0.636083775323637 2.915016540238503 -1.500000000000000
v 1.125318207643687 2.764895292523883 -1.500000000000000
v 1.593244597094611 2.530330045731703 -1.500000000000000
v 2.348928105973827 1.850120002507754 -1.500000000000000
v -2.907153942494049 0.707721537633825 -1.500000000000000
v -1.663457755870093 2.496147574864715 1.500000000000000
v -1.496684802882159 2.599552230860545 -1.500000000000000
v -2.718191920009567 1.259084857875140 -1.500000000000000
v -2.400758661636957 1.792556338127449 -1.500000000000000
v 2.662169538511703 1.356118469349301 -1.500000000000000
v -0.601415181130770 2.937458547190361 1.500000000000000
v -1.146171167179848 2.772208628697837 1.500000000000000
v -2.930505685090256 0.624335696213366 1.500000000000000
v -2.751148814826276 1.186383991787337 1.500000000000000
v -2.458689724047225 1.710234567512424 1.500000000000000
v -0.361431592906674 2.973395665349249 -1.500000000000000
v -0.887948207330446 2.861481101132652 -1.500000000000000
v 2.875452681083172 0.805287988147752 -1.500000000000000
v 0.140661906854742 2.983565690000000 -1.500000000000000
v -2.982722370206933 0.164385660589725 -1.500000000000000
v -0.059692166254354 2.994120834692497 1.500000000000000
v -2.993650455019430 0.064468011153894 1.500000000000000
v 1.004304248150718 -3.000000000000000 1.500000000000000
v 0.418375530236369 -3.000000000000000 1.500000000000000
v 0.488325193663773 3.000000000000000 1.500000000000000
v 1.062433788245703 3.000000000000000 1.500000000000000
v 1.614413253179755 -3.000000000000000 1.500000000000000
v 2.320674491101449 -3.000000000000000 1.500000000000000
v 1.662021951243026 3.000000000000000 1.500000000000000
v 2.362461385006525 3.000000000000000 1.500000000000000
v 3.157007720680172 3.000000000000000 1.500000000000000
v 4.011203731540757 -3.000000000000000 1.500000000000000
v 4.939308334109269 -3.000000000000000 1.500000000000000
v 10.000000000000000 -1.330480402470001 1.500000000000000
v 10.000000000000000 0.444548358217009 1.500000000000000
v 4.965397317496432 3.000000000000000 1.500000000000000
v 6.971877849166527 3.000000000000000 1.500000000000000
v 5.949292539153299 3.000000000000000 1.500000000000000
v 6.961376272069936 -3.000000000000000 1.500000000000000
v 8.015203025018231 -3.000000000000000 1.500000000000000
v 8.026168124268910 3.000000000000000 1.500000000000000
v 3.130419934323270 -3.000000000000000 1.500000000000000
v 9.051512089459976 3.000000000000000 1.500000000000000
v 10.000000000000000 1.330291505216874 1.500000000000000
v 9.048206279846093 -3.000000000000000 1.500000000000000
v 4.029908911139532 3.000000000000000 1.500000000000000
v 5.928214516102084 -3.000000000000000 1.500000000000000
v 10.000000000000000 -2.199163787054909 1.500000000000000
v 10.000000000000000 2.197779281098372 1.500000000000000
v 10.000000000000000 -0.441359475207312 1.500000000000000
v 2.007391820000000 -2.229434480000000 -1.500000000000000
v -2.007391820000000 -2.229434480000000 -1.500000000000000
v -2.121320340000000 -2.121320340000000 1.500000000000000
v 2.121320340000000 -2.121320340000000 -0.500000000000000
v 1.003695910000000 -1.114717240000000 -1.500000000000000
v -1.003695910000000 -1.114717240000000 -1.500000000000000
v 1.003695910000000 -1.114717240000000 1.500000000000000
v -1.003695910000000 -1.114717240000000 1.500000000000000
v -1.003695910000000 1.114717240000000 1.500000000000000
v 1.003695910000000 1.114717240000000 1.500000000000000
v 1.003695910000000 1.114717240000000 -1.500000000000000
v -1.003695910000000 1.114717240000000 -1.500000000000000
v 2.007391820000000 2.229434480000000 -1.500000000000000
v -2.007391820000000 2.229434480000000 -1.500000000000000
v -2.121320340000000 2.121320340000000 1.500000000000000
v 2.121320340000000 2.121320340000000 -0.500000000000000
v 10.000000000000000 -3.000000000000000 1.500000000000000
v 10.000000000000000 3.000000000000000 1.500000000000000
v 10.000000000000000 -3.000000000000000 -0.500000000000000
v 10.000000000000000 3.000000000000000 -0.500000000000000
f 22 41 38 1
f 38 401 395 1
f 395 410 37 1
f 37 40 22 1
f 42 4 32 2
f 32 41 22 2
f 22 40 29 2
f 29 13 42 2
f 394 397 19 3
f 19 17 7 3
f 7 26 43 3
f 43 407 394 3
f 404 406 6 4
f 6 33 32 4
f 42 396 404 4
f 390 391 8 5
f 8 36 20 5
f 20 33 6 5
f 6 406 390 5
f 17 46 45 7
f 45 27 26 7
f 391 392 9 8
f 9 35 36 8
f 392 484 14 9
f 14 34 35 9
f 45 46 24 10
f 24 403 402 10
f 402 409 44 10
f 44 27 45 10
f 393 399 18 11
f 18 30 487 11
f 487 34 14 11
f 14 484 393 11
f 133 309 312 12
f 312 301 25 12
f 25 39 47 12
f 47 172 133 12
f 485 396 42 13
f 29 15 16 13
f 16 398 485 13
f 29 40 21 15
f 21 46 17 15
f 17 19 16 15
f 19 397 398 16
f 39 25 30 18
f 399 405 39 18
f 36 333 352 20
f 352 31 33 20
f 40 37 28 21
f 28 24 46 21
f 31 352 350 23
f 350 457 408 23
f 408 401 38 23
f 38 41 31 23
f 28 486 403 24
f 301 304 30 25
f 27 147 145 26
f 145 168 43 26
f 44 167 147 27
f 37 410 486 28
f 304 276 487 30
f 41 32 33 31
f 487 349 331 34
f 331 334 35 34
f 334 333 36 35
f 405 400 47 39
f 168 453 407 43
f 409 455 167 44
f 400 433 172 47
f 85 431 420 48
f 420 413 56 48
f 56 62 59 48
f 59 121 85 48
f 417 490 52 49
f 52 63 70 49
f 70 76 78 49
f 78 416 417 49
f 491 415 80 50
f 80 77 67 50
f 67 81 55 50
f 55 412 491 50
f 65 57 53 51
f 53 112 118 51
f 118 119 81 51
f 81 67 65 51
f 490 411 79 52
f 79 82 63 52
f 57 58 73 53
f 73 89 112 53
f 82 122 88 54
f 88 121 59 54
f 59 62 61 54
f 61 63 82 54
f 81 119 115 55
f 115 432 412 55
f 413 488 60 56
f 60 75 62 56
f 65 72 74 57
f 74 64 58 57
f 64 489 414 58
f 414 419 73 58
f 488 418 69 60
f 69 66 75 60
f 62 75 68 61
f 68 70 63 61
f 74 66 69 64
f 69 418 489 64
f 67 77 72 65
f 71 68 75 66
f 74 72 71 66
f 71 76 70 68
f 72 77 76 71
f 419 421 89 73
f 77 80 78 76
f 80 415 416 78
f 411 422 120 79
f 120 122 82 79
f 120 422 493 83
f 493 423 98 83
f 98 87 105 83
f 105 122 120 83
f 116 101 103 84
f 103 106 87 84
f 87 98 97 84
f 97 102 116 84
f 94 426 431 85
f 121 92 94 85
f 118 112 95 86
f 95 104 96 86
f 96 111 93 86
f 93 119 118 86
f 106 99 105 87
f 122 105 99 88
f 99 92 121 88
f 421 424 90 89
f 90 95 112 89
f 424 495 91 90
f 91 104 95 90
f 495 430 107 91
f 107 109 104 91
f 99 106 108 92
f 108 110 94 92
f 113 115 119 93
f 111 117 113 93
f 110 494 426 94
f 104 109 101 96
f 101 116 111 96
f 98 423 429 97
f 429 427 102 97
f 114 109 107 100
f 107 430 428 100
f 428 494 110 100
f 110 108 114 100
f 109 114 103 101
f 117 111 116 102
f 427 492 117 102
f 114 108 106 103
f 425 432 115 113
f 117 492 425 113
f 159 164 156 123
f 156 439 445 123
f 445 444 160 123
f 160 151 159 123
f 170 168 145 124
f 145 147 127 124
f 127 165 161 124
f 161 138 170 124
f 434 452 166 125
f 166 139 171 125
f 171 157 128 125
f 128 435 434 125
f 449 450 158 126
f 158 142 153 126
f 153 139 166 126
f 166 452 449 126
f 147 167 169 127
f 169 149 165 127
f 157 155 130 128
f 130 436 435 128
f 137 135 136 129
f 136 163 131 129
f 131 164 152 129
f 152 146 137 129
f 155 154 134 130
f 134 496 436 130
f 163 141 148 131
f 148 156 164 131
f 134 154 499 132
f 499 150 143 132
f 143 443 437 132
f 437 496 134 132
f 144 300 309 133
f 172 162 144 133
f 442 441 138 135
f 138 161 136 135
f 137 497 442 135
f 161 165 163 136
f 146 440 497 137
f 441 438 170 138
f 153 151 376 139
f 376 353 171 139
f 376 151 160 140
f 160 444 454 140
f 454 458 355 140
f 355 353 376 140
f 163 165 149 141
f 149 447 448 141
f 448 498 148 141
f 158 146 152 142
f 152 164 159 142
f 159 151 153 142
f 150 144 162 143
f 162 451 443 143
f 150 307 300 144
f 158 450 440 146
f 498 439 156 148
f 169 446 447 149
f 499 277 307 150
f 155 358 359 154
f 359 375 499 154
f 157 357 358 155
f 171 353 357 157
f 172 433 451 162
f 455 446 169 167
f 170 438 453 168
f 200 451 433 173
f 433 400 184 173
f 184 196 198 173
f 198 201 200 173
f 194 489 179 174
f 179 404 396 174
f 396 485 398 174
f 398 397 194 174
f 188 495 191 175
f 191 441 442 175
f 442 497 440 175
f 440 450 188 175
f 436 496 437 176
f 437 443 183 176
f 183 178 193 176
f 193 435 436 176
f 189 405 399 177
f 399 393 190 177
f 190 180 182 177
f 182 202 189 177
f 183 200 201 178
f 201 426 494 178
f 494 181 193 178
f 489 418 187 179
f 187 406 404 179
f 190 392 391 180
f 391 390 185 180
f 185 488 182 180
f 494 428 192 181
f 192 452 434 181
f 434 435 193 181
f 488 413 202 182
f 443 451 200 183
f 400 405 189 184
f 189 202 196 184
f 390 406 187 185
f 187 418 488 185
f 430 495 188 186
f 188 450 449 186
f 449 452 192 186
f 192 428 430 186
f 393 484 392 190
f 495 424 203 191
f 203 438 441 191
f 195 414 489 194
f 397 394 195 194
f 394 407 199 195
f 199 419 414 195
f 202 413 420 196
f 420 431 198 196
f 421 419 199 197
f 199 407 453 197
f 453 438 203 197
f 203 424 421 197
f 431 426 201 198
f 460 461 210 204
f 210 235 257 204
f 257 490 224 204
f 224 456 460 204
f 239 242 249 205
f 249 227 228 205
f 228 209 260 205
f 260 251 239 205
f 250 269 225 206
f 225 464 463 206
f 463 462 230 206
f 230 254 250 206
f 218 492 427 207
f 427 429 248 207
f 248 454 444 207
f 444 445 218 207
f 402 403 221 208
f 221 223 491 208
f 491 412 216 208
f 216 409 402 208
f 228 469 479 209
f 479 464 225 209
f 225 269 260 209
f 461 475 226 210
f 226 263 235 210
f 448 447 212 211
f 212 492 218 211
f 218 445 439 211
f 439 498 448 211
f 447 446 238 212
f 238 425 492 212
f 243 271 222 213
f 222 219 236 213
f 236 241 252 213
f 252 229 243 213
f 457 456 224 214
f 224 490 417 214
f 417 416 255 214
f 255 408 457 214
f 466 480 267 215
f 267 268 259 215
f 259 273 217 215
f 217 465 466 215
f 412 432 244 216
f 244 455 409 216
f 273 263 226 217
f 226 475 465 217
f 222 467 483 219
f 483 468 274 219
f 274 266 236 219
f 235 263 256 220
f 256 270 258 220
f 258 261 253 220
f 253 257 235 220
f 410 395 223 221
f 403 486 410 221
f 271 481 467 222
f 395 401 262 223
f 262 415 491 223
f 249 240 231 227
f 231 470 471 227
f 471 469 228 227
f 472 473 243 229
f 252 268 267 229
f 267 480 472 229
f 462 459 232 230
f 232 493 254 230
f 240 265 233 231
f 233 474 470 231
f 459 458 246 232
f 246 423 493 232
f 265 272 264 233
f 264 476 474 233
f 268 252 241 234
f 241 237 242 234
f 242 239 245 234
f 245 259 268 234
f 266 237 241 236
f 266 265 240 237
f 240 249 242 237
f 446 455 244 238
f 244 432 425 238
f 251 247 245 239
f 473 478 271 243
f 247 273 259 245
f 248 429 423 246
f 458 454 248 246
f 251 270 256 247
f 256 263 273 247
f 258 270 269 250
f 254 261 258 250
f 260 269 270 251
f 261 422 411 253
f 411 490 257 253
f 493 422 261 254
f 416 415 262 255
f 262 401 408 255
f 272 477 482 264
f 482 501 476 264
f 266 274 272 265
f 478 500 481 271
f 274 468 477 272
f 281 285 280 275
f 280 294 283 275
f 283 300 307 275
f 307 277 281 275
f 304 324 287 276
f 287 336 341 276
f 341 349 487 276
f 362 367 281 277
f 499 375 362 277
f 311 315 302 278
f 302 323 282 278
f 282 301 312 278
f 312 309 311 278
f 317 292 327 279
f 327 305 297 279
f 297 296 293 279
f 293 319 317 279
f 285 295 318 280
f 318 321 294 280
f 367 363 285 281
f 323 299 324 282
f 324 304 301 282
f 294 315 311 283
f 311 309 300 283
f 325 316 289 284
f 289 288 320 284
f 320 322 328 284
f 328 326 325 284
f 363 369 295 285
f 299 293 296 286
f 296 337 351 286
f 351 336 287 286
f 287 324 299 286
f 289 386 379 288
f 379 378 291 288
f 291 314 320 288
f 316 389 386 289
f 291 378 387 290
f 387 388 313 290
f 313 327 292 290
f 292 314 291 290
f 317 306 314 292
f 299 323 319 293
f 321 303 315 294
f 369 370 298 295
f 298 326 318 295
f 297 344 337 296
f 305 348 344 297
f 370 377 310 298
f 310 325 326 298
f 315 303 308 302
f 308 319 323 302
f 321 328 322 303
f 322 306 308 303
f 327 313 502 305
f 502 345 348 305
f 322 320 314 306
f 317 319 308 306
f 377 373 503 310
f 503 316 325 310
f 388 345 502 313
f 503 373 389 316
f 326 328 321 318
f 334 331 332 329
f 332 461 460 329
f 460 456 330 329
f 330 333 334 329
f 456 457 350 330
f 350 352 333 330
f 349 335 332 331
f 335 475 461 332
f 349 341 338 335
f 338 465 475 335
f 351 342 340 336
f 340 338 341 336
f 344 343 339 337
f 339 342 351 337
f 340 466 465 338
f 343 473 472 339
f 472 480 342 339
f 342 480 466 340
f 344 348 346 343
f 346 478 473 343
f 388 383 347 345
f 347 346 348 345
f 347 500 478 346
f 383 481 500 347
f 355 356 357 353
f 462 463 360 354
f 360 359 358 354
f 358 357 356 354
f 356 459 462 354
f 458 459 356 355
f 360 361 375 359
f 463 464 361 360
f 464 479 365 361
f 365 362 375 361
f 365 368 367 362
f 364 371 369 363
f 367 368 364 363
f 471 470 371 364
f 368 469 471 364
f 479 469 368 365
f 474 476 374 366
f 374 377 370 366
f 370 369 371 366
f 371 470 474 366
f 501 482 382 372
f 382 389 373 372
f 373 377 374 372
f 374 476 501 372
f 379 384 385 378
f 385 380 387 378
f 386 381 384 379
f 383 388 387 380
f 385 483 467 380
f 467 481 383 380
f 386 389 382 381
f 382 482 477 381
f 477 468 384 381
f 468 483 385 384
