v 1.623468577832035 8.348772296184620 -5.241307104259588
v 4.952641605772031 3.248733476818894 -8.037952529739400
v 4.994687080599945 7.826385330494755 -3.677492910117731
v 2.983028651946400 8.480595313726269 4.356410029732201
v 4.529817615970661 8.572028240582577 -2.397262319694451
v 7.802769789904776 6.126404524442763 1.168338905503189
v 4.846367085721496 8.584693466745902 -1.597650593753675
v 2.318657119609597 8.447189421216198 4.809406196110398
v 7.856389161437539 5.025959762381659 3.571235228996910
v 3.805481682780894 1.846613140530166 -9.051578664468396
v 2.315118934419282 8.467368986969790 -4.779283511762323
v 1.774926651870512 3.822139053996779 -9.052246038707171
v 5.108714104737103 8.583210966092700 0.034019078695463
v 4.828340151723305 8.592026464669015 1.651743572753542
v 5.481253167497104 7.862972433327190 -2.821078969891611
v 3.778047797227067 1.826218709504207 9.069356621109890
v 3.605694920421334 2.768369554839450 -8.891606269706417
v 0.869297099900530 8.151842796753250 -5.706815131844021
v 6.570574149122617 2.406527084646020 7.131932750951997
v 1.503938882173362 5.133880769944895 8.429469181197881
v 2.968084848743940 8.527193760295756 -4.269741744017786
v 9.828465495872287 1.394918949641557 1.136281840160567
v 4.091250132872429 8.559996794106260 3.129574948312836
v 1.127452686112729 7.003675365953033 7.027000800982968
v 5.050850910008840 8.579506007255667 0.855683442795961
v 4.413150547539949 6.676109475066735 5.978056637388447
v 4.464837665084334 7.687471278703337 4.551256171462786
v 4.095341035469930 8.571367215527943 -3.084395593005575
v 5.842799475824872 6.948449832177573 4.170120655072987
v 7.851696680046490 5.055407197612249 -3.542162390475926
v 6.543139836064913 4.799101781118256 5.822770154184916
v 8.588347967966955 5.109554116740383 -0.000135608029776
v 0.860047048685789 8.146669036636798 5.715119447769840
v 6.953119922218658 1.246956597591200 7.052266718091868
v 5.171061178701145 6.881002949665930 -5.067233301094734
v 3.974464778105275 0.923559278711364 -9.111093041835552
v 9.086081694528044 3.966730660019151 -1.211989223085432
v 9.616087125952209 1.398194716675500 -2.299941464235337
v 9.818556394042457 1.397516696682251 -1.163857905803972
v 8.853834008468978 3.955029405710750 -2.407286704172359
v 5.214503481661279 6.785502163202472 5.157178431849498
v 9.280685848528586 1.389377382552581 -3.401838979782745
v 2.238249462556823 0.710290289369215 9.709577943190840
v 8.495747621090313 5.115249516313218 -1.197853439139083
v 8.276104054525362 5.062053686146215 2.404250345812963
v 2.142425732232617 1.382408351702431 -9.656686244997202
v 5.277663282171401 2.192127120280885 -8.194796760318129
v 2.024572174075619 2.106015349640824 -9.546470124323978
v 9.093082280081992 3.950155284891559 1.208163820496221
v 6.345327401669110 7.033734113503262 -3.161335449253624
v 3.705867500440753 7.711635951539161 -5.157831737543228
v 8.456192060436464 3.919122375994734 -3.588648614799995
v 5.246268776175317 2.167059214772294 8.221634506164037
v 8.254207058121164 5.099835000500621 -2.378286926277541
v 7.112456503436878 3.708031340098076 5.952968376880026
v 9.172958478649459 3.962269929304697 -0.004032920817707
v 2.576794747884779 6.075955780758976 7.507660328915144
v 5.512376455061048 1.107171001786000 8.252012786592552
v 4.068272359558179 5.354723412735041 7.383756872956194
v 5.532303237421440 1.112713096485113 -8.240479499713558
v 4.412912523134418 6.762720469380245 -5.889592562105710
v 4.524579103304312 4.260088100976706 7.823731612636703
v 4.098978760668776 5.426437519088941 -7.315162695834577
v 9.325813045599286 2.704085571217435 2.369217884027174
v 3.358061473507825 3.762341424113778 -8.617089914457697
v 7.142618645770964 6.098354751238228 -3.402561770161848
v 3.307085689474253 3.702046937143368 8.666126972135975
v 7.895325087504817 3.857111419379928 -4.764780742953933
v 5.604321073176417 4.589664352800630 6.877748169690868
v 4.563236394164774 4.321055434350943 -7.760020862756171
v 7.146254815879219 6.074865974187659 3.433451639628968
v 8.861846534638048 3.925324517843421 2.413430575506741
v 7.648347775031933 2.578918713740310 -5.881145970837634
v 5.896394839971831 5.893919793834690 -5.504295448725360
v 6.598290234859650 6.011384604694081 -4.482256415912409
v 5.622795246670669 4.648826621503286 -6.820630762693861
v 9.609754354589489 2.719986174749039 -0.008926756371617
v 6.719156198322962 7.077525972417085 -2.123371025129549
v 2.942911499997456 7.569479405629001 -5.815244071010216
v 6.601146703704593 5.991694340525958 4.509988284057897
v 6.743066076955065 7.042781434265176 2.173577331947303
v 5.918626073355655 5.826582694346333 5.554189137086208
v 6.058300425165680 7.876966903393676 1.010021064978432
v 7.042558384517225 7.085252632061396 0.025902903059507
v 6.341729022659257 7.027446527231732 3.186534980566986
v 2.990579044912977 4.809566374094878 8.222244302068031
v 3.031387353268501 4.871419277931276 -8.173493800223568
v 7.289181355153568 4.972238858654590 -4.681092892251431
v 9.536787615013427 2.714336252780090 1.182432335026903
v 9.314981658086225 2.718050630920235 -2.375887459818372
v 7.889952784022107 3.826706289877556 4.782817033293696
v 6.540393566136840 4.845502700723846 -5.785532813819771
v 3.533031634230461 6.464704785803800 6.745580578587532
v 5.048438743733410 5.721646018057168 -6.441031277588287
v 7.541488897499894 6.148637099501460 -2.283536827608490
v 6.955057949778164 7.097029937077579 -1.061750626406727
v 5.038330067829797 5.642800050280258 6.518977882999522
v 7.287123600922292 4.945220441691175 4.713118346487093
v 8.949788334328316 2.679645649574237 3.532207934803516
v 8.414786826156309 2.654947402653335 -4.680022089151564
v 6.992695294994912 7.057773222456418 1.108920715689747
v 6.984631230840975 1.258530976395127 -7.025622937247824
v 1.615730506439698 8.341270741517762 5.258141240833577
v 5.451825561950267 7.874697104180827 2.836393258700463
v 7.561926049982198 6.099345394971966 2.323839530253567
v 5.006495139103729 7.813443828657944 3.699962005327588
v 4.399778164634723 7.792988923869291 -4.446100329195932
v 3.730937931288588 7.641810459092397 5.242888835980366
v 6.038277765936277 7.904175694511238 -0.940790855975983
v 5.027498574737599 8.596532819354422 -0.797407656554835
v 8.509701396457263 5.091419394315524 1.203979575408521
v 6.115838611324122 7.901184981294731 0.028381638813848
v 5.824116332494904 7.877371660649787 1.947836250387390
v 4.913892284028158 3.209797900249779 8.080501711532612
v 8.188751689760814 1.347686190467545 -5.556500644496916
v 2.943374151272225 7.533336764130899 5.871576424992288
v 8.836131860287683 1.374460588430507 -4.454074709749181
v 3.632893637551867 8.478351964854827 3.851547282778480
v 7.650923818371790 2.553944638938951 5.889876297477606
v 8.209322123455337 1.330729428832843 5.545695768819083
v 8.942254751088399 2.697655492815617 -3.536089434582594
v 3.550600637402730 6.529929488814731 -6.671270680618314
v 3.964342690596844 0.920468302204583 9.121103623120948
v 7.121336368458098 3.745482285179908 -5.928196891319567
v 9.535571613649784 2.726032428488617 -1.198024081135809
v 9.893570821665975 1.395985787649076 -0.018648283762397
v 5.837982083063103 6.968887601949303 -4.157168890695688
v 6.581451385895024 2.434244219702673 -7.107153064857652
v 1.742965775934216 3.730645949395338 9.100252838332583
v 6.125074729159016 3.558595592916530 -7.040276896689161
v 8.463720052226073 3.894533082179333 3.607357307832594
v 7.871244499570718 6.152770668947320 0.006855343513005
v 3.564423228442812 8.565245433190437 -3.711805030614119
v 7.778762045261231 6.160723499862640 -1.143576816919188
v 8.837355670576212 1.362779256734420 4.449662467944091
v 2.602820676959296 6.136175493156292 -7.446382448282668
v 2.244394949226553 0.712893874202997 -9.709211193093545
v 1.916200606379736 2.838788818890126 -9.382182132092744
v 6.110449110934104 3.513513268370914 7.073508836235106
v 2.109149520311391 1.387003630944230 9.671827164221996
v 9.298332695107272 1.380534662549911 3.380857255563582
v 1.146599535083011 7.035245985140905 -6.998091260301530
v 2.089008020823060 7.323192182031825 6.465048267371733
v 1.990477817745763 2.090122334340112 9.567777310705520
v 3.557572041237858 2.746845912192097 8.921899925072875
v 2.110180414370491 7.356779470167892 -6.429732009170577
v 4.488170997003022 8.598746657664975 2.405835843958739
v 1.531681526124523 5.219600839750488 -8.381115827099855
v 8.418229197654082 2.635286867267469 4.690900700383747
v 1.878606389011541 2.823829289596834 9.393199120670811
v 9.629356064256864 1.389850883324675 2.270345600346440
v 5.821642830491907 7.895666772693937 -1.901066215836646
v 5.867182883428814 0.000000000000000 6.241722508495840
v 6.280837933899058 0.000000000000000 4.679291845993014
v 2.167681250642062 0.000000000000000 2.773690316298447
v 6.798974552332034 0.000000000000000 -2.315620268363418
v 2.083192316471767 0.000000000000000 5.833697158972011
v 2.115111601442884 0.000000000000000 7.620730615025625
v 6.989070078458493 0.000000000000000 -0.018778936802368
v 4.109781828489950 0.000000000000000 5.387547089308697
v 4.015908497201373 0.000000000000000 -7.097115804244289
v 2.199287005336728 0.000000000000000 -1.383629585211118
v 6.935393532508719 0.000000000000000 -1.169421544873156
v 6.590764569920424 0.000000000000000 3.444470687059453
v 6.805964156778984 0.000000000000000 2.283713027228490
v 4.386433797473131 0.000000000000000 2.555791643293047
v 6.584444364916337 0.000000000000000 -3.467635911374501
v 4.258323230209648 0.000000000000000 3.918405339526620
v 4.108232679716075 0.000000000000000 -5.403193364198124
v 4.381929422631615 0.000000000000000 -2.580148963971382
v 4.467271313245263 0.000000000000000 -1.288022530949172
v 6.942645264451443 0.000000000000000 1.131454400051103
v 4.494295514347783 0.000000000000000 -0.013462371414066
v 4.467656204157279 0.000000000000000 1.262387163495950
v 2.116494071763313 0.000000000000000 4.240217765615107
v 4.253680637378473 0.000000000000000 -3.936393910967626
v 2.115218157307318 0.000000000000000 -4.256777467501077
v 2.199890103666242 0.000000000000000 1.364907137496824
v 2.079650929841598 0.000000000000000 -5.845048661505299
v 2.211988586971827 0.000000000000000 -0.009149249003269
v 2.109911210813394 0.000000000000000 -7.627299051263986
v 4.023566155268433 0.000000000000000 7.089157231881419
v 2.165599172766925 0.000000000000000 -2.790131772925109
v 6.272889888618963 0.000000000000000 -4.707766237377768
v 5.867696583200171 0.000000000000000 -6.246620561863388
v 0.000000000000000 6.975194441679918 2.393975605462609
v 0.000000000000000 5.692621919544635 1.260339597170574
v 0.000000000000000 6.497302827137666 5.053507448457770
v 0.000000000000000 5.599250681286460 2.553138123009481
v 0.000000000000000 2.062276103788431 -2.840850228983181
v 0.000000000000000 0.931527456889871 4.377574663110074
v 0.000000000000000 14.966882961646558 1.944148142640099
v 0.000000000000000 10.749294818659735 2.038571384319049
v 0.000000000000000 2.533492369439706 5.844355464096402
v 0.000000000000000 6.988266883724066 1.192022440876705
v 0.000000000000000 1.623070825333784 -5.956833259224002
v 0.000000000000000 5.369363049603368 3.911686139620254
v 0.000000000000000 0.792209780207795 -6.015895125582988
v 0.000000000000000 1.930512355585829 -7.698391950397273
v 0.000000000000000 10.689182816230062 -1.024879745101481
v 0.000000000000000 1.237532875662083 7.784121482069573
v 0.000000000000000 5.584508578232054 6.624503234364962
v 0.000000000000000 11.832809359596943 -2.012222074501038
v 0.000000000000000 1.015720125153614 -2.875131348904404
v 0.000000000000000 13.930528250206356 -1.977642214145391
v 0.000000000000000 3.152839619665720 -2.777297889484752
v 0.000000000000000 9.803518240334641 3.071991365190723
v 0.000000000000000 12.888326110915465 1.996411700430645
v 0.000000000000000 11.794037217192184 1.008708038286382
v 0.000000000000000 9.529971607335661 1.057099393418922
v 0.000000000000000 5.715850819614907 -0.003781103190091
v 0.000000000000000 6.873677718994294 -3.664507941852936
v 0.000000000000000 11.832863160630888 2.011915126856216
v 0.000000000000000 0.624777215394090 -7.833705408185171
v 0.000000000000000 9.622389384650830 2.090615275722910
v 0.000000000000000 4.070246457817241 4.104117031104081
v 0.000000000000000 9.529053935824606 -1.058883907937609
v 0.000000000000000 9.621955203840205 -2.091829009902964
v 0.000000000000000 10.665392877967658 -0.000394693748639
v 0.000000000000000 9.498111563261983 -0.000611545777030
v 0.000000000000000 0.790381258548592 6.008819355781783
v 0.000000000000000 8.569516592611357 3.255078449278635
v 0.000000000000000 10.750805249116492 -2.039154597086807
v 0.000000000000000 1.624304142180367 5.951025199258357
v 0.000000000000000 3.566610941716021 -5.682085486366518
v 0.000000000000000 3.771771012705315 -7.279771918501730
v 0.000000000000000 0.930633462037985 -4.386414243818967
v 0.000000000000000 13.930590791711229 1.977882719077058
v 0.000000000000000 12.864326860686411 0.997327006987053
v 0.000000000000000 2.712600164904664 7.548883104469501
v 0.000000000000000 11.793548871507191 -1.008850975795028
v 0.000000000000000 2.174059291117096 -0.005356261950310
v 0.000000000000000 9.806337300638848 -3.070792068846605
v 0.000000000000000 2.712615059206072 -7.553142619983067
v 0.000000000000000 2.526966364653660 -5.852562457123497
v 0.000000000000000 3.571697366152343 5.674358736248542
v 0.000000000000000 3.155470575047605 2.770235485646127
v 0.000000000000000 2.056805758646775 2.832582987833089
v 0.000000000000000 5.519611099425994 -6.665282674804772
v 0.000000000000000 8.363506591720608 2.218321861306152
v 0.000000000000000 5.359081355504848 -3.921022393006993
v 0.000000000000000 1.016000571663028 2.866184565674804
v 0.000000000000000 8.365938550905312 -2.216549712083708
v 0.000000000000000 8.293047975428280 -1.113543424171614
v 0.000000000000000 5.693931398971337 -1.265430697922521
v 0.000000000000000 4.446387380320427 1.326319297823588
v 0.000000000000000 4.058411349666521 -4.108805508353225
v 0.000000000000000 10.850951627301260 -3.027144515258111
v 0.000000000000000 13.917163114974541 -0.984359848500560
v 0.000000000000000 4.482748373502773 -0.000828018853920
v 0.000000000000000 2.925969831962526 4.241703481030093
v 0.000000000000000 4.332203720940214 2.676501312397904
v 0.000000000000000 11.776552299681423 0.000018502109313
v 0.000000000000000 5.600761284625094 -2.556357475208747
v 0.000000000000000 13.917578735900015 0.985861893257791
v 0.000000000000000 6.869223932141097 3.664123246672840
v 0.000000000000000 1.078318192304440 -0.005951308277014
v 0.000000000000000 12.864226394965410 -0.996983964520972
v 0.000000000000000 10.689054006434105 1.024419063394902
v 0.000000000000000 12.854884308420651 0.000148902689176
v 0.000000000000000 11.891633218174505 -3.008096674283479
v 0.000000000000000 6.965610556651864 -2.403288920375847
v 0.000000000000000 14.967030103042195 -1.943725189724912
v 0.000000000000000 8.269959562463164 -0.001732149437521
v 0.000000000000000 1.886201924688560 4.333025988850292
v 0.000000000000000 6.488102980344060 -5.058059117500964
v 0.000000000000000 4.449775649547458 -1.326604758173259
v 0.000000000000000 11.891376160109342 3.008246671789806
v 0.000000000000000 12.923276709056941 2.996847092175059
v 0.000000000000000 3.790347836735272 7.269639835123732
v 0.000000000000000 3.304167693350522 -0.002498458392157
v 0.000000000000000 4.852480883408049 5.411440098594444
v 0.000000000000000 3.270693351034037 1.369232932165642
v 0.000000000000000 4.324665277388789 -2.683881596665351
v 0.000000000000000 14.960937934490968 -0.963618489634133
v 0.000000000000000 1.065072952625563 1.414243592593305
v 0.000000000000000 13.949526614149647 -2.984238146830855
v 0.000000000000000 8.556053147780354 -3.264576271736445
v 0.000000000000000 12.887916666720589 -1.996317141167967
v 0.000000000000000 4.855928191890513 -5.401930493839508
v 0.000000000000000 2.923583752561143 -4.246697234855212
v 0.000000000000000 14.975940738787733 2.955563958071831
v 0.000000000000000 6.989181376821449 -1.192862043588470
v 0.000000000000000 10.854242695548438 3.026857892291122
v 0.000000000000000 3.268194194393008 -1.376171574367051
v 0.000000000000000 1.885514088616269 -4.341477362290759
v 0.000000000000000 14.961146468404003 0.966238147905891
v 0.000000000000000 1.244146217355574 -7.785256764668699
v 0.000000000000000 6.992338489387574 -0.000231977898318
v 0.000000000000000 1.066075492298751 -1.425316982058352
v 0.000000000000000 2.149888320173897 -1.406538161044937
v 0.000000000000000 2.147549151223554 1.399283390429876
v 0.000000000000000 8.292773666474766 1.112594563364435
v 0.000000000000000 14.975860371526519 -2.954796804056020
v 0.000000000000000 14.958702952265730 0.001675459138674
v 0.000000000000000 12.923015947343298 -2.996770434378581
v 0.000000000000000 13.949706585139234 2.984204285034426
v 0.000000000000000 0.633048303095336 7.823132003473756
v 0.000000000000000 13.912791937466888 0.000012105424503
v 0.000000000000000 1.924066662510649 7.703982309402802
v 1.750695611630565 14.006438577200727 3.583318635197441
v 1.751725792005834 14.005324060190542 -3.574636460178073
v 1.198229723043893 12.999395492666793 -3.802014186665901
v 1.193158753693680 12.999359879853369 3.805991451115131
v 3.111463242777376 15.012337891108093 2.503327763565338
v 3.943086719671058 13.056059791325870 -0.641435896268577
v 3.503987858570502 14.030510283278652 -1.891479302088778
v 2.706030394065540 15.009427985322255 -2.931798156433695
v 2.265920383592425 10.115321679950167 -3.279376519000928
v 1.726372495530313 10.102660692495988 -3.590723449502291
v 2.246234663457013 10.115437736406495 3.293862733520623
v 2.763161172686163 10.123507424459254 -2.885267321496977
v 1.712258476802644 10.102443208427815 3.596671990216883
v 2.778472917296268 11.086562041818722 -2.870138927549444
v 2.283557436604201 13.026985446031276 3.272324018161672
v 3.165043498855283 10.128098302306597 2.437776336836995
v 2.737540157043858 10.123470695116362 2.908383468284407
v 2.287168077830540 12.045951469580347 3.271789857926565
v 3.517529550555169 11.100667220211324 1.876795085585647
v 2.773955478554795 12.057412976582505 -2.856194239365112
v 3.992440291907510 10.135446931702099 0.021887325390729
v 2.762413490377221 13.037201197201604 2.883539883497913
v 3.993091865150471 11.106785597316097 0.017692956748139
v 2.292252050569701 13.027013959967007 -3.264950919750763
v 3.179088851948374 11.095383383042037 2.417440516970640
v 2.290052608433641 11.075014935774467 -3.266285907007934
v 2.772662386458585 13.036905005003032 -2.874223684517263
v 2.300930672110318 12.045974228248049 -3.264813397848849
v 3.187304228392405 12.066196168067929 -2.382844099598729
v 2.273127188135284 14.014457305075151 -3.269412019354525
v 2.269588433105098 14.014792513793228 3.277542844441887
v 3.747082010247370 15.016345468737011 1.366709441884173
v 2.759326203082734 12.057677004723320 2.868305448798631
v 3.772180604759069 11.104128406451773 1.287672801998271
v 3.531411797118853 10.131284832541214 -1.854221501420263
v 3.941289115909771 10.134966885700942 -0.627833058440138
v 3.174258310498580 12.066710884958914 2.400702877166030
v 3.189797173800109 10.127919614080657 -2.402749375026256
v 3.196769193824164 11.094774767141958 -2.392795658428761
v 3.469640689413112 15.014369831056637 -1.964488400917960
v 3.992207930727320 15.017520249423050 0.006046059462709
v 1.742880812830563 11.058569056033017 3.588268262392840
v 3.933962105761454 15.017146307179578 -0.691409631606637
v 3.522999761754174 12.073265546640668 1.872938916650682
v 3.780951700950158 12.077378522468404 1.285706610443754
v 3.750692635753341 15.016080439175930 -1.355680935797277
v 3.768497205017304 10.133967680182682 1.299654764371823
v 3.782240872028924 10.133613904055133 -1.257478255705123
v 3.179101973893039 13.045194745973728 2.417047994779612
v 3.937124872764989 10.135182826953873 0.671439239350275
v 3.931710790657633 15.017289265508900 0.703068881559920
v 3.772967627695085 13.054228202492268 1.291121968782895
v 2.745934114465904 14.021826798593695 2.902084090990559
v 3.927316811706971 12.079462150100678 0.657196115602394
v 3.939556843607404 13.056430543155308 0.662200795731311
v 3.979141494080664 12.080061772259066 0.013827457787227
v 3.934698291808193 12.079221396532347 -0.630883269804463
v 3.938259171326310 11.106172925712805 0.663541093408575
v 3.940165823290422 11.105865729431244 -0.628428535276493
v 2.274075916763801 11.075071117293270 3.278639553268222
v 3.534788995030284 11.100191449260407 -1.848795093547188
v 3.528220164552323 13.050052933584450 -1.865969917965654
v 3.509271789422328 10.131686583689831 1.892708361254975
v 3.794485393038842 12.076986467461694 -1.263079215011926
v 3.782490868718114 11.103689378124951 -1.254861469343341
v 1.192534138804190 12.010490184718829 3.816727832695757
v 3.517064543987863 13.050550529670934 1.880441585151426
v 3.531549945072777 12.072603100447377 -1.849553032898647
v 3.187887199727997 13.044601812225611 -2.402880804771666
v 3.160161746811637 14.027087188390379 2.442164667057089
v 1.755801728868427 11.058759440565687 -3.582498595205612
v 2.758832684902410 11.086880370677674 2.887113152529572
v 1.755239744410815 13.014080783016093 3.577370158688558
v 1.759801604147464 12.030285221835085 3.589930720722121
v 0.605958451665511 11.983889445184921 -3.953450548233974
v 0.602106833064777 11.983829852716212 3.953322591221185
v 0.607056611325300 12.981128237050859 -3.952513551283709
v 0.604110371066470 12.980917756016879 3.952428881090611
v 0.604277923170548 13.984580502854755 3.953930954694428
v 1.770363982257474 12.030498698988271 -3.585364132412574
v 3.114374126038298 15.011853977048844 -2.498989764308299
v 0.594412287599090 11.001867906133729 3.953262892829102
v 0.598552489138286 11.002174800035299 -3.954246176730666
v 1.764513980907948 13.014474233997349 -3.576907952256062
v 1.198065807583625 14.997289412162672 -3.810224958162775
v 1.195540868351147 14.997134405080610 3.809566844766429
v 3.164438493067774 14.026604466669621 -2.428150544099521
v 2.750071538728553 14.021459053547975 -2.891535780249586
v 3.496055565161931 14.031087603468951 1.901274339691152
v 3.935535170124592 14.035272595103507 -0.657212855352590
v 1.199808896573644 12.010611031732800 -3.814340650632529
v 1.750350540312503 15.002247231121567 -3.584669416680995
v 1.748006502870973 15.002239938268522 3.585929030621427
v 1.193244156860807 13.995720048763195 3.815218670024743
v 1.197209156558053 13.996067259527965 -3.814198227687292
v 2.257139125791597 15.006650093550988 3.292547311150255
v 1.188478146493416 11.036155634549189 -3.816264925296018
v 1.179672935363465 11.035713422865637 3.816855132877032
v 3.764378567839005 14.033340805046146 -1.296792047135432
v 2.258320957777631 15.006471281090935 -3.291232374643011
v 3.467171907608946 15.014722131790048 1.975221587408754
v 3.757991431106792 14.033835817293152 1.309695636335377
v 3.990211788603301 13.056954643992956 0.010932036213201
v 3.780423000668709 13.053678316997868 -1.272538294719904
v 3.930988472682401 14.035575668100869 0.673450747134477
v 3.997917492955655 14.036129777428245 0.008218186049204
v 0.606237440046177 13.984663279383970 -3.953628193967222
v 1.158651371446006 10.084123321932701 -3.823509688259797
v 1.150491272622981 10.083531862887222 3.824493667080239
v 0.607959335822795 14.991897100077628 -3.952001971989665
v 0.606800473508789 14.991810327556625 3.952197714001110
v 2.701149880837640 15.009617309768752 2.933101697570668
v 0.573952372644740 10.055702026097652 3.957073013425020
v 0.577559182350747 10.055956252251026 -3.957168433671238
v 2.213594344263377 16.000000000000323 2.346979046826530
v 2.318363377375760 16.000000000000043 -1.540306197891612
v 0.580820451357547 16.000000000000448 -2.802716367776455
v 0.581361555124269 15.999999999999783 2.804516556439513
v 2.430392069665278 16.000000000000046 0.776705734187447
v 3.117503724367729 16.000000000000085 0.745378104319636
v 1.151370113886806 16.000000000000021 2.677210005912984
v 3.116961145255289 16.000000000000284 -0.737966716494855
v 1.795079032121949 15.999999999999865 -0.809739704631497
v 1.187334035464786 16.000000000000512 -0.855930840028172
v 1.187369412216329 15.999999999999538 0.857727963134870
v 1.820466658579578 16.000000000000455 0.002120288530712
v 1.200115363973537 16.000000000000064 0.001048885329645
v 0.580639028306690 15.999999999999723 -1.814409342066313
v 0.580962227525395 16.000000000000007 1.817099424804834
v 0.597867757603685 15.999999999999837 0.001516462230036
v 0.591586642096146 16.000000000000341 -0.892514526133478
v 0.592234310160271 15.999999999999837 0.896353182762464
v 1.796034059311893 16.000000000000277 0.816362331842726
v 1.150146903219294 16.000000000000682 -2.675461316419497
v 1.158833347275536 15.999999999999975 1.736592123350118
v 1.697461270255034 16.000000000000021 -2.529044649256372
v 2.329146237036236 16.000000000000043 1.550002317258688
v 1.701153833422129 15.999999999999808 2.534684842582333
v 1.158906136118731 16.000000000000338 -1.734411103184705
v 1.738102573430465 15.999999999999758 1.646313592368912
v 2.952720222652248 15.999999999999943 1.470246781785665
v 2.968242145348922 15.999999999999950 -1.472285178523919
v 2.730024065072403 15.999999999999936 2.175524530677033
v 2.709909362991216 16.000000000000000 -2.156001186930699
v 3.174769446882610 15.999999999999783 0.003645237231634
v 2.468120711189005 15.999999999999917 0.001872940604073
v 2.432119956943586 15.999999999999899 -0.775732129204989
v 2.217716126621196 15.999999999999998 -2.348455447030006
v 1.732075239120544 16.000000000000114 -1.635277889733051
v 0.534776667045877 9.165151390000000 -3.943792705263695
v 3.124761252994424 9.165151390000000 2.467061942749017
v 2.227203736630317 9.165151390000000 -3.307623197307524
v 1.668728337735024 9.165151390000000 -3.630059115432492
v 0.532526934863746 9.165151390000000 3.944029161653121
v 0.000000000000000 7.838453491775301 -6.193565139074884
v 0.000000000000000 7.834274501341422 6.199067099323817
v 2.384792682859043 0.000000000000000 9.699169150175766
v 5.711409562037417 0.000000000000000 8.199215765971013
v 9.060188890921779 0.000000000000000 -4.204465902106262
v 8.676756047329533 0.000000000000000 4.951641835710681
v 9.741032749099418 0.000000000000000 -2.217663823277077
v 9.938673846160167 0.000000000000000 1.068979405610710
v 9.998238402341585 0.000000000000000 -0.035858146424630
v 9.460867682262434 0.000000000000000 3.206183670075671
v 4.134078791515169 0.000000000000000 9.093479515369983
v 8.669399795219789 0.000000000000000 -4.963915000869566
v 9.443722745448570 0.000000000000000 -3.254100558729420
v 9.075443212301275 0.000000000000000 4.172213349811807
v 2.371264129733341 0.000000000000000 -9.702557876237130
v 9.928339445603536 0.000000000000000 -1.138648271789730
v 5.706529035972652 0.000000000000000 -8.202835410803379
v 0.000000000000000 1.950600336149841 9.806754481041120
v 0.000000000000000 2.256479470766561 9.731114194027413
v 0.000000000000000 2.562358605383280 9.655473907013706
v 0.000000000000000 0.998805695507007 -9.948534677364778
v 0.000000000000000 1.465603563532444 -9.880153746329839
v 0.000000000000000 0.500508704570519 -9.975713831831419
v 3.923102279273842 9.165151390000000 0.676799362499302
v 2.729101636964639 9.165151390000000 -2.895750702650910
v 2.691531147226716 9.165151390000000 2.929579323581520
v 3.933942716162523 9.165151390000000 -0.625799114519745
v 3.978087580000000 9.165151390000000 0.026613352619560
v 3.498433993928554 9.165151390000000 1.922888225863693
v 3.769836271809671 9.165151390000000 1.313308731139563
v 3.164868474896662 9.165151390000000 -2.411859088030536
v 3.790568823891457 9.165151390000000 -1.266742656893521
v 3.523810596152710 9.165151390000000 -1.865891444250859
v 1.660527799667507 9.165151390000000 3.634793698238016
v 2.207201432364288 9.165151390000000 3.319171532925152
v 1.089888395205768 9.165151390000000 -3.828682607204244
v 4.124247822855252 0.000000000000000 -9.098129217323521
v 1.084815206889749 9.165151390000000 3.830330985993726
v 9.756287725272982 0.000000000000000 2.156762543014779
v 0.000000000000000 1.930703031251474 -9.811674848869405
v 0.000000000000000 2.243214600834316 -9.734394439246270
v 0.000000000000000 2.555726170417159 -9.657114029623136
v 0.000000000000000 0.511260002747287 9.975192146927306
v 0.000000000000000 1.018395753082467 9.945664941944381
v 0.000000000000000 1.490852684835153 9.876455018163412
v 0.000000000000000 0.000000000000000 -4.397988674804285
v 0.000000000000000 0.000000000000000 2.867616706467087
v 0.000000000000000 0.000000000000000 1.416759580059755
v 0.000000000000000 0.000000000000000 -0.006879325660615
v 0.000000000000000 0.000000000000000 -7.847960253328232
v 0.000000000000000 0.000000000000000 7.839865775423244
v 0.000000000000000 0.000000000000000 6.010779917667957
v 0.000000000000000 0.000000000000000 -2.879968791568970
v 0.000000000000000 0.000000000000000 -1.430228592782251
v 0.000000000000000 0.000000000000000 4.386403309682545
v 0.000000000000000 0.000000000000000 -6.021008781064770
v 0.000000000000000 9.995585428562425 4.000000000000000
v 0.000000000000000 16.000000000000000 -2.891693985028041
v 0.000000000000000 16.000000000000000 2.892822562337905
v 0.000000000000000 16.000000000000000 -1.882053499988377
v 0.000000000000000 16.000000000000000 1.883942038826554
v 0.000000000000000 16.000000000000000 0.000898618660162
v 0.000000000000000 16.000000000000000 -0.928118570622619
v 0.000000000000000 16.000000000000000 0.930256321052727
v 0.000000000000000 11.951973430351650 -4.000000000000000
v 0.000000000000000 10.957427687924685 4.000000000000000
v 0.000000000000000 12.959430271157810 -4.000000000000000
v 0.000000000000000 9.994395545102154 -4.000000000000000
v 0.000000000000000 13.971895911904408 -4.000000000000000
v 0.000000000000000 13.971934339526157 4.000000000000000
v 0.000000000000000 14.985642534244523 -4.000000000000000
v 0.000000000000000 14.985712214466853 4.000000000000000
v 0.000000000000000 10.956127623527546 -4.000000000000000
v 0.000000000000000 11.952095382409620 4.000000000000000
v 0.000000000000000 12.959400342265660 4.000000000000000
v 1.210703943290850 16.000000000000000 3.789427256427242
v 1.210869764553364 16.000000000000000 -3.789373377833557
v 1.771892933086150 16.000000000000000 3.570497009230804
v 2.275255254081722 16.000000000000000 3.279880641095756
v 2.273664209866981 16.000000000000000 -3.280799230890710
v 1.771592536865866 16.000000000000000 -3.570670443067425
v 2.635881527410626 16.000000000000000 -2.979686466363604
v 3.910354390218318 16.000000000000000 0.736773467761287
v 3.391264354693964 16.000000000000000 -2.100251894399006
v 3.912261966440522 16.000000000000000 -0.727799026844251
v 3.713911091556323 16.000000000000000 -1.438918742180533
v 3.710116316439315 16.000000000000000 1.447441946615211
v 3.978087580000000 16.000000000000000 0.004793321193564
v 3.385834498735559 16.000000000000000 2.107725449918377
v 0.615508220085782 16.000000000000000 -3.935307476801317
v 0.615320207687503 16.000000000000000 3.935327237701399
v 2.636529071877674 16.000000000000000 2.979103414706192
v 0.000000000000000 9.165151390000000 -4.000000000000000
v 0.000000000000000 9.165151390000000 4.000000000000000
v 0.000000000000000 0.000000000000000 10.000000000000000
v 8.314696120000001 0.000000000000000 5.555702330000000
v 0.000000000000000 4.660751380000000 -8.847451420000001
v 0.000000000000000 2.868237740000000 9.579833620000000
v 0.000000000000000 0.000000000000000 -10.000000000000000
v 7.071067810000000 0.000000000000000 -7.071067810000000
v 0.000000000000000 16.000000000000000 -4.000000000000000
v 0.000000000000000 16.000000000000000 4.000000000000000
v 2.972579300000000 16.000000000000000 2.676522430000000
v 2.972579300000000 16.000000000000000 -2.676522430000000
f 18 450 490 1
f 490 453 11 1
f 11 79 146 1
f 146 142 18 1
f 17 65 70 2
f 70 76 130 2
f 130 128 47 2
f 47 10 17 2
f 107 133 28 3
f 28 5 15 3
f 15 50 127 3
f 127 35 107 3
f 118 480 489 4
f 489 488 8 4
f 8 116 108 4
f 108 27 118 4
f 28 485 487 5
f 487 486 7 5
f 7 152 15 5
f 132 84 101 6
f 101 81 105 6
f 105 45 111 6
f 111 32 132 6
f 486 481 110 7
f 110 109 152 7
f 488 492 103 8
f 103 143 116 8
f 45 105 71 9
f 71 80 98 9
f 98 91 131 9
f 131 72 45 9
f 46 48 17 10
f 47 60 36 10
f 36 137 46 10
f 453 452 21 11
f 21 51 79 11
f 87 65 138 12
f 138 494 495 12
f 495 496 148 12
f 148 136 87 12
f 110 481 482 13
f 482 478 25 13
f 25 83 112 13
f 112 109 110 13
f 25 478 484 14
f 484 483 147 14
f 147 104 113 14
f 113 83 25 14
f 152 78 50 15
f 53 114 145 16
f 145 144 140 16
f 140 43 123 16
f 123 58 53 16
f 48 138 65 17
f 455 547 450 18
f 142 551 455 18
f 119 55 139 19
f 139 114 53 19
f 53 58 34 19
f 34 120 119 19
f 57 143 24 20
f 24 552 474 20
f 474 473 129 20
f 129 86 57 20
f 452 479 133 21
f 133 107 51 21
f 126 77 89 22
f 89 64 151 22
f 151 493 462 22
f 462 463 126 22
f 147 483 451 23
f 451 480 118 23
f 118 27 106 23
f 106 104 147 23
f 143 103 33 24
f 33 456 552 24
f 41 27 108 26
f 108 116 93 26
f 93 59 97 26
f 97 82 41 26
f 41 29 106 27
f 133 479 485 28
f 85 104 106 29
f 41 82 80 29
f 80 71 85 29
f 88 75 66 30
f 66 95 54 30
f 54 40 52 30
f 52 68 88 30
f 98 80 82 31
f 82 97 69 31
f 69 139 55 31
f 55 91 98 31
f 44 134 132 32
f 111 49 56 32
f 56 37 44 32
f 103 492 454 33
f 454 548 456 33
f 58 458 550 34
f 550 460 120 34
f 61 51 107 35
f 127 75 74 35
f 74 94 61 35
f 60 471 491 36
f 491 469 137 36
f 40 54 44 37
f 56 77 125 37
f 125 90 40 37
f 42 121 90 38
f 90 125 39 38
f 39 470 461 38
f 461 467 42 38
f 125 77 126 39
f 126 463 470 39
f 90 121 52 40
f 117 100 121 42
f 467 459 117 42
f 140 498 497 43
f 497 549 457 43
f 457 465 123 43
f 54 95 134 44
f 72 49 111 45
f 475 476 48 46
f 137 477 475 46
f 128 102 60 47
f 476 494 138 48
f 72 64 89 49
f 89 77 56 49
f 78 95 66 50
f 66 75 127 50
f 61 122 79 51
f 121 100 68 52
f 119 149 91 55
f 93 116 143 57
f 86 59 93 57
f 123 465 458 58
f 86 67 62 59
f 62 69 97 59
f 102 554 471 60
f 94 63 122 61
f 67 145 114 62
f 114 139 69 62
f 87 136 122 63
f 94 76 70 63
f 70 65 87 63
f 72 131 99 64
f 99 141 151 64
f 86 129 150 67
f 150 144 145 67
f 124 92 88 68
f 100 73 124 68
f 105 81 85 71
f 128 130 124 73
f 100 117 115 73
f 115 102 128 73
f 75 88 92 74
f 92 76 94 74
f 92 124 130 76
f 152 109 96 78
f 96 134 95 78
f 122 136 146 79
f 101 83 113 81
f 113 104 85 81
f 101 84 112 83
f 96 109 112 84
f 132 134 96 84
f 149 99 131 91
f 149 135 141 99
f 115 466 554 102
f 117 459 466 115
f 120 135 149 119
f 460 468 135 120
f 473 472 150 129
f 468 464 141 135
f 148 142 146 136
f 469 553 477 137
f 144 499 498 140
f 464 493 151 141
f 148 496 551 142
f 150 472 499 144
f 460 550 458 153
f 458 465 182 153
f 182 160 154 153
f 154 468 460 153
f 160 168 164 154
f 164 464 468 154
f 501 502 178 155
f 178 174 166 155
f 166 168 175 155
f 175 509 501 155
f 461 470 163 156
f 163 171 170 156
f 170 176 167 156
f 167 467 461 156
f 506 509 175 157
f 175 168 160 157
f 160 182 158 157
f 158 505 506 157
f 182 465 457 158
f 457 549 505 158
f 163 470 463 159
f 463 462 172 159
f 172 174 173 159
f 173 171 163 159
f 181 469 491 161
f 491 471 185 161
f 185 184 169 161
f 169 179 181 161
f 508 507 183 162
f 183 170 171 162
f 171 173 180 162
f 180 503 508 162
f 168 166 165 164
f 165 493 464 164
f 166 174 172 165
f 172 462 493 165
f 176 169 184 167
f 184 459 467 167
f 176 177 179 169
f 183 177 176 170
f 174 178 180 173
f 500 510 179 177
f 183 507 500 177
f 502 503 180 178
f 510 504 181 179
f 504 553 469 181
f 185 466 459 184
f 471 554 466 185
f 240 293 195 186
f 195 187 189 186
f 189 197 256 186
f 256 222 240 186
f 195 289 211 187
f 211 250 246 187
f 246 252 189 187
f 548 222 256 188
f 256 197 272 188
f 272 270 202 188
f 202 456 548 188
f 252 216 197 189
f 206 281 286 190
f 286 227 204 190
f 204 290 291 190
f 291 285 206 190
f 265 238 242 191
f 242 501 509 191
f 509 506 221 191
f 221 224 265 191
f 282 513 515 192
f 515 518 287 192
f 287 255 228 192
f 228 297 282 192
f 284 268 213 193
f 213 209 259 193
f 259 210 215 193
f 215 207 284 193
f 236 216 251 194
f 251 265 224 194
f 224 201 300 194
f 300 230 236 194
f 293 264 289 195
f 235 199 288 196
f 288 214 198 196
f 198 227 286 196
f 286 281 235 196
f 216 236 272 197
f 214 504 510 198
f 510 500 227 198
f 234 494 476 199
f 476 475 288 199
f 235 225 234 199
f 231 203 223 200
f 223 218 217 200
f 217 220 219 200
f 219 253 231 200
f 224 221 298 201
f 298 497 498 201
f 498 499 300 201
f 270 473 474 202
f 474 552 456 202
f 279 296 261 203
f 261 248 223 203
f 231 258 279 203
f 227 500 507 204
f 507 508 290 204
f 249 275 263 205
f 263 294 277 205
f 277 296 279 205
f 279 258 249 205
f 274 247 281 206
f 285 267 274 206
f 511 520 284 207
f 215 240 222 207
f 222 548 511 207
f 269 297 228 208
f 228 255 229 208
f 229 209 213 208
f 213 268 269 208
f 229 260 253 209
f 253 219 259 209
f 259 219 220 210
f 220 264 293 210
f 293 240 215 210
f 289 283 245 211
f 245 267 250 211
f 278 547 266 212
f 266 280 241 212
f 241 254 262 212
f 262 243 278 212
f 288 475 477 214
f 477 553 504 214
f 252 237 251 216
f 218 243 244 217
f 244 264 220 217
f 223 248 233 218
f 233 278 243 218
f 506 505 298 221
f 280 226 234 225
f 235 281 247 225
f 247 241 280 225
f 239 496 495 226
f 495 494 234 226
f 280 266 239 226
f 255 299 260 229
f 270 272 236 230
f 300 499 472 230
f 472 473 270 230
f 253 260 258 231
f 271 285 291 232
f 291 290 257 232
f 257 276 292 232
f 292 273 271 232
f 248 527 522 233
f 522 547 278 233
f 252 246 273 237
f 273 292 238 237
f 238 265 251 237
f 292 276 242 238
f 455 551 496 239
f 266 547 455 239
f 247 274 254 241
f 276 502 501 242
f 262 283 244 243
f 283 289 264 244
f 283 262 254 245
f 254 274 267 245
f 250 271 273 246
f 261 519 527 248
f 299 295 275 249
f 258 260 299 249
f 267 285 271 250
f 287 295 299 255
f 290 508 503 257
f 503 502 276 257
f 296 521 519 261
f 275 517 514 263
f 514 512 294 263
f 528 529 269 268
f 284 520 528 268
f 529 524 297 269
f 295 516 517 275
f 294 525 523 277
f 523 521 296 277
f 526 556 513 282
f 297 524 526 282
f 518 516 295 287
f 512 555 525 294
f 505 549 497 298
f 331 396 393 301
f 393 386 394 301
f 394 304 373 301
f 373 315 331 301
f 395 385 392 302
f 392 400 330 302
f 330 324 384 302
f 384 303 395 302
f 377 407 395 303
f 384 380 391 303
f 391 375 377 303
f 394 379 378 304
f 378 376 366 304
f 366 374 373 304
f 401 543 557 305
f 557 546 412 305
f 412 353 370 305
f 370 389 401 305
f 404 399 390 306
f 390 406 403 306
f 403 356 357 306
f 357 364 404 306
f 387 381 340 307
f 340 346 399 307
f 399 404 362 307
f 362 369 387 307
f 400 534 536 308
f 536 558 381 308
f 381 387 388 308
f 388 330 400 308
f 310 371 326 309
f 326 314 312 309
f 312 479 452 309
f 452 453 310 309
f 408 397 371 310
f 453 490 408 310
f 317 372 360 311
f 360 342 313 311
f 313 488 489 311
f 489 480 317 311
f 314 339 338 312
f 338 485 479 312
f 342 398 409 313
f 409 492 488 313
f 326 328 320 314
f 320 329 339 314
f 322 353 331 315
f 373 374 318 315
f 318 333 322 315
f 363 319 325 316
f 325 372 317 316
f 317 480 451 316
f 451 483 363 316
f 374 342 360 318
f 360 372 333 318
f 334 345 344 319
f 344 337 325 319
f 363 347 334 319
f 328 324 327 320
f 327 369 329 320
f 336 359 323 321
f 323 358 350 321
f 350 478 482 321
f 482 481 336 321
f 349 370 353 322
f 333 337 349 322
f 359 357 356 323
f 356 354 358 323
f 330 388 327 324
f 328 380 384 324
f 337 333 372 325
f 371 380 328 326
f 388 387 369 327
f 369 362 368 329
f 368 361 339 329
f 353 412 396 331
f 351 537 541 332
f 541 543 401 332
f 401 389 402 332
f 402 405 351 332
f 358 354 345 334
f 347 350 358 334
f 338 339 361 335
f 361 365 348 335
f 348 486 487 335
f 487 485 338 335
f 348 365 359 336
f 481 486 348 336
f 344 367 349 337
f 381 558 538 340
f 538 540 346 340
f 343 539 542 341
f 542 537 351 341
f 351 405 406 341
f 406 390 343 341
f 374 366 398 342
f 346 540 539 343
f 390 399 346 343
f 345 352 367 344
f 354 355 352 345
f 363 483 484 347
f 484 478 350 347
f 367 389 370 349
f 355 405 402 352
f 402 389 367 352
f 356 403 355 354
f 403 406 405 355
f 359 365 364 357
f 368 364 365 361
f 404 364 368 362
f 376 382 398 366
f 397 391 380 371
f 391 397 383 375
f 383 527 519 375
f 519 521 377 375
f 378 529 528 376
f 528 520 382 376
f 521 523 407 377
f 379 524 529 378
f 394 386 411 379
f 411 526 524 379
f 520 511 413 382
f 413 409 398 382
f 397 408 414 383
f 414 522 527 383
f 410 544 531 385
f 531 535 392 385
f 395 407 410 385
f 393 532 530 386
f 530 545 411 386
f 535 534 400 392
f 396 533 532 393
f 412 546 533 396
f 523 525 410 407
f 490 450 414 408
f 413 454 492 409
f 525 555 544 410
f 545 556 526 411
f 511 548 454 413
f 450 547 522 414
f 443 441 437 415
f 437 440 438 415
f 438 532 533 415
f 533 546 443 415
f 448 436 449 416
f 449 423 447 416
f 447 422 442 416
f 442 444 448 416
f 428 439 434 417
f 434 531 544 417
f 544 555 512 417
f 512 514 428 417
f 421 435 429 418
f 429 515 513 418
f 513 556 545 418
f 545 530 421 418
f 446 426 433 419
f 433 440 437 419
f 437 441 420 419
f 420 445 446 419
f 441 541 537 420
f 537 542 445 420
f 438 440 435 421
f 530 532 438 421
f 447 446 445 422
f 445 542 539 422
f 539 540 442 422
f 449 439 424 423
f 424 427 426 423
f 426 446 447 423
f 439 428 431 424
f 431 430 427 424
f 435 440 433 425
f 433 426 427 425
f 427 430 432 425
f 432 429 435 425
f 514 517 431 428
f 432 518 515 429
f 431 517 516 430
f 516 518 432 430
f 439 449 436 434
f 436 535 531 434
f 448 534 535 436
f 443 543 541 441
f 540 538 444 442
f 546 557 543 443
f 536 534 448 444
f 538 558 536 444
