v 0.500577034369875 0.000000000000000 0.999979627390245
v 1.506573071132940 0.000000000000000 -1.000071041478475
v -1.506462171471022 0.000000000000000 1.000146613423454
v 1.518260053140674 0.000000000000000 -0.000100487524184
v 0.498829840381088 0.000000000000000 -1.000011881521519
v 0.503858154130843 0.000000000000000 -0.000022242480166
v -0.499483029123041 0.000000000000000 1.000043012215545
v -1.507607163222948 0.000000000000000 -0.999845717008716
v 1.507423076174917 0.000000000000000 0.999929022871259
v -0.503365204656622 0.000000000000000 0.000066303262167
v -0.500489755878579 0.000000000000000 -0.999950756157217
v -1.517832724554673 0.000000000000000 0.000212568381419
v -0.576066189318371 2.427521651170039 -1.000037151205560
v 2.250704209589922 1.076907109788517 -0.000090880488370
v 1.592490407715136 1.919855409310855 1.000029064674588
v 2.259995883187215 1.065691738524130 0.999959429168718
v 1.580111808094105 1.932956772672203 0.000045598857743
v -0.574420432004199 2.422352688086666 0.999945512166547
v 0.569758784397417 2.426764367189521 -0.000040148109990
v -0.569394659638249 2.426502375840437 -0.000026394022454
v -1.579498611639252 1.932260527084752 -0.000062080073795
v -1.592214307849336 1.919698236891139 0.999939837839624
v 0.575041988889651 2.422706136877106 0.999931296177877
v -2.494724219933980 0.052172761646691 0.000453388908764
v -2.496978121372359 0.040003423211572 -0.999631509844153
v -2.259759033560782 1.065282007758314 1.000067483687806
v 2.497073375078899 0.039927534594942 0.999859469186943
v 1.591086131545977 1.919003893666964 -0.999922698126829
v -2.496883971241276 0.039639560866362 1.000356831498369
v 2.496217413828856 0.039627084385351 -1.000159639795706
v 2.495293323513265 0.052316755186093 -0.000199596203795
v -1.591271866716946 1.919483480375241 -0.999997545736319
v 0.576028932173566 2.428029210538357 -0.999929542431658
v -2.258126868042193 1.064391595718199 -1.000021494271113
v -2.250297754795444 1.076576651092906 0.000040122925970
v 2.254905468418479 1.063479885711288 -1.000072896468181
v -3.212755702263479 -4.999999999999989 0.000104112217391
v -3.209565215945958 -4.999999999999993 1.000079063008518
v 0.458057262386126 -5.000000000000005 -0.999980939480245
v -0.458763273978690 -4.999999999999996 -0.999980503780076
v 2.291799276718832 -5.000000000000000 1.000008794943545
v 3.209023128994683 -5.000000000000031 0.999998361681938
v 0.458299819382693 -4.999999999999986 1.000017459064305
v 1.374954191728231 -5.000000000000008 1.000013819218645
v 3.209044083680781 -4.999999999999995 -1.000000475638338
v -2.292008780447667 -5.000000000000000 -0.999962796940524
v -0.458509832671822 -5.000000000000006 1.000018929922726
v 2.292723566896187 -5.000000000000004 0.000012259677471
v 2.291441781716256 -5.000000000000001 -0.999988840393453
v -1.375186930172636 -5.000000000000000 1.000024510638288
v -0.458658483590062 -5.000000000000000 0.000026190827759
v -1.375436232947516 -5.000000000000014 -0.999976028682125
v -3.209294804042756 -5.000000000000004 -0.999925822696405
v 4.137676781302297 -5.000000000000024 -0.000034470037498
v -4.138349014272531 -4.999999999999987 0.000211252225376
v -2.291846382672223 -4.999999999999989 1.000037620633977
v 1.374745739227929 -5.000000000000010 -0.999984360779514
v 3.212613610528530 -5.000000000000009 -0.000002588723984
v 0.458209933239281 -5.000000000000001 0.000023357586244
v 1.375164868609794 -4.999999999999941 0.000019035035162
v -1.375603062271250 -4.999999999999996 0.000034089325821
v -4.129877826075944 -4.999999999999986 -0.999844923735445
v 4.129660532978630 -5.000000000000027 -1.000023790883235
v -4.130895631219984 -5.000000000000007 1.000163165239901
v 4.130607787176397 -4.999999999999974 0.999972683083722
v -2.293201762441371 -4.999999999999983 0.000054251127295
v -5.000000000000046 -3.950138404085725 0.000176923993098
v -4.999999999999998 3.024082215983160 0.999987145675507
v -5.000000000000002 -2.968063911244729 1.000057093579039
v -5.000000000000012 0.024893334887243 -1.000018434398350
v -5.000000000000004 -1.972486250622358 1.000017741605215
v -4.999999999999998 1.025771070001680 -1.000023050166614
v -4.999999999999995 0.025480065966328 0.999982977622633
v -5.000000000000000 -0.974500376987551 0.999993154684192
v -5.000000000000011 -2.968157851307860 -0.999945226369167
v -5.000000000000008 2.025851095302165 -1.000016599633998
v -5.000000000000003 -1.973167671318702 -0.999987773632811
v -5.000000000000004 1.026316679622871 0.999983892635067
v -4.999999999999992 4.014403538220243 -0.000011578943917
v -5.000000000000016 3.023604482208098 -1.000011147333451
v -4.999999999999970 -4.915424946783642 0.000397326825149
v -4.999999999999997 4.999734128338101 -0.000003947557779
v -5.000000000000018 0.025527808898119 -0.000024807529285
v -5.000000000000000 2.026495554163267 0.999986617723913
v -5.000000000000013 -0.974970425376720 -1.000006538291608
v -5.000000000000014 -2.964566377311119 0.000078071973564
v -4.999999999999944 -4.929585649594436 -0.999679241763145
v -4.999999999999980 -4.929127583058211 1.000327533491198
v -4.999999999999997 1.025668455990339 -0.000024888409282
v -4.999999999999964 -1.971303678085793 0.000018600909739
v -4.999999999999980 4.016769366559453 -1.000015120808894
v -4.999999999999993 -3.958070785788498 -0.999867553841889
v -5.000000000000017 4.017386477314072 0.999995876538639
v -5.000000000000012 -3.956862534617403 1.000141143443480
v -5.000000000000004 3.021880572616323 -0.000015795670292
v -4.999999999999990 -0.973922731863953 -0.000010295548866
v -5.000000000000002 2.025040155792575 -0.000020138125485
v 5.000000000000006 4.014676984690022 -0.000050262019153
v 5.000000000000002 -2.967874120117180 1.000028544561944
v 4.999999999999993 3.024218555808845 0.999984851785280
v 5.000000000000015 0.025178100770773 -0.999985858895048
v 5.000000000000000 2.026318410319181 0.999997885611407
v 5.000000000000016 -0.974998017561750 -0.999976816205599
v 5.000000000000004 0.025210000978235 1.000009976092379
v 4.999999999999993 1.026112415123182 1.000006310403935
v 4.999999999999994 3.023922094887114 -1.000026123920319
v 5.000000000000043 -1.973070650494789 -0.999971605617832
v 4.999999999999995 2.026273412614352 -1.000014418689657
v 4.999999999999992 -0.974874378811765 1.000022242057785
v 5.000000000000012 -3.950369189386797 -0.000001506073254
v 5.000000000000035 -2.968385964999943 -0.999973153957360
v 5.000000000000007 -4.915555204072342 -0.000084989679578
v 5.000000000000019 0.025468127354235 0.000013625297264
v 4.999999999999999 -1.972957843620756 1.000034256291841
v 4.999999999999979 1.025929830717343 -1.000000884220473
v 5.000000000000023 3.022074108498923 -0.000026811711500
v 5.000000000000020 -4.929226287199079 0.999928018647834
v 4.999999999999986 -4.929738938033587 -1.000075072317669
v 5.000000000000041 -0.974024223255968 0.000033350556913
v 4.999999999999979 2.025270685945422 -0.000014457004516
v 4.999999999999988 -3.958225953116923 -1.000000840938970
v 5.000000000000014 4.017322201763427 -1.000046593881613
v 4.999999999999975 -3.957093027442260 0.999995146814541
v 4.999999999999969 4.017268298146311 0.999967568480148
v 5.000000000000147 -2.964686245269336 0.000037409087261
v 5.000000000000019 1.025742289516051 0.000001003973351
v 5.000000000000041 -1.971393727626158 0.000040869416978
v -0.561866102659558 3.277025241756903 2.000000000000001
v -3.929321912769915 3.046328807587685 2.000000000000002
v -3.259192873889686 0.016809194628729 2.000000000000000
v -1.382933403394394 -2.995431213506892 2.000000000000001
v 3.388004425743412 6.980742060786918 2.000000000000002
v -3.868465415446536 4.050188393832339 1.999999999999998
v 3.996509173479637 2.035868266866332 1.999999999999998
v -1.692615095119655 3.150681868901288 2.000000000000001
v -4.110534482497236 -1.982653636488785 2.000000000000000
v -4.070271341217538 1.027625306179950 2.000000000000001
v 4.118487123031665 -0.981851528492807 2.000000000000002
v 4.067959862916526 1.027500604440275 2.000000000000000
v 3.257762201999872 0.016583660292259 2.000000000000002
v -3.217036439427414 -1.987761647922083 2.000000000000000
v 1.383041168176154 -2.995577624869223 2.000000000000004
v -3.998399754266170 2.035711963507155 1.999999999999997
v 3.867517709788292 4.050248894617924 2.000000000000014
v -2.970093596157902 2.036693034645369 2.000000000000000
v -3.200069416698102 -3.993847011916286 2.000000000000000
v -3.393004937157351 6.982533450369459 1.999999999999997
v 1.428921691883836 -0.996578813260716 2.000000000000002
v -2.524678674473346 6.094081572116100 2.000000000000001
v 1.376906757783958 -3.997440921012929 1.999999999999998
v 4.110621309477349 -1.983110946531375 1.999999999999996
v -4.111060891471795 0.021946289702707 2.000000000000001
v 3.928977649396941 3.046147621986082 1.999999999999999
v -4.104616603222796 -2.984603533289680 2.000000000000000
v 3.781618710798626 5.043710748476474 2.000000000000004
v 2.297612590988838 -2.993366378017777 2.000000000000002
v -1.376830623933577 -3.997447774188588 2.000000000000002
v -2.290556340806488 -3.995949625064837 2.000000000000000
v 0.495037839457376 6.218706300538268 2.000000000000001
v -1.406435451278689 7.227530712077927 1.999999999999998
v 2.353694527926023 7.095925926951132 2.000000000000007
v 2.830963465807665 3.073923831241297 2.000000000000007
v -1.337521570166436 8.389255484846863 2.000000000000000
v -2.828944902435666 3.074603419540819 2.000000000000004
v 2.969448154006216 2.034855554786205 1.999999999999990
v 3.218194043670561 -1.988126860468017 1.999999999999998
v -0.467465333299564 -1.996385517272881 2.000000000000002
v -1.571072070625763 5.154818278433270 1.999999999999998
v 2.202986748231885 8.177949400215214 1.999999999999992
v -0.493327245438708 6.220190269186840 1.999999999999998
v 0.544222660010641 4.214341296024244 2.000000000000002
v -0.466830891510084 7.305496779176829 2.000000000000004
v -4.117256671036581 -0.981144880042510 2.000000000000000
v 1.404013409527491 7.229474512058989 1.999999999999993
v -2.316601463441839 -1.992319878591473 2.000000000000000
v -1.398194633342001 -1.995135334360842 1.999999999999999
v -2.297520062241775 -2.993233665599756 2.000000000000000
v -0.543241447150355 4.213859384939584 2.000000000000000
v -0.521967544440096 5.196202849157266 1.999999999999999
v 3.199718299683838 -3.993834702459221 1.999999999999993
v -1.634265465372381 4.157400823527247 1.999999999999997
v 1.398014046161516 -1.995211079009647 2.000000000000003
v -2.651699276945731 5.095986245660749 1.999999999999999
v 2.524296940043694 6.094993749786489 2.000000000000003
v 0.470533869264760 7.308144459917611 1.999999999999997
v 0.521443286927700 5.195377961404636 2.000000000000008
v -0.447892783568393 8.499782731530731 2.000000000000004
v -1.425628411101471 -0.996288490323083 1.999999999999999
v -1.495537001596579 6.172750758156161 2.000000000000000
v 3.088566440620907 7.936979180452827 2.000000000000004
v -3.156627823539171 1.026937292337481 2.000000000000000
v 2.316778918179464 -1.992433117452777 2.000000000000001
v 1.569476877604902 5.155326306572558 2.000000000000000
v 1.337461921236274 8.392061961517246 2.000000000000014
v -2.744052067505098 4.093125584365642 2.000000000000000
v -3.631631548053148 6.021799943374067 2.000000000000001
v -2.356844662004776 -0.993052120878210 2.000000000000000
v 1.633845582908810 4.157526339894805 1.999999999999996
v 0.461871408778773 -2.996613742085092 1.999999999999999
v 2.744149772258313 4.093074683942554 2.000000000000001
v -2.213719721763365 8.189519060445265 1.999999999999996
v 3.156309690410652 1.027167806010010 2.000000000000000
v 0.478904198090366 -0.997699407537254 1.999999999999999
v 2.291391209288250 -3.996332783064828 2.000000000000000
v 4.104637771192913 -2.984914266041053 1.999999999999999
v 0.562101684067526 3.279473813344512 2.000000000000006
v 1.490320373085796 6.170344814944553 2.000000000000000
v 2.648732727187410 5.095048914778914 2.000000000000008
v -3.086421746429479 7.934015645842162 2.000000000000009
v -0.475922009175811 -0.997620666616447 1.999999999999999
v -2.361581534307984 7.099699070901107 1.999999999999999
v -4.102785199961390 -3.989307835510743 2.000000000000000
v 4.102730942641813 -3.989520411872030 2.000000000000017
v 3.241311488471402 -0.987019967073465 1.999999999999996
v 0.459335680461641 -3.997981540245719 1.999999999999999
v 0.448065821893655 8.500279330210121 2.000000000000007
v 2.356714023203276 -0.993168603503875 1.999999999999998
v 3.204745970423924 -2.989917406055907 1.999999999999998
v -3.783899392283653 5.044162076685115 1.999999999999997
v -0.461734576395007 -2.996582914503271 2.000000000000002
v 0.466826566003741 -1.996381947548474 1.999999999999997
v 3.630423396695830 6.021088093886858 2.000000000000003
v 4.111883498689676 0.021569156639580 2.000000000000002
v -0.459595591380350 -3.997989779324786 1.999999999999996
v 1.694934889404938 3.145161140559043 1.999999999999995
v -3.204403815606901 -2.989706553750311 2.000000000000000
v -3.241077706040335 -0.986726694845271 2.000000000000000
v -2.916700857326175 9.042136093662121 -1.000117949965942
v -2.161856285202458 9.487278042890509 -1.000115396835398
v -3.581885082321367 8.456009622761563 -1.000003900694258
v 1.328559410470242 9.809140844296643 -1.000206041273913
v 2.160468227404106 9.491005687055862 -1.000131958126238
v 0.448034243204161 9.975923630000054 -1.000207693191680
v -0.449447514732575 9.975923629999917 -1.000143495296264
v -1.330263724948094 9.808801835079297 -1.000082015570280
v 2.913733625923212 9.037597904349699 -1.000132556278974
v 3.580242161635191 8.457903907294256 -1.000102932768478
v -4.896056064348504 5.971758504074465 0.000122150619823
v 4.895829617088498 5.972568354484087 -0.000030024059997
v 4.999978515734999 5.000252712276832 -0.000111626202774
v -0.449239055049573 9.975485780465752 0.999935046548449
v -1.331868532933358 9.812944469638968 0.999930467755942
v 0.448216755168222 9.975650409737856 0.999873825389642
v -0.447737953997518 9.964620788432935 -0.000059712871328
v 1.330369431613060 9.813260668495364 0.999897632777095
v 2.163846290898451 9.494373359738191 0.999871850063727
v 1.325488255756044 9.806932399295501 -0.000102094565047
v 2.915958236909422 9.041411295753116 0.999889321743453
v -3.584789860805024 8.460052003772812 1.000020562733740
v -2.162580885736196 9.496014135870677 -0.000071014112555
v -2.927372966596379 9.045286855757322 -0.000008954500554
v 2.925329463825165 9.047814390080820 -0.000070641926312
v -2.166261557587643 9.493300370673733 0.999909602573972
v -2.918260121370344 9.039755330664862 0.999920754806329
v 3.583136968120447 8.461047781965565 0.999943685649383
v 4.156035116889619 7.743381323353129 -1.000082447506953
v -4.157224962763336 7.741583726985759 -0.999954257452417
v -3.600220469609175 8.453414591942893 0.000101562579069
v 3.598388954324354 8.455010863382949 -0.000012478625564
v -4.158303195971172 7.744618683747200 1.000196794347659
v 4.157654438007278 7.745894029302304 1.000046949208352
v -4.891698736065335 5.974588761969785 -1.000009310294262
v 4.891415352674913 5.975768140954560 -1.000127717717941
v -4.607705796891340 6.891579492184622 0.000177260925010
v 4.607596721003510 6.893103288218923 0.000016268770256
v 4.607035557302661 6.903707254521922 1.000107176347518
v -4.606671014470217 6.902622792731428 1.000247719847835
v 4.599902686759187 6.899092977934963 -1.000128098488011
v -4.600656635145238 6.897385098898987 -1.000003144101235
v -1.327932667290337 9.809222157580894 0.000027511859138
v 0.446615296192489 9.967831273715234 -0.000066219834798
v 2.161912850081245 9.500027810259041 -0.000034664571258
v 4.999709599835878 5.003735008797912 0.999941875289199
v -4.999786575384202 5.002756691190370 -1.000058120960732
v 4.999724879021775 5.003562185073410 -1.000124764722507
v -4.999719883839139 5.003648228104097 1.000041108908687
v -4.175609456364484 7.737877444653278 0.000237573882398
v 4.174544030793605 7.739435731448700 0.000078418803465
v -4.890022890097219 5.975471722389070 1.000196949315823
v 4.890352075844406 5.975818105107999 1.000080230610447
v -2.831219061200742 3.070445762987601 -1.999999999999996
v 3.259220625834736 0.016594815864188 -2.000000000000010
v 1.382691848249028 -2.995593689479874 -2.000000000000004
v -4.067136770499510 1.026700767069653 -2.000000000000000
v -1.692115195046763 3.147188209829040 -2.000000000000001
v 4.110495213205062 -1.983232937357813 -1.999999999999971
v 4.069682124908849 1.027279135900400 -2.000000000000005
v -2.211299345551303 8.185765854021154 -2.000000000000006
v -4.118419291343807 -0.982154101934319 -1.999999999999999
v 0.561691212472422 3.281876198967696 -2.000000000000001
v 3.928037705213136 3.046070988167016 -2.000000000000007
v 3.216954284882536 -1.988152596948281 -1.999999999999992
v -1.383356873354875 -2.995705605777718 -1.999999999999996
v 0.470525266135453 7.308378424102894 -2.000000000000000
v 3.998704179017277 2.035346614888917 -2.000000000000000
v -0.562004449066416 3.276216552367221 -2.000000000000005
v 3.199849726955010 -3.994055454487549 -2.000000000000000
v -3.867361886160600 4.049183633839314 -1.999999999999994
v -3.928441050247200 3.045342448818553 -1.999999999999986
v 1.693351884595995 3.144213519748034 -2.000000000000001
v 3.630318560949240 6.019443378872247 -1.999999999999999
v -1.429148061815533 -0.996687991930271 -2.000000000000000
v -1.377263745408723 -3.997512462831388 -2.000000000000000
v -4.110707202878876 -1.983379334260913 -2.000000000000000
v 4.111035607626961 0.021470849573936 -2.000000000000012
v 4.104548645966992 -2.985108499422344 -2.000000000000006
v -2.297908419835463 -2.993520030998321 -1.999999999999995
v 1.376484245172133 -3.997537655485672 -1.999999999999997
v 2.290258309901365 -3.996089889770150 -2.000000000000006
v -3.998197320207385 2.034651684560240 -1.999999999999995
v -3.381043462644106 6.974295228663683 -1.999999999999987
v 1.335203904489670 8.383779396471951 -1.999999999999998
v 2.201661883190499 8.174745288886681 -2.000000000000002
v -0.542035844075702 4.212776420708828 -2.000000000000003
v 3.867203908227991 4.049667839948693 -2.000000000000004
v 0.541220324596007 4.214190511132063 -1.999999999999998
v -1.571728290161027 5.154394650972679 -1.999999999999975
v -3.218442642782088 -1.988351144859062 -2.000000000000001
v 0.467258832509210 -1.996519727491301 -2.000000000000004
v 1.634975686416142 4.155924551244627 -2.000000000000000
v 0.448524205253185 8.508706944548560 -2.000000000000000
v 2.832037429711110 3.071364682797883 -1.999999999999998
v -0.465376678554184 7.303474184151660 -2.000000000000024
v 2.520969281973084 6.090062721258088 -1.999999999999998
v -2.651065110648305 5.094115021658652 -1.999999999999997
v 4.117240652697920 -0.981707462628358 -2.000000000000008
v -0.519784941322838 5.194704853221191 -1.999999999999992
v 2.316474447062477 -1.992566815609661 -2.000000000000009
v -2.743485067402754 4.091823910289099 -2.000000000000007
v 1.398021904391051 -1.995305650969979 -1.999999999999997
v 2.297325909052883 -2.993463055979504 -2.000000000000004
v -0.494601490068374 6.219627321895996 -2.000000000000006
v -3.199955522194075 -3.993931280435330 -1.999999999999995
v -1.636870616781754 4.154871598083032 -1.999999999999992
v -1.398305133276168 -1.995355102606965 -2.000000000000001
v -2.526774210504996 6.091853419888125 -2.000000000000006
v 2.743675964855671 4.092471690380476 -1.999999999999999
v 1.425501278500870 -0.996412190441696 -2.000000000000006
v 3.156789019562495 1.026916204546537 -2.000000000000004
v -2.317126246489911 -1.992617531068345 -2.000000000000000
v -1.496338829564394 6.169401265188982 -1.999999999999986
v -3.070375978239927 7.918994907661975 -1.999999999999994
v 3.067596829031327 7.917627002285689 -2.000000000000000
v 2.649229317516182 5.094413126068924 -2.000000000000008
v -2.359535806562932 7.100827653427070 -1.999999999999995
v 2.356767518316564 -0.993245457203447 -2.000000000000001
v 1.568411960099829 5.154452492271821 -2.000000000000002
v -0.462174599509510 -2.996720651923873 -1.999999999999996
v -1.405867702676726 7.229239766620190 -1.999999999999986
v 1.405083662066767 7.230831742774552 -1.999999999999998
v -3.153699774443888 1.026011491739768 -2.000000000000002
v 0.520353108358790 5.193815424499416 -1.999999999999994
v -0.479012979364608 -0.997782947455084 -1.999999999999999
v 3.782306986889415 5.042579531903320 -2.000000000000002
v -2.291716311717263 -3.996420158856690 -1.999999999999996
v -2.967336291586324 2.034256123548906 -2.000000000000009
v -4.104749453315701 -2.985116387555112 -2.000000000000000
v 2.964820454708171 2.036245239602425 -1.999999999999999
v 0.496344256983262 6.219797736459237 -1.999999999999996
v 0.475766668047995 -0.997713142810277 -2.000000000000003
v 1.494227962491095 6.168445417210974 -1.999999999999997
v -0.448946483866499 8.508436478930379 -1.999999999999999
v 4.102673701213931 -3.989652314602086 -1.999999999999992
v -4.102843891282062 -3.989620261077764 -1.999999999999992
v -3.241507080687908 -0.987253551051416 -1.999999999999999
v -0.459715158168201 -3.998045765997110 -2.000000000000002
v -2.357329011016405 -0.993354132776886 -1.999999999999998
v -3.204971210996331 -2.990091733513887 -2.000000000000004
v 0.461454383729622 -2.996707020350151 -2.000000000000018
v -0.467062967977067 -1.996503695909300 -1.999999999999995
v -3.781464290532943 5.042271073208299 -1.999999999999994
v -1.333319431569061 8.384317070620778 -2.000000000000005
v -4.110608235874948 0.021197809496567 -1.999999999999998
v 0.459220825250499 -3.998061040222481 -1.999999999999993
v -3.259715495932382 0.016475913922838 -2.000000000000001
v 3.390781657467256 6.979032777741828 -1.999999999999988
v -3.627809543101619 6.018302926949652 -2.000000000000000
v 3.204266460763305 -2.990051228220102 -2.000000000000004
v 3.241037893587874 -0.987074399997401 -1.999999999999994
v 2.353519808918730 7.097230541727681 -2.000000000000000
v 1.475762191522606 0.000000000000000 -2.000000000000000
v -1.475856961000048 0.000000000000000 2.000000000000000
v 0.490946941242377 0.000000000000000 2.000000000000000
v 1.476431268717097 0.000000000000000 2.000000000000000
v -1.476338346645100 0.000000000000000 -2.000000000000000
v 0.489560371969264 0.000000000000000 -2.000000000000000
v -0.489747831661606 0.000000000000000 2.000000000000000
v -0.490799899987147 0.000000000000000 -2.000000000000000
v 2.274169897654895 1.033631664669244 2.000000000000000
v -2.274431375115900 1.033178772410635 -2.000000000000000
v -2.274607161266052 1.032874301859834 2.000000000000000
v 0.584206314882515 2.417673380499960 2.000000000000000
v -0.583717578152805 2.417777264700551 -2.000000000000000
v 0.584133988518596 2.417688753943454 -2.000000000000000
v -0.583581942099908 2.417806095034083 2.000000000000000
v 2.274331937762672 1.033351002962824 -2.000000000000000
v 3.201707134746481 -5.000000000000000 -2.000000000000000
v 2.289215329833663 -5.000000000000000 -2.000000000000000
v 0.457956536002441 -5.000000000000000 -2.000000000000000
v -1.375254447539763 -5.000000000000000 -2.000000000000000
v -2.290080640926646 -5.000000000000000 -2.000000000000000
v -2.289660072060946 -5.000000000000000 2.000000000000000
v -0.458439217652661 -5.000000000000000 2.000000000000000
v 0.458442374625977 -5.000000000000000 2.000000000000000
v 1.374295765125431 -5.000000000000000 -2.000000000000000
v -3.202095620046862 -5.000000000000000 2.000000000000000
v -1.374765687440296 -5.000000000000000 2.000000000000000
v 1.374833102323107 -5.000000000000000 2.000000000000000
v -3.202358258336348 -5.000000000000000 -2.000000000000000
v 3.202037401745146 -5.000000000000000 2.000000000000000
v -4.108769268283321 -5.000000000000000 2.000000000000000
v 4.108603330000181 -5.000000000000000 -2.000000000000000
v -4.109002249840117 -5.000000000000000 -2.000000000000000
v 4.108936557735787 -5.000000000000000 2.000000000000000
v -0.458915295360918 -5.000000000000000 -2.000000000000000
v 2.289718813827091 -5.000000000000000 2.000000000000000
v -5.000000000000000 -3.978627377401111 -2.000000000000000
v -5.000000000000000 -2.977507251884930 -2.000000000000000
v -5.000000000000000 -0.978179960765436 -2.000000000000000
v -5.000000000000000 1.026299731221713 -2.000000000000000
v -5.000000000000000 2.029436558865812 -2.000000000000000
v -5.000000000000000 2.030739464802093 2.000000000000000
v -5.000000000000000 0.024423401414997 2.000000000000000
v -5.000000000000000 -0.977201451162311 2.000000000000000
v -5.000000000000000 -1.978244991091585 -2.000000000000000
v -5.000000000000000 3.032204175040686 2.000000000000000
v -5.000000000000000 1.027380664223582 2.000000000000000
v -5.000000000000000 -1.977256727839080 2.000000000000000
v -5.000000000000000 3.030894181374684 -2.000000000000000
v -5.000000000000000 -3.977969039281626 2.000000000000000
v -5.000000000000000 4.028122421620074 2.000000000000000
v -5.000000000000000 4.026530706495905 -2.000000000000000
v -5.000000000000000 0.023322692464735 -2.000000000000000
v -5.000000000000000 -2.976694056444169 2.000000000000000
v 5.000000000000000 3.031504611794088 -2.000000000000000
v 5.000000000000000 2.030052472578015 -2.000000000000000
v 5.000000000000000 0.023693762458071 -2.000000000000000
v 5.000000000000000 -1.978111699500152 -2.000000000000000
v 5.000000000000000 -2.977391069908649 -2.000000000000000
v 5.000000000000000 -2.977211645490236 2.000000000000000
v 5.000000000000000 -0.977800656088755 2.000000000000000
v 5.000000000000000 0.023847674083808 2.000000000000000
v 5.000000000000000 1.026679791581041 -2.000000000000000
v 5.000000000000000 -3.978570438144027 2.000000000000000
v 5.000000000000000 -1.977920266621428 2.000000000000000
v 5.000000000000000 1.026891465386706 2.000000000000000
v 5.000000000000000 -3.978659708279617 -2.000000000000000
v 5.000000000000000 3.031931920856363 2.000000000000000
v 5.000000000000000 4.027264025997499 -2.000000000000000
v 5.000000000000000 4.027686991213399 2.000000000000000
v 5.000000000000000 -0.978046602954438 -2.000000000000000
v 5.000000000000000 2.030402221490791 2.000000000000000
v 4.609972610059627 6.931050188390040 2.000000000000000
v 4.899853872876326 5.988876932670204 2.000000000000000
v -4.134332487722619 7.805895726184182 2.000000000000000
v -4.899699684181728 5.989385224675195 2.000000000000000
v 0.447643117954679 9.955911000180592 2.000000000000000
v 2.923338358484758 9.037949811013174 2.000000000000000
v -2.175653850766334 9.479229229937989 2.000000000000000
v 4.998574664851674 5.014471670315518 2.000000000000000
v -4.998528932474177 5.014935998926680 2.000000000000000
v -4.609687478352628 6.931583632299222 2.000000000000000
v 4.133194835792961 7.807281959082276 2.000000000000000
v 1.330800174380723 9.796132591065273 2.000000000000000
v 2.172887860256742 9.480707682652454 2.000000000000000
v -0.447841238409913 9.955891487018512 2.000000000000000
v -2.927390125966165 9.034624611401991 2.000000000000000
v -1.331489333147259 9.795923537038179 2.000000000000000
v 4.900010046645042 5.988362096752856 -2.000000000000000
v -4.900415210662974 5.987026449988600 -2.000000000000000
v -1.330443852170832 9.796240680226346 -2.000000000000000
v 0.446693830325378 9.956004496853362 -2.000000000000000
v 2.171167866824043 9.481627038286764 -2.000000000000000
v 4.136771124921330 7.802924238136532 -2.000000000000000
v -4.140789830612992 7.798027431044391 -2.000000000000000
v 4.998624343238400 5.013967277201126 -2.000000000000000
v -4.998707066874434 5.013127370047090 -2.000000000000000
v 4.610840907681701 6.929425717780558 -2.000000000000000
v -4.611469993358794 6.928248781247157 -2.000000000000000
v -2.173120256745317 9.480583464142605 -2.000000000000000
v -2.925639551542475 9.036061270691972 -2.000000000000000
v 1.329351030241851 9.796572184135522 -2.000000000000000
v -0.448092666173225 9.955866723544739 -2.000000000000000
v 2.921858946641364 9.039163932926392 -2.000000000000000
v -2.500000000000000 0.000000000000000 2.000000000000000
v 2.500000000000000 0.000000000000000 -2.000000000000000
v -2.500000000000000 0.000000000000000 -2.000000000000000
v 2.500000000000000 0.000000000000000 2.000000000000000
v 1.672826520000000 1.857862060000000 2.000000000000000
v -1.672826520000000 1.857862060000000 2.000000000000000
v 1.672826520000000 1.857862060000000 -2.000000000000000
v -1.672826520000000 1.857862060000000 -2.000000000000000
v -5.000000000000000 -5.000000000000000 2.000000000000000
v 5.000000000000000 -5.000000000000000 -2.000000000000000
v -5.000000000000000 -5.000000000000000 -2.000000000000000
v 5.000000000000000 -5.000000000000000 2.000000000000000
v -3.535533910000000 8.535533910000000 2.000000000000000
v 3.535533910000000 8.535533910000000 2.000000000000000
v 3.535533910000000 8.535533910000000 -2.000000000000000
v -3.535533910000000 8.535533910000000 -2.000000000000000
f 7 387 383 1
f 383 384 9 1
f 9 4 6 1
f 6 10 7 1
f 5 6 4 2
f 4 31 30 2
f 30 486 381 2
f 381 386 5 2
f 29 485 382 3
f 382 387 7 3
f 7 10 12 3
f 12 24 29 3
f 9 27 31 4
f 11 10 6 5
f 386 388 11 5
f 25 24 12 8
f 12 10 11 8
f 11 388 385 8
f 385 487 25 8
f 384 488 27 9
f 33 19 20 13
f 20 21 32 13
f 32 492 393 13
f 393 394 33 13
f 31 27 16 14
f 16 15 17 14
f 17 28 36 14
f 36 30 31 14
f 16 389 489 15
f 489 392 23 15
f 23 19 17 15
f 27 488 389 16
f 19 33 28 17
f 23 392 395 18
f 395 490 22 18
f 22 21 20 18
f 20 19 23 18
f 22 26 35 21
f 35 34 32 21
f 490 391 26 22
f 35 26 29 24
f 25 34 35 24
f 487 390 34 25
f 391 485 29 26
f 33 394 491 28
f 491 396 36 28
f 36 396 486 30
f 34 390 492 32
f 55 62 53 37
f 53 46 66 37
f 66 56 38 37
f 38 64 55 37
f 56 402 406 38
f 406 411 64 38
f 40 415 399 39
f 399 405 57 39
f 57 60 59 39
f 59 51 40 39
f 52 400 415 40
f 51 61 52 40
f 44 60 48 41
f 48 58 42 41
f 42 410 416 41
f 416 408 44 41
f 58 54 65 42
f 65 414 410 42
f 47 51 59 43
f 59 60 44 43
f 44 408 404 43
f 404 403 47 43
f 49 398 397 45
f 397 412 63 45
f 63 54 58 45
f 58 48 49 45
f 53 409 401 46
f 401 400 52 46
f 52 61 66 46
f 50 61 51 47
f 403 407 50 47
f 60 57 49 48
f 57 405 398 49
f 56 66 61 50
f 407 402 56 50
f 62 413 409 53
f 63 118 112 54
f 112 117 65 54
f 81 87 62 55
f 64 88 81 55
f 87 495 413 62
f 412 494 118 63
f 411 493 88 64
f 117 496 414 65
f 94 69 86 67
f 86 75 92 67
f 92 87 81 67
f 81 88 94 67
f 93 79 95 68
f 95 97 84 68
f 84 422 426 68
f 426 431 93 68
f 94 430 434 69
f 434 428 71 69
f 71 90 86 69
f 83 89 72 70
f 72 420 433 70
f 433 419 85 70
f 85 96 83 70
f 428 424 74 71
f 74 96 90 71
f 89 97 76 72
f 76 421 420 72
f 83 96 74 73
f 74 424 423 73
f 423 427 78 73
f 78 89 83 73
f 86 90 77 75
f 77 425 418 75
f 418 417 92 75
f 97 95 80 76
f 80 429 421 76
f 90 96 85 77
f 85 419 425 77
f 427 422 84 78
f 84 97 89 78
f 82 274 91 79
f 91 80 95 79
f 93 276 82 79
f 91 432 429 80
f 238 262 274 82
f 276 279 238 82
f 92 417 495 87
f 493 430 94 88
f 274 477 432 91
f 431 461 276 93
f 122 275 240 98
f 240 273 124 98
f 124 100 116 98
f 116 106 122 98
f 440 444 123 99
f 123 110 125 99
f 125 127 114 99
f 114 445 440 99
f 448 452 102 100
f 102 120 116 100
f 124 450 448 100
f 437 443 115 101
f 115 126 113 101
f 113 119 103 101
f 103 451 437 101
f 452 446 105 102
f 105 126 120 102
f 119 127 107 103
f 107 438 451 103
f 442 441 109 104
f 109 119 113 104
f 113 126 105 104
f 105 446 442 104
f 435 449 122 106
f 116 120 108 106
f 108 436 435 106
f 127 125 111 107
f 111 439 438 107
f 120 126 115 108
f 115 443 436 108
f 441 445 114 109
f 114 127 119 109
f 123 117 112 110
f 112 118 121 110
f 121 111 125 110
f 121 447 439 111
f 123 444 496 117
f 494 447 121 118
f 449 476 275 122
f 273 460 450 124
f 178 181 135 128
f 135 490 395 128
f 395 392 206 128
f 206 171 178 128
f 133 431 426 129
f 426 422 143 129
f 143 145 164 129
f 164 195 133 129
f 152 173 227 130
f 227 197 485 130
f 485 391 191 130
f 191 137 152 130
f 177 158 157 131
f 157 224 220 131
f 220 167 176 131
f 176 175 177 131
f 222 454 453 132
f 453 463 190 132
f 190 169 161 132
f 161 184 222 132
f 219 461 431 133
f 195 183 219 133
f 139 446 452 134
f 452 448 153 134
f 153 162 165 134
f 165 202 139 134
f 181 195 164 135
f 164 145 490 135
f 428 434 154 136
f 154 226 141 136
f 141 227 173 136
f 173 424 428 136
f 427 423 152 137
f 191 145 143 137
f 143 422 427 137
f 214 166 151 138
f 151 445 441 138
f 441 442 223 138
f 223 140 214 138
f 202 140 223 139
f 223 442 446 139
f 488 217 214 140
f 202 389 488 140
f 226 177 175 141
f 175 197 227 141
f 199 215 150 142
f 150 204 156 142
f 156 192 182 142
f 182 221 199 142
f 153 448 450 144
f 450 460 155 144
f 155 208 200 144
f 200 162 153 144
f 191 391 490 145
f 212 411 406 146
f 406 402 158 146
f 158 177 226 146
f 226 154 212 146
f 209 455 462 147
f 462 456 196 147
f 196 149 211 147
f 211 201 209 147
f 203 221 182 148
f 182 192 217 148
f 217 488 384 148
f 384 383 203 148
f 196 219 183 149
f 183 168 189 149
f 189 160 211 149
f 215 404 408 150
f 408 416 204 150
f 166 218 205 151
f 205 440 445 151
f 423 424 173 152
f 434 430 212 154
f 460 454 222 155
f 222 184 208 155
f 204 180 218 156
f 218 166 192 156
f 158 402 407 157
f 407 403 224 157
f 185 172 170 159
f 170 179 186 159
f 186 193 207 159
f 207 174 185 159
f 163 201 211 160
f 189 170 172 160
f 172 187 163 160
f 169 194 174 161
f 174 207 184 161
f 200 198 225 162
f 225 489 165 162
f 468 459 201 163
f 187 466 468 163
f 489 389 202 165
f 214 217 192 166
f 220 199 221 167
f 221 203 210 167
f 210 188 176 167
f 183 195 181 168
f 181 178 179 168
f 179 170 189 168
f 190 458 465 169
f 465 464 194 169
f 186 179 178 171
f 206 225 198 171
f 198 193 186 171
f 185 216 187 172
f 194 216 185 174
f 176 188 197 175
f 204 416 410 180
f 410 414 213 180
f 213 205 218 180
f 207 193 208 184
f 216 457 466 187
f 210 387 382 188
f 382 485 197 188
f 463 498 458 190
f 198 200 208 193
f 464 457 216 194
f 456 461 219 196
f 220 224 215 199
f 459 467 209 201
f 383 387 210 203
f 213 444 440 205
f 392 489 225 206
f 467 497 455 209
f 430 493 411 212
f 414 496 444 213
f 224 403 404 215
f 229 480 481 228
f 481 500 230 228
f 230 258 251 228
f 251 250 229 228
f 250 270 235 229
f 235 471 480 229
f 500 475 257 230
f 257 277 258 230
f 233 271 247 231
f 247 272 232 231
f 232 473 482 231
f 482 472 233 231
f 272 252 236 232
f 236 484 473 232
f 472 483 234 233
f 234 244 271 233
f 483 471 235 234
f 235 270 244 234
f 252 259 237 236
f 237 499 484 236
f 259 278 256 237
f 256 474 499 237
f 264 269 262 238
f 279 267 264 238
f 263 268 265 239
f 265 266 280 239
f 280 273 240 239
f 240 275 263 239
f 244 270 242 241
f 242 468 466 241
f 466 457 243 241
f 243 271 244 241
f 270 250 253 242
f 253 459 468 242
f 457 464 245 243
f 245 247 271 243
f 464 465 246 245
f 246 272 247 245
f 465 458 248 246
f 248 252 272 246
f 458 498 255 248
f 255 259 252 248
f 254 251 258 249
f 258 277 260 249
f 260 455 497 249
f 497 467 254 249
f 251 254 253 250
f 254 467 459 253
f 498 463 261 255
f 261 278 259 255
f 278 265 268 256
f 268 478 474 256
f 475 479 269 257
f 269 264 277 257
f 277 264 267 260
f 267 462 455 260
f 463 453 266 261
f 266 265 278 261
f 269 479 470 262
f 470 477 274 262
f 469 478 268 263
f 275 476 469 263
f 453 454 280 266
f 279 456 462 267
f 280 454 460 273
f 461 456 279 276
f 329 334 285 281
f 285 492 356 281
f 356 310 299 281
f 299 298 329 281
f 486 396 339 282
f 339 287 305 282
f 305 326 379 282
f 379 346 486 282
f 369 319 330 283
f 330 328 331 283
f 331 309 308 283
f 308 374 369 283
f 420 421 310 284
f 310 356 351 284
f 351 375 373 284
f 373 433 420 284
f 334 314 296 285
f 296 393 492 285
f 292 379 326 286
f 326 451 438 286
f 438 439 306 286
f 306 378 292 286
f 339 358 295 287
f 295 436 443 287
f 443 437 305 287
f 480 471 372 288
f 372 349 345 288
f 345 311 342 288
f 342 481 480 288
f 419 433 373 289
f 373 375 365 289
f 365 318 304 289
f 304 425 419 289
f 316 320 300 290
f 300 491 394 290
f 394 393 296 290
f 296 314 316 290
f 322 337 315 291
f 315 449 435 291
f 435 436 295 291
f 295 358 322 291
f 328 346 379 292
f 378 331 328 292
f 307 340 335 293
f 335 370 348 293
f 348 366 303 293
f 303 355 307 293
f 321 312 350 294
f 350 361 359 294
f 359 332 323 294
f 323 362 321 294
f 309 331 378 297
f 378 306 363 297
f 363 412 397 297
f 397 398 309 297
f 371 325 329 298
f 299 429 432 298
f 432 477 371 298
f 310 421 429 299
f 320 337 322 300
f 322 358 491 300
f 324 380 376 301
f 376 478 469 301
f 469 476 354 301
f 354 344 324 301
f 367 487 385 302
f 385 388 353 302
f 353 370 335 302
f 335 340 367 302
f 366 415 400 303
f 400 401 355 303
f 318 368 357 304
f 357 418 425 304
f 437 451 326 305
f 439 447 363 306
f 368 318 340 307
f 355 333 368 307
f 309 398 405 308
f 405 399 374 308
f 345 336 377 311
f 377 470 479 311
f 479 475 342 311
f 321 472 482 312
f 482 473 313 312
f 313 380 350 312
f 473 484 343 313
f 343 376 380 313
f 327 352 316 314
f 334 317 327 314
f 337 344 354 315
f 354 476 449 315
f 352 347 320 316
f 341 332 327 317
f 334 329 325 317
f 325 336 341 317
f 365 367 340 318
f 370 353 360 319
f 360 338 330 319
f 369 348 370 319
f 347 344 337 320
f 362 483 472 321
f 332 341 349 323
f 349 372 362 323
f 361 350 380 324
f 344 347 361 324
f 371 377 336 325
f 332 359 352 327
f 330 338 346 328
f 364 357 368 333
f 355 401 409 333
f 409 413 364 333
f 345 349 341 336
f 360 386 381 338
f 381 486 346 338
f 396 491 358 339
f 475 500 481 342
f 484 499 474 343
f 474 478 376 343
f 352 359 361 347
f 369 374 366 348
f 356 492 390 351
f 390 487 375 351
f 388 386 360 353
f 364 417 418 357
f 372 471 483 362
f 447 494 412 363
f 413 495 417 364
f 375 487 367 365
f 374 399 415 366
f 477 470 377 371
