v -1.123653373185827 -2.220095444720880 3.090865750468677
v 1.428472584645505 -2.040749378997512 3.812924056051397
v 0.236860965747332 -2.479712641044371 3.108507463110372
v -2.133597260369943 -1.292413321158030 3.824812081556886
v -1.696618875159193 -1.823219400184680 4.459148196352341
v 0.925484471611991 -2.320566617679507 3.094749449334160
v 2.488069820387941 -0.124537130882259 1.883093998476304
v -2.499241531501459 -0.007947571495718 1.831447102173577
v 2.360934818056664 -0.788067437644640 1.867452932845982
v -2.139473229771253 -1.286978677770890 4.507534543130978
v -1.690623938678191 -1.824700301513420 2.421366635829275
v -2.396914853626082 -0.669757569484957 1.837877603026443
v -2.407649203480156 -0.666547976757503 1.200499368463921
v 2.377014796982209 -0.751993960048666 1.221050529306451
v 2.355587649213451 -0.836251537569433 2.523664449845570
v 1.594578669444458 -1.908333466846904 2.415422872177234
v 0.111148445283957 -2.488866450080813 4.600706842144220
v -0.537490794886383 -2.439024696044259 4.578643142704552
v -1.154547223773046 -2.211665250343018 4.505354483880874
v 2.262132191742295 -1.029185714063701 4.555919377144120
v -2.134956355660159 -1.289597255909970 1.829492495265338
v 2.076432476134899 -1.387392021453422 1.841499028347486
v 2.482654241799887 -0.206336224362381 3.217193709245462
v 1.996430963260622 -1.497409566943084 3.154555820093112
v -2.499657819395929 -0.003936316553104 2.486294171494763
v -1.143008283178355 -2.220442678652785 3.806376494920786
v 1.518317121803220 -1.976338689389076 3.112253876292105
v -2.128592321072113 -1.294557839882500 3.143162553100552
v 2.300755728735630 -0.958612318612294 3.871207234247281
v -1.696412961494172 -1.829836661680081 3.112902961562421
v -0.501353200180604 -2.443303330801081 3.827231278220994
v 2.037003731484827 -1.429786645328226 2.484441009156761
v 2.494839841657425 -0.075510015645376 0.580057420722415
v -2.499212686195552 -0.011544342262193 0.547474333790535
v 2.476749043015792 -0.258355477594223 3.908809358033370
v 2.486229323639947 -0.161655726716897 2.543155058059908
v -2.406044781815561 -0.644946338786198 4.576522741744323
v 1.935826513781794 -1.571769146172520 3.827879985026555
v -0.465687598154380 -2.451951685142525 3.101616565975247
v 2.476171336628276 -0.314201558496909 4.633707089482123
v 0.743977269867687 -2.372210570624968 4.561092965656200
v -1.697003710732794 -1.822651664762114 3.802203502728089
v 0.831951510601243 -2.356879156018504 3.824607149063987
v 0.170119662286421 -2.489363749263315 3.837549897285747
v -2.406908229525193 -0.661052487777498 3.856749468411447
v -2.132245264017898 -1.296361851335477 2.474211238863426
v -2.401945344367469 -0.669011746356768 3.161937920513086
v 1.324279556887653 -2.110987588588772 4.487860428355555
v 1.852748237341840 -1.677294182582190 4.466839173284508
v -2.405352267184441 -0.673390152843349 2.490369839931973
v 2.494558335668311 -0.097666651513482 1.231143111497094
v -2.499416231972791 -0.010486701605346 1.186882482315101
v 2.330797729574558 -0.891429416795196 3.192217207893175
v -1.176651934247186 -2.194224929196793 -3.802847413903097
v 0.065727172296428 -2.494297868953955 -3.071718230809809
v 1.223798503733431 -2.172314654701212 -2.966055495403166
v -1.168648527248764 -2.201446698325391 -3.096967730130842
v 1.732990719405298 -1.794715327213201 -4.341305061308506
v -1.707829675811640 -1.814448126756717 -1.832926386641104
v 2.495863736097738 -0.056884295957008 -0.077786410885071
v -2.499218263376170 -0.010750894653289 -0.089982408735919
v -2.402280016763370 -0.660096003250412 -3.940421727964993
v -2.399394119921143 -0.661232400589301 -1.952286996525630
v 2.396013485569578 -0.669075879677330 -2.123685947226439
v 0.052068790733324 -2.494579578196769 -3.780607393591768
v -1.701185817444802 -1.818729200596558 -4.471527332832280
v 2.143427387250544 -1.274584906252465 -4.310577135063896
v -2.139561712393268 -1.286862387978078 -2.546891758547385
v -0.573712552682680 -2.428646011626336 -4.523868805856062
v -2.406602279182097 -0.660931827593710 -1.324901216609971
v 2.396914487230435 -0.681167826174713 -1.435861699290128
v -0.576349535128444 -2.431782209253209 -3.795441229501217
v 0.667000396806646 -2.402074814991571 -4.480786112055636
v 0.052740990254947 -2.494385599048571 -4.527061183533524
v -1.712018215560377 -1.810152867719038 -3.827074897973813
v 1.703910064039427 -1.813882730431827 -2.157178378127820
v 2.400578345030534 -0.692197751129078 -0.761417180334268
v -2.138692728619970 -1.283054313243789 -1.909161406212793
v 0.666141583708679 -2.404940008612727 -3.742000238498639
v 2.129259068168418 -1.293181040842876 -1.448402642862554
v -2.142495983700870 -1.273869064194071 -1.293704485760304
v 2.405052929414836 -0.652311650089147 -4.285142973693882
v 1.233765338284131 -2.167509834392188 -4.407362730280862
v -2.136400214827983 -1.296492082861310 -4.553671574298185
v -2.135915719476254 -1.284235327070596 -3.207899270723233
v 2.149539605461839 -1.268960337941860 -3.590857313416159
v 2.499405207905793 -0.006842263817348 -2.084374592182787
v 1.236847697708169 -2.165039334692557 -3.687583056679625
v 2.143159095854062 -1.274757118472031 -2.869153971583605
v -2.407803071001377 -0.657639476392074 -0.701016744925018
v 1.734856801413031 -1.795991451413849 -2.910279843441396
v -1.713731871597177 -1.813862171811318 -3.148844281789746
v -2.140049015508839 -1.289462606785277 -3.880980299503558
v -1.170275384902729 -2.197105864844399 -4.484228327862157
v -1.703700674380275 -1.814896071866214 -2.464856570105434
v -2.402677030106772 -0.661092277870026 -2.593590826149918
v 2.408377533372977 -0.653535050607162 -3.547075893212492
v -2.499477253729228 -0.007649489892732 -0.722627405128863
v 2.497268438329403 -0.040052749815090 -0.739975485141424
v 0.666811869403213 -2.402177162395764 -3.027819411985731
v 1.741580129394918 -1.780438503411939 -3.634931616977612
v -0.560646636278941 -2.433444995746892 -3.080939917680576
v 2.137127225265251 -1.287636617428503 -2.150886660306279
v 2.403919072372847 -0.659352795800342 -2.828292808263317
v -2.404287501908360 -0.660632382987962 -4.664778920829560
v -2.499877487534382 -0.002198846080196 -1.350302899802183
v 2.498712064055954 -0.023136244711586 -1.406872686034186
v -2.402166963991460 -0.659757543829097 -3.254154309071138
v 0.106162684251043 -2.589991673905192 -2.493257878841970
v -2.391025933551156 -1.973272627537055 -0.696409310764125
v 2.364587489091242 -2.008857042557715 -0.790718856738319
v -2.496503376076605 -2.003507303454213 -0.038497573434150
v 2.366305328497215 -1.338238544477634 -0.786340461190451
v -2.395605682404040 -1.306119287614953 -0.697431495986041
v -2.121821420369366 -2.563149292030130 -1.317469306329762
v 2.043813349389302 -2.567704472795947 -1.421010131958568
v -2.126505149353359 -1.906197763490184 -1.308528685820124
v 2.491968254534581 -2.060060514235938 -0.091284629205918
v 2.375293670550202 -2.743540785029330 -0.762073624699533
v 2.493739342869806 -0.712043811960116 -0.091634682444598
v -2.495240278932891 -0.662415892953424 -0.069807349743402
v 2.494608184516853 -2.822256978435449 -0.072972938673164
v -2.498006761012405 -2.752344481171554 -0.026976536355368
v -1.681263625130681 -2.433438009490076 -1.841614784596205
v -0.524839662363256 -2.508507248179153 -2.438680527911341
v 0.694319971006880 -2.476987977458238 -2.400580419063993
v 2.016082954684507 -1.904622767123237 -1.463389511109093
v -2.399138321726510 -2.696676989554229 -0.692143978794662
v 2.494591488475788 -1.373354952142372 -0.097148382645395
v -2.497063268608957 -1.321716679578577 -0.052784446477847
v -0.251325613790082 2.565124959139830 -2.482498296031199
v 2.498642494575573 1.937832071474052 -0.014268535943892
v 2.394322420257037 1.923024259626756 -0.685608211120082
v -1.919159393449440 2.468066975102751 -1.587732464012169
v -2.480972589736011 1.950278564368329 -0.205012553840294
v -2.336679211243429 1.921991969525834 -0.878390705972610
v -2.359062548514576 1.277534153779604 -0.803827158278660
v 2.396036105086329 1.260765549759276 -0.700145332573746
v 2.128546573383578 2.528743158021308 -1.306948425578589
v 2.123791528993650 1.877800694007144 -1.314204734549973
v -2.292071043898534 2.575422690521774 -0.963398189088316
v 2.495955981490228 0.598705288683814 -0.059310663482273
v -2.491913807567389 0.637999288816649 -0.118580327521668
v -1.481633592674782 2.398765005314226 -2.012481965360672
v -2.480197190222334 2.650231363116921 -0.268011623910424
v 1.678299601486125 2.424600120243525 -1.844775287411696
v 0.452402581886219 2.524922961907738 -2.455033234855802
v -2.016466530796804 1.868314187556537 -1.461543099817940
v 2.404211863929953 2.629551716800461 -0.663990241066024
v -2.491326252900159 1.287713812748603 -0.155840449225070
v 2.497876773323757 1.259342389207629 -0.038162613439622
v -0.001161590165182 2.961178404720221 2.487368083681939
v 2.403057552136315 1.904972592368657 0.654508891620883
v -2.448610283373005 1.944590057836307 0.489742768794954
v -2.212480438154765 1.261854351832564 1.148476858797228
v 2.124785936841148 2.502008577991788 1.310634402867895
v -2.203471985422227 1.895170098771485 1.157717218218197
v 2.142325253163595 1.841508887753589 1.278916386570076
v -2.436537192706090 0.636211458493046 0.527011907277089
v -1.784736984335434 1.821946453447622 1.743605363912178
v -2.205943238873604 2.552954976740935 1.154349571216140
v -2.441589435457099 1.282575227879304 0.511806184113249
v 2.420037299471673 1.237747430872805 0.624043690571632
v 2.499020843425768 2.666601552981355 0.013251924674403
v -0.599177108631049 2.745796499681325 2.425067782972013
v -1.752067737931220 2.439841885781801 1.778974006146829
v 1.689968915043742 2.387577589112898 1.836790536087428
v 2.398979691238980 2.610752318271791 0.684898317165076
v -2.453527333882283 2.640868155708896 0.451398498946599
v 0.300690431665688 -2.553198568209051 2.478803196392140
v 2.156984888290571 -1.987270000345500 1.247776187669469
v 2.417055000238508 -2.049223400761842 0.601108880087231
v -2.411017024233189 -1.982245669042753 0.624223892456507
v 2.428421246505460 -1.381342207360117 0.585581530355492
v -2.178067579117247 -1.283475391422983 1.209933775216312
v 2.172581859343619 -1.363840891076371 1.217268850681204
v 2.147609569785547 -2.637416602604108 1.271927090669478
v -2.144315530909711 -2.578704132347065 1.280741796813838
v -2.155917314567324 -1.918155503142998 1.250247634869784
v -2.427537247726479 -0.660835206054124 0.567900666794909
v 2.426172743906300 -0.727779768347266 0.572845340600478
v -1.730026841438203 -1.826231276391146 1.793783825979909
v 1.718795213142458 -1.894860442677432 1.801805394441052
v -2.425994270067313 -1.314316753056354 0.598024166285009
v 1.689949621476753 -2.476968025002116 1.831245732211151
v -1.697346840136349 -2.440049703164240 1.827044281883893
v -0.431739614657125 -2.530075718633866 2.459708862707602
v 2.418580468973235 -2.781198698014563 0.615697064584767
v -2.410928200305507 -2.705488399291680 0.641860325618002
v -1.271978550610969 2.999999999999993 1.080244368868383
v 0.601971622801328 2.999999999999987 1.592529760820030
v 2.001854644230589 3.000000000000000 -0.626087872117474
v -1.313553218098473 2.999999999999990 -1.163741208272805
v 1.200581997439636 3.000000000000003 -1.290481846524457
v -0.697398957223797 2.999999999999940 -0.475108050034410
v -0.708917012493181 2.999999999999969 -1.244391802538426
v 0.598941257936207 2.999999999999989 -0.571918168050138
v -0.680864981265384 3.000000000000045 0.272712455725518
v 0.618395702229753 2.999999999999991 0.857632322924685
v 1.179532532137872 2.999999999999993 2.190560916999905
v 0.499650133183947 3.000000000000029 -2.107750786451993
v -0.645028117863029 2.999999999999956 1.026983987756124
v 1.275550779195948 2.999999999999996 -0.599085943358668
v -0.017293444363382 3.000000000000028 0.949854561066545
v 0.623697453509468 2.999999999999990 0.145926667911646
v -0.031481709191269 3.000000000000020 0.208304058575524
v -0.053207843993832 2.999999999999990 -0.531427645040781
v -0.086914973591748 2.999999999999941 -1.292833479498803
v -0.008147350041780 2.999999999999983 1.716594569894933
v -1.356383481209085 2.999999999999980 -0.406573571935900
v -1.342950643506060 3.000000000000003 0.335046280909165
v 1.279197337016138 2.999999999999997 0.767051060693250
v -2.049591762798054 3.000000000000010 0.393477237808921
v 0.600030228519162 2.999999999999993 2.386796035999868
v -0.772119625630877 3.000000000000135 -2.063925909670305
v -0.148043723852168 2.999999999999932 -2.101204315855554
v -2.062860889961387 3.000000000000043 -0.333421679817395
v 2.035162056369474 3.000000000000031 0.046021120402535
v 1.131839751710874 2.999999999999979 -2.045627053335778
v 1.902758989662800 2.999999999999993 1.341409717307422
v -1.996168978812388 3.000000000000049 -1.059075432741893
v 2.008552041940192 3.000000000000040 0.711238246316802
v -0.609924626182546 2.999999999999973 1.811957015339723
v -1.187468932228419 3.000000000000008 1.869449749806374
v 1.891265263973633 3.000000000000067 -1.280938149588925
v 0.552004721401641 2.999999999999912 -1.305668899217022
v -1.955364090892838 3.000000000000016 1.119915488537634
v -1.305345469189141 3.000000000000036 -1.976210926665601
v 1.304699913563740 2.999999999999988 0.089671837317086
v 1.212952577357330 2.999999999999995 1.437466192013476
v -1.124398892148394 -3.000000000000004 -1.355186306863420
v -1.903920956874582 -3.000000000000003 0.643824317606999
v 1.829403222513305 -2.999999999999997 0.623781050471910
v -1.100550076336208 -3.000000000000001 1.339136045164653
v 1.814847222251544 -2.999999999999993 -0.718704344697093
v 1.038211621058076 -2.999999999999998 1.334696527482161
v 0.318867265767727 -3.000000000000007 0.669543293805139
v -0.423425972527610 -3.000000000000007 -0.017659529602268
v 0.286570141724891 -3.000000000000007 -0.711224707808997
v -1.115746999984222 -3.000000000000002 -2.078025595495193
v -0.400676829242123 -3.000000000000000 2.149017479547889
v 0.852160253685856 -2.999999999999997 -2.126265558779997
v -1.159145408043091 -3.000000000000004 -0.015598275447740
v -1.154442926139419 -2.999999999999998 -0.687731027184519
v 1.056116219834705 -2.999999999999995 0.646956805488204
v 1.059418442754511 -3.000000000000007 -0.033089725860493
v -0.433633362232825 -3.000000000000010 -0.703848018866119
v 0.309043136541153 -3.000000000000002 -0.022479819759526
v -0.409548868670028 -3.000000000000000 0.673620657471631
v -0.395469227803968 -2.999999999999998 1.383414701512234
v -0.448679352590421 -2.999999999999993 -1.404362872720212
v -1.908480481821250 -2.999999999999996 -0.678399108845111
v 0.318314838065626 -3.000000000000001 1.385214790381959
v 1.028612168539754 -2.999999999999988 -0.708214644913729
v 0.243478433179432 -3.000000000000006 -1.415590684798206
v -1.138974735864823 -3.000000000000000 0.656412283270457
v -1.928886992159633 -3.000000000000008 -0.018994826495505
v -1.082895905312300 -3.000000000000000 2.077238014788352
v 1.029500127142044 -3.000000000000001 2.078266277532615
v -1.827145266241579 -3.000000000000002 1.290824992765522
v 1.747552044869310 -2.999999999999996 -1.359169736779546
v 0.314069090626887 -3.000000000000000 2.149984703486482
v 0.176949420699804 -3.000000000000007 -2.159720264881965
v -0.481100613857478 -3.000000000000005 -2.153080931832122
v -1.833181146585420 -2.999999999999995 -1.314691467915335
v 1.771340210195737 -2.999999999999992 1.277684595283044
v 1.843016052166770 -2.999999999999995 -0.049971704175567
v 0.969731200064979 -2.999999999999975 -1.380609705891275
v -1.038061738834621 2.267546884692710 -3.127121159660273
v 2.391508655196995 0.692279992187303 -4.124193967321942
v 1.085459076430078 2.244797263024018 -3.137817615343378
v -2.109322161848609 1.330860699476066 -3.900393168530214
v -0.316311626950631 2.474386095992386 -3.121396441850318
v -1.652422869135101 1.862518623327281 -4.488832890791236
v 1.710116332018750 1.812216969039095 -1.855822546809129
v 0.376408527504278 2.469156249347990 -3.850368347054649
v -2.499567310125442 0.004533917651349 -1.979388764348856
v 2.399955163365433 0.658369728131604 -2.028615715392915
v -2.396482952875157 0.670921761863434 -1.991158194557875
v -1.670120219087676 1.846579888020595 -2.526035423369027
v 2.127138134174221 1.304053527407104 -2.621979382396455
v 1.649602527405779 1.861963960407221 -4.529139295322741
v 2.412854827422165 0.637166593415824 -1.368136777645890
v -2.406736304931385 0.655598889247157 -1.373183648606089
v 2.393610904620957 0.689214382304821 -3.404503887116933
v 1.657121192845374 1.862406406951308 -3.894819171168233
v 0.346531884541948 2.464455663997446 -4.583262871100796
v -0.366448182153565 2.459020302520274 -4.578211583455019
v -1.697613427554932 1.822056856180601 -1.955092012535941
v -2.411641444619995 0.640415532420181 -0.752080302316501
v 2.139194683815776 1.281040940187158 -1.958800846328165
v -2.144902223940352 1.266502657121919 -1.397374638629474
v 2.154147437542896 1.252091602184983 -1.319002304446632
v -1.044955803761082 2.266870793839083 -3.835490310282225
v -2.111688064127090 1.324222347136141 -4.566471751825750
v -2.392620292895683 0.695170179216019 -3.953254876099172
v 2.396002553804184 0.682771572856527 -4.896298306423635
v 2.117112239243624 1.323211404692099 -4.677921422736879
v -2.498477552829309 0.015233218083390 -3.280686279442885
v 2.498643562577413 0.016135482411321 -3.486817463632619
v 2.116375284051610 1.318091330715418 -3.307373758292534
v -2.499078590027811 0.010969337675263 -2.620196176907106
v -2.108929211293278 1.326032350924748 -3.240317248348575
v -0.346475570267181 2.471094928106763 -3.845351411544836
v 2.417440037896675 0.613235729646500 -0.714057289180690
v -1.656234082432008 1.869392956878859 -3.186225759361402
v 1.672653262664788 1.856318064287194 -3.210767685892715
v 1.684126478608915 1.833319692308169 -2.505355829359832
v 1.041938117321846 2.268860549171724 -4.538888395236382
v 2.498258395284079 0.017805317175613 -4.231093991108498
v -1.056834883886534 2.264887549396419 -4.520899570590135
v -2.498993095520442 0.012971012796281 -4.718710674034215
v 0.408755266956137 2.460972115825541 -3.123268675884528
v -2.132536473870535 1.292947782573266 -1.991593768709041
v 2.115413615856541 1.327408287687821 -3.995555751843634
v -1.647971732124870 1.869116366658508 -3.852198200812211
v 2.499427739321990 0.006964728053788 -2.776655545236259
v -2.498800336953910 0.016236427547914 -3.969020314160192
v 1.063835216365638 2.259111508144309 -3.853740374769891
v -2.118476180887472 1.313784189540118 -2.599360849072160
v -2.392341909507527 0.693862438033691 -3.272929059338693
v -2.400755262444071 0.686294356374670 -2.622851671650926
v -2.397001498147514 0.688521041820848 -4.675183897117945
v 2.398882099491805 0.677651478171636 -2.707228167552678
v 0.640300800203421 2.412298426442072 3.339301274397672
v -1.195167027934390 2.186183806013628 3.632502318458700
v 1.240423840449848 2.168438032440035 3.238384439658931
v -2.141810982192172 1.281932960348903 2.423036498879063
v 2.211129913064228 1.153684773921867 3.898751640443459
v 1.767444894288508 1.755430559540148 4.526810820404905
v -2.395659695199678 0.680783260830933 3.825067536135369
v 0.009364487103643 2.494266574136844 2.745975376598618
v 0.647545382577489 2.413197233018407 4.081023775333589
v -2.401631956696101 0.652298211447474 1.809789022558333
v 2.430286240559969 0.554490527655046 1.888379354902518
v 1.766313345616119 1.761640842854827 2.499634680425546
v -1.704841904361593 1.819007143872825 4.376346195906201
v -2.123850310956615 1.314944346679927 4.460040637292485
v -1.184320861244744 2.191630662313578 2.940690266878959
v -0.607569516112512 2.418664141612732 4.280664118946095
v 0.018035937616615 2.491331474493227 4.196681266016764
v -1.714699086919098 1.802205008898832 3.700758401408970
v 1.760985020069253 1.766482881524098 1.832624400028522
v -2.415213277715432 0.644573940211141 1.167001423758914
v -1.708206483493538 1.808458864115300 2.358906016209281
v -0.605788893850411 2.419779759980139 3.554421898944270
v 2.183468082455192 1.201584652677657 1.242563235985146
v 0.013880360356008 2.486654026075852 4.988659198413979
v 0.636607165373754 2.410678872157926 4.847432099629343
v 2.181810132851828 1.199359632330433 1.877768180762441
v 2.217450458741070 1.136480099568841 4.570822247199695
v -2.145404154268506 1.269862392690952 1.778417069488976
v -2.499748505223929 0.002991652595567 3.160988940191702
v -2.133415336198244 1.283802896077900 3.085940283122278
v -2.498775589002959 0.013961020377919 3.859929230558114
v 0.604750119222924 2.422134720009616 2.571735573884123
v 2.424903555257302 0.581161793687855 0.594095525929023
v 1.780337265797442 1.739966880594309 3.213246757018626
v -1.720167244773874 1.809883098703830 3.022623547211986
v -2.133796775411323 1.296407804068001 3.768513365808129
v -1.193437030667542 2.189492118859108 4.329273581088525
v 1.246534226475154 2.159701692635769 3.962077746711682
v 1.223262392170397 2.168740676286009 4.645676946408321
v -2.403465012525250 0.662031235416014 2.463264948338273
v 2.430034661936558 0.570411719442075 1.240016232862086
v -2.497629626748668 0.031255423695858 4.603447755954292
v -0.597124087453025 2.425784113321982 2.851921836295071
v 1.788032654344635 1.742165556918613 3.895963567391675
v 2.448055562836902 0.502050432432731 3.225188012673243
v 2.453413440727418 0.465512061220966 3.916960810683424
v 2.191681843466030 1.189795724010489 2.537142542513840
v 2.205526294852326 1.174099334503524 3.217384801762084
v 2.461661231168937 0.421120126660522 4.637496636563836
v 2.438458986241542 0.531681818899099 2.549317552086297
v -2.394503556034634 0.698674212441432 4.551392208790173
v 0.016395625941678 2.496149638252134 3.456299203822461
v -2.402421868680279 0.670482344654381 3.133717301359843
v -1.210392405652252 -0.663317758106670 -5.000000000000031
v 1.637328651643916 0.005913725948266 -4.999999999999796
v 1.527567740273540 -0.656196582502271 -4.999999999999988
v -1.930467019307745 0.668893845277738 -5.000000000000084
v 1.695294373271159 0.665272347517041 -5.000000000000073
v -1.966884619406891 0.007786362611675 -4.999999999999977
v -1.177364121994417 0.667809757040689 -5.000000000000000
v -1.178966156050535 -1.330238893991591 -4.999999999999986
v 0.900910250655429 -0.000075985492069 -4.999999999999921
v 0.953531182998283 0.670945037842811 -4.999999999999842
v -0.465209881129111 0.677155662114545 -4.999999999999929
v -0.526043791436234 -0.681015516540748 -4.999999999999998
v 0.098294470359372 -1.394768185420439 -5.000000000000004
v 2.108389754681285 -1.288104476217355 -4.999999999999983
v 1.246341352530833 -2.035832481445249 -4.999999999999988
v 0.819474500340164 -0.675429954667236 -4.999999999999947
v 0.144707368629193 -0.688434639058194 -4.999999999999997
v -0.503491710584947 -0.001550890427797 -5.000000000000041
v 0.193871931567366 -0.002476285015875 -4.999999999999994
v 0.239625073221314 0.679090601971641 -4.999999999999917
v 0.983446390242143 1.338335396819781 -5.000000000000192
v 1.006381331684961 2.023239367467117 -5.000000000000118
v 0.277914786115961 1.373911556117957 -5.000000000000062
v 1.359148387918503 -1.316662161025233 -4.999999999999906
v -0.537812722317689 -1.377862283489149 -5.000000000000007
v -1.115967581485914 1.331221148139869 -4.999999999999986
v 2.458736441120147 0.013370440994033 -5.000000000000131
v -0.386174705345056 2.106862178495199 -4.999999999999782
v 0.678682828462091 -2.127534581353872 -4.999999999999966
v -0.554318005208910 -2.122827187602057 -5.000000000000007
v -1.159949047433948 -2.026545069945254 -5.000000000000000
v 0.068582176117712 -2.157690062215734 -5.000000000000038
v 2.332412180050582 -0.651421555581310 -4.999999999999953
v -1.861543444229991 -1.293537710373966 -4.999999999999988
v -1.065079659919359 2.022320315416663 -4.999999999999993
v -1.834544914664136 1.308798379066357 -5.000000000000030
v 0.312127538885623 2.103096783178160 -5.000000000000266
v -0.421705285118446 1.368666146540143 -5.000000000000468
v -1.215152125433972 0.002304162800774 -5.000000000000012
v -1.952313064906942 -0.654408681448798 -5.000000000000038
v 1.703705578057960 1.303431637447996 -5.000000000000101
v 0.730964137474651 -1.372490931173804 -5.000000000000000
v 0.008939460605287 1.684386053384202 4.999999999999972
v -0.611735920001406 1.573224630953922 5.000000000000015
v -1.304347037193035 0.766502186153633 5.000000000000000
v -1.309987328199603 -0.584919506058098 5.000000000000004
v 0.662386872841362 0.257122059155707 5.000000000000033
v -0.606179470908548 2.368051359146325 4.999999999999991
v 1.949901097230504 1.096340432273815 5.000000000000022
v 1.211001745615756 1.804805733553116 4.999999999999979
v 1.248662472406783 -1.941124075190968 5.000000000000004
v 0.641111842404334 0.998491271888581 5.000000000000014
v -0.637595983207622 0.848377345666586 5.000000000000000
v 0.006752969413407 0.928434369637545 4.999999999999978
v -0.632990721650233 -0.561892261134761 4.999999999999998
v -0.648487880640662 0.143911796900086 4.999999999999988
v 0.009137132598991 0.200613702585249 4.999999999999982
v 0.018021005950236 -0.527868615376438 4.999999999999996
v 0.036286012903535 -1.269829780858951 5.000000000000002
v 0.667379286359015 -0.481447191586863 5.000000000000020
v 0.659664321109979 -1.232100640269735 4.999999999999996
v 1.336848130637253 -0.425351171924684 4.999999999999972
v 2.053368150056704 -0.366404151034867 5.000000000000068
v -1.229881858839148 1.432981168221731 5.000000000000007
v -1.337651277280851 0.094406921458729 5.000000000000000
v -1.232740903898741 -1.267697198000131 4.999999999999993
v 1.279633995410081 -1.168856260411257 5.000000000000009
v 1.333501303204216 0.312472703348082 4.999999999999954
v -1.192327097858824 2.165504032759991 5.000000000000009
v -0.560057187060368 -2.046752999976767 5.000000000000018
v -2.045075222205393 -0.612469968706389 4.999999999999982
v 2.047066642553671 0.365681856668103 4.999999999999961
v -2.081855423116661 0.056544537542147 5.000000000000043
v -1.928322815627900 1.339361811676255 5.000000000000007
v -2.047648110558964 0.716248236832225 5.000000000000014
v -1.165583548743861 -1.982580631087160 5.000000000000007
v -1.921896418674307 -1.266403046306536 4.999999999999993
v 1.271075530375899 1.052752520713289 5.000000000000077
v 0.064666869696138 -2.055324739274956 4.999999999999978
v -0.596184843836092 -1.283248734781044 4.999999999999993
v 0.677698288862303 -2.017286150089684 5.000000000000009
v 1.969904373491193 -1.094430697394892 4.999999999999975
v 0.623053834968871 1.760425687938256 4.999999999999917
v -1.116806640000000 -2.236681230000000 2.236681230000000
v 1.116806640000000 -2.236681230000000 2.236681230000000
v 1.672826520000000 -1.857862060000000 5.000000000000000
v -1.672826520000000 -1.857862060000000 5.000000000000000
v 1.116806640000000 -2.236681230000000 -2.236681230000000
v -1.672826520000000 -1.857862060000000 -5.000000000000000
v -1.116806640000000 -2.236681230000000 -2.236681230000000
v 1.672826520000000 -1.857862060000000 -5.000000000000000
v 1.672826520000000 -3.000000000000000 -1.857862060000000
v -1.672826520000000 -3.000000000000000 -1.857862060000000
v -1.116806640000000 2.236681230000000 -2.236681230000000
v 1.116806640000000 2.236681230000000 -2.236681230000000
v 1.672826520000000 3.000000000000000 -1.857862060000000
v -1.672826520000000 3.000000000000000 -1.857862060000000
v 1.116806640000000 2.236681230000000 2.236681230000000
v -1.116806640000000 2.236681230000000 2.236681230000000
v -1.672826520000000 3.000000000000000 1.857862060000000
v 1.672826520000000 3.000000000000000 1.857862060000000
v -1.672826520000000 -3.000000000000000 1.857862060000000
v 1.672826520000000 -3.000000000000000 1.857862060000000
v 1.672826520000000 1.857862060000000 -5.000000000000000
v -1.672826520000000 1.857862060000000 -5.000000000000000
v -1.672826520000000 1.857862060000000 5.000000000000000
v 1.672826520000000 1.857862060000000 5.000000000000000
f 26 42 30 1
f 30 11 461 1
f 461 187 39 1
f 39 31 26 1
f 48 41 43 2
f 43 6 27 2
f 27 24 38 2
f 38 49 48 2
f 44 31 39 3
f 39 187 170 3
f 170 462 6 3
f 6 43 44 3
f 10 37 45 4
f 45 47 28 4
f 28 30 42 4
f 42 5 10 4
f 464 454 10 5
f 42 26 19 5
f 19 453 464 5
f 462 16 27 6
f 36 15 9 7
f 9 14 51 7
f 51 365 335 7
f 335 374 36 7
f 25 364 334 8
f 334 344 52 8
f 52 13 12 8
f 12 50 25 8
f 15 32 22 9
f 22 176 14 9
f 454 448 37 10
f 30 28 46 11
f 46 21 182 11
f 182 186 461 11
f 13 175 21 12
f 21 46 50 12
f 52 34 180 13
f 180 184 175 13
f 176 174 181 14
f 181 33 51 14
f 53 24 32 15
f 36 23 53 15
f 462 185 183 16
f 183 22 32 16
f 32 24 27 16
f 456 447 18 17
f 18 31 44 17
f 44 43 41 17
f 41 458 456 17
f 447 453 19 18
f 19 26 31 18
f 459 463 49 20
f 49 38 29 20
f 29 35 40 20
f 40 440 459 20
f 175 179 182 21
f 183 171 176 22
f 35 29 53 23
f 36 374 369 23
f 369 370 35 23
f 53 29 38 24
f 353 377 364 25
f 50 47 353 25
f 47 50 46 28
f 181 120 60 33
f 60 142 357 33
f 357 365 51 33
f 52 344 159 34
f 159 143 61 34
f 61 121 180 34
f 370 373 40 35
f 448 450 366 37
f 366 355 45 37
f 373 449 440 40
f 48 428 458 41
f 355 353 47 45
f 49 463 428 48
f 57 92 75 54
f 75 66 94 54
f 94 69 72 54
f 72 102 57 54
f 109 125 102 55
f 102 72 65 55
f 65 79 100 55
f 100 126 109 55
f 465 126 100 56
f 100 79 88 56
f 88 101 91 56
f 91 76 465 56
f 467 95 92 57
f 102 125 467 57
f 101 88 83 58
f 83 392 468 58
f 468 391 67 58
f 67 86 101 58
f 117 81 78 59
f 78 68 95 59
f 95 467 124 59
f 124 115 117 59
f 120 77 99 60
f 99 305 142 60
f 143 290 98 61
f 98 90 121 61
f 108 299 318 62
f 318 312 105 62
f 105 84 93 62
f 93 85 108 62
f 70 106 277 63
f 277 302 96 63
f 96 68 78 63
f 78 81 70 63
f 71 80 103 64
f 103 89 104 64
f 104 317 87 64
f 87 107 71 64
f 72 69 74 65
f 74 73 79 65
f 75 93 84 66
f 84 411 466 66
f 466 408 94 66
f 391 410 82 67
f 82 97 86 67
f 96 108 85 68
f 85 92 95 68
f 94 408 407 69
f 407 409 74 69
f 90 98 106 70
f 81 114 90 70
f 77 113 80 71
f 107 99 77 71
f 74 409 406 73
f 406 392 83 73
f 83 88 79 73
f 92 85 93 75
f 127 116 465 76
f 91 89 103 76
f 103 80 127 76
f 120 129 113 77
f 113 111 127 80
f 117 110 114 81
f 410 404 310 82
f 310 300 97 82
f 105 417 411 84
f 89 91 101 86
f 97 104 89 86
f 317 324 278 87
f 278 283 107 87
f 114 130 121 90
f 302 299 108 96
f 300 317 104 97
f 290 284 106 98
f 107 283 305 99
f 312 383 417 105
f 284 279 277 106
f 263 264 125 109
f 126 242 263 109
f 112 130 114 110
f 117 115 128 110
f 128 123 112 110
f 118 122 119 111
f 119 116 127 111
f 113 129 118 111
f 173 184 130 112
f 123 189 173 112
f 124 470 265 115
f 265 252 128 115
f 119 235 261 116
f 261 469 465 116
f 172 188 122 118
f 129 174 172 118
f 122 267 235 119
f 181 174 129 120
f 130 184 180 121
f 188 233 267 122
f 128 252 257 123
f 257 232 189 123
f 467 240 470 124
f 264 240 467 125
f 465 469 242 126
f 147 313 273 131
f 273 269 471 131
f 471 215 216 131
f 216 201 147 131
f 153 163 151 132
f 151 138 133 132
f 133 149 164 132
f 164 168 153 132
f 138 293 140 133
f 140 139 149 133
f 141 221 474 134
f 474 228 144 134
f 144 289 148 134
f 148 136 141 134
f 154 169 145 135
f 145 141 136 135
f 136 137 150 135
f 150 162 154 135
f 148 292 137 136
f 292 284 290 137
f 290 143 150 137
f 151 142 305 138
f 305 283 293 138
f 140 275 146 139
f 146 473 225 139
f 225 192 149 139
f 293 291 275 140
f 145 217 221 141
f 151 163 357 142
f 159 162 150 143
f 228 215 471 144
f 471 280 289 144
f 169 213 217 145
f 275 308 472 146
f 472 219 473 146
f 472 271 313 147
f 201 219 472 147
f 289 314 292 148
f 192 218 164 149
f 332 356 214 152
f 214 191 209 152
f 209 223 165 152
f 165 367 332 152
f 158 347 163 153
f 168 156 158 153
f 157 161 169 154
f 162 155 157 154
f 352 160 157 155
f 162 159 344 155
f 344 334 352 155
f 167 343 158 156
f 168 222 220 156
f 220 478 167 156
f 160 166 161 157
f 343 350 347 158
f 345 476 166 160
f 352 328 345 160
f 166 477 227 161
f 227 213 169 161
f 347 365 357 163
f 218 222 168 164
f 223 224 476 165
f 476 339 367 165
f 476 224 477 166
f 475 336 343 167
f 478 200 475 167
f 187 241 262 170
f 262 259 462 170
f 183 185 177 171
f 177 188 172 171
f 172 174 176 171
f 179 175 184 173
f 189 178 179 173
f 185 480 266 177
f 266 233 188 177
f 189 232 260 178
f 260 479 186 178
f 186 182 179 178
f 462 259 480 185
f 479 258 461 186
f 461 258 241 187
f 224 223 202 190
f 202 198 211 190
f 211 213 227 190
f 227 477 224 190
f 214 200 230 191
f 230 212 199 191
f 199 204 209 191
f 225 194 203 192
f 203 229 218 192
f 210 195 196 193
f 196 215 228 193
f 228 474 221 193
f 221 217 210 193
f 225 473 219 194
f 219 201 226 194
f 226 197 203 194
f 198 206 207 195
f 207 208 196 195
f 210 211 198 195
f 208 216 215 196
f 205 229 203 197
f 226 208 207 197
f 207 206 205 197
f 202 204 206 198
f 212 229 205 199
f 205 206 204 199
f 214 356 475 200
f 478 220 230 200
f 216 208 226 201
f 223 209 204 202
f 217 213 211 210
f 230 220 222 212
f 222 218 229 212
f 244 252 265 231
f 265 470 240 231
f 240 264 251 231
f 251 247 244 231
f 257 243 256 232
f 256 234 260 232
f 266 236 245 233
f 245 246 267 233
f 258 479 260 234
f 256 249 250 234
f 250 241 258 234
f 267 246 254 235
f 254 268 261 235
f 259 262 253 236
f 253 237 245 236
f 266 480 259 236
f 253 250 249 237
f 249 238 248 237
f 248 246 245 237
f 249 256 243 238
f 243 244 247 238
f 247 239 248 238
f 247 251 255 239
f 255 268 254 239
f 254 246 248 239
f 250 253 262 241
f 268 255 263 242
f 469 261 268 242
f 257 252 244 243
f 264 263 255 251
f 273 304 294 269
f 294 316 306 269
f 306 280 471 269
f 285 300 310 270
f 310 404 297 270
f 297 298 315 270
f 315 301 285 270
f 472 308 307 271
f 307 286 319 271
f 319 276 313 271
f 303 306 316 272
f 316 274 295 272
f 295 323 296 272
f 296 321 303 272
f 313 276 304 273
f 316 294 311 274
f 311 412 482 274
f 482 413 295 274
f 291 281 308 275
f 319 309 287 276
f 287 288 304 276
f 279 322 302 277
f 324 281 291 278
f 291 293 283 278
f 284 292 314 279
f 314 320 322 279
f 306 303 320 280
f 320 314 289 280
f 324 285 301 281
f 301 307 308 281
f 286 315 298 282
f 298 418 481 282
f 481 399 309 282
f 309 319 286 282
f 324 317 300 285
f 307 301 315 286
f 309 399 414 287
f 414 405 288 287
f 405 412 311 288
f 311 294 304 288
f 413 381 323 295
f 323 312 318 296
f 318 299 321 296
f 404 379 382 297
f 382 418 298 297
f 302 322 321 299
f 321 322 320 303
f 323 381 383 312
f 333 362 327 325
f 327 475 356 325
f 356 332 376 325
f 376 341 333 325
f 361 340 346 326
f 346 367 339 326
f 339 359 342 326
f 342 337 361 326
f 362 368 358 327
f 358 336 475 327
f 354 359 345 328
f 352 334 364 328
f 364 377 354 328
f 351 373 370 329
f 370 369 372 329
f 372 358 368 329
f 368 330 351 329
f 484 426 351 330
f 368 362 363 330
f 363 427 484 330
f 375 338 360 331
f 360 354 377 331
f 377 353 355 331
f 355 366 375 331
f 367 346 376 332
f 349 363 362 333
f 341 348 349 333
f 365 347 350 335
f 350 371 374 335
f 358 372 371 336
f 371 350 343 336
f 483 446 361 337
f 342 360 338 337
f 338 451 483 337
f 375 452 451 338
f 476 345 359 339
f 361 446 425 340
f 425 348 341 340
f 341 376 346 340
f 359 354 360 342
f 425 421 420 348
f 420 460 349 348
f 460 427 363 349
f 426 449 373 351
f 450 452 375 366
f 374 371 372 369
f 417 383 416 378
f 416 395 389 378
f 389 402 385 378
f 385 411 417 378
f 404 410 380 379
f 380 393 386 379
f 386 387 382 379
f 410 391 401 380
f 401 419 393 380
f 413 403 384 381
f 384 416 383 381
f 387 398 418 382
f 403 415 388 384
f 388 395 416 384
f 408 466 411 385
f 402 407 408 385
f 393 394 396 386
f 396 397 387 386
f 397 400 398 387
f 397 396 395 388
f 415 400 397 388
f 395 396 394 389
f 394 390 402 389
f 409 407 402 390
f 394 393 419 390
f 419 406 409 390
f 468 392 401 391
f 406 419 401 392
f 400 414 399 398
f 399 481 418 398
f 415 405 414 400
f 412 405 415 403
f 413 482 412 403
f 421 430 431 420
f 431 429 460 420
f 425 446 441 421
f 441 422 430 421
f 441 451 452 422
f 452 450 442 422
f 442 433 430 422
f 442 450 448 423
f 448 454 443 423
f 443 457 432 423
f 432 433 442 423
f 429 431 434 424
f 434 435 437 424
f 437 439 445 424
f 445 455 429 424
f 455 445 449 426
f 484 427 455 426
f 460 429 455 427
f 444 438 458 428
f 463 459 444 428
f 433 434 431 430
f 457 436 435 432
f 435 434 433 432
f 436 438 437 435
f 457 447 456 436
f 456 458 438 436
f 438 444 439 437
f 444 459 440 439
f 440 449 445 439
f 446 483 451 441
f 454 464 453 443
f 453 447 457 443
