v -0.674548875338300 -2.915041216359591 -0.735684619554231
v 0.243301615859732 -2.952178642921597 -0.966330656422800
v 0.672270120231354 -2.912448671599158 -0.738148710614252
v 0.942641478779862 -2.890416625554001 -0.328042805002972
v 0.674604102732659 -3.461686898603030 -0.733113737560441
v 0.245066360156833 -3.474350023779065 -0.968407797035536
v -0.673981060778651 -3.466051360127707 -0.734889261889270
v -0.241103479299946 -2.954128843508858 -0.968116218625489
v -0.247321715731890 -3.476808616972134 -0.965898608931668
v -0.941976904535269 -2.896881388678968 -0.334321764625032
v 0.932307838943360 -3.452809119235169 -0.355411034257392
v -0.931571639080545 -3.452631991813366 -0.359350285255140
v -0.558463926628007 2.802642199279438 -0.826882497273500
v 0.964963298642963 2.754920588144243 -0.249618207433066
v -0.100587701840015 2.838227896558929 -0.989677088486523
v 0.367157375028417 2.823861604486936 -0.928525292990485
v 0.832030301198968 3.186088198081011 -0.552216411740472
v -0.849690002554226 3.189978912695474 -0.525367634237583
v -0.490698175804178 3.203693481517307 -0.866774225205455
v -0.873387106999950 2.761736003167452 -0.482216279878556
v 0.464299409531721 3.207390717001587 -0.880785488687859
v -0.992470095165958 3.175521091316121 -0.088430076247049
v -0.014555054134185 3.218430835032542 -0.998607345500155
v -0.994680514292912 2.748337047450322 -0.064645057954798
v 0.999117525826806 3.589471846007505 -0.009519352424890
v 0.989179009448901 3.175613240751289 -0.128611838143611
v 0.883777216634712 3.592730629146349 -0.462460679176730
v -0.989306569491068 3.589568330479123 -0.133223870623951
v -0.806479610751243 3.593069243842400 -0.587748752222989
v -0.410500960309920 3.603443387073044 -0.908497172564680
v 0.077216137817424 3.608213779441697 -0.994756882411697
v 0.558045595151889 3.602207058234490 -0.826529742342127
v 0.750058188073228 2.781848881728686 -0.658990335810585
v -1.101343195873402 -2.241412909157861 1.516418776349862
v 2.123339598922577 -1.299968542282601 -2.917594042457819
v -0.074326953643172 -2.495321219705351 2.208847873747843
v -2.391275089974254 -0.696700987067287 -3.608192698949175
v -2.404361817354678 -0.664820988492907 0.366109794585316
v -2.160017277960780 -1.239773227874513 2.959286183827484
v 1.606343054542322 -1.912755622809392 -0.906594453065505
v 2.403910818363888 -0.657980730555987 2.328035687060034
v -2.085324122299011 -1.370652787369430 -2.241704711775094
v 2.465345200840367 -0.337203176622653 0.395721065706643
v -2.412880964543979 -0.619607098635540 1.649375416841628
v 2.255601512217376 -1.065532328378807 3.651575579059200
v -1.617303719190469 -1.899247820771701 -2.922172160598669
v -2.418499817262816 -0.604985982018536 2.303254751114135
v -2.073518786641493 -1.391690508248564 -0.930602999463532
v -1.634321907184975 -1.879936824822675 -4.310810811727342
v 2.398597512951135 -0.668247094949064 -4.288850779722328
v 2.401840733599734 -0.656439218277030 -3.588789562276656
v 2.439701630568853 -0.522332326439673 -0.900873872527896
v -2.392212412240670 -0.699306302076383 -2.235516233913851
v 1.660485887456957 -1.860600408026540 -4.294788357824768
v -2.395910907272359 -0.684208685502627 -0.274273164473370
v 2.426155182848014 -0.575831624611439 -1.559356014497695
v 0.375860888709866 -2.468584919704246 -2.926596168472234
v -2.411161647167911 -0.632058828590811 4.318345667717692
v -1.535108535613294 -1.968806026343492 0.274633190144744
v -2.114040009582165 -1.325459089852945 0.972151784997009
v 1.963929458626131 -1.535040244305461 4.315377336496206
v 2.116244967484170 -1.323087681897813 -4.285018262785551
v -1.525161677489952 -1.977462968305844 -0.901682562927598
v 2.480131386645548 -0.210471101558727 1.043571837611061
v -0.626870607076578 -2.417503420861276 2.214833580922531
v -1.562981539530515 -1.945967332226265 -1.560328567817600
v 1.420523488718192 -2.053454103460943 1.571790270169974
v -0.351537232397382 -2.467576066035377 -4.315783564748182
v 1.624707347804531 -1.899532768502111 -0.301857915651978
v -2.393851873337889 -0.699458994696945 -0.919421895163593
v 2.362249638391046 -0.810036532069456 1.664245285233145
v 2.458488268220953 -0.444124290451494 -0.250733865971685
v -0.587255741217667 -2.422722349890040 3.603891138389504
v 0.300257316020843 -2.479460377128125 1.514575799602259
v 0.473989510612577 -2.453894306018337 2.213895872257912
v 2.408156497566213 -0.639374349117663 -2.905385482805565
v 0.377349099678471 -2.466946118306007 -3.611609267189955
v 1.053351161324189 -2.261624357475291 2.234025385829903
v 1.056645301142251 -2.263190839552971 -2.923921151028487
v -2.392741762200946 -0.700509042175107 -4.301163163070996
v 0.359885732175182 -2.470028158617408 -2.227723957069824
v -0.313553421639886 -2.478194747536303 -2.228724244150301
v 1.348408934046036 -2.101969058588333 3.620444986024268
v 0.856580705786070 -2.345896944016947 4.287910341612382
v -2.138544024824821 -1.283942951037512 1.623092432445810
v -2.408383239698265 -0.640909849616453 1.006529973808937
v -1.039109185131594 -2.265539680965516 -4.315626666416575
v -1.733519491334122 -1.796488526329677 2.258263978135011
v 2.493611244325855 -0.073362228598167 1.693926911832562
v 2.465726681683645 -0.399753851129671 3.658473590115226
v -1.207828312625475 -2.184509974291479 3.623830101397061
v -1.603006112570952 -1.915503732324560 0.907532664939465
v -2.391984399582249 -0.703505093165492 -1.570430141801073
v 0.431163186408101 2.459880400241566 0.893678752630602
v 1.874985482284855 -1.641359438694044 3.642699952083896
v 2.124152620320777 -1.311518230274256 -3.594041684167574
v 2.474208195413575 -0.296699187854637 4.326006240600648
v -1.718724284708294 -1.808248878177255 4.306744370862480
v -2.095686322380448 -1.361153331833234 -2.922727182885158
v -0.337021452767573 -2.474744248168605 -3.621884564652059
v 1.765902924330830 -1.766585346147984 2.952071129277543
v 2.300532865134312 -0.965419844710782 4.321333880231808
v 2.301692623058285 -0.961220432287485 1.004739389525807
v -2.139681383406444 -1.275541156328730 4.308611858165625
v 1.065127292134695 -2.259617578924733 -3.607582936197700
v 2.109953665239661 -1.335604361086809 2.303935395094915
v 1.655097142276078 -1.870402853659024 -2.244777504481952
v 2.191787268731205 -1.187749723020881 2.977876637445283
v 1.030448438580933 -2.276845611937327 -2.232100095278760
v 0.143921618958989 -2.491107413990520 4.291051639307135
v -2.097452241139014 -1.348141453829002 -3.617418500227610
v 0.073637043818819 -2.496145769388623 3.599785564397457
v -2.155895804340157 -1.255557638597391 2.285390770734634
v 0.369105237995696 -2.469064690577965 -4.310461664915015
v -1.516760127624745 -1.982575445824065 -0.299134661139985
v -1.201025641893359 -2.185983680023700 2.232597327838214
v -1.213023305840945 -2.182576774506982 2.931629274158437
v 1.855092612801747 -1.669925459206150 0.938428126697946
v 0.784162065429272 -2.371540506041670 1.515844989824769
v 1.627039460308485 -1.892195956699626 2.272902357483683
v -1.743344789021902 -1.784761970013866 3.631817402576057
v -1.629588139933568 -1.890108440297882 -3.623624116910817
v -0.123385340553876 -2.495272309333159 1.513542389198572
v 1.663464300848281 -1.858143281976831 -2.921398508597829
v 2.414348726034950 -0.612618896999944 -2.228220851235649
v 2.141384913055568 -1.284036892316268 -1.574876368159582
v -1.023197165470846 -2.277220575648744 -3.627435857362952
v -1.751088442872924 -1.778568253354766 2.942774099163949
v -1.003372365364197 -2.283787801986998 -2.922396428963531
v 2.004191034046693 -1.491201566037166 1.623045869522171
v 2.186086051078741 -1.201198577395637 -0.287142453900370
v 0.617855219083035 -2.417801420475722 2.926364689954446
v -2.075976982947301 -1.387640140855325 -0.299683368608159
v -0.277408693106163 -2.481888430134765 -1.512815153388563
v 1.630068518662738 -1.889965018941128 -1.559659936508827
v -2.420006520544860 -0.601605834244578 2.972221330988114
v 0.951654342462320 -2.308803476879838 -1.516880698869086
v 1.667231412485000 -1.862562144558081 -3.603119711111340
v -2.158601584163056 -1.250495693419199 3.636279571371071
v -0.620089660208430 -2.416422324849609 2.924650958434931
v 1.070702736511754 -2.251034106881547 -4.301841498943015
v 2.241206008479968 -1.099139070305935 0.351408238792945
v -0.552679046201788 -2.434221140492694 4.307975229178333
v -1.596711698642161 -1.920768207448172 -2.238317045988156
v -0.010833804145845 -2.496279433470270 2.919779884073006
v -0.323763017159124 -2.474555604024102 -2.924688685447438
v 2.441062276153748 -0.521630377195951 2.994560978643479
v 1.702724040141705 -1.827991477758173 0.288607876070617
v 1.221586152405477 -2.174080809886713 2.939339191494854
v -0.981467083685667 -2.297187962907090 -2.226786844467893
v -2.078778267009821 -1.384171614225444 -1.577102495385225
v 0.305439317124673 -2.478844113120621 -1.511112932277908
v -1.685339653181588 -1.844182318675341 1.579049402012261
v 1.481893341999042 -2.007150812740337 4.304261915236731
v -2.092349927231563 -1.365604151839502 0.336696554821061
v -1.181934154323088 -2.198512021355889 4.310535083457649
v -0.906271479162911 -2.328633476771175 -1.519419277736853
v -0.555814003668223 -2.435700483822522 1.496677249951629
v -2.097949197615339 -1.352911453659091 -4.301529714246037
v 2.154722672073676 -1.260679824062678 -0.922990602666666
v -2.399769784171499 -0.697658446974437 -2.918551687527824
v 0.735496663919562 -2.382951501192682 3.608618354791998
v 2.132599522244046 -1.294183273075323 -2.246351934629468
v -2.418497811868832 -0.611554121104550 3.643526167657038
v 2.305035217383777 0.951229048861458 -0.795392453157907
v 2.375196700624331 0.758275739837994 -3.561529764290523
v 1.373399762883026 2.088193911139630 0.000834597266550
v 0.087904555112758 2.495773121876926 2.256218555835593
v 1.436370882835993 2.043268524340490 2.986301946442389
v 1.444414865643597 2.036092678572863 -1.207831974731197
v 2.016762663417418 1.469266988158249 -2.083889624952730
v -0.711593036231568 2.391253017972471 2.253733941951808
v 1.563313134566219 1.937297366463925 -2.750202918095035
v -0.925095055057120 2.314820256116922 4.305357305941876
v -2.058853302240395 1.402778869602105 4.321365712584235
v 2.436039443185307 0.534399271173723 1.072726872438483
v 0.596532733382024 2.424434329727349 4.306082833145829
v 0.759866311889922 2.378408514389851 2.968938660584874
v 1.169276716833046 2.207967077420381 0.983966108615117
v -2.002995832098775 1.491918827880063 2.312612713153483
v 2.486711386522281 0.166581949028923 -1.521915357981648
v -2.491336840985830 0.095670662184700 1.027321202811576
v -1.484168292134111 2.010260475571298 2.959322694990855
v -1.406419974589758 2.060370479955594 1.611516248337189
v -2.383257631380586 0.711989725151723 -4.284501602895324
v -0.082843495526952 2.495673886667714 3.626233745176917
v -2.366173183655928 0.790156651865574 -0.848357053818849
v -1.406675253097286 2.066122415181241 0.976444887314398
v 2.462448708338486 0.420533937991122 0.434743273603652
v 1.253386711158476 2.152660979435841 4.312203597254205
v 2.483786966447258 0.191713184827620 3.005402194498937
v -1.467617111169111 2.021014335043029 -0.641163532168155
v -0.281973919670161 2.481930212826801 -1.820052138397156
v 1.972294838849985 1.526648614133343 2.999329757167377
v 2.372881960831674 0.778395080551039 2.352895843721873
v -2.358627869831328 0.815707683926404 2.317095785293493
v 1.400883214903324 2.068291457530362 -0.530583361877469
v 1.814037513401963 1.714840035764723 4.309789833686460
v -0.350026388057787 2.470784284233920 -3.461665085675220
v -0.358368099929898 2.469245878632139 -4.234525931197006
v 2.382444808194201 0.738585403483630 -4.275726266003090
v -1.586889377525806 1.926390770900996 -2.777312108648595
v -2.492775325339691 0.079438466014865 0.391778368023957
v -1.437268313323856 2.039228259815815 2.281948775750335
v -2.497006433159831 0.035588366557686 -1.547002689956103
v 2.234493314207568 1.116356457352095 0.471903931631268
v -1.440667957826411 2.041542251483338 0.400914684942015
v 0.346680233787103 2.470514600124254 -4.236681426886018
v -2.496411552475775 0.048608532622657 -0.891598193265554
v 2.479579113364166 0.234914174377373 -0.857282104597152
v -2.497467798543045 0.026912089747388 -2.218011024145865
v 2.494616717023779 0.061927256066472 2.346484181682797
v -2.489934984299902 0.103007490023057 2.315354140583926
v 2.488421283308183 0.115444476957288 -2.196437095823991
v -2.017554507177193 1.467489105489484 2.972652296197309
v -1.519016272281466 1.976760473766292 3.649107782180585
v 1.340603365152366 2.103226620261153 3.645949722796812
v 2.234007151530212 1.107563982978318 4.321644215681218
v -2.087174998871937 1.356437918672777 -4.267248442158221
v -2.495346409490308 0.063384742709103 -0.246664116614826
v -2.491282675119196 0.102348019035707 1.661171403257613
v -2.371981970700620 0.788393470113460 3.652482694727274
v 2.471454877941931 0.317789265749688 -0.206995239841847
v -1.460333725907624 2.028891526121926 -0.107382034035365
v 2.493414752323831 0.078023045837792 -2.882987432953551
v 1.879084148560897 1.643336770662886 -0.085476714442724
v 1.739225654927019 1.793500941272586 1.071279617655392
v 1.895525331426390 1.618649301866800 3.654025114125010
v -2.498473338898641 0.020086196203562 -2.900778502247928
v -2.492673853003152 0.085928558755476 3.649359190552408
v 2.495311668379319 0.053764817057850 -3.580622754869259
v -2.498962257949227 0.013252354910747 -3.595238067639100
v -2.499199296448242 0.008002321705837 -4.295929854433209
v -2.493483642133151 0.067010976112296 4.323053926346206
v 2.496758846393313 0.037285008096027 -4.286653855210408
v -2.371625002728798 0.765094558176630 4.323349052711121
v -1.999297502945953 1.495757368815569 0.410824622631075
v 1.820721841599561 1.710687530415671 0.493209952475627
v -2.379182124176555 0.750691235841364 -2.179949919210878
v 1.518991769727370 1.984446826561186 -1.989746152415912
v 2.180094310067481 1.214137989581546 1.088096289964962
v -0.999501272539037 2.287566152729327 -3.481273345131962
v -1.553610868269605 1.956794623429351 -2.028763973063070
v 1.596824897673936 1.917426478614831 -3.512471964796101
v 2.475921800140187 0.308671198650670 3.662363570389840
v 0.667593184599379 2.404781946692555 3.635601224973393
v 2.331510305320656 0.883671875424768 -1.460195152378548
v -2.387837868130822 0.735654547910361 -2.871877234676130
v 1.641914031206243 1.880804434260316 1.682939378300151
v -2.044393213427613 1.433410398945099 3.655980163331499
v 2.047830592060087 1.431028218176334 -2.803928899645775
v 2.067642565964630 1.394136669022850 -3.538230156968743
v 0.966682893125543 2.300550012332967 -2.698655276604905
v -1.503593532287845 1.996486278443748 -1.284481789417149
v 2.275919211344481 1.025965560268890 -0.156344839891190
v -2.038481474472915 1.440265217512890 -1.424998727636918
v -0.652148071229384 2.409954333745240 1.550386148013205
v 0.318160341135192 2.475659334884920 -2.680410966456554
v 1.537917277371150 1.968780607712471 2.327904596869038
v 1.978907717505748 1.518667953136553 -1.366511567041557
v 2.356231473108803 0.829685089406488 -2.149088266420816
v -2.089028555997203 1.372178210686211 -3.550158581649258
v 0.997400272568360 2.289984472387519 -3.485939498314768
v 1.935732923598593 1.579803714899833 -0.699525944716373
v -1.992653440766337 1.502711538334428 1.656706938008270
v -1.994703580748480 1.499926474338928 1.029559221408106
v -2.011173722914447 1.484179449814527 -0.172132292414298
v 0.321387198065519 2.475585046971791 -3.463955380241926
v -2.059732549630990 1.410838167394516 -2.119727398017830
v -2.377422212445988 0.771323980244512 -1.502978156793790
v 2.049152509165097 1.427022005651363 2.344723377734792
v 2.281909106764032 1.000513660746688 3.660916610637290
v 0.188136852540800 2.490960962293642 1.556665954016510
v 2.329579354420008 0.891920578391514 3.008204359181688
v -1.612860116047008 1.906485254028623 -3.522036184235577
v -1.036782323337900 2.267122474612584 -4.245864307111589
v -0.334603987266191 2.476480443975809 -2.700407390433025
v -0.768625317116213 2.375819897497076 2.953317234750876
v 1.026769730650191 2.271512828648176 -4.246590989999138
v 1.303967757275030 2.131648864271062 0.482278778963013
v -2.073498902477223 1.385932939296276 -2.831558537460760
v -0.924099964923949 2.320717612567937 -1.908768363186735
v -2.492182068411452 0.099166228882784 2.980046512505799
v 2.405304980762167 0.657256233163755 1.709738097351928
v 0.866349667304542 2.339611953298061 2.286160005017301
v -0.161411602460123 2.489240939272749 4.293910533588636
v -2.360309709223945 0.820529682231730 1.664230385562608
v -0.000195405594155 2.496898472346766 2.956791827858239
v 0.312316419410905 2.478832304923093 -1.809597577277108
v 1.001630123885434 2.288863216477586 1.608383457930014
v -2.360580850271211 0.803876725755605 2.983427764734869
v 2.463170008658837 0.411167302318236 4.324271515612850
v -2.360724693604532 0.812215361856587 0.411865528781934
v 1.620520913264876 1.896925237705771 -4.249280593338272
v -1.578958582997076 1.932695668190352 4.317859993580772
v 2.081057313969336 1.374675921903991 -4.255737809937065
v -2.020479790117228 1.466394930872823 -0.777184231535429
v -2.362938069414378 0.805639835340645 -0.214370868876880
v 2.369346188770710 0.787290134470729 -2.851428915762162
v -0.841756559062362 2.349602958217243 3.635748866134977
v -0.977663447660177 2.296335151465769 -2.730322138082208
v 0.917433591846312 2.322295883752723 -1.873322074480409
v -2.392614628766960 0.723738466016153 -3.575718222066803
v -1.631819312673406 1.890731971690490 -4.256913624015181
v -2.361267345738976 0.817627796373411 1.035094167064528
v 2.117875156546288 1.321865717773201 1.712697782687873
v -1.422374930389650 -0.754899682091424 -4.999999999999988
v -0.404053317548011 -1.688386470677529 -5.000000000000008
v 1.420420003767918 0.759656813014527 -5.000000000000085
v -0.403965203428998 1.682722284103718 -4.999999999999871
v 0.404857612858032 -1.683618243002707 -4.999999999999999
v -1.424545985100745 0.751340927419979 -4.999999999999970
v -1.196421750631524 -1.504375132829448 -5.000000000000000
v -0.458662884711739 0.831208041974834 -5.000000000000005
v -0.457103464925540 -0.834601653779262 -4.999999999999962
v 0.462684949633037 -0.825945857154783 -4.999999999999992
v -0.484999834000121 -0.000216999902466 -5.000000000000054
v 0.491040171862789 0.007582010478791 -5.000000000000029
v 0.460304274548014 0.836091590581083 -5.000000000000034
v 1.219808724543174 -1.497806730736933 -5.000000000000020
v 0.414147264847126 1.680960802282429 -5.000000000000068
v 1.531286031982972 0.010992466919594 -5.000000000000001
v 1.198088238226415 1.505567112204771 -4.999999999999894
v 1.441679358473410 -0.741053479757438 -4.999999999999995
v -1.530971841169953 0.001060303718681 -4.999999999999980
v -1.203626394592155 1.498816923504493 -5.000000000000009
v -1.420084147834551 0.752238280582446 5.000000000000083
v -1.451648528581609 -0.730287671699522 5.000000000000054
v -0.502665484341239 -1.669730722517684 4.999999999999995
v 0.496587474353901 1.603253760775530 5.000000000000265
v 0.307211910262156 -1.692049761433427 5.000000000000020
v -1.188790657962725 1.485902688020514 4.999999999999996
v 1.382645202019399 -0.847474517964313 5.000000000000075
v -0.508592759678175 -0.833651968277078 4.999999999999924
v 0.504103769358485 0.738724659980514 4.999999999999723
v -0.433516895341539 0.779212935954080 4.999999999999890
v -0.495791450780066 -0.026062432198041 4.999999999999973
v 0.483281384955838 -0.068926347859848 5.000000000000084
v 0.411353591142698 -0.863560570004683 5.000000000000055
v 1.160177732787078 -1.533863628698830 4.999999999999966
v 1.290456763382583 1.409079111889024 4.999999999999861
v 1.526641205720765 -0.124345017670008 5.000000000000027
v 1.481858235608295 0.620157218391761 4.999999999999904
v -0.336056259278246 1.643186975454972 4.999999999999799
v -1.539708611241069 0.012683543988475 4.999999999999925
v -1.259435402404957 -1.478325324254897 4.999999999999972
v -0.586950250417782 2.801106098640018 0.806904909413540
v 0.132186155066467 2.836612916626831 0.986305718343394
v -0.926514646048071 3.179270406998160 0.371562667806889
v -0.921435730240055 2.762184522562928 0.382365226623500
v 0.614965519417207 3.197671810645109 0.785617186768953
v -0.600751510144370 3.199334624082047 0.795331406567053
v -0.000167364288029 3.217643353697998 0.998834876321999
v 0.873899318904581 3.591851237893441 0.481143418040908
v 0.978632807878951 2.751021354614984 0.195428563470192
v 0.941032617439283 3.182752575955924 0.336686042716083
v 0.458308336978897 3.602419067824267 0.886881979899603
v -0.099865512136666 3.607549923904369 0.992759049788823
v -0.632254309191076 3.600185239764329 0.770980867235851
v 0.778578551931643 2.774376884256098 0.622221931702045
v -0.936878980621907 3.590721483120644 0.346009428129661
v 0.530211811761061 -2.927797076989645 0.845069161231813
v -0.512744410298741 -2.929572842113910 0.857036673558783
v -0.165101357638438 -2.955625346971949 0.983306317361475
v 0.833212140397438 -2.899084143220624 0.550355152066316
v -0.826939873923623 -2.897701453350269 0.559513279421910
v -0.598829569091929 -3.464570338467081 0.799385525689639
v 0.882584970154697 -3.459119190555437 0.464916459855152
v -0.204032216606011 -3.475176274179979 0.977660232481116
v 0.605279062326320 -3.467926184183812 0.792944986703143
v 0.193222673613049 -2.955191152449564 0.977552120921935
v 0.221166961075539 -3.476713658298225 0.973684503030068
v 0.989589584896323 -2.887476038561625 0.125699558628961
v -0.994684878310081 -3.450559153983783 0.064207476536756
v -0.881378512881716 -3.454789717873394 0.466074227663334
v -0.991473967916157 -2.889641040649502 0.124649761392309
v 0.994609473411972 -3.449807811927945 0.065046931843679
v -0.345549465219678 4.000000000000112 -0.295530267562760
v -0.299952050159916 3.999999999999358 0.321636396390568
v 0.285934533018969 4.000000000000014 -0.360821451874205
v 0.348082214016381 4.000000000000162 0.246704432630663
v -0.289037451301661 -3.999999999999971 0.481808149007727
v 0.298353120562507 -3.999999999999985 -0.456285056830718
v 0.295610737208926 -3.999999999999963 0.479326382482485
v -0.343341622878719 -3.999999999999862 0.014628622689346
v 0.346263581776304 -4.000000000000010 0.018322578984169
v -0.300401285086678 -3.999999999999945 -0.460041368900188
v -0.226778296874373 -2.488420507305465 -0.970609048602449
v -0.919172248552741 -4.000000000000000 -0.389419164872097
v 0.921429154352849 -4.000000000000000 -0.382473122792668
v -0.949661443495623 -2.312458051197827 -0.297823333761470
v 0.948240390132983 -2.313042839010868 -0.302670346795183
v -0.253592930221849 -4.000000000000000 -0.962837267895249
v 0.250488752184569 -4.000000000000000 -0.963497081323308
v 0.234465212263760 -2.487549081695219 -0.968334440740743
v 0.279962043912374 2.482391342566415 -0.954871634698472
v 0.919481490496653 4.000000000000000 -0.388467415997582
v 0.930401642782455 2.320383789269852 -0.363515803543176
v -0.340296473840702 4.000000000000000 -0.937129995624890
v 0.156498312807296 4.000000000000000 -0.983475366481405
v -0.163530593716088 2.493630268699146 -0.984091932311500
v -0.993561837542431 2.294099636344431 -0.066966861214296
v -0.981407392132103 4.000000000000000 -0.176896840773631
v -0.880304767780373 2.339334311233811 -0.463643373396480
v -0.520314037220250 -2.431254103587433 5.000000000000000
v 0.370968863563887 -2.462998400740194 -5.000000000000000
v 0.212924048879707 -2.486304740000000 5.000000000000000
v 0.981717328135303 -2.284510651584318 5.000000000000000
v 2.011091131991506 -1.482181151420486 5.000000000000000
v 2.087523912774970 -1.356912001443549 -5.000000000000000
v -2.100835425443253 -1.333855784610671 5.000000000000000
v -2.075062554113327 -1.378495708306534 -5.000000000000000
v -0.975937873990693 -2.301644849718057 0.208198127250983
v -2.401990010332423 -0.653286030307811 5.000000000000000
v -2.387327774911786 -0.698411750186720 -5.000000000000000
v 2.394025091285031 -0.677799530158243 -5.000000000000000
v 2.326332592802620 -0.886135615126655 5.000000000000000
v 0.977852329044815 -2.300857018652948 0.201668190484535
v -0.388816674630259 -2.469183352777938 0.920002575713257
v 0.406588377024804 -2.465807758909273 0.910574589300897
v 0.174974989259195 -2.493184494469053 0.982978634702675
v 1.087578775687058 -2.237378098348034 -5.000000000000000
v -1.067532674042798 -2.246303197851006 -5.000000000000000
v -0.122282645738221 -2.495236930421336 0.988104485152730
v 2.478009227964019 -0.209228213943877 5.000000000000000
v -1.169823320030798 -2.200760467904429 5.000000000000000
v -0.364901948342798 -2.464287963401402 -5.000000000000000
v 0.875137571871927 2.341276704134726 0.473450874001671
v -0.242363590592507 2.486304740000000 5.000000000000000
v -1.018774860781829 2.268011575002035 5.000000000000000
v 1.194247575916893 2.189886088539409 5.000000000000000
v -2.077570554007607 1.374151724957658 -5.000000000000000
v 2.169776875853979 1.214445686821389 5.000000000000000
v -2.061554595529506 1.401892179454416 5.000000000000000
v 2.073508249769691 1.381187842466205 -5.000000000000000
v 0.533760912813441 2.428395881897668 5.000000000000000
v -2.384463267827604 0.707227796346366 -5.000000000000000
v 2.380008007798634 0.720939676580675 -5.000000000000000
v -2.373727928684684 0.740267772384851 5.000000000000000
v -0.375175139341461 2.462104329208314 -5.000000000000000
v -0.927643090322613 2.321518980883735 0.372924837769867
v 0.814040604379766 -2.361699009552705 0.737584216889954
v 1.068021365246917 2.246085618508129 -5.000000000000000
v 0.992823584745467 2.294422058952888 0.074645833734985
v 2.448487383126071 0.490109797258256 5.000000000000000
v -2.499565478631847 0.004134194544435 -5.000000000000000
v 2.497556435835236 0.023248959382337 -5.000000000000000
v -2.495280233361534 0.044905578684658 5.000000000000000
v -1.074201369616801 2.243334103280439 -5.000000000000000
v 0.371725114247142 2.462837654692475 -5.000000000000000
v -0.943648958011859 4.000000000000000 0.314087596376477
v 0.349581890040004 4.000000000000000 0.932995861708513
v -0.170366546265532 4.000000000000000 0.980527582382263
v 0.990469226368921 4.000000000000000 0.090679250455099
v 0.894391316274832 -4.000000000000000 0.439912588114251
v -0.897013531919883 -4.000000000000000 0.435370777661492
v 0.247097016614035 -4.000000000000000 0.964218016993552
v -0.234457333956391 -4.000000000000000 0.966904664551701
v 0.996310407492204 -4.000000000000000 0.035104126489870
v -0.996866104378287 -4.000000000000000 0.029817023987933
v 0.708129160000000 -2.397614030000000 -0.706082840000000
v -0.552800480000000 -2.438035930000000 -0.833008260000000
v -0.669130610000000 -4.000000000000000 -0.743144830000000
v 0.669130610000000 -4.000000000000000 -0.743144830000000
v -0.708129160000000 2.397614030000000 -0.706082840000000
v 0.552800480000000 2.438035930000000 -0.833008260000000
v -0.669130610000000 4.000000000000000 -0.743144830000000
v 0.669130610000000 4.000000000000000 -0.743144830000000
v 1.672826520000000 -1.857862060000000 5.000000000000000
v -1.672826520000000 -1.857862060000000 -5.000000000000000
v -1.672826520000000 -1.857862060000000 5.000000000000000
v -0.552800480000000 -2.438035930000000 0.833008260000000
v 1.672826520000000 -1.857862060000000 -5.000000000000000
v -0.669130610000000 -4.000000000000000 0.743144830000000
v -1.672826520000000 1.857862060000000 5.000000000000000
v 1.672826520000000 1.857862060000000 5.000000000000000
v 1.672826520000000 1.857862060000000 -5.000000000000000
v -1.672826520000000 1.857862060000000 -5.000000000000000
v 0.669130610000000 -4.000000000000000 0.743144830000000
v -0.708129160000000 2.397614030000000 0.706082840000000
v -0.669130610000000 4.000000000000000 0.743144830000000
v 0.669130610000000 4.000000000000000 0.743144830000000
f 462 388 8 1
f 8 9 7 1
f 7 12 10 1
f 10 391 462 1
f 395 461 3 2
f 3 5 6 2
f 6 9 8 2
f 8 388 395 2
f 461 392 4 3
f 4 11 5 3
f 392 418 373 4
f 373 377 11 4
f 11 390 464 5
f 464 394 6 5
f 394 393 9 6
f 9 393 463 7
f 463 389 12 7
f 12 374 376 10
f 376 413 391 10
f 377 459 390 11
f 389 460 374 12
f 19 23 15 13
f 15 401 465 13
f 465 404 20 13
f 20 18 19 13
f 33 17 26 14
f 26 356 355 14
f 355 444 398 14
f 398 466 33 14
f 16 396 401 15
f 23 21 16 15
f 33 466 396 16
f 21 17 33 16
f 21 32 27 17
f 27 25 26 17
f 29 30 19 18
f 20 24 22 18
f 22 28 29 18
f 30 31 23 19
f 404 402 24 20
f 23 31 32 21
f 24 350 349 22
f 349 361 28 22
f 402 441 350 24
f 27 397 454 25
f 454 482 354 25
f 354 356 26 25
f 32 468 397 27
f 403 467 29 28
f 361 451 403 28
f 467 399 30 29
f 399 400 31 30
f 400 468 32 31
f 153 92 472 34
f 472 419 158 34
f 158 65 116 34
f 116 88 153 34
f 96 51 76 35
f 76 125 163 35
f 163 107 124 35
f 124 138 96 35
f 145 140 65 36
f 65 158 123 36
f 123 74 75 36
f 75 132 145 36
f 232 233 80 37
f 80 159 111 37
f 111 99 161 37
f 161 229 232 37
f 203 220 55 38
f 55 133 155 38
f 155 60 86 38
f 86 182 203 38
f 136 47 113 39
f 113 88 128 39
f 128 121 139 39
f 139 164 136 39
f 160 131 69 40
f 69 392 461 40
f 461 137 135 40
f 135 126 160 40
f 212 191 147 41
f 147 108 106 41
f 106 130 71 41
f 71 89 212 41
f 53 161 99 42
f 99 46 144 42
f 144 66 151 42
f 151 93 53 42
f 72 223 189 43
f 189 176 64 43
f 64 103 142 43
f 142 131 72 43
f 221 182 86 44
f 86 60 85 44
f 85 113 47 44
f 47 213 221 44
f 90 97 102 45
f 102 61 95 45
f 95 101 108 45
f 108 147 90 45
f 99 111 122 46
f 122 127 129 46
f 129 150 144 46
f 136 283 213 47
f 70 93 151 48
f 151 66 63 48
f 63 115 133 48
f 133 55 70 48
f 159 412 470 49
f 470 423 87 49
f 87 127 122 49
f 122 111 159 49
f 416 447 235 50
f 235 231 51 50
f 51 96 62 50
f 62 410 416 50
f 231 225 76 51
f 56 181 210 52
f 210 223 72 52
f 72 131 160 52
f 160 126 56 52
f 211 229 161 53
f 93 205 211 53
f 473 410 62 54
f 62 96 138 54
f 138 105 141 54
f 141 422 473 54
f 220 209 70 55
f 125 214 181 56
f 126 163 125 56
f 77 105 79 57
f 79 109 81 57
f 81 82 146 57
f 146 100 77 57
f 234 230 164 58
f 164 139 104 58
f 104 411 414 58
f 414 448 234 58
f 155 133 115 59
f 115 391 413 59
f 413 472 92 59
f 92 60 155 59
f 92 153 85 60
f 409 469 154 61
f 154 83 95 61
f 102 417 409 61
f 66 157 462 63
f 462 391 115 63
f 176 284 89 64
f 89 71 103 64
f 140 117 116 65
f 144 150 157 66
f 130 106 120 67
f 120 78 119 67
f 373 418 442 365
f 365 442 420 362
f 427 406 114 68
f 114 77 100 68
f 100 127 87 68
f 87 423 427 68
f 131 142 148 69
f 148 418 392 69
f 209 205 93 70
f 130 118 103 71
f 91 117 140 73
f 140 145 112 73
f 112 110 143 73
f 143 156 91 73
f 123 424 421 74
f 421 420 119 74
f 119 78 75 74
f 78 149 132 75
f 225 214 125 76
f 114 141 105 77
f 120 101 149 78
f 105 138 124 79
f 124 107 109 79
f 233 446 415 80
f 415 412 159 80
f 109 137 152 81
f 152 134 82 81
f 134 157 150 82
f 150 129 146 82
f 154 84 162 83
f 162 132 149 83
f 149 101 95 83
f 110 112 162 84
f 154 469 408 84
f 408 407 110 84
f 153 88 113 85
f 116 117 128 88
f 284 195 212 89
f 245 292 97 90
f 147 191 245 90
f 121 128 117 91
f 156 98 121 91
f 94 428 360 348
f 292 445 425 97
f 425 417 102 97
f 104 139 121 98
f 156 426 471 98
f 471 411 104 98
f 146 129 127 100
f 120 106 108 101
f 118 148 142 103
f 163 126 135 107
f 135 137 109 107
f 407 405 143 110
f 145 132 162 112
f 406 422 141 114
f 158 419 424 123
f 152 395 388 134
f 388 462 157 134
f 164 230 283 136
f 461 395 152 137
f 405 426 156 143
f 247 260 264 165
f 264 226 255 165
f 255 223 210 165
f 210 181 247 165
f 201 296 252 166
f 252 251 299 166
f 299 225 231 166
f 231 235 201 166
f 197 398 444 167
f 444 428 280 167
f 280 238 226 167
f 226 264 197 167
f 285 290 273 168
f 273 257 172 168
f 172 278 288 168
f 288 178 285 168
f 178 246 217 169
f 217 228 194 169
f 194 271 259 169
f 259 285 178 169
f 240 302 466 170
f 466 398 197 170
f 197 264 260 170
f 260 171 240 170
f 251 173 240 171
f 260 247 261 171
f 261 299 251 171
f 257 184 204 172
f 204 183 278 172
f 244 263 253 173
f 253 302 240 173
f 251 252 244 173
f 286 186 300 174
f 300 216 295 174
f 295 475 430 174
f 430 429 286 174
f 295 216 250 175
f 250 222 236 175
f 236 439 434 175
f 434 475 295 175
f 189 206 241 176
f 241 306 284 176
f 190 217 246 177
f 246 186 286 177
f 286 429 436 177
f 436 431 190 177
f 288 186 246 178
f 480 94 348 347
f 273 94 480 257
f 290 249 227 179
f 227 238 280 179
f 204 184 265 180
f 265 287 196 180
f 196 291 215 180
f 215 183 204 180
f 214 261 247 181
f 305 293 203 182
f 221 287 305 182
f 215 250 216 183
f 216 300 278 183
f 257 480 188 184
f 188 266 265 184
f 219 432 437 185
f 437 446 233 185
f 233 232 303 185
f 303 262 219 185
f 288 278 300 186
f 297 256 270 187
f 270 205 209 187
f 209 220 298 187
f 298 267 297 187
f 480 441 207 188
f 207 237 266 188
f 223 255 206 189
f 198 228 217 190
f 431 476 198 190
f 274 272 245 191
f 212 195 274 191
f 404 465 254 192
f 254 256 297 192
f 297 267 224 192
f 224 402 404 192
f 289 258 277 193
f 277 301 282 193
f 282 465 401 193
f 401 396 289 193
f 228 272 274 194
f 274 195 271 194
f 284 306 271 195
f 287 221 213 196
f 213 283 291 196
f 476 433 218 198
f 218 272 228 198
f 268 208 200 199
f 200 276 242 199
f 242 301 277 199
f 277 258 268 199
f 208 450 440 200
f 440 449 276 200
f 438 435 296 201
f 235 447 438 201
f 301 242 275 202
f 275 262 281 202
f 281 269 243 202
f 243 282 301 202
f 293 298 220 203
f 270 239 211 205
f 255 226 238 206
f 238 227 241 206
f 441 402 224 207
f 224 267 237 207
f 279 443 450 208
f 268 263 279 208
f 239 248 229 211
f 225 299 261 214
f 291 222 250 215
f 433 445 292 218
f 292 245 272 218
f 304 478 432 219
f 262 275 304 219
f 291 283 230 222
f 230 234 236 222
f 249 306 241 227
f 248 303 232 229
f 448 439 236 234
f 267 298 293 237
f 293 305 266 237
f 269 281 248 239
f 270 256 269 239
f 276 304 275 242
f 269 256 254 243
f 254 465 282 243
f 294 279 263 244
f 252 296 294 244
f 281 262 303 248
f 290 285 259 249
f 259 271 306 249
f 263 268 258 253
f 258 289 302 253
f 94 273 290 179
f 266 305 287 265
f 449 478 304 276
f 294 477 443 279
f 396 466 302 289
f 296 435 477 294
f 325 317 315 307
f 315 308 313 307
f 313 412 415 307
f 415 446 325 307
f 315 316 311 308
f 311 406 427 308
f 427 423 313 308
f 319 321 323 309
f 323 435 438 309
f 438 447 322 309
f 322 318 319 309
f 440 450 321 310
f 321 319 314 310
f 314 312 326 310
f 326 449 440 310
f 316 324 320 311
f 320 422 406 311
f 314 317 325 312
f 325 446 437 312
f 437 432 326 312
f 423 470 412 313
f 319 318 317 314
f 317 318 316 315
f 318 322 324 316
f 324 416 410 320
f 410 473 422 320
f 450 443 323 321
f 447 416 324 322
f 443 477 435 323
f 432 478 449 326
f 332 434 439 327
f 439 448 345 327
f 345 337 336 327
f 336 344 332 327
f 345 448 414 328
f 414 411 346 328
f 346 329 334 328
f 334 337 345 328
f 346 426 405 329
f 405 407 331 329
f 331 339 334 329
f 341 431 436 330
f 436 429 344 330
f 344 336 335 330
f 335 343 341 330
f 407 408 340 331
f 340 333 339 331
f 430 475 434 332
f 344 429 430 332
f 340 409 417 333
f 417 425 342 333
f 342 338 339 333
f 339 338 337 334
f 336 337 338 335
f 338 342 343 335
f 408 469 409 340
f 343 445 433 341
f 433 476 431 341
f 425 445 343 342
f 411 471 426 346
f 352 349 350 347
f 350 441 480 347
f 280 428 94 179
f 348 353 352 347
f 360 351 353 348
f 442 418 148 118
f 352 359 361 349
f 356 354 357 351
f 357 358 353 351
f 360 355 356 351
f 353 358 359 352
f 482 452 357 354
f 360 428 444 355
f 452 453 358 357
f 453 481 359 358
f 481 451 361 359
f 420 421 371 362
f 371 372 370 362
f 370 368 365 362
f 442 118 130 67
f 419 472 366 363
f 366 375 367 363
f 367 369 364 363
f 364 424 419 363
f 369 372 371 364
f 371 421 424 364
f 368 377 373 365
f 442 67 119 420
f 472 413 376 366
f 376 374 375 366
f 375 456 474 367
f 474 458 369 367
f 370 479 455 368
f 455 459 377 368
f 458 457 372 369
f 372 457 479 370
f 460 456 375 374
f 380 400 399 378
f 399 467 403 378
f 403 451 379 378
f 379 381 380 378
f 451 481 453 379
f 453 452 381 379
f 381 454 397 380
f 397 468 400 380
f 452 482 454 381
f 456 460 385 382
f 385 386 384 382
f 384 457 458 382
f 458 474 456 382
f 394 464 390 383
f 390 459 386 383
f 386 385 387 383
f 387 393 394 383
f 386 459 455 384
f 455 479 457 384
f 460 389 387 385
f 389 463 393 387
