v -2.391621921394975 -0.703877978212495 -2.958565644550772
v -2.395373018796871 -0.705881799103513 2.938518604206111
v 0.338877345662143 -2.476192515522672 2.196410235518842
v -1.522015490574272 -1.982167616118867 -0.879305880543772
v 2.097702019408987 -1.346172933955967 3.596773257745779
v 0.350930734599351 -2.469975472550516 -4.299864407729234
v 1.030936502261255 -2.269228207317179 -3.615870267146239
v 2.383634331655530 -0.737309556873423 0.958244127687018
v 1.502287423910372 -1.995679798030209 0.264834947120266
v 0.306888165466492 -2.477084916155882 -1.516423938318814
v 2.386690174840253 -0.738333732187768 -0.964545975908073
v -0.298009523143294 -2.477971668428996 1.504407859825804
v 2.050373342770487 -1.429002310895147 0.304237645872284
v 1.058836793265232 -2.258067251132331 4.251795513688332
v -1.637548355856737 -1.877202638345178 -4.311731911763598
v -1.562838500816212 -1.945220817758810 1.542432305299865
v -2.083070160681106 -1.373996986097854 2.251491323170972
v -2.390825135240860 -0.696337272183359 3.607755665964249
v -1.617201462447109 -1.902092940999643 -2.940244242374290
v -1.059007884237437 -2.254803803583086 4.242588724265596
v -1.500968118876292 -1.995000464698040 0.266682050715517
v -1.519663853814712 -1.979011717151227 0.866417058612305
v 1.521847413001860 -1.978633983935867 0.867582632767858
v 0.377632665054170 -2.462102845965479 4.243727974597840
v -0.306005737564081 -2.478595722990273 -1.512569619258843
v -2.382006283329981 -0.730251039861251 0.950808388435294
v 0.335860560777205 -2.475360707493308 -2.222413125428297
v 1.649591504551033 -1.872599155599654 4.256580961762003
v 2.398064682576862 -0.703430346137311 -3.634688655863522
v 2.097608877984721 -1.348824741340404 -4.310402852578549
v -0.347540432992173 -2.471099723750352 3.562984288382808
v 0.991192449917964 -2.291189649382146 -2.230601228314618
v 2.382897591191119 -0.743535545696589 -0.322861202121311
v -2.387570057323532 -0.732996245013767 -0.320033584045497
v -2.391188203692507 -0.714658594168252 2.268180751974554
v 0.352139010528059 -2.471955797791213 2.885504959839321
v 2.499925021489438 -0.000893333081180 0.318472574472766
v 2.382943961868713 -0.743685925657904 0.315003872103068
v -0.352089426908370 -2.471215820291230 4.236639092503658
v 2.499951163981210 -0.000522408686761 2.274017899414434
v 1.564681859166706 -1.943751833458920 1.542959356718836
v -0.372280515086874 -2.471982905398208 -4.307590868515875
v -1.053441830008038 -2.259664309707254 -4.309846104650711
v 2.394768366075899 -0.695834165452851 4.297375933309611
v 2.499850584812666 -0.001730586058018 0.965852331408893
v -1.652281238866758 -1.869575072584343 4.259575726880261
v 2.499980177542412 -0.000241967132432 -0.325278115918541
v 1.052954309693372 -2.261715146331740 -4.295449214830754
v -1.562390247926528 -1.947945106985205 -1.557273586524609
v -2.109546553815443 -1.331251575431390 4.270291215459485
v 1.565481487604441 -1.946313878611681 -1.558512681980782
v -2.398122929964898 -0.690488707013658 4.294069070347444
v 1.629686992675398 -1.890953504757322 -3.622534444781637
v -0.358436886234853 -2.473653457207696 -3.618406538452149
v -0.989786000615893 -2.293542158308402 2.204163892811374
v -0.342182165324250 -2.475732146157387 2.884412625978854
v -2.385013222065177 -0.733326792458109 0.311405483618985
v -1.628771438732335 -1.888838699750759 -3.629095081485556
v -1.621117373930598 -1.898488185182671 2.904668203486089
v 0.351056653262976 -2.469422337896830 -3.614752391969462
v -0.990740076680886 -2.292142420200708 -2.227219231036552
v 2.499916357993877 -0.001040597025733 1.614205362885484
v -2.394100159622309 -0.703067539532698 -4.316106920757348
v 1.643550244859252 -1.876355651191736 -4.304178978147919
v 0.934740241931338 -2.316434278133952 1.492364686097961
v 1.619490350237983 -1.896503023928318 2.904708114334546
v -2.083395034104577 -1.377394160551002 -2.272883602191493
v -2.088808442534094 -1.361609860082773 -2.950321614311711
v 2.085049765023398 -1.377688471254619 2.251556694137142
v 1.618096693192869 -1.902761799717589 -2.936214152008250
v -2.096867678246500 -1.356802939424564 2.923253521311151
v -0.932741185992583 -2.318021158336284 -1.507712115896117
v 2.388895702666695 -0.717646587640010 2.267227148346322
v -1.639336168062705 -1.885183647290644 3.579470024490035
v -2.051757420794056 -1.424040219293155 -0.309987481705167
v -2.093473406909099 -1.352737106687169 -3.634219487481266
v -2.106497174568435 -1.341419794201619 3.592954460559719
v 2.097991806197584 -1.354349439502260 -3.628220676556476
v 2.393690266434140 -0.700797289777110 3.609014055385756
v -2.072051969833656 -1.395999507124596 1.584289151430075
v -0.346934349948977 -2.471198686700283 -2.924361806651445
v 2.072213766253610 -1.396785514812807 1.584883252074190
v 0.347500824396460 -2.470679302475659 -2.921160746948316
v 0.995407513645572 -2.291727683343254 2.204576741875925
v 1.597198122519350 -1.916711538585197 -2.248720524394558
v -1.035505452395273 -2.272729847847629 3.566321810154916
v 1.015907625509402 -2.280056184467834 -2.926300166501463
v 2.092429987697067 -1.363925594602264 -2.946446275919764
v 1.634782141563553 -1.883982367532292 3.582571246816379
v 1.022078808337067 -2.276202499520716 2.892112990656206
v -2.388316044371035 -0.720421024897663 -1.620694685884680
v 2.091044516923134 -1.358376968947443 2.920785350953442
v -1.017779616697600 -2.281925659379463 2.890578606200697
v -2.071000997097296 -1.396529463402921 -1.601499443371150
v 1.499841760330667 -1.999361767921034 -0.272040816908717
v 0.938372722148429 -2.313580312732530 -1.512263396372177
v -1.500774140004280 -1.996979813764991 -0.272437791005257
v 2.046996412761727 -1.427375266892644 -0.312721949154309
v 2.068092744127523 -1.396782900552144 -1.599998294589406
v -1.596836950523040 -1.916156372542790 2.225399098791990
v -2.057092406843166 -1.413551921931972 -0.940646991203943
v 1.599178218385062 -1.916133537633485 2.227335739622681
v 1.522475108197616 -1.979894937942956 -0.878424333867765
v 2.388974547629996 -0.727767745639289 1.606603490189109
v -1.035388123290472 -2.270754803958243 -3.622839170474152
v -2.392568825498732 -0.701480219483453 -3.636591662093670
v -1.596859300521740 -1.917598239507549 -2.250998262748239
v 2.390101059739589 -0.729910637362985 -1.620314047883578
v -2.389815716508950 -0.724442144298736 1.604425993153997
v 2.059485455692674 -1.417048692415566 0.934322084392840
v 0.310935242273076 -2.479676573897239 1.499929446181836
v 2.055144411981809 -1.416364677177572 -0.943263222742914
v 2.105170077759937 -1.336639366968003 4.276257404126708
v 0.362280302958142 -2.469035861346613 3.567787486350139
v 2.390689221975314 -0.707808057716727 2.934130082066854
v -2.096890993953090 -1.355990649526157 -4.311375827486231
v 2.395317966374052 -0.710997129579873 -2.955629597439429
v -2.059833203675247 -1.414746490675380 0.932466943073773
v -2.050043179330987 -1.424254793708860 0.304811783293806
v -2.394033514683710 -0.713101185313339 -2.286378758615704
v -1.018950914846117 -2.280433261129599 -2.931290721973688
v -2.382426340694330 -0.726982931836623 -0.961654717289491
v 2.081138500495789 -1.377968454968857 -2.270282440149217
v 1.038506286589856 -2.268575755711140 3.574943851221750
v 2.395559728296509 -0.698571952809953 -4.315901293819607
v -0.329450709549189 -2.474924970737275 2.196629518287629
v -0.332330355419788 -2.476795107073762 -2.219031097432897
v -0.931392521723719 -2.318286813017812 1.496668486023207
v 2.393329702635986 -0.720431676256737 -2.284743603330234
v -0.969502558058217 -1.917409628275047 -0.233001497182836
v 0.967903505397587 0.647388574773346 -0.245364393275826
v -0.965111939560919 -0.219725861604596 -0.243968066482042
v 0.967085222946607 1.512587762226647 -0.238760572528370
v 0.967001048547342 1.083489861147798 -0.240027834237206
v -0.966174574387357 0.653432387165029 -0.243597885087352
v 0.965071184233520 -1.085816192013066 -0.244169351987838
v -0.266748613028875 1.546533505968463 -0.960991348653859
v 0.738521766159754 1.954553499677161 -0.669731718958576
v -0.268834888515026 -1.551359737573589 -0.960849441296937
v -0.740746019888676 1.952655083635297 -0.667289676219651
v 0.283838349187068 2.006470433098704 -0.955703833735120
v 0.276521881030505 1.097808330061615 -0.959345699678093
v -0.728582401518411 1.089585931942926 -0.680803350427170
v 0.281892383208906 -2.012286636130279 -0.957050245182643
v 0.732775299738029 -1.539734919249319 -0.678653413024287
v -0.967200868747354 1.506645971608404 -0.241037981005885
v -0.965669848269039 -0.654766622007917 -0.245704322873272
v -0.268050276404985 -0.659797624158793 -0.960293256073284
v -0.727551070564085 0.656668875747707 -0.681540265383104
v 0.964589424816041 0.216326063099054 -0.248405944925279
v 0.727023905983270 1.089383695498371 -0.685750629000688
v -0.264280133464308 0.657946674061778 -0.963364148782976
v -0.267760520475336 -2.008232246724776 -0.961155030853519
v -0.263145921323699 0.219218917666283 -0.963367381488208
v 0.283563237428297 0.220734474209737 -0.956010140279369
v -0.729496865929894 -1.089537495461909 -0.678853754035585
v 0.282423231662664 0.654292081634008 -0.958723454028258
v 0.272703454282395 -0.657777459375727 -0.956920092951860
v 0.277832447162366 -0.216133599188130 -0.957888066298094
v 0.278547250130913 -1.556724035543329 -0.956676612069718
v -0.727447903429453 -0.223113902747277 -0.683255230893105
v -0.265736154858570 1.099580446979631 -0.960594864545147
v 0.728590951941309 -1.095010867223129 -0.680173620166790
v -0.967087549752359 0.218615616278218 -0.242604518130493
v 0.730152482531194 1.533791116521320 -0.680008304025354
v -0.731734340495270 -1.525912167900523 -0.676749401723023
v -0.726082854905421 0.219515723247256 -0.686651975377772
v 0.965284550746332 -1.514370671974853 -0.244903149606129
v 0.281363397743493 1.550839597724551 -0.955817406465139
v -0.269052349510595 -1.101759155691659 -0.958551004160005
v 0.273536740682891 -1.103931870168899 -0.959282291927501
v -0.264556139097983 -0.219948659029797 -0.960328677760137
v -0.730276433526508 1.523790561674214 -0.677467929444238
v -0.728462679674540 -0.657703592292911 -0.680266229824182
v 0.728973052327686 -0.651728693022336 -0.680758545129327
v -0.263485253905741 2.009103856172680 -0.960880190737354
v -0.966845853105066 -1.506577162476531 -0.241016480048779
v 0.726652115189526 -0.211892980589638 -0.682141227388590
v 0.738506381311211 -1.959157420814057 -0.670817873611298
v 0.965305341903790 -0.215688857581055 -0.246931605464922
v -0.742447047484596 -1.958544154957590 -0.668556966982838
v -0.970354082615156 1.916782657755814 -0.232122385827941
v 0.968771720515127 -1.918810074623081 -0.237907197662938
v 0.724657014662373 0.218067887583897 -0.686049219271575
v 0.970596879116262 1.918194078095130 -0.232214251679652
v -0.967274870154760 1.082566942815220 -0.242993889272743
v -0.966415630519349 -1.081878369481219 -0.245301093736779
v 0.723956511055562 0.644658177637361 -0.686482422043504
v 0.967231163950452 -0.650208178217167 -0.245157576164750
v -0.969543498422946 1.917516414527260 0.232864598571703
v 0.968394203627022 -0.647605814089125 0.243761681799912
v -0.964894241727062 0.220072717672561 0.244738187157525
v 0.967801844318607 -1.512530616181565 0.236501361692138
v 0.967463985224485 -1.083624256765265 0.238229334785676
v -0.965987367497771 -0.653124715465419 0.244275538440749
v 0.965556332487687 1.085594063354083 0.242395898973251
v -0.266012441992582 -1.546468595392854 0.961159847275159
v 0.739795929594162 -1.953876275074675 0.668348423478639
v -0.267893527324566 1.551464955606557 0.961095375674423
v -0.740693610424647 -1.952680851076853 0.667345614454923
v 0.284738977500236 -2.006260819495772 0.955414574139733
v 0.277746241247059 -1.097771594402859 0.958949350797592
v -0.728106040304103 -1.089382762078364 0.681280332783447
v 0.283070407984487 2.012128668779137 0.956651879442445
v 0.733879952613825 1.539405492412299 0.677330847819586
v -0.967147693611533 -1.506461457760607 0.241236914716572
v -0.965484058958388 0.655084396463270 0.246392564747652
v 0.965015033629931 -0.216555798370750 0.246886692335613
v -0.266955407438367 0.659921378686774 0.960586698533160
v -0.726938245558696 -0.656414353473601 0.682136654100647
v 0.728227068498120 -1.089432691440145 0.684557735042418
v -0.263220678734693 -0.657809999618222 0.963616453767311
v -0.266866675720705 2.008326553213479 0.961327948981751
v -0.262049453744831 -0.219081171231664 0.963730620528739
v 0.284934821373882 -0.220766586005436 0.955695311102427
v -0.728993849523327 1.089767320741242 0.679379039182812
v 0.283651367907567 -0.654287897674558 0.958239986726904
v 0.274034924765990 0.657721496942729 0.956526023504902
v 0.279169784143475 0.216086091750302 0.957490471127571
v 0.279823572569405 1.556624331695044 0.956228882150995
v -0.966876352148207 -0.218270941882389 0.243357276750991
v -0.726840012114002 0.223375466908238 0.683978099007394
v -0.264812112953418 -1.099469390787923 0.960804818415146
v 0.729677441930415 1.094755944783020 0.678867803650566
v 0.731340620618321 -1.533648954511819 0.678626070332364
v -0.731335823183246 1.526109418692789 0.677147634323942
v -0.725377634305652 -0.219235041983680 0.687287157197218
v 0.965905805295490 1.514135395914298 0.242750980744560
v 0.282511975380333 -1.550741131978804 0.955430572736991
v -0.268017816563137 1.101874422777547 0.958817238402974
v 0.274870709788155 1.103865456024441 0.958903211988883
v -0.263452782956527 0.220077859187165 0.960701341562007
v -0.730007259184706 -1.523661848084326 0.677752836050681
v -0.727889536340075 0.657954180769751 0.680912827289801
v 0.730067979222576 0.651522877114224 0.679589408596441
v -0.263021119081734 -2.009097186523224 0.961008368443643
v -0.966777993319045 1.506787548954761 0.241270579837751
v 0.727672213572046 0.211721716316255 0.681076076711578
v 0.739576439080641 1.958601186410094 0.669591949984397
v 0.965713173464764 0.215452968516164 0.245415120436344
v -0.742232757254279 1.958676643539446 0.668784240075463
v -0.970427357114229 -1.916684645579579 0.231825755718039
v 0.969485587926402 1.918540979722917 0.234938241762637
v 0.725728648834021 -0.218234016356005 0.685030866187679
v 0.971429026994799 -1.917935573125624 0.228841561086694
v -0.967149620500880 -1.082299128705879 0.243488677306602
v -0.966283266942525 1.082152373396713 0.245820996711981
v 0.725063089541656 -0.644785392047251 0.685399214530447
v 0.967627524162804 0.649973384062661 0.243561267718130
v 1.635055593485991 1.874635855464518 -4.314202254415089
v 0.361652147912443 2.470579126096274 -4.313258615607140
v -2.089327266862341 1.357508918813101 -4.314047575285780
v 1.629120409789139 1.896032890701270 -3.629517986530074
v 2.393673746526378 0.712002222030848 2.940895604215741
v 1.046442764539984 2.261019921803498 4.251163182363763
v -1.499709122845540 1.997725295817170 0.269379160413827
v 1.050926652354278 2.261063330304406 -4.312380212871796
v -1.052392611784882 2.259404105938925 4.255026185322500
v 0.309332892252474 2.477059287433738 1.514700957158172
v 0.936483402967932 2.315357661043068 1.506164165538279
v 1.614664976840602 1.905739340808466 -2.941280765848968
v 2.080766676106593 1.377787273584648 2.257589261646267
v 2.386398970445891 0.718424596285207 -2.958836716715416
v 1.557823671173855 1.950586919586155 -1.555597494635575
v 2.388805975408123 0.703688188628108 3.609530038704382
v 2.386450001977682 0.715117338610268 -3.638625434276094
v -1.559460620813025 1.949255389536497 1.547980539998506
v 2.382903813806895 0.735342918626571 0.959929683866280
v -1.592873652905829 1.922561564741866 2.233576681054199
v -2.380204515981930 0.742926142160712 0.952035141044485
v -2.385216824116130 0.743066671236233 -0.962518788616746
v 1.522181412181421 1.978280853943535 0.871943703376075
v 0.337616638366338 2.474998925129965 -2.217110773080869
v 2.042847713722474 1.436439031818478 -0.309004635397347
v -2.384074229633639 0.728775765366927 2.266374936879750
v 0.309715263978187 2.478372735771723 -1.509042400374328
v -0.331319022229884 2.476209789903585 -2.220426163745611
v 2.076111776385845 1.380942801308340 -2.271582446712385
v 2.499572966952518 0.005003697048151 -2.960991634597359
v -1.634402173666579 1.875503713173985 -4.312561192473706
v 0.351183795930174 2.464124396069601 3.579427569592866
v -1.645019622241788 1.876146775837836 4.264715252308271
v -2.383070430415197 0.718084140463947 -2.958582946133422
v -2.388450280931986 0.715780067502957 -3.635032145952787
v -1.519472489655666 1.982260071228570 0.871481702021146
v 2.386152322582186 0.716242384386911 -4.319154445514347
v 2.383189883125036 0.742366780838757 0.316381873871551
v 0.988869304447878 2.292688771065748 -2.225361229199503
v -0.990671146631853 2.292735856429884 -2.230199507565867
v -1.560799980134410 1.946441342930242 -1.560376331894196
v 2.090486010164690 1.359854278170441 -4.317086795599622
v -1.054326234755231 2.266092076654322 -4.311825952518646
v -2.499270141796107 0.008961909715307 -3.636889025271675
v -0.339520406873998 2.474323801245493 2.902955116509792
v -2.389566835893528 0.727035579359161 -2.287530963374616
v -2.499153994933555 0.011033983364977 -0.321586551142336
v -2.389026453017228 0.716204700797284 -4.315616490828431
v -2.391551671357366 0.705250426359420 4.299697733945543
v -0.355991077296681 2.471984335244091 4.236379136700705
v -2.389167341811129 0.710364697261973 3.613244251617086
v -2.499082140557110 0.008615660783936 0.955642546468668
v 0.932105146884000 2.318627808177817 -1.505078842016092
v -2.499390258713522 0.006361562432486 2.272682005747451
v 2.499713226878832 0.003370891569336 -2.289840871510183
v -2.499314379967478 0.009071864441246 -2.291218769412653
v 2.386119847876392 0.725146214597943 -2.285265358789616
v 1.643856918442973 1.876812431552279 4.264535212665676
v 2.499952345059923 0.000636198350811 -0.970352765697598
v -2.499219065501988 0.009420416171192 -0.967419843872146
v 1.562232350724429 1.944378512009690 1.549336992926340
v 2.499835844653127 0.001926775391245 -1.626108498997358
v 2.082471060275187 1.367733012688451 -2.951582279058993
v -1.519906601573608 1.981371990341516 -0.877086285950563
v -2.499292639659858 0.008304947968257 1.609359621727996
v 2.105011285664484 1.338834398198668 4.272845977038237
v -0.365817629612131 2.472065225238270 -4.312943572629761
v -2.499800604379443 0.002202036587470 2.942497791608682
v -2.499180727972738 0.009708418003719 -2.960653049344124
v 0.362832843703305 2.463697426436758 4.238801530012079
v 2.396415164673091 0.697964315771987 4.294993509063488
v 2.385500396887915 0.744010677271416 -0.322313996898060
v -2.499775832351093 0.002614873798565 3.615890015345393
v 2.499285642230994 0.007710618722347 -3.638958271700315
v -2.385801705980551 0.737945907050465 1.604097940650371
v 1.615806585348462 1.903499110842306 2.914790430379521
v 2.088881197127022 1.360156215277760 -3.634800663207551
v -0.931608194398359 2.317742146261339 1.501851348177722
v 2.389722990948460 0.719297132093322 2.271174937008822
v -2.499417252182840 0.006703710998035 4.302929168858938
v 2.498888827463982 0.010577568836788 -4.319011100134212
v -2.499274783141373 0.008342621093308 -4.316978475877310
v 2.499872457434141 0.001769163844200 4.302436768863532
v 1.593032159537587 1.922010369566212 -2.250041968925102
v 2.385935657754837 0.739732813464415 -0.965377954685227
v -1.611187134185521 1.903621977167820 2.909948096461470
v 2.499563727387149 0.005200772785694 3.614905127651677
v 2.383583293349417 0.733224956156849 -1.620771380697713
v 2.093335220367961 1.362645014792364 2.928857871699453
v 1.032643536471820 2.266747740854760 -3.624888023880958
v -0.330439886220411 2.477661315353499 2.209069348582201
v -1.593900897650109 1.920358103664734 -2.251078916239073
v -1.500237425699567 1.998003740690362 -0.275545110732807
v 2.043860014675730 1.432519420887538 0.306405398790702
v -0.931235741455679 2.317547474071344 -1.510503420624691
v -2.499442395855649 0.008800496268432 0.310119804088989
v -1.626695735785179 1.892287931694290 -3.627947609183683
v 1.631237378029970 1.893024483396843 3.587811069617670
v -2.499346485504870 0.009100582275113 -1.626846288977607
v 2.101144627998918 1.348480214184800 3.597494673534793
v -2.093175796300796 1.358060288533526 3.602005142222513
v 0.347995935441304 2.472215062919926 -2.921884411160630
v -2.076206070950219 1.385846934456040 2.253089277146274
v 2.070421399057459 1.398500195568023 1.590615292993918
v -0.347184618374106 2.470761301998456 -2.923680120729796
v 0.990582823407744 2.293459917691233 2.217159049161808
v 1.021887213867577 2.279103893144765 3.578971990432231
v -0.988114574697766 2.295018610512546 2.213107342909633
v 0.354866486238569 2.467795426363037 -3.622100697327871
v -2.083664058722935 1.369410664193325 2.923060150359621
v -1.011526925689177 2.281160573232787 2.901091817978366
v 1.013034376364521 2.284124893009396 2.908107183410608
v 2.050324589896614 1.420487156938838 -0.942055078275615
v 1.518269879639900 1.984521159843810 -0.876093683633157
v -2.067394668199959 1.404711327506756 1.586712775523764
v -1.616363264734658 1.904284587651662 -2.942000474296030
v -2.064738034486419 1.401295953052168 -1.600421841203645
v -2.385277145717106 0.743899640625745 -0.320378061436989
v -2.047740827484307 1.430248446819414 0.304094848135013
v -2.378687496974899 0.743304743255106 0.307808059852875
v 2.068665196478003 1.403594956927686 -1.600822895988943
v 1.594915680292553 1.918042799749690 2.235067005236058
v -1.034104837709827 2.270108597401661 -3.623965670720026
v -1.017466298226775 2.279239312086525 -2.932235158772837
v -2.047070121528499 1.429582012671767 -0.312095336135437
v -2.053281261393360 1.419617455406775 -0.943060714034568
v -0.339829769757804 2.470276718679486 3.579408183492379
v -2.387167340820472 0.718079993313709 2.935752863949512
v -2.078361017651731 1.383228828753808 -2.273914168477512
v 2.388933923261105 0.727843090332968 1.609839542725882
v -1.626968324409260 1.890983126145284 3.589720547323322
v -0.303666038685123 2.480456245170327 1.511055652066768
v -2.088991323732348 1.369696139033847 -2.952395438841603
v 0.347651644035361 2.475330801822678 2.907352074819371
v -2.386994018580675 0.735539411855150 -1.621132084787064
v 2.499772158692332 0.003529372121359 2.941824133741982
v 2.055276056174971 1.418682077759404 0.937021416102184
v -0.358571751355885 2.470597954398507 -3.621297512106397
v 1.018496085351901 2.281811217613186 -2.928575736278622
v -2.093318127514532 1.361829500602041 -3.631552146652377
v -2.099435527066733 1.346260053751934 4.280599274448467
v 1.501104225503024 1.997692343773618 -0.272541304112310
v -0.299300410927582 2.480725033509263 -1.516204444372118
v -2.055640326344411 1.421471655971366 0.933717533181731
v -1.026152832631998 2.273423369751973 3.581336895761892
v 1.503777196261775 1.995636502974433 0.270975088732289
v 0.335776671587578 2.474228587876826 2.210810097360598
v -0.428886338282008 -1.672167051955366 -4.999999999999977
v -1.432046419731488 -0.748719244423945 -4.999999999999840
v 1.428013996654141 0.766035112620457 -4.999999999999903
v -0.414020119020382 1.689223676420278 -4.999999999999948
v 0.387404300576573 -1.663398334114500 -4.999999999999957
v -1.430314326275758 0.766354760628353 -5.000000000000105
v -1.209963032611509 -1.496518669192893 -5.000000000000020
v -0.470052118210290 0.840143549335075 -5.000000000000171
v -0.473308884702817 -0.820851145548612 -5.000000000000081
v 0.455150492179689 -0.807362030846384 -4.999999999999993
v -0.495896118631341 0.010606583330326 -4.999999999999936
v 0.486901472473921 0.016184224762758 -5.000000000000210
v 0.459913525703069 0.835766204620578 -4.999999999999972
v 1.224767432626053 -1.482083503402026 -5.000000000000000
v 0.405569161582028 1.681402245102635 -5.000000000000135
v 1.533829088317360 0.014476802680223 -5.000000000000052
v 1.220323173099355 1.501268766513691 -4.999999999999882
v 1.443710484028296 -0.736673344602185 -4.999999999999999
v -1.536953284638175 0.010255901706286 -5.000000000000171
v -1.214617727822098 1.502557973431218 -4.999999999999932
v -0.412438948561531 1.646109072422051 4.999999999999904
v -1.436657014154978 0.741173269408235 4.999999999999986
v -1.431144168472012 -0.725729969639769 4.999999999999964
v 1.434787349822457 -0.733659593294233 5.000000000000000
v -0.404069449140756 -1.639664255006739 5.000000000000013
v 0.413202049521072 1.642923691839282 4.999999999999844
v -0.462395475365464 -0.793142492906027 5.000000000000078
v 0.467673138593856 0.799295431538929 5.000000000000130
v -0.462744709152103 0.800641072532603 5.000000000000110
v -0.487320640313664 0.004427354400325 5.000000000000086
v 0.494507481642046 -0.000671300473303 5.000000000000062
v 0.469784882023883 -0.794856064196894 4.999999999999964
v 1.227739556614619 1.479613498938050 5.000000000000200
v -1.227151996844679 1.474359688536308 5.000000000000046
v 0.427608219560619 -1.641687080724622 5.000000000000006
v 1.534307027097057 -0.000167071726665 5.000000000000008
v 1.230282831301089 -1.473631759215101 5.000000000000007
v 1.444457617481182 0.732465823808084 5.000000000000099
v -1.534154565854601 0.007298112685236 5.000000000000098
v -1.227195038714425 -1.468735603909685 4.999999999999970
v 0.392074716466649 -2.458512213139989 5.000000000000000
v 1.100721261569514 -2.231526686622258 5.000000000000000
v -1.101777433873584 -2.231056448414681 5.000000000000000
v -0.278808396619455 -2.482522125558723 -0.955213006376080
v 0.286444893564812 -2.481656415625200 0.952953317657276
v 0.284948297027028 -2.481826076989370 -0.953396170229238
v -0.972906807331076 -2.302892185595554 -0.218536669061909
v -0.369248771063310 -2.463364017694071 5.000000000000000
v -0.391605805104744 -2.458611883328493 -5.000000000000000
v 1.088946593124563 -2.236769106787067 -5.000000000000000
v 2.088055371018315 -1.355991488741384 5.000000000000000
v -2.075055036821206 -1.378508728638743 -5.000000000000000
v 2.084875559036771 -1.361499084787096 -5.000000000000000
v -2.089644216840426 -1.353239526984560 5.000000000000000
v 0.971676088070637 -2.303398647663553 -0.222734479258921
v -2.387236839248131 -0.698691621377391 -5.000000000000000
v -2.392348519032082 -0.682959488900744 5.000000000000000
v 2.389978200267561 -0.690254579828075 5.000000000000000
v 2.388693390345354 -0.694208818113293 -5.000000000000000
v 0.349648615470901 -2.467530159445645 -5.000000000000000
v 0.974511119337400 -2.302231983709911 0.213064586584764
v -1.081265236530381 -2.240189067093440 -5.000000000000000
v -0.973315943310096 -2.302723819128328 0.217141163815586
v -0.268257613399693 -2.483718212967015 0.958335051207218
v -0.972906466438475 2.302892325878701 -0.218537831798598
v -0.268243101184593 2.483719858141348 -0.958339345465302
v 0.972901881906760 2.302894212492072 -0.218553468991090
v 0.285473280359860 2.481766562359899 -0.953240824273723
v 0.973086020456099 2.302818436323214 0.217925398313296
v 0.286506282101765 2.481649456326109 0.952935152393097
v -0.972983710337078 2.302860538690604 0.218274363731075
v -0.278132695605318 2.482598726267689 0.955412950665963
v 0.380098573023522 2.461057821055497 5.000000000000000
v 1.092961253566017 2.234981664792286 5.000000000000000
v -0.372547834606131 2.462662780078786 5.000000000000000
v -1.097691498032298 2.232875624262104 5.000000000000000
v -2.084884393706950 1.361483782689103 5.000000000000000
v 2.073132682525932 1.381838344030015 -5.000000000000000
v -2.074136240939223 1.380100129827177 -5.000000000000000
v 2.085092418537072 1.361123473105252 5.000000000000000
v 2.380437500217162 0.719617834855139 -5.000000000000000
v -2.387226692566861 0.698722849650816 5.000000000000000
v 2.390347021558413 0.689119464630504 5.000000000000000
v -2.380975701375204 0.717961422036796 -5.000000000000000
v 0.366869346791448 2.463869779944631 -5.000000000000000
v -0.379290517423321 2.461229578578427 -5.000000000000000
v 2.498662953933368 0.012721143215179 -5.000000000000000
v -2.499079160625318 0.008761201170136 5.000000000000000
v 2.499939745151072 0.000573286576840 5.000000000000000
v -2.499096940007197 0.008592041655896 -5.000000000000000
v -1.081651525514850 2.240017080156305 -5.000000000000000
v 1.085984722951109 2.238087816353749 -5.000000000000000
v 0.834570850000000 -2.356526080000000 0.550447790000000
v 0.708129160000000 -2.397614030000000 -0.706082840000000
v -0.708129160000000 -2.397614030000000 0.706082840000000
v -1.672826520000000 -1.857862060000000 5.000000000000000
v 1.672826520000000 -1.857862060000000 5.000000000000000
v -1.672826520000000 -1.857862060000000 -5.000000000000000
v 1.672826520000000 -1.857862060000000 -5.000000000000000
v -0.834570850000000 -2.356526080000000 -0.550447790000000
v 0.708129160000000 2.397614030000000 -0.706082840000000
v -0.834570850000000 2.356526080000000 -0.550447790000000
v -0.708129160000000 2.397614030000000 0.706082840000000
v 0.834570850000000 2.356526080000000 0.550447790000000
v 1.672826520000000 1.857862060000000 5.000000000000000
v -1.672826520000000 1.857862060000000 5.000000000000000
v -1.672826520000000 1.857862060000000 -5.000000000000000
v 1.672826520000000 1.857862060000000 -5.000000000000000
f 120 305 318 1
f 318 293 106 1
f 106 76 68 1
f 68 67 120 1
f 18 322 317 2
f 317 303 35 2
f 35 17 71 2
f 71 77 18 2
f 36 56 126 3
f 126 12 111 3
f 111 65 84 3
f 84 90 36 3
f 97 75 101 4
f 101 94 49 4
f 49 72 496 4
f 496 443 97 4
f 113 28 89 5
f 89 66 92 5
f 92 115 79 5
f 79 44 113 5
f 60 54 42 6
f 42 445 456 6
f 456 446 48 6
f 48 7 60 6
f 87 83 60 7
f 48 64 53 7
f 53 70 87 7
f 104 82 110 8
f 110 13 38 8
f 38 37 45 8
f 45 62 104 8
f 23 489 457 9
f 457 451 95 9
f 95 98 13 9
f 13 110 23 9
f 442 440 25 10
f 25 127 27 10
f 27 32 96 10
f 96 490 442 10
f 33 98 112 11
f 112 99 108 11
f 108 311 308 11
f 308 47 33 11
f 126 55 128 12
f 128 491 460 12
f 460 441 111 12
f 98 33 38 13
f 438 437 24 14
f 24 114 124 14
f 124 89 28 14
f 28 493 438 14
f 58 76 116 15
f 116 448 494 15
f 494 458 43 15
f 43 105 58 15
f 100 17 80 16
f 80 118 22 16
f 22 491 128 16
f 128 55 100 16
f 35 109 80 17
f 100 59 71 17
f 52 329 322 18
f 77 50 52 18
f 107 67 68 19
f 68 76 58 19
f 58 105 121 19
f 121 61 107 19
f 439 492 46 20
f 46 74 86 20
f 86 31 39 20
f 39 444 439 20
f 22 118 119 21
f 119 75 97 21
f 97 443 459 21
f 459 491 22 21
f 41 65 489 23
f 110 82 41 23
f 437 444 39 24
f 39 31 114 24
f 440 496 72 25
f 72 61 127 25
f 109 314 301 26
f 301 345 57 26
f 57 119 118 26
f 118 80 109 26
f 127 81 83 27
f 83 87 32 27
f 113 447 493 28
f 117 88 78 29
f 78 30 125 29
f 125 330 323 29
f 323 279 117 29
f 78 53 64 30
f 64 495 449 30
f 449 455 125 30
f 86 93 56 31
f 56 36 114 31
f 87 70 85 32
f 85 51 96 32
f 47 37 38 33
f 57 345 296 34
f 296 309 122 34
f 122 101 75 34
f 75 119 57 34
f 303 314 109 35
f 90 124 114 36
f 47 321 287 37
f 287 268 45 37
f 385 115 73 40
f 73 104 62 40
f 62 379 328 40
f 328 254 385 40
f 102 84 65 41
f 82 69 102 41
f 54 105 43 42
f 43 458 445 42
f 454 447 113 44
f 79 336 332 44
f 332 485 454 44
f 268 379 62 45
f 492 450 50 46
f 50 77 74 46
f 308 334 321 47
f 446 495 64 48
f 94 67 107 49
f 107 61 72 49
f 450 453 52 50
f 103 490 96 51
f 85 123 99 51
f 99 112 103 51
f 453 484 329 52
f 78 88 70 53
f 81 121 105 54
f 60 83 81 54
f 93 59 100 55
f 126 56 93 55
f 74 77 71 59
f 93 86 74 59
f 121 81 127 61
f 106 293 331 63
f 331 486 452 63
f 452 448 116 63
f 116 76 106 63
f 111 441 489 65
f 89 124 90 66
f 90 84 102 66
f 102 69 92 66
f 94 91 120 67
f 82 104 73 69
f 73 115 92 69
f 88 123 85 70
f 115 385 336 79
f 117 129 123 88
f 122 309 348 91
f 348 305 120 91
f 94 101 122 91
f 451 490 103 95
f 103 112 98 95
f 123 129 108 99
f 129 304 311 108
f 279 304 129 117
f 455 483 330 125
f 242 459 443 130
f 443 496 181 130
f 181 166 177 130
f 177 206 242 130
f 134 151 188 131
f 188 184 150 131
f 150 240 249 131
f 249 196 134 131
f 221 195 147 132
f 147 174 161 132
f 161 167 164 132
f 164 192 221 132
f 185 138 165 133
f 165 151 134 133
f 134 196 228 133
f 228 243 185 133
f 207 192 164 135
f 164 167 149 135
f 149 143 186 135
f 186 247 207 135
f 189 175 163 136
f 163 145 168 136
f 168 193 194 136
f 194 191 189 136
f 173 143 162 137
f 162 142 169 137
f 169 141 176 137
f 176 140 173 137
f 497 464 141 138
f 141 169 165 138
f 185 463 497 138
f 170 156 166 139
f 166 181 153 139
f 153 144 160 139
f 160 171 170 139
f 182 146 173 140
f 176 462 498 140
f 498 461 182 140
f 464 462 176 141
f 162 152 157 142
f 157 188 151 142
f 151 165 169 142
f 149 152 162 143
f 173 146 186 143
f 153 440 442 144
f 442 490 179 144
f 179 145 160 144
f 163 171 160 145
f 179 183 168 145
f 237 247 186 146
f 182 190 237 146
f 195 246 187 147
f 187 156 174 147
f 172 161 174 148
f 174 156 170 148
f 170 171 158 148
f 158 159 172 148
f 167 154 152 149
f 184 178 180 150
f 180 208 240 150
f 154 155 157 152
f 181 496 440 153
f 167 161 172 154
f 172 159 155 154
f 159 178 184 155
f 184 188 157 155
f 187 177 166 156
f 171 163 175 158
f 175 178 159 158
f 183 245 193 168
f 189 180 178 175
f 187 246 206 177
f 490 451 183 179
f 189 191 208 180
f 461 467 190 182
f 451 457 245 183
f 243 465 463 185
f 241 226 237 190
f 467 499 241 190
f 194 211 248 191
f 248 244 208 191
f 222 227 221 192
f 207 234 222 192
f 245 198 225 193
f 225 211 194 193
f 210 203 246 195
f 221 227 210 195
f 249 235 224 196
f 224 205 228 196
f 236 200 233 197
f 233 203 223 197
f 223 202 229 197
f 229 201 236 197
f 201 229 225 198
f 245 457 489 198
f 489 441 201 198
f 213 204 220 199
f 220 231 230 199
f 230 216 226 199
f 226 241 213 199
f 236 460 491 200
f 491 459 242 200
f 242 206 233 200
f 441 460 236 201
f 223 212 217 202
f 217 248 211 202
f 211 225 229 202
f 233 206 246 203
f 210 212 223 203
f 466 500 239 204
f 239 205 220 204
f 213 468 466 204
f 224 231 220 205
f 239 243 228 205
f 247 216 234 207
f 244 238 240 208
f 218 219 232 209
f 232 222 234 209
f 234 216 230 209
f 230 231 218 209
f 227 214 212 210
f 214 215 217 212
f 241 499 468 213
f 227 222 232 214
f 232 219 215 214
f 244 248 217 215
f 219 238 244 215
f 247 237 226 216
f 235 238 219 218
f 231 224 235 218
f 249 240 238 235
f 500 465 243 239
f 253 326 291 250
f 291 474 504 250
f 504 488 257 250
f 257 339 253 250
f 358 339 257 251
f 257 488 481 251
f 481 482 316 251
f 316 387 358 251
f 389 346 280 252
f 280 503 475 252
f 475 480 297 252
f 297 284 389 252
f 261 312 326 253
f 339 388 261 253
f 265 336 385 254
f 328 262 338 254
f 338 349 265 254
f 470 501 307 255
f 307 347 356 255
f 356 281 319 255
f 319 469 470 255
f 285 499 467 256
f 467 461 342 256
f 342 374 368 256
f 368 393 285 256
f 472 471 299 258
f 299 376 394 258
f 394 380 282 258
f 282 502 472 258
f 396 355 260 259
f 260 500 466 259
f 466 468 381 259
f 381 340 396 259
f 355 371 310 260
f 310 272 500 260
f 333 278 312 261
f 388 288 333 261
f 328 379 353 262
f 353 310 371 262
f 371 325 338 262
f 306 304 279 263
f 279 323 266 263
f 266 326 312 263
f 312 278 306 263
f 363 362 370 264
f 370 278 333 264
f 333 288 302 264
f 302 497 363 264
f 320 332 336 265
f 349 315 320 265
f 323 330 286 266
f 286 291 326 266
f 269 357 327 267
f 327 499 285 267
f 285 393 364 267
f 364 352 269 267
f 287 343 386 268
f 386 353 379 268
f 335 360 357 269
f 352 359 335 269
f 324 364 393 270
f 393 368 369 270
f 369 345 301 270
f 301 314 324 270
f 367 374 375 271
f 375 366 384 271
f 384 348 309 271
f 309 296 367 271
f 310 353 386 272
f 386 343 395 272
f 395 465 500 272
f 276 302 288 273
f 288 388 351 273
f 351 354 277 273
f 277 392 276 273
f 343 287 321 274
f 321 334 362 274
f 362 363 391 274
f 391 395 343 274
f 377 359 352 275
f 352 364 324 275
f 324 314 303 275
f 303 317 377 275
f 464 497 302 276
f 392 462 464 276
f 354 373 289 277
f 289 344 392 277
f 370 337 306 278
f 346 372 292 280
f 292 487 503 280
f 356 361 383 281
f 383 294 376 281
f 376 299 319 281
f 380 350 390 282
f 390 473 502 282
f 295 378 382 283
f 382 389 284 283
f 284 293 318 283
f 318 305 295 283
f 297 331 293 284
f 330 483 477 286
f 477 474 291 286
f 373 365 341 289
f 341 290 344 289
f 313 498 344 290
f 341 378 366 290
f 366 375 313 290
f 372 387 316 292
f 316 482 487 292
f 383 396 340 294
f 340 357 360 294
f 360 394 376 294
f 384 366 378 295
f 305 348 384 295
f 345 369 367 296
f 480 486 331 297
f 478 473 390 298
f 390 350 300 298
f 300 322 329 298
f 329 484 478 298
f 471 469 319 299
f 350 359 377 300
f 377 317 322 300
f 306 337 311 304
f 501 476 315 307
f 315 349 347 307
f 311 337 334 308
f 342 461 498 313
f 375 374 342 313
f 476 479 320 315
f 479 485 332 320
f 347 349 338 325
f 371 355 361 325
f 361 356 347 325
f 357 340 381 327
f 381 468 499 327
f 337 370 362 334
f 380 394 360 335
f 359 350 380 335
f 358 351 388 339
f 365 382 378 341
f 498 462 392 344
f 365 373 372 346
f 389 382 365 346
f 358 387 354 351
f 387 372 373 354
f 396 383 361 355
f 497 463 391 363
f 369 368 374 367
f 463 465 395 391
f 445 458 403 397
f 403 398 405 397
f 405 406 401 397
f 401 456 445 397
f 452 486 415 398
f 415 407 405 398
f 403 448 452 398
f 409 411 413 399
f 413 474 477 399
f 477 483 412 399
f 412 408 409 399
f 416 487 482 400
f 482 481 411 400
f 411 409 404 400
f 404 402 416 400
f 406 414 410 401
f 410 446 456 401
f 480 475 416 402
f 404 407 415 402
f 415 486 480 402
f 458 494 448 403
f 409 408 407 404
f 407 408 406 405
f 408 412 414 406
f 414 455 449 410
f 449 495 446 410
f 481 488 413 411
f 483 455 414 412
f 488 504 474 413
f 475 503 487 416
f 425 424 422 417
f 422 469 471 417
f 471 472 430 417
f 430 418 425 417
f 430 473 478 418
f 478 484 435 418
f 435 426 425 418
f 423 426 435 419
f 435 484 453 419
f 453 450 436 419
f 436 421 423 419
f 432 427 428 420
f 428 431 433 420
f 433 447 454 420
f 454 485 432 420
f 436 439 444 421
f 444 437 431 421
f 431 428 423 421
f 424 434 429 422
f 429 470 469 422
f 428 427 426 423
f 425 426 427 424
f 427 432 434 424
f 476 501 470 429
f 434 479 476 429
f 472 502 473 430
f 437 438 433 431
f 485 479 434 432
f 438 493 447 433
f 450 492 439 436
