v 4.999999999999919 -2.529077217120357 -5.153011840621929
v 4.092668465199266 -2.414895506386901 -4.413649532771767
v 4.535694498938444 -2.453737198305302 -5.152902141487683
v 4.054925242569901 -2.452768885195828 -5.152874449132288
v 4.080177010137127 -2.597782974505853 -4.775234560966660
v 4.610355629238544 -2.597973029857163 -4.780921917027761
v 3.590114106487443 -2.596332057237827 -4.764917028346330
v 4.082734247256603 -2.003118957020162 -4.310472566908649
v 4.032713642428266 -1.682103165919016 -5.070842919147349
v 4.504615373563780 -1.673602857544617 -5.058802158337397
v 4.050857154600418 -1.643528148219614 -4.597585178956257
v 4.533844714699043 -1.654011133700625 -4.578539782291111
v 4.905857394152129 -2.090744950748681 -5.299283051329496
v 3.522211325688274 -1.670982752729746 -4.560992707711049
v 4.497598578988134 -2.059642795091351 -5.296597852283440
v 3.576930964286634 -2.086405142303677 -5.299011677176268
v 4.037738743768569 -2.060547183320255 -5.297112433177436
v 4.585213748928863 -2.012343678856733 -4.307772274341016
v 3.622371359634078 -2.029395201810486 -4.305625406872279
v 3.499999999999998 -1.588373813913300 -4.217700475569250
v 3.499999999999999 -3.357790851091181 -4.124613254537847
v 3.499999999999993 -2.109384383754566 -5.667270868528665
v 3.500000000000000 -1.096534032386384 -4.441809609287443
v 3.499999999999998 -3.424337020006739 -5.565931959119609
v 3.499999999999997 -1.683851224467993 -5.685112086214644
v 3.499999999999998 -3.371425381553731 -3.527337429132948
v 3.499999999999998 -2.929699497718906 -3.675125394654481
v 3.499999999999998 -3.378730705216705 -5.116324937330244
v 3.500000000000012 -1.209596128300853 -5.257852093239499
v 3.500000000000004 -2.542442110869483 -5.635272455482074
v 3.500000000000002 -2.949781499710162 -5.147963881133296
v 3.499999999999993 -2.986342557301533 -5.601123654006471
v 3.499999999999998 -2.483703122890714 -3.854529305514265
v 3.500000000000000 -2.923843268506519 -4.229907995167740
v 3.500000000000006 -2.932221601635663 -4.706638650938298
v 3.500000000000000 -3.360986431770312 -4.644610683394330
v 3.500000000000004 -1.157667717597631 -4.817820206853337
v 3.500000000000002 -2.038147927799332 -4.021058046683692
v 3.164487065393532 -3.499999999999993 -2.695087565388129
v 2.831136167565061 -3.500000000000000 -2.695859138213578
v 3.183418111211600 -3.500000000000000 -5.553681137635161
v 2.819321741557244 -3.500000000000001 -5.550970322489193
v 2.795387684886202 -3.500000000000000 -4.585486685965778
v 3.216132944382302 -3.499999999999999 -4.600945670311960
v 2.802888536713966 -3.500000000000000 -5.083729906674074
v 3.216857328331856 -3.499999999999998 -4.069026283341210
v 2.794289177892907 -3.500000000000004 -4.046393141091360
v 3.205796729293736 -3.499999999999998 -5.090574965154811
v 3.206385626066836 -3.500000000000007 -3.455845995173998
v 2.801227115475519 -3.499999999999993 -3.432732837012682
v 2.499999999999996 -2.529781113378684 -5.161522526442287
v 2.499999999999996 -2.069450717983978 -4.769252668901991
v 2.500000000000005 -1.630396632848091 -4.833323457789912
v 2.500000000000000 -2.963711308005539 -5.118417483933269
v 2.500000000000009 -1.579355861927874 -4.000047881418495
v 2.500000000000009 -1.589430326727988 -4.420871708346930
v 2.500000000000002 -2.051530324659874 -4.314317814438258
v 2.500000000000002 -2.500404067252173 -3.696441592834325
v 2.500000000000000 -2.497850123323123 -4.220270460332014
v 2.500000000000000 -2.940765445748092 -4.116368583352575
v 2.499999999999996 -3.388169963544287 -5.090025391122353
v 2.500000000000003 -2.947325110373832 -3.537379545216664
v 2.500000000000007 -2.551499070544568 -5.617315206586167
v 2.500000000000002 -3.383331285332308 -3.455142566714703
v 2.499999999999993 -2.043961439764766 -3.858165602779857
v 2.500000000000000 -3.373038184015335 -4.601386081473406
v 2.499999999999979 -2.112874796184327 -5.651806835249413
v 2.500000000000000 -3.429577958891379 -5.554521785738535
v 2.499999999999997 -3.370150612707829 -4.065641479756960
v 2.500000000000014 -1.247116470733620 -5.298217620577878
v 2.499999999999979 -1.140790789849984 -4.492119662051548
v 2.500000000000002 -2.947111829257784 -4.633771129908394
v 2.500000000000003 -2.990310230500064 -5.583770358375238
v 2.500000000000000 -2.511444448007397 -4.694688140719623
v 2.500000000000000 -1.684246007562347 -5.678373746713328
v 2.500000000000009 -2.094370455415422 -5.208711058501683
v 2.500000000000007 -1.199629015607358 -4.886705285530490
v 2.500000000000000 -1.664661519933695 -5.254935801773541
v 1.892447816702432 -4.471106099746503 -6.000000000000011
v 1.511522785935156 -3.514176123315346 -6.000000000000007
v 1.854872317397859 -4.952196620762151 -5.999999999999992
v 2.292711152475591 -4.945316748747132 -5.999999999999992
v 4.952026781861891 -3.090571929057693 -6.000000000000000
v 2.457336004292815 -3.026115715425881 -6.000000000000007
v 3.562335673150714 -3.028496461291262 -6.000000000000004
v 4.522200405886836 -2.606306221189509 -5.999999999999999
v 1.991646901225938 -3.041026991970611 -6.000000000000020
v 3.180794823571313 -4.469974812914291 -5.999999999999993
v 2.754955530857210 -4.467203528607499 -5.999999999999989
v 4.967288428359935 -2.610719792233616 -6.000000000000007
v 3.165728274716082 -4.944915261966072 -5.999999999999989
v 3.607835812530970 -4.948636241370929 -5.999999999999989
v 1.531650337341259 -3.044409007953393 -6.000000000000035
v 1.083311746800738 -3.040763281880357 -6.000000000000069
v 1.059777939490166 -3.506106467471182 -6.000000000000069
v 2.730160923710403 -4.943752790948604 -5.999999999999982
v 1.035955153850114 -3.982479757969008 -6.000000000000005
v 1.984915442983207 -2.580448568446173 -5.999999999999986
v 1.103755332932756 -2.582842186893048 -5.999999999999986
v 4.948267436477618 -3.571677172808084 -5.999999999999997
v 2.430996239900324 -2.569385477469101 -6.000000000000007
v 4.060102707603291 -4.958133196212515 -6.000000000000012
v 3.602735411743382 -2.572187536334747 -5.999999999999991
v 3.612300139741861 -4.475883092860457 -6.000000000000011
v 4.997907252832272 -2.142888315437243 -5.999999999999991
v 1.014711825936297 -4.476337302849730 -5.999999999999988
v 1.424314071607210 -4.970383703461417 -5.999999999999989
v 4.501602911436459 -4.028765564169391 -6.000000000000003
v 3.163924181383210 -3.508327022551412 -6.000000000000004
v 1.935514574115372 -3.989681409969039 -6.000000000000007
v 4.957798188776390 -4.048895875538811 -5.999999999999981
v 4.974807473394375 -4.524951465086227 -5.999999999999996
v 2.374353296687107 -3.987909194716035 -5.999999999999975
v 4.043248919349617 -4.010840366165752 -5.999999999999986
v 3.598251736566765 -3.997382402372942 -6.000000000000000
v 1.484174365204142 -3.990046810349103 -5.999999999999996
v 1.452850505452384 -4.473811573073950 -5.999999999999996
v 4.552266379790971 -2.142865557232424 -6.000000000000009
v 4.523070846640445 -4.974413140774947 -5.999999999999993
v 3.178549448248474 -3.990151948741321 -5.999999999999991
v 2.829515627513674 -3.508089297182629 -6.000000000000004
v 2.788890837604346 -3.988234254506239 -5.999999999999978
v 1.973736659054971 -3.512142828646504 -5.999999999999995
v 4.057208053754891 -4.487194036614381 -6.000000000000004
v 4.513158694230691 -4.503734598062648 -6.000000000000004
v 4.105277698488107 -2.135902738121926 -5.999999999999964
v 1.552347676845533 -2.130274653064545 -5.999999999999790
v 3.644913140312486 -2.124327266593959 -6.000000000000028
v 4.037037467779928 -3.057267571055355 -5.999999999999998
v 4.025460521636671 -3.531141725527395 -5.999999999999991
v 1.542920214196798 -2.584741721562345 -6.000000000000075
v 2.327827548728528 -4.467478290855231 -6.000000000000000
v 4.501415624872527 -3.076515200222133 -5.999999999999992
v 1.126807754089778 -2.131004103805074 -6.000000000000322
v 1.971330472351859 -2.127403492722035 -6.000000000000043
v 4.494639435425928 -3.552073914154161 -5.999999999999998
v 4.066842850997392 -2.593116180279480 -5.999999999999979
v 2.402094652508047 -2.122795683608373 -6.000000000000054
v 4.153107343500942 -1.688954360403780 -5.945276395992163
v 4.224090642044382 -1.065353892910372 -5.351554390941327
v 4.582907498400902 -1.692822802335947 -5.947992490175284
v 3.801746695048968 -1.295731522950084 -5.708480758891234
v 4.197224183456397 -1.305489599638216 -5.718073840706924
v 3.717469994946475 -1.682278709207468 -5.946292565951609
v 4.612319567145789 -1.312558496093271 -5.722398466117411
v 3.798515826120716 -1.054879185842840 -5.320429641080443
v 4.654614518719201 -1.072310335016673 -5.371454674556505
v 4.258882882860199 -1.000000000000000 -4.495174103736066
v 4.676947441359646 -0.999999999999992 -4.953875567829554
v 3.806918813972968 -0.999999999999997 -4.894787154721641
v 4.241204582300043 -1.000000000000000 -4.927539951151974
v 3.845704689464864 -1.000000000000000 -4.496838466909406
v 4.660138251338608 -1.000000000000000 -4.530602230706684
v 0.999999999999998 -2.093469984750461 -4.828045753944378
v 1.000000000000010 -2.070531991036864 -4.400034703878422
v 1.000000000000000 -4.989128768336158 -1.410580660488729
v 0.999999999999999 -3.421632701129895 -4.223680993223173
v 1.000000000000005 -1.645234275797160 -4.874410592973560
v 1.000000000000000 -3.934057361526416 -5.131664500427412
v 1.000000000000002 -3.904255782557781 -4.667782522069249
v 1.000000000000001 -1.601171946597669 -4.471113959534367
v 1.000000000000001 -1.587656151052616 -4.069879959510626
v 1.000000000000002 -4.683889649832413 -3.205717238433435
v 0.999999999999994 -4.621265343514981 -2.712149535890370
v 0.999999999999990 -1.677265111683172 -5.286962225034971
v 1.000000000000004 -2.056718349386642 -3.978688477229190
v 1.000000000000001 -3.835275304497027 -3.704334529009270
v 1.000000000000003 -2.512528638259581 -3.877405158500189
v 0.999999999999997 -3.791751331192752 -3.195444439188321
v 0.999999999999997 -4.229019987256778 -3.187270818652665
v 0.999999999999999 -3.961205124216439 -5.585371703838243
v 0.999999999999997 -4.492115787219022 -1.783106855911784
v 1.000000000000007 -2.954929185260919 -3.790076298984251
v 1.000000000000011 -2.543975690744020 -4.779373981932013
v 0.999999999999999 -3.735532148463112 -2.624239788659607
v 0.999999999999998 -4.322768221596512 -4.177738312129080
v 0.999999999999998 -4.280084343037831 -3.692233194938542
v 0.999999999999998 -3.493396427040364 -5.609692489475373
v 1.000000000000011 -4.994383354949835 -1.831334970781416
v 1.000000000000000 -4.776293743726979 -4.170977001731346
v 1.000000000000001 -4.359833334542522 -4.647267764365187
v 1.000000000000001 -4.817827007577477 -4.642141301968222
v 0.999999999999996 -3.031855902917211 -5.635250912323319
v 0.999999999999999 -4.863632540322429 -5.105148937066638
v 0.999999999999999 -3.368288525377921 -3.216707618777857
v 1.000000000000013 -2.115092127768335 -5.255911950460416
v 0.999999999999997 -2.501104960427270 -3.389216460380963
v 0.999999999999997 -2.939858850579357 -3.270440513013646
v 0.999999999999999 -4.732888592870228 -3.690669496279536
v 0.999999999999997 -3.472071434947999 -5.154838719084730
v 1.000000000000000 -3.015136426043802 -5.186241744228859
v 1.000000000000007 -1.151428150816307 -4.513429992152330
v 1.000000000000006 -2.975353975570060 -4.271149605241438
v 1.000000000000001 -2.127519601367626 -5.688772622380295
v 1.000000000000000 -4.923469264401187 -5.556403774360964
v 0.999999999999996 -2.561983276615738 -5.221069863152358
v 0.999999999999992 -2.576075002382765 -5.662530944618288
v 0.999999999999997 -4.150794930481041 -2.664543381595993
v 0.999999999999999 -2.525157338546378 -4.337879638009445
v 0.999999999999993 -3.872227274490381 -4.193303689018125
v 1.000000000000008 -3.397682737475684 -3.734669196627863
v 1.000000000000007 -2.995958740388410 -4.735035211580595
v 1.000000000000001 -4.399590464547221 -5.112028527688118
v 1.000000000000009 -3.449154787086182 -4.695532786915033
v 0.999999999999998 -4.434951147326290 -5.567521232271299
v 0.999999999999970 -1.208820495796973 -4.909435407955925
v 1.000000000000000 -4.554003692118036 -2.231117159924593
v 0.999999999999975 -1.692226265348429 -5.702229976440893
v 1.000000000000010 -1.254977524484980 -5.315293478856561
v 3.389166147670165 -4.999999999999995 -2.329332395943469
v 3.350566075203115 -4.999999999999995 -1.871494896075244
v 3.552087734486230 -5.000000000000011 -4.650136736960246
v 4.334956916925796 -4.999999999999979 -2.322034360316684
v 4.012589935290150 -4.999999999999989 -4.652044230265110
v 3.898627705505325 -5.000000000000045 -2.788510669511627
v 4.374307056353658 -5.000000000000044 -2.783865858840858
v 1.979887317462854 -4.999999999999998 -2.316147043058912
v 2.604521184038329 -4.999999999999972 -4.179194297054515
v 2.066610333348697 -5.000000000000014 -3.241357232593323
v 2.023387476793927 -5.000000000000005 -2.776095619856978
v 1.730975330669709 -4.999999999999994 -4.640112756479631
v 1.275170197631432 -4.999999999999993 -4.639575408990565
v 2.529610998425490 -5.000000000000016 -3.247007380618430
v 2.146330931724957 -5.000000000000018 -4.175902355665658
v 3.063962541793641 -5.000000000000021 -4.182149328782717
v 1.319982062241849 -4.999999999999991 -5.104057188691163
v 1.039063573623374 -4.999999999999995 -2.279814274632594
v 1.140382194821920 -5.000000000000000 -3.218743706640319
v 1.602533409277814 -5.000000000000000 -3.232890546864729
v 2.568801133262326 -4.999999999999982 -3.712783791344892
v 1.510859752525964 -4.999999999999998 -2.302018007909585
v 3.030218924123299 -5.000000000000017 -3.716235936297240
v 2.490155445754925 -5.000000000000034 -2.784055159409049
v 2.957852784193802 -5.000000000000000 -2.788165276453238
v 2.106586404042676 -5.000000000000016 -3.707796928414347
v 1.232231613351996 -5.000000000000020 -4.169280530514369
v 1.689461029694065 -4.999999999999992 -4.172334969355433
v 1.646567725950876 -4.999999999999991 -3.702182132783442
v 1.089256621009636 -4.999999999999996 -2.745645602209611
v 1.556295647270847 -4.999999999999996 -2.763057125261529
v 4.453470569902340 -5.000000000000000 -4.191367815269372
v 4.919655799674924 -5.000000000000000 -4.198111474819843
v 4.857157728788170 -4.999999999999971 -2.773876075736715
v 1.188631091400589 -4.999999999999997 -3.697380041077746
v 2.995335979853083 -4.999999999999997 -3.251421544546415
v 2.878149992549679 -4.999999999999989 -1.870236069636364
v 3.494835915557468 -4.999999999999989 -3.718681465747441
v 3.461902065121240 -4.999999999999989 -3.253523419286980
v 3.121270995495526 -4.999999999999998 -5.115525755217140
v 2.638640451372419 -4.999999999999982 -4.646477917862935
v 2.700749125649856 -5.000000000000027 -5.584524287822002
v 3.313431593327112 -5.000000000000010 -1.415447393476256
v 4.402929708565199 -4.999999999999972 -3.253492066005567
v 4.049201887625115 -4.999999999999996 -5.577707082022390
v 4.771869260163156 -5.000000000000006 -1.850512405960824
v 4.940968685618037 -5.000000000000012 -4.662862881224085
v 4.962113848086345 -5.000000000000012 -5.118382056808389
v 3.147487861603970 -4.999999999999985 -5.585194277808913
v 2.838843249819288 -5.000000000000000 -1.414527059694568
v 4.429440372219423 -5.000000000000013 -3.722547490531688
v 3.784042149876695 -5.000000000000013 -1.414353751629385
v 3.593839935495088 -5.000000000000000 -5.582385728799081
v 3.988216651310516 -4.999999999999980 -4.187371426703322
v 2.258079553295194 -4.999999999999998 -5.581419758181135
v 2.361008458841493 -4.999999999999983 -1.412551480870265
v 3.577139367383609 -4.999999999999984 -5.116573044628186
v 3.820849945585338 -4.999999999999976 -1.869891185601306
v 4.475030271228086 -5.000000000000009 -4.654337849254119
v 4.825891359082642 -5.000000000000007 -2.303368770899063
v 4.879957639082609 -5.000000000000032 -3.250980287486509
v 2.918366872144312 -4.999999999999968 -2.328083539518095
v 3.961098338218412 -4.999999999999984 -3.720344968277844
v 4.981428813572537 -5.000000000000008 -5.562889468167660
v 4.681674091951255 -4.999999999999998 -1.417609592983194
v 1.373239231795853 -5.000000000000009 -5.564382744542777
v 3.095342948534415 -5.000000000000008 -4.648808469793496
v 3.930389896972885 -5.000000000000007 -3.254546190867428
v 2.185099850061411 -4.999999999999979 -4.643575670464784
v 4.511707154234516 -4.999999999999995 -5.571696716646683
v 1.435799992649780 -4.999999999999977 -1.411485542535332
v 1.935898496640638 -5.000000000000028 -1.860170632449492
v 1.771544061717059 -4.999999999999979 -5.108191136820984
v 2.222203995950931 -4.999999999999980 -5.111704222032795
v 4.495464622026040 -5.000000000000002 -5.114864260130519
v 2.449244920765279 -5.000000000000018 -2.323560519070289
v 1.467562754938898 -4.999999999999989 -1.850663354074160
v 3.860670246054231 -5.000000000000018 -2.327392028993549
v 3.524557324040108 -5.000000000000006 -4.184624509038014
v 4.898010047423544 -5.000000000000017 -3.729333897064562
v 3.426280764849897 -4.999999999999995 -2.790500783171947
v 4.244674575268161 -4.999999999999999 -1.413556632523247
v 2.406605385566677 -4.999999999999974 -1.866767871657736
v 4.294232004715752 -5.000000000000007 -1.863547838726903
v 4.032726374319298 -4.999999999999995 -5.115175470136903
v 2.671743273437035 -4.999999999999993 -5.114835731232215
v 1.815182832774443 -5.000000000000012 -5.575392195796183
v 1.888356790413990 -5.000000000000071 -1.410634515904142
v 1.947969050707680 -1.682830705754785 -5.944969281836245
v 1.566257594666346 -1.684152310318684 -5.946945334797114
v 2.259339912843008 -1.300291047372244 -5.707866524228898
v 2.336919327112851 -1.681644117941103 -5.944955368948987
v 1.210364967946059 -1.063443705454090 -5.340911752433397
v 1.246531847758226 -1.301112258001961 -5.711608887710437
v 1.578177347000181 -1.303862558398354 -5.714245343967974
v 1.926448510701173 -1.302283107144622 -5.713441422489898
v 1.180452946194146 -1.686250778550931 -5.946895840246516
v 2.287301165465636 -1.060305131373648 -5.333236753413420
v 1.571088116865610 -1.063846328719716 -5.348547102383641
v 1.926086480869911 -1.062860796096983 -5.346167538902843
v 5.000000000000040 -3.281256357882304 -3.881399070976550
v 5.000000000000037 -4.840000129697453 -1.403967255667506
v 4.999999999999996 -4.660400550213007 -2.264043607879044
v 4.999999999999998 -3.593975071426384 -5.605244716627142
v 5.000000000000009 -4.649180806733936 -2.754885753474970
v 4.999999999999984 -4.173339392367316 -3.764948295645117
v 5.000000000000007 -3.247374179300188 -4.331376552874270
v 4.999999999999886 -2.126799384335778 -5.573901632177627
v 4.999999999999999 -3.299444179937450 -3.389228067300624
v 5.000000000000001 -2.013097225564168 -3.812610955528088
v 5.000000000000021 -2.435933435051625 -4.096775164206283
v 5.000000000000004 -4.646673859634594 -3.255360374329158
v 5.000000000000030 -4.615940092664225 -4.215245023872225
v 5.000000000000016 -1.108373919393808 -4.541562724146996
v 4.999999999999982 -4.592652638877931 -4.676296239424983
v 5.000000000000005 -4.633809785672961 -3.740173036672010
v 5.000000000000011 -3.295888480938058 -2.840785730787922
v 4.999999999999996 -4.547203528221866 -5.576934738682829
v 5.000000000000006 -3.137754309005908 -5.179601692530976
v 5.000000000000014 -1.693351776060907 -5.928007817830304
v 4.999999999999982 -4.182651491167030 -3.270546325966934
v 4.999999999999947 -2.603779579542405 -5.598746190092200
v 5.000000000000000 -1.207004224097657 -5.396466437439871
v 5.000000000000038 -2.812615166347214 -4.396333278652593
v 4.999999999999986 -4.072465507423383 -5.594198550831293
v 4.999999999999975 -4.569526295639396 -5.130534215481728
v 4.999999999999940 -3.695738578202092 -4.276211147421031
v 4.999999999999998 -1.683283072828834 -5.492737613119657
v 4.999999999999967 -4.099563740173285 -5.147698405847326
v 5.000000000000012 -4.174324233911643 -2.751080872153613
v 5.000000000000012 -3.726776375310608 -2.765665621018735
v 5.000000000000024 -3.193594214571040 -4.757437422093841
v 4.999999999999986 -4.127560673108348 -4.697775468800645
v 4.999999999999959 -4.716493203535540 -1.817189377197246
v 4.999999999999989 -4.153433772819954 -4.239370578376511
v 5.000000000000052 -3.661186037102333 -4.724844331746889
v 5.000000000000029 -2.849834124103113 -3.969086442706634
v 4.999999999999994 -3.721636389550355 -3.810435058779725
v 4.999999999999864 -2.719943697993933 -4.784257246538893
v 4.800882039517882 -2.442574001614815 -4.438792072976933
v 4.999999999999970 -3.624459096090690 -5.165045893644507
v 4.999999999999969 -3.734461332505290 -3.315949529066346
v 5.000000000000142 -2.028280321135371 -4.261221284349535
v 5.000000000000046 -1.157257857506574 -4.979562688235188
v 4.999999999999996 -3.106301587832285 -5.609009026411153
v 4.999999999999986 -2.443749430817120 -3.643451472674157
v 5.000000000000000 -1.567819337616748 -3.990880587750055
v 4.999999999999988 -2.869600099896203 -3.489679662673110
v 1.234778910392130 -0.999999999999996 -4.519118558704865
v 1.910580034242467 -1.000000000000000 -4.496424821091805
v 2.293342420582838 -1.000000000000006 -4.915882716691382
v 1.573909336308001 -0.999999999999988 -4.501740808532129
v 1.567595766522733 -0.999999999999999 -4.928560980177402
v 1.924024756475855 -0.999999999999992 -4.925540979618396
v 2.248272505203407 -0.999999999999995 -4.515268480275462
v 1.198152150601296 -0.999999999999925 -4.925808500888577
v 1.537386892267246 -3.715515130476024 -2.404469741150033
v 1.891620970873650 -2.048793026901166 -3.629832128846075
v 2.284006697223707 -2.046762362928325 -3.627405690540140
v 3.959024756897314 -2.032841513817371 -3.637650536836222
v 3.567782010356490 -2.037631112453963 -3.631306495258737
v 3.721762453008878 -4.392972557013357 -1.729097532401679
v 4.909625515890984 -2.886802801222143 -3.083213697432550
v 4.803665951657262 -2.460818424026717 -3.373023980114962
v 3.987946479989291 -2.483247162178126 -3.357220335497803
v 4.355221176084070 -2.027374493245083 -3.642146499616552
v 1.853789299292305 -2.503315515873167 -3.340827351321653
v 1.885582935676360 -1.575938359430571 -3.888869575637830
v 3.943367122883285 -1.570422981108830 -3.892905385008173
v 4.395578330624799 -2.474737334166385 -3.360366646228765
v 1.429293420535582 -2.505222001500182 -3.342510450638317
v 1.297930764933166 -2.935880796122511 -3.044450769539820
v 4.475427017829901 -2.905647269847829 -3.064248022528211
v 3.525322553065448 -2.952485891543033 -3.034035549601980
v 3.231540161078743 -4.398071394452487 -1.725347661948595
v 1.820557685167806 -2.949913076043692 -3.031974021110103
v 4.769478637314783 -4.368656021292550 -1.755053732912465
v 4.064925773019102 -3.364343971569284 -2.710527335842494
v 2.300209350604745 -2.506105337645589 -3.342256293308354
v 3.553088342382026 -2.493248783304669 -3.349705527816237
v 2.734852792652031 -4.094019832178409 -2.045826251451544
v 2.266079685800867 -3.766312255403649 -2.359576713760418
v 2.758949185000962 -4.694066985989952 -1.385893353878171
v 3.254457490935517 -4.693484457185931 -1.385434145895772
v 2.797058028994926 -4.975379955677811 -1.031068919449811
v 4.225055880226094 -4.059777435328646 -2.077024740352710
v 1.731650022672730 -3.363262409687702 -2.711508972495421
v 2.351957926381545 -2.959962779441187 -3.028320502464630
v 4.002107616200469 -2.933571359549908 -3.045492504232438
v 2.727276788025356 -4.398804476783138 -1.726689206806804
v 3.278786295692013 -4.975449598232256 -1.030867474799453
v 3.740516762769095 -4.689152577788660 -1.387818734956104
v 3.753706298805823 -4.974871422494381 -1.031256717423380
v 4.211358759967618 -4.975595406401633 -1.030356174589111
v 2.248112219851713 -4.691542082852935 -1.388295849195563
v 1.086820829599868 -2.050239388246358 -3.624603654235980
v 1.476502788656165 -2.049699991544830 -3.629695935121241
v 4.749786991864972 -2.019488963659670 -3.644298665105984
v 2.252191124930333 -1.574791929376500 -3.891164977412819
v 3.566863915883310 -1.564926704708379 -3.893995740707543
v 1.889775490007678 -1.105704516705824 -4.115653924107109
v 2.194887745003836 -1.052852258352912 -4.140402657053550
v 3.893339042984527 -1.065850664303428 -4.134315993474226
v 1.830819024787816 -4.975015821149617 -1.031412867225010
v 2.308802528868152 -4.974398742964893 -1.032188726027504
v 4.719434315870248 -3.693004502053979 -2.425754136859020
v 2.200673548416945 -4.393589771970639 -1.730176639901033
v 4.675537813529491 -4.686352712662245 -1.393610620606195
v 4.617205873235189 -4.985792652137129 -1.017965278635405
v 3.210835080575420 -4.093053652160590 -2.044490732757810
v 4.171398574713686 -3.730337541470706 -2.393966557616113
v 4.577603050753902 -3.320131805121098 -2.747753093963061
v 1.213673829293436 -4.687331279508438 -1.390495136031578
v 3.631489296881664 -3.776706157985688 -2.351896045268038
v 1.399074018508907 -4.984766727057532 -1.019278300780524
v 2.790290298595685 -3.787003192509817 -2.342232210993567
v 4.699137817511493 -1.562984483650692 -3.895855542640423
v 1.181357286636723 -1.579799736817130 -3.888282215586116
v 1.599303170206785 -4.381376964969590 -1.741781146724020
v 4.244083853906173 -4.381211634846604 -1.743598974166073
v 4.212192042983895 -4.687727488846837 -1.390616860846288
v 1.288484799566313 -1.052470181897861 -4.140804842668990
v 1.576969599132625 -1.104940363795722 -4.116458295337984
v 4.642874766566232 -1.062175084522659 -4.136301764863047
v 3.194776423229986 -3.777106076474458 -2.351443666735857
v 1.106080653943687 -3.335199059884289 -2.732330841923384
v 1.732152520996650 -4.689854800581010 -1.391210122941121
v 4.317622875870033 -1.562782462094148 -3.894850099649212
v 1.544332077525108 -1.572273955427763 -3.889080591027292
v 2.190550581453339 -4.081784195622234 -2.056013473908247
v 3.693002160281708 -4.082424183177352 -2.054780066179373
v 4.283142814280620 -1.116846896094313 -4.110720996122637
v 5.000000000000000 -4.032296310000000 -2.109627880000000
v 3.500000000000000 -2.471572410000000 -5.134565300000000
v 3.500000000000000 -2.471572410000000 -4.465434700000000
v 5.000000000000000 -5.000000000000000 -1.000000000000000
v 5.000000000000000 -1.728427590000000 -5.134565300000000
v 1.000000000000000 -1.000000000000000 -4.165151390000000
v 5.000000000000000 -1.728427590000000 -4.465434700000000
v 3.500000000000000 -1.728427590000000 -5.134565300000000
v 3.500000000000000 -3.500000000000000 -2.599342080000000
v 3.500000000000000 -1.000000000000000 -4.165151390000000
v 3.500000000000000 -3.500000000000000 -6.000000000000000
v 3.500000000000000 -1.292893220000000 -5.707106780000000
v 2.500000000000000 -3.500000000000000 -2.599342080000000
v 2.500000000000000 -3.500000000000000 -6.000000000000000
v 2.500000000000000 -1.000000000000000 -4.165151390000000
v 2.500000000000000 -1.292893220000000 -5.707106780000000
v 1.000000000000000 -5.000000000000000 -6.000000000000000
v 5.000000000000000 -5.000000000000000 -6.000000000000000
v 5.000000000000000 -1.292893220000000 -5.707106780000000
v 5.000000000000000 -1.000000000000000 -4.165151390000000
v 1.000000000000000 -5.000000000000000 -1.000000000000000
v 1.000000000000000 -4.032296310000000 -2.109627880000000
v 1.000000000000000 -1.292893220000000 -5.707106780000000
f 354 331 1 328
f 1 348 341 328
f 346 333 349 320
f 38 20 14 19
f 5 7 444 2
f 444 19 8 2
f 14 20 23 37
f 15 17 4 3
f 4 5 6 3
f 37 29 449 14
f 17 16 443 4
f 443 7 5 4
f 443 31 35 7
f 35 34 444 7
f 1 331 317 13
f 11 12 18 8
f 10 12 11 9
f 11 14 449 9
f 449 16 17 9
f 17 15 10 9
f 446 448 12 10
f 15 13 446 10
f 448 352 18 12
f 317 337 446 13
f 14 11 8 19
f 6 348 1 3
f 1 13 15 3
f 449 25 22 16
f 22 30 443 16
f 444 33 38 19
f 349 18 352 320
f 38 370 409 20
f 409 451 23 20
f 34 35 36 21
f 36 44 46 21
f 46 49 26 21
f 26 27 34 21
f 25 144 128 22
f 128 103 30 22
f 152 150 37 23
f 451 412 152 23
f 32 85 452 24
f 452 109 41 24
f 41 48 28 24
f 28 31 32 24
f 453 142 144 25
f 449 29 453 25
f 49 39 450 26
f 450 383 27 26
f 33 444 34 27
f 383 389 33 27
f 48 44 36 28
f 36 35 31 28
f 37 150 146 29
f 146 142 453 29
f 103 85 32 30
f 32 31 443 30
f 389 370 38 33
f 49 50 40 39
f 40 425 434 39
f 434 423 450 39
f 50 64 454 40
f 454 391 425 40
f 109 121 42 41
f 42 45 48 41
f 121 455 68 42
f 68 61 45 42
f 44 48 45 43
f 45 61 66 43
f 66 69 47 43
f 47 46 44 43
f 47 50 49 46
f 69 64 50 47
f 54 73 63 51
f 63 67 76 51
f 76 52 74 51
f 74 72 54 51
f 76 78 53 52
f 53 56 57 52
f 57 59 74 52
f 78 70 77 53
f 77 71 56 53
f 61 68 73 54
f 72 66 61 54
f 65 57 56 55
f 56 71 456 55
f 456 411 408 55
f 408 368 65 55
f 65 58 59 57
f 62 60 59 58
f 65 368 388 58
f 388 397 62 58
f 60 72 74 59
f 69 66 72 60
f 62 64 69 60
f 397 454 64 62
f 73 84 101 63
f 101 138 67 63
f 138 301 75 67
f 75 78 76 67
f 455 84 73 68
f 78 75 457 70
f 457 300 307 70
f 307 360 77 70
f 77 360 364 71
f 364 411 456 71
f 301 300 457 75
f 132 82 81 79
f 81 107 117 79
f 117 116 110 79
f 110 113 132 79
f 116 97 95 80
f 95 94 93 80
f 93 87 123 80
f 123 110 116 80
f 82 264 296 81
f 296 275 107 81
f 96 251 264 82
f 132 89 96 82
f 90 331 354 83
f 354 313 100 83
f 100 136 133 83
f 133 86 90 83
f 455 123 87 84
f 87 98 101 84
f 103 137 129 85
f 129 130 452 85
f 118 105 90 86
f 133 129 137 86
f 137 126 118 86
f 93 131 98 87
f 104 92 91 88
f 91 96 89 88
f 89 122 120 88
f 120 115 104 88
f 132 113 122 89
f 105 317 331 90
f 92 262 258 91
f 258 251 96 91
f 102 254 262 92
f 104 124 102 92
f 94 99 131 93
f 95 178 183 94
f 183 197 99 94
f 97 171 178 95
f 116 117 106 97
f 106 205 171 97
f 131 127 135 98
f 135 138 101 98
f 197 194 134 99
f 134 127 131 99
f 313 334 111 100
f 111 108 136 100
f 119 279 254 102
f 124 125 119 102
f 128 126 137 103
f 115 114 124 104
f 329 337 317 105
f 118 141 329 105
f 117 107 458 106
f 458 195 205 106
f 275 195 458 107
f 111 112 125 108
f 125 124 114 108
f 114 130 136 108
f 452 115 120 109
f 120 122 121 109
f 123 455 113 110
f 334 327 112 111
f 327 273 459 112
f 459 119 125 112
f 455 121 122 113
f 115 452 130 114
f 126 139 141 118
f 459 273 279 119
f 128 144 139 126
f 134 306 299 127
f 299 298 135 127
f 133 136 130 129
f 194 208 306 134
f 298 301 138 135
f 143 145 141 139
f 144 142 143 139
f 143 142 146 140
f 146 150 151 140
f 151 149 147 140
f 147 145 143 140
f 145 460 329 141
f 147 332 460 145
f 149 353 332 147
f 151 150 152 148
f 152 412 441 148
f 441 433 153 148
f 153 149 151 148
f 153 323 353 149
f 433 461 323 153
f 174 199 155 154
f 155 161 158 154
f 158 165 186 154
f 186 196 174 154
f 199 168 166 155
f 166 162 161 155
f 422 172 179 156
f 179 286 280 156
f 280 424 462 156
f 462 424 422 156
f 200 167 201 157
f 201 173 193 157
f 193 202 204 157
f 204 160 200 157
f 161 192 206 158
f 206 209 165 158
f 171 205 203 159
f 203 181 160 159
f 160 204 190 159
f 190 178 171 159
f 181 176 200 160
f 162 447 192 161
f 166 405 427 162
f 427 431 447 162
f 228 239 164 163
f 164 198 170 163
f 170 177 189 163
f 189 244 228 163
f 239 227 207 164
f 207 463 198 164
f 209 464 208 165
f 208 194 186 165
f 168 187 405 166
f 177 170 169 167
f 169 185 201 167
f 200 176 177 167
f 173 188 187 168
f 199 193 173 168
f 170 198 175 169
f 175 435 185 169
f 428 463 207 172
f 207 227 179 172
f 422 436 428 172
f 201 185 188 173
f 202 193 199 174
f 196 191 202 174
f 198 463 366 175
f 366 396 435 175
f 180 189 177 176
f 181 182 180 176
f 190 191 183 178
f 227 231 286 179
f 236 244 189 180
f 182 222 236 180
f 203 184 182 181
f 184 226 222 182
f 191 196 197 183
f 195 275 226 184
f 203 205 195 184
f 435 381 188 185
f 194 197 196 186
f 188 381 380 187
f 380 406 405 187
f 204 202 191 190
f 447 431 358 192
f 358 365 206 192
f 365 302 209 206
f 464 303 306 208
f 302 303 464 209
f 287 267 211 210
f 211 246 271 210
f 271 234 290 210
f 290 215 287 210
f 267 261 252 211
f 252 259 246 211
f 214 263 288 212
f 288 225 276 212
f 276 249 266 212
f 266 294 214 212
f 269 255 293 213
f 293 267 287 213
f 287 215 216 213
f 216 243 269 213
f 268 241 263 214
f 294 284 268 214
f 290 248 277 215
f 277 253 216 215
f 253 270 243 216
f 285 292 281 217
f 281 286 231 217
f 231 240 220 217
f 220 233 285 217
f 225 232 230 218
f 230 235 224 218
f 224 278 250 218
f 250 276 225 218
f 223 233 220 219
f 220 240 229 219
f 229 238 235 219
f 235 230 223 219
f 278 224 237 221
f 237 236 222 221
f 222 226 282 221
f 282 283 278 221
f 245 234 233 223
f 230 232 245 223
f 235 238 237 224
f 288 247 232 225
f 275 296 282 226
f 239 240 231 227
f 229 240 239 228
f 244 238 229 228
f 247 248 245 232
f 234 271 285 233
f 245 248 290 234
f 237 238 244 236
f 268 256 242 241
f 242 289 260 241
f 260 272 263 241
f 256 324 322 242
f 322 325 289 242
f 314 312 269 243
f 270 321 314 243
f 259 265 292 246
f 292 285 271 246
f 272 277 248 247
f 288 263 272 247
f 276 250 295 249
f 295 251 258 249
f 258 262 266 249
f 278 283 295 250
f 295 283 264 251
f 261 402 400 252
f 400 394 259 252
f 277 272 260 253
f 260 289 270 253
f 279 284 294 254
f 294 266 262 254
f 343 311 274 255
f 274 291 293 255
f 269 312 343 255
f 257 335 324 256
f 268 284 257 256
f 273 327 335 257
f 284 279 273 257
f 394 414 265 259
f 291 403 402 261
f 267 293 291 261
f 283 282 296 264
f 414 413 297 265
f 297 281 292 265
f 289 325 321 270
f 311 445 418 274
f 418 403 291 274
f 297 413 424 280
f 286 281 297 280
f 299 304 305 298
f 305 300 301 298
f 306 303 304 299
f 305 309 307 300
f 365 362 308 302
f 308 304 303 302
f 308 309 305 304
f 309 363 360 307
f 362 363 309 308
f 346 357 318 310
f 318 351 347 310
f 347 336 316 310
f 316 333 346 310
f 343 386 417 311
f 417 418 445 311
f 442 386 343 312
f 314 339 442 312
f 354 328 350 313
f 350 338 334 313
f 321 330 339 314
f 347 351 330 315
f 330 321 325 315
f 325 322 344 315
f 344 336 347 315
f 336 345 341 316
f 341 348 333 316
f 357 372 326 318
f 326 340 351 318
f 356 426 407 319
f 407 373 355 319
f 355 320 352 319
f 352 448 356 319
f 355 357 346 320
f 2 8 18 349
f 324 342 344 322
f 461 356 448 323
f 448 446 353 323
f 335 338 342 324
f 372 382 421 326
f 421 415 340 326
f 334 338 335 327
f 6 5 2 349
f 341 345 350 328
f 349 333 348 6
f 460 332 337 329
f 351 340 339 330
f 353 446 337 332
f 344 342 345 336
f 350 345 342 338
f 340 415 442 339
f 373 372 357 355
f 461 433 426 356
f 431 432 361 358
f 361 362 365 358
f 410 411 364 359
f 364 360 363 359
f 363 362 361 359
f 361 432 410 359
f 463 439 391 366
f 391 454 396 366
f 376 388 368 367
f 368 408 377 367
f 377 438 406 367
f 406 380 376 367
f 378 409 370 369
f 370 389 374 369
f 374 379 375 369
f 375 437 378 369
f 429 395 440 371
f 440 419 384 371
f 384 393 401 371
f 401 430 429 371
f 373 379 382 372
f 407 375 379 373
f 389 383 398 374
f 398 382 379 374
f 407 426 437 375
f 385 397 388 376
f 380 381 385 376
f 408 411 410 377
f 410 432 438 377
f 412 451 409 378
f 437 441 412 378
f 435 396 385 381
f 398 387 421 382
f 450 387 398 383
f 419 390 399 384
f 399 392 393 384
f 396 454 397 385
f 442 395 429 386
f 429 430 417 386
f 450 423 420 387
f 420 415 421 387
f 419 434 425 390
f 425 391 439 390
f 439 416 399 390
f 399 416 404 392
f 404 414 394 392
f 394 400 393 392
f 400 402 401 393
f 420 423 440 395
f 442 415 420 395
f 402 403 430 401
f 418 417 430 403
f 416 428 436 404
f 436 413 414 404
f 406 438 427 405
f 436 422 424 413
f 439 463 428 416
f 440 423 434 419
f 433 441 437 426
f 438 432 431 427
