v 0.694567208605669 -1.864595380621845 2.024348662539646
v 0.000431645613651 -1.998609148972436 -2.080226662327869
v 1.747292895851325 -0.964459103536807 -2.041751794362975
v 1.746041689120940 -0.965658245998776 2.024044776536046
v 0.694921183446450 -1.866851990114701 -2.040269842344756
v 1.306488903028035 -1.503617062601673 -1.990498185376627
v -1.733841774070131 -0.989394178066167 -0.688682074707264
v 1.730143465273956 -0.988902768698922 -0.008936723886864
v 1.731400600710313 -0.987041003812513 -0.688247368981762
v 1.730299112238936 -0.986622913184509 0.670426541235081
v 1.289333295444895 -1.518426789760976 -0.683643052153721
v 1.734145013343206 -0.979664339116213 -1.367890400679815
v -1.295782531990369 -1.515965829286138 -1.351414416439597
v 1.287722515331023 -1.519759771841056 -0.008620708136398
v 0.687320069330453 -1.870036594694017 -0.008501825839019
v 0.000515244070215 -1.992911641113609 -0.008489230409214
v -0.686844712464353 -1.871631390887262 -0.008489316317394
v 1.733930060972147 -0.980232099484975 1.349967333773907
v -0.691126918395785 -1.869940950095558 1.344469413298372
v 0.688285846994663 -1.869708125711921 0.667807349809189
v -0.687951618126444 -1.871168441785682 -0.684604805028631
v 0.691744321288869 -1.868307064163044 1.342845328936331
v -0.691017408388253 -1.870030225999348 -1.361118337506917
v -1.288888872996103 -1.522489023259294 -0.008575833978467
v -1.295629521471911 -1.516091862427657 1.335494867633065
v -1.290421573078137 -1.521026124878465 -0.683883890027257
v 0.000627091535677 -1.992853468053727 -1.369656273529413
v 1.294944502365546 -1.513781387077577 1.335151133446252
v -1.732904115923305 -0.991328881825405 -0.008788572661384
v -1.737233843345623 -0.982433687308702 1.348998310863050
v 0.000440955373193 -1.992897484088267 -0.686398067284322
v 0.688319269581187 -1.869692349212456 -0.684795669543257
v 1.968949216568722 -0.342798433026962 0.675876286509471
v -1.968906505995264 -0.343263441397436 0.676531325124355
v -1.968830366845959 -0.344089360746228 -0.008976423688895
v 0.000524567426538 -1.992884984284234 1.352187698773622
v -1.737471066074791 -0.981984520296891 -1.366487810913034
v -1.969325958755420 -0.339504883942106 -1.388731829462251
v 1.295341151112201 -1.513742195761118 -1.351198531401973
v 1.969299984638575 -0.338925978569589 -1.388365312590310
v -1.968919388241033 -0.343161394305267 -0.694851495991800
v 1.969267751096659 -0.339281834571823 1.368068775228278
v 1.289237268351853 -1.518503493784145 0.666605002708133
v -1.969287630717119 -0.339787046459183 1.369104058901503
v 0.691838334905201 -1.868508227118632 -1.359531018546140
v 0.000419043457499 -1.992916435605685 0.669409808344643
v -0.687939713901380 -1.871170721175049 0.667765428028870
v -1.733745476951394 -0.989583256345704 0.671107316377443
v -1.290332863445001 -1.521124638019359 0.666967891735026
v -1.306727100079836 -1.503810410200134 -1.990798402025731
v -1.305684652580620 -1.503204752445067 1.979444578192315
v 1.306889605632431 -1.504750331514714 1.977649801484963
v -1.971244645865910 -0.331135206197185 2.089544344329575
v -1.971178150036033 -0.330184345242850 -2.114094188691298
v -0.694271872638679 -1.865004891778829 -2.037299863340178
v -0.695332417651855 -1.865732338828356 2.019479941262659
v 1.967738999012179 -0.342157760311975 -0.694573179374019
v -1.745456206882304 -0.966253833471766 2.028086969810441
v -1.746254206987414 -0.964863635690383 -2.046044124518556
v 1.971144546754887 -0.330960221068780 2.088610100141137
v 1.972015370322536 -0.330005192478602 -2.114376431333630
v 1.968176844054931 -0.343279556467284 -0.009365252163855
v 0.000273435552143 -1.997993732735005 2.060072126257401
v -0.580944027563412 -1.908291554223766 9.983186529333995
v 0.725041063773924 -1.856833518090835 5.963277807847607
v 0.134203728673532 -1.989078427724825 10.005032811385377
v 1.330979355912027 -1.481897766320554 6.006166745716818
v -1.712421611692332 -1.024206868058194 10.088674517974951
v -1.714822124502892 -1.028596489895003 7.324346832145309
v 1.773933556108758 -0.913779477740314 7.278605460289423
v 1.784538317926657 -0.894877745088938 7.940336599692154
v 1.764335807719719 -0.926769541282818 6.613627768270385
v 1.795602003861162 -0.872002279296871 8.598041806157667
v -1.706006043281491 -1.041755180585501 8.691492055041330
v 1.361995486989424 -1.458328898507796 7.950470054240848
v 0.061689767840733 -1.994928694309638 7.302336358200234
v -0.637662778779370 -1.892143815464543 7.312169715095036
v 0.768672643353530 -1.842252585357256 7.961675476738161
v 1.809455338665105 -0.847653962145564 9.248070504712160
v -0.623983026525216 -1.897855093700331 7.983708488184961
v 1.348197640411076 -1.469735359989749 7.289769796595104
v 0.077381410186171 -1.995448241444041 7.972531190051836
v 0.110591331157305 -1.996329634276323 9.316181781204609
v -1.255298079933001 -1.554230345020621 7.321550751623800
v 0.801191665972030 -1.831172797243791 9.296067142804372
v -0.653931467550596 -1.885516731735836 6.640202163879323
v 1.337873522968913 -1.478613531883200 6.635215807433219
v -0.600896071888808 -1.907392569369145 9.321606327065064
v -1.245578663918196 -1.563419295526744 7.995461357714003
v 0.045742422867596 -1.994359668684870 6.626924306400573
v 1.982654219020615 -0.191528940228515 8.593232515333270
v -1.269725259764891 -1.540374018839487 6.655722647726208
v -1.708878926802542 -1.037878471263709 8.006201268198916
v 1.991203695552024 -0.118530807800644 9.892859928857007
v 0.785050312991392 -1.836666549712669 8.627293265709053
v 1.986330139396907 -0.156028990760370 9.244818062620263
v 0.753154230166302 -1.847560584050737 7.296380454432253
v -1.958774414254946 -0.390589477951038 8.013191183452529
v 1.975241813987179 -0.273328606621660 6.593820142668976
v -1.723049941464748 -1.011661997987363 6.646835460823727
v 1.377472396198973 -1.445524792853849 8.610460807831913
v -1.964212195834694 -0.370772755695797 6.628691841456462
v 0.093003882148698 -1.995990263762080 8.642245463146327
v -1.239622350577888 -1.569063616058355 8.670026369432902
v -1.708066599864341 -1.038597168546699 9.382006656397051
v 0.739119486320178 -1.852359310999331 6.632373603817024
v -1.958578859836169 -0.390882639037561 9.423773199327281
v -1.960854849185331 -0.383084781309427 7.322889685979650
v -1.957986367710524 -0.393405193833493 8.709215544704804
v -0.612338440999642 -1.902723198753197 8.654520397447726
v -1.239223457228093 -1.569597208033733 9.336731413194386
v 1.765280688149023 -0.931334503027078 5.952117620827103
v 1.391935340930664 -1.432897668841226 9.265585064298469
v -1.247693291840620 -1.557852834783826 9.973053177809284
v 1.398615060827564 -1.424269771663151 9.909529624663179
v -1.290775470370127 -1.518638787023090 6.016391016110916
v 0.029936204572236 -1.998828293444940 5.925956060819239
v -1.966083010434843 -0.351509311388980 5.909736936177371
v -0.670172327372368 -1.873575924707328 5.966941515654499
v 0.816606500672408 -1.825447191720276 9.980543628203744
v 1.821570726898221 -0.816068223624004 9.887940803563540
v -1.736876508070408 -0.984717933426543 5.970450107516712
v 1.983114767443122 -0.223314514707558 7.935262472577861
v 1.981545634923561 -0.251198062757654 7.270275888865442
v -1.958111655579363 -0.383565003336559 10.187396390791928
v 1.975692806654596 -0.288535409971496 5.884603460862209
v 0.951605982339829 -0.301135338796164 3.702667763514364
v -0.949694736603276 -0.306134594327289 3.703169961174845
v 0.000801879104876 -0.994858176632188 2.511649087002279
v -0.951350737354040 -0.299194832546275 3.113055075357098
v 0.954498120700218 -0.296670096113237 3.112900751278676
v -0.953379642011553 -0.287152980699474 2.534291138063620
v 0.954013033932982 -0.285628620157401 2.534259777141650
v -0.589266087843958 -0.803116385062352 4.296355013607197
v -0.952150568546554 -0.291207059586264 5.464680985482055
v 0.594296739587016 -0.798278415451887 4.295751826124155
v 0.007057875362979 -0.994978634535692 5.484912051709614
v 0.605264780323280 -0.793720648662231 3.105433198786407
v 0.595542710373782 -0.801435618407855 3.701299904529273
v -0.950892128053346 -0.307226411120282 4.295144567028546
v -0.591166635621301 -0.804280857315471 3.701627975505399
v 0.004215018548229 -0.999163339620648 4.893363423228216
v 0.607089179525707 -0.791687006409419 4.891563884128226
v 0.002538052388747 -0.998589006740138 3.700822672960109
v -0.602088340509925 -0.795249754493592 3.105543285545705
v 0.003427192948392 -0.995392369956829 4.296693680269819
v 0.001829986713172 -0.998558142214784 3.104087302606596
v 0.953886654591615 -0.292427145536333 4.883625953269851
v 0.956740746710258 -0.277607690693523 5.460461087316251
v 0.952008112996460 -0.299865118046730 4.294149168078384
v -0.951158750198275 -0.301661476376808 4.885395913901508
v -0.600775576996216 -0.796868970272253 4.892552324755719
v -0.953541256378020 -0.296491856633910 -1.068032226347142
v 0.951189410150144 -0.297580649752832 -1.753587404432610
v 0.952479582243040 -0.296369301801186 -1.068247627145712
v 0.955645233527139 -0.286949291647760 -2.407187352795013
v -0.955174363069840 -0.286899407321215 -2.406606138889670
v 0.000030850495172 -0.999117160761829 -1.771755867404208
v 0.000045814438595 -0.998261368381958 -1.101721410250363
v 0.000006870716492 -0.996153833429416 -2.434178380962098
v 0.602210850948185 -0.794460003049372 -1.768429790441580
v -0.603990983447540 -0.796075095731634 -1.768445393123493
v -0.605857269139000 -0.793641183220364 -1.097577937703074
v 0.605838633408915 -0.793658807915209 -1.097818502148167
v -0.952650142622757 -0.297968617357641 -1.753322056166831
v 1.495376440640697 -0.058521983724991 10.366934463052099
v -1.433164257109890 -0.429351686582439 9.011210523468234
v 0.259205595417630 -1.475856502903177 8.880034535729001
v -1.066758593690764 -1.049633949831367 9.690794977342062
v 0.932716037401859 -1.171306459996187 8.886276156525801
v 1.335077909504516 -0.676974025590240 9.874453913889035
v 0.225543539522709 -1.479660664286117 10.112070675575424
v 1.344932704387906 -0.659561544516479 9.311448918276685
v -1.441711233273503 -0.392746991981818 10.475337650773954
v -1.438296269351687 -0.417945964149992 9.730129847847735
v 1.327777358119431 -0.689638431850877 10.403436689704424
v -0.460070439094948 -1.421659071425965 9.591896636184281
v -0.478991851042518 -1.413076896830049 10.233540781704907
v 0.249018559296523 -1.475524139851855 9.498228815434718
v 0.903535242523973 -1.187457574453711 9.415841836551227
v 0.901108968966741 -1.190088089814028 9.982291594031382
v 1.359521985436244 -0.617805878584079 8.704976700586769
v 1.496998128355071 -0.043784437399532 9.815705024362130
v -0.444376789720616 -1.430822227466871 8.942190449218907
v 1.498258313769083 -0.022581853207998 9.216730717489465
v -1.053472197339306 -1.064589352478185 9.027476634587817
v -1.466489295026169 0.307344934680938 9.000505026252924
v 1.025165865728434 1.089622150884827 9.225079548372925
v 0.556989332303512 1.387629427259642 8.582191936980813
v 1.372044373178769 0.596851237413340 10.376154050047077
v -0.083426875897275 1.494863186560209 10.092457486764800
v 1.373524956897237 0.595836151491294 9.192492434020586
v 0.526243102331073 1.399346378617308 9.300420813336714
v 1.359131566523170 0.630287879551358 8.513943036826305
v -0.601724660820783 1.371400465138116 8.857107651757442
v 1.375214920074166 0.586235543974751 9.813841267806700
v -1.132845877342134 0.973314680083931 8.997881123029545
v -1.152055599151156 0.953906114417566 9.669696308602166
v -0.015289212100033 1.496984885854908 8.672196810604948
v -0.056631839660181 1.496636441044022 9.409969531116591
v -0.642300015557225 1.347955596669265 9.546357119791235
v 0.497460468843771 1.412059219176416 9.983722224648504
v 1.498795526193616 0.017618098977790 8.528065551004097
v -1.466342817935475 0.312052117540673 10.467559309910673
v 1.015356702234724 1.095694873697915 9.878167562781627
v -0.637745340582596 1.356657492044076 10.229837905948298
v -1.464034563227130 0.311348569309755 9.721868807558671
v 0.647704370208373 0.720855430114982 8.499999999999996
v -0.542110576956103 0.984232876029740 8.500000000000426
v -0.531336383901550 0.238239231434832 8.500000000000092
v -0.485942297370588 -0.468748680829531 8.500000000000540
v 0.187589457219113 -0.508660959488310 8.499999999999778
v 0.115398313509263 0.163348277632050 8.500000000000176
v 0.878462605520120 -0.549258514008997 8.500000000000126
v 0.786238054311543 0.082274696141300 8.500000000000114
v 0.043702699575478 0.872425535969354 8.499999999999932
v -1.213219208110289 0.287332576803346 8.499999999999119
v -0.434442019216268 -1.170199309857530 8.500000000000755
v -1.192395824956265 -0.434943009460363 8.499999999999865
v 0.241029865627367 -1.177178175986448 8.500000000000545
v -0.000130996413239 0.999687617563160 -1.100964391271370
v -0.948886228612295 0.296441520302274 -1.753568235335366
v 0.949423165485447 0.296665010661533 -1.753655386790815
v 0.955510671979264 0.286926098233928 -2.406545577073897
v -0.955206129207499 0.286970492093951 -2.406605218812118
v -0.000118525687002 0.996521410947833 -2.434260938209289
v -0.601484471992737 0.793002557146873 -1.768054828092898
v -0.000127116605932 0.994804901745150 -1.771549754609790
v 0.601240825066297 0.792964413927617 -1.768115994983971
v 0.604987294439609 0.792474580915693 -1.097134346745001
v -0.606221604899020 0.792968610693746 -1.096971419524684
v -0.953747394846003 0.295851836482719 -1.067787103883509
v 0.953796815572200 0.296109362835149 -1.067998313028783
v 0.754211830938976 0.278136044894955 -0.500000000000002
v -0.753323094328120 0.276239390184451 -0.499999999999986
v -0.000030403883989 -0.286728269789841 -0.500000000000006
v -0.000113439889980 0.909457457681833 -0.499999999999995
v 0.000193848995052 -0.910781085356902 -0.499999999999998
v -0.000090110516186 0.285228991081115 -0.500000000000001
v 0.754304195558449 -0.279027273804696 -0.499999999999998
v -0.753814919750901 -0.279013702203014 -0.500000000000020
v -0.951469585200680 0.301649509829853 3.703220194195238
v 0.949540825008967 0.306718315764362 3.702712190907341
v -0.000655174004421 0.994860206697033 2.511719411250564
v 0.951290989458672 0.299413438126190 3.112784785427490
v -0.954438455454763 0.296937119822964 3.113194171251682
v 0.953402022513192 0.287058600979077 2.534000959205255
v -0.953972878936431 0.285763294889496 2.534370280965915
v 0.588514233424792 0.803602033801812 4.296004581764603
v 0.950940437961797 0.295301230397120 5.460703999526588
v -0.594031217363148 0.798506857865179 4.296539282908907
v -0.009167444894695 0.994944921540939 5.486025740030126
v -0.605122572728600 0.793818129053951 3.105639897109881
v -0.595358108042643 0.801589186724798 3.701739091943915
v 0.950458637538146 0.308318886217890 4.294235905231277
v 0.590820359298094 0.804573818741693 3.701442051830722
v -0.005066653115346 0.999093145460637 4.893898602508798
v -0.606699794976934 0.791938005798742 4.892837306524330
v -0.002692375254588 0.998590381431464 3.700991537839752
v 0.601970911404760 0.795344629925227 3.105441442203778
v -0.003789251948969 0.995390331112470 4.296980536282041
v -0.953398233139214 0.294306302754127 4.885658888926976
v -0.001842872305117 0.998555195395180 3.104178056247662
v -0.955311135617674 0.281582557461677 5.464868992102934
v -0.951651415524705 0.300795664748492 4.295203343287911
v 0.950465565937602 0.303742676488328 4.883552292505048
v 0.599618310112839 0.797787539719413 4.891970571961992
v -1.758420116411815 0.947026920280492 5.969558988725577
v -0.133885991659996 1.988901126614795 10.023727837385959
v -0.036813781217493 1.997930686117957 5.928976850528755
v 0.477856592734366 1.939536687920375 10.022334059342281
v 1.546597850862416 1.261417879550383 9.899043792976777
v 1.276075438345933 1.529382966750618 6.006454129319748
v -0.726399121456351 1.859624990449381 5.974877006397012
v 1.899701850822519 0.593558796645381 9.892086215546524
v -1.755452984469742 0.944874837407545 8.698547358585703
v -0.115898655229200 1.989073411817277 8.654410893831162
v 1.680624099966755 1.073813106920318 7.283687005939626
v 1.153498136260218 1.630781459870961 8.623391034720701
v 1.661757424646861 1.107256898383090 7.946397795694388
v 1.604168880088725 1.187201965201599 9.261470654773294
v 1.186102314016312 1.603817140687211 7.958536012271237
v 0.576201910521994 1.907979554239642 7.970370464956908
v -0.757423932912223 1.842205833328011 7.991563167314139
v -0.096531735448021 1.989706038290599 7.981158857796874
v -1.335071276553570 1.478840000176171 8.679839958252355
v -1.328257103848045 1.485279191209711 7.325442268002032
v -0.765919744755305 1.838661218409417 8.665205383428997
v 1.639560030038691 1.145148717264285 8.606274675674335
v -0.132243710387346 1.988499173118135 9.331607679390354
v -0.768148101631322 1.837834530243871 9.335164057939149
v -0.055635978285295 1.990988570858495 6.631331579881631
v -0.735058967793343 1.851263457458931 6.645241015915134
v 1.109193771689805 1.661810501714937 9.289657591218512
v -1.332531375998428 1.481245403375492 8.001665164006056
v 0.545779450853341 1.918389503943211 8.641170016005187
v 1.031655419737922 1.703584906840310 9.961961491674773
v 0.631999838548663 1.888939692790544 6.633924766226663
v -1.754804671901226 0.946202020188490 8.010090256518390
v -1.332988527262445 1.480618334490682 9.350572758162137
v 0.603947977135763 1.898496713650258 7.301302922541588
v -1.973066964726654 0.298128373485399 9.427081218115122
v -1.972635024843321 0.302172858105094 7.323431054826646
v -1.973051852004127 0.297493396388232 8.014509814323356
v -1.973207801269549 0.295812106800362 8.711674090053439
v -1.972213614835979 0.307435618969762 6.628782145046818
v -1.754090454547472 0.947674024548107 9.391586299507548
v 0.511485520338877 1.930085452287092 9.318495495030195
v 1.214146276121433 1.580612385960584 7.294776563662986
v -0.746597871395705 1.846694759533232 7.318037188773772
v -0.076384308598106 1.990368023111855 7.308262672033712
v -1.753241400209057 0.949455034583796 7.326053023077220
v -1.324570687450774 1.488813920681178 6.658286382539778
v -1.752596424115457 0.951375424518721 6.647281914710222
v 1.242620129007454 1.556574167928500 6.637692076743137
v -1.324507272060260 1.487833587935066 6.018544975316898
v 1.699998694287121 1.040477745010807 6.620178487808742
v -1.324702158331329 1.487447965524424 9.995249773199895
v -1.976800497426222 0.302933948097929 10.197247901257615
v -0.754008990586890 1.846903339346600 9.986392250600140
v 0.657546280680416 1.879177321213075 5.959904378630030
v 1.726277034140068 1.002331652119586 5.961544833321835
v 1.931941974221838 0.510453878131655 8.595741207892701
v -1.750758508743743 0.956683246020874 10.107334427361771
v -1.975003499525287 0.309479137380109 5.907824193420264
v 1.947850061429957 0.438675878374892 7.272277997036731
v 1.919747011545738 0.552451362506310 9.247910486523532
v 1.954396966797227 0.406935009138859 6.595867577013896
v 1.960173469476332 0.372649330712246 5.889466096037445
v 1.938894288033365 0.472151065312815 7.937537906832885
v -0.709354999981306 1.611648430908056 5.500000000000139
v 0.675765187184704 1.616646436053850 5.500000000000204
v -1.502244353374106 0.914416441994075 5.499999999999773
v -1.493558083797895 -0.931932468629734 5.500000000000002
v -1.597827440436726 0.297519452933666 5.500000000000265
v -1.594945238748453 -0.319959180513849 5.499999999999995
v 1.586664198770121 -0.286803831692630 5.499999999999987
v -0.019854179935658 1.660800846061631 5.499999999999773
v 1.481175242317382 0.939911909074690 5.500000000000077
v 1.580674133870946 0.330622433822653 5.499999999999987
v 0.015675147582574 -1.658961048352996 5.499999999999986
v 0.707524104506828 -1.607526157343974 5.500000000000002
v -0.681527881462021 -1.614946543966456 5.500000000000075
v 1.492788610792690 -0.905861934313351 5.500000000000055
v 0.456222505034436 1.628621463812369 10.499999999999581
v 0.916367476168266 -1.349062646071735 10.499999999999996
v -0.693577634843189 1.716138268659114 10.499999999999165
v 1.826870076978139 -0.760655707118411 10.499999999999902
v 1.945027010220731 -0.081811416822305 10.499999999999805
v 1.859974624702105 0.611066395340885 10.500000000000110
v -0.530457281542947 -1.762934151416211 10.500000000000668
v 0.978970310349844 1.298208845357505 10.499999999999398
v 0.174538563155151 -1.741775616012401 10.499999999999918
v -0.111122872047381 1.737229665730617 10.500000000000215
v -1.749174467538567 0.965446720987742 -2.044663330093567
v -0.000292616139998 1.998619572379397 -2.079814603807492
v -0.000016376078487 1.998107470365173 2.059739174646749
v 1.745913660581534 0.965883806576526 2.023963260547307
v -0.696139822495683 1.869225006844498 -2.036624809371787
v 0.695116800402904 1.866825901559983 2.023637829020527
v 1.306246614019114 1.504425712648603 1.978076424106080
v -1.734006902083714 0.989066589408645 0.671290524672614
v -0.000062376679651 1.992892263754284 0.669479368277527
v 1.729847324367008 0.989327079533799 -0.009090197104901
v 1.733680852261740 0.980550394920357 1.349919417279023
v 1.730131182916469 0.986917774431120 -0.688419589271881
v 1.288873695236416 1.518805819461690 0.666555789539303
v 1.287321115010966 1.520094927340270 -0.008731596001186
v 0.686815657538783 1.870205490164571 -0.008504191333564
v -0.687360731120633 1.871424781190880 -0.008234841723277
v -1.734126752993854 0.988855299364421 -0.688267764794720
v -0.000025049318268 1.992892581572179 -0.008369373086244
v -1.290723529908823 1.520750759997060 0.667189196200817
v -0.688406671650968 1.870984230946963 0.667917226368768
v 0.000011105009118 1.992708916321832 -1.369378594051547
v 0.691258416665233 1.868692894635127 -1.359646861240787
v -0.691529996996919 1.869816261116833 1.344487300225757
v 1.731215377665386 0.987704071951631 0.670350057572863
v 1.294767936971269 1.514190833630139 1.335167308636406
v -0.691411372085153 1.869517605961950 -1.360695167704836
v -1.289311700399733 1.522090051462161 -0.008247713957736
v 0.000134574941932 1.992848272604440 1.352257810191896
v 0.687838242193325 1.869870637864904 0.667843173814892
v -1.733168987262082 0.990783800297341 -0.008523288027028
v -1.295876391683953 1.515681873926161 1.335679919814176
v 0.687772233067922 1.869878284819051 -0.684838654036016
v 1.968912655858649 0.343202060656849 -0.694889262382413
v -1.968978658991364 0.342546774565664 -0.694695897486903
v -1.968887166053088 0.343470142808610 -0.008875687535983
v -1.968964598930101 0.342659112897104 0.676594045810704
v -1.969342723155825 0.339192085056240 1.369133643178055
v -1.969368529074569 0.338924779599826 -1.388678057942616
v -1.737462551105859 0.981950270387598 1.349124536073234
v 1.288901656609594 1.518780969087937 -0.683849216070772
v 1.969236603925697 0.339672160897685 1.368025704041047
v -1.290863329152670 1.520625451843935 -0.683377464405589
v 0.691421378610166 1.868645835729934 1.343015049775492
v -0.000141264475849 1.992897518561880 -0.686239800295272
v -0.688488644364639 1.870940041677758 -0.684219018195128
v -1.296271402974794 1.515603233427346 -1.350507043397337
v -1.737942123061059 0.981542232825501 -1.365855530680979
v 1.294328815644284 1.513532050369910 -1.351800396496979
v -1.306680754544070 1.503634421713443 -1.989400862407206
v 1.305566808254278 1.504124609114717 -1.991584088061302
v 1.733989873486231 0.980157221794705 -1.367965097877878
v -1.306909554339805 1.504042868904215 1.978899298782933
v -1.971402671976652 0.330514661821666 2.089546100135208
v -0.695486854131190 1.865442987731746 2.020577101898740
v 0.694297716480325 1.866796507145716 -2.040353446986277
v 1.744054910002796 0.964181270278933 -2.040713109255380
v 1.967871776031457 0.342812703292628 0.675700399422737
v -1.745631889020857 0.965773824528954 2.028186698502758
v 1.971109034523322 0.331348120766982 2.088569105673037
v 1.970785078532377 0.339758165301882 -1.388876659348767
v 1.970376153596443 0.329984337268642 -2.113797701166740
v -1.971536204987805 0.329748909748392 -2.113597408362862
v 1.968233471467901 0.343812165456170 -0.009252525193921
v -0.692195290609991 1.598595331604478 -2.500000000000000
v 0.691349019801415 1.597168069839353 -2.500000000000000
v 1.476436568598921 -0.919154398020038 -2.500000000000001
v -1.477095622973968 0.919190667615763 -2.500000000000005
v -1.475900784890632 -0.919300709789278 -2.499999999999998
v 1.561809444246231 -0.306977454934103 -2.500000000000000
v -1.561333538026767 -0.307064391664261 -2.499999999999995
v -1.561770761604669 0.306765016528092 -2.500000000000000
v 1.474922255256590 0.919446221954764 -2.500000000000002
v 0.000288161225361 -1.637256705405889 -2.500000000000001
v 1.561046778483847 0.307090091388636 -2.499999999999996
v 0.692074491385725 -1.598125070017356 -2.500000000000000
v -0.691205569981358 -1.596397566961230 -2.499999999999999
v -0.000242313281535 1.637476435479474 -2.500000000000007
v -0.694157277202166 -1.618664382595163 2.499999999999986
v 0.694546715076450 -1.619067770146436 2.500000000000000
v -1.498406745995474 -0.924060031996798 2.499999999999964
v -1.498712052057237 0.923433163259698 2.500000000000039
v -1.597255985088822 -0.309415400300241 2.500000000000097
v -1.598145182025003 0.308479923370961 2.500000000000020
v -0.000152767520614 1.667417254846404 2.499999999999996
v 1.598219834903289 0.309545545791474 2.499999999999973
v 1.597429718307544 -0.308807183737053 2.499999999999980
v 0.000405004825051 -1.667556104507610 2.500000000000016
v 0.694412713054881 1.619503842567566 2.500000000000021
v 1.499790654763117 -0.923750743995728 2.500000000000012
v -0.694172122997496 1.617690340295040 2.500000000000106
v 1.499131264471130 0.923920929516436 2.499999999999954
v 1.338261210000000 -1.486289650000000 -2.500000000000000
v 1.338261210000000 -1.486289650000000 2.500000000000000
v -1.338261210000000 -1.486289650000000 2.500000000000000
v -1.338261210000000 -1.486289650000000 -2.500000000000000
v 1.338261210000000 -1.486289650000000 5.500000000000000
v -1.338261210000000 -1.486289650000000 10.500000000000000
v -1.338261210000000 -1.486289650000000 5.500000000000000
v 1.338261210000000 -1.486289650000000 10.500000000000000
v 0.669130610000000 -0.743144830000000 2.500000000000000
v -0.669130610000000 -0.743144830000000 5.500000000000000
v -0.669130610000000 -0.743144830000000 2.500000000000000
v 0.669130610000000 -0.743144830000000 5.500000000000000
v 0.669130610000000 -0.743144830000000 -0.500000000000000
v -0.669130610000000 -0.743144830000000 -0.500000000000000
v 0.669130610000000 -0.743144830000000 -2.500000000000000
v -0.669130610000000 -0.743144830000000 -2.500000000000000
v 1.338261210000000 1.486289650000000 -2.500000000000000
v -1.003695910000000 -1.114717240000000 8.500000000000000
v -1.003695910000000 -1.114717240000000 10.500000000000000
v 1.003695910000000 -1.114717240000000 8.500000000000000
v 1.003695910000000 1.114717240000000 8.500000000000000
v -1.003695910000000 1.114717240000000 8.500000000000000
v -1.338261210000000 1.486289650000000 2.500000000000000
v -1.003695910000000 1.114717240000000 10.500000000000000
v 0.669130610000000 0.743144830000000 -0.500000000000000
v -0.669130610000000 0.743144830000000 -0.500000000000000
v 0.669130610000000 0.743144830000000 -2.500000000000000
v -0.669130610000000 0.743144830000000 -2.500000000000000
v -0.669130610000000 0.743144830000000 2.500000000000000
v 0.669130610000000 0.743144830000000 5.500000000000000
v 0.669130610000000 0.743144830000000 2.500000000000000
v -0.669130610000000 0.743144830000000 5.500000000000000
v 1.338261210000000 1.486289650000000 10.500000000000000
v -1.338261210000000 1.486289650000000 5.500000000000000
v -1.338261210000000 1.486289650000000 10.500000000000000
v 1.338261210000000 1.486289650000000 5.500000000000000
v 1.338261210000000 1.486289650000000 2.500000000000000
v -1.338261210000000 1.486289650000000 -2.500000000000000
f 22 28 52 1
f 52 447 433 1
f 433 441 63 1
f 63 36 22 1
f 427 429 5 2
f 5 45 27 2
f 27 23 55 2
f 55 430 427 2
f 420 423 61 3
f 61 40 12 3
f 12 39 6 3
f 6 446 420 3
f 18 42 60 4
f 60 440 443 4
f 443 447 52 4
f 52 28 18 4
f 429 446 6 5
f 6 39 45 5
f 37 13 26 7
f 26 24 29 7
f 29 35 41 7
f 41 38 37 7
f 9 57 62 8
f 62 33 10 8
f 10 43 14 8
f 14 11 9 8
f 12 40 57 9
f 11 39 12 9
f 33 42 18 10
f 18 28 43 10
f 14 15 32 11
f 32 45 39 11
f 50 55 23 13
f 23 21 26 13
f 37 59 50 13
f 43 20 15 14
f 20 46 16 15
f 16 31 32 15
f 46 47 17 16
f 17 21 31 16
f 47 49 24 17
f 24 26 21 17
f 47 46 36 19
f 36 63 56 19
f 56 51 25 19
f 25 49 47 19
f 43 28 22 20
f 22 36 46 20
f 23 27 31 21
f 49 48 29 24
f 51 58 30 25
f 30 48 49 25
f 45 32 31 27
f 48 34 35 29
f 58 53 44 30
f 44 34 48 30
f 62 417 411 33
f 411 395 42 33
f 44 391 390 34
f 390 389 35 34
f 389 388 41 35
f 38 54 59 37
f 41 388 392 38
f 392 416 54 38
f 61 415 414 40
f 414 387 57 40
f 395 413 60 42
f 53 407 391 44
f 449 430 55 50
f 59 422 449 50
f 56 432 448 51
f 448 434 58 51
f 58 434 436 53
f 436 437 407 53
f 424 422 59 54
f 416 425 424 54
f 63 441 432 56
f 387 417 62 57
f 413 439 440 60
f 423 428 415 61
f 88 83 66 64
f 66 353 351 64
f 351 451 114 64
f 114 111 88 64
f 342 450 67 65
f 67 87 106 65
f 106 90 117 65
f 117 341 342 65
f 83 85 120 66
f 352 478 272 297
f 450 344 112 67
f 112 72 87 67
f 125 107 105 68
f 105 111 114 68
f 114 451 464 68
f 464 174 125 68
f 108 102 100 69
f 100 92 84 69
f 84 89 93 69
f 93 98 108 69
f 72 99 124 70
f 124 123 71 70
f 71 75 81 70
f 81 87 72 70
f 123 91 73 71
f 73 101 75 71
f 112 126 99 72
f 91 96 79 73
f 79 113 101 73
f 109 98 93 74
f 93 89 104 74
f 104 111 105 74
f 105 107 109 74
f 101 95 78 75
f 78 97 81 75
f 90 106 97 76
f 97 78 82 76
f 82 80 77 76
f 77 86 90 76
f 80 89 84 77
f 84 92 86 77
f 95 103 82 78
f 96 94 121 79
f 121 115 113 79
f 82 103 110 80
f 110 104 89 80
f 97 106 87 81
f 103 95 85 83
f 88 110 103 83
f 95 101 113 85
f 113 115 120 85
f 119 117 90 86
f 92 116 119 86
f 111 104 110 88
f 123 330 323 91
f 323 327 96 91
f 100 122 116 92
f 96 327 275 94
f 275 350 349 94
f 349 348 121 94
f 109 305 304 98
f 304 303 108 98
f 126 329 328 99
f 328 326 124 99
f 102 118 122 100
f 108 303 306 102
f 306 325 118 102
f 125 319 302 107
f 302 305 109 107
f 344 337 126 112
f 121 348 453 115
f 345 352 297 271
f 452 343 119 116
f 122 334 452 116
f 119 343 341 117
f 336 334 122 118
f 325 335 336 118
f 124 326 330 123
f 174 204 319 125
f 337 340 329 126
f 139 138 131 127
f 131 245 243 127
f 243 255 150 127
f 150 136 139 127
f 130 145 141 128
f 141 134 140 128
f 140 265 242 128
f 242 246 130 128
f 441 433 454 129
f 454 138 147 129
f 147 145 456 129
f 456 432 441 129
f 246 248 132 130
f 132 456 145 130
f 138 454 133 131
f 133 247 245 131
f 436 434 456 132
f 248 437 436 132
f 440 439 247 133
f 454 443 440 133
f 141 144 146 134
f 146 142 152 134
f 152 151 140 134
f 151 152 455 135
f 455 334 336 135
f 336 335 264 135
f 264 262 151 135
f 150 148 143 136
f 143 142 146 136
f 146 144 139 136
f 142 143 457 137
f 457 342 341 137
f 341 343 455 137
f 455 152 142 137
f 139 144 147 138
f 151 262 265 140
f 145 147 144 141
f 148 149 457 143
f 150 255 266 148
f 266 250 149 148
f 250 340 337 149
f 337 344 457 149
f 241 459 163 153
f 163 162 165 153
f 165 222 232 153
f 232 235 241 153
f 223 224 156 154
f 156 460 161 154
f 161 164 155 154
f 155 233 223 154
f 240 234 233 155
f 164 458 240 155
f 224 428 423 156
f 423 420 460 156
f 165 162 461 157
f 461 422 424 157
f 424 425 225 157
f 225 222 165 157
f 159 164 161 158
f 161 460 160 158
f 160 461 162 158
f 162 163 159 158
f 238 458 164 159
f 163 459 238 159
f 460 429 427 160
f 427 430 461 160
f 349 350 190 166
f 190 196 183 166
f 183 171 176 166
f 176 348 349 166
f 186 463 219 167
f 219 217 187 167
f 187 207 175 167
f 175 169 186 167
f 170 465 220 168
f 220 218 184 168
f 184 177 179 168
f 179 180 170 168
f 464 178 177 169
f 177 184 186 169
f 175 174 464 169
f 180 173 182 170
f 182 214 465 170
f 183 185 173 171
f 173 180 181 171
f 352 345 202 205
f 178 351 353 172
f 352 205 196 190
f 181 180 179 172
f 179 177 178 172
f 185 203 182 173
f 175 207 204 174
f 350 478 352 190
f 464 451 351 178
f 203 215 214 182
f 196 192 185 183
f 218 463 186 184
f 192 194 203 185
f 217 467 197 187
f 197 198 207 187
f 205 202 193 188
f 193 189 466 188
f 466 194 192 188
f 192 196 205 188
f 193 200 199 189
f 199 216 208 189
f 208 194 466 189
f 346 453 348 176
f 346 181 172 353
f 354 347 206 191
f 206 201 200 191
f 200 193 202 191
f 202 345 354 191
f 208 215 203 194
f 201 198 197 195
f 197 467 209 195
f 209 216 199 195
f 199 200 201 195
f 469 204 207 198
f 201 206 469 198
f 181 346 176 171
f 469 324 319 204
f 347 480 469 206
f 216 213 215 208
f 467 217 210 209
f 210 213 216 209
f 211 212 213 210
f 217 219 211 210
f 219 463 218 211
f 218 220 212 211
f 220 465 214 212
f 214 215 213 212
f 231 227 228 221
f 228 229 230 221
f 230 470 237 221
f 237 471 231 221
f 225 473 227 222
f 227 231 232 222
f 233 230 229 223
f 229 472 224 223
f 472 426 428 224
f 425 421 473 225
f 228 227 473 226
f 473 418 431 226
f 431 419 472 226
f 472 229 228 226
f 233 234 470 230
f 471 235 232 231
f 240 236 239 234
f 239 237 470 234
f 239 236 241 235
f 471 237 239 235
f 240 458 238 236
f 238 459 241 236
f 265 251 254 242
f 254 253 246 242
f 245 260 256 243
f 256 249 255 243
f 476 442 438 244
f 438 444 474 244
f 474 253 263 244
f 263 260 476 244
f 247 476 260 245
f 253 474 248 246
f 439 445 476 247
f 474 435 437 248
f 256 259 261 249
f 261 257 267 249
f 267 266 255 249
f 266 267 475 250
f 475 339 340 250
f 265 262 258 251
f 258 257 261 251
f 261 259 254 251
f 475 267 257 252
f 257 258 477 252
f 477 331 338 252
f 338 332 475 252
f 254 259 263 253
f 260 263 259 256
f 262 264 477 258
f 335 333 477 264
f 333 335 325 268
f 325 306 314 268
f 314 313 316 268
f 316 479 333 268
f 271 308 290 269
f 290 291 320 269
f 320 347 354 269
f 354 345 271 269
f 321 332 338 270
f 338 331 274 270
f 274 293 292 270
f 292 298 321 270
f 453 346 120 115
f 297 294 308 271
f 275 327 281 272
f 281 294 297 272
f 120 346 353 66
f 478 350 275 272
f 322 339 481 273
f 481 332 321 273
f 321 298 315 273
f 315 317 322 273
f 331 479 316 274
f 316 313 293 274
f 299 304 305 276
f 305 302 307 276
f 307 300 286 276
f 286 295 299 276
f 296 283 285 277
f 285 284 288 277
f 288 291 290 277
f 290 308 296 277
f 317 315 309 278
f 309 282 280 278
f 280 330 326 278
f 326 328 317 278
f 289 280 282 279
f 282 283 296 279
f 296 308 294 279
f 294 281 289 279
f 289 323 330 280
f 327 323 289 281
f 309 301 283 282
f 301 311 285 283
f 285 311 310 284
f 310 287 295 284
f 295 286 288 284
f 300 291 288 286
f 313 314 312 287
f 312 299 295 287
f 310 293 313 287
f 300 318 320 291
f 293 310 311 292
f 311 301 298 292
f 301 309 315 298
f 312 303 304 299
f 307 324 318 300
f 319 324 307 302
f 312 314 306 303
f 328 329 322 317
f 324 469 480 318
f 480 347 320 318
f 329 340 339 322
f 477 333 479 331
f 481 339 475 332
f 455 343 452 334
f 457 344 450 342
f 421 425 416 355
f 416 392 401 355
f 401 400 403 355
f 403 483 421 355
f 431 418 359 356
f 359 380 375 356
f 375 376 409 356
f 409 419 431 356
f 382 377 408 357
f 408 444 438 357
f 438 442 360 357
f 360 397 382 357
f 365 379 361 358
f 361 482 445 358
f 445 439 413 358
f 413 395 365 358
f 418 483 403 359
f 403 400 380 359
f 442 482 361 360
f 361 379 397 360
f 384 389 390 362
f 390 391 393 362
f 393 385 373 362
f 373 381 384 362
f 372 370 374 363
f 374 377 382 363
f 382 397 383 363
f 383 369 372 363
f 366 394 368 364
f 368 367 378 364
f 378 411 417 364
f 417 387 366 364
f 378 367 379 365
f 395 411 378 365
f 405 402 394 366
f 387 414 405 366
f 368 369 383 367
f 383 397 379 367
f 394 386 369 368
f 386 398 372 369
f 399 396 381 370
f 381 373 374 370
f 372 398 399 370
f 401 392 388 371
f 388 389 384 371
f 384 381 396 371
f 396 400 401 371
f 385 377 374 373
f 380 399 398 375
f 398 386 376 375
f 386 394 402 376
f 402 404 409 376
f 385 406 408 377
f 400 396 399 380
f 393 412 406 385
f 407 412 393 391
f 405 410 404 402
f 462 419 409 404
f 410 426 462 404
f 414 415 410 405
f 412 435 468 406
f 468 444 408 406
f 437 435 412 407
f 415 428 426 410
f 473 421 483 418
f 462 426 472 419
f 446 429 460 420
f 461 430 449 422
f 456 434 448 432
f 447 443 454 433
f 474 444 468 435
f 476 445 482 442
