v 1.903157832184710 8.209060115296676 -5.355565639572128
v 1.766757803280980 6.893936329908706 7.006087831640071
v 5.251291038633333 7.864697290903670 -3.213229781602979
v 5.168549519519402 8.539782195930115 0.297264530825274
v 1.842802892594456 8.921681471055242 -4.089447715151326
v 2.653985632129077 8.180666555377497 5.092466897878651
v 0.927276973462657 7.967814883918161 -5.961506140618747
v 9.740496590432251 2.036167756295152 -0.868512250415659
v 1.481526112316736 1.865638505714408 -9.694935259949883
v 4.810381880535753 8.539738008940621 -1.920402801505669
v 7.577285132067455 6.269441848075863 1.752754096244562
v 3.444019959023787 2.639706391286316 -9.003547769571590
v 2.814514993201537 8.377712380630719 -4.657442136066006
v 1.937351175164421 7.287890454315656 -6.553691972057207
v 1.786237245938086 3.412969347554821 -9.215613648747471
v 1.316387508387137 2.507315791133543 9.573934764550742
v 8.729048248379124 1.959934126184482 4.435879315954825
v 3.833108313314122 2.309749652816947 8.930696618731639
v 5.693310770250038 3.214942906369256 7.559150996568409
v 4.071881168354370 9.045952773687425 1.192471182568793
v 0.754031614068959 3.519374503098502 9.315914613041080
v 7.001752903162103 2.506595837698825 6.671770867555965
v 6.306500360909284 1.085082852803577 -7.661230072503223
v 1.752878535286682 5.578324090397055 8.106544973561636
v 8.414764472560899 3.036083006732579 4.464899884644161
v 3.479801099233551 4.989577772035478 7.921110450302855
v 1.720964896653850 8.803281019340918 4.402132996862891
v 7.901043472798427 5.253433276652121 3.129744373033358
v 6.140381223559549 7.114300777990957 -3.388085572895820
v 5.018748254262530 8.526087201457187 1.395774429490229
v 3.726673196133792 9.017503060233430 2.138383350433346
v 4.458000847288785 6.568884950317194 6.058309101852791
v 4.421937414966375 7.565398694256456 4.792368974404878
v 3.497310085715839 8.281425245136925 4.350668396064787
v 4.316743462192818 8.517524901183354 -2.940462273414065
v 5.917885426635868 6.955032780988368 4.044660914518698
v 8.106409365175779 5.392843927120373 -2.269038262626803
v 6.728951731276034 4.906019049911066 5.512517945587975
v 2.279974483613344 0.168543087264940 9.720379642334592
v 8.823883774466196 4.299690576080715 1.838639309719435
v 4.591505959953924 7.804899743697888 -4.222310916342058
v 8.284089517730347 4.295238352718465 -3.562031821315426
v 9.354476711630351 0.890533115476808 -3.408730680182758
v 6.534453520069242 0.928712308711368 7.499708482846374
v 9.523087259661276 2.060019901340938 -2.202380078578535
v 8.166311783475614 0.820842623088410 -5.687000104453452
v 2.691113985760666 7.211779421881971 6.367879387049769
v 3.999253374168300 1.371657355020536 -9.047655917325001
v 9.723144689443339 0.814867670332124 -2.141009230133105
v 8.939291885434343 4.362661172979863 -0.917238917481630
v 8.267245251357314 0.785451630298175 5.546883542028281
v 7.671743930563786 5.323304230446393 -3.547245443084938
v 7.338453363171011 1.423638343491525 6.617816001522527
v 9.923578056916318 0.751318427754697 -0.841458878764901
v 7.572710159616445 0.381051086162412 6.501490540631584
v 8.699730105709843 4.353341803038746 -2.268039508226050
v 5.275043923851197 6.747194761076384 5.141846280120081
v 2.462309609305837 2.232878868214563 -9.415496066169133
v 6.342764155442511 6.151248943198674 -4.656132993755074
v 5.072256553772974 7.731368235001566 3.780131713186808
v 3.320704158936675 0.576030125206639 9.402532077041897
v 3.013688254686035 0.926409043963048 -9.476303637244705
v 9.950662811600761 0.730341594706742 0.472640963048462
v 8.982584358191554 4.345308566623326 0.461732212632464
v 8.401317478967453 5.383214693972420 0.437226649298048
v 5.651967005565194 0.339530968263166 8.227353126673178
v 1.923010318714945 4.846764696772611 -8.522264134972904
v 7.300829082194042 3.883052064893874 5.602283410645807
v 0.847782382124013 5.083585408995477 8.563179512260239
v 0.490172973265292 1.528828635571461 -9.853495894684672
v 2.289375409906540 2.989020278414973 9.250113666941402
v 4.385861456603425 5.345000337312314 7.205610321047258
v 6.082018099499700 7.917995881062745 0.342416769564451
v 2.747297049628790 3.797239657671493 -8.818756531967484
v 2.840225533789004 1.838192363694581 9.404092534730539
v 3.702690888003072 4.180371609553623 -8.280207864674022
v 4.727817225184447 6.900558528877294 -5.456426766516069
v 5.503313229654180 7.024432240539690 -4.487226520777361
v 2.561569636508294 4.560160663422543 8.511257059306235
v 4.184954356767822 3.911029929636975 8.178824086133259
v 5.320968844324504 3.419029943745514 -7.736481291298504
v 3.250247574620191 3.466069561235901 8.783622288698275
v 4.740101116338960 5.806474869718281 -6.601176107968559
v 2.670877373530621 5.997264940657736 7.535890158045540
v 8.215350735476088 3.113433433392149 -4.767827781056185
v 7.149525306259191 1.532797913531745 -6.805458599630839
v 4.124879081728931 9.067394653855274 -0.748074992187950
v 7.523744533988056 2.922641421139113 -5.883841368234323
v 4.395476900905466 3.036627439874728 -8.436918150780675
v 5.599297524048308 6.002817629024552 -5.704333459653657
v 3.792356908763908 7.701107106557487 -5.113290358781269
v 5.527073634847261 4.802760073775053 -6.791837660167939
v 4.206068088341063 9.057513865316203 0.224864022313209
v 0.827131455337451 6.488103503349876 7.553109704262937
v 8.930954625830751 3.141523597595022 3.191920590386877
v 4.631063892061951 4.519417765801762 -7.608343160193842
v 3.830464490733457 5.552260950294591 -7.376773307886572
v 9.439194083843901 3.221285487926638 0.478576405751797
v 6.862813329979408 7.200578205969993 -0.912904304779716
v 9.280692253486773 3.195471308447017 1.851257354727126
v 2.897200185435233 7.530835674073913 -5.890652529994398
v 5.950947451896473 4.635599820360705 6.546227646251191
v 5.944276389437967 7.876337651411306 1.553178921257748
v 3.369619083321115 9.042716500144127 -2.582405148336202
v 8.473016673297520 4.224491665008667 3.178680475450058
v 7.752242348408156 2.826563918665398 5.627661400430117
v 3.851279110504214 9.057091323652759 -1.695422607054937
v 6.537169921016732 3.585138530555497 6.647773475411856
v 3.243673583854537 8.947865716777558 3.034353912104487
v 6.591208469784267 7.180859148584176 -2.179318878620650
v 9.773663654196451 2.022890722707468 0.482980861821759
v 6.694304983396885 6.080466630611968 4.236552705045856
v 7.215023590513760 6.206306948402649 3.035902265643642
v 3.579138168953225 6.325359711720424 6.851634220402435
v 6.433865860298143 7.075993872120175 2.893549479690705
v 6.056326517422793 5.869675922793649 5.361489697653578
v 5.093363214533865 4.300668549941101 7.439810522972563
v 9.406227606382409 3.237416489671194 -0.895626925897586
v 6.949410331759386 6.266851391198410 -3.490659821979014
v 2.686074051325747 9.005137651321565 -3.386646369286649
v 8.252501119831189 5.327134929759251 1.805260875760700
v 7.083737532101045 5.200202382229815 -4.743973247880070
v 8.075915571662621 1.777729542464321 5.601859065524827
v 9.799808371181314 0.769192691156050 1.789451264856098
v 6.359098722936510 5.028043397159100 -5.838564780339176
v 9.607637131021230 2.021644932916463 1.835066741055779
v 4.445531937443118 0.023782304759976 -8.945321889010721
v 7.392000861032910 6.334699140823713 -2.238326704292652
v 6.940973186263612 7.174632617665559 0.380318427314220
v 5.254576407405626 5.630803585779899 6.359080254471181
v 7.709465920296232 4.180098218466303 -4.779567225386390
v 2.548313338490646 8.892188844806704 3.773681878882400
v 8.772276462535217 3.206977630885786 -3.541075668477365
v 7.383778024156953 5.122793564450815 4.367459232377557
v 6.801443310080106 7.126626079107799 1.668925512428654
v 0.969322595184137 4.435042686132849 -8.893895921045303
v 5.570951732479624 7.840813217245536 2.696949117106271
v 4.958172339620328 1.829556728928601 -8.471982595807873
v 7.448796123053565 0.456090166871334 -6.649174942821705
v 0.819391959059116 7.672569503075826 6.341475340693774
v 5.271920266981095 1.592690945100866 8.333947639449427
v 2.883507708160902 5.223896216817821 -8.010401938016091
v 6.006012143917318 7.934732919434882 -0.878583413718575
v 8.352158762017167 5.406187020802451 -0.929855095323568
v 5.083372073406184 8.560512488346188 -0.829727875802572
v 0.843799698011306 3.060353616115311 -9.469013053737676
v 7.717176512013085 6.332184823124685 0.409788609137526
v 5.400704955852174 0.569082304561146 -8.382362913268953
v 4.319920832360483 1.069896126169969 8.945107559614545
v 9.177075671492680 3.242237525269370 -2.243763446949242
v 1.757860196891897 7.976561972108416 5.751598103261351
v 7.003297945250135 3.995402516444303 -5.894812315146135
v 7.954499650919646 4.097564224906703 4.440006785347059
v 7.908834944820727 1.848059420866466 -5.810982715512051
v 3.583056312070306 7.427238074140732 5.637730927011706
v 8.583073080739879 2.024522467452275 -4.704533174689125
v 6.167811243241704 2.081303195202519 7.572459084527871
v 7.651127601289714 6.352850459450385 -0.928802791889326
v 6.737019094048222 2.638418673291230 -6.883415061216738
v 3.853489165911152 6.726968471689643 -6.298410800628321
v 9.123753342185200 2.074223391868966 -3.485876327613678
v 6.197816520273907 3.738285884976917 -6.882071046740061
v 4.784674645613542 2.778751708848157 8.315701091548075
v 8.940698991434376 0.881171161453061 4.375708457171207
v 2.001706798917915 0.518422199173550 -9.769976555722195
v 0.925856311432142 8.765052071289116 -4.707181739272569
v 9.262349700071905 2.013983798349530 3.166006770307584
v 0.836104227963844 8.620921996827551 4.980736044194854
v 4.166294575389619 8.395663799041026 3.447371913903666
v 1.644631115773642 4.067460633528203 8.974408059799016
v 0.962894367577861 5.763675925260247 -8.103239944387829
v 5.877701437566204 2.265730896629860 -7.751978352800196
v 0.707189034723314 1.129148130033599 9.892028245155135
v 0.934250435744234 6.954597423661184 -7.107808973236530
v 0.984492823711523 0.186286449432469 -9.945125336067687
v 1.948412006876775 6.155850182258857 -7.620730837936376
v 2.918343048742325 6.477815362674738 -7.021230738505746
v 9.460918867590095 0.833645134789604 3.099276525375899
v 0.044837836355412 4.001774430792608 -9.154173361393489
v 8.814721722915799 0.933514861166129 -4.602368909602379
v 3.630864102530044 8.471725608633959 -3.854646763575841
v 4.659380849620423 8.501007082444042 2.442823669750641
v 0.300522842437671 2.095436459466793 9.762829029324884
v 1.806568495736984 1.415137186221342 9.724358269667112
v 5.727149738226515 7.919743103005196 -2.077098553013083
v 7.958269695903482 0.000000000000000 -2.076212748785246
v 1.164545904100230 0.000000000000000 9.855705614527723
v 2.138899870699952 0.000000000000000 -8.815515688028629
v 5.553771792875912 0.000000000000000 5.722141617725239
v 9.056697796354303 0.000000000000000 -3.326125838135620
v 4.383914112732917 0.000000000000000 -7.487558557391303
v 5.502230161791744 0.000000000000000 -7.460941330036665
v 6.593892626621249 0.000000000000000 5.678432057519805
v 0.894249794271307 0.000000000000000 -4.723354241157111
v 7.864679015772520 0.000000000000000 3.038927004204810
v 0.925461299540267 0.000000000000000 -7.306127155115915
v 0.900464309256350 0.000000000000000 -6.006291741827603
v 3.302413104157345 0.000000000000000 3.049194461907587
v 3.259536360138817 0.000000000000000 -0.849733937558416
v 2.160689435312193 0.000000000000000 3.025656055146857
v 1.014832684861208 0.000000000000000 2.992633598978913
v 3.290300770467269 0.000000000000000 1.741442542480792
v 5.542358169180236 0.000000000000000 4.378458531221517
v 2.098797084151439 0.000000000000000 -0.866273556224195
v 6.740705339504158 0.000000000000000 -2.085712403715334
v 6.808427577200094 0.000000000000000 0.470598587996214
v 3.277392272959858 0.000000000000000 0.443116639072807
v 1.048048722104994 0.000000000000000 4.300857343182042
v 1.130826114325064 0.000000000000000 6.978374660366688
v 5.457923566629901 0.000000000000000 -4.690800226831140
v 0.961533269136282 0.000000000000000 0.401031104522663
v 6.513823583075734 0.000000000000000 -5.940616013976886
v 6.797457759111001 0.000000000000000 -0.811492415601577
v 5.599915842805341 0.000000000000000 -0.821172503904123
v 4.467549436425141 0.000000000000000 5.736635926146203
v 2.119248729484955 0.000000000000000 0.424272348884381
v 0.917672191641266 0.000000000000000 -2.166653876613680
v 3.352597140302166 0.000000000000000 5.722916481684791
v 2.222841251377030 0.000000000000000 5.682307047180699
v 4.345293717490726 0.000000000000000 -6.081927491932040
v 6.707125000845942 0.000000000000000 3.052771567153691
v 5.504342167222768 0.000000000000000 -3.389274487184501
v 1.087217393502119 0.000000000000000 5.626352417579784
v 5.570594983003868 0.000000000000000 3.061675441561725
v 5.614276144102185 0.000000000000000 0.466121782979592
v 5.558626610556736 0.000000000000000 -2.103576301166235
v 4.341756442031677 0.000000000000000 -4.733055742231935
v 4.439151016792907 0.000000000000000 3.062325575058310
v 2.266882121315437 0.000000000000000 7.054551153178249
v 3.320594330636091 0.000000000000000 4.374160961651697
v 4.441483774005999 0.000000000000000 4.385547781864881
v 4.362992877274422 0.000000000000000 -3.418788294126080
v 6.646374955728739 0.000000000000000 -3.351411294263389
v 6.775954828307215 0.000000000000000 1.758726268164313
v 5.604025054490338 0.000000000000000 1.759954701571953
v 0.986441626242307 0.000000000000000 1.693401491495182
v 4.395603405677797 0.000000000000000 -2.124256111427133
v 0.938414548694922 0.000000000000000 -0.884956898471477
v 4.423474731063109 0.000000000000000 -0.834207524534343
v 4.440428430166840 0.000000000000000 0.457176746491628
v 4.442567730639006 0.000000000000000 1.754505779454579
v 9.256726408843612 0.000000000000000 -2.090940352978635
v 7.509898316755166 0.000000000000000 -5.786234958019570
v 2.187068650711037 0.000000000000000 4.344413589872500
v 8.744781422354443 0.000000000000000 -4.507147278272846
v 7.534772337722435 0.000000000000000 5.615317779181741
v 8.798018979853158 0.000000000000000 4.293149678792478
v 6.584357059164256 0.000000000000000 -7.368184592530167
v 6.711902644851719 0.000000000000000 7.057877701193220
v 3.212127911876713 0.000000000000000 -6.080920691087252
v 2.054965595465436 0.000000000000000 -4.739030740023242
v 3.204173856585921 0.000000000000000 -4.745990007916209
v 3.216335686876871 0.000000000000000 -3.436732931111354
v 2.139685936073747 0.000000000000000 1.720114134989341
v 0.978311377072426 0.000000000000000 -8.667804080272528
v 2.063201192074025 0.000000000000000 -6.056066993327841
v 2.078499292837705 0.000000000000000 -2.154755750662572
v 2.092232961531927 0.000000000000000 -7.403824776749259
v 0.901229218628490 0.000000000000000 -3.445306849972059
v 1.165562881851866 0.000000000000000 8.381303659080871
v 3.237552933991289 0.000000000000000 -2.140685414124603
v 7.611928180364050 0.000000000000000 -4.535639033232512
v 2.062387832537610 0.000000000000000 -3.443671454718108
v 6.545387638411924 0.000000000000000 -4.620608296071580
v 4.528927588454629 0.000000000000000 7.126892259664503
v 7.989782737776483 0.000000000000000 1.753513075652963
v 5.447238971973963 0.000000000000000 -6.033590195914670
v 0.040466840807268 0.000000000000000 8.257366008639764
v 8.036745268955078 0.000000000000000 -0.810141521963118
v 9.356144740612313 0.000000000000000 0.461690957152300
v 9.106805760388205 0.000000000000000 3.030665412462703
v 9.274254827975719 0.000000000000000 1.749316449420423
v 3.296970520116048 0.000000000000000 -8.917636645489495
v 5.635328796006860 0.000000000000000 7.116483000568266
v 4.628186249548346 0.000000000000000 8.576112086746960
v 9.345436594593963 0.000000000000000 -0.822651934903362
v 6.622049123456254 0.000000000000000 4.355791758860452
v 3.466275195740813 0.000000000000000 8.527090904106466
v 2.309870639670635 0.000000000000000 8.464561932990689
v 3.245060408687046 0.000000000000000 -7.467483948690216
v 3.402693206623180 0.000000000000000 7.106154693601358
v 7.817208368830514 0.000000000000000 -3.322786505504301
v 8.049648784478403 0.000000000000000 0.468626066049083
v 7.672705807334125 0.000000000000000 4.322716934866467
v 0.000000000000000 0.998545953770522 9.376206420603054
v 0.000000000000000 5.993265030532150 1.464058752364102
v 0.000000000000000 7.089224943945428 5.420762599304640
v 0.000000000000000 2.618142010276092 -3.483508373790965
v 0.000000000000000 2.791540107511437 -8.894799773633114
v 0.000000000000000 2.048649412074989 8.966398469709826
v 0.000000000000000 2.586685559226368 -2.233349980472474
v 0.000000000000000 4.786989203466369 2.801019879189767
v 0.000000000000000 1.250268676943765 4.195624818159748
v 0.000000000000000 2.743849959867941 -8.048707983799211
v 0.000000000000000 14.671927539509856 2.079950129612557
v 0.000000000000000 1.479364200822701 -7.078616571242096
v 0.000000000000000 2.356352771681358 5.409223749033992
v 0.000000000000000 3.364677300588291 7.751846198603221
v 0.000000000000000 10.758110492579663 3.640509373016585
v 0.000000000000000 15.890555476116475 -2.566639881500262
v 0.000000000000000 1.421029093362129 -9.286877755856302
v 0.000000000000000 4.750772658533165 4.088427117949237
v 0.000000000000000 7.168226807034006 1.410055401479684
v 0.000000000000000 5.195922090417302 -7.270628126665841
v 0.000000000000000 0.281601279109868 -5.948109472723107
v 0.000000000000000 4.673284180591775 6.605316512701362
v 0.000000000000000 5.903549801810573 6.669245462503655
v 0.000000000000000 12.141186445274684 -2.596849029465896
v 0.000000000000000 0.279289249269944 -4.704445647453973
v 0.000000000000000 10.862229866743276 -1.339609486283163
v 0.000000000000000 14.658126206243779 -1.383489871366908
v 0.000000000000000 8.472171852903429 -5.216577205385531
v 0.000000000000000 15.897918661800821 -1.342948691809696
v 0.000000000000000 1.467706151434808 -8.193031238143146
v 0.000000000000000 6.057659984472807 -1.120744477923358
v 0.000000000000000 1.415844584972369 -2.202933035726762
v 0.000000000000000 12.104075836234660 1.073318904319379
v 0.000000000000000 0.136479335179850 2.952680061180686
v 0.000000000000000 9.564119420954320 -2.597179313836711
v 0.000000000000000 1.440773258497966 -3.457416343903522
v 0.000000000000000 9.504200885758191 2.550881173889339
v 0.000000000000000 15.937868270779434 -0.197895384718965
v 0.000000000000000 6.317220640866232 -6.223061609829834
v 0.000000000000000 0.224140758858834 -0.907693029480821
v 0.000000000000000 0.247850528935626 -2.181287637853009
v 0.000000000000000 0.266883385474525 -3.447370634589365
v 0.000000000000000 7.538551666150688 -6.404700565593016
v 0.000000000000000 9.614625694235897 -1.300772500396628
v 0.000000000000000 12.130444614950992 -1.366547587779968
v 0.000000000000000 15.979283662165264 0.910994172418874
v 0.000000000000000 12.079237657280451 2.283339446610881
v 0.000000000000000 0.169104324420058 1.660948015794348
v 0.000000000000000 0.209702482973654 -8.448654086157504
v 0.000000000000000 1.060366803035372 8.023906890326375
v 0.000000000000000 9.613962153237129 -0.022699431518975
v 0.000000000000000 0.097546202513776 4.249023067740264
v 0.000000000000000 8.281468965549694 2.665096315174467
v 0.000000000000000 0.267041064559798 -7.178048036439412
v 0.000000000000000 0.051990286102761 5.553294426918227
v 0.000000000000000 0.001385985513213 6.873156568310403
v 0.000000000000000 1.462466892273621 -4.692514673470773
v 0.000000000000000 6.028780334585861 0.167706357946645
v 0.000000000000000 3.463068351090680 6.592245122172697
v 0.000000000000000 4.503892634750020 8.900134954253126
v 0.000000000000000 3.948825887975548 -7.097786349382622
v 0.000000000000000 5.104462656851226 -6.064937975821813
v 0.000000000000000 1.476480028455459 -5.901095366805029
v 0.000000000000000 12.169155445072519 -3.818495756687349
v 0.000000000000000 3.891704405062786 -5.955024873284854
v 0.000000000000000 13.443419699842739 -3.804805574760942
v 0.000000000000000 8.396398084466853 0.044422838391653
v 0.000000000000000 2.709345911637410 -7.022839303491931
v 0.000000000000000 2.681829247034194 -5.901227087115769
v 0.000000000000000 7.116640340906820 2.727219573077087
v 0.000000000000000 10.832242794588389 1.162917225628526
v 0.000000000000000 10.857136610864178 -0.085898518542724
v 0.000000000000000 1.291913545175184 2.910117590045679
v 0.000000000000000 3.529654556131739 5.369562001053502
v 0.000000000000000 3.618575558673733 2.832830625676902
v 0.000000000000000 3.795509000559903 -3.529729556441821
v 0.000000000000000 2.453149449486542 2.869919095563698
v 0.000000000000000 5.953734895920451 2.767504153798650
v 0.000000000000000 6.202596912066642 -4.956166897032957
v 0.000000000000000 8.367252266227597 -2.552700612502317
v 0.000000000000000 8.403011371978067 -1.248089958458856
v 0.000000000000000 3.578143808851635 4.111299294499672
v 0.000000000000000 6.126576308821079 -3.682547444408316
v 0.000000000000000 13.399307385414634 -1.383720940805564
v 0.000000000000000 3.840050050199729 -4.756925112055955
v 0.000000000000000 4.858602999401800 0.219909038817055
v 0.000000000000000 13.383580222709325 1.002314109059885
v 0.000000000000000 4.823572247321888 1.508873630973467
v 0.000000000000000 2.555772862110540 -0.968007052355718
v 0.000000000000000 6.085780910936741 -2.403886725296617
v 0.000000000000000 4.890967785644573 -1.062146188745200
v 0.000000000000000 14.709754608458688 -3.827724349291067
v 0.000000000000000 12.120757937560638 -0.142211275133345
v 0.000000000000000 10.860271510354298 -3.870938872435138
v 0.000000000000000 4.967442047860391 -3.598171550731460
v 0.000000000000000 5.903899437191392 5.379193303056310
v 0.000000000000000 3.723638020908410 -1.010827234998601
v 0.000000000000000 1.359842823973104 0.342515555331263
v 0.000000000000000 2.524362043495810 0.306656975419953
v 0.000000000000000 8.185369697625472 4.049923311218320
v 0.000000000000000 7.231328993664366 -2.479990012851863
v 0.000000000000000 5.921415611940393 4.076616848805101
v 0.000000000000000 7.075358758732651 4.068428795292160
v 0.000000000000000 5.027066711097547 -4.842932774660866
v 0.000000000000000 1.389196045498007 -0.934089236212741
v 0.000000000000000 4.925174822452362 -2.335789309523650
v 0.000000000000000 13.365954062575920 2.177707305847747
v 0.000000000000000 2.410577022361682 4.147785835252870
v 0.000000000000000 10.849964709242984 -2.603640311787212
v 0.000000000000000 4.000849844672580 -8.171676483456919
v 0.000000000000000 3.690711417601339 0.265854083535138
v 0.000000000000000 13.333145156189438 3.353660662374102
v 0.000000000000000 13.414089877718723 -2.596471854671775
v 0.000000000000000 4.715067949252695 5.361641700546023
v 0.000000000000000 3.655960597029033 1.549086590530102
v 0.000000000000000 1.198817447152230 5.474841537866906
v 0.000000000000000 1.327990442769917 1.624973737384794
v 0.000000000000000 8.244671556832738 5.470635973284713
v 0.000000000000000 7.225055523154644 -1.184841492217101
v 0.000000000000000 3.197737422385281 8.790120479126971
v 0.000000000000000 12.054980768539075 3.483925132153406
v 0.000000000000000 14.675031627056853 0.945274162316224
v 0.000000000000000 1.134807493961105 6.746719521272633
v 0.000000000000000 13.392598992622748 -0.183515191306537
v 0.000000000000000 8.312780222755482 -3.882813664766324
v 0.000000000000000 7.205950514610343 0.108738048407381
v 0.000000000000000 4.608526552345591 7.790840596595265
v 0.000000000000000 5.897876109111934 7.924662702473095
v 0.000000000000000 2.490477256997799 1.587835166591789
v 0.000000000000000 8.357699991215233 1.341633257282606
v 0.000000000000000 7.256567790568530 -3.780063572689218
v 0.000000000000000 2.650621446596830 -4.707494176565996
v 0.000000000000000 2.284546062963958 6.642938974377403
v 0.000000000000000 14.666155678119738 -0.207079777516267
v 0.000000000000000 9.579895892871008 1.255299761335104
v 0.000000000000000 6.458119671828097 -7.497074087805576
v 0.000000000000000 14.669549728596817 -2.597318549973814
v 0.000000000000000 0.197920953445820 0.373818803549023
v 0.000000000000000 14.637843752806177 3.209455857914875
v 0.000000000000000 3.757541893410330 -2.277559965142181
v 0.000000000000000 5.286093035024173 -8.454992006558317
v 0.000000000000000 2.179575420457418 7.823011514502740
v 0.000000000000000 10.790949688527087 2.409392657672612
v 0.000000000000000 7.139232704013104 6.764395232513242
v 0.000000000000000 7.356071997889398 -5.084137245665028
v 0.971156956251018 13.478952231070183 -3.867042943802255
v 1.020580077836117 9.521343550261214 3.861377373790826
v 1.244761003201727 9.718867042332141 -3.794506392036826
v 2.885260701537918 14.762995321696756 -2.757484281990310
v 3.876121594932509 13.518042867863073 -0.925442604578028
v 2.051464646559063 12.273967482431456 -3.420558285234722
v 1.539165313922883 15.550110769929454 3.680037704623834
v 2.960315806391238 11.126203709406974 -2.667892511745588
v 2.017656319460476 13.509438347498655 -3.436739413264010
v 3.384827986202700 11.036900813560715 2.113473028301446
v 2.791783004513713 9.809120791119172 2.850135550557694
v 2.663545248108528 12.118134665687407 2.958057926039293
v 2.643276333976658 13.257326417637184 2.984196518820549
v 2.250846575886078 9.889017571567180 -3.283615262092406
v 2.910491517033482 12.314851203581195 -2.733523593345215
v 1.993765796119234 9.696173000860732 3.460256919795162
v 2.085401977795852 15.989787326204384 -3.389864570065516
v 2.132707630631951 11.061551221058705 -3.376785773781892
v 3.042213445517843 9.979654953973226 -2.570580244136420
v 1.855292362701030 10.875981183687779 3.537960821336041
v 3.851947784545249 15.830470418990854 1.036235287917338
v 3.807717158356167 11.097649507251210 1.177281868125966
v 3.604827677553516 10.023754444413527 -1.720579504971742
v 3.367385014506855 12.175310364325334 2.137018990155381
v 3.499568728670429 14.774190705299347 -1.926288002671276
v 3.982476174441878 14.696505274284547 0.065658550565776
v 3.868462155498924 14.764769317358503 -0.967923826511626
v 3.807873045576258 9.978314341542028 1.162988431251013
v 3.817041989450019 12.237974003924887 1.178171724074782
v 3.370706437713177 13.309439476950915 2.135333996625265
v 3.982609776731369 10.017825881736538 0.201158447014563
v 3.920019671094557 10.034227748257102 -0.776229258807080
v 3.825627545830526 13.389851496299221 1.157559045176101
v 3.986177855815091 12.291124859450871 0.149164250375563
v 3.887738211533930 12.323234329142362 -0.883687041715023
v 3.986556540567194 11.141272440749958 0.175869640384938
v 3.559440874555065 11.158496756112264 -1.802719841266300
v 3.531331157143284 12.331090851233725 -1.866146154453150
v 3.402740448019491 9.908905271150795 2.063890746315459
v 2.880865701824335 13.530392719617355 -2.762317397922073
v 3.906443511451141 11.162877387479311 -0.836321520225809
v 2.721320619875873 10.961109135863440 2.916262009703336
v 0.540832741142880 13.287665599273042 3.959271034665457
v 1.679741928304997 13.249652250765315 3.620549797687548
v 0.402401344559570 14.538431758231098 3.968123295995994
v 1.753166724867459 12.073743173972133 3.593710300109768
v 0.991982865020452 14.748081618189854 -3.861184054442827
v 1.612425676283015 14.410084733917913 3.642052329955275
v 1.081080752312224 10.954272093961309 -3.843841621253006
v 2.659653897977945 14.341723055786582 2.982322914494451
v 3.508587070818769 13.536463546217117 -1.905643709751474
v 3.445609304645448 15.489762550710580 2.004811855989292
v 3.396497449992786 14.414876145500408 2.095654914723490
v 3.833391239934359 14.561716704238783 1.108000641138805
v 0.661702190545006 12.049749757741431 3.942009872338747
v 0.999476420116325 12.219322509755823 -3.865442758065583
v 0.809431618478756 10.794950202484031 3.909928641800427
v 2.736157609437883 15.299292940145303 2.912910104209863
v 3.978358658260938 13.466419902677465 0.114552572321402
v 2.032289006591528 14.756351747610065 -3.431378648322617
v 2.365273306674930 16.000000000000028 -1.094381998786663
v 2.650340492600549 16.000000000000014 0.937604953923658
v 1.303800059291979 16.000000000000256 0.907928927171518
v 0.019133961600080 16.000000000000085 3.058876820279508
v 1.119472735904081 15.999999999999922 -1.238058644255890
v 1.215681665645469 16.000000000000000 -0.146866784519093
v 0.009555581979458 15.999999999999755 1.998379100543618
v 3.935543123244035 16.000000000000039 0.001364265290301
v 1.046543098222390 16.000000000000000 -2.410627443120728
v 1.380999919691400 15.999999999999805 1.941958166056255
v 2.763248344559686 16.000000000000071 1.891063740398001
v 3.752461803169069 16.000000000000082 -1.022343592000253
v 3.451296728461470 16.000000000000028 -1.965641350766543
v 1.445280543496050 16.000000000000362 2.994976060223911
v 1.039144211365875 15.999999999999387 -3.771570452437544
v 2.531957176114666 15.999999999999806 -0.075204491109598
v 2.171517038797846 15.999999999999915 -2.133771053165703
v 0.000000000000000 9.165151390000000 -4.000000000000000
v 0.000000000000000 9.165151390000000 4.000000000000000
v 8.314696120000001 0.000000000000000 -5.555702330000000
v 0.000000000000000 0.000000000000000 10.000000000000000
v 8.314696120000001 0.000000000000000 5.555702330000000
v 0.000000000000000 2.868237740000000 -9.579833620000000
v 0.000000000000000 2.868237740000000 9.579833620000000
v 0.000000000000000 0.000000000000000 -10.000000000000000
v 0.000000000000000 16.000000000000000 -4.000000000000000
v 0.000000000000000 16.000000000000000 4.000000000000000
v 2.972579300000000 16.000000000000000 2.676522430000000
v 2.972579300000000 16.000000000000000 -2.676522430000000
f 7 312 166 1
f 166 5 13 1
f 13 91 101 1
f 101 14 7 1
f 47 151 140 2
f 140 428 94 2
f 94 24 84 2
f 84 114 47 2
f 41 181 35 3
f 35 10 185 3
f 185 110 29 3
f 29 78 41 3
f 145 87 93 4
f 93 20 30 4
f 30 103 73 4
f 73 143 145 4
f 166 507 432 5
f 432 443 120 5
f 120 181 13 5
f 34 132 27 6
f 27 168 151 6
f 151 47 155 6
f 155 33 34 6
f 327 429 312 7
f 14 174 327 7
f 45 150 118 8
f 118 98 111 8
f 111 63 54 8
f 54 49 45 8
f 146 15 58 9
f 58 62 165 9
f 165 175 70 9
f 70 512 146 9
f 35 104 107 10
f 107 87 145 10
f 145 143 185 10
f 147 129 135 11
f 135 115 113 11
f 113 28 121 11
f 121 65 147 11
f 58 15 74 12
f 74 76 89 12
f 89 138 48 12
f 48 62 58 12
f 181 41 91 13
f 101 160 177 14
f 177 176 174 14
f 146 179 136 15
f 136 67 74 15
f 71 170 21 16
f 21 513 183 16
f 183 173 184 16
f 184 75 71 16
f 167 95 25 17
f 25 106 123 17
f 123 51 164 17
f 164 178 167 17
f 163 80 82 18
f 82 71 75 18
f 75 61 149 18
f 149 141 163 18
f 108 102 117 19
f 117 80 163 19
f 163 141 157 19
f 157 22 108 19
f 93 460 457 20
f 457 468 31 20
f 31 182 30 20
f 170 69 344 21
f 344 404 513 21
f 106 68 108 22
f 157 44 53 22
f 53 123 106 22
f 148 138 172 23
f 172 159 86 23
f 86 139 248 23
f 248 192 148 23
f 94 412 69 24
f 69 170 79 24
f 79 26 84 24
f 95 105 153 25
f 153 68 106 25
f 72 114 84 26
f 79 82 80 26
f 80 117 72 26
f 132 445 431 27
f 431 508 168 27
f 113 112 134 28
f 134 153 105 28
f 105 40 121 28
f 110 128 119 29
f 119 59 78 29
f 182 137 103 30
f 468 440 109 31
f 109 169 182 31
f 57 33 155 32
f 155 47 114 32
f 114 72 130 32
f 130 116 57 32
f 60 169 34 33
f 57 36 60 33
f 169 109 132 34
f 181 120 104 35
f 115 137 60 36
f 57 116 112 36
f 112 113 115 36
f 52 119 128 37
f 128 158 144 37
f 144 50 56 37
f 56 42 52 37
f 134 112 116 38
f 116 130 102 38
f 102 108 68 38
f 68 153 134 38
f 61 75 184 39
f 184 173 187 39
f 187 260 279 39
f 279 278 61 39
f 64 65 121 40
f 105 95 100 40
f 100 98 64 40
f 78 77 91 41
f 131 122 52 42
f 56 150 133 42
f 133 85 131 42
f 180 156 161 43
f 161 45 49 43
f 49 242 190 43
f 190 245 180 43
f 157 141 66 44
f 66 274 249 44
f 249 55 53 44
f 161 133 150 45
f 139 86 154 46
f 154 156 180 46
f 180 245 509 46
f 509 243 139 46
f 138 148 127 48
f 127 273 62 48
f 54 276 242 49
f 144 65 64 50
f 64 98 118 50
f 118 150 56 50
f 123 53 55 51
f 55 246 511 51
f 511 247 164 51
f 122 59 119 52
f 63 270 276 54
f 249 193 246 55
f 90 77 78 59
f 122 125 90 59
f 137 182 169 60
f 278 275 149 61
f 273 188 165 62
f 111 126 124 63
f 124 272 270 63
f 144 158 147 65
f 141 149 275 66
f 275 265 274 66
f 136 425 171 67
f 171 176 142 67
f 142 76 74 67
f 412 411 344 69
f 175 514 301 70
f 301 289 512 70
f 82 79 170 71
f 117 102 130 72
f 103 135 129 73
f 129 99 143 73
f 142 97 96 76
f 96 81 89 76
f 160 101 91 77
f 90 83 160 77
f 96 92 162 81
f 162 159 172 81
f 172 138 89 81
f 97 177 160 83
f 90 125 92 83
f 92 96 97 83
f 88 152 131 85
f 133 161 156 85
f 156 154 88 85
f 159 88 154 86
f 107 452 461 87
f 461 460 93 87
f 159 162 152 88
f 125 152 162 92
f 428 307 412 94
f 167 126 100 95
f 142 176 177 97
f 100 126 111 98
f 110 185 143 99
f 129 147 158 99
f 158 128 110 99
f 137 115 135 103
f 120 443 448 104
f 448 452 107 104
f 440 445 132 109
f 131 152 125 122
f 126 167 178 124
f 178 271 272 124
f 148 192 191 127
f 191 280 273 127
f 179 394 425 136
f 243 212 248 139
f 151 168 402 140
f 402 287 428 140
f 512 289 179 146
f 247 271 178 164
f 188 255 175 165
f 312 409 507 166
f 508 384 402 168
f 425 304 420 171
f 420 174 176 171
f 183 290 285 173
f 285 510 187 173
f 420 323 327 174
f 255 333 514 175
f 289 294 394 179
f 513 404 290 183
f 282 190 242 186
f 242 276 269 186
f 269 213 205 186
f 205 233 282 186
f 510 268 260 187
f 273 280 258 188
f 258 196 255 188
f 193 249 274 189
f 274 265 215 189
f 215 231 203 189
f 203 277 193 189
f 282 262 245 190
f 192 267 220 191
f 220 250 280 191
f 248 212 267 192
f 277 284 246 193
f 309 305 197 194
f 197 256 251 194
f 251 263 259 194
f 259 326 309 194
f 266 272 271 195
f 271 247 284 195
f 284 277 221 195
f 221 234 266 195
f 338 333 255 196
f 258 256 197 196
f 197 305 338 196
f 200 254 202 198
f 202 241 228 198
f 228 231 230 198
f 230 244 200 198
f 204 257 261 199
f 261 237 239 199
f 239 240 207 199
f 207 216 204 199
f 201 236 254 200
f 244 208 201 200
f 318 332 236 201
f 208 336 318 201
f 254 216 207 202
f 207 240 241 202
f 231 228 224 203
f 224 221 277 203
f 238 217 257 204
f 216 211 238 204
f 213 214 226 205
f 226 222 233 205
f 283 266 234 206
f 234 235 225 206
f 225 214 213 206
f 213 269 283 206
f 244 219 223 208
f 223 339 336 208
f 340 339 223 209
f 223 219 229 209
f 229 279 260 209
f 260 268 340 209
f 264 233 222 210
f 222 232 227 210
f 227 220 267 210
f 267 212 264 210
f 422 324 238 211
f 216 254 236 211
f 236 332 422 211
f 243 262 264 212
f 225 240 239 214
f 239 237 226 214
f 265 281 218 215
f 218 230 231 215
f 325 326 259 217
f 259 263 257 217
f 238 324 325 217
f 281 229 219 218
f 219 244 230 218
f 227 252 250 220
f 224 235 234 221
f 226 237 232 222
f 228 241 235 224
f 235 241 240 225
f 232 253 252 227
f 281 278 279 229
f 237 261 253 232
f 264 262 282 233
f 509 245 262 243
f 284 247 511 246
f 256 258 280 250
f 252 251 256 250
f 252 253 263 251
f 261 257 263 253
f 275 278 281 265
f 283 270 272 266
f 510 285 334 268
f 334 407 340 268
f 276 270 283 269
f 290 426 334 285
f 303 410 342 286
f 342 370 372 286
f 372 292 362 286
f 362 354 303 286
f 402 384 387 287
f 387 386 380 287
f 380 307 428 287
f 360 369 416 288
f 416 341 320 288
f 320 316 291 288
f 291 424 360 288
f 301 314 294 289
f 404 298 426 290
f 316 389 373 291
f 373 381 424 291
f 372 399 359 292
f 359 366 302 292
f 302 386 362 292
f 392 361 357 293
f 357 318 336 293
f 336 339 400 293
f 400 297 392 293
f 314 296 352 294
f 352 345 394 294
f 423 493 496 295
f 496 330 406 295
f 406 371 391 295
f 391 396 423 295
f 314 333 338 296
f 338 305 347 296
f 347 353 352 296
f 358 366 392 297
f 400 407 417 297
f 417 343 358 297
f 411 306 343 298
f 343 417 426 298
f 404 344 411 298
f 486 484 405 299
f 405 331 427 299
f 427 321 508 299
f 508 431 486 299
f 313 494 498 300
f 498 504 515 300
f 515 376 421 300
f 421 311 313 300
f 514 333 314 301
f 366 358 398 302
f 398 380 386 302
f 414 351 410 303
f 354 337 414 303
f 425 394 345 304
f 345 349 346 304
f 346 323 420 304
f 309 341 347 305
f 307 380 398 306
f 398 358 343 306
f 411 412 307 306
f 397 350 348 308
f 348 378 393 308
f 393 310 329 308
f 329 368 397 308
f 326 320 341 309
f 393 319 328 310
f 328 335 356 310
f 356 377 329 310
f 418 322 313 311
f 421 397 368 311
f 368 408 418 311
f 429 415 409 312
f 322 495 494 313
f 403 385 374 315
f 374 390 375 315
f 375 370 342 315
f 342 410 403 315
f 320 326 325 316
f 325 324 389 316
f 331 391 371 317
f 371 408 377 317
f 377 356 355 317
f 355 427 331 317
f 357 401 332 318
f 393 378 507 319
f 507 409 364 319
f 364 365 328 319
f 427 355 419 321
f 419 414 337 321
f 337 384 508 321
f 330 492 495 322
f 418 406 330 322
f 346 388 363 323
f 363 429 327 323
f 422 382 389 324
f 365 351 335 328
f 377 408 368 329
f 496 499 492 330
f 405 396 391 331
f 401 382 422 332
f 426 417 407 334
f 351 414 419 335
f 419 355 356 335
f 354 387 384 337
f 340 407 400 339
f 416 353 347 341
f 352 353 349 345
f 349 369 388 346
f 350 430 485 348
f 485 478 378 348
f 353 416 369 349
f 376 476 430 350
f 397 421 376 350
f 365 403 410 351
f 362 386 387 354
f 361 413 401 357
f 399 413 361 359
f 361 392 366 359
f 379 388 369 360
f 424 390 379 360
f 388 379 367 363
f 367 415 429 363
f 409 415 385 364
f 385 403 365 364
f 379 390 374 367
f 374 385 415 367
f 375 381 395 370
f 395 399 372 370
f 406 418 408 371
f 389 382 383 373
f 383 395 381 373
f 390 424 381 375
f 515 504 476 376
f 478 432 507 378
f 401 413 383 382
f 413 399 395 383
f 472 474 423 396
f 405 484 472 396
f 474 516 493 423
f 476 489 438 430
f 438 435 485 430
f 445 449 486 431
f 478 447 443 432
f 489 446 518 433
f 518 502 454 433
f 454 480 469 433
f 469 438 489 433
f 480 454 456 434
f 456 455 488 434
f 488 463 464 434
f 464 467 480 434
f 438 469 444 435
f 444 437 447 435
f 447 478 485 435
f 487 517 503 436
f 503 493 516 436
f 516 474 477 436
f 477 479 487 436
f 444 467 466 437
f 466 452 448 437
f 448 443 447 437
f 451 458 453 439
f 453 441 471 439
f 471 440 468 439
f 468 457 451 439
f 471 449 445 440
f 453 459 442 441
f 442 473 475 441
f 475 449 471 441
f 459 482 479 442
f 479 477 473 442
f 469 480 467 444
f 504 498 506 446
f 506 502 518 446
f 489 476 504 446
f 475 484 486 449
f 497 505 491 450
f 491 500 481 450
f 481 482 483 450
f 483 455 497 450
f 465 463 458 451
f 457 460 465 451
f 466 470 461 452
f 458 462 459 453
f 502 501 456 454
f 456 501 497 455
f 483 462 488 455
f 463 488 462 458
f 462 483 482 459
f 461 470 465 460
f 465 470 464 463
f 470 466 467 464
f 473 477 474 472
f 484 475 473 472
f 482 481 487 479
f 500 517 487 481
f 506 498 494 490
f 494 495 505 490
f 505 497 501 490
f 501 502 506 490
f 505 495 492 491
f 492 499 500 491
f 503 499 496 493
f 503 517 500 499
