v -1.421025458294243 -2.632925603212144 -0.447137304332263
v 0.642535330865041 -2.917231894502337 -1.310099669942602
v -2.800371214263282 -1.055062706380061 -0.374655338350296
v 1.373767509531609 -2.662243018961096 -1.185407487179935
v -2.009198950230335 -2.213777973433036 0.263170322660585
v 2.032143474451458 -2.190465096202495 -1.081439698160691
v -2.004226177889265 -2.213102312634759 -1.003771743762569
v -2.476098037820802 -1.682324724641942 -0.368539204474104
v -2.470009998410073 -1.680807985410114 -1.031781160958296
v 2.529191032717716 -1.596624807669554 -1.335199987352160
v -2.803531514876185 -1.052821333344871 -1.106972062540610
v -1.440090623007668 -2.621994245936512 -1.095205803246323
v -2.808849717752910 -1.043169323397802 1.124706561400265
v -2.486867100383599 -1.651629584676987 1.008541774787472
v -0.786564390265969 -2.888238401408331 -1.236520286243002
v -1.408025674098130 -2.639512979624735 0.213211850437370
v -2.962976463130595 -0.375567686675067 -0.385483392364413
v -2.968845908585090 -0.375187880492084 0.378928087499675
v -0.080668163992487 -2.989612045740733 -1.323137947391930
v -2.026029899649248 -2.199649220019875 0.915845433965133
v -2.009774611155665 -2.221927529205460 -0.387441210182333
v -2.970679683415850 -0.372163896498557 -1.163437190160606
v -0.750912960363811 -2.897092793214282 -0.531590853843211
v -1.398162488176819 -2.651154933384626 0.881827076566140
v 2.832221968468909 -0.979790764866853 -0.886902713421803
v -0.031166212818253 -2.997547000355184 -0.604192662390950
v -2.971200249455969 -0.370497897214908 1.181622636107100
v 2.516390505816107 -1.625139254990122 -0.684245816189696
v 1.433752110088061 -2.619534837821875 -0.518352058650026
v 0.704811798936424 -2.910088863550872 -0.606701738512065
v -0.686041202815947 -2.914182914161922 0.846687909058475
v -0.719433425411407 -2.904582296243396 0.154255126178762
v -2.480651834371054 -1.673046536026899 0.310377050948125
v -2.804058574239821 -1.050841848314914 0.354125517229182
v 2.980000690597866 -0.292102606679363 -1.005987382614161
v -1.068404417540629 -1.049831556034620 0.932671914569202
v -1.440268260902138 -0.389838870502986 -0.421487454043655
v 1.379019716273270 -0.569790773870901 1.221160107950606
v 0.258776253889571 -1.473911997763400 1.063287724882703
v -0.458743572993505 -1.424848483588995 0.954436812801251
v -1.442212072729689 -0.385920211836403 0.987433379959458
v 1.338502941919683 -0.666026939223041 -0.807988168771614
v 0.352321911423575 -1.450837216485458 -0.962791087070428
v -0.410666394380013 -1.438162111398458 -0.377719113753960
v -1.056528314409000 -1.057479255580222 -0.437160889904026
v -1.071066147451705 -1.046686618798996 0.273956096692716
v 1.325871252740436 -0.690171142942939 -1.448590270954409
v 0.303438522758320 -1.464505632756315 -0.287681293169266
v 0.926851368743087 -1.174137202383291 -0.205964897602836
v 0.279326176133026 -1.472696782803108 0.394354688165599
v 0.929949392159935 -1.172112492928671 0.492529889869791
v -0.440660218313309 -1.428467465815694 0.309434635202980
v 0.944049691436860 -1.161296934434106 -0.874693250812840
v 1.499676309857369 -0.003824205730862 -0.117762312172287
v 1.496232057472246 -0.039568061049098 -0.768412067226704
v -0.345202985005915 -1.455334535031675 -1.078919783601901
v 1.345389396666882 -0.649647969708633 -0.149494511012992
v -1.445321757651520 -0.386491990614336 0.296904184734287
v 1.360494304054737 -0.624968159026714 0.534111148613387
v 1.493643381930019 -0.088484444110218 -1.382512634088064
v -1.444996655096021 -0.389643047450979 -1.143529836496085
v 1.330269733088820 0.686848350206403 1.267751346581171
v 0.295096369549519 1.469995520412311 0.580275226115926
v -1.444954145018234 0.378264963613404 -0.384755947193010
v -1.444826972774346 0.379998447248791 0.364579932781410
v 1.391904535594936 0.554754773379814 -1.386496825467328
v 1.363888526469884 0.610260189733969 -0.768507766628372
v 0.317816257413086 1.462457956339792 1.340547536647332
v 0.925621362082821 1.175902580817212 -0.119064388375599
v 0.308370962368558 1.462216710751659 -0.873210261986126
v 1.347458701917204 0.645013204317494 -0.107229407212240
v -1.066436113704976 1.047772652571796 -0.334610082348188
v 1.340521892641514 0.668256653467457 0.579089550994123
v -0.380551950458070 1.447143500540136 1.295813018929753
v 0.948800906188983 1.158207014971525 -0.806539656786339
v -0.426499909666106 1.432814368936743 -0.243749547226094
v 0.291943016726496 1.468836219065899 -0.163855559467291
v -0.399460241451436 1.441979235141521 -1.002080843177135
v -1.066494598486002 1.051328546582675 0.460542187528648
v 0.920283418275729 1.178133058292540 0.604764125208541
v -0.421945471702771 1.434188263426774 0.530113300418668
v -1.448295277263250 0.375116845048673 1.091538212289097
v 1.497710547455118 0.030545654607241 0.549292713564967
v 1.494644417149511 0.075314930708002 1.196309340940425
v -1.449010139929810 0.370638366859406 -1.129083295632900
v -2.815906273770588 0.993948470015031 -0.382954818333210
v 2.969726093142405 0.395876241730867 -1.027190550655640
v -0.982905789599970 2.822907829154673 0.910117944765055
v -0.969612608927962 2.833068246124558 -0.522001271820471
v -1.561870666165197 2.553556954384994 -0.435325908707126
v -2.820856721080661 0.989072625340301 0.345025762400173
v -0.329206733226000 2.981660202246884 -1.385584246639293
v 0.321750742464110 2.982515468874416 -1.463648095299669
v 0.960871009066776 2.838895293182863 -1.469056531051974
v 1.549928673809096 2.563881132638760 -1.439100562873939
v -2.101316883233586 2.131446264203162 0.268902417260010
v -2.528208106144275 1.607499488847693 0.304537714404534
v -2.090473510473084 2.148463523960844 -0.385882154071627
v -2.823356464448670 1.004700399817220 -1.113148865136176
v -2.504183923005021 1.634216947350526 -1.037303757988028
v -2.514977770340828 1.614734690330840 -0.375742371278520
v -2.058181492792837 2.164299504387350 -1.005089413417251
v 0.318847929829884 2.973330139252703 -0.682870176319341
v -1.544063683083875 2.559394864439908 -1.092390433790334
v -2.824437720110014 0.989367595737717 1.090209433982075
v -2.523098641863024 1.599521605617983 0.993091504182058
v -2.969735775095547 0.318845198947468 -0.387685302700054
v -2.972226659518828 0.316680705211002 0.371680967316483
v -2.105669800177330 2.121052015646306 0.925373924294935
v -2.975500227486425 0.323325743210510 -1.166043666268134
v -0.335391490658473 2.974966971398454 0.122998806937421
v 2.798304338706556 1.054531923081440 -0.941595427406138
v -2.976890228101691 0.318612947993939 1.168411410193147
v -0.332674513590668 2.976557898111065 -0.614710870306586
v 2.493270024969098 1.653364787833258 -0.785094061417752
v 1.567502358241280 2.551641949559866 -0.627130756089741
v -1.583762047161980 2.532930227359188 0.911597538149825
v 0.959931906525007 2.835818813829597 -0.690015837878424
v -0.977985343279059 2.829036685791746 0.186266375977972
v -1.573896225034650 2.540324454032971 0.235076449062665
v -0.962805965254276 2.836121832880488 -1.247938290132363
v -0.335070573548814 2.975939167006260 0.882484096651865
v 2.736445672012185 -0.915140261008704 -1.500000000000000
v -1.561397143814141 -1.688806734863339 -1.499999999999999
v -1.595297588160774 1.661665910845183 -1.499999999999998
v 0.441063816251529 -1.568968373033624 -1.500000000000000
v -0.241785964919075 -1.697022547903198 -1.499999999999995
v 1.283352288719573 -2.256524566192069 -1.500000000000000
v -0.829625149607256 -2.403889301167133 -1.499999999999999
v 1.797205488906649 1.142950183514569 -1.500000000000001
v -1.684421771418841 1.020318267904398 -1.500000000000007
v -1.672994657106505 -1.045424685183471 -1.500000000000000
v -0.326606432431882 2.318254724941539 -1.500000000000004
v 1.974270835053086 -1.521673877433385 -1.500000000000000
v 1.622071861972665 1.821774062141921 -1.500000000000004
v 2.691227497411754 0.444446399634491 -1.500000000000001
v -2.424146133179170 1.000938054221464 -1.500000000000004
v -2.274831310570141 1.647780958156574 -1.500000000000007
v -2.495059724389142 -0.362067376090135 -1.500000000000002
v -2.414148236800322 -1.037235841537682 -1.499999999999996
v -1.477645485318161 -2.352257764764162 -1.500000000000000
v 0.316603055315575 2.215631510069743 -1.500000000000000
v 0.554047653983922 -2.332452912884399 -1.500000000000000
v -2.258892484079889 -1.679617082921760 -1.500000000000000
v 0.965336631869242 2.029275393253737 -1.500000000000002
v -0.950597771367800 2.346879222215186 -1.499999999999996
v -0.149527843172008 -2.399299574055870 -1.500000000000000
v -1.181583662950390 -1.111776891361122 1.500000000000028
v -1.537787714594138 2.316486790321052 -1.500000000000003
v 2.419089962980113 1.710591980133395 -1.499999999999998
v 1.944902764684401 0.494829437099324 -1.499999999999999
v 2.005650847421566 -0.156763413122607 -1.500000000000000
v 2.734854806706152 -0.229443754673220 -1.500000000000000
v 0.318585517072957 1.490159934212064 -1.500000000000021
v -0.347401138106337 1.630951311822849 -1.499999999999979
v 2.593100487737695 1.097259709882102 -1.500000000000001
v -2.498088156198460 0.324396731320999 -1.499999999999996
v -1.760124635960334 0.338264624018277 -1.500000000000008
v -1.758296870230862 -0.365575027638439 -1.500000000000007
v 1.990675440426604 -0.816690819582162 -1.499999999999999
v -0.975228526301572 1.675818577664331 -1.500000000000007
v -0.910167885517848 -1.715821027370216 -1.500000000000004
v 5.134820854109901 1.884300809571593 1.500000000000003
v -0.988537870313039 1.850593199821574 1.500000000000002
v 2.336805559012046 -1.800517995499537 1.499999999999998
v 1.699089526504600 2.266124834300146 1.500000000000001
v 1.591286085671466 -2.457356671699541 1.500000000000002
v 5.825342912350336 1.930181553981971 1.500000000000000
v 4.446691388477905 1.833230701565689 1.500000000000007
v 2.381876727761664 2.366868340751660 1.500000000000000
v 0.098544406265184 -2.997777865992062 1.500000000000001
v 4.439942383382116 2.573364695623747 1.499999999999988
v -2.466566711443572 0.321199765717823 1.500000000000025
v -1.627547158500056 1.702368291167909 1.499999999999981
v 7.205299147673963 -1.631190819007130 1.499999999999999
v 0.335407042112339 2.883174758009149 1.499999999999989
v 1.009126133882096 2.970625255590377 1.500000000000003
v 7.899429265037059 -1.599686523097407 1.499999999999994
v -0.494388157667024 -1.461143478149700 1.500000000000000
v -1.688429587876159 1.031923459238113 1.500000000000051
v 4.412650302845369 -2.474070592179438 1.499999999999998
v -2.434530901965232 0.992037559360428 1.499999999999987
v -1.368996640818065 -2.592066781191474 1.500000000000003
v -2.203787670799052 -1.659282746917564 1.500000000000001
v 3.759743932796860 1.776315115903948 1.499999999999996
v 3.006432287207877 -2.497765554597702 1.500000000000000
v 2.407481626866776 -0.462090212694043 1.499999999999998
v 8.590614560474656 -0.107221027003446 1.500000000000000
v -1.326821579292782 -1.845038836765162 1.499999999999988
v 4.423634686695683 -1.755872163517251 1.500000000000000
v 3.729869166745250 -1.782366509619514 1.500000000000001
v 2.397296134655267 1.611955598463210 1.499999999999999
v 9.282335059418523 -0.810681950894772 1.500000000000004
v -0.984416867098088 2.641743640611335 1.500000000000000
v 8.591372016613715 -0.840337175328504 1.499999999999996
v -2.326962141007549 1.622542968686284 1.499999999999993
v 5.112342536890813 -2.448391862321260 1.500000000000001
v 3.033635745670594 -1.797699441205532 1.499999999999998
v 9.975873146638360 -1.521482848126000 1.499999999999994
v 9.969426085669118 0.697317190357337 1.499999999999990
v -1.599677409141830 2.430700828893890 1.500000000000029
v 3.086402474877501 0.978069107559643 1.500000000000000
v 6.516500772599692 2.704565300110442 1.499999999999986
v 5.131580083077584 2.619397075332557 1.499999999999996
v 5.823461057895617 2.663168967936661 1.499999999999996
v -2.316167153404714 -1.032646329336801 1.500000000000000
v 5.119313587654103 -1.727300748056672 1.499999999999996
v 7.204229099745270 -2.355548585976780 1.500000000000001
v 7.210776314855724 2.744779523138755 1.499999999999999
v 7.905880860337104 2.787091531136223 1.499999999999994
v 1.015160509499712 2.155218932359258 1.499999999999998
v 6.507439244487088 -2.387034942998365 1.499999999999992
v 8.601868828332396 2.835151298501300 1.500000000000007
v 8.596787117172173 2.101845607913621 1.499999999999989
v 2.303013356836396 -2.492812970677451 1.499999999999999
v 9.283138148920296 1.404358541058203 1.500000000000004
v 9.971285055348904 1.443922187371088 1.500000000000004
v 0.213099572145931 -1.656089125372849 1.500000000000003
v 5.819469195861544 -0.974135509735866 1.500000000000001
v 7.898777282859612 -0.871681744749728 1.499999999999998
v 7.208185248493486 0.552621941415032 1.500000000000000
v 6.514965016761398 -0.213952050919585 1.500000000000002
v 8.596894040036206 -2.297845312307103 1.499999999999998
v 6.516594125802280 0.512751041906092 1.499999999999989
v 5.136022313419761 0.429131593746079 1.500000000000000
v 7.206969988663521 -0.176936595374023 1.500000000000012
v 9.280962236132488 0.663475314242436 1.500000000000002
v 5.825532319289990 0.472827968490339 1.499999999999991
v 3.751277999638502 2.518378811078446 1.499999999999998
v 5.810194707362854 -2.418447026842838 1.500000000000006
v 1.751999186872292 0.781673796427724 1.499999999999991
v -0.634617193332502 -2.852449508160637 1.500000000000000
v 3.065714745745685 2.450006239773687 1.500000000000000
v 7.901021149058987 -2.324912958162950 1.499999999999995
v 5.132681365231401 -0.291185689776372 1.500000000000006
v 5.126912247303926 -1.009271445970572 1.500000000000009
v 5.823091913341620 -0.251537428204339 1.499999999999994
v 9.281036617157209 -0.075159133344688 1.500000000000003
v 3.765303260378302 1.047273031689784 1.500000000000004
v -0.338858750148516 1.983794205767843 1.499999999999971
v -2.422613129512561 -0.362641347725397 1.499999999999961
v 1.784284337536109 0.136544596300801 1.500000000000008
v 1.094677885337405 -1.275736659362074 -1.500000000000001
v -1.712760488084328 0.342309686909773 1.500000000000006
v 0.333463223779611 2.074351193616103 1.500000000000050
v 3.759114498968622 -0.374945738723055 1.500000000000000
v 4.443811090328268 -0.331223709948904 1.499999999999994
v 9.984674667670550 -2.259914787709255 1.500000000000006
v 0.876156691738199 -2.397793303127344 1.500000000000000
v -0.332236511438167 2.785783396557648 1.500000000000005
v 6.517593158649539 1.972518249982699 1.499999999999988
v 3.765477272521938 0.331618016380865 1.499999999999999
v 9.978847719086836 2.204854088736932 1.500000000000007
v 8.592902467974554 1.364463738997891 1.499999999999988
v 5.826450947324446 1.199233333360819 1.499999999999996
v 6.512578081882554 -0.938982560807013 1.500000000000002
v 9.299344197278927 2.899783316244040 1.500000000000014
v 3.746460702007084 -1.077601713724565 1.500000000000001
v 7.210301334209340 2.014382226334746 1.499999999999989
v 7.899072680879750 -0.141870125790748 1.499999999999993
v 3.710205905367049 -2.492326969398602 1.500000000000003
v 4.448651664623335 0.383855368520889 1.499999999999997
v 3.077146946167955 1.704089640434557 1.500000000000000
v 7.205985863920040 -0.904995992955970 1.500000000000002
v -1.619956064261770 -0.372982074014981 1.499999999999954
v 5.136861291390177 1.153853499852358 1.500000000000000
v 1.753327362177608 -0.508272627320132 1.500000000000007
v 1.716226183609341 1.485998902765886 1.499999999999997
v 3.078399463263159 -0.417243994357638 1.499999999999999
v 2.375018561954381 -1.129210989343399 1.499999999999998
v 7.903360932724606 2.056544604648064 1.499999999999999
v 1.691619742909910 -1.141428993859697 1.499999999999998
v 3.058547458938299 -1.104923608698927 1.500000000000002
v 6.517400399767210 1.241948672059566 1.500000000000002
v 4.449374593456360 1.104554882661803 1.500000000000011
v 2.423238631259207 0.208313145446679 1.500000000000000
v 5.815097973810881 -1.696038043398525 1.499999999999998
v 4.435184382780012 -1.043242133173099 1.499999999999999
v 9.289455780409263 2.152046737980765 1.499999999999999
v 9.285561867112557 -1.545659171240769 1.499999999999993
v 0.931349228906435 -1.736536852899492 1.500000000000017
v 9.969418169361575 -0.044397726921019 1.500000000000006
v 9.971483452706920 -0.783412956656998 1.500000000000006
v -0.571345179651652 -2.116128699915348 1.500000000000005
v 7.899930570972780 0.590191626178587 1.500000000000004
v 2.413794046958100 0.895494613924614 1.500000000000000
v 0.154481014865794 -2.295721393489456 1.499999999999996
v 3.087994735564002 0.274870837022545 1.500000000000002
v 6.509919938579709 -1.663165474782971 1.499999999999988
v 7.209379777987031 1.283057048466441 1.500000000000012
v 9.291468896150199 -2.276123291978035 1.500000000000005
v 8.593156038930182 -1.571153018915381 1.499999999999997
v 7.901532059486728 1.323923858929984 1.499999999999985
v 1.637549993919804 -1.783700386578436 1.500000000000008
v 8.591078835320413 0.627551625914588 1.499999999999997
v 3.690428015186877 -2.542709494349273 -0.500000000000001
v 4.422592457592634 1.712355279747149 -0.500000000000000
v 2.955115594357372 -2.451343134376183 -0.500000000000000
v 2.971349824921682 2.398404055177408 -0.500000000000000
v 5.121255673882966 1.695617778287928 -0.500000000000000
v 5.118542559316849 2.423173049286723 -0.500000000000000
v 8.593270065585276 -2.106108920285771 -0.500000000000000
v 7.898345619793936 -2.063572667918666 -0.500000000000000
v 3.774266389523462 -0.381196414656413 -0.500000000000000
v 4.416539645897958 2.439084732729977 -0.500000000000001
v 4.434364468536145 -1.135833258336384 -0.500000000000000
v 5.810593450477668 -1.945682552807869 -0.500000000000000
v 5.106993065914713 -2.633451203417464 -0.500000000000001
v 3.743354686322738 1.013730644347221 -0.500000000000000
v 8.590411026739840 0.831833286071764 -0.500000000000000
v 5.816640897368043 2.400262753765276 -0.499999999999999
v 9.279530838657690 0.068302823736488 -0.500000000000000
v 9.281584169621878 0.804836033299217 -0.500000000000000
v 6.512717037649459 2.373469524035721 -0.500000000000002
v 5.806611934254366 -2.673647701255744 -0.499999999999999
v 7.208221244805531 2.345085823073096 -0.500000000000001
v 7.206801891787254 1.617714428920483 -0.499999999999999
v 4.402403090390250 -2.590750551585940 -0.500000000000000
v 9.279222842294828 -0.669732791707417 -0.500000000000001
v 9.968379638395980 0.039144338003439 -0.499999999999999
v 9.970834506172052 0.778545417270422 -0.499999999999999
v 9.285456541459318 1.539895110137008 -0.499999999999999
v 9.975655458415179 1.517185830730834 -0.499999999999999
v 9.280844288253579 -1.409714110299200 -0.500000000000001
v 9.969803004914061 -1.447541036091914 -0.500000000000001
v 9.967985291434163 -0.702078575988272 -0.500000000000000
v 8.589510236295187 -1.371487253634249 -0.500000000000000
v 6.506941449045223 -1.984590090725270 -0.500000000000000
v 6.504999968727885 -2.712045379902443 -0.500000000000000
v 7.900976536875856 -2.791215021237665 -0.499999999999999
v 7.203145886243411 -2.750373590598036 -0.500000000000000
v 5.818967649518530 0.948058887664125 -0.500000000000002
v 5.113703871693105 -1.904430108082508 -0.499999999999999
v 5.129053306633192 -0.460001577492571 -0.500000000000000
v 8.588803473965342 0.098876799552332 -0.500000000000000
v 6.511977371641199 0.194033258703343 -0.499999999999999
v 5.819097297904688 -0.496519890129857 -0.500000000000000
v 5.817417872858094 1.672547273073528 -0.500000000000000
v 7.896705403503335 -0.601217717646202 -0.499999999999999
v 8.598916714758760 -2.837980560136427 -0.500000000000000
v 3.708003442987842 2.444115779343288 -0.499999999999999
v 7.903675876237127 2.317473800522166 -0.500000000000000
v 7.203710023962580 -0.566336823098194 -0.500000000000000
v 6.510712307749026 -0.531111382125293 -0.500000000000000
v 3.108083509286716 0.351365900148568 -0.500000000000000
v 3.769084320168921 0.318137658848078 -0.500000000000000
v 3.753399137312918 -1.085290986166535 -0.500000000000000
v 3.088146773784813 -1.028455479960631 -0.500000000000000
v 3.122369524709231 -0.338029891599280 -0.500000000000000
v 4.445176106993891 -0.422079098914845 -0.500000000000000
v 3.051961996833200 1.026015135582266 -0.500000000000000
v 9.977829643675950 -2.206905607128669 -0.500000000000000
v 6.512181817487051 0.919317055241012 -0.500000000000001
v 8.593649102218428 1.564062518593291 -0.499999999999999
v 8.588445718273533 -0.635399982011457 -0.500000000000001
v 9.297976605364534 -2.901416710946399 -0.499999999999999
v 5.130320849390589 0.257459398009157 -0.500000000000000
v 4.434837594588831 0.997568881586698 -0.500000000000000
v 9.984705020732621 2.257031795636879 -0.499999999999999
v 7.203144361629413 -1.294971941576951 -0.500000000000000
v 7.896843770690136 -1.332595340562779 -0.500000000000000
v 4.445194886598765 0.288270890958657 -0.500000000000000
v 6.512464349713625 1.645830764478798 -0.499999999999999
v 6.508919052822277 -1.257723430543163 -0.500000000000000
v 7.204567228874014 0.162386355021575 -0.500000000000000
v 7.205588631660818 0.890125875371001 -0.500000000000000
v 7.898504212794712 0.860832031482208 -0.500000000000000
v 3.016777323516461 -1.720682779410101 -0.500000000000000
v 5.126504710627119 0.974574486592742 -0.500000000000001
v 5.815295261475290 -1.219659327632344 -0.500000000000000
v 2.990581862837127 1.690481413086019 -0.500000000000000
v 7.897084148914492 0.130029928655060 -0.499999999999999
v 9.287308484858093 -2.155004396649216 -0.500000000000000
v 4.416390083798030 -1.858174926925034 -0.500000000000000
v 5.123365653820104 -1.180290263426649 -0.500000000000000
v 7.202800252395104 -2.023499066223809 -0.500000000000001
v 5.820210168457698 0.225427936753839 -0.499999999999999
v 9.292538046670458 2.272205266515476 -0.499999999999999
v 3.717978961637008 -1.801008733928422 -0.500000000000000
v 8.598523354071865 2.292452101919014 -0.499999999999999
v 7.900808429847912 1.590111715529416 -0.500000000000002
v 3.718231307771206 1.716440533852523 -0.500000000000000
v 0.782082447811418 -2.999999999999994 0.705217376171835
v 0.742740006453954 -2.999999999999996 -0.010573442341035
v 1.512087430653188 -3.000000000000002 0.623343122003808
v 4.394089786539931 -2.999999999999999 0.569470702421174
v 0.826705351387504 -3.000000000000001 1.413003476804907
v 1.474145739298954 -3.000000000000000 -0.123516379739470
v 2.211694298566182 -2.999999999999997 -0.218463273405935
v 2.237857461476253 -2.999999999999993 0.565126107080432
v 2.963764091244273 -3.000000000000000 0.539014519127064
v 2.983623289353561 -2.999999999999998 1.282118534142819
v 8.602560817714270 -2.999999999999995 0.055783901083471
v 7.902169510190199 -2.999999999999982 1.452425682132208
v 3.679592441638984 -2.999999999999997 -0.207758483268860
v 5.101881431317962 -2.999999999999997 -0.133111716403123
v 4.394803507390904 -3.000000000000000 -0.168397146671550
v 5.806203366514949 -3.000000000000003 1.357484379008023
v 3.682886253543014 -3.000000000000005 0.550145277746783
v 6.504324467801249 -2.999999999999995 0.664446222976057
v 5.804253845616730 -3.000000000000004 0.630646721711728
v 7.203771658353764 -2.999999999999998 0.698782890622877
v 5.101465698430405 -2.999999999999992 0.599369888836506
v 7.903185657537872 -2.999999999999998 0.732860561257106
v 1.549290323742441 -2.999999999999999 1.344633003506006
v 7.203966987827739 -2.999999999999993 1.421362149584420
v 6.504567267118815 -2.999999999999998 -0.061830845866402
v 7.902747382639402 -3.000000000000006 0.014075733478601
v 7.203403024404579 -3.000000000000008 -0.024105311259074
v 0.050149763864869 -2.999999999999999 0.784546249937065
v 0.008983442491365 -2.999999999999995 0.082526633722571
v 8.603423980400310 -2.999999999999996 0.767075720985677
v 9.308313135312920 -2.999999999999984 0.796903280483067
v 9.300228546360966 -2.999999999999999 1.497345900083813
v 2.267296152607646 -3.000000000000000 1.301616641959864
v 9.307658987123808 -3.000000000000000 0.101020055615881
v 2.948704991163646 -3.000000000000004 -0.234957809957308
v 8.600983708259294 -3.000000000000014 1.479739717583975
v 4.402113362143653 -3.000000000000000 1.302114136735119
v 3.695773738655597 -3.000000000000000 1.285017861636287
v 5.804189777012780 -3.000000000000000 -0.097575746649416
v 5.104980233676067 -2.999999999999997 1.327656725047482
v 6.505595781888108 -2.999999999999987 1.389108466453777
v 1.664768229051347 2.999999999999993 0.636839066963454
v 0.995757100187067 2.999999999999989 0.727624798667793
v 0.976926809260141 2.999999999999997 -0.068031718461881
v 1.627691962904588 3.000000000000008 -0.195776389229928
v 2.302576425429164 2.999999999999999 -0.270541831203087
v 2.343113879089060 2.999999999999980 0.559369622925681
v 8.605699978948840 3.000000000000008 0.944710464488512
v 7.906503877472118 3.000000000000000 -0.457543827087231
v 3.050508312097441 2.999999999999994 1.284235169711875
v 3.712892459554127 3.000000000000001 -0.304626147951739
v 6.516047727395500 3.000000000000028 1.064672447705339
v 5.816980712093635 2.999999999999997 -0.368545504345660
v 4.424446372917064 2.999999999999999 0.430081653487299
v 5.818790757357919 3.000000000000015 0.366102422433398
v 6.514796788468616 2.999999999999964 0.332565523074395
v 7.211165595809792 2.999999999999992 0.298598653911231
v 5.122427336994646 2.999999999999994 0.399306295961512
v 3.728219464604065 3.000000000000007 0.466918646789129
v 3.030768070390756 2.999999999999993 0.502541342313640
v 7.908246980165254 2.999999999999997 0.265109219077023
v 4.418956099751140 2.999999999999988 -0.317922829177547
v 4.433251275193406 2.999999999999978 1.182637973904106
v 7.209986154778442 3.000000000000017 -0.428108870511160
v 7.907954494246358 3.000000000000010 0.986961846636360
v 5.126258421007771 3.000000000000007 1.139335620232838
v 7.211210463686751 3.000000000000007 1.025609897095309
v 8.606601884672703 2.999999999999989 0.231386116701779
v 9.310091280840535 2.999999999999985 0.202102605122212
v 9.301688325402033 2.999999999999983 -0.499374196315886
v 1.684800699255068 3.000000000000000 1.439335938121465
v 2.365141656284754 3.000000000000000 1.352677952186655
v 9.309369446506958 2.999999999999987 0.899184175757336
v 8.603848100200898 2.999999999999984 -0.483434756876969
v 3.740937853939396 3.000000000000040 1.229763526746961
v 3.003620998901450 2.999999999999993 -0.295882416656640
v 5.821081898114389 2.999999999999999 1.101801120082968
v 5.119225864364220 2.999999999999988 -0.340824094517297
v 6.513742446471873 2.999999999999985 -0.397921286228957
v 0.322280358082516 2.999999999999978 0.039288565680471
v 0.329550898126307 2.999999999999950 0.814802738970724
v 10.000000000000073 -1.498558926668597 0.838797284075923
v 9.999999999999988 1.470131183674050 0.845127887742036
v 10.000000000000034 0.011480634315516 0.155892622195227
v 9.999999999999922 -0.757097950734644 0.841492636284373
v 10.000000000000014 -0.730213484249816 0.154960384595263
v 10.000000000000028 0.725503916586612 0.844163001413945
v 9.999999999999991 0.752153512860023 0.157970222615093
v 10.000000000000114 2.220537855219266 0.846591119167542
v 9.999999999999993 -2.240788005393522 0.832203678686763
v 9.999999999999966 -0.016427837227479 0.843265949779678
v 10.000000000000043 1.494928107614107 0.161051645971867
v 9.999999999999989 -1.474374047202129 0.153858255138758
v 9.999999999999913 2.978946702437677 0.847582102463884
v 9.999999999999941 -2.979174138609803 0.818414562115998
v 10.000000000000011 2.237914406235015 0.168614575099735
v 10.000000000000043 -2.226742083452008 0.154550466029420
v 9.999999999999998 2.978382448445593 0.181269716487964
v 10.000000000000060 -2.979496424988916 0.151991625759554
v 2.007391820000000 -2.229434480000000 -1.500000000000000
v -2.007391820000000 -2.229434480000000 -1.500000000000000
v -2.121320340000000 -2.121320340000000 1.500000000000000
v 2.121320340000000 -2.121320340000000 -0.500000000000000
v 10.000000000000000 3.000000000000000 -0.500000000000000
v -1.003695910000000 -1.114717240000000 -1.500000000000000
v 1.003695910000000 -1.114717240000000 1.500000000000000
v 10.000000000000000 -3.000000000000000 -0.500000000000000
v -1.003695910000000 1.114717240000000 1.500000000000000
v 1.003695910000000 1.114717240000000 1.500000000000000
v 1.003695910000000 1.114717240000000 -1.500000000000000
v -1.003695910000000 1.114717240000000 -1.500000000000000
v 2.007391820000000 2.229434480000000 -1.500000000000000
v -2.007391820000000 2.229434480000000 -1.500000000000000
v -2.121320340000000 2.121320340000000 1.500000000000000
v 2.121320340000000 2.121320340000000 -0.500000000000000
v 10.000000000000000 -3.000000000000000 1.500000000000000
v 10.000000000000000 3.000000000000000 1.500000000000000
f 12 15 23 1
f 23 32 16 1
f 16 5 21 1
f 21 7 12 1
f 143 128 4 2
f 4 29 30 2
f 30 26 19 2
f 19 147 143 2
f 11 9 8 3
f 8 33 34 3
f 34 18 17 3
f 17 22 11 3
f 128 482 6 4
f 6 485 29 4
f 16 24 20 5
f 20 14 33 5
f 33 8 21 5
f 482 134 10 6
f 10 28 485 6
f 483 141 12 7
f 21 8 9 7
f 9 144 483 7
f 11 140 144 9
f 123 25 28 10
f 134 160 123 10
f 22 139 140 11
f 141 129 15 12
f 34 33 14 13
f 14 184 206 13
f 206 241 27 13
f 27 18 34 13
f 20 484 184 14
f 129 147 19 15
f 19 26 23 15
f 32 31 24 16
f 18 108 107 17
f 107 110 22 17
f 27 113 108 18
f 24 183 484 20
f 110 157 139 22
f 26 411 32 23
f 31 232 183 24
f 35 349 348 25
f 348 368 28 25
f 123 153 35 25
f 30 384 411 26
f 241 173 113 27
f 368 298 485 28
f 485 389 388 29
f 388 384 30 29
f 32 411 410 31
f 410 171 232 31
f 87 345 349 35
f 153 136 87 35
f 148 265 241 206
f 40 52 46 36
f 46 58 41 36
f 148 206 184 189
f 58 46 45 37
f 45 487 61 37
f 61 85 64 37
f 64 65 58 37
f 488 272 267 38
f 267 242 84 38
f 84 83 59 38
f 59 51 488 38
f 218 281 488 39
f 488 51 50 39
f 50 52 40 39
f 40 179 218 39
f 58 65 82 41
f 82 244 265 41
f 55 60 47 42
f 148 189 284 179
f 53 49 57 42
f 57 54 55 42
f 48 49 53 43
f 243 134 482 128
f 126 127 56 43
f 56 44 48 43
f 52 50 48 44
f 56 487 45 44
f 45 46 52 44
f 60 152 160 47
f 243 128 143 126
f 50 51 49 48
f 51 59 57 49
f 83 73 71 54
f 71 67 55 54
f 57 59 83 54
f 67 66 60 55
f 127 162 487 56
f 66 151 152 60
f 487 132 159 61
f 159 158 85 61
f 84 242 231 62
f 231 268 491 62
f 491 80 73 62
f 73 83 84 62
f 81 76 77 63
f 77 69 80 63
f 80 491 68 63
f 68 74 81 63
f 85 493 72 64
f 72 79 65 64
f 79 490 82 65
f 492 130 151 66
f 67 75 492 66
f 71 69 75 67
f 491 211 245 68
f 245 240 74 68
f 71 73 80 69
f 77 70 75 69
f 77 76 78 70
f 78 155 154 70
f 154 492 75 70
f 493 78 76 72
f 76 81 79 72
f 490 79 81 74
f 240 164 490 74
f 493 161 155 78
f 490 180 244 82
f 158 131 493 85
f 99 110 107 86
f 107 108 91 86
f 91 97 101 86
f 101 100 99 86
f 112 351 345 87
f 136 156 112 87
f 119 120 117 88
f 117 201 194 88
f 194 250 122 88
f 122 111 119 88
f 121 104 90 89
f 90 120 119 89
f 119 111 114 89
f 114 92 121 89
f 104 102 98 90
f 98 96 120 90
f 108 113 105 91
f 105 106 97 91
f 133 146 121 92
f 114 103 93 92
f 93 142 133 92
f 103 118 94 93
f 94 145 142 93
f 118 116 95 94
f 95 135 145 94
f 116 497 494 95
f 494 150 135 95
f 98 101 97 96
f 97 106 109 96
f 109 117 120 96
f 102 100 101 98
f 137 157 110 99
f 100 138 137 99
f 102 495 138 100
f 104 149 495 102
f 114 111 462 103
f 462 426 118 103
f 121 146 149 104
f 113 173 182 105
f 182 196 106 105
f 196 496 109 106
f 496 201 117 109
f 122 463 462 111
f 115 371 351 112
f 156 150 115 112
f 497 299 371 115
f 150 494 497 115
f 118 426 427 116
f 427 428 497 116
f 250 176 463 122
f 160 152 153 123
f 132 487 162 124
f 162 129 141 124
f 141 483 144 124
f 144 140 132 124
f 161 493 131 125
f 131 137 138 125
f 138 495 149 125
f 149 146 161 125
f 243 47 160 134
f 143 147 127 126
f 147 129 162 127
f 53 243 126 43
f 135 150 156 130
f 156 136 151 130
f 492 145 135 130
f 158 157 137 131
f 140 139 159 132
f 155 161 146 133
f 142 154 155 133
f 153 152 151 136
f 157 158 159 139
f 145 492 154 142
f 266 255 168 163
f 168 205 204 163
f 204 172 169 163
f 169 275 266 163
f 174 180 490 164
f 240 250 194 164
f 194 201 174 164
f 215 186 198 165
f 198 273 270 165
f 270 272 294 165
f 294 167 215 165
f 268 192 170 166
f 170 454 453 166
f 453 177 211 166
f 211 491 268 166
f 405 415 215 167
f 294 281 249 167
f 249 387 405 167
f 255 274 251 168
f 251 203 205 168
f 172 229 185 169
f 185 239 275 169
f 192 263 233 170
f 233 432 454 170
f 410 383 387 171
f 387 249 287 171
f 287 284 232 171
f 204 448 445 172
f 445 457 229 172
f 241 265 244 173
f 244 180 182 173
f 196 182 180 174
f 201 496 196 174
f 208 234 178 175
f 178 220 264 175
f 264 256 289 175
f 289 212 208 175
f 250 240 245 176
f 245 211 177 176
f 177 425 463 176
f 453 424 425 177
f 234 223 292 178
f 292 195 220 178
f 284 287 218 179
f 47 243 53 42
f 419 422 197 181
f 197 207 190 181
f 190 191 261 181
f 261 420 419 181
f 232 284 189 183
f 189 184 484 183
f 148 36 41 265
f 229 233 263 185
f 263 202 239 185
f 392 420 261 186
f 261 191 198 186
f 215 415 392 186
f 270 273 269 187
f 269 288 276 187
f 276 242 267 187
f 267 272 270 187
f 195 193 238 188
f 238 227 295 188
f 295 285 260 188
f 260 220 195 188
f 207 236 278 190
f 278 258 191 190
f 258 273 198 191
f 286 202 263 192
f 268 231 286 192
f 280 199 283 193
f 283 282 238 193
f 195 292 280 193
f 422 398 230 197
f 230 277 207 197
f 248 472 464 199
f 464 467 283 199
f 280 291 248 199
f 282 473 469 200
f 469 465 217 200
f 217 216 227 200
f 227 238 282 200
f 288 252 239 202
f 286 276 288 202
f 251 259 209 203
f 209 449 434 203
f 434 459 205 203
f 205 459 448 204
f 148 179 40 36
f 277 219 236 207
f 406 394 234 208
f 212 423 406 208
f 259 271 210 209
f 210 447 449 209
f 271 214 213 210
f 213 430 447 210
f 289 277 230 212
f 230 398 423 212
f 214 279 257 213
f 257 455 430 213
f 254 216 279 214
f 271 293 254 214
f 217 253 279 216
f 254 295 227 216
f 465 471 253 217
f 287 249 281 218
f 277 289 256 219
f 256 222 237 219
f 237 235 236 219
f 260 226 264 220
f 226 260 285 221
f 285 293 290 221
f 290 274 224 221
f 224 222 226 221
f 256 264 226 222
f 224 228 237 222
f 418 414 291 223
f 291 280 292 223
f 234 394 418 223
f 274 255 228 224
f 235 237 228 225
f 228 255 266 225
f 266 275 262 225
f 262 247 235 225
f 457 432 233 229
f 242 276 286 231
f 247 278 236 235
f 252 262 275 239
f 258 278 247 246
f 247 262 252 246
f 252 288 269 246
f 269 273 258 246
f 498 477 472 248
f 291 414 498 248
f 274 290 259 251
f 471 476 499 253
f 499 257 279 253
f 293 285 295 254
f 499 476 455 257
f 290 293 271 259
f 488 281 294 272
f 283 467 473 282
f 379 374 318 296
f 318 397 395 296
f 395 417 298 296
f 298 368 379 296
f 305 301 300 297
f 300 369 358 297
f 358 309 382 297
f 382 341 305 297
f 417 389 485 298
f 458 433 341 299
f 341 382 371 299
f 497 428 458 299
f 301 311 338 300
f 338 332 369 300
f 460 435 311 301
f 305 444 460 301
f 327 324 373 302
f 373 356 340 302
f 340 330 303 302
f 303 361 327 302
f 330 331 376 303
f 376 360 361 303
f 346 362 350 304
f 350 306 347 304
f 347 348 349 304
f 349 345 346 304
f 341 433 444 305
f 350 334 375 306
f 375 333 374 306
f 374 379 347 306
f 370 364 328 307
f 328 329 315 307
f 315 308 333 307
f 333 375 370 307
f 315 421 396 308
f 396 397 318 308
f 318 374 333 308
f 358 362 346 309
f 346 345 351 309
f 351 371 382 309
f 354 322 313 310
f 313 312 335 310
f 335 372 367 310
f 367 381 354 310
f 435 461 314 311
f 314 363 338 311
f 313 321 320 312
f 320 326 319 312
f 319 355 335 312
f 322 323 321 313
f 461 446 316 314
f 316 317 363 314
f 329 407 421 315
f 446 431 342 316
f 342 381 317 316
f 381 367 366 317
f 366 353 363 317
f 326 325 324 319
f 324 327 355 319
f 321 470 466 320
f 466 468 326 320
f 323 474 470 321
f 378 359 323 322
f 354 380 378 322
f 359 478 474 323
f 325 352 373 324
f 326 468 475 325
f 475 479 352 325
f 361 339 355 327
f 364 360 376 328
f 376 331 329 328
f 331 409 407 329
f 340 393 408 330
f 408 409 331 330
f 338 363 353 332
f 353 336 377 332
f 377 357 369 332
f 357 377 337 334
f 337 370 375 334
f 350 362 357 334
f 355 339 372 335
f 353 366 365 336
f 365 343 344 336
f 344 337 377 336
f 344 364 370 337
f 361 360 343 339
f 343 365 372 339
f 356 416 393 340
f 431 456 380 342
f 380 354 381 342
f 360 364 344 343
f 379 368 348 347
f 479 481 489 352
f 489 356 373 352
f 489 481 416 356
f 362 358 369 357
f 486 480 478 359
f 378 452 486 359
f 366 367 372 365
f 380 456 452 378
f 384 388 385 383
f 385 405 387 383
f 410 411 384 383
f 388 389 390 385
f 390 415 405 385
f 397 396 403 386
f 403 422 419 386
f 419 420 399 386
f 399 395 397 386
f 417 391 390 389
f 391 392 415 390
f 417 395 399 391
f 399 420 392 391
f 416 413 412 393
f 412 404 408 393
f 404 412 418 394
f 406 402 404 394
f 421 401 403 396
f 401 400 423 398
f 422 403 401 398
f 407 409 402 400
f 402 406 423 400
f 401 421 407 400
f 409 408 404 402
f 413 414 418 412
f 416 481 477 413
f 477 498 414 413
f 453 454 429 424
f 429 428 427 424
f 427 426 425 424
f 426 462 463 425
f 429 442 458 428
f 454 432 442 429
f 455 451 450 430
f 450 443 447 430
f 443 450 456 431
f 446 439 443 431
f 457 441 442 432
f 441 436 444 433
f 458 442 441 433
f 449 439 438 434
f 438 437 459 434
f 437 438 461 435
f 460 440 437 435
f 445 448 440 436
f 440 460 444 436
f 441 457 445 436
f 440 448 459 437
f 439 446 461 438
f 449 447 443 439
f 451 452 456 450
f 455 476 480 451
f 480 486 452 451
f 472 479 475 464
f 475 468 467 464
f 469 470 474 465
f 474 478 471 465
f 470 469 473 466
f 473 467 468 466
f 478 480 476 471
f 477 481 479 472
