v -1.226437090698951 -2.727681876986521 0.845778425628782
v -1.236187174253519 -2.729998119587103 -0.377088163538117
v -2.843076878261420 -0.948008135811977 -0.897759478948776
v -0.591573072699932 -2.932263322883019 -1.002930968954381
v 0.483493951123937 -2.956328464371208 -1.029947186618003
v -0.039125160704875 -2.995852824785034 -1.019055327589777
v -2.826309746975571 -0.985670806314131 -0.299890809407050
v 0.996956918215497 -2.823176713521074 -1.029622911726461
v 1.479614028942263 -2.599303636402948 -1.024203197451191
v -2.801627823077507 -1.052944470393725 0.888852357641012
v 2.278668537806959 -1.949836591331065 -1.006830206379034
v 2.972368034511816 -0.303123850911292 -0.585763452159665
v -1.831377856807939 -2.372206412561765 -0.903718229421368
v 1.904829391395884 -2.310818922530121 -1.014332209300152
v -2.229261118832144 -1.993659310235454 -0.305163289223388
v -2.281122036772059 -1.941309631428636 -0.886593260877320
v -2.578805543825939 -1.509193529308710 -0.296788878336400
v 2.627866489058828 -1.445505350525810 -1.014829500833863
v -2.618262811407093 -1.459454796322915 -0.890806153997728
v 0.455217803083150 -2.956877490228610 -0.566239089501841
v -2.201102148338075 -2.032401270735445 0.275634654493233
v -1.232456259547452 -2.729270820241535 0.219294785156552
v -0.147071390911166 -2.989060314404341 0.763406345879567
v -2.537529798224989 -1.583640703628849 0.878038510914774
v 2.848977480286818 -0.899263446307666 -0.560946633748715
v -2.958251064201470 -0.437031270489041 -0.303657289290377
v -2.960668926427171 -0.467411255071778 0.293572829372355
v -2.166454932777202 -2.063911771189436 0.868094700036600
v -1.780189223267087 -2.407998424089932 -0.330434432187706
v 2.569684160942872 -1.526598149504530 -0.511601298547289
v -0.110109751679590 -2.991776405588289 0.020368791340402
v -0.619661128494238 -2.926797099521238 -0.459556828762711
v -0.064492385715794 -2.995471287884236 -0.525486416360528
v 1.818484634665430 -2.370821050845719 -0.526352616371118
v 1.435876228971349 -2.619540285139148 -0.552841314604463
v 0.963099917823612 -2.830418243322207 -0.571455010159239
v -1.721334501073161 -2.447310508512647 0.860555947928925
v -0.692327781929785 -2.912662712851847 0.814984911883937
v 2.870524565825020 -0.860555951764262 -1.028841463124111
v -1.754282126825637 -2.432183866302095 0.258662748442277
v -0.674902942078278 -2.914607906518166 0.153514037838932
v -1.239169132678711 -2.728333804571654 -0.953181076640700
v -2.965167312536675 -0.405789791418546 -0.901212639667731
v -2.956895348877469 -0.489971684143460 0.894109138215311
v -2.814070357302412 -1.024881267221347 0.291748474786022
v -2.561445478504568 -1.552230567483418 0.285233147358936
v 2.981051013239365 -0.289467702711022 -1.039715939855210
v 1.468785889024261 -0.289947566693057 -0.988115615733910
v 0.571118151637317 -1.385497211554571 1.040182495336963
v -1.090583916875794 -1.029639451855297 1.035146924543019
v -1.436527553256047 -0.409924077111006 0.048974492470657
v 1.125719335313399 -0.985383213026660 1.030215133534925
v -1.446076872487412 -0.371998616515569 -0.463693927192992
v 1.464643718104226 -0.315893889119842 0.025402364149786
v -1.407511394351624 -0.498232637407048 1.024452301205598
v 1.266790931612540 -0.787538072945319 -0.982235060297534
v -1.208277709517140 -0.886976582340639 -0.462036029319103
v -1.249383260921924 -0.821502393589926 -0.983345649798270
v 1.464298738063493 -0.306560831169015 -0.481571107157939
v 0.786997984345373 -1.272597211306039 -0.981263737385791
v 1.220963261614481 -0.867235235098504 0.028900456388358
v 1.244609165112304 -0.831136194296032 -0.484118303789855
v 1.185521138980358 -0.913432063577937 0.550130573499246
v -0.763084796534795 -1.290702570794447 -0.978865425879702
v -1.167196308328716 -0.934918956352754 0.065415688726623
v 0.011758165159348 -1.493237520654663 -0.456590743302321
v -1.129440330219117 -0.978028535620327 0.574136913956313
v 0.683929852220495 -1.332558815864346 0.051827721787959
v 0.003674148268025 -1.492422815445409 -0.978675547042232
v 0.627120177378223 -1.357451511335319 0.575769455524748
v 0.004902540826713 -1.493631913079207 0.072252531691131
v -0.645779361023646 -1.346721371952567 0.073528614802788
v -1.456295393522463 -0.339260113330849 -0.980879618907823
v -0.688511509732936 -1.327040464443615 -0.455511712902300
v 0.734260012420040 -1.305896841257534 -0.468548005321970
v -0.011349125515220 -1.494042701890484 0.584771042940723
v -0.613796169270859 -1.363092787643696 0.582712998770599
v -0.019255480133056 -1.497267946679573 1.039218311606133
v 1.453070325008781 -0.348344018727195 1.017381342490614
v -0.595306359787331 -1.372149403660302 1.034501712620564
v -1.425444699348399 -0.460375609646037 0.546465672346263
v 1.459745108886240 -0.330934681550717 0.528731366002137
v 1.155627695230406 0.952615924739093 1.018566857713367
v 0.086799283114245 1.492596477238946 0.544748131208319
v 1.477220839587073 0.232996304484119 -0.988917152379136
v -1.351557125799907 0.640646971994422 0.052077189295997
v 0.694749520924068 1.324827162912902 0.545751716539350
v 1.476566613731390 0.260483368753349 0.029829231701054
v -1.484718059060623 0.148931503943190 -0.973005137205193
v -1.354455416520902 0.641832466643854 -0.956282286660563
v -0.996105870507738 1.120934732250120 -0.963480211409566
v 1.277910394589647 0.773121382027079 -0.472029827039793
v -1.355539498339350 0.633397602343052 0.537785575347600
v 1.298419756066695 0.736901320810972 -0.988019863614626
v -1.354741757439824 0.641696995043100 -0.442443973345977
v -1.023748981767353 1.092831709806452 0.068890796480880
v 0.047300588149202 1.493085206600549 0.990131376528125
v 0.642964561421441 1.348818791370187 1.002365416967813
v 1.251727639033930 0.819939685951819 0.047087137174189
v 0.218671536971421 1.479432647859104 -0.973080200279021
v -0.474810725193102 1.421243192741794 0.088963225906569
v -0.527078763492259 1.400568019186117 1.004089897673484
v 0.132679507696480 1.491842456999040 0.084925788644189
v -1.013954363886810 1.102181337716351 -0.434776872767834
v 1.211258694647384 0.879560901998956 0.548550695663969
v 0.754747975292549 1.294430437024687 0.064474503497979
v -0.434130376450796 1.433745165194575 -0.969187461345720
v 0.810856225561832 1.256755988756474 -0.457121808572029
v -0.459008458649852 1.427351667412418 -0.439016688065150
v 0.860931508089795 1.219272254308859 -0.979704882873802
v -1.014786875091932 1.099624680776836 0.551537118008929
v -1.486854079343663 0.138675919330726 -0.458523559428968
v -1.362244635756058 0.624943162696687 1.016251688659113
v 0.183654183707839 1.487865385178924 -0.444221864639658
v -1.494730182440152 0.071333924423536 1.018826592952665
v -0.501471115586141 1.411585798126767 0.554673694381086
v -1.017548370801993 1.097233336260049 1.016047863730266
v -1.490826083774254 0.120331052748855 0.044409008646288
v -1.492407237460434 0.095328527203830 0.535500028376654
v 1.459191175855095 0.325853653251579 1.016229797113594
v 1.476565219067155 0.241164559116544 -0.478465385787887
v 1.468659444291628 0.290953982097500 0.529294096445191
v -1.105754842984542 2.775129236330880 0.839184149221192
v -2.913845902331463 0.684417832308228 -0.308182752527894
v 0.604871907933070 2.929166032391508 -1.028109288044148
v -0.372841457346217 2.975871277853428 -1.006062249979926
v -2.916996056682465 0.664342809424083 0.291221699874629
v 1.078362208700495 2.789607787953878 -1.027172257349140
v -2.015529522082797 2.216424161671092 -0.321825618913747
v 1.521964365567816 2.572091528447769 -1.021844473716842
v -2.033985386567606 2.192310044609886 0.266690460468622
v 2.284290487359360 1.943606283172099 -1.006523202354740
v 2.974855588004570 0.279408783443260 -0.591620459943357
v 1.920266954716378 2.295891257865371 -1.013209285670694
v -2.406999669249672 1.766675792711054 -0.900665999556469
v -2.421187206174790 1.765550985943678 -0.314408253230618
v -1.991988846731529 2.225651354065658 -0.902970367186457
v -2.715500917509335 1.243435816691687 -0.904810249402257
v 0.081215986828861 2.992845708580958 -0.532633848569515
v -0.037919305417990 2.997179250886971 0.743544529748797
v -2.449071130180013 1.714351082395407 0.881742395418868
v -0.991790702909244 2.824558431392990 -0.407229997247298
v 2.634653937545123 1.432897527040245 -1.015811026161642
v 2.855418556074344 0.878724162328327 -0.567808118253659
v -2.988632482468542 0.124497150291742 -0.306007378046869
v -1.496091075657274 2.584769532556768 -0.932796347423929
v -2.991446264345611 0.100562397190648 0.292653417251652
v -2.063173273415194 2.165169181314297 0.868794034836105
v -2.740757591671811 1.190224822793509 0.890474712930659
v 2.576372505424221 1.514158100221074 -0.512780764807660
v -0.503441389442642 2.953553867326206 0.123922226718660
v -1.537200706741768 2.566156504403998 -0.352967033221955
v -0.410687947407183 2.970304722250998 -0.485801244761090
v 1.831661659796472 2.359919778254533 -0.523984154330845
v 1.478330784059544 2.596675250859655 -0.547623185571208
v -1.611605270623929 2.517618422328998 0.860202605486519
v 1.039878942735276 2.806958721382440 -0.566943682550121
v -0.919175268802132 2.849148690633340 -0.986134341592122
v -1.054518746403090 2.799007636812839 0.198888744989408
v -0.573251865311683 2.938779989156532 0.801260492604100
v -2.733438440449892 1.225429341363007 -0.311850884698682
v 2.875334242021064 0.840445150646955 -1.033651043607285
v -2.432372810876245 1.741508915494601 0.280489655260008
v -1.574901938890008 2.539954506329977 0.244760486570938
v -2.738553909807938 1.207402003661618 0.287293067865332
v 0.119925150359865 2.992871748281288 -1.022251444316061
v -2.993542884445524 0.080592940413844 0.895089797315641
v -2.987690840381412 0.147998184076501 -0.902928022655242
v -2.922569053600404 0.646668245180559 0.894067318881471
v -2.907086840498387 0.702510204535879 -0.904141214912804
v 0.568165137433866 2.944911767808164 -0.570334569973862
v 2.979618932862605 0.277092048693092 -1.041148354504768
v 2.498287398037608 0.258368546329831 -1.500000000000000
v -1.474895594495078 -1.905817835785225 -1.500000000000006
v -1.615150312637252 1.847174520447954 -1.500000000000021
v 1.810645865886846 1.886198078028102 -1.500000000000003
v 2.109336706377864 -1.384346217654545 -1.500000000000000
v 1.538108211531807 1.310924522990675 -1.499999999999992
v -0.676397176433692 -2.120284603692093 -1.500000000000000
v 1.213290331022029 -2.071283320716627 -1.500000000000000
v 0.730667787533395 2.180992301260297 -1.499999999999992
v 1.509628794437177 -1.323511117642673 -1.500000000000000
v 2.124130985293085 1.371924277212231 -1.500000000000000
v 2.495202949558816 -0.279797515282570 -1.500000000000000
v -0.358928582498692 2.197332480922314 -1.499999999999983
v -0.023499089790530 -2.252703318134124 -1.500000000000001
v -0.944721310273536 2.015760795761487 -1.500000000000007
v 2.364593450689626 -0.831659760456628 -1.500000000000000
v 1.787552690173062 -1.899713488568873 -1.500000000000000
v -1.798419214139783 1.204379414068307 -1.500000000000000
v 0.184606686717354 2.250527671322486 -1.499999999999997
v 0.599791573075552 -2.219395258603634 -1.500000000000001
v 1.282026860035434 2.046824596998052 -1.499999999999996
v -1.712879506722603 -1.295548578666085 -1.500000000000006
v -1.909722391216893 -0.794546992078932 -1.500000000000012
v 1.887324601619809 -0.262687192251013 -1.499999999999999
v -2.025311151556363 0.165176245234372 -1.499999999999996
v 1.889142292601440 0.235995222736586 -1.499999999999997
v -2.011450361615529 -0.311364071896575 -1.500000000000004
v 2.375867316145720 0.812190583964497 -1.499999999999999
v 1.777635525659030 0.754544770078852 -1.499999999999996
v 1.764911170086440 -0.778731063513380 -1.499999999999999
v -1.952562332431406 0.662632044906793 -1.499999999999993
v 1.679984268863204 -2.079691195430135 1.500000000000006
v 5.118861302891591 1.338095924037638 1.500000000000001
v 2.423832692474514 2.113436888747870 1.500000000000001
v -0.556079652879148 2.014194210782028 1.500000000000005
v -1.882291339085431 -1.073626787070691 1.500000000000025
v 4.141945351166381 2.211982779792795 1.500000000000000
v 2.404037252511143 -2.134499816102716 1.500000000000002
v -1.737453296501430 1.772421974912190 1.500000000000029
v -1.861175530354934 1.148310625358023 1.500000000000051
v 8.104235898140121 -1.348142063599600 1.499999999999982
v 0.468671818289719 -2.067553957119353 1.499999999999991
v 5.048373037016239 -2.236795903829906 1.499999999999996
v -2.004577573902929 -0.487227650117449 1.500000000000048
v 4.123153449203879 -2.221033800379757 1.500000000000001
v -1.109564749310533 1.896637939971381 1.500000000000004
v 9.129509673319665 -0.442461219666808 1.500000000000005
v 2.439953292695986 -0.368949904075403 1.500000000000004
v -1.761572450732900 -1.726649995128668 1.500000000000020
v 9.137812470779338 -1.338725875468993 1.499999999999995
v -1.143664554759427 -1.865945646045371 1.500000000000038
v 1.043074301102332 -2.060577405446014 1.499999999999993
v 3.250927722784149 2.175068297936642 1.500000000000000
v 3.229861518710423 -2.174296370179937 1.500000000000006
v 9.151731654397093 0.453292959084568 1.499999999999994
v 6.051919270315715 2.228332126006807 1.500000000000003
v 5.075969486999178 2.219208361043432 1.500000000000001
v 7.059070286338558 -2.232668438550246 1.499999999999997
v 1.713258150099370 2.054122628216366 1.500000000000000
v 7.062024133892943 2.231027969161888 1.500000000000004
v 1.085571147969830 2.047587209814797 1.499999999999989
v 8.090379189147288 2.240549559690827 1.500000000000005
v 6.104856130354175 -0.445791524087082 1.500000000000003
v 2.425882867436250 -1.176683088788930 1.500000000000001
v 8.113891725439105 -0.447057218117854 1.499999999999998
v 7.104080340049093 0.449700715551722 1.499999999999996
v -1.985177865507472 0.579183737833660 1.499999999999990
v 5.136359703384514 0.444344102980605 1.499999999999998
v 7.090650681178747 1.347689916463240 1.499999999999998
v 7.101634205144633 -0.447517704951790 1.499999999999998
v 9.146604465266364 1.333969540443315 1.500000000000004
v 6.106672461858118 0.449040945023075 1.500000000000000
v 8.084540059759377 -2.234821795192648 1.499999999999998
v -2.043400361432755 0.045426226194610 1.500000000000002
v 5.133920867340599 -0.443269726522704 1.499999999999997
v 0.523682883895690 2.078525129834388 1.500000000000083
v 4.183523898792233 -0.433694480899708 1.500000000000001
v -0.016931265905441 2.080285746167865 1.499999999999928
v 6.090202182558230 1.345744076830220 1.500000000000001
v 2.423132614687674 1.166818680745401 1.500000000000004
v 4.185750872275326 0.435215683545662 1.499999999999989
v 7.086005072497621 -1.345948113347170 1.500000000000003
v 1.870750192461376 -0.344793277684540 1.499999999999996
v 1.745454381172650 1.106642686513963 1.499999999999996
v -0.071912935931973 -2.072836989999010 1.500000000000020
v 3.252479129603888 -0.403679176083649 1.500000000000006
v 1.734843381332863 -1.114764852371606 1.499999999999990
v 2.435139540073799 0.375306553816849 1.500000000000002
v 5.108958714010591 -1.334498441132037 1.499999999999995
v 4.176528897144152 1.313786146943237 1.500000000000012
v 1.861569179832517 0.353003053897627 1.499999999999993
v -0.604785348333749 -1.999267206877104 1.500000000000002
v 3.255835438124196 -1.259103176975765 1.499999999999997
v 9.105721461308587 2.227239101381789 1.500000000000016
v 8.109837311871804 1.346408488616147 1.500000000000002
v 8.118561299648416 0.449894113655542 1.500000000000008
v 6.041344692189096 -2.234944044668056 1.499999999999995
v 6.083761487523381 -1.340566660927846 1.499999999999999
v 3.260852521886551 1.262452159789343 1.500000000000005
v 3.253180478649390 0.407590513285204 1.500000000000000
v 9.100973108003251 -2.230320979212808 1.499999999999999
v 4.167401836277501 -1.315516030703926 1.499999999999993
v 4.292420718435090 1.713439270578521 -0.500000000000001
v 3.294372782273171 -2.289374961646388 -0.500000000000000
v 3.307076434056912 2.286821179898855 -0.500000000000000
v 4.086614587197349 -0.326710357468832 -0.500000000000000
v 7.935718827927163 -2.069674317932547 -0.500000000000000
v 5.583611830875816 1.908689356281002 -0.500000000000001
v 4.532751777708590 2.535805149530526 -0.500000000000000
v 4.116181597633867 -0.970663473232930 -0.500000000000000
v 6.791445581272115 1.999436082854839 -0.499999999999997
v 9.071906256382857 1.262847419877211 -0.500000000000001
v 5.713100591928470 2.671426247003788 -0.500000000000002
v 5.688152870540362 -2.677051738128151 -0.499999999999999
v 4.531476292434173 -2.551318434192849 -0.499999999999999
v 5.466587617312139 1.108507480160258 -0.499999999999999
v 6.854044195157583 2.741156253163632 -0.500000000000000
v 6.831378499767249 -2.748305813060516 -0.500000000000000
v 7.974238066407894 -2.799979322465571 -0.500000000000000
v 7.977704017801665 2.792778637230337 -0.500000000000001
v 5.558009910544448 -1.929751119683031 -0.500000000000000
v 3.297319455730888 0.876519863682459 -0.500000000000000
v 3.304818197549340 -0.893759245893708 -0.500000000000000
v 5.371565811402929 -0.378075089571905 -0.500000000000000
v 9.060220149581712 0.421214898242213 -0.500000000000000
v 6.688745138950653 0.388147691792755 -0.500000000000000
v 3.222434735072072 -1.539298857930807 -0.500000000000000
v 7.904848251461161 -1.241244297716981 -0.500000000000000
v 6.683375840899407 -0.400262650910637 -0.499999999999999
v 3.226065244610460 1.527744767411803 -0.500000000000000
v 3.351363954317557 0.271393722941783 -0.500000000000000
v 4.068179377131088 0.293847934645910 -0.500000000000000
v 3.368291491377768 -0.303848235603365 -0.500000000000000
v 9.070218827110837 -1.271510423102622 -0.500000000000000
v 9.056480114683691 -0.426297922356918 -0.500000000000001
v 4.140411379454688 0.961676856662763 -0.500000000000002
v 6.714559104918485 -1.199085308907040 -0.500000000000000
v 6.726025024218488 1.187130013606786 -0.499999999999999
v 5.435998674245734 -1.126952194460217 -0.499999999999999
v 4.279717511530151 -1.722599034406370 -0.500000000000000
v 9.049268066596605 -2.857887515957013 -0.500000000000000
v 7.891636150453387 0.404808630196347 -0.499999999999999
v 5.387146302224663 0.355878433536318 -0.500000000000000
v 9.052957115370223 2.110123088157889 -0.500000000000000
v 7.938927202549514 2.064443061872934 -0.500000000000004
v 9.049338945350307 -2.120244689406184 -0.499999999999999
v 7.910390387155637 1.230349813316963 -0.500000000000004
v 7.890401161249161 -0.416631446051293 -0.500000000000000
v 9.052745743819312 2.854729469887888 -0.499999999999998
v 6.767620277624058 -2.008996840638484 -0.500000000000001
v 1.528073328655152 -3.000000000000004 0.525529255503318
v 0.954962680335674 -2.999999999999993 0.631488773062743
v 1.429618621509174 -2.999999999999997 -0.341660785007052
v 2.003490649100917 -2.999999999999999 -0.421141757883967
v 2.163124733529830 -3.000000000000004 0.481130605041392
v 0.941984783218945 -2.999999999999996 -0.179370519472776
v 2.950787980667765 -3.000000000000000 0.549790930498714
v 3.591485267676410 -3.000000000000000 -0.338798993722703
v 4.700734834276229 -3.000000000000006 -0.182894267267119
v 6.901595537436490 -3.000000000000007 -0.027105357501558
v 3.877513565490861 -2.999999999999996 0.612358658955191
v 6.963408056838879 -3.000000000000000 0.760965882033494
v 4.876966415650790 -2.999999999999988 0.698975716201823
v 8.028341667944058 -2.999999999999993 0.798388117089476
v 5.897089410316976 -2.999999999999985 0.741679503943862
v 7.998555956179619 -3.000000000000000 0.000935305186387
v 9.067447650226699 -2.999999999999986 0.824991036691312
v 9.052346011279091 -3.000000000000001 0.050653152313112
v 2.629280695570174 -3.000000000000000 -0.486185962012615
v 0.382370977479883 -3.000000000000000 0.702844624946654
v 5.791467973066132 -3.000000000000011 -0.100015237224576
v 0.409546502003650 -2.999999999999999 -0.084139086441124
v 1.581093285983037 3.000000000000004 0.495961965962259
v 0.468184330308571 2.999999999999969 0.662477690006319
v 0.524630256069583 2.999999999999979 -0.086025948886048
v 1.013581210775383 2.999999999999976 0.568750630519943
v 1.014267122674484 3.000000000000001 -0.190381709279759
v 1.474245542204901 3.000000000000001 -0.349298834322417
v 2.040802999624736 2.999999999999999 -0.427476272539287
v 2.214728549961857 3.000000000000014 0.469683586698473
v 2.980775651503726 2.999999999999981 0.544759133567526
v 3.612445689470842 2.999999999999995 -0.341423871316040
v 5.821238875709547 2.999999999999989 -0.085141458475616
v 5.922533576221108 3.000000000000008 0.725611920301089
v 6.978561880800980 2.999999999999989 0.770621534790637
v 3.894836406495193 2.999999999999997 0.605045206085357
v 8.041534628095327 2.999999999999953 0.796060686402031
v 6.916853738151332 2.999999999999996 -0.041614893013401
v 4.894739532488830 2.999999999999996 0.702052774191491
v 8.009421094673352 2.999999999999980 0.006640309381940
v 9.067649682959265 2.999999999999996 0.833828173991098
v 2.665285390398174 3.000000000000000 -0.486446944342956
v 4.719178431262836 3.000000000000017 -0.187379754199677
v 0.026824979760947 3.000000000000006 -0.013330678102695
v 9.056541971611178 2.999999999999986 0.045588649213567
v 10.000000000000014 -1.300107571154324 0.832850941867259
v 9.999999999999972 1.298709098228406 0.832928496005613
v 10.000000000000000 -0.432614715998702 0.166532191743714
v 9.999999999999993 0.431267045824033 0.166546743347857
v 9.999999999999996 -1.290244958074072 0.166102189684310
v 9.999999999999993 1.286957060293937 0.166194511602579
v 10.000000000000076 2.177203756474501 0.853223898545806
v 9.999999999999973 -2.178813596090935 0.852982068638356
v 10.000000000000028 0.434995093061826 0.833202093591606
v 9.999999999999979 -0.433843982712453 0.833188964088002
v 9.999999999999988 -2.166973743658186 0.138836314289117
v 9.999999999999993 2.164417425505913 0.139274807784871
v 0.506001767700591 -2.942666325253333 -1.500000000000000
v 1.037215171129950 -2.804121291808133 -1.500000000000000
v 1.552853427168487 -2.559675947993766 -1.500000000000000
v 2.344377641929399 -1.855173804877355 -1.500000000000000
v -2.843475020467099 -0.903705107946617 -1.500000000000000
v -1.218365202972028 -2.734054501280764 1.500000000000000
v -1.261134649133493 -2.704425916580892 -1.500000000000000
v -2.625534867110105 -1.419571581770127 -1.500000000000000
v -2.328604063056267 -1.872692139163227 -1.500000000000000
v 2.654910743527469 -1.368691071110217 -1.500000000000000
v 2.970844331420721 -0.277397646363684 -1.500000000000000
v -0.683831901863118 -2.912457708774214 1.500000000000000
v -2.793208728978559 -1.076943112849088 1.500000000000000
v -2.510184729508071 -1.637196086696538 1.500000000000000
v -0.600950794942893 -2.922484285949138 -1.500000000000000
v 2.869640096254745 -0.823177284812340 -1.500000000000000
v -0.034627250650313 -2.983565690000000 -1.500000000000000
v -2.960894918154203 -0.372059986735917 -1.500000000000000
v -0.137574633863393 -2.986450081051580 1.500000000000000
v -2.950741837599597 -0.500126508713135 1.500000000000000
v -1.708998827418266 -2.459703869761599 1.500000000000000
v 1.452165815317818 -0.358203866033012 1.500000000000000
v -1.404814399656919 -0.503936541349487 1.500000000000000
v 1.292692528083470 -0.744556549095697 -1.500000000000000
v -1.286578073579993 -0.755147094852714 -1.500000000000000
v -0.574838511855394 -1.377025023298060 1.500000000000000
v -0.032947450894260 -1.491782840000000 1.500000000000000
v 0.516683253896564 -1.402917410422091 1.500000000000000
v -0.015422196834676 -1.491782840000000 -1.500000000000000
v -1.468008005609826 -0.304383487707145 -1.500000000000000
v 1.472448270896212 -0.262137186406520 -1.500000000000000
v -1.483535368856053 0.156650497942866 -1.500000000000000
v 1.451177592649388 0.361245302730706 1.500000000000000
v 0.566888964621241 1.380564389499361 1.500000000000000
v -1.350815436529080 0.643884719568765 -1.500000000000000
v -1.375208750767370 0.595053361341776 1.500000000000000
v 1.309340541541141 0.715721344223921 -1.500000000000000
v -0.537017504448805 1.393864019453584 1.500000000000000
v 0.223791705238066 1.477541759537061 -1.500000000000000
v 0.014009698316915 1.491782840000000 1.500000000000000
v -0.404400687499065 1.439152134860204 -1.500000000000000
v 1.476100616120551 0.227387443575974 -1.500000000000000
v -1.494709739280494 0.050333467462029 1.500000000000000
v 2.972521588309912 0.261439613635200 -1.500000000000000
v 0.637600422074751 2.914694167011199 -1.500000000000000
v 1.126683550912612 2.764287402532700 -1.500000000000000
v 1.594020501145558 2.529766318449589 -1.500000000000000
v 2.348969784815975 1.850073713463570 -1.500000000000000
v -2.907131880226591 0.707789438311288 -1.500000000000000
v -1.662627556410085 2.496591325721829 1.500000000000000
v -1.495955401255786 2.599876981389087 -1.500000000000000
v -2.718126529624770 1.259198117344352 -1.500000000000000
v -2.400666490640929 1.792658704390227 -1.500000000000000
v 2.662199137896926 1.356067201710033 -1.500000000000000
v -0.599182228208178 2.938135906040756 1.500000000000000
v -1.144632298825227 2.772675439300538 1.500000000000000
v -2.930486275307415 0.624399681693587 1.500000000000000
v -2.751089484788853 1.186494990480055 1.500000000000000
v -2.458613458225529 1.710327497682465 1.500000000000000
v -0.360090521762885 2.973680718828150 -1.500000000000000
v -0.886897979524841 2.861704333949950 -1.500000000000000
v 2.875460561853878 0.805263733629449 -1.500000000000000
v 0.142121369924226 2.983565690000000 -1.500000000000000
v -2.982720727200818 0.164401292748119 -1.500000000000000
v -0.056665341795609 2.994418950885398 1.500000000000000
v -2.993649778069567 0.064474884341096 1.500000000000000
v 1.010497991729026 -3.000000000000000 1.500000000000000
v 0.422512159860047 -3.000000000000000 1.500000000000000
v 0.492498490361054 3.000000000000000 1.500000000000000
v 1.068625491203099 3.000000000000000 1.500000000000000
v 1.624141548258198 -3.000000000000000 1.500000000000000
v 2.334344681931245 -3.000000000000000 1.500000000000000
v 1.671918127454051 3.000000000000000 1.500000000000000
v 2.376239472126016 3.000000000000000 1.500000000000000
v 3.179279697983287 3.000000000000000 1.500000000000000
v 4.042997883243443 -3.000000000000000 1.500000000000000
v 4.981084849761052 -3.000000000000000 1.500000000000000
v 10.000000000000000 -1.324867795809958 1.500000000000000
v 10.000000000000000 0.442980212845475 1.500000000000000
v 5.007674258995553 3.000000000000000 1.500000000000000
v 7.028070873079975 3.000000000000000 1.500000000000000
v 6.000389884004301 3.000000000000000 1.500000000000000
v 7.018190105212449 -3.000000000000000 1.500000000000000
v 8.068841483522132 -3.000000000000000 1.500000000000000
v 8.079646479989540 3.000000000000000 1.500000000000000
v 3.153294361051109 -3.000000000000000 1.500000000000000
v 10.000000000000000 1.325091956640403 1.500000000000000
v 4.061939748098874 3.000000000000000 1.500000000000000
v 5.980265892628556 -3.000000000000000 1.500000000000000
v 10.000000000000000 -2.192874414141329 1.500000000000000
v 9.083565423211022 -3.000000000000000 1.500000000000000
v 10.000000000000000 2.191779800244571 1.500000000000000
v 9.086043303813362 3.000000000000000 1.500000000000000
v 10.000000000000000 -0.439464892906538 1.500000000000000
v 10.000000000000000 0.427384855784571 -0.500000000000000
v 10.000000000000000 1.290069665685662 -0.500000000000000
v 10.000000000000000 -1.295579583125035 -0.500000000000000
v 10.000000000000000 -0.431566672740881 -0.500000000000000
v 10.000000000000000 -2.161340150147638 -0.500000000000000
v 10.000000000000000 2.156666550873436 -0.500000000000000
v 10.000000000000000 -3.000000000000000 0.154785294813452
v 10.000000000000000 -3.000000000000000 0.821012807223712
v 10.000000000000000 3.000000000000000 0.822007165443715
v 10.000000000000000 3.000000000000000 0.155712698233638
v 2.007391820000000 -2.229434480000000 -1.500000000000000
v -2.007391820000000 -2.229434480000000 -1.500000000000000
v -2.121320340000000 -2.121320340000000 1.500000000000000
v 2.121320340000000 -2.121320340000000 -0.500000000000000
v 1.003695910000000 -1.114717240000000 -1.500000000000000
v -1.003695910000000 -1.114717240000000 -1.500000000000000
v 1.003695910000000 -1.114717240000000 1.500000000000000
v -1.003695910000000 -1.114717240000000 1.500000000000000
v -1.003695910000000 1.114717240000000 1.500000000000000
v 1.003695910000000 1.114717240000000 1.500000000000000
v 1.003695910000000 1.114717240000000 -1.500000000000000
v -1.003695910000000 1.114717240000000 -1.500000000000000
v 2.007391820000000 2.229434480000000 -1.500000000000000
v -2.007391820000000 2.229434480000000 -1.500000000000000
v -2.121320340000000 2.121320340000000 1.500000000000000
v 2.121320340000000 2.121320340000000 -0.500000000000000
v 10.000000000000000 -3.000000000000000 1.500000000000000
v 10.000000000000000 3.000000000000000 1.500000000000000
v 10.000000000000000 -3.000000000000000 -0.500000000000000
v 10.000000000000000 3.000000000000000 -0.500000000000000
f 22 41 38 1
f 38 391 385 1
f 385 400 37 1
f 37 40 22 1
f 42 4 32 2
f 32 41 22 2
f 22 40 29 2
f 29 13 42 2
f 384 387 19 3
f 19 17 7 3
f 7 26 43 3
f 43 397 384 3
f 394 396 6 4
f 6 33 32 4
f 42 386 394 4
f 380 381 8 5
f 8 36 20 5
f 20 33 6 5
f 6 396 380 5
f 17 46 45 7
f 45 27 26 7
f 381 382 9 8
f 9 35 36 8
f 382 484 14 9
f 14 34 35 9
f 45 46 24 10
f 24 393 392 10
f 392 399 44 10
f 44 27 45 10
f 383 389 18 11
f 18 30 487 11
f 487 34 14 11
f 14 484 383 11
f 133 303 305 12
f 305 295 25 12
f 25 39 47 12
f 47 172 133 12
f 485 386 42 13
f 29 15 16 13
f 16 388 485 13
f 29 40 21 15
f 21 46 17 15
f 17 19 16 15
f 19 387 388 16
f 39 25 30 18
f 389 395 39 18
f 36 328 344 20
f 344 31 33 20
f 40 37 28 21
f 28 24 46 21
f 31 344 342 23
f 342 447 398 23
f 398 391 38 23
f 38 41 31 23
f 28 486 393 24
f 295 299 30 25
f 27 147 145 26
f 145 168 43 26
f 44 167 147 27
f 37 400 486 28
f 299 276 487 30
f 41 32 33 31
f 487 341 326 34
f 326 325 35 34
f 325 328 36 35
f 395 390 47 39
f 168 443 397 43
f 399 445 167 44
f 390 423 172 47
f 85 421 410 48
f 410 403 56 48
f 56 62 59 48
f 59 121 85 48
f 407 490 52 49
f 52 63 70 49
f 70 76 78 49
f 78 406 407 49
f 491 405 80 50
f 80 77 67 50
f 67 81 55 50
f 55 402 491 50
f 65 57 53 51
f 53 112 118 51
f 118 119 81 51
f 81 67 65 51
f 490 401 79 52
f 79 82 63 52
f 57 58 73 53
f 73 89 112 53
f 82 122 88 54
f 88 121 59 54
f 59 62 61 54
f 61 63 82 54
f 81 119 115 55
f 115 422 402 55
f 403 488 60 56
f 60 75 62 56
f 65 72 74 57
f 74 64 58 57
f 64 489 404 58
f 404 409 73 58
f 488 408 69 60
f 69 66 75 60
f 62 75 68 61
f 68 70 63 61
f 74 66 69 64
f 69 408 489 64
f 67 77 72 65
f 71 68 75 66
f 74 72 71 66
f 71 76 70 68
f 72 77 76 71
f 409 411 89 73
f 77 80 78 76
f 80 405 406 78
f 401 412 120 79
f 120 122 82 79
f 120 412 493 83
f 493 413 98 83
f 98 87 105 83
f 105 122 120 83
f 116 101 103 84
f 103 106 87 84
f 87 98 97 84
f 97 102 116 84
f 94 416 421 85
f 121 92 94 85
f 118 112 95 86
f 95 104 96 86
f 96 111 93 86
f 93 119 118 86
f 106 99 105 87
f 122 105 99 88
f 99 92 121 88
f 411 414 90 89
f 90 95 112 89
f 414 495 91 90
f 91 104 95 90
f 495 420 107 91
f 107 109 104 91
f 99 106 108 92
f 108 110 94 92
f 113 115 119 93
f 111 117 113 93
f 110 494 416 94
f 104 109 101 96
f 101 116 111 96
f 98 413 419 97
f 419 417 102 97
f 114 109 107 100
f 107 420 418 100
f 418 494 110 100
f 110 108 114 100
f 109 114 103 101
f 117 111 116 102
f 417 492 117 102
f 114 108 106 103
f 415 422 115 113
f 117 492 415 113
f 159 164 156 123
f 156 429 435 123
f 435 434 160 123
f 160 151 159 123
f 170 168 145 124
f 145 147 127 124
f 127 165 161 124
f 161 138 170 124
f 424 442 166 125
f 166 139 171 125
f 171 157 128 125
f 128 425 424 125
f 439 440 158 126
f 158 142 153 126
f 153 139 166 126
f 166 442 439 126
f 147 167 169 127
f 169 149 165 127
f 157 155 130 128
f 130 426 425 128
f 137 135 136 129
f 136 163 131 129
f 131 164 152 129
f 152 146 137 129
f 155 154 134 130
f 134 496 426 130
f 163 141 148 131
f 148 156 164 131
f 134 154 499 132
f 499 150 143 132
f 143 433 427 132
f 427 496 134 132
f 144 294 303 133
f 172 162 144 133
f 432 431 138 135
f 138 161 136 135
f 137 497 432 135
f 161 165 163 136
f 146 430 497 137
f 431 428 170 138
f 153 151 366 139
f 366 347 171 139
f 366 151 160 140
f 160 434 444 140
f 444 448 346 140
f 346 347 366 140
f 163 165 149 141
f 149 437 438 141
f 438 498 148 141
f 158 146 152 142
f 152 164 159 142
f 159 151 153 142
f 150 144 162 143
f 162 441 433 143
f 150 302 294 144
f 158 440 430 146
f 498 429 156 148
f 169 436 437 149
f 499 277 302 150
f 155 350 351 154
f 351 364 499 154
f 157 349 350 155
f 171 347 349 157
f 172 423 441 162
f 445 436 169 167
f 170 428 443 168
f 200 441 423 173
f 423 390 184 173
f 184 196 198 173
f 198 201 200 173
f 194 489 179 174
f 179 394 386 174
f 386 485 388 174
f 388 387 194 174
f 187 495 190 175
f 190 431 432 175
f 432 497 430 175
f 430 440 187 175
f 426 496 427 176
f 427 433 183 176
f 183 178 193 176
f 193 425 426 176
f 188 395 389 177
f 389 383 189 177
f 189 180 182 177
f 182 202 188 177
f 183 200 201 178
f 201 416 494 178
f 494 181 193 178
f 489 408 186 179
f 186 396 394 179
f 189 382 381 180
f 381 380 192 180
f 192 488 182 180
f 494 418 191 181
f 191 442 424 181
f 424 425 193 181
f 488 403 202 182
f 433 441 200 183
f 390 395 188 184
f 188 202 196 184
f 420 495 187 185
f 187 440 439 185
f 439 442 191 185
f 191 418 420 185
f 408 488 192 186
f 192 380 396 186
f 383 484 382 189
f 495 414 203 190
f 203 428 431 190
f 195 404 489 194
f 387 384 195 194
f 384 397 199 195
f 199 409 404 195
f 202 403 410 196
f 410 421 198 196
f 411 409 199 197
f 199 397 443 197
f 443 428 203 197
f 203 414 411 197
f 421 416 201 198
f 450 451 210 204
f 210 236 259 204
f 259 490 224 204
f 224 446 450 204
f 240 244 251 205
f 251 228 229 205
f 229 209 262 205
f 262 253 240 205
f 252 271 225 206
f 225 454 453 206
f 453 452 231 206
f 231 256 252 206
f 218 492 417 207
f 417 419 250 207
f 250 444 434 207
f 434 435 218 207
f 392 393 221 208
f 221 223 491 208
f 491 402 216 208
f 216 399 392 208
f 229 459 467 209
f 467 454 225 209
f 225 271 262 209
f 451 465 226 210
f 226 265 236 210
f 438 437 212 211
f 212 492 218 211
f 218 435 429 211
f 429 498 438 211
f 437 436 239 212
f 239 415 492 212
f 245 273 222 213
f 222 219 237 213
f 237 242 254 213
f 254 230 245 213
f 447 446 224 214
f 224 490 407 214
f 407 406 257 214
f 257 398 447 214
f 456 468 269 215
f 269 270 261 215
f 261 274 217 215
f 217 455 456 215
f 402 422 246 216
f 246 445 399 216
f 274 265 226 217
f 226 465 455 217
f 222 457 473 219
f 473 458 227 219
f 227 268 237 219
f 236 265 258 220
f 258 272 260 220
f 260 263 255 220
f 255 259 236 220
f 400 385 223 221
f 393 486 400 221
f 273 469 457 222
f 385 391 264 223
f 264 405 491 223
f 458 466 243 227
f 243 267 268 227
f 251 241 232 228
f 232 460 461 228
f 461 459 229 228
f 462 463 245 230
f 254 270 269 230
f 269 468 462 230
f 452 449 233 231
f 233 493 256 231
f 241 267 234 232
f 234 464 460 232
f 449 448 248 233
f 248 413 493 233
f 267 243 266 234
f 266 472 464 234
f 270 254 242 235
f 242 238 244 235
f 244 240 247 235
f 247 261 270 235
f 268 238 242 237
f 268 267 241 238
f 241 251 244 238
f 436 445 246 239
f 246 422 415 239
f 253 249 247 240
f 466 471 266 243
f 463 470 273 245
f 249 274 261 247
f 250 419 413 248
f 448 444 250 248
f 253 272 258 249
f 258 265 274 249
f 260 272 271 252
f 256 263 260 252
f 262 271 272 253
f 263 412 401 255
f 401 490 259 255
f 493 412 263 256
f 406 405 264 257
f 264 391 398 257
f 471 501 472 266
f 470 500 469 273
f 281 285 280 275
f 280 288 308 275
f 308 294 302 275
f 302 277 281 275
f 299 312 287 276
f 287 331 330 276
f 330 341 487 276
f 354 365 281 277
f 499 364 354 277
f 304 315 296 278
f 296 311 282 278
f 282 295 305 278
f 305 303 304 278
f 300 306 318 279
f 318 313 291 279
f 291 290 322 279
f 322 309 300 279
f 285 289 283 280
f 283 310 288 280
f 365 355 285 281
f 311 293 312 282
f 312 299 295 282
f 289 292 317 283
f 317 319 310 283
f 316 479 475 284
f 475 474 297 284
f 297 314 319 284
f 319 317 316 284
f 355 360 289 285
f 293 322 290 286
f 290 332 343 286
f 343 331 287 286
f 287 312 293 286
f 310 298 315 288
f 315 304 308 288
f 360 362 292 289
f 291 338 332 290
f 313 340 338 291
f 362 367 321 292
f 321 316 317 292
f 311 309 322 293
f 308 304 303 294
f 315 298 301 296
f 301 309 311 296
f 474 477 307 297
f 307 320 314 297
f 310 319 314 298
f 314 320 301 298
f 320 307 306 300
f 309 301 320 300
f 307 477 476 306
f 476 478 318 306
f 318 478 502 313
f 502 480 340 313
f 321 503 479 316
f 367 483 503 321
f 325 326 327 323
f 327 451 450 323
f 450 446 324 323
f 324 328 325 323
f 446 447 342 324
f 342 344 328 324
f 341 329 327 326
f 329 465 451 327
f 341 330 333 329
f 333 455 465 329
f 331 335 333 330
f 343 337 335 331
f 338 336 334 332
f 334 337 343 332
f 335 456 455 333
f 336 463 462 334
f 462 468 337 334
f 337 468 456 335
f 338 340 339 336
f 339 470 463 336
f 340 480 481 339
f 481 500 470 339
f 452 453 352 345
f 352 351 350 345
f 350 349 348 345
f 348 449 452 345
f 448 449 348 346
f 348 349 347 346
f 352 353 364 351
f 453 454 353 352
f 454 467 358 353
f 358 354 364 353
f 358 361 365 354
f 356 357 360 355
f 365 361 356 355
f 461 460 357 356
f 361 459 461 356
f 460 464 359 357
f 359 362 360 357
f 467 459 361 358
f 464 472 363 359
f 363 367 362 359
f 472 501 482 363
f 482 483 367 363
f 375 378 372 368
f 372 370 377 368
f 377 473 457 368
f 457 469 375 368
f 376 371 373 369
f 373 379 374 369
f 374 471 466 369
f 466 458 376 369
f 371 376 377 370
f 372 476 477 370
f 477 474 371 370
f 474 475 373 371
f 378 478 476 372
f 475 479 379 373
f 379 483 482 374
f 482 501 471 374
f 469 500 481 375
f 481 480 378 375
f 458 473 377 376
f 480 502 478 378
f 479 503 483 379
