v 4.625088778284349 -2.249524497675012 -4.322938758224682
v 4.249901232970659 -2.339882759707601 -5.237797533912090
v 4.999999999998980 -2.211685614894922 -4.313437752896107
v 3.875080038111381 -2.350036273583421 -4.367977957969748
v 4.624941914822659 -2.395761611306527 -5.201794346699232
v 4.625017554842640 -2.520745543483979 -4.531877757991252
v 4.250007841243373 -2.551353121060119 -4.588465685150329
v 4.624986920242002 -2.591369474400545 -4.880408275149852
v 4.249965343384153 -2.576136367804498 -4.949548389929940
v 3.874960039618825 -2.555215430670366 -5.005288090451252
v 3.875002351884147 -2.572412929700426 -4.641479569169798
v 4.250112300642561 -2.294525305059546 -4.340394926856446
v 3.874903113031779 -2.294331147715567 -5.259705031149515
v 4.999999999999172 -1.892852569761316 -4.345409140115471
v 4.250027316480676 -1.648060259353146 -5.010187299377488
v 4.250041224052776 -1.645621874227953 -4.594294689023187
v 4.625015654826345 -1.662411339212554 -5.039990274971668
v 3.875041414549813 -1.666572826807970 -4.553237664033102
v 4.625026679597212 -1.642486584097345 -4.603943427664493
v 3.874933320617453 -1.935267121490051 -5.272002092752391
v 3.875032189408010 -1.639436819011080 -4.991790532770089
v 4.249929550540891 -1.957015657139711 -5.277982716781044
v 4.250117177745540 -1.929816826573067 -4.330443661599613
v 4.625079645818859 -1.906942637157093 -4.340457998717381
v 3.500000000000000 -1.635642830287632 -4.119588200585894
v 4.624921564046478 -2.007379078538480 -5.290161453242704
v 3.875091745170781 -1.978432434580893 -4.316093055988668
v 3.500000000000004 -3.021275558865756 -4.307153280009919
v 3.500000000000011 -1.925121515509664 -5.580196181321881
v 3.500000000000001 -3.065653025718576 -5.493995160965464
v 3.500000000000000 -2.650050704080829 -5.555166992023338
v 3.500000000000005 -1.575752710732375 -5.454297817694831
v 3.500000000000002 -2.276095654138995 -5.600657726680369
v 3.500000000000000 -2.530856813829882 -3.690813318900350
v 3.500000000000010 -3.042909599264261 -4.954115629861984
v 2.500000000000000 -1.894508993356365 -4.859718568462323
v 2.500000000000003 -1.438519642676988 -4.452375327716918
v 2.499999999999996 -1.860912596135821 -4.323844115202250
v 2.499999999999996 -2.271590982554473 -4.199934721243499
v 2.500000000000005 -3.122571933931834 -5.369459142258910
v 2.500000000000004 -2.679842922960396 -4.069914811337779
v 2.499999999999996 -2.347136729519337 -5.391287582256153
v 2.499999999999994 -1.471291108276620 -4.910685851387804
v 2.500000000000000 -2.703614758661176 -4.752233887765684
v 2.500000000000005 -3.102770430668720 -4.708529226894920
v 2.500000000000000 -2.737680171174001 -5.379977612400030
v 2.500000000000005 -3.088515253910231 -3.970256318332369
v 2.500000000000000 -2.302795453494431 -4.798882055382206
v 2.500000000000011 -1.544736389275776 -5.372200694437225
v 2.500000000000003 -1.950086363057407 -5.394710646427450
v 1.909871819659934 -4.546296278771687 -5.999999999999993
v 3.892815482702261 -2.265149702695456 -6.000000000000012
v 1.451362461230654 -3.311725901408598 -6.000000000000005
v 4.675083061938590 -2.210211704291377 -5.999999999999954
v 2.375369768698276 -4.530826941679779 -6.000000000000011
v 1.454674341008055 -3.719489857518290 -5.999999999999998
v 4.713951343875429 -3.101760895437053 -5.999999999999999
v 2.163378172306040 -3.205846679889977 -5.999999999999993
v 1.815383635744492 -2.872120440564023 -6.000000000000008
v 2.162860088798465 -2.827289217818290 -6.000000000000015
v 4.691096948907528 -2.651588253614116 -6.000000000000005
v 3.388018454796345 -4.511174523246421 -6.000000000000005
v 2.868343417605949 -4.515901626031199 -5.999999999999992
v 2.168907947437216 -2.443267794962768 -5.999999999999985
v 4.295886295981378 -2.670476330761762 -5.999999999999999
v 1.457931709466557 -2.914422655208272 -6.000000000000028
v 1.066988391461908 -3.346621735664550 -5.999999999999991
v 1.056506283336365 -3.749931324861644 -5.999999999999997
v 1.046890736727581 -4.160459934989746 -5.999999999999998
v 1.115043258723375 -2.564996406403487 -5.999999999999977
v 4.746557146314380 -3.565013225928879 -5.999999999999999
v 3.902094489314257 -3.545702248956000 -5.999999999999993
v 1.835325403186785 -3.670324559207536 -6.000000000000014
v 3.891643140967161 -4.514018672291126 -5.999999999999986
v 1.028321796838975 -4.579541167491013 -6.000000000000007
v 1.830613644637749 -2.483883603305181 -6.000000000000025
v 1.469772569674444 -4.566673950660897 -6.000000000000004
v 4.346515698372746 -4.036880781204093 -6.000000000000009
v 1.879001288718971 -4.105370691910691 -5.999999999999992
v 4.794265355630912 -4.039491091335750 -5.999999999999983
v 2.187383052318360 -3.599677952907088 -6.000000000000004
v 4.868690868040662 -4.518268081405898 -6.000000000000004
v 2.308020944796007 -4.060401367549874 -6.000000000000014
v 3.883778635893301 -4.026135148959978 -6.000000000000008
v 3.371038279835830 -4.015153115026108 -6.000000000000003
v 1.459161251950428 -4.138228654399309 -6.000000000000014
v 1.083907811157943 -2.950638525166417 -6.000000000000016
v 2.795742519533148 -4.022400770237308 -6.000000000000005
v 1.481411413000129 -2.525988622334446 -5.999999999999985
v 1.856675175388661 -2.094595179722746 -6.000000000000085
v 1.816954676441126 -3.264825804061161 -6.000000000000004
v 4.382789455103588 -4.516987378052327 -6.000000000000005
v 1.519830713582390 -2.139260952376896 -5.999999999999912
v 1.162387177939046 -2.184325126733450 -5.999999999999849
v 3.903070423824870 -3.103527508348300 -6.000000000000007
v 4.324617281974392 -3.564415860151006 -6.000000000000009
v 4.308697937993939 -3.109466778871508 -6.000000000000016
v 4.284954624777257 -2.241609162022587 -6.000000000000021
v 2.181167716816894 -2.053181303028547 -6.000000000000095
v 3.897655026631043 -2.677379391360660 -5.999999999999993
v 4.648793227232156 -1.384467046926128 -5.785355411563105
v 4.276141412913813 -1.822314660504708 -5.982249046334498
v 4.662565851749250 -1.775732570673617 -5.971136599849938
v 3.500000000005214 -1.036084273150380 -5.250701781755908
v 3.879989728635914 -1.192155219377122 -5.586277319988037
v 4.268267782712386 -1.438700826992413 -5.824418960875212
v 4.261193926928742 -1.148227591124250 -5.521037255881203
v 3.884655088515161 -1.494141719817804 -5.859615890255527
v 4.243208524546668 -1.009711749688705 -5.107536073907452
v 4.631166034183314 -1.004691809914565 -5.064370688779766
v 3.888600283590677 -1.863495168979329 -5.990408183496299
v 4.652009674053813 -1.118603094697461 -5.467946963151022
v 3.870935687287401 -1.015489865829828 -5.169199509747834
v 4.917032234416643 -1.000000000000001 -4.603524606534869
v 4.550978945188804 -1.000000000000000 -4.622960557874215
v 4.208745305356810 -1.000000000000000 -4.645288897716025
v 3.855582425633854 -1.000000000000000 -4.679834754048089
v 4.178429249265291 -1.000000000000000 -4.165151390009302
v 3.839214624632645 -1.000000000000000 -4.165151390004651
v 3.500000000007156 -1.000000000000000 -4.731929008647118
v 4.731087415713434 -1.000000000000000 -4.165151390003242
v 4.462174831426868 -1.000000000000000 -4.165151390006482
v 1.000000000000001 -1.880029540118118 -4.608245670810255
v 0.999999999999996 -1.860097155026204 -4.233367123639175
v 0.999999999999998 -3.009967852440086 -4.077720911194319
v 0.999999999999998 -3.400272128406625 -4.031928102457922
v 1.000000000000000 -3.786017572025786 -5.249101850935287
v 1.000000000000002 -3.793668276941697 -4.837007897944950
v 1.000000000000012 -1.470939648370449 -4.242190425307358
v 0.999999999999999 -1.232154545686437 -5.074798628188399
v 0.999999999999996 -1.901257490186472 -5.018091500931083
v 1.000000000000033 -1.568051497465593 -5.500416724016171
v 1.000000000000001 -4.579493911062578 -3.074507419567209
v 1.000000000000003 -2.257794257794160 -4.979676858958990
v 0.999999999999992 -1.521984031616924 -4.630465880840664
v 1.000000000000000 -4.558030312411018 -2.628867226136428
v 0.999999999999998 -1.836297899117116 -3.868195265564066
v 0.999999999999998 -2.240662192914841 -4.186215925812292
v 0.999999999999998 -2.229383337840287 -3.793363209876232
v 1.000000000000001 -3.784612619566243 -3.553014921646903
v 1.000000000000001 -4.184878957864350 -3.531456958545653
v 0.999999999999976 -1.172133576652453 -4.625951633331788
v 0.999999999999999 -4.164487934625360 -3.077019750320368
v 1.000000000000000 -4.485942630199022 -1.758908955294936
v 1.000000000000000 -2.615190399568281 -3.732372455433827
v 1.000000000000000 -3.002688628867877 -3.650765798688790
v 0.999999999999995 -2.629177108018025 -4.938621123899592
v 0.999999999999954 -1.896495183576036 -5.432401780542737
v 1.000000000000002 -3.731010379959829 -2.601800045880409
v 1.000000000000002 -4.110943664319911 -2.600575885891648
v 1.000000000000002 -3.793736383662290 -3.994477368147745
v 1.000000000000002 -4.191809285992816 -3.967730719767645
v 0.999999999999998 -3.371924463049409 -5.674653847642942
v 0.999999999999998 -3.770105483206252 -5.652936739337012
v 0.999999999999999 -4.596074880952371 -4.375800236837010
v 1.000000000000004 -2.981244884661760 -5.699931460701499
v 0.999999999999999 -4.595161877241404 -4.795979222943413
v 1.000000000000000 -3.767267200856459 -3.094786931254300
v 0.999999999999997 -3.378162534966379 -3.135622919925869
v 1.000000000000004 -2.606769469969729 -3.292658078789119
v 1.000000000000001 -4.590748070222289 -3.517941518512409
v 1.000000000000036 -1.556706470119984 -5.051941650805165
v 1.000000000000001 -4.594272000012356 -3.949844301627082
v 1.000000000000000 -3.000369276690874 -5.303708837209566
v 1.000000000000000 -3.388344489442619 -5.272001346583887
v 1.000000000000003 -2.252356718885831 -4.580246391958411
v 1.000000000000003 -2.629905588485915 -4.536720156359182
v 1.000000000000002 -2.598541205554075 -5.734729624043502
v 1.000000000000004 -3.014599710198484 -4.492889793896659
v 0.999999999999999 -2.224655043603668 -5.780083741477963
v 1.000000000000004 -2.620494287732563 -5.340375286805647
v 0.999999999999998 -4.588723287900897 -5.617022214763958
v 1.000000000000001 -4.192944083443534 -4.813573960939163
v 1.000000000000001 -4.194593002497751 -4.394767177016309
v 0.999999999999997 -2.624889265015375 -4.129567154711807
v 0.999999999999997 -3.391534054553756 -3.594160426137018
v 1.000000000000002 -4.185972837898616 -5.226035568369715
v 0.999999999999999 -4.593109213961052 -5.209245294729355
v 0.999999999999998 -3.402474565900242 -4.452575724632756
v 0.999999999999998 -3.795649758010865 -4.418975438703955
v 0.999999999999994 -3.398701435190906 -4.866295276441674
v 1.000000000000001 -2.993791779924408 -3.200464901789228
v 0.999999999999990 -3.011148944679806 -4.900891755072568
v 1.000000000000000 -4.177354353127761 -5.638561079434137
v 1.000000000000002 -4.523933044077957 -2.181833886817060
v 1.000000000000001 -2.250440906380188 -5.382604788761411
v 1.000000000000073 -1.859765338892513 -5.838665537458732
v 3.471500030088535 -5.000000000000033 -2.254874562655753
v 3.465871256224853 -5.000000000000033 -1.835147050554214
v 3.449500662229348 -4.999999999999981 -5.184492360889072
v 3.461142570649887 -4.999999999999982 -4.772730536076356
v 3.969432768206985 -4.999999999999999 -4.784275212826003
v 3.983320192020781 -4.999999999999996 -2.253878421153440
v 3.975848758256559 -5.000000000000013 -4.369658727705344
v 3.983494844680902 -4.999999999999988 -2.677853690821236
v 2.470955367902950 -4.999999999999989 -4.349181806482603
v 1.978904334945924 -4.999999999999993 -3.086255909734920
v 1.973373100919252 -4.999999999999993 -2.664397263770282
v 1.484718562715452 -4.999999999999962 -4.770926290401926
v 1.488171264748507 -4.999999999999962 -4.354012171218990
v 2.473922471470507 -5.000000000000012 -3.090494492908484
v 1.977607695293246 -4.999999999999950 -4.349571705223281
v 1.487415038774171 -5.000000000000004 -3.082695661290978
v 2.474635311461967 -5.000000000000007 -3.931140158346671
v 1.485044150922503 -5.000000000000006 -2.655129272321151
v 1.476342677817664 -5.000000000000005 -2.233439935077283
v 2.972168166952912 -4.999999999999992 -3.934281546547970
v 2.467899543034411 -4.999999999999979 -2.669620378243146
v 2.475450366477834 -4.999999999999995 -3.511262764114180
v 1.980610111506302 -4.999999999999986 -3.509059616856894
v 1.488961922365495 -5.000000000000004 -3.932334209875533
v 1.980660664353493 -4.999999999999998 -3.930659074883320
v 1.489479100007498 -4.999999999999998 -3.508716110176492
v 2.972704807923963 -5.000000000000016 -3.094294771320928
v 2.950860647831459 -5.000000000000018 -1.834243824193061
v 2.974421652486218 -4.999999999999980 -3.515059396122075
v 3.476410393184042 -5.000000000000002 -3.520107719621544
v 3.982857123291707 -5.000000000000002 -3.528327198390453
v 2.948274480666364 -4.999999999999996 -5.179678132890679
v 3.465390281268001 -4.999999999999993 -1.417286563211436
v 3.432608127671114 -4.999999999999996 -5.591872574683238
v 3.942221046630547 -4.999999999999996 -5.598488008413836
v 3.989951909524561 -4.999999999999989 -1.415358471400601
v 2.930808661266409 -4.999999999999999 -5.590405060956877
v 2.933890498202915 -4.999999999999984 -1.416622648167468
v 4.490863455153148 -5.000000000000025 -3.539721008839493
v 3.983216411033283 -4.999999999999979 -3.103271493882211
v 3.980083783657101 -5.000000000000010 -3.950320882726050
v 2.437578468088595 -4.999999999999993 -5.589683874721747
v 2.413800457417540 -5.000000000000004 -1.415105561715694
v 3.957406128871927 -5.000000000000001 -5.191786208207468
v 1.955324666018069 -4.999999999999999 -5.590093599879148
v 4.486751311645193 -4.999999999999988 -4.388597885292951
v 4.481715649444967 -4.999999999999988 -4.801942816100405
v 4.492030728083583 -4.999999999999998 -2.675441250670244
v 4.493474303477532 -4.999999999999998 -2.248968032622737
v 1.964060776952814 -4.999999999999975 -2.243377334131725
v 4.488873340615729 -5.000000000000005 -3.965144821662635
v 4.491514927316267 -4.999999999999993 -3.109729075281098
v 2.969432157098483 -5.000000000000000 -2.673313531012406
v 2.961427487144273 -5.000000000000000 -2.253267345657375
v 2.960381950998536 -4.999999999999989 -4.767442973812567
v 2.967781830588880 -4.999999999999989 -4.351948147543919
v 1.973591879427879 -5.000000000000000 -4.766048089091591
v 4.506104602860939 -4.999999999999993 -1.409911207866125
v 1.445594638378326 -5.000000000000014 -1.405829274507171
v 1.476337338550704 -4.999999999999996 -5.593474425320706
v 1.944365292464822 -4.999999999999973 -1.825912352028124
v 1.964605894610059 -4.999999999999997 -5.179426154048856
v 2.463711173145021 -5.000000000000032 -4.764646963151383
v 4.497034089250898 -4.999999999999979 -1.826268209705880
v 2.458023426298235 -5.000000000000011 -2.249800319852177
v 1.482096590111058 -5.000000000000038 -5.184106119844421
v 1.467098465499676 -5.000000000000002 -1.815802921178636
v 4.474250541731544 -5.000000000000017 -5.208455543398584
v 3.469327718982907 -5.000000000000002 -4.358193693449516
v 3.474539312148022 -5.000000000000002 -3.940861735182907
v 3.477125999555230 -4.999999999999964 -3.098225493765352
v 3.474656961321378 -4.999999999999963 -2.676359324823687
v 4.460415416005677 -5.000000000000009 -5.608304908613220
v 2.441666170779691 -5.000000000000007 -1.831435680449598
v 3.985961927355379 -4.999999999999991 -1.833586458386286
v 2.452790671263147 -5.000000000000004 -5.177978640053429
v 1.912490549618641 -4.999999999999979 -1.412165178925060
v 1.889431953655500 -1.704048342679130 -5.953556662556771
v 1.576479993505332 -1.751846728533165 -5.966358975428207
v 2.209603276410348 -1.321910496310181 -5.729877383150283
v 2.196219850569951 -1.662453891780947 -5.940568785344777
v 1.347027642508012 -1.441726350700101 -5.829346648596744
v 1.631622198239410 -1.390526255842074 -5.788950633486625
v 1.391308986755625 -1.139570563002332 -5.504992880891727
v 1.658728171009882 -1.116986113584432 -5.460424975862106
v 1.936588155141296 -1.098171180864812 -5.428039764115068
v 1.143428595058248 -1.175211126538976 -5.558247086839237
v 1.033696484385129 -1.507012263949638 -5.866014098953853
v 1.919130190540341 -1.351478886028027 -5.758368034338598
v 1.668097002822463 -1.003469070865415 -5.035737773141209
v 1.944766169915130 -1.000862364804396 -5.011786503121326
v 1.388544252460977 -1.004411366277664 -5.058455568257947
v 1.093324747623848 -1.005107092287106 -5.074048374860001
v 2.217919633344317 -1.085234723914059 -5.399885065355738
v 1.241832861938033 -1.804731415542171 -5.978044010922838
v 5.000000000000032 -1.773198926422815 -4.039729526758542
v 4.999999999999998 -3.551788604778161 -5.421811994578956
v 5.000000000000009 -3.559283478900267 -5.837045789121964
v 5.000000000000002 -3.088967915785161 -5.881693271761569
v 5.000000000000123 -3.055102513004385 -4.237751680753032
v 4.999999999999978 -3.983835369905321 -3.628551733594361
v 5.000000000000009 -2.129436778823880 -5.582755887492794
v 4.999999999999983 -4.334590586724188 -2.649477756203038
v 5.000000000000012 -3.030544675309120 -3.302185063154360
v 4.999999999999998 -4.006598641571518 -4.079254506749977
v 5.000000000000036 -3.526092362482808 -4.145969386541180
v 5.000000000000012 -2.624106825675594 -5.921272440066618
v 5.000000000000016 -4.427720666905907 -3.123690070204652
v 4.999999999999985 -2.172651155928703 -5.940142152417980
v 5.000000000000011 -4.036384515931722 -5.779085748648180
v 4.999999999999979 -4.505702997116977 -4.458219275070846
v 5.000000000000016 -2.589543460521071 -3.418828261752673
v 5.000000000000000 -3.055994140186827 -4.674019126246769
v 5.000000000000041 -4.498850562886261 -4.028809289003028
v 5.000000000000041 -4.479491081691023 -3.583358028973171
v 5.000000000000008 -4.018823619708749 -4.514999071335850
v 5.000000000000007 -3.464291231146651 -3.206485063346844
v 5.000000000000007 -3.401647182752888 -2.697660228848302
v 4.999999999999995 -4.516967935942775 -5.700654168097117
v 4.999999999999922 -3.058251670252159 -5.084039217125731
v 4.999999999999999 -1.730733392398919 -5.903655110858031
v 4.999999999999972 -3.937873036218151 -3.157479260785170
v 4.999999999999978 -2.601746229525731 -3.873906365382845
v 4.999999999999973 -2.587058640794139 -5.544453526600000
v 3.500000000000000 -1.674167293564857 -5.044753793879504
v 4.999999999999985 -3.543843296964151 -5.007348708099839
v 5.000000000000008 -3.506826519809397 -3.690242908478473
v 5.000000000000028 -3.536360184205949 -4.584598859912358
v 5.000000000000005 -1.198646547592027 -5.436492737686300
v 4.999999999999996 -4.515067679503536 -5.297132136858075
v 4.999999999999996 -4.511573122552014 -4.881899191963573
v 5.000000000000123 -1.620423075123933 -4.513575333584094
v 4.999999999999959 -1.687182682428864 -5.514888612615641
v 4.999999999999989 -4.032424399954092 -5.358833483858291
v 5.000000000000011 -3.873507035220472 -2.663792600021992
v 4.999999999999989 -4.026475246120713 -4.939942121102518
v 5.000000000000002 -3.049503740149111 -3.779596509765744
v 5.000000000000046 -1.092912007724888 -5.039130775627246
v 4.999999999999984 -3.069531054901385 -5.484535124154284
v 4.999999999999989 -2.185280941663032 -3.944561930256222
v 1.139364421537572 -1.000000000000003 -4.617735822431016
v 1.415165556093024 -1.000000000000004 -4.607633978792359
v 1.947340299607859 -0.999999999999991 -4.584250884622989
v 2.222000976281539 -1.000000000000004 -4.987457986536739
v 1.678302699324856 -1.000000000000002 -4.596714697536845
v 2.222951538066373 -0.999999999999999 -4.568485652312573
v 3.442454095068094 -4.419368921982020 -1.698841847117059
v 1.574722285083071 -3.391508434429717 -2.687443913869102
v 2.172653830426104 -1.838343441486535 -3.748463455192450
v 3.863097316798332 -2.091923448200293 -3.602743630902928
v 1.371071269251447 -2.624135244308190 -3.263603513655580
v 4.703050756139608 -2.580059966159620 -3.293185498458710
v 1.443891603765823 -3.731072072368505 -2.391015231902476
v 4.235507775328132 -2.100340092088878 -3.597338110830163
v 1.814003605331237 -2.240962035875838 -3.507934535581241
v 2.162052131668434 -2.245934943001208 -3.509770877266301
v 1.743777266593846 -2.638280807422131 -3.252980662951110
v 1.855904765457551 -1.836636843014891 -3.749456754589570
v 3.844561612109630 -1.579457097622534 -3.888710651647082
v 4.303747507396283 -2.564861302748905 -3.302061669493862
v 4.618809063445281 -2.118453662249162 -3.588704292655249
v 1.459511283015864 -2.232868078703868 -3.514774588755820
v 1.246789312825353 -3.000165257382067 -2.996138739345207
v 4.829347525675107 -3.005417900697114 -2.992907682940965
v 4.405272443066531 -2.993489734230871 -2.997218328300040
v 4.502961034881329 -3.389942777751940 -2.686662059236112
v 1.651608580969472 -3.019853858428764 -2.978459870438838
v 4.753731075511071 -4.386954309062790 -1.735814392630535
v 3.995195626635859 -3.417520848188819 -2.666646600829430
v 2.110607150069867 -2.645572267806472 -3.249267190383045
v 3.915586542095100 -2.560287027155079 -3.307822554587785
v 2.767297008530584 -4.117779715634617 -2.022109933795345
v 2.873926029606092 -4.716881523269310 -1.356882363936003
v 4.070257038137447 -4.406723843720660 -1.712866456506939
v 4.073741418194860 -4.093603089686675 -2.045964993468218
v 2.079457737865228 -3.042909158362115 -2.964102494793575
v 3.947025459745034 -3.008903677040117 -2.990045253982403
v 2.046254553166716 -3.430201261297588 -2.655156103423944
v 3.448011245137947 -4.715795865780643 -1.356838663287849
v 4.029147108917105 -4.710028970155173 -1.360686654021955
v 2.305652123667586 -4.713982949806670 -1.360172351482275
v 1.230761336101817 -1.836754412224227 -3.749182549502384
v 1.105061797703599 -2.223447400685640 -3.525185290662888
v 4.985774370324405 -2.151916478050896 -3.565220533595277
v 2.204097045422743 -1.423381303854534 -3.964538916919473
v 1.912349874584717 -1.423914640330995 -3.966648042128195
v 4.661003042999369 -3.742346983240833 -2.381335163467647
v 2.222193941966319 -4.415465355219130 -1.705586770412442
v 2.682069289497742 -3.808471464620532 -2.322061915770281
v 4.616387041659032 -4.704512013882182 -1.372268226959624
v 2.825046708130944 -4.422733151222872 -1.700422518432677
v 4.055025883700550 -3.769059683628354 -2.359168366987346
v 1.229926681361556 -4.702067840056744 -1.372597576074479
v 3.420243089597813 -3.804031903705807 -2.327410243973580
v 3.426393638583226 -4.114913364509298 -2.021102489001907
v 4.874904645879614 -1.702005059905352 -3.824244501807735
v 4.521719303047056 -1.608019563525636 -3.870061812754435
v 1.556949037117452 -1.835972292872469 -3.748577631473684
v 1.592105970199341 -4.398333306525606 -1.722610272237223
v 2.069895463306276 -3.772329163879206 -2.353356448206000
v 1.075620494064191 -3.360968464434402 -2.711381515913796
v 1.074522065232122 -1.424308565286305 -3.962251614449692
v 1.348642127314454 -1.425067461989490 -3.966323044560656
v 1.756889829186012 -4.709684742773505 -1.366045945926030
v 4.192588394544119 -1.582920583453293 -3.884709476733061
v 2.123650420835739 -4.098939487600004 -2.039158946765342
v 1.631363833080734 -1.424724140194068 -3.967296232002147
v 5.000000000000000 -2.597260950000000 -4.788752127828111
v 3.500000000000000 -2.256180236801167 -5.272105067870402
v 3.500000000000000 -2.575484186380271 -4.645392509040963
v 4.999999999999996 -2.524851458593991 -4.408616968361003
v 3.500000000000000 -1.948128141767352 -5.273504944945464
v 5.000000000000000 -2.081181648019419 -5.298022111527055
v 3.500000000001651 -2.044977301022412 -4.166668549742148
v 3.500000000000000 -2.677007679902183 -6.000000000000000
v 3.500000000000000 -2.278775907921481 -6.000000000000000
v 3.500000000000000 -3.031062456278128 -2.971299640277619
v 3.500000000000000 -3.500000000000000 -5.435700029491071
v 3.500000000000000 -3.086976107914952 -6.000000000000000
v 3.500000000000000 -3.500000000000000 -4.820002419056618
v 3.500000000000000 -1.896003069557886 -5.989757196055116
v 5.000000000000000 -4.032296310000000 -2.109627880000000
v 3.500000000000000 -3.500000000000000 -4.041539235697243
v 3.500000000000000 -1.542574450856355 -5.883929034932160
v 5.000000000000000 -5.000000000000000 -1.000000000000000
v 2.500000000000000 -3.500000000000000 -5.371619590996164
v 2.500000000000000 -3.500000000000000 -4.697285569643647
v 2.500000000000000 -3.500000000000000 -3.902938518989306
v 2.500000000000000 -3.070000240559340 -2.940414496962146
v 2.500000000000000 -1.839749539306040 -3.744653689420763
v 2.500000000000000 -2.249167607632366 -3.508852489084822
v 2.500000000000000 -2.655649120056677 -3.238886453469046
v 2.500000000000000 -3.148768498862703 -6.000000000000000
v 2.500000000000000 -2.786485737177674 -6.000000000000000
v 2.500000000000000 -1.000000000000000 -4.541506350850686
v 2.500000000000000 -1.000000000000000 -4.961374153522780
v 2.500000000000000 -1.075184198372911 -5.379596956202002
v 2.500000000000000 -1.625491853794532 -5.926359475323101
v 2.500000000000000 -1.422674669287351 -3.961744469427582
v 2.500000000000000 -2.016863107719957 -6.000000000000000
v 2.500000000000000 -2.404778296585603 -6.000000000000000
v 1.941542430391164 -5.000000000000000 -6.000000000000000
v 3.413740001717184 -5.000000000000000 -6.000000000000000
v 2.416175427897047 -5.000000000000000 -6.000000000000000
v 2.909749457652135 -5.000000000000000 -6.000000000000000
v 3.922433866693928 -5.000000000000000 -6.000000000000000
v 1.470754109234441 -5.000000000000000 -6.000000000000000
v 4.442581223912898 -5.000000000000000 -6.000000000000000
v 1.000000000000000 -5.000000000000000 -1.396943132248866
v 1.000000000000000 -5.000000000000000 -1.798511735998100
v 1.000000000000000 -5.000000000000000 -2.218520651608260
v 1.000000000000000 -5.000000000000000 -4.361353884061098
v 1.000000000000000 -5.000000000000000 -3.938699042439253
v 1.000000000000000 -5.000000000000000 -4.779746250820894
v 1.000000000000000 -5.000000000000000 -5.193926380247952
v 1.000000000000000 -5.000000000000000 -3.509396453152200
v 1.000000000000000 -5.000000000000000 -3.078174557111613
v 1.000000000000000 -5.000000000000000 -2.645073962770912
v 1.000000000000000 -5.000000000000000 -5.598351814079973
v 5.000000000000000 -5.000000000000000 -3.990462573174577
v 5.000000000000000 -5.000000000000000 -4.416888179026605
v 5.000000000000000 -5.000000000000000 -3.115480338965297
v 5.000000000000000 -5.000000000000000 -2.671783170075305
v 2.374660441652082 -5.000000000000000 -1.000000000000000
v 2.911689472497700 -5.000000000000000 -1.000000000000000
v 3.456960032422890 -5.000000000000000 -1.000000000000000
v 4.001371718684705 -5.000000000000000 -1.000000000000000
v 5.000000000000000 -5.000000000000000 -2.235289613146603
v 5.000000000000000 -5.000000000000000 -1.807534860879620
v 5.000000000000000 -5.000000000000000 -4.832865103064096
v 5.000000000000000 -5.000000000000000 -5.242902964275033
v 1.866567469397983 -5.000000000000000 -1.000000000000000
v 5.000000000000000 -5.000000000000000 -5.623185899075543
v 5.000000000000000 -5.000000000000000 -1.400833003401153
v 4.519867239667292 -5.000000000000000 -1.000000000000000
v 1.415448998010548 -5.000000000000000 -1.000000000000000
v 5.000000000000000 -5.000000000000000 -3.555130167153156
v 1.942085063697661 -1.000000000000000 -4.165151390000000
v 2.221042531848830 -1.000000000000000 -4.165151390000000
v 1.226489068296823 -1.000000000000000 -4.165151390000000
v 1.452978136593646 -1.000000000000000 -4.165151390000000
v 1.679467204890470 -1.000000000000000 -4.165151390000000
v 5.000000000000000 -2.471572410000000 -5.134565300000000
v 3.500000000000000 -2.471572410000000 -5.134565300000000
v 1.000000000000000 -1.000000000000000 -4.165151390000000
v 1.000000000000000 -1.292893220000000 -5.707106780000000
v 5.000000000000000 -1.728427590000000 -5.134565300000000
v 1.000000000000000 -4.032296310000000 -2.109627880000000
v 1.000000000000000 -5.000000000000000 -1.000000000000000
v 5.000000000000000 -1.000000000000000 -4.165151390000000
v 3.500000000000000 -3.500000000000000 -2.599342080000000
v 3.500000000000000 -1.000000000000000 -4.165151390000000
v 3.500000000000000 -3.500000000000000 -6.000000000000000
v 3.500000000000000 -1.292893220000000 -5.707106780000000
v 2.500000000000000 -3.500000000000000 -2.599342080000000
v 2.500000000000000 -3.500000000000000 -6.000000000000000
v 2.500000000000000 -1.000000000000000 -4.165151390000000
v 2.500000000000000 -1.292893220000000 -5.707106780000000
v 1.000000000000000 -5.000000000000000 -6.000000000000000
v 5.000000000000000 -5.000000000000000 -6.000000000000000
v 5.000000000000000 -1.292893220000000 -5.707106780000000
f 34 404 364 358
f 6 7 12 1
f 12 23 24 1
f 24 14 3 1
f 5 26 22 2
f 22 20 13 2
f 13 10 9 2
f 9 8 5 2
f 14 283 327 3
f 401 34 358 337
f 12 7 11 4
f 346 25 401 337
f 398 287 300 395
f 27 23 12 4
f 470 400 26 5
f 8 395 470 5
f 398 310 324 287
f 8 9 7 6
f 9 10 11 7
f 13 396 471 10
f 471 397 11 10
f 20 399 396 13
f 25 479 120 312
f 479 25 346 119
f 17 19 16 15
f 16 18 21 15
f 21 20 22 15
f 22 26 17 15
f 19 24 23 16
f 23 27 18 16
f 319 474 325 114
f 26 400 474 17
f 121 477 319 114
f 312 120 104 32
f 399 312 32 29
f 34 397 28 404
f 397 471 35 28
f 35 407 410 28
f 410 478 404 28
f 312 399 20 21
f 25 312 21 18
f 32 411 408 29
f 408 403 33 29
f 33 396 399 29
f 31 402 406 30
f 406 480 405 30
f 405 407 35 30
f 35 471 31 30
f 33 403 402 31
f 471 396 33 31
f 27 401 25 18
f 104 481 411 32
f 474 319 19 17
f 48 42 50 36
f 50 49 43 36
f 43 37 38 36
f 38 39 48 36
f 43 423 422 37
f 422 484 426 37
f 426 417 38 37
f 417 418 39 38
f 41 44 48 39
f 418 419 41 39
f 413 483 420 40
f 420 421 46 40
f 46 44 45 40
f 45 414 413 40
f 47 45 44 41
f 419 416 47 41
f 46 421 428 42
f 428 427 50 42
f 48 44 46 42
f 49 424 423 43
f 47 415 414 45
f 416 482 415 47
f 50 427 425 49
f 425 485 424 49
f 55 431 429 51
f 429 434 77 51
f 77 86 79 51
f 79 83 55 51
f 111 102 98 52
f 98 65 100 52
f 100 402 403 52
f 403 408 111 52
f 56 68 67 53
f 67 87 66 53
f 66 59 91 53
f 91 73 56 53
f 103 308 296 54
f 296 294 61 54
f 61 65 98 54
f 98 102 103 54
f 63 432 431 55
f 83 88 63 55
f 86 69 68 56
f 73 79 86 56
f 61 294 286 57
f 286 285 71 57
f 71 96 97 57
f 97 65 61 57
f 81 73 91 58
f 91 59 60 58
f 60 421 420 58
f 420 483 81 58
f 66 89 76 59
f 76 64 60 59
f 64 428 421 60
f 74 433 430 62
f 430 432 63 62
f 63 88 85 62
f 85 84 74 62
f 76 90 99 64
f 99 427 428 64
f 97 95 100 65
f 87 70 89 66
f 68 154 153 67
f 153 156 87 67
f 69 184 154 68
f 86 77 75 69
f 75 172 184 69
f 87 156 168 70
f 168 170 94 70
f 94 93 89 70
f 285 297 80 71
f 80 78 96 71
f 95 97 96 72
f 96 78 84 72
f 84 85 480 72
f 480 406 95 72
f 81 83 79 73
f 92 435 433 74
f 84 78 92 74
f 77 434 486 75
f 486 446 172 75
f 89 93 90 76
f 80 82 92 78
f 297 306 82 80
f 483 88 83 81
f 306 460 487 82
f 487 435 92 82
f 88 483 480 85
f 93 266 265 90
f 265 268 99 90
f 94 282 266 93
f 170 187 282 94
f 406 402 100 95
f 268 425 427 99
f 112 316 488 101
f 488 308 103 101
f 103 102 106 101
f 106 107 112 101
f 111 108 106 102
f 113 105 481 104
f 120 117 113 104
f 113 109 107 105
f 107 106 108 105
f 108 411 481 105
f 109 110 112 107
f 111 408 411 108
f 113 117 116 109
f 116 115 110 109
f 115 114 325 110
f 325 316 112 110
f 115 122 121 114
f 24 19 319 14
f 319 477 283 14
f 116 118 122 115
f 117 119 118 116
f 120 479 119 117
f 119 346 392 118
f 392 384 122 118
f 398 395 8 6
f 34 401 27 4
f 122 384 383 121
f 383 283 477 121
f 166 138 124 123
f 124 129 135 123
f 135 162 131 123
f 131 134 166 123
f 138 139 137 124
f 137 389 129 124
f 126 176 146 125
f 146 145 175 125
f 175 167 169 125
f 169 179 126 125
f 151 140 176 126
f 179 180 151 126
f 154 184 177 127
f 177 173 128 127
f 128 181 165 127
f 165 153 154 127
f 173 174 180 128
f 180 179 181 128
f 389 467 472 129
f 472 142 135 129
f 162 135 142 130
f 142 328 280 130
f 280 274 473 130
f 473 132 162 130
f 162 132 148 131
f 148 186 134 131
f 473 274 275 132
f 275 187 148 132
f 444 445 136 133
f 136 150 143 133
f 143 141 161 133
f 161 443 444 133
f 147 167 166 134
f 186 171 147 134
f 445 438 185 136
f 185 475 150 136
f 139 370 369 137
f 369 390 389 137
f 175 145 139 138
f 166 167 175 138
f 145 160 370 139
f 141 143 158 140
f 158 159 176 140
f 151 152 141 140
f 152 163 161 141
f 472 467 328 142
f 150 149 158 143
f 386 475 185 144
f 185 438 437 144
f 437 436 380 144
f 380 391 386 144
f 146 182 160 145
f 176 159 182 146
f 183 169 167 147
f 171 164 183 147
f 187 170 186 148
f 150 475 340 149
f 340 335 388 149
f 388 159 158 149
f 180 174 152 151
f 174 155 163 152
f 165 164 156 153
f 157 441 439 155
f 439 440 163 155
f 174 173 157 155
f 164 171 168 156
f 178 442 441 157
f 173 177 178 157
f 388 350 182 159
f 182 350 338 160
f 338 349 370 160
f 163 440 443 161
f 165 181 183 164
f 171 186 170 168
f 183 181 179 169
f 446 442 178 172
f 178 177 184 172
f 275 269 282 187
f 193 262 189 188
f 189 215 241 188
f 241 240 259 188
f 259 195 193 188
f 262 223 220 189
f 220 225 215 189
f 231 192 191 190
f 191 242 219 190
f 219 224 221 190
f 221 222 231 190
f 192 194 256 191
f 256 243 242 191
f 234 233 194 192
f 231 255 234 192
f 236 251 262 193
f 195 235 236 193
f 233 238 228 194
f 228 257 256 194
f 259 258 227 195
f 227 239 235 195
f 243 207 204 196
f 204 212 202 196
f 202 244 250 196
f 250 242 243 196
f 201 208 198 197
f 198 205 203 197
f 203 213 210 197
f 210 209 201 197
f 208 252 237 198
f 237 206 205 198
f 244 202 200 199
f 200 439 441 199
f 441 442 253 199
f 253 249 244 199
f 202 212 211 200
f 211 440 439 200
f 214 240 208 201
f 209 216 214 201
f 205 445 444 203
f 444 443 213 203
f 207 216 209 204
f 209 210 212 204
f 206 438 445 205
f 237 248 254 206
f 254 437 438 206
f 257 217 216 207
f 243 256 257 207
f 240 241 252 208
f 213 211 212 210
f 213 443 440 211
f 258 259 240 214
f 216 217 258 214
f 225 230 261 215
f 261 252 241 215
f 218 227 258 217
f 257 228 218 217
f 226 239 227 218
f 228 238 226 218
f 242 250 263 219
f 263 229 224 219
f 223 454 453 220
f 453 452 225 220
f 224 432 430 221
f 430 433 222 221
f 260 255 231 222
f 433 435 260 222
f 245 462 454 223
f 262 251 245 223
f 229 431 432 224
f 452 451 230 225
f 464 449 239 226
f 238 447 464 226
f 263 249 232 229
f 232 429 431 229
f 451 459 264 230
f 264 248 261 230
f 249 253 247 232
f 247 434 429 232
f 234 457 448 233
f 448 447 238 233
f 255 458 457 234
f 450 455 236 235
f 239 449 450 235
f 455 456 251 236
f 252 261 248 237
f 249 263 250 244
f 251 456 461 245
f 461 412 462 245
f 264 459 463 246
f 463 476 436 246
f 436 437 254 246
f 254 248 264 246
f 253 442 446 247
f 446 486 434 247
f 260 460 458 255
f 435 487 460 260
f 266 270 276 265
f 276 267 268 265
f 282 269 270 266
f 276 273 281 267
f 281 424 485 267
f 485 425 268 267
f 275 274 271 269
f 271 272 270 269
f 272 273 276 270
f 279 277 272 271
f 274 280 279 271
f 277 278 273 272
f 278 331 281 273
f 332 330 278 277
f 279 329 332 277
f 330 333 331 278
f 280 328 329 279
f 331 423 424 281
f 383 371 327 283
f 326 307 313 284
f 313 323 321 284
f 321 297 285 284
f 285 286 326 284
f 294 311 326 286
f 11 397 34 4
f 324 314 293 287
f 293 315 300 287
f 398 3 327 310
f 314 304 309 288
f 309 295 302 288
f 302 301 292 288
f 292 293 314 288
f 320 474 400 289
f 400 470 311 289
f 311 294 296 289
f 296 308 320 289
f 322 374 409 290
f 409 455 450 290
f 450 449 295 290
f 295 309 322 290
f 299 339 351 291
f 351 305 304 291
f 304 314 324 291
f 324 310 299 291
f 301 298 303 292
f 303 315 293 292
f 449 464 302 295
f 321 317 306 297
f 301 447 448 298
f 448 457 318 298
f 318 323 303 298
f 371 348 339 299
f 310 327 371 299
f 315 313 307 300
f 307 470 395 300
f 302 464 447 301
f 323 313 315 303
f 305 322 309 304
f 351 352 353 305
f 353 374 322 305
f 317 458 460 306
f 326 311 470 307
f 488 316 320 308
f 325 474 320 316
f 321 323 318 317
f 318 457 458 317
f 467 468 329 328
f 468 469 332 329
f 465 466 333 330
f 332 469 465 330
f 333 422 423 331
f 466 484 422 333
f 361 362 382 334
f 382 359 378 334
f 378 360 366 334
f 366 367 361 334
f 340 387 365 335
f 365 363 354 335
f 354 350 388 335
f 343 418 417 336
f 417 426 372 336
f 372 373 345 336
f 345 342 343 336
f 3 398 6 1
f 415 482 478 410
f 358 347 341 337
f 341 392 346 337
f 350 354 344 338
f 344 342 349 338
f 348 341 347 339
f 347 352 351 339
f 475 393 387 340
f 348 384 392 341
f 344 357 343 342
f 345 385 349 342
f 357 419 418 343
f 354 363 357 344
f 373 394 385 345
f 358 364 352 347
f 371 383 384 348
f 385 369 370 349
f 364 356 353 352
f 356 379 374 353
f 409 362 361 355
f 361 367 377 355
f 377 461 456 355
f 456 455 409 355
f 364 404 478 356
f 478 381 379 356
f 363 416 419 357
f 414 415 410 407
f 382 381 376 359
f 376 387 393 359
f 393 375 378 359
f 378 375 368 360
f 368 451 452 360
f 452 453 366 360
f 379 381 382 362
f 409 374 379 362
f 365 482 416 363
f 387 376 482 365
f 453 454 367 366
f 454 462 377 367
f 375 386 391 368
f 391 459 451 368
f 385 394 390 369
f 426 484 466 372
f 466 465 373 372
f 465 469 394 373
f 393 475 386 375
f 381 478 482 376
f 462 412 461 377
f 436 476 463 380
f 463 459 391 380
f 390 468 467 389
f 394 469 468 390
f 480 483 413 405
f 413 414 407 405
