v 0.537956667821857 0.000000000000000 1.000509516456111
v 1.425197452709575 0.000000000000000 -1.998204884778087
v -1.425267105598695 0.000000000000000 1.998012250772142
v 1.468605997695149 0.000000000000000 -0.994606883129988
v -1.468254037767534 0.000000000000000 0.994601283610553
v 0.413766678248214 0.000000000000000 -1.999939473143480
v -0.413767758091764 0.000000000000000 1.999736777863079
v 1.498502642065249 0.000000000000000 0.003812997364252
v 0.460190107752347 0.000000000000000 -0.998709979328087
v 0.499062897334475 0.000000000000000 0.001069304513434
v -0.460213131633826 0.000000000000000 0.998560207089440
v -1.526998538565471 0.000000000000000 -1.000927520022176
v 2.486153828037562 0.000000000000000 -0.982514756072797
v -2.498392528062828 0.000000000000000 -0.006761143904375
v 2.498318607464653 0.000000000000000 0.007104635388220
v -2.486426478929034 0.000000000000000 0.982458149708743
v 1.527572434832215 0.000000000000000 1.001081193703584
v -0.499198215976084 0.000000000000000 -0.001151854493327
v -0.537096019443248 0.000000000000000 -1.000447878459879
v -1.498765095609570 0.000000000000000 -0.003840268132654
v -0.003507824302350 2.490538412757541 -0.902041592914496
v 2.299925614678965 0.970494068007942 0.008822957843066
v 0.937777057966406 2.308948710745821 0.925980891022770
v 0.010013895350578 2.493354795656647 1.763518093605324
v 1.746474689790187 1.782249919441991 0.006146864687172
v -2.300242114562319 0.973321425444802 1.925309868301976
v -1.746218776980545 1.783026524376249 -0.007476486555170
v -1.738385834007143 1.791763989863740 0.957144148374756
v 0.938270477053658 2.309221728360860 0.002895002022652
v -0.924411613016611 2.316056631501964 1.817646822820014
v -0.008602751380242 2.493485622223262 -1.762784082900790
v 0.932455853993278 2.313149822851507 -0.921076302663344
v 0.000531146497342 2.492081878146175 0.000312954042669
v -0.937853196465768 2.310970449476613 -0.003638115617001
v -0.931079157943034 2.313061773224415 0.919315088961265
v 0.004751353903188 2.491983862997728 0.902299540435152
v 1.738613597759223 1.788739563922475 0.971986326903633
v 0.941792795413151 2.308051570929002 1.824946621968404
v -2.499204691928930 0.010381031909234 -0.997200659086976
v 2.297418432372256 0.977264853823599 1.976442047852612
v -2.297718270627033 0.976509108522743 -1.975147970875118
v 2.300476246205990 0.972927385283119 -1.926254960277284
v 2.499232554149930 0.010328609362480 0.997568311537792
v 1.738345287777050 1.789411003563916 -0.958242375179466
v -1.738641917729352 1.790208189747873 -0.973724366045484
v -2.299600821911780 0.970817537795957 -0.009026312815963
v -0.941087123049654 2.309081217306055 -1.824704445118667
v 0.926729026964425 2.315456565680271 -1.817357704522401
v 2.301739639301920 0.972042934955455 -0.968204313582613
v -0.937554697510106 2.311408089448030 -0.927614757479104
v -2.297361744118720 0.971369646801974 0.968686511711797
v 2.294785945903413 0.976451858841544 0.991823182764024
v -2.298255163954601 0.977693530377664 -0.991586784968010
v 3.994325350411668 -5.000000000000020 0.036525292567285
v -3.034730381489469 -5.000000000000007 0.979818340156580
v 2.954773937815044 -5.000000000000012 1.017401916043373
v 0.051810999714210 -5.000000000000028 -0.998544825044418
v 1.947636259845305 -5.000000000000007 1.010071936548550
v -0.946890627405292 -5.000000000000002 -1.003634383619271
v 3.079081135025949 -5.000000000000061 -1.984805275217029
v -4.994305142019728 -5.000000000000013 -0.067119465093699
v 4.993909146305585 -4.999999999999957 0.067550746450284
v -0.052303511191311 -5.000000000000002 0.998968028284978
v 0.946465701446822 -4.999999999999997 1.004124747134061
v 2.092536481118289 -5.000000000000051 -1.988934419190779
v 0.105914670942263 -5.000000000000015 -1.997395456510233
v -2.093017916536127 -5.000000000000004 1.989386811583392
v -0.106442706044211 -4.999999999999996 1.997844381157056
v 3.034194933647522 -4.999999999999973 -0.979608821075569
v -1.948447357404596 -5.000000000000000 -1.009550645080258
v 1.100989295351174 -4.999999999999983 -1.993233383154749
v -3.079536271663708 -5.000000000000001 1.985208129790242
v -1.101534245701686 -4.999999999999993 1.993700274369592
v 2.042920111258085 -5.000000000000036 -0.987308956241781
v -1.048925943827203 -5.000000000000006 0.993755034561628
v -3.994578758864733 -4.999999999999996 -0.036076560606707
v -2.954575959169420 -4.999999999999996 -1.017088528567655
v -0.000242352310261 -4.999999999999986 0.000244154437530
v -4.055534889611177 -4.999999999999991 1.984360480248605
v 4.055158457883606 -5.000000000000009 -1.983921831349789
v -4.986604503699564 -4.999999999999995 -1.054540555364380
v -2.043186913579660 -5.000000000000000 0.987719243166348
v 1.048435903943828 -4.999999999999977 -0.993242876841308
v 4.986415916171686 -5.000000000000002 1.055167223542766
v 2.994651981974178 -4.999999999999975 0.021621312220331
v -0.998098784555575 -4.999999999999967 -0.005368207487036
v 1.995846180001751 -4.999999999999993 0.012355347354021
v -3.967409111906801 -4.999999999999994 -1.028717327525822
v 4.021076988599206 -4.999999999999998 -0.968455419109951
v -4.022075237380839 -5.000000000000018 0.967910517209933
v 3.966625668050255 -4.999999999999991 1.029710637359326
v -2.994791608144619 -4.999999999999997 -0.021120077940847
v 0.997574330361680 -4.999999999999983 0.005818141052075
v -1.996530842045699 -4.999999999999990 -0.011969710848450
v -5.000000000000009 3.935377702133090 -0.482096498788803
v -4.999999999999984 -4.007426286173378 -0.116874230390912
v -4.999999999999999 2.946566888729357 0.624781578663649
v -5.000000000000003 -3.010309258149918 0.829840900818752
v -4.999999999999996 -2.013799906587793 -1.254301659236808
v -4.999999999999996 1.958024297305591 1.705497296513157
v -5.000000000000005 1.957274324177522 -1.509353348430102
v -5.000000000000005 2.946271974035782 -0.459037607218015
v -4.999999999999995 -4.995801449960311 0.942587471584423
v -5.000000000000012 4.924137911370904 -0.497338628089405
v -5.000000000000007 -1.019078580554160 -1.321658683487787
v -4.999999999999994 2.948269453833192 1.708987503268110
v -5.000000000000004 0.966961179462265 1.702806458841817
v -5.000000000000004 -1.018733696923281 1.735423086278998
v -4.999999999999996 -0.026704387048615 0.688632131712250
v -4.999999999999997 -1.020206784810377 0.726517770041234
v -5.000000000000009 -3.009942005801392 -1.185656862036008
v -4.999999999999998 -0.025085189939157 1.710244134514568
v -4.999999999999996 0.965514616792801 0.660249939370526
v -4.999999999999993 -2.014883730258989 0.774979410694626
v -5.000000000000002 4.924533820389481 0.596756280783231
v -4.999999999999979 2.947223721932288 -1.554526209579377
v -4.999999999999992 -0.025701280874639 -1.389114452986242
v -4.999999999999994 0.966369642014193 -1.451542715361978
v -4.999999999999995 -0.026980795464429 -0.345821035659885
v -5.000000000000005 -2.013938778058351 1.777151256104504
v -4.999999999999999 4.922796312072136 1.707555445088907
v -5.000000000000036 4.921626092298042 -1.611079107542629
v -4.999999999999996 1.956532989367892 0.642377514491578
v -5.000000000000011 -3.010166744835177 1.831147203718666
v -5.000000000000048 -3.010551753504524 -0.177490554113737
v -5.000000000000006 3.935514516657554 -1.587437242570777
v -4.999999999999986 3.936781380500122 1.709485739318172
v -5.000000000000007 1.956254066230057 -0.427930188304820
v -4.999999999999990 0.965228908588199 -0.389880472839623
v -5.000000000000041 -2.014880017789817 -0.237499701833321
v -4.999999999999986 -4.008026987505731 -1.115829829215406
v -4.999999999999995 -4.005398285137130 0.888739794024374
v -5.000000000000004 -4.006424496245479 1.896343598800139
v -5.000000000000004 3.935721831469563 0.612467834383937
v -4.999999999999980 -1.020325630753513 -0.293542118617251
v 4.999999999999996 3.935714561034934 0.480048417831652
v 4.999999999999976 -0.027277566571231 -0.690980969094438
v 4.999999999999991 1.957126133946204 -1.706244548690027
v 4.999999999999996 -2.013646327057720 1.254245919096356
v 4.999999999999993 -2.014816366534500 -1.777370541490558
v 4.999999999999977 -4.996070594414105 -0.942558141065991
v 4.999999999999993 0.966081609732336 -1.703367364591157
v 4.999999999999996 4.924754600026453 0.494782834635471
v 5.000000000000018 -3.009866094737712 1.185471634885319
v 5.000000000000000 -1.018794240060407 1.321305786883592
v 4.999999999999989 0.966904882500391 1.451444253897090
v 4.999999999999988 2.947285001915545 -1.709858694239200
v 4.999999999999996 -0.025245831320872 1.387645507953451
v 5.000000000000021 2.946270648685677 -0.626581356995624
v 4.999999999999969 -2.015372762227289 -0.774744262883686
v 5.000000000000007 -0.026889806619755 0.344438492282663
v 4.999999999999967 1.956231529533088 -0.641302904043036
v 4.999999999999970 -4.007764796117975 0.116975572012365
v 4.999999999999970 -1.020748825010292 -0.726884578764080
v 4.999999999999971 -3.010758588768773 -0.829662701171369
v 4.999999999999999 4.924271014730385 -0.599209978608803
v 4.999999999999965 -3.010965996412814 -1.831204909983648
v 4.999999999999982 -0.026000664665534 -1.710656291351793
v 4.999999999999941 -1.019613523626868 -1.735762456803831
v 4.999999999999998 1.957989131081619 1.508651859984971
v 5.000000000000004 4.921597861552872 -1.709652767053745
v 5.000000000000026 4.922966506331802 1.608611129254594
v 5.000000000000011 2.948049009826824 1.552018304209064
v 5.000000000000065 0.965074389579536 -0.659638107764025
v 5.000000000000002 2.946458561084662 0.456224971481166
v 5.000000000000028 -4.007002966731882 -1.896470451898370
v 5.000000000000000 3.935674928646129 -1.711016501216411
v 5.000000000000000 0.965347387750594 0.389745846696531
v 4.999999999999999 -1.020364703422162 0.293857630223762
v 4.999999999999988 1.956409725487346 0.427458203303829
v 5.000000000000011 -4.005806227881318 -0.889408505924935
v 4.999999999999999 3.935487321418968 -0.613696918689863
v 5.000000000000028 -4.007964067787174 1.116607566723808
v 4.999999999999996 3.936616703330927 1.585408785858842
v 4.999999999999948 -3.010929254112862 0.177132522378608
v 4.999999999999994 -2.015087939290841 0.237555278708427
v -1.217347634093053 -3.005384728859077 2.000000000000000
v 2.983338474983281 6.864827588717686 1.999999999999998
v -4.231744902522429 1.959959035814808 2.000000000000000
v -1.995205429147371 2.983664630147584 2.000000000000000
v 1.004458697552333 3.059539463650335 2.000000000000000
v 4.397374229407454 1.960513337940383 1.999999999999999
v -0.164066875007217 -4.003014221796223 2.000000000000000
v -0.966328087444219 3.058987630265843 2.000000000000004
v -4.207308641313024 2.951050505836545 1.999999999999999
v -4.284325113522030 -0.022426409173018 2.000000000000000
v 3.709266681943803 -2.007448881420638 1.999999999999998
v -3.248274386803524 -2.010220860142994 2.000000000000000
v -4.229270812520877 -2.012706490373866 1.999999999999998
v 2.055877324354270 2.984249166112633 1.999999999999996
v 4.649139116245454 -1.015576111801797 2.000000000000003
v -3.104803091106866 2.958227673116165 1.999999999999999
v -3.132782686285479 -4.010858866766976 2.000000000000004
v -2.946085346017363 6.866742407622987 1.999999999999999
v -4.264248248475268 0.968987477677021 2.000000000000000
v 1.561971548069560 -0.000738077931032 1.999999999999999
v 4.475168098219036 0.969609170666699 2.000000000000005
v -4.269526785916982 -1.016358392675039 2.000000000000000
v 1.628319908143226 -1.002610796126177 2.000000000000004
v -4.189911624686435 3.939651170089721 1.999999999999996
v 1.770922723525496 -3.001100978633464 1.999999999999993
v 1.896839669811717 8.977130673312841 2.000000000000006
v -2.026422668397667 3.975936327143261 1.999999999999999
v 0.581700809132223 -0.000661836244259 2.000000000000000
v 4.339036797645004 2.951184647983063 2.000000000000011
v 1.895057655853059 -4.994157713057089 2.000000000000000
v -2.021784231514842 4.955857061287413 2.000000000000000
v 2.084625434354423 3.975106957951530 1.999999999999996
v 0.640983969153575 -1.001813285035343 1.999999999999999
v 2.791658358762664 8.804965618421253 1.999999999999976
v 4.252537505636567 4.922037128087204 1.999999999999999
v -3.027630846168401 5.905901542459347 2.000000000000000
v 4.296571102687874 3.939522101279943 2.000000000000006
v -2.147059448821190 -4.008793115211100 2.000000000000003
v 3.927898669315111 -4.987681863167318 2.000000000000001
v 4.802090785130813 -3.006656821762804 2.000000000000004
v -4.175298080238406 -3.010665306678957 2.000000000000000
v 2.904894343488365 -4.990235903897303 2.000000000000000
v -1.896221509797798 7.912267073478205 2.000000000000002
v -1.157473834726022 -4.006005782532245 1.999999999999997
v 4.049737110719280 6.848188372812009 2.000000000000012
v 2.700039922164626 -2.004483178516127 1.999999999999996
v -0.352441395691707 -1.001770160452707 2.000000000000001
v 1.920443889930874 7.915495764103250 1.999999999999993
v 3.203054208185562 2.958721487101992 2.000000000000004
v 0.995333568799978 6.954994539785937 2.000000000000016
v -4.107004933934189 5.893465281754869 2.000000000000008
v 3.261206276496696 1.961261138715698 1.999999999999994
v 1.038640498628824 4.977591267904899 2.000000000000001
v 1.036089185134770 4.010609183399275 1.999999999999993
v -0.288500915409009 -2.002921647621373 2.000000000000002
v -0.963164966839175 6.956780458560322 2.000000000000000
v 3.146023136419655 4.933530076091841 2.000000000000005
v 0.015562221870098 6.971531971231652 2.000000000000004
v -0.991909392677343 4.010338933604130 1.999999999999999
v -0.224643479308193 -3.003304715345952 2.000000000000002
v -0.947882604922223 7.986876236926648 2.000000000000002
v 4.564472162056004 -0.021989932900083 2.000000000000000
v 0.015905448437767 3.106552558519080 2.000000000000001
v 1.021980863558251 5.959356245072509 1.999999999999996
v 4.177953021852149 5.894469046972781 1.999999999999993
v 2.076443326334842 4.955043123535138 1.999999999999996
v -2.269295350669717 -2.006955371463576 2.000000000000000
v -1.281632265962585 -2.004462205667654 2.000000000000000
v -2.205832375433065 -3.007759681537397 2.000000000000000
v -0.993732755613532 4.978162668360301 2.000000000000000
v 2.844341703643011 -3.997111734441497 2.000000000000012
v 1.700528676718571 -2.002648760908141 2.000000000000002
v 0.019735912149588 4.028692219006581 2.000000000000009
v 0.018229165017082 5.969621390916099 1.999999999999997
v 0.020597049384734 4.988548600229393 1.999999999999999
v 4.726776043621109 -2.010850983835748 2.000000000000008
v -0.982254761493426 5.959432860200795 2.000000000000003
v -1.350770716267850 -1.002595319055146 2.000000000000000
v -3.243669947621266 0.970904660192295 1.999999999999999
v -3.823064023229289 7.763744970646105 2.000000000000003
v -4.000750713681339 6.848003953920479 1.999999999999996
v -1.946988571308700 6.915584929437422 2.000000000000002
v 0.011867261606714 8.014442285237106 2.000000000000005
v -2.342123466205188 -1.005638231717746 1.999999999999999
v 2.615701440746195 -1.005707407435119 2.000000000000001
v 3.848226885788571 7.760941863928529 1.999999999999998
v 2.854619654935934 7.809611434311044 2.000000000000004
v 0.971175256324677 7.989017826890885 2.000000000000003
v 0.892179001010196 -4.998167308778354 2.000000000000001
v 0.705882157175638 -2.002268656932253 2.000000000000001
v 3.383176609083487 0.972676990874216 1.999999999999994
v -0.946616022946334 9.079454926559471 2.000000000000011
v 3.178973678183749 3.950726603885226 1.999999999999998
v -1.990772913603605 5.932403370024675 2.000000000000000
v -1.886363022037811 8.982224459372325 2.000000000000000
v 0.833572864011983 -4.000350244905611 2.000000000000001
v 1.835700680417440 -3.998196221803688 2.000000000000005
v 3.787320928392814 -3.003535656173327 2.000000000000002
v 0.961665180459589 9.079638502375628 1.999999999999991
v 4.881639836122151 -4.002812975041920 1.999999999999999
v 0.007648151709345 9.113254930964803 1.999999999999997
v -2.833079404452825 7.810085177436953 2.000000000000002
v 3.078954344619539 5.904072662424976 2.000000000000004
v 2.035171369448300 5.931779532373399 2.000000000000004
v -3.096730067328022 3.951350680268423 1.999999999999999
v -2.782421410571271 8.804600447980793 2.000000000000000
v -4.114686723182003 -4.010256966419702 2.000000000000001
v 3.861455996395559 -3.998079278875577 1.999999999999996
v 0.771408816713528 -3.001802647175098 1.999999999999998
v 3.624039855283537 -1.011142010924858 2.000000000000000
v 1.977725416799489 6.912099990514601 1.999999999999997
v -3.078156443061114 4.934244407494155 1.999999999999998
v 2.775827490935443 -3.001555528130202 2.000000000000000
v -4.164969200829903 4.922049607416449 1.999999999999998
v 3.518398527786664 -0.016260977729710 1.999999999999996
v -3.138029596416873 1.958285054218480 2.000000000000000
v -3.190961349243798 -3.009805620900769 1.999999999999999
v -3.330936889046787 -0.015761163311540 2.000000000000000
v -3.302128990044771 -1.011644835791295 2.000000000000000
v 4.914151632246881 5.903342777021806 -1.664341870919772
v -4.912775220362974 5.903194228980664 -1.588324950001706
v 4.910264809121042 5.910706685255365 0.492382458038044
v -3.532285325288615 8.503959241633359 -0.439610544854647
v 3.529859112555193 8.504449216567600 -0.456514276980633
v -4.627032768089155 6.862115541314694 0.525475469783421
v 4.628390276030983 6.863355068013311 0.472361943065190
v -1.906791181327603 9.592221640387562 -0.501651719501469
v 0.968646939505054 9.880731883785884 -0.542728053032573
v 1.905112811030630 9.596777365529773 -0.511188329798840
v -0.001792007222365 9.975923629999965 -0.554274785171719
v -0.971916673183259 9.880081493338903 -0.539932241969810
v 2.771077627700105 9.132917593683469 -0.468130026574181
v -4.912122068750869 5.910261415074803 -0.495306632499874
v -4.617281297193260 6.857056200210165 -0.478408626246180
v 4.616799720481918 6.857732061044628 -0.530850995103698
v -2.775517197507636 9.137945452550930 1.385559941284546
v -1.902795742039777 9.609547845856852 1.536458887068893
v -0.972410209598600 9.898046089181779 0.537941980578706
v 0.001267182824912 9.993370237574194 0.548912543166246
v 0.974577353820733 9.897787018215540 0.534433620294983
v 1.914405718514056 9.613363929139879 0.500061970519631
v 2.783399809081164 9.148976075636902 0.454808770403609
v 1.909037725463124 9.606813904133954 1.531738246714806
v -4.158641661025951 7.745921981736531 1.391084766500795
v 0.004558360649226 9.991311767798107 1.694054600689935
v -3.531001737241638 8.512508671507813 1.292541277961023
v -3.546444352156222 8.520145572110838 0.448240895438041
v 2.777750957709977 9.136258851891228 1.380232587409884
v 0.970832896157834 9.894695126799791 1.649337326509139
v -0.962439668596727 9.896442629774594 1.651857619145323
v -2.775537957983895 9.134680087690882 -0.463900222790752
v -1.913114182696147 9.613549473121520 0.504037816476455
v -2.782967934714727 9.148432281290235 0.464172251064136
v 3.530913802141803 8.511800870061622 1.282821416670692
v 4.158131163252607 7.745801814344856 1.362405998228137
v 3.546382357872755 8.520923751808098 0.432566107748579
v 4.630773642680001 6.859971979364701 1.492513007331777
v -4.631814457882331 6.860030093668170 1.544248196893543
v 4.162004282082997 7.742210071475092 -0.477910482873314
v -4.162984851065112 7.741013979559249 -0.448805303284976
v 4.911681060744998 5.910475371453916 -0.569919575880961
v -1.908446442164192 9.605137307052614 -1.532877450621347
v -3.529804722866295 8.506637771028361 -1.301463155797805
v 1.900647990932898 9.608712343570550 -1.544179340961822
v 0.961507472317632 9.895490316917144 -1.656726904001356
v -0.004557407376191 9.990284444305008 -1.699824277036761
v -0.970795027097890 9.893498582153095 -1.655378942587612
v 2.770739221145078 9.138185226569467 -1.384784657226756
v 3.529431326065497 8.510852670812131 -1.312534266235084
v -4.159071497536255 7.740646458265824 -1.372232348126509
v 4.158280069659647 7.743393062983518 -1.399653483083063
v 4.630595392184317 6.858163955682611 -1.545166772025576
v -4.629520145288720 6.857229821754892 -1.492639094105460
v -2.775855160056826 9.135545086443287 -1.382015125050854
v -4.913518250667494 5.904561148137013 1.661648306502407
v 4.912371452558121 5.904873083233909 1.585511965821818
v -4.910235405348963 5.910294621417455 0.565828047216427
v -4.170135091641546 7.747084537160593 0.479177672632937
v 4.169029505746177 7.747315551748213 0.447548031651255
v 1.217060710487124 -3.005840907371102 -2.000000000000007
v -2.057323845266915 2.982551416827546 -2.000000000000004
v -1.919355011092316 7.909764495006005 -2.000000000000000
v 4.231475456207688 1.959025100830462 -1.999999999999994
v -4.475067434298932 0.968891629420929 -2.000000000000002
v 0.163654089985953 -4.003457644418512 -2.000000000000004
v 4.206865661972843 2.949971601836071 -1.999999999999997
v -4.336602962408469 2.950097934267087 -1.999999999999995
v 4.284121777966471 -0.023241803324350 -2.000000000000002
v -3.709273426732553 -2.007822307542568 -2.000000000000001
v 3.248096928852195 -2.010834481387085 -2.000000000000013
v 4.229093956022828 -2.013495747975140 -2.000000000000001
v 0.949030158654975 7.984921559386200 -2.000000000000001
v -2.978725888459520 6.859309144659430 -2.000000000000004
v -4.648807814319575 -1.016025020385295 -2.000000000000006
v 3.132454847489865 -4.011366489097359 -2.000000000000004
v 4.263987626875156 0.968152218637714 -2.000000000000007
v -1.562096062702263 -0.000820280056224 -2.000000000000000
v -4.394768401330646 1.959535971120943 -2.000000000000000
v 1.887093622122729 8.977391525476296 -2.000000000000004
v 0.982102051414162 5.955142102390249 -1.999999999999998
v 4.269400072485363 -1.017169764636003 -1.999999999999993
v -1.628446996738675 -1.002855465520319 -1.999999999999996
v 4.189089699500860 3.938224045623595 -2.000000000000004
v -4.294816387031434 3.938118837588235 -1.999999999999997
v -1.771201259378429 -3.001502333228879 -2.000000000000000
v -2.084272670102549 3.973504111387437 -2.000000000000008
v 1.998726838797266 2.984368490875086 -2.000000000000000
v -0.581850324655743 -0.000835075859429 -1.999999999999998
v -1.895605183983051 -4.994628352695324 -2.000000000000000
v 4.175077778450127 -3.011360141487853 -1.999999999999987
v -3.837645147481359 7.750722722448648 -1.999999999999998
v -0.641140136107740 -1.002084315889763 -1.999999999999996
v 3.104292320918640 2.958076518602433 -2.000000000000004
v 0.968462785485071 3.057289280706630 -2.000000000000002
v -0.998502174711788 3.055057867279461 -2.000000000000005
v 2.776551486431376 8.792659821865001 -1.999999999999996
v 4.163454764425018 4.920186611588537 -2.000000000000000
v 2.027075633550248 3.974036338311649 -2.000000000000000
v 0.965030973014092 6.951728479184208 -2.000000000000000
v 2.146690655281576 -4.009278340619863 -2.000000000000021
v -3.928472317835424 -4.988073186176990 -2.000000000000004
v -4.802226322801058 -3.006961787761767 -1.999999999999998
v -2.905368961389374 -4.990587078458656 -2.000000000000000
v 1.895739982656678 7.908839961163771 -2.000000000000010
v 2.940217818802415 6.860391254852829 -1.999999999999988
v 1.157074557057952 -4.006464646500749 -2.000000000000005
v -2.700152350610782 -2.004842413285020 -2.000000000000010
v 0.945416549504320 9.069293108766372 -1.999999999999993
v 1.944872599728144 6.908759567808113 -2.000000000000002
v 0.352324830033388 -1.002072519864599 -1.999999999999998
v 0.992987356383041 4.008084872798801 -2.000000000000002
v -4.250565749925955 4.920394138793653 -2.000000000000004
v -0.007900228281286 9.105216662769314 -2.000000000000000
v -4.172503050846520 5.891305436748533 -1.999999999999994
v -0.013966499243882 3.106046810828047 -2.000000000000003
v -2.073137198633312 4.952670847328518 -1.999999999999984
v 0.288294555580306 -2.003299008329694 -2.000000000000008
v -0.994483936177238 6.952026658034117 -1.999999999999999
v 3.026965852513309 5.903290674059910 -1.999999999999998
v -0.014120421674087 6.967848369953074 -1.999999999999994
v 0.224343489157472 -3.003727637166056 -2.000000000000002
v -4.563546405917430 -0.022580688213742 -1.999999999999996
v -0.018758641419506 5.966755714831489 -2.000000000000007
v 1.990732491275081 5.929765179959658 -2.000000000000004
v -2.035390623554894 5.929453464131517 -2.000000000000003
v -1.036598022029244 4.975549405336964 -1.999999999999998
v 2.269109223259417 -2.007434895287732 -1.999999999999993
v 1.281433728764892 -2.004877483709455 -1.999999999999999
v 2.205567977856667 -3.008263062411368 -1.999999999999987
v 2.021691300906665 4.953265285556885 -2.000000000000002
v -3.142537960783498 4.930597453347811 -2.000000000000008
v -2.844711186463766 -3.997506986888315 -1.999999999999996
v -1.700712387574271 -2.002996687220507 -2.000000000000002
v -0.010290584314725 8.008383929695047 -1.999999999999994
v -0.018464475512558 4.025377484716183 -2.000000000000004
v 3.096697257955031 3.949622546421474 -2.000000000000000
v -4.726686278104795 -2.011214255549565 -1.999999999999998
v 1.350645911618550 -1.002926118850509 -2.000000000000001
v 3.997308599256659 6.845293978499066 -2.000000000000005
v -0.019946703291769 4.985530658575328 -2.000000000000006
v 3.243970755756472 0.970320266201200 -1.999999999999990
v -4.042438931808644 6.843669210418116 -2.000000000000007
v -1.034236059373439 4.009199377149908 -1.999999999999994
v -1.019119207524551 5.955209923424039 -1.999999999999992
v -1.978737659463862 6.909172837116516 -1.999999999999995
v 2.341995488728370 -1.006026452739755 -2.000000000000000
v -2.615730315588276 -1.005965880664092 -1.999999999999996
v -1.898833016236054 8.976710775510661 -1.999999999999988
v -0.892656516645495 -4.998640715019855 -1.999999999999997
v -0.706092988460218 -2.002618940200037 -1.999999999999999
v 0.993500140937427 4.976478410014108 -2.000000000000000
v 3.816580583083551 7.757958666430453 -1.999999999999988
v -2.789249867571912 8.797651243302115 -2.000000000000008
v -0.833973609163367 -4.000786273119285 -2.000000000000002
v 4.106346842811866 5.891821092959471 -2.000000000000003
v -3.178989063106851 3.949682391173241 -1.999999999999992
v -1.836093636105903 -3.998624754527278 -2.000000000000001
v -3.250742055948153 1.959107155748238 -2.000000000000000
v -3.787487677239555 -3.003898175646778 -1.999999999999998
v -0.960349811500039 9.071795168987490 -1.999999999999996
v 3.137393122187658 1.958005733374740 -1.999999999999995
v -0.968867250574617 7.981626973033672 -2.000000000000005
v -4.881845306079169 -4.003113700418361 -1.999999999999998
v 2.833536911671506 7.808371998355417 -2.000000000000004
v -2.857293843319497 7.807787286729221 -2.000000000000001
v 4.114418620577061 -4.010800667191154 -1.999999999999980
v -3.861771703722551 -3.998426028500835 -2.000000000000000
v -0.771705481757937 -3.002205622234429 -1.999999999999991
v -3.623853142883653 -1.011550742517243 -1.999999999999995
v 3.077122097256022 4.932034064169336 -2.000000000000000
v -2.776063789809030 -3.001945300107867 -2.000000000000000
v -3.203735422608702 2.957690623224548 -2.000000000000001
v -3.518505883529227 -0.016501016228740 -1.999999999999994
v -3.082533998391368 5.903408475790332 -2.000000000000005
v 3.190716662211210 -3.010393103124654 -2.000000000000009
v 3.330903798565148 -0.016277867834606 -1.999999999999980
v -3.383781295156086 0.971935895990246 -2.000000000000010
v 3.302016337371867 -1.012222433881498 -2.000000000000015
v -2.500000000000000 0.000000000000000 2.000000000000000
v 2.500000000000000 0.000000000000000 -2.000000000000000
v -2.500000000000000 0.000000000000000 -2.000000000000000
v 2.500000000000000 0.000000000000000 2.000000000000000
v 1.672826520000000 1.857862060000000 2.000000000000000
v -1.672826520000000 1.857862060000000 2.000000000000000
v 1.672826520000000 1.857862060000000 -2.000000000000000
v -1.672826520000000 1.857862060000000 -2.000000000000000
v -5.000000000000000 -5.000000000000000 2.000000000000000
v 5.000000000000000 -5.000000000000000 -2.000000000000000
v -5.000000000000000 -5.000000000000000 -2.000000000000000
v 5.000000000000000 -5.000000000000000 2.000000000000000
v -3.535533910000000 8.535533910000000 2.000000000000000
v 3.535533910000000 8.535533910000000 2.000000000000000
v 3.535533910000000 8.535533910000000 -2.000000000000000
v -3.535533910000000 8.535533910000000 -2.000000000000000
f 11 7 204 1
f 204 196 17 1
f 17 8 10 1
f 10 18 11 1
f 6 9 4 2
f 4 13 476 2
f 476 442 434 2
f 434 406 6 2
f 475 260 254 3
f 254 223 7 3
f 7 11 5 3
f 5 16 475 3
f 9 10 8 4
f 8 15 13 4
f 11 18 20 5
f 20 14 16 5
f 384 19 9 6
f 406 388 384 6
f 223 209 204 7
f 17 43 15 8
f 19 18 10 9
f 39 14 20 12
f 20 18 19 12
f 19 384 373 12
f 373 477 39 12
f 15 22 49 13
f 49 42 476 13
f 46 51 16 14
f 39 53 46 14
f 43 52 22 15
f 51 26 475 16
f 196 478 43 17
f 32 29 33 21
f 33 34 50 21
f 50 47 31 21
f 31 48 32 21
f 52 37 25 22
f 25 44 49 22
f 37 479 38 23
f 38 24 36 23
f 36 33 29 23
f 29 25 37 23
f 38 181 239 24
f 239 184 30 24
f 30 35 36 24
f 29 32 44 25
f 480 292 255 26
f 255 294 475 26
f 51 28 480 26
f 34 35 28 27
f 28 51 46 27
f 46 53 45 27
f 45 50 34 27
f 35 30 480 28
f 184 180 480 30
f 47 391 411 31
f 411 390 48 31
f 48 481 44 32
f 36 35 34 33
f 52 40 479 37
f 479 190 181 38
f 477 41 53 39
f 478 291 267 40
f 267 228 479 40
f 52 43 478 40
f 482 45 53 41
f 477 469 473 41
f 473 454 482 41
f 49 44 481 42
f 481 457 437 42
f 437 472 476 42
f 482 47 50 45
f 482 357 391 47
f 390 383 481 48
f 85 69 89 54
f 89 141 62 54
f 62 84 91 54
f 91 56 85 54
f 90 76 92 55
f 92 94 82 55
f 82 67 72 55
f 72 79 90 55
f 58 87 85 56
f 91 215 218 56
f 218 206 58 56
f 59 445 66 57
f 66 71 83 57
f 83 93 78 57
f 78 86 59 57
f 64 93 87 58
f 206 265 64 58
f 70 385 445 59
f 86 94 70 59
f 65 396 371 60
f 371 462 80 60
f 80 89 69 60
f 69 74 65 60
f 96 131 81 61
f 81 88 76 61
f 76 90 103 61
f 103 132 96 61
f 141 171 153 62
f 153 173 84 62
f 75 86 78 63
f 78 93 64 63
f 64 265 68 63
f 68 73 75 63
f 71 402 396 65
f 74 83 71 65
f 445 450 361 66
f 361 402 71 66
f 82 75 73 67
f 73 220 214 67
f 214 193 72 67
f 265 272 183 68
f 183 220 73 68
f 85 87 74 69
f 77 399 385 70
f 94 92 77 70
f 193 283 79 72
f 87 93 83 74
f 82 94 86 75
f 88 77 92 76
f 88 397 399 77
f 483 103 90 79
f 283 133 483 79
f 462 166 484 80
f 484 141 89 80
f 131 459 485 81
f 485 397 88 81
f 173 276 486 84
f 486 215 91 84
f 104 122 126 95
f 126 116 102 95
f 102 97 134 95
f 134 115 104 95
f 132 98 125 96
f 125 111 131 96
f 102 128 123 97
f 123 100 106 97
f 106 127 134 97
f 132 133 124 98
f 124 120 114 98
f 114 130 125 98
f 130 135 105 99
f 105 370 433 99
f 433 398 111 99
f 111 125 130 99
f 123 113 107 100
f 107 195 179 100
f 179 185 106 100
f 128 102 116 101
f 116 363 374 101
f 374 360 118 101
f 118 129 128 101
f 483 133 132 103
f 309 297 122 104
f 115 353 309 104
f 135 119 117 105
f 117 418 370 105
f 185 200 127 106
f 113 109 112 107
f 112 186 195 107
f 110 114 120 108
f 120 189 198 108
f 198 186 112 108
f 112 109 110 108
f 119 135 110 109
f 113 129 119 109
f 135 130 114 110
f 398 459 131 111
f 123 128 129 113
f 134 127 121 115
f 121 351 353 115
f 126 380 363 116
f 119 129 118 117
f 118 360 418 117
f 124 217 189 120
f 127 200 290 121
f 290 227 351 121
f 297 410 408 122
f 408 380 126 122
f 133 283 217 124
f 172 156 143 136
f 143 162 174 136
f 174 163 165 136
f 165 149 172 136
f 158 142 164 137
f 164 168 151 137
f 151 169 154 137
f 154 159 158 137
f 359 362 147 138
f 147 149 152 138
f 152 164 142 138
f 142 372 359 138
f 252 216 144 139
f 144 175 176 139
f 176 169 145 139
f 145 191 252 139
f 367 377 159 140
f 159 154 150 140
f 150 155 157 140
f 157 386 367 140
f 484 166 171 141
f 158 364 372 142
f 156 337 298 143
f 298 352 162 143
f 216 276 173 144
f 173 153 175 144
f 169 151 148 145
f 148 238 191 145
f 197 238 148 146
f 148 151 168 146
f 168 170 160 146
f 160 182 197 146
f 362 379 167 147
f 167 172 149 147
f 165 170 152 149
f 154 169 176 150
f 176 175 155 150
f 170 168 164 152
f 171 155 175 153
f 171 166 157 155
f 161 296 337 156
f 172 167 161 156
f 166 462 386 157
f 159 377 364 158
f 170 165 163 160
f 163 205 182 160
f 393 451 296 161
f 167 379 393 161
f 211 213 174 162
f 352 241 211 162
f 174 213 205 163
f 245 214 220 177
f 220 183 236 177
f 236 231 244 177
f 244 243 245 177
f 279 241 221 178
f 221 262 263 178
f 263 224 287 178
f 287 280 279 178
f 195 255 292 179
f 292 192 185 179
f 203 281 192 180
f 192 292 480 180
f 184 235 203 180
f 190 208 230 181
f 230 249 239 181
f 228 267 197 182
f 205 225 228 182
f 272 285 236 183
f 239 249 235 184
f 192 281 200 185
f 198 295 294 186
f 294 255 195 186
f 222 289 274 187
f 274 216 252 187
f 252 191 286 187
f 286 261 222 187
f 189 217 293 188
f 293 245 243 188
f 243 260 295 188
f 295 198 189 188
f 479 228 225 190
f 225 269 208 190
f 238 291 286 191
f 214 245 293 193
f 293 217 283 193
f 278 256 257 194
f 257 227 212 194
f 212 270 258 194
f 258 219 278 194
f 204 209 199 196
f 199 261 478 196
f 267 291 238 197
f 209 266 248 199
f 248 222 261 199
f 281 288 290 200
f 285 272 273 201
f 273 247 289 201
f 289 222 248 201
f 248 266 285 201
f 275 264 224 202
f 224 263 210 202
f 210 324 319 202
f 319 325 275 202
f 207 288 281 203
f 235 246 207 203
f 213 269 225 205
f 218 247 273 206
f 273 272 265 206
f 270 212 288 207
f 246 253 270 207
f 269 233 242 208
f 242 229 230 208
f 223 231 266 209
f 263 262 488 210
f 488 330 324 210
f 233 269 213 211
f 241 279 233 211
f 227 290 288 212
f 486 276 284 215
f 284 247 218 215
f 274 284 276 216
f 271 282 278 219
f 258 232 237 219
f 237 268 271 219
f 241 352 333 221
f 333 331 262 221
f 254 244 231 223
f 264 226 287 224
f 264 259 234 226
f 234 250 240 226
f 240 280 287 226
f 257 334 351 227
f 242 280 240 229
f 240 250 251 229
f 251 249 230 229
f 236 285 266 231
f 258 270 253 232
f 253 250 234 232
f 234 259 237 232
f 279 280 242 233
f 249 251 246 235
f 259 277 268 237
f 244 254 260 243
f 251 250 253 246
f 284 274 289 247
f 487 322 320 256
f 320 334 257 256
f 278 282 487 256
f 264 275 277 259
f 475 294 295 260
f 286 291 478 261
f 331 330 488 262
f 326 313 271 268
f 277 321 326 268
f 313 312 282 271
f 325 321 277 275
f 312 322 487 282
f 451 435 348 296
f 348 311 337 296
f 349 438 410 297
f 309 310 349 297
f 337 311 302 298
f 302 333 352 298
f 327 350 339 299
f 339 346 336 299
f 336 354 323 299
f 323 329 327 299
f 345 344 308 300
f 308 318 332 300
f 332 355 335 300
f 335 347 345 300
f 354 336 310 301
f 310 309 353 301
f 353 351 334 301
f 334 320 354 301
f 311 335 355 302
f 355 331 333 302
f 328 314 307 303
f 307 343 338 303
f 338 350 327 303
f 327 329 328 303
f 306 315 316 304
f 316 317 305 304
f 305 340 341 304
f 341 342 306 304
f 317 318 308 305
f 308 344 340 305
f 342 343 307 306
f 307 314 315 306
f 336 346 349 310
f 348 347 335 311
f 329 323 322 312
f 313 328 329 312
f 326 314 328 313
f 326 321 315 314
f 321 325 316 315
f 325 319 317 316
f 319 324 318 317
f 324 330 332 318
f 322 323 354 320
f 331 355 332 330
f 343 456 444 338
f 444 449 350 338
f 350 449 490 339
f 490 387 346 339
f 344 392 375 340
f 375 404 341 340
f 404 409 342 341
f 409 456 343 342
f 345 489 392 344
f 347 448 489 345
f 387 438 349 346
f 348 435 448 347
f 417 413 424 356
f 424 423 425 356
f 425 396 402 356
f 402 361 417 356
f 382 439 391 357
f 482 454 468 357
f 468 452 382 357
f 444 456 458 358
f 458 414 441 358
f 441 369 461 358
f 461 449 444 358
f 457 389 362 359
f 372 437 457 359
f 374 454 473 360
f 473 469 418 360
f 450 464 417 361
f 389 432 379 362
f 380 452 468 363
f 468 454 374 363
f 472 437 372 364
f 377 474 472 364
f 433 370 465 365
f 465 443 403 365
f 403 467 455 365
f 455 398 433 365
f 423 442 474 366
f 474 377 367 366
f 367 386 471 366
f 471 425 423 366
f 404 375 400 368
f 400 405 395 368
f 395 416 430 368
f 430 409 404 368
f 441 421 470 369
f 470 410 438 369
f 438 387 461 369
f 418 469 465 370
f 396 425 471 371
f 471 386 462 371
f 384 388 378 373
f 378 443 477 373
f 392 460 400 375
f 419 416 395 376
f 395 405 420 376
f 420 426 447 376
f 447 436 419 376
f 388 446 429 378
f 429 403 443 378
f 432 466 393 379
f 408 427 452 380
f 467 403 429 381
f 429 446 464 381
f 464 450 453 381
f 453 428 467 381
f 412 422 439 382
f 452 427 412 382
f 390 407 394 383
f 394 432 389 383
f 389 457 481 383
f 399 428 453 385
f 453 450 445 385
f 490 449 461 387
f 406 413 446 388
f 411 431 407 390
f 439 431 411 391
f 489 448 460 392
f 466 415 451 393
f 407 447 426 394
f 426 466 432 394
f 485 459 463 397
f 463 428 399 397
f 455 463 459 398
f 460 401 405 400
f 460 448 435 401
f 435 451 415 401
f 415 420 405 401
f 434 424 413 406
f 431 436 447 407
f 410 470 427 408
f 430 458 456 409
f 421 440 422 412
f 427 470 421 412
f 417 464 446 413
f 458 430 416 414
f 416 419 440 414
f 440 421 441 414
f 466 426 420 415
f 436 422 440 419
f 436 431 439 422
f 424 434 442 423
f 463 455 467 428
f 476 472 474 442
f 465 469 477 443
