v -0.786674192848101 0.000000000000000 -0.008319917152590
v 1.845246042137061 0.000000000000000 -0.687506728919846
v -1.844851001839535 0.000000000000000 0.662680541435373
v 1.828739296763033 0.000000000000000 -1.358207237131096
v -1.826620896411379 0.000000000000000 1.344185373653145
v 1.820499638824893 0.000000000000000 1.344014470850685
v -1.831228253866050 0.000000000000000 -1.355199547987987
v 0.765459319805821 0.000000000000000 1.345077337149378
v 0.788773263434098 0.000000000000000 0.673028086374142
v 0.780559570638377 0.000000000000000 -1.349753687113308
v -0.780060033254330 0.000000000000000 1.344683685257669
v 0.786323339506704 0.000000000000000 -0.005792783621853
v 0.768078851917733 0.000000000000000 -0.684864679770398
v -0.785633877136251 0.000000000000000 -0.679409750124231
v 2.494437433101606 0.000000000000000 -0.692076906330829
v 2.491491015965836 0.000000000000000 -0.022316039337440
v -2.497925728428058 0.000000000000000 -0.020317518746071
v -2.490703127715317 0.000000000000000 0.652686370693720
v 2.493179664842418 0.000000000000000 -1.352659479765240
v -2.483461993921493 0.000000000000000 1.330545655127462
v -2.495025961300878 0.000000000000000 -1.351916600807657
v 2.480550716399017 0.000000000000000 1.332164782743785
v -0.801377661132216 0.000000000000000 -1.346254234072591
v -0.781637297255789 0.000000000000000 0.672444043330577
v -1.841266537414483 0.000000000000000 -0.683201535350915
v 1.829581266465808 0.000000000000000 0.666051777900185
v 2.487860933621548 0.000000000000000 0.653889842814339
v 1.837601429545172 0.000000000000000 -0.012051894141976
v -1.838962128754937 0.000000000000000 -0.012832610591285
v 2.417729937641206 0.604784821479587 -0.709416558304502
v 2.420472167350303 0.599689938349622 -0.035340648187333
v -1.618494937401502 1.890414890951032 -1.382205818088301
v 1.611520677506657 1.893180467700761 -1.387712563317471
v -2.420039438202946 0.602814815827902 -0.036255121983707
v 2.131430532038174 1.301668747468567 -1.370469781521132
v 0.020793322968726 2.487125276455266 -0.775003752791634
v 0.893200954146219 2.324276835675585 -1.390305591001066
v 2.165636439680284 1.239488433934103 1.307723672846393
v 2.422094803129608 0.584925030804211 1.322311443830623
v 1.645907419303529 1.873070642605165 1.302655335761770
v 0.898332906801610 2.327820795421139 1.294529589839700
v -2.146513719718400 1.271873188519814 -0.072484824075934
v 2.143872113292597 1.273520370161915 -0.061173107695056
v -0.894041364118185 2.330700877287927 1.294952311235614
v 2.161237041855419 1.255076962235224 0.637146931674495
v -2.165017205289339 1.240429907801242 1.307371139415733
v 1.606064234092656 1.910492572077027 -0.782970334464519
v -2.419473383042277 0.594107046372723 0.639949160081071
v 1.606358837395833 1.905959681823998 -0.097935035351323
v -1.647052698864700 1.872685797846942 1.301306150031559
v -1.606806641782553 1.906037761563871 -0.099528642221895
v 0.871558258801787 2.333139199748148 0.587819829464500
v 0.858417959725724 2.341674686676799 -0.789525982044199
v 0.855546263533695 2.341748454764681 -0.122715976008412
v 0.004707386285672 2.498360651009067 0.579459726778967
v 1.621222367737067 1.886247776706494 0.609524952772875
v -0.862874698345815 2.341853582297797 -0.779629537870331
v 0.016061927493020 2.496362443593598 -0.135947333850696
v -1.620548447173333 1.888389961473036 0.606798492356105
v -0.853125540237002 2.341120999907259 -0.117632118052804
v 2.123127858143423 1.296519168784644 -0.748707802502619
v -0.866253291433941 2.334020666888669 0.588896604273815
v 0.002128116009850 2.492520175255090 1.292060538380089
v -2.499993247161428 0.000086424983115 -0.688866537134176
v -0.890657441411950 2.328212383245310 -1.379106439259343
v -2.413584545210924 0.621635778029963 -1.356623769901710
v 2.416790862796813 0.595028811252022 0.643553552137640
v 0.031176043421167 2.495908396915900 -1.374834273955819
v -2.123679073173987 1.296183583872697 -0.744880606243171
v -2.421759954594747 0.586103528656988 1.320099361410091
v -2.162047873751145 1.252715736258837 0.635247137038366
v -1.606694861513557 1.908373494780240 -0.778194959943496
v 2.416167148898459 0.609912828279020 -1.355775316941316
v -2.132060984079672 1.303592018908709 -1.371796622424654
v -2.417039572877707 0.624953523742810 -0.704026994745567
v 3.644597239337566 -4.999999999999974 -0.013617207425227
v -3.655460116092282 -4.999999999999989 -0.009668154368889
v 2.356387269050805 -5.000000000000004 1.001440899888195
v -0.776037548252231 -5.000000000000007 -1.001540521622839
v 0.770016549383954 -4.999999999999984 0.999480258474269
v -2.376542587504228 -5.000000000000014 -1.007883424595235
v 2.383242241555640 -5.000000000000015 -0.004712616467925
v 2.371243015995701 -4.999999999999977 -1.007745733911070
v -0.776025293125714 -5.000000000000012 0.999843176876120
v -0.785932564340684 -4.999999999999995 -0.001147952031502
v 4.423083286728561 -4.999999999999986 -0.013413705527688
v -4.420296939068312 -4.999999999999998 -0.012845102126479
v -2.372405900512712 -5.000000000000019 1.007612073348308
v 0.775098966169775 -4.999999999999989 -1.001570522195903
v 4.422470179622051 -5.000000000000071 -1.014423652183753
v -4.429072059010990 -5.000000000000000 1.004728927775079
v -2.398867167731231 -5.000000000000009 -0.004622619869521
v 4.428999564352979 -5.000000000000004 1.005102543649082
v -4.420707653760782 -5.000000000000010 -1.011329763601676
v -3.631751801580761 -5.000000000000012 -1.011083330550388
v 3.626315716877294 -5.000000000000039 -1.012144911601862
v 3.611663607503408 -4.999999999999988 1.005373231367712
v -3.619184825932898 -5.000000000000008 1.002717494711446
v 0.781952754676712 -5.000000000000009 -0.001403405586775
v -4.999999999999941 -3.542753247155961 -0.013634133969386
v -5.000000000000016 -3.504929322410831 -1.016828800072233
v -5.000000000000006 2.604787519386720 1.058446164642929
v -4.999999999999986 0.343945820427714 -1.102267396749782
v -5.000000000000004 -2.106452710668026 1.051393209839038
v -5.000000000000001 0.335814609632579 1.118491902175183
v -5.000000000000004 -0.788242642059304 1.109192622780588
v -5.000000000000033 -2.208001320391434 -0.007330052386131
v -4.999999999999967 -2.113041479513836 -1.050726551498663
v -5.000000000000006 1.424352553619584 1.099794641764741
v -5.000000000000012 0.326933362827052 -0.005223170702373
v -5.000000000000011 3.975933850163409 -0.008290498536081
v -4.999999999999989 2.610020695326561 -1.052664322778078
v -5.000000000000011 -4.397700919478541 -0.013414719457988
v -5.000000000000007 4.945804601192673 -0.012578004148952
v -5.000000000000012 -0.780136170007215 -1.110060980000791
v -4.999999999999990 -4.393707436048726 -1.015364060242818
v -5.000000000000016 4.925623659069378 0.985093971455285
v -4.999999999999996 2.687038671511104 0.000061679651141
v -5.000000000000014 -4.400863655551845 1.006339127959345
v -4.999999999999998 4.932445695668743 -0.999890365203120
v -5.000000000000020 1.423996092324877 -1.109389430610954
v -4.999999999999986 1.458883417796661 -0.009641075705101
v -4.999999999999971 3.921900576712758 -0.995993134165253
v -5.000000000000010 3.909453196977623 0.991213468830267
v -5.000000000000001 -3.499630657648579 1.011634506867555
v -5.000000000000041 -0.838439036576346 -0.006246621523075
v 5.000000000000030 -3.554620520661663 -0.008916497090789
v 5.000000000000082 -3.515037332717970 -1.015625088117316
v 4.999999999999989 3.978829176225279 -0.012178267899433
v 5.000000000000019 2.610574232303774 1.037971802798719
v 4.999999999999973 0.340460889829794 -1.114490812834287
v 5.000000000000091 -0.794147369817025 -1.087890911056109
v 4.999999999999996 0.331649370552728 1.120997598254277
v 4.999999999999998 1.414130109454440 1.105457440079794
v 5.000000000000007 2.616422790502906 -1.062641059062472
v 5.000000000000008 -2.136962871280350 -1.049592865376558
v 5.000000000000019 2.688433309270128 -0.007406553323930
v 5.000000000000007 -0.790645139759587 1.107132745745254
v 5.000000000000000 4.949684011180249 -0.014909523471248
v 5.000000000000016 -4.395118257011219 -0.013274607528658
v 5.000000000000000 -2.130277164645304 1.052255881876956
v 4.999999999999965 1.430229606500776 -1.103824851490025
v 5.000000000000007 4.933659024942718 -1.002637985960123
v 5.000000000000014 -4.401083281206578 1.005742065573143
v 5.000000000000026 0.321903609609428 0.000699931709564
v 5.000000000000048 4.930266816509776 0.984244178755549
v 4.999999999999982 -4.392328244450493 -1.012464071442039
v 5.000000000000015 1.455636314575775 -0.006639032447611
v 4.999999999999987 -0.846151789459874 0.000782188173265
v 5.000000000000007 3.920884080688285 -1.001397654338527
v 5.000000000000007 3.916004399014135 0.992538790072256
v 4.999999999999984 -3.508007161101508 1.009422907277152
v 5.000000000000022 -2.225802227565079 -0.005624743373790
v -3.408763798430790 1.269695181787132 1.999999999999999
v -2.021775178830310 -3.791511183275329 1.999999999999998
v 3.412970538908594 1.262325095494151 1.999999999999996
v -3.440326348893306 0.453228042556976 2.000000000000000
v 3.454094443048861 6.847694377162746 2.000000000000009
v 2.100462777814563 3.169888239741548 2.000000000000000
v -2.091414489517359 3.147917592027524 1.999999999999998
v -0.987285240858052 3.156611741026118 2.000000000000002
v 3.442361315277210 0.447501588901868 2.000000000000003
v 0.990887307646030 3.170276892425239 2.000000000000007
v -3.354383650611766 -4.040055362267467 2.000000000000000
v -3.452953091751262 6.848700587694067 1.999999999999999
v -3.848264413133807 -1.490058681994749 2.000000000000000
v -1.094612572090010 4.348092239221462 2.000000000000004
v -3.002147649670022 -2.589692537759404 1.999999999999998
v -4.129833314417665 -3.041093040952276 1.999999999999999
v 0.719637622898235 -1.023950956997785 2.000000000000003
v -2.317933621666173 4.465642870738439 2.000000000000000
v -2.095626969249223 8.233717055305021 2.000000000000002
v -0.681072264589302 -3.676985684221893 1.999999999999995
v 3.751636410563101 4.708249030459035 2.000000000000002
v 2.232735047820515 6.934950275535392 2.000000000000000
v -1.106458425807317 7.022246587504483 2.000000000000000
v 1.107675363588836 7.021594432995681 1.999999999999989
v 3.421690921586728 2.236549882737370 2.000000000000000
v 1.088785470373949 4.347508534814391 1.999999999999993
v -0.663281821596319 -2.283133993242714 2.000000000000000
v 2.084295350420083 8.222717213039857 2.000000000000004
v 0.001193538353100 7.053106876110245 2.000000000000011
v 2.318404087572761 4.477545816307352 2.000000000000000
v 2.354758640282707 5.728293444694165 2.000000000000001
v -1.143745580419187 5.695162670566240 1.999999999999996
v -1.058663476473669 8.460831406777253 2.000000000000004
v 0.000362241005025 3.212691245407548 2.000000000000005
v 1.142506084311066 5.697667232295190 2.000000000000021
v -1.850905805542632 -2.312039782389958 1.999999999999997
v 3.345024551242432 -4.058592670134788 1.999999999999999
v 0.001780923357956 4.326176870088720 2.000000000000008
v -4.340061300605012 -4.281659301468276 2.000000000000000
v 4.340947658665046 -4.285215229708091 2.000000000000000
v 2.980238341748093 -2.569381767549241 2.000000000000016
v 0.000726854761284 5.689645214419050 2.000000000000002
v 3.092468357824568 7.931610399546470 1.999999999999995
v 1.846276029530402 -2.304348170558986 2.000000000000003
v 2.730494828352318 -1.077419953891591 2.000000000000002
v 1.059223388490803 8.454788917303384 1.999999999999998
v -2.729026539772373 -1.083188841949114 1.999999999999999
v -3.692892322551632 5.783368015685199 2.000000000000003
v 1.830616154118020 -0.956131347798643 2.000000000000000
v -3.748679665424395 4.695310206433771 1.999999999999997
v -2.239251373960669 6.932896570609943 1.999999999999997
v -2.356915057999716 5.723555817784293 2.000000000000000
v 0.659939568455625 -2.276437085485036 1.999999999999998
v 2.025741852118265 -3.774515301508269 1.999999999999999
v 4.125668906329169 -3.033747215329372 1.999999999999996
v 3.836585387984305 -1.480595743887815 1.999999999999998
v -3.096038839095924 7.920627545490566 2.000000000000004
v -0.712546241939191 -1.025726768279846 2.000000000000000
v -3.565874931269878 -0.355715541357870 2.000000000000000
v 3.558738018497010 -0.362226223237804 2.000000000000003
v 0.673002734479255 -3.680050510748314 2.000000000000006
v 0.003364192866211 8.540235535232338 2.000000000000007
v -1.834466066302029 -0.967153205866998 2.000000000000000
v 3.701712241975216 5.787774189369111 2.000000000000000
v 3.604083883049734 3.475308493873740 2.000000000000000
v -3.409887561077302 2.246920576953816 2.000000000000003
v -3.597913456153871 3.455906126891529 1.999999999999998
v -2.827737700209266 9.102348116808908 -1.059148717239651
v -1.967995249292547 9.568675926542397 -1.064935725287022
v -3.557807198421683 8.479012538993571 -1.048943482639194
v 1.007141477217632 9.873074844389258 -1.069636615774009
v 1.965397252019825 9.571806732050256 -1.066544564085096
v -0.001720230864272 9.975923629999981 -1.070358521690466
v -1.010812346863618 9.872344663039680 -1.069179509069174
v 2.823141152698827 9.098129858920707 -1.060045087226282
v 3.556668575083185 8.481412399690436 -1.051571727312125
v -4.914698756191522 5.896509662904324 -0.018941746428700
v 4.914262606024701 5.898165105245536 -0.021365721080226
v -1.014563405303562 9.879983871102924 0.866659523941621
v -0.000217080398904 9.984218197369941 0.865228179233405
v 1.013488773708428 9.880250720879181 0.866240143701859
v 1.976627341472561 9.576016524360780 0.869195432861142
v 2.837883070344950 9.097903271801945 0.875905093033875
v -3.588235803427727 8.460942787198794 0.891217051341376
v -2.836977242535269 9.103344696233936 -0.123241793280288
v -1.980670973584706 9.574219640123506 0.869642814582418
v -2.841871557743347 9.094956897211931 0.878067060816493
v 3.585935615628360 8.462889760473846 0.886652116922177
v 4.167995035436898 7.725044691394428 -1.035976454838341
v -4.168454267338382 7.724364783279119 -1.033817592573147
v -3.582348065250796 8.466909488445587 -0.101618701339754
v 3.580544206999739 8.468164135629992 -0.107016079985019
v -4.200382046389413 7.686472464817530 0.922278472206534
v 4.201060616822936 7.685979491216578 0.915269151630294
v -4.909918485714961 5.896690731454146 -1.010624036863662
v 4.909839279748364 5.896924817393941 -1.012253606657380
v 2.832694763014838 9.104318415356920 -0.127355933943466
v -1.969922510346555 9.578299171860841 -0.135125292925929
v -0.001156975731366 9.985442444788582 -0.142026421956151
v -1.010314314390195 9.881966018910223 -0.140359285465308
v 1.967388602761084 9.580993840286531 -0.136561127289283
v 1.007922713094543 9.882877647668112 -0.140994950666357
v -4.632390894192220 6.831558871616343 -0.038425105420590
v 4.632136169141278 6.832615557539826 -0.042129491684815
v 4.646695977337879 6.814788443388328 0.957541288486908
v -4.645596167695976 6.814790217240715 0.961750890540964
v 4.623316055905043 6.845573013417415 -1.023188627748072
v -4.623382859269923 6.845407893392735 -1.021571675857482
v -4.195533834910464 7.706316763849946 -0.069364254960330
v 4.195061342097234 7.706832471268275 -0.074523400208248
v -4.913774329663687 5.877437078427104 0.982302313715317
v 4.913840635996950 5.879443097585368 0.980414955422859
v 3.372275027251227 1.284595293890145 -2.000000000000007
v -2.082587048621441 3.145517929628042 -1.999999999999984
v 2.020456901915490 -3.791821493625852 -1.999999999999971
v 3.424066889404321 0.469111005199109 -2.000000000000011
v -2.101522467024410 8.304440668827372 -2.000000000000002
v 3.354287448166181 -4.041578488649423 -1.999999999999979
v 3.846693353584570 -1.490379718952205 -2.000000000000007
v 1.139556206625365 5.709066820992312 -2.000000000000000
v 3.681443941956582 5.818381082439933 -2.000000000000004
v -1.075839236948148 4.338281227187824 -2.000000000000000
v 2.070596194552264 3.139806962589195 -1.999999999999997
v 3.001329285500509 -2.591152292048694 -1.999999999999958
v -2.300152663170415 4.472408759826904 -2.000000000000003
v 4.130388862153325 -3.046703397267196 -2.000000000000027
v -0.723807189275978 -1.022675971981185 -1.999999999999998
v 0.981501724630280 3.132895628524672 -2.000000000000004
v -0.961493134095167 3.142367929112073 -2.000000000000007
v -3.425968459217997 6.922035258590594 -2.000000000000021
v 1.111113093169460 7.080392126945583 -2.000000000000020
v 2.087761214725871 8.288520151132019 -1.999999999999996
v 0.678365191270030 -3.676688588853454 -2.000000000000014
v 0.005199708868156 5.707859511927182 -2.000000000000006
v 0.035051318461402 3.197196698060821 -2.000000000000018
v -0.000786332391225 8.622435324272786 -1.999999999999979
v 0.660995802617901 -2.282675087740559 -2.000000000000011
v 1.086382234295870 4.318133180527365 -2.000000000000005
v -1.110091046916001 7.086363503194905 -1.999999999999992
v 3.446295961173684 6.915422586152087 -2.000000000000001
v 0.000173843098518 7.110166284835209 -2.000000000000027
v -3.423069110362002 0.464141866984581 -2.000000000000005
v 2.343163623453096 5.751764792891334 -1.999999999999999
v 2.297959716864904 4.460651411279666 -2.000000000000003
v 1.849421413970014 -2.311722835932198 -2.000000000000000
v -3.348235008958772 -4.058567550962135 -2.000000000000008
v 0.021478117433381 4.297269517833654 -2.000000000000022
v -4.342064821049505 -4.284759013685048 -2.000000000000000
v 4.339654449396212 -4.283426360924961 -2.000000000000000
v -2.979724280835143 -2.565898688549467 -2.000000000000000
v -1.847696075370270 -2.301769361903039 -2.000000000000004
v -3.060033719064036 7.954715132434830 -1.999999999999999
v -1.136828872610542 5.725988214487371 -2.000000000000021
v -2.339620511430468 5.762858429747151 -2.000000000000012
v 3.055496357289213 7.953691032315525 -2.000000000000000
v -2.239529887317016 7.006103343161630 -1.999999999999972
v 3.562071874977191 3.449238535003278 -2.000000000000011
v -2.727016941576877 -1.070393195810627 -2.000000000000000
v 2.726958578564894 -1.080754752256979 -1.999999999999989
v -1.832467495601537 -0.953356212948304 -2.000000000000003
v 1.066388983446402 8.534612673604043 -1.999999999999993
v -0.662794995981472 -2.274973162964045 -2.000000000000011
v -2.029983491472969 -3.773968490685625 -1.999999999999998
v -3.375226836632889 2.253746179544805 -1.999999999999993
v -4.124649905519087 -3.031885387521264 -2.000000000000004
v -3.837013562733763 -1.472787039552541 -1.999999999999993
v 0.710795165164774 -1.025323304139635 -2.000000000000011
v -1.073092785768659 8.532093097318816 -2.000000000000034
v -3.678624901106963 5.829080325373370 -2.000000000000025
v 3.557956299179855 -0.348201669672655 -2.000000000000026
v -3.554699332376062 -0.345623774748786 -1.999999999999997
v 3.732391411826075 4.710711708877970 -2.000000000000011
v -0.676629198641753 -3.679455915681418 -2.000000000000007
v 1.833690540268486 -0.966445373563993 -2.000000000000004
v 2.232356782235322 6.991118513171615 -2.000000000000002
v -3.727950091316350 4.709135320661513 -2.000000000000047
v -3.566963090331448 3.452577787366967 -1.999999999999987
v 3.377196820214543 2.243827509454586 -1.999999999999984
v -3.365251269608237 1.281422300547433 -2.000000000000010
v 1.861948982082534 0.000000000000000 -2.000000000000000
v -1.860638231812943 0.000000000000000 2.000000000000000
v 0.763298073088607 0.000000000000000 2.000000000000000
v 1.853965642624375 0.000000000000000 2.000000000000000
v -1.860893383247100 0.000000000000000 -2.000000000000000
v 0.761275343990758 0.000000000000000 -2.000000000000000
v -0.761724818818889 0.000000000000000 2.000000000000000
v -0.774895119155607 0.000000000000000 -2.000000000000000
v 0.000144358643779 2.486304740000000 2.000000000000000
v -2.441583400043039 0.531430108486850 2.000000000000000
v 2.432633294019583 0.558975702027962 -2.000000000000000
v 2.160125468278544 1.231162415516838 2.000000000000000
v -2.129543861412960 1.284131313685024 -2.000000000000000
v -2.159165963302119 1.232824326926905 2.000000000000000
v -0.932254054428290 2.306533119963063 2.000000000000000
v 0.037868325607985 2.486304740000000 -2.000000000000000
v 0.933531989953679 2.305964146407760 2.000000000000000
v 2.442686423113947 0.528035352592553 2.000000000000000
v -2.430869773098625 0.564403261250466 -2.000000000000000
v -0.928475255030206 2.308215549855326 -2.000000000000000
v 2.130519005354391 1.282442314792323 -2.000000000000000
v 0.940921609463626 2.302674075820182 -2.000000000000000
v 3.537585193156605 -5.000000000000000 -2.000000000000000
v -5.000000000000000 -5.000000000000000 -0.011035485850460
v 2.252217776094064 -5.000000000000000 -2.000000000000000
v 0.740856111364328 -5.000000000000000 -2.000000000000000
v -2.256904751507929 -5.000000000000000 -2.000000000000000
v -2.252576797451451 -5.000000000000000 2.000000000000000
v -0.743718711554412 -5.000000000000000 2.000000000000000
v 0.736050209680993 -5.000000000000000 2.000000000000000
v -3.538120236049664 -5.000000000000000 2.000000000000000
v -3.538473548158475 -5.000000000000000 -2.000000000000000
v 5.000000000000000 -5.000000000000000 -0.011633755194486
v 3.532967246429212 -5.000000000000000 2.000000000000000
v -5.000000000000000 -5.000000000000000 1.003540742084336
v -4.368638798984279 -5.000000000000000 2.000000000000000
v 4.367771127040572 -5.000000000000000 -2.000000000000000
v -5.000000000000000 -5.000000000000000 -1.011269403263285
v -4.368154656783508 -5.000000000000000 -2.000000000000000
v 5.000000000000000 -5.000000000000000 -1.011796497402891
v 4.366151603682729 -5.000000000000000 2.000000000000000
v 5.000000000000000 -5.000000000000000 1.003067534774480
v -0.741646599955171 -5.000000000000000 -2.000000000000000
v 2.247993541937553 -5.000000000000000 2.000000000000000
v -5.000000000000000 -3.342172655870085 -2.000000000000000
v -5.000000000000000 -0.656731913226379 -2.000000000000000
v -5.000000000000000 1.388661876673122 -2.000000000000000
v -5.000000000000000 2.487982204620023 -2.000000000000000
v -5.000000000000000 2.487119277132848 2.000000000000000
v -5.000000000000000 0.370857297581123 2.000000000000000
v -5.000000000000000 -0.672715897486728 2.000000000000000
v -5.000000000000000 -1.851022319736702 -2.000000000000000
v -5.000000000000000 3.768163945045299 2.000000000000000
v -5.000000000000000 1.389511606034065 2.000000000000000
v -5.000000000000000 -1.858556811139282 2.000000000000000
v -5.000000000000000 3.781331086658163 -2.000000000000000
v -5.000000000000000 -3.342986342781874 2.000000000000000
v -5.000000000000000 4.851021193240165 2.000000000000000
v -5.000000000000000 -4.322761543924209 -2.000000000000000
v -5.000000000000000 4.874574687058451 -2.000000000000000
v -5.000000000000000 -4.320139342057195 2.000000000000000
v -5.000000000000000 0.379370912723922 -2.000000000000000
v 5.000000000000000 3.776599136680826 -2.000000000000000
v 5.000000000000000 2.495104361175112 -2.000000000000000
v 5.000000000000000 0.374975136441456 -2.000000000000000
v 5.000000000000000 -1.868651604615240 -2.000000000000000
v 5.000000000000000 -0.673964526746789 2.000000000000000
v 5.000000000000000 0.366535016732587 2.000000000000000
v 5.000000000000000 1.396650142652021 -2.000000000000000
v 5.000000000000000 -3.341664763734407 2.000000000000000
v 5.000000000000000 -1.866019492554328 2.000000000000000
v 5.000000000000000 1.381760518172193 2.000000000000000
v 5.000000000000000 -3.350862622264511 -2.000000000000000
v 5.000000000000000 3.781521727235808 2.000000000000000
v 5.000000000000000 -4.323749052861214 2.000000000000000
v 5.000000000000000 4.872237143831875 -2.000000000000000
v 5.000000000000000 -4.323010470540847 -2.000000000000000
v 5.000000000000000 4.856818708522801 2.000000000000000
v 5.000000000000000 -0.673823738561470 -2.000000000000000
v 5.000000000000000 2.487919133537139 2.000000000000000
v 4.176637642757474 7.741762898580071 2.000000000000000
v 4.654552119717742 6.797528437672318 2.000000000000000
v -4.653461676003612 6.801123148836004 2.000000000000000
v 0.001958876907200 9.999807067460340 2.000000000000000
v 2.869412873226000 9.082205312701799 2.000000000000000
v -2.011068008778589 9.567202194416911 2.000000000000000
v 4.917136566915489 5.841326537284059 2.000000000000000
v -4.917308670466133 5.839579140646872 2.000000000000000
v -4.178583401638992 7.738122639715127 2.000000000000000
v 1.029660199940666 9.887482403956655 2.000000000000000
v 2.008338451850085 9.568661172976757 2.000000000000000
v -2.875575348770077 9.077147899763588 2.000000000000000
v -1.028869873006825 9.887722147011901 2.000000000000000
v 4.635566454116385 6.860115789227361 -2.000000000000000
v -4.633903080659804 6.865599196629566 -2.000000000000000
v -1.024456633507212 9.889060888583106 -2.000000000000000
v 1.992685627571552 9.577027781778702 -2.000000000000000
v 4.150377176955670 7.786345215632844 -2.000000000000000
v -4.152609942911514 7.783624582422418 -2.000000000000000
v 4.913961039808622 5.873568204391271 -2.000000000000000
v -4.913739645091767 5.875816062627055 -2.000000000000000
v -1.996892050347521 9.574779401985007 -2.000000000000000
v -2.861825810440673 9.088431854165387 -2.000000000000000
v 1.019647869663013 9.890519611152978 -2.000000000000000
v -0.002019173303234 9.999801128783554 -2.000000000000000
v 2.856634757232630 9.092692041401754 -2.000000000000000
v -2.500000000000000 0.000000000000000 2.000000000000000
v 2.500000000000000 0.000000000000000 -2.000000000000000
v -2.500000000000000 0.000000000000000 -2.000000000000000
v 2.500000000000000 0.000000000000000 2.000000000000000
v 1.672826520000000 1.857862060000000 2.000000000000000
v -1.672826520000000 1.857862060000000 2.000000000000000
v 1.672826520000000 1.857862060000000 -2.000000000000000
v -1.672826520000000 1.857862060000000 -2.000000000000000
v -5.000000000000000 -5.000000000000000 2.000000000000000
v 5.000000000000000 -5.000000000000000 -2.000000000000000
v -5.000000000000000 -5.000000000000000 -2.000000000000000
v 5.000000000000000 -5.000000000000000 2.000000000000000
v -3.535533910000000 8.535533910000000 2.000000000000000
v 3.535533910000000 8.535533910000000 2.000000000000000
v 3.535533910000000 8.535533910000000 -2.000000000000000
v -3.535533910000000 8.535533910000000 -2.000000000000000
f 29 3 24 1
f 24 9 12 1
f 12 13 14 1
f 14 25 29 1
f 13 12 28 2
f 28 16 15 2
f 15 19 4 2
f 4 10 13 2
f 18 20 5 3
f 5 11 24 3
f 29 17 18 3
f 19 440 333 4
f 333 338 10 4
f 20 439 334 5
f 334 339 11 5
f 8 335 336 6
f 336 442 22 6
f 22 27 26 6
f 26 9 8 6
f 21 64 25 7
f 25 14 23 7
f 23 340 337 7
f 337 441 21 7
f 11 339 335 8
f 9 24 11 8
f 26 28 12 9
f 23 14 13 10
f 338 340 23 10
f 16 31 30 15
f 30 73 19 15
f 28 26 27 16
f 27 67 31 16
f 34 48 18 17
f 29 25 64 17
f 64 75 34 17
f 48 70 20 18
f 73 343 440 19
f 70 342 439 20
f 66 75 64 21
f 441 351 66 21
f 442 350 39 22
f 39 67 27 22
f 31 43 61 30
f 61 35 73 30
f 67 45 43 31
f 65 57 72 32
f 72 69 74 32
f 74 345 446 32
f 446 352 65 32
f 35 61 47 33
f 47 53 37 33
f 37 354 445 33
f 445 353 35 33
f 42 71 48 34
f 75 69 42 34
f 353 343 73 35
f 53 54 58 36
f 58 60 57 36
f 57 65 68 36
f 68 37 53 36
f 68 348 354 37
f 39 350 344 38
f 344 443 40 38
f 40 56 45 38
f 45 67 39 38
f 443 349 41 40
f 41 52 56 40
f 349 341 63 41
f 63 55 52 41
f 51 59 71 42
f 69 72 51 42
f 45 56 49 43
f 49 47 61 43
f 63 341 347 44
f 347 444 50 44
f 50 59 62 44
f 62 55 63 44
f 50 444 346 46
f 346 342 70 46
f 70 48 71 46
f 71 59 50 46
f 49 54 53 47
f 56 52 54 49
f 60 62 59 51
f 72 57 60 51
f 55 58 54 52
f 62 60 58 55
f 352 348 68 65
f 74 69 75 66
f 351 345 74 66
f 82 83 96 76
f 96 90 86 76
f 86 93 97 76
f 97 78 82 76
f 87 94 95 77
f 95 81 92 77
f 92 88 98 77
f 98 91 87 77
f 80 99 82 78
f 97 366 376 78
f 376 362 80 78
f 81 359 375 79
f 375 358 89 79
f 89 99 85 79
f 85 92 81 79
f 84 85 99 80
f 362 361 84 80
f 95 364 359 81
f 99 89 83 82
f 89 358 357 83
f 357 355 96 83
f 88 92 85 84
f 361 360 88 84
f 90 372 365 86
f 365 374 93 86
f 356 370 94 87
f 91 367 356 87
f 360 363 98 88
f 96 355 369 90
f 369 448 372 90
f 98 363 368 91
f 368 447 367 91
f 374 450 373 93
f 373 366 97 93
f 370 449 371 94
f 371 364 95 94
f 125 104 107 100
f 107 108 101 100
f 101 116 113 100
f 113 119 125 100
f 108 384 377 101
f 377 391 116 101
f 124 111 118 102
f 118 122 109 102
f 109 386 381 102
f 381 385 124 102
f 110 122 121 103
f 121 379 394 103
f 394 378 115 103
f 115 126 110 103
f 125 389 387 104
f 387 383 106 104
f 106 126 107 104
f 110 126 106 105
f 106 383 382 105
f 382 386 109 105
f 109 122 110 105
f 126 115 108 107
f 115 378 384 108
f 114 120 123 111
f 123 112 118 111
f 124 117 114 111
f 123 388 380 112
f 380 379 121 112
f 121 122 118 112
f 116 370 356 113
f 356 367 119 113
f 230 248 120 114
f 117 264 230 114
f 391 449 370 116
f 124 385 390 117
f 390 420 264 117
f 367 447 393 119
f 393 389 125 119
f 248 433 392 120
f 392 388 123 120
f 128 136 153 127
f 153 141 152 127
f 152 144 140 127
f 140 147 128 127
f 405 398 136 128
f 147 409 405 128
f 150 143 139 129
f 139 146 151 129
f 151 130 137 129
f 137 135 150 129
f 412 404 134 130
f 134 148 137 130
f 151 406 412 130
f 397 401 142 131
f 142 148 145 131
f 145 149 132 131
f 132 411 397 131
f 149 153 136 132
f 136 398 411 132
f 400 399 138 133
f 138 149 145 133
f 145 148 134 133
f 134 404 400 133
f 396 395 150 135
f 137 148 142 135
f 142 401 396 135
f 399 403 141 138
f 141 153 149 138
f 143 249 231 139
f 231 265 146 139
f 144 374 365 140
f 365 372 147 140
f 403 402 152 141
f 408 432 249 143
f 150 395 408 143
f 407 450 374 144
f 152 402 407 144
f 410 406 151 146
f 265 419 410 146
f 372 448 409 147
f 219 381 386 154
f 386 382 157 154
f 157 342 346 154
f 346 444 219 154
f 164 363 360 155
f 360 361 173 155
f 173 180 189 155
f 189 168 164 155
f 162 400 404 156
f 404 412 178 156
f 178 443 344 156
f 344 350 162 156
f 382 383 212 157
f 212 439 342 157
f 217 419 414 158
f 414 413 196 158
f 196 181 175 158
f 175 184 217 158
f 443 178 218 159
f 218 174 183 159
f 183 179 163 159
f 163 349 443 159
f 171 203 220 160
f 220 219 444 160
f 444 347 161 160
f 161 167 171 160
f 347 341 187 161
f 187 191 167 161
f 350 442 213 162
f 213 399 400 162
f 179 191 187 163
f 187 341 349 163
f 192 368 363 164
f 168 169 192 164
f 210 421 415 165
f 415 420 201 165
f 201 205 204 165
f 204 172 210 165
f 387 389 169 166
f 169 168 200 166
f 200 439 212 166
f 212 383 387 166
f 185 205 171 167
f 191 195 185 167
f 189 216 200 168
f 389 393 192 169
f 211 180 206 170
f 206 197 202 170
f 202 336 335 170
f 335 339 211 170
f 205 201 203 171
f 418 424 210 172
f 204 176 186 172
f 186 425 418 172
f 361 362 214 173
f 214 206 180 173
f 218 406 410 174
f 410 419 217 174
f 217 184 183 174
f 181 199 177 175
f 177 188 184 175
f 204 205 185 176
f 185 195 182 176
f 182 215 186 176
f 199 215 182 177
f 182 195 188 177
f 412 406 218 178
f 183 184 188 179
f 188 195 191 179
f 211 216 189 180
f 196 417 423 181
f 423 422 199 181
f 215 416 425 186
f 207 376 366 190
f 366 373 193 190
f 193 208 194 190
f 194 197 207 190
f 393 447 368 192
f 373 450 407 193
f 407 402 208 193
f 208 209 198 194
f 198 202 197 194
f 413 452 417 196
f 206 214 207 197
f 209 213 442 198
f 442 336 202 198
f 422 416 215 199
f 216 334 439 200
f 420 390 203 201
f 390 385 220 203
f 214 362 376 207
f 402 403 209 208
f 403 399 213 209
f 424 451 421 210
f 339 334 216 211
f 220 385 381 219
f 238 251 222 221
f 222 434 435 221
f 435 454 223 221
f 223 244 238 221
f 251 253 227 222
f 227 428 434 222
f 454 431 243 223
f 243 262 244 223
f 226 252 255 224
f 255 254 225 224
f 225 429 436 224
f 436 437 226 224
f 254 250 228 225
f 228 438 429 225
f 437 428 227 226
f 227 253 252 226
f 250 245 229 228
f 229 453 438 228
f 245 263 242 229
f 242 430 453 229
f 256 261 248 230
f 264 259 256 230
f 249 260 257 231
f 257 258 265 231
f 253 251 239 232
f 239 418 425 232
f 425 416 233 232
f 233 252 253 232
f 416 422 234 233
f 234 255 252 233
f 422 423 235 234
f 235 254 255 234
f 423 417 236 235
f 236 250 254 235
f 417 452 241 236
f 241 245 250 236
f 240 238 244 237
f 244 262 246 237
f 246 421 451 237
f 451 424 240 237
f 240 239 251 238
f 240 424 418 239
f 452 413 247 241
f 247 263 245 241
f 263 257 260 242
f 260 426 430 242
f 431 427 261 243
f 261 256 262 243
f 262 256 259 246
f 259 415 421 246
f 413 414 258 247
f 258 257 263 247
f 261 427 433 248
f 432 426 260 249
f 414 419 265 258
f 264 420 415 259
f 353 445 331 266
f 331 396 401 266
f 401 397 269 266
f 269 343 353 266
f 278 275 282 267
f 282 352 446 267
f 446 317 330 267
f 330 329 278 267
f 286 290 298 268
f 298 277 271 268
f 271 355 357 268
f 357 358 286 268
f 397 411 323 269
f 323 440 343 269
f 434 428 321 270
f 321 292 309 270
f 309 283 305 270
f 305 435 434 270
f 277 279 302 271
f 302 369 355 271
f 312 440 323 272
f 323 411 398 272
f 398 405 279 272
f 279 277 312 272
f 287 294 284 273
f 284 328 296 273
f 296 297 291 273
f 291 300 287 273
f 296 328 293 274
f 293 426 432 274
f 432 408 325 274
f 325 297 296 274
f 306 287 300 275
f 300 288 282 275
f 278 307 306 275
f 281 291 297 276
f 297 325 310 276
f 310 331 445 276
f 445 354 281 276
f 298 327 312 277
f 329 322 307 278
f 405 409 302 279
f 313 337 340 280
f 340 338 320 280
f 320 290 315 280
f 315 304 313 280
f 288 300 291 281
f 354 348 288 281
f 288 348 352 282
f 309 307 322 283
f 322 433 427 283
f 427 431 305 283
f 314 285 328 284
f 294 289 314 284
f 314 436 429 285
f 429 438 308 285
f 308 293 328 285
f 326 315 290 286
f 358 375 326 286
f 306 292 294 287
f 437 436 314 289
f 294 292 321 289
f 321 428 437 289
f 320 327 298 290
f 306 307 309 292
f 308 430 426 293
f 394 379 332 295
f 332 345 351 295
f 351 441 324 295
f 324 378 394 295
f 301 318 303 299
f 303 304 316 299
f 316 359 364 299
f 364 371 301 299
f 391 377 318 301
f 371 449 391 301
f 409 448 369 302
f 318 319 311 303
f 311 313 304 303
f 315 326 316 304
f 431 454 435 305
f 438 453 430 308
f 325 408 395 310
f 395 396 331 310
f 319 324 441 311
f 441 337 313 311
f 327 333 440 312
f 326 375 359 316
f 446 345 332 317
f 332 379 380 317
f 380 388 330 317
f 377 384 319 318
f 384 378 324 319
f 338 333 327 320
f 329 392 433 322
f 330 388 392 329
