v 0.585723835896544 -2.422245176560423 3.382291121032399
v -2.490066193297293 -0.100367968322642 4.352538946613932
v -0.321565186218009 -2.474935714729684 3.399668929206795
v -1.238796128322426 -2.170271494341810 3.293396545160631
v -1.104375403112946 -2.236431853455660 2.780507764711276
v -0.776632975971509 -2.373353257950884 3.363484745652977
v -2.129170522761075 -1.304217823166429 3.743409841506768
v -1.743728384053239 -1.782359617735303 4.402553354670127
v 2.497344073549852 -0.036525838244035 0.268108584135501
v -2.496365148057242 -0.049988588387090 0.460086826948940
v 1.028024069168858 -2.268576990215847 3.328534308167076
v 2.356609906631975 -0.825705137512364 3.701371274312136
v -0.324730510073178 -2.465420327970711 4.451895409123721
v -1.613530329957175 -1.898894098527674 2.602991255152973
v -2.130125901917223 -1.301691929703802 4.378428175200786
v 2.369055279234275 -0.771867001196182 4.356639928600337
v 1.265425828542656 -2.147495662304157 2.726063930489517
v -2.322644830416624 -0.908695300364648 1.396817245266700
v 2.381280384157964 -0.734056221053098 1.410363100339199
v 0.869271882989391 -2.337119104873564 2.832850523666273
v 2.335170793027546 -0.889310046759137 2.267862976014477
v -2.450245840267281 -0.469583008376265 0.915152150249035
v 1.611461994244876 -1.904113571497218 3.812817557099941
v 1.667647151398225 -1.850318134090980 4.405553141409435
v 2.412028688706020 -0.639155969452510 0.762638429488492
v 2.080760287460386 -1.374058730296961 4.378958960649342
v -0.828272740789535 -2.347314331372650 4.441191095916726
v -0.305160511318793 -2.477854478686001 2.918697793774947
v -0.816886620356791 -2.354256531849834 3.891257842041287
v -2.385271328765060 -0.723169946883349 4.359139628302607
v -1.303269466052995 -2.125472821373956 4.424703250632977
v -2.486861420660895 -0.138622141103154 1.554972151875123
v 0.134588957475161 -2.492078417890798 3.404387040562220
v 2.486390426067503 -0.174130320644644 1.471768735775395
v 1.492289122723175 -1.993737685009982 3.242168985676838
v -2.485624465174476 -0.154801917817654 3.007629696632919
v 2.487589434784058 -0.141484315757554 3.680891200465013
v -2.486068508945795 -0.160262616271640 2.283985674471587
v 2.481060618941612 -0.206488119885170 2.240929428025190
v -2.120629866722857 -1.306916843276580 3.093774471004427
v -1.711326575106535 -1.811944408226491 3.194577252361435
v 2.037567501612438 -1.429936588699255 3.754369132735637
v -1.294722771412879 -2.126765250752586 3.850551230999657
v -0.328608286297935 -2.474248253787039 3.915167072466315
v 2.489815946215876 -0.104287446057491 4.347222378613418
v 0.190254774785540 -2.483749864787706 4.453425654708857
v 0.498190985394643 -2.445869831114639 2.896283606866444
v 0.104644727168066 -2.494865818966746 2.926527632615850
v 2.492303896782285 -0.112619194179453 0.822860410493058
v 2.484818014056950 -0.182889822394998 2.985309405931107
v -2.440639774135646 -0.534906891239400 1.513566460431517
v -2.156968185588751 -1.255402736772863 2.363651854458268
v -0.711028442752904 -2.392548219293305 2.869372985170919
v 0.704482044388938 -2.389870860400861 4.444829697590889
v 1.975082272384324 -1.531332141994735 3.121839464227714
v 1.851566571876530 -1.675355542742601 2.486277866537349
v -1.744523908985005 -1.779365894576587 3.798235110804483
v -2.396368156123204 -0.680757386940604 2.292208391609201
v -2.490384477196861 -0.130137991532926 3.692603981334702
v 0.163710354583298 -2.492174410347824 3.918776669451678
v -2.385134009262935 -0.734431694990924 3.028913733463412
v -2.386991263967698 -0.736194094836733 3.708583534052634
v -2.493707437057036 -0.093943020020240 0.953283442606020
v 1.203231059657008 -2.183063843807506 4.428106988983139
v 1.140745249278110 -2.221530960839754 3.865469478826349
v 2.330272851053942 -0.883486213253247 3.025764958646555
v 0.654842943521933 -2.407874633433447 3.901045438048141
v -1.174392622244670 -2.198125567651821 -3.864200975193853
v -0.119177553351136 -2.492301366513365 -3.919322221994249
v -0.154570844490887 -2.491750888867506 -2.926193359950195
v 1.161304204027123 -2.206626505839589 -2.762943438596926
v -2.097680840048422 -1.342741947881726 -2.390213114873060
v 2.468809827896793 -0.333289879380692 -4.349046292131115
v 0.361280649159049 -2.470312444330834 -3.396101144601267
v 2.283273637922921 -0.991508045453336 -3.715028036217937
v 1.572709759011777 -1.938845991676750 -4.407554770043722
v 0.854808990960583 -2.347653467390518 -3.351045624783003
v -1.134633575012773 -2.222428693349082 -3.315016371144360
v 1.996652845607926 -1.491020239512594 -4.382420797796517
v 1.768586751877814 -1.760400773300467 -2.519135669865302
v -1.663628708891073 -1.853946409970356 -4.407034138365488
v -1.023078050627922 -2.278905289018259 -2.797606203969306
v -2.335632673763222 -0.881314103508190 -4.364154373743030
v -2.315372449042364 -0.927292512148954 -1.353228472875063
v 2.346394948133899 -0.843088361449584 -1.394834905553298
v -0.655474239280390 -2.405035888584069 -4.446163135749413
v -2.411243481770873 -0.630856164811753 -1.497127310917709
v 0.482932290238538 -2.445857339181140 -4.450054009363130
v -1.652342668030070 -1.863499492054285 -3.811310101323814
v -2.367260679707960 -0.778002417412627 -2.294659110185751
v 2.467392461143249 -0.384735959339863 -0.809599906357613
v -0.091412208135158 -2.493934028557294 -4.453981536681890
v -2.055160078078147 -1.410683589960510 -4.384669692428861
v -2.415303100670828 -0.630349124116552 -0.890365629490381
v 0.300395212398582 -2.475412292532601 -2.915885229479877
v 0.966764977000201 -2.296348495057791 -3.879553191968721
v 2.307988208708402 -0.948334115914917 -4.361327168405028
v 2.472039137856863 -0.347246799220875 -1.470882579479353
v -2.477272118765086 -0.255177752981654 -1.551672124312823
v 1.363426249148516 -2.085010779039440 -3.267730914150322
v -2.052765239950389 -1.408983069095228 -3.110886560904335
v 1.944012942693649 -1.561330110402038 -3.768554695498503
v 2.466314693394914 -0.367155384775621 -2.988380092841700
v -2.473299286141791 -0.304447780346010 -3.695349876971559
v -2.474458195109829 -0.278471574862293 -2.284626425399281
v 2.468033971386236 -0.367725131324748 -2.244662945166926
v -1.626556219467069 -1.894506492587541 -3.217185335952824
v -1.537395116551586 -1.963224618278290 -2.637055019399330
v 0.426786573815631 -2.455148789024857 -3.911255600373156
v 1.869346574789008 -1.649514162440524 -3.151655853536139
v -2.050072827270816 -1.411422230850605 -3.758699998125569
v -1.188623174659993 -2.188673308255659 -4.429018061871274
v 1.048425991333094 -2.267765427879421 -4.434727765253127
v -2.475180453453214 -0.298339461579975 -3.008896724988944
v -2.338361916131820 -0.879462910099235 -3.714385141793444
v 2.273810123010328 -1.025863371691230 -2.293537120482212
v -0.640842814844143 -2.410532449051431 -3.376263150280431
v 0.740307720164766 -2.381220393470666 -2.863773988518716
v -0.599368434885384 -2.426106506816159 -2.884391225263293
v -2.475869726702867 -0.336002307630071 -0.455434369620549
v 2.473588205160245 -0.351871969329289 -3.684456546753975
v -0.656426494282391 -2.407848704921323 -3.902649501189825
v 1.487704156973667 -2.007013918323414 -3.828478256464489
v -0.138515547689411 -2.494418128405683 -3.406356135275654
v -2.482441265857037 -0.271724115648219 -0.949441901183174
v -2.471047007375809 -0.302548249823561 -4.354261940364398
v -2.339883698122171 -0.860569498553031 -3.040047195633166
v 2.266257491779502 -1.038150821437029 -3.042914446550402
v -2.434385552569104 -2.022435979243254 -0.539295274581372
v 2.464786608399776 -1.954013462067778 -0.382367580929269
v 2.321762858845443 -1.709825190238597 -0.914728443043239
v -2.456477607424303 -1.220705972984184 -0.426877449392129
v -2.364114953731649 -0.968271051906555 -0.791379231110227
v 2.383429361836333 -0.877209483371664 -0.742708305688057
v -2.277474446785721 -1.774538718493802 -1.016923118905513
v -2.456859799037169 -0.741052903917751 -0.431836517991632
v 2.480577764860759 -0.499134160129327 -0.272226052580938
v 2.482906992326314 -1.114311210435455 -0.286163228501887
v -0.109117387842085 2.750000000000011 -2.493152370000010
v -2.193461866684471 2.268791690504952 -1.181571736154992
v -2.425106616995417 2.202005250332792 -0.568847918262717
v 1.912805370174134 2.369220895926304 -1.599067631096518
v 2.480102412322031 2.082708884861649 -0.223120499201086
v 0.338892502709172 2.734337931090048 -2.474936956978382
v -0.552572343531079 2.715169182912833 -2.435141139060818
v -2.336510565216820 1.364334480151817 -0.869695559604541
v 2.382377042161805 1.266256887594324 -0.738918977888676
v -2.458718887640440 0.884936622609303 -0.428769340043456
v 2.344592817908813 2.180364783058703 -0.866301512025443
v -2.362354610649488 0.811959493104982 -0.802071142424592
v 1.208958498669638 2.598953176014900 -2.172046448386035
v -2.499712592263255 2.145921619909935 -0.003266526409921
v -2.455908178411834 0.452884073995300 -0.441577790389784
v -2.499978827081132 0.863690780820581 -0.000310491207593
v -2.453840853489098 1.440758736932442 -0.458155791675606
v 2.482785527450501 0.608290615415934 -0.247184290481547
v -0.976072179054194 2.652805525757319 -2.300176487379622
v 0.750755327542244 2.688710383890013 -2.376706111020120
v -1.582446482832726 2.498338381959703 -1.924362981331231
v -2.499944512818109 1.407729324843100 -0.000996933303796
v 2.487310542725153 1.245146098962023 -0.228078734200969
v -2.499988377428135 0.005150990990325 0.000159840337396
v -2.499996125219126 0.416495772232575 0.000053288229948
v -2.434142681578157 2.025781109830591 0.540098615692835
v 2.464697232723754 1.958736791132180 0.383651865266725
v 2.321294748001405 1.713475320575160 0.916507739643559
v -2.364134282657194 0.973188805122799 0.791140322752320
v 2.383462005727253 0.886220322621663 0.742281595904311
v -2.276265432523947 1.777814226570522 1.019173432782539
v -2.456841730761157 0.749244718358834 0.431766580235795
v -2.456375849026972 1.227841831652722 0.427872743775326
v 2.480641586742589 0.512094292166377 0.271986376217905
v 2.482957245799880 1.123207000297509 0.286537957906746
v -0.287924520099813 -2.738504339850533 2.481656709850534
v 0.112674880437104 -2.750000000000000 2.493152370000000
v -2.194733318871931 -2.267293269983470 1.178970686479760
v -2.499984431502002 -0.407171685689861 0.000214106998204
v -2.425454101336173 -2.199727470268035 0.567645785778463
v 1.916495475358389 -2.367883862153144 1.594138143476624
v 2.480092370012482 -2.079046016897573 0.222994036302238
v 1.264498064678531 -2.584858085070412 2.140513369822792
v 0.484784988887241 -2.721251118231061 2.447766022869152
v -2.309827460678631 -1.407603769813284 0.915455799471104
v 2.383463617445853 -1.257587047070327 0.735558978659327
v -2.458575872552390 -0.877376903260222 0.429089362600768
v -2.362249182728789 -0.805043254443777 0.802617135228713
v -1.057622181212027 -2.636027283491996 2.258041973912876
v -2.499734372764379 -2.142614505864892 0.003018980595783
v -2.455826031458476 -0.442794967438191 0.442142804530911
v 2.344868161503939 -2.178449301217439 0.865345994540190
v -2.499967572566851 -0.855873506003950 0.000474627100190
v -2.453925034877253 -1.434955616455964 0.457213203817041
v 2.482711302957722 -0.596097430544061 0.247585357003770
v 0.835976398269432 -2.675129579206354 2.347752256056543
v -0.675257685378230 -2.700666034260720 2.402354161011647
v -1.606737465797867 -2.490589015660889 1.903504398710155
v -2.499941630940581 -1.401994340832347 0.001048432585139
v 2.487297370705835 -1.236786534396206 0.228315486445749
v -1.273202630898348 2.999999999999991 1.359639367533156
v 1.386355602144498 3.000000000000008 -0.772924039612401
v -1.450554690429083 3.000000000000017 -0.684395135723068
v -1.297252022700195 3.000000000000058 -1.371935578799218
v -0.604199143782337 3.000000000000014 1.472514344310106
v 1.179155289084934 2.999999999999893 -1.440542290145219
v -0.716923797999174 3.000000000000045 -0.737854134635144
v -0.658298537886511 3.000000000000043 -1.491748575483125
v 0.633476346216607 2.999999999999996 -0.777168819522391
v -0.734949454492377 3.000000000000039 -0.023615165780539
v 0.680900731757440 2.999999999999984 0.668327593060305
v -0.694584492181066 2.999999999999984 0.696247298778921
v -0.006340144925791 2.999999999999996 0.703922253481609
v 0.688131965609621 3.000000000000001 -0.059950967989800
v -0.024254584241255 2.999999999999987 -0.037821991030539
v -0.043485685002569 2.999999999999999 -0.772038384693603
v -0.074605223400070 2.999999999999996 -1.552343067186587
v 0.007832265824392 3.000000000000002 1.503759010247621
v 1.479708017858357 2.999999999999934 -0.096239020877961
v 1.438427763695858 3.000000000000028 0.600442668553484
v -1.442820241293708 2.999999999999993 0.657248620940475
v 0.618270614404437 3.000000000000028 1.454768127345308
v -1.514080166146145 2.999999999999984 -0.014352819475364
v 1.285948111836564 3.000000000000013 1.326373413974218
v 0.521312089378100 2.999999999999840 -1.533337238501423
v -1.381995153448257 -2.999999999999996 -1.339084800338216
v 1.509965157971380 -2.999999999999999 0.772837937294196
v -1.576821673926887 -3.000000000000002 0.675900192187395
v -1.631213054395803 -2.999999999999996 0.012360619292827
v 0.712844656996656 -3.000000000000008 1.514279650018813
v 1.569031006051429 -3.000000000000043 -0.586760976764232
v -1.396516004531533 -3.000000000000000 1.351426883144087
v -0.787379065324175 -2.999999999999992 -1.443802623991061
v -0.832799369538397 -3.000000000000001 1.458765293809418
v 0.847342220815456 -2.999999999999995 0.773300842185427
v -0.947680704633168 -3.000000000000006 0.019375944610667
v -0.323702411265512 -2.999999999999994 0.030448959329767
v 0.287949526555908 -2.999999999999987 -0.692567357901066
v 0.891946442372953 -2.999999999999999 -0.652505369798465
v -0.895260095423018 -3.000000000000008 -0.686814300138830
v 0.908073238180415 -3.000000000000011 0.068719850388074
v -0.297934342996716 -2.999999999999994 -0.703076326569802
v 0.280152271405933 -3.000000000000006 0.045525031034162
v -0.327719271969753 -2.999999999999990 0.761786228360676
v 0.248476606499928 -2.999999999999996 0.776522985527376
v -0.316879218641873 -3.000000000000000 1.529004267733150
v -0.915829871474130 -3.000000000000004 0.725307316635832
v -0.250394768898168 -2.999999999999993 -1.503270124082202
v 0.192185130892871 -2.999999999999992 1.548677545158475
v 0.271946934915152 -3.000000000000013 -1.491889145683970
v 1.605288618505060 -3.000000000000007 0.103935799725017
v 1.393043991319698 -3.000000000000006 -1.304270040865417
v -1.564376339738372 -2.999999999999996 -0.653183325685682
v 0.808731599326738 -2.999999999999950 -1.420022087707368
v 1.297899125492069 -2.999999999999959 1.428006971477839
v -0.616176399033250 2.417530751730726 -3.380384092851992
v -0.095184048764416 2.493778342515796 -3.919298268958759
v -0.107770891511419 2.494167075476140 -2.926323665386350
v -2.472622659089150 0.289232432626893 -4.353863325102073
v -2.338994091414007 0.863080224922007 -3.715115460751247
v -1.006629645422668 2.286892168406954 -2.802296049963648
v -1.664422315170276 1.854951642300338 -4.405678111954099
v -2.495553172674340 0.061155343962231 -0.459593402397551
v 2.496268173356810 0.051322240612955 -0.267816871849827
v 0.450299082451833 2.452543203396966 -3.909174333331105
v -1.120922477380672 2.229590241482077 -3.318355496587890
v 0.889696857451952 2.331610566979514 -3.346358546607444
v -2.058561888158820 1.405117884319347 -4.382365569151719
v 2.300338749879979 0.966478741846654 -2.282025596034289
v -0.643297904409551 2.410821629163493 -4.445927658432348
v -0.074201279307163 2.494040897651157 -4.454365533675959
v 1.582187628092443 1.925544935327423 -4.408583706233435
v 1.187915249808522 2.192314679854705 -2.754684252047573
v -2.320632503698521 0.913832712539215 -1.386110558978053
v 2.373224534484929 0.759929969289339 -1.408137647055927
v -2.433246091467288 0.558833757052060 -1.509431215722303
v 0.500393354007323 2.447101513337297 -4.450089768265020
v 1.507586871199807 1.991264217934972 -3.827747958815687
v -2.447665989121227 0.481448640603952 -0.913168771598907
v 2.409308884722482 0.651686163955837 -0.761022762078245
v -0.639458298751013 2.414005745119303 -3.903774507041049
v 2.005793095102935 1.476458746519291 -4.384202047521292
v -1.537356411501539 1.963924102956099 -2.636087121614295
v -0.569063646701436 2.433692636403123 -2.890117096364734
v 1.063599853803669 2.259010872173528 -4.432369347792743
v -2.338898627543079 0.870794968592681 -4.363425940203612
v -1.184623786341857 2.196374594953518 -4.428390644108401
v -2.484554802800806 0.166730898356069 -1.554072635201235
v 2.483441125742594 0.209858724667273 -1.471218883839200
v -1.628439738954402 1.895487202569376 -3.213802252609942
v 1.389921678838381 2.065590958418234 -3.262073783823856
v -2.475427944886492 0.265210333626406 -3.008785402593772
v -2.057428054100217 1.404445814142534 -3.755083443173754
v 2.472488680035907 0.313363729150664 -3.684029584531115
v 0.779320754071362 2.369756416421479 -2.855601793823928
v 2.473657373702927 0.287202594432287 -2.242631249765539
v -2.480477482159455 0.224579678740861 -2.284314260974131
v -2.061711766417296 1.396465313205510 -3.108025648638087
v 1.893246506589079 1.622211125672937 -3.145007324004436
v 1.958594844829850 1.538533850406807 -3.767839672754826
v -1.165702202745151 2.205228568055816 -3.864095201505828
v 1.797285356562917 1.735398854186998 -2.506435297078223
v 2.491020492529620 0.131399601438776 -0.821664990065211
v 2.473907146375235 0.314070468122868 -2.987131346653431
v 2.299500919057269 0.963374317999863 -3.712728227755006
v 0.397903331463392 2.465679725908722 -3.394681074836559
v 0.350800393449049 2.470493068287610 -2.914521369193440
v -1.651460236782354 1.864378080469459 -3.811216084558516
v -2.380899800626658 0.737827559646423 -2.293247661378217
v -2.479020761431275 0.283936300409771 -3.694852905129000
v 0.989710509443586 2.291513896049459 -3.877270875896709
v -2.125304266727969 1.313610638014627 -2.374639042712737
v -2.356079020688497 0.834623793156457 -3.034537957199909
v -2.492770196911654 0.108780921928908 -0.952802683850636
v 2.318518795909617 0.927463681703014 -4.361133379173697
v 2.470446213548488 0.307849260894571 -4.349276754020165
v 2.283888296154665 0.998592094123082 -3.038761859520267
v -0.105905206688817 2.494943174635573 -3.404486659664180
v 0.649135876786512 2.409426268001120 3.377282381887157
v 0.078451610685520 2.493896426661260 2.926263964311750
v 1.176975150185341 2.201574850885525 3.304783334018444
v 1.031105837081776 2.274467728489401 2.795741128333370
v 2.177792698720898 1.220179690006141 3.730738587613103
v 1.749107531359321 1.777490263227541 4.400378618236759
v -0.390858340223184 2.462207467254646 3.912186022761880
v -0.936809748337186 2.309018101343035 3.341026124667080
v 0.156424134443375 2.490984674542873 3.918344976434514
v -2.449055572229481 0.482927918257551 3.699493091443385
v 1.622730506402746 1.890500910195215 2.593478252573388
v 2.169574472580569 1.232144813888639 4.370870214883587
v -2.257623095774754 1.029865386122458 1.441587131100065
v 2.342796015366027 0.852481488357773 1.380980754845521
v -0.892649854755897 2.329170998374531 4.441265680112148
v -2.404274040232555 0.653387281435972 1.493548895091833
v 0.737254864979539 2.378733979024022 4.442852752583478
v -1.436929426300447 2.040689554069965 3.836341367470390
v 0.187064189590647 2.480970152748168 4.453073377942026
v -2.347987225770970 0.846188606240172 2.296506927861343
v 2.463970026588242 0.400508945916386 0.807604124249214
v -0.363113245130726 2.465526324829003 4.452050634726217
v -2.413030865585957 0.640814762429145 0.888963810806198
v 0.569940291942908 2.433551391824915 2.889644492051082
v 0.703741513695891 2.398150412372498 3.898817133444836
v 1.261617991604418 2.150253785368585 4.424999500754708
v -2.474910029807255 0.283870871025183 1.551014495438068
v -1.458956980800396 2.015161018863778 3.252237257744398
v -0.901732223681804 2.325850202464877 2.826752067952896
v -2.468262648794574 0.346019015106251 2.285219397943586
v -1.439757042613073 2.039460733084705 2.666312643195303
v -2.244565835178650 1.079280018001794 3.730301723971298
v 2.186352158911262 1.207366117888212 3.065308417419108
v 1.719539362926960 1.803751888816654 3.187069349557031
v -1.948114317119963 1.563727112748476 3.139768907820851
v -1.378292546124685 2.081429449965089 4.422867118151888
v 1.242924788036384 2.158200713458009 3.854101940618043
v -2.026800519802716 1.439965662882398 2.425150963314516
v -1.832585602066679 1.696943702575781 4.396729208038799
v 2.428731533533322 0.556136305853092 3.691927531408018
v -2.213550898905880 1.148243050420502 4.371038932166835
v 2.468417431082767 0.381958687155469 1.468845305536582
v 2.425972303312593 0.579434404319355 4.351167896242601
v 2.221809465179407 1.127624456326982 2.316488258837485
v -0.411943797269270 2.464832606946541 3.393996665469323
v -0.421151261968530 2.457937144414645 2.906291010311979
v -1.896767429869990 1.623258019830280 3.780887211910019
v 1.752671138626554 1.771840564727360 3.793022853607376
v 2.456545808972999 0.452833875180059 2.246755395673560
v -2.475119286016432 0.346526683073692 0.455534688730547
v -0.926223167958784 2.316587073779291 3.883402932660811
v 2.441402176031790 0.517590074146703 2.994324239523835
v -2.463551645771756 0.421854884656044 3.010785049698681
v -2.481507972054661 0.286504941159705 0.949326900543063
v -2.283911876724026 0.999467145259103 3.054116222189382
v -2.438667227210400 0.531938030995045 4.355886740605369
v 0.117216371005984 2.494349207766819 3.404129577114376
v -0.042281602076631 -1.655543061276669 -4.999999999999979
v -0.663991906023281 -1.605781474079581 -5.000000000000001
v -1.430272038548333 -0.889576174990928 -5.000000000000000
v 0.584491200363748 -1.618235638642817 -5.000000000000060
v -0.039032845406794 1.652539863923746 -4.999999999999891
v 0.692325741282632 0.308122955606078 -5.000000000000011
v 1.395940366692715 0.894293519541467 -4.999999999999934
v 0.690349096206811 -0.314833895801642 -4.999999999999932
v -0.742040690594299 -0.311607590660646 -4.999999999999925
v 0.649406619147639 -0.946797776007394 -4.999999999999950
v -0.705204674007792 0.934844107688407 -4.999999999999918
v -0.030068367587204 -0.960980131254867 -4.999999999999969
v -0.739549286668124 0.306682877048486 -4.999999999999839
v -0.027384410692357 -0.318718682195579 -4.999999999999986
v -0.025084143775166 0.313207220701765 -5.000000000000059
v -0.029375007430916 0.956820792753519 -5.000000000000099
v 0.655348754432076 0.939436489240347 -5.000000000000198
v -1.516653128455427 0.294064141801471 -5.000000000000004
v 1.485067167408921 0.295699185857012 -4.999999999999915
v -0.708253864259192 -0.938314910992443 -5.000000000000003
v -1.287157890737205 -1.483333877922918 -4.999999999999950
v 1.237332476929415 -1.503118976284487 -4.999999999999996
v 0.592072369184587 1.613864754543441 -5.000000000000139
v -1.433750327756179 0.885341907216533 -4.999999999999988
v 1.241686113197247 1.494596788300434 -4.999999999999594
v -1.510422465168864 -0.298421920674104 -5.000000000000030
v 1.476417023864261 -0.305773348444900 -4.999999999999914
v -0.658121151414193 1.598912979343318 -5.000000000000071
v 1.385343808721638 -0.900738248823352 -4.999999999999956
v -1.289069490504207 1.479529160955945 -5.000000000000115
v -1.597737233631109 0.615216180872876 4.999999999999970
v 1.615094863458204 -0.047755174924998 5.000000000000104
v 1.568848035777366 0.631502637891933 4.999999999999972
v 1.546376939428690 -0.716927954589290 5.000000000000043
v -1.574545405857525 -0.708239947194512 5.000000000000008
v -1.641773764559782 -0.051192898239290 5.000000000000000
v -0.859536317772268 1.416874651608003 4.999999999999959
v 0.923150550882557 -0.036773855781873 5.000000000000076
v 0.887376103983375 -0.745263695643443 5.000000000000009
v -0.321583259362561 -0.762494270991313 4.999999999999992
v 0.285996139355558 -0.033474243332967 5.000000000000052
v -0.937279681597097 0.670506037828043 4.999999999999998
v -0.961542294041655 -0.041034192684335 5.000000000000037
v 0.890036016634048 0.676466570763318 4.999999999999947
v -0.324216603066368 0.702464773685655 4.999999999999986
v 0.275035977053923 0.704751493302811 5.000000000000032
v -0.923426123253164 -0.737562878480741 5.000000000000002
v -0.330338591996168 -0.033295367430357 5.000000000000007
v 0.272622245226712 -0.764775385782994 5.000000000000042
v 0.813465634118358 1.441944918917835 4.999999999999996
v 0.244177192242716 -1.541164255931029 5.000000000000005
v -1.425350800451965 1.302519006691276 5.000000000000006
v 1.395987862903834 1.326259549827462 4.999999999999853
v 0.244541621735488 1.497402039745144 4.999999999999972
v -1.414921033942004 -1.365264428587547 4.999999999999987
v 0.798134091467088 -1.476227903952744 4.999999999999988
v 1.382260496061566 -1.381326078354929 4.999999999999929
v -0.314986174353400 1.499451144764025 5.000000000000045
v -0.849671316781911 -1.463805365077055 4.999999999999997
v -0.305349410406572 -1.530414115933992 4.999999999999990
v -0.889676255229387 -2.327555643017388 2.327555643017388
v -0.831498783140638 -2.351392257048636 5.000000000000000
v 0.213821782350374 -2.486304740000000 5.000000000000000
v -0.316293403945797 -2.474620028641434 5.000000000000000
v 0.743248727326132 -2.383867871577932 5.000000000000000
v 0.931375671944249 -2.310871789727756 2.310871789727756
v 0.745944703888498 -2.385062349455512 2.385062349455512
v 2.378147040194623 -0.726667145850749 5.000000000000000
v -2.385513119205100 -0.703996686095012 5.000000000000000
v 1.251283759464892 -2.164130804149226 5.000000000000000
v 2.098209782711135 -1.338403531336828 5.000000000000000
v -2.117053423232232 -1.305765387753758 5.000000000000000
v -0.627114901325322 -2.413930169540583 2.413930169540583
v 0.444817677788514 -2.455080194574416 2.455080194574416
v -0.279619094576318 -2.479560437818672 2.479560437818672
v -2.492045338606933 -0.075683545492468 5.000000000000000
v 0.093607495868189 -2.493157490781038 2.493157490781038
v 2.492189873800802 -0.074308385019894 5.000000000000000
v -1.301474949970834 -2.127664769566884 5.000000000000000
v -0.164709002726776 -2.487960121578394 -2.487960121578394
v 0.889382349164465 -2.327673234246579 -2.327673234246579
v -1.203405687391399 -2.185808634597501 -5.000000000000000
v -0.069341928997154 -2.486304740000000 -5.000000000000000
v 1.111351829944351 -2.226793652628801 -5.000000000000000
v -0.650091231891747 -2.403669108837065 -5.000000000000000
v 0.522362750517906 -2.430818636125651 -5.000000000000000
v -0.867237904645642 -2.336533182241985 -2.336533182241985
v 2.319044485568492 -0.908566102433643 -5.000000000000000
v -2.330074757027785 -0.874618418074422 -5.000000000000000
v -2.053316397449476 -1.416161157442016 -5.000000000000000
v 2.032277199346458 -1.452602118401238 -5.000000000000000
v -0.559263760530204 -2.429246234635395 -2.429246234635395
v 0.620830108094514 -2.415348838425181 -2.415348838425181
v 2.467014513664134 -0.313835929945119 -5.000000000000000
v 0.248717951303274 -2.481819245788709 -2.481819245788709
v -2.468694590139573 -0.297851070492711 -5.000000000000000
v 0.252653066351590 -3.000000000000000 -2.486304740000000
v -0.199423932295960 -3.000000000000000 -2.486304740000000
v -2.144329419548042 -3.000000000000000 -1.258521975148327
v 2.181140158648697 -3.000000000000000 -1.194763903197157
v -2.412898441724340 -3.000000000000000 -0.619713331112359
v 2.446921070343263 -3.000000000000000 -0.505012267507511
v 1.179423182325126 -3.000000000000000 -2.196486333825286
v -1.155663681969919 -3.000000000000000 -2.207064744958497
v 0.700586188235762 -3.000000000000000 -2.392936074352881
v -0.659194104324321 -3.000000000000000 -2.401734233538663
v -0.105846244901215 2.492262864209626 -2.492262864209626
v 0.317211375656176 2.476812521880263 -2.476812521880263
v -0.102111321167021 3.000000000000000 -2.486304740000000
v 2.037596674631577 3.000000000000000 -1.443388516711696
v -2.137041710736697 3.000000000000000 -1.271144657390112
v -0.854371120032819 2.341681157050782 -2.341681157050782
v 0.908569884795006 2.319996339587872 -2.319996339587872
v -2.408320623893698 3.000000000000000 -0.633802405469430
v 2.347959902278377 3.000000000000000 -0.819573601822475
v -2.499260977790449 3.000000000000000 -0.007031326445305
v 2.482955449322788 3.000000000000000 -0.162168062577969
v 0.877472139477071 3.000000000000000 -2.330923599996519
v -1.103438219189023 3.000000000000000 -2.230317019150258
v 0.374837466824165 3.000000000000000 -2.462176103718778
v -0.584949584368914 3.000000000000000 -2.417515393690858
v -0.521967329930098 2.437665172801818 -2.437665172801818
v 0.676901452815900 2.402691831400058 -2.402691831400058
v 0.049478028144565 2.496383261184639 2.496383261184639
v 0.029756972191516 3.000000000000000 2.486304740000000
v -2.143582801803481 3.000000000000000 1.259815155047473
v 2.179833415229998 3.000000000000000 1.197027249246344
v 0.850410700322268 2.343265713061913 2.343265713061913
v -0.819234298670896 2.355739329055318 2.355739329055318
v -2.412865965926525 3.000000000000000 0.619813281339116
v 2.446807834974297 3.000000000000000 0.506089630046908
v -1.050441984037081 3.000000000000000 2.253912463312310
v 1.081804725954253 3.000000000000000 2.239948870925911
v -0.492400246623591 3.000000000000000 2.437187363040458
v 0.543679541439637 3.000000000000000 2.426287612264647
v 0.501508956630694 2.442283249572757 2.442283249572757
v -0.422517119598939 2.460114108475930 2.460114108475930
v 0.118376637673849 -3.000000000000000 2.486304740000000
v 2.038582298112444 -3.000000000000000 1.441681366723807
v -2.138411001311819 -3.000000000000000 1.268772976485473
v 2.348183490235528 -3.000000000000000 0.818885468858212
v -2.408796718538246 -3.000000000000000 0.632337136842283
v 2.482932224476203 -3.000000000000000 0.162389032226616
v -2.499336023664835 -3.000000000000000 0.006317312665530
v -1.194799696471011 -3.000000000000000 2.189640268630352
v 1.005432141195040 -3.000000000000000 2.273952136516969
v -0.301134237638384 -3.000000000000000 2.477842208964167
v -0.729506268984112 -3.000000000000000 2.386788921321543
v 0.541656216231527 -3.000000000000000 2.426717683321317
v -1.201240542989494 2.186772618995477 -5.000000000000000
v 1.121800008210341 2.222141823943924 -5.000000000000000
v -0.057508025436302 2.486304740000000 -5.000000000000000
v 0.534327580847117 2.428275432886778 -5.000000000000000
v -0.641509199581179 2.405493276148076 -5.000000000000000
v -2.332290138329939 0.867800175616981 -5.000000000000000
v 2.323961506704857 0.893433067662835 -5.000000000000000
v 2.038989852615289 1.440975461600703 -5.000000000000000
v -2.056704156861262 1.410293385872982 -5.000000000000000
v -2.469599857583136 0.289238026346359 -5.000000000000000
v 2.468866485503798 0.296215595395099 -5.000000000000000
v -1.318978250693976 2.114947877159248 5.000000000000000
v -0.861194664438797 2.338170798826090 5.000000000000000
v 0.211246874690744 2.486304740000000 5.000000000000000
v -0.337302056094953 2.470154501699557 5.000000000000000
v 0.759575835936754 2.380397437450790 5.000000000000000
v -2.431218446901074 0.563330153645312 5.000000000000000
v 2.422258410203653 0.590906310657730 5.000000000000000
v -2.176976555412395 1.201975475721967 5.000000000000000
v 2.153062053889380 1.243396608414018 5.000000000000000
v 1.268970636845794 2.151280535492035 5.000000000000000
v -1.815066030000000 -1.719167040000000 1.719167040000000
v 2.068170750000000 -1.404517630000000 1.404517630000000
v 1.672826520000000 -1.857862060000000 5.000000000000000
v -1.672826520000000 -1.857862060000000 5.000000000000000
v 1.815066030000000 -1.719167040000000 -1.719167040000000
v -1.672826520000000 -1.857862060000000 -5.000000000000000
v -2.068170750000000 -1.404517630000000 -1.404517630000000
v 1.672826520000000 -1.857862060000000 -5.000000000000000
v 1.672826520000000 -3.000000000000000 -1.857862060000000
v -1.672826520000000 -3.000000000000000 -1.857862060000000
v 1.496685240000000 2.002481780000000 -2.002481780000000
v -1.815066030000000 1.719167040000000 -1.719167040000000
v 1.672826520000000 3.000000000000000 -1.857862060000000
v -1.672826520000000 3.000000000000000 -1.857862060000000
v -1.496685240000000 2.002481780000000 2.002481780000000
v 1.815066030000000 1.719167040000000 1.719167040000000
v -1.672826520000000 3.000000000000000 1.857862060000000
v 1.672826520000000 3.000000000000000 1.857862060000000
v -1.672826520000000 -3.000000000000000 1.857862060000000
v 1.672826520000000 -3.000000000000000 1.857862060000000
v 1.672826520000000 1.857862060000000 -5.000000000000000
v -1.672826520000000 1.857862060000000 -5.000000000000000
v -1.672826520000000 1.857862060000000 5.000000000000000
v 1.672826520000000 1.857862060000000 5.000000000000000
f 67 60 33 1
f 33 48 47 1
f 47 20 11 1
f 11 65 67 1
f 449 539 372 2
f 372 326 59 2
f 59 62 30 2
f 30 442 449 2
f 44 29 6 3
f 6 53 28 3
f 28 48 33 3
f 33 60 44 3
f 43 57 41 4
f 41 14 5 4
f 5 53 6 4
f 6 29 43 4
f 14 544 434 5
f 434 446 53 5
f 15 30 62 7
f 62 61 40 7
f 40 41 57 7
f 57 8 15 7
f 547 445 15 8
f 57 43 31 8
f 31 452 547 8
f 49 25 193 9
f 193 137 262 9
f 262 156 172 9
f 172 337 49 9
f 63 370 366 10
f 366 163 162 10
f 162 177 189 10
f 189 22 63 10
f 20 17 35 11
f 35 23 65 11
f 16 26 42 12
f 42 55 66 12
f 66 50 37 12
f 37 45 16 12
f 437 435 27 13
f 27 29 44 13
f 44 60 46 13
f 46 436 437 13
f 41 40 52 14
f 52 18 544 14
f 445 442 30 15
f 441 444 26 16
f 45 451 441 16
f 20 440 439 17
f 439 545 56 17
f 56 55 35 17
f 52 58 51 18
f 51 22 186 18
f 186 183 544 18
f 21 56 545 19
f 545 184 25 19
f 25 49 34 19
f 34 39 21 19
f 47 447 440 20
f 66 55 56 21
f 39 50 66 21
f 51 32 63 22
f 189 185 186 22
f 24 64 65 23
f 35 55 42 23
f 42 26 24 23
f 546 443 64 24
f 26 444 546 24
f 184 198 193 25
f 435 452 31 27
f 31 43 29 27
f 53 446 448 28
f 448 450 48 28
f 38 346 343 32
f 343 370 63 32
f 51 58 38 32
f 49 337 358 34
f 358 365 39 34
f 59 326 369 36
f 369 346 38 36
f 38 58 61 36
f 61 62 59 36
f 50 368 356 37
f 356 359 45 37
f 365 368 50 39
f 61 58 52 40
f 359 540 451 45
f 60 67 54 46
f 54 438 436 46
f 48 450 447 47
f 67 65 64 54
f 64 443 438 54
f 78 107 89 68
f 89 81 112 68
f 112 86 122 68
f 122 117 78 68
f 124 117 122 69
f 122 86 92 69
f 92 88 109 69
f 109 74 124 69
f 453 465 119 70
f 119 117 124 70
f 124 74 95 70
f 95 468 453 70
f 454 466 118 71
f 118 77 100 71
f 100 110 80 71
f 80 548 454 71
f 84 87 90 72
f 90 127 101 72
f 101 107 108 72
f 108 550 84 72
f 121 75 97 73
f 97 461 467 73
f 467 533 314 73
f 314 292 121 73
f 109 96 77 74
f 77 118 95 74
f 128 110 102 75
f 102 79 97 75
f 121 103 128 75
f 123 96 113 76
f 113 457 551 76
f 551 464 79 76
f 79 102 123 76
f 96 123 100 77
f 82 108 107 78
f 117 119 82 78
f 464 461 97 79
f 110 128 116 80
f 116 85 548 80
f 89 111 93 81
f 93 463 549 81
f 549 455 112 81
f 460 550 108 82
f 119 465 460 82
f 115 104 126 83
f 126 469 462 83
f 462 463 93 83
f 93 111 115 83
f 133 94 87 84
f 550 135 133 84
f 134 131 548 85
f 116 106 98 85
f 98 91 134 85
f 112 455 458 86
f 458 456 92 86
f 94 125 99 87
f 99 105 90 87
f 92 456 459 88
f 459 457 113 88
f 113 96 109 88
f 107 101 111 89
f 105 114 127 90
f 137 138 134 91
f 98 287 301 91
f 301 262 137 91
f 136 120 125 94
f 133 132 136 94
f 118 466 468 95
f 106 294 287 98
f 125 312 286 99
f 286 295 105 99
f 123 102 110 100
f 127 115 111 101
f 106 116 128 103
f 121 292 302 103
f 302 294 106 103
f 114 290 308 104
f 308 257 126 104
f 115 127 114 104
f 295 290 114 105
f 177 162 261 120
f 261 312 125 120
f 136 191 177 120
f 257 532 469 126
f 188 197 132 129
f 132 133 135 129
f 135 472 474 129
f 474 517 188 129
f 180 516 475 130
f 475 473 131 130
f 131 134 138 130
f 138 198 180 130
f 473 552 548 131
f 197 191 136 132
f 550 553 472 135
f 193 198 138 137
f 144 481 480 139
f 480 495 145 139
f 145 494 482 139
f 482 493 144 139
f 141 487 484 140
f 484 557 159 140
f 159 555 146 140
f 146 155 141 140
f 152 489 487 141
f 155 160 152 141
f 149 147 554 142
f 554 486 151 142
f 151 556 483 142
f 483 488 149 142
f 165 173 161 143
f 161 147 149 143
f 149 488 490 143
f 490 504 165 143
f 158 496 481 144
f 493 491 158 144
f 495 485 157 145
f 157 492 494 145
f 555 272 150 146
f 150 148 155 146
f 161 156 278 147
f 278 273 554 147
f 154 160 155 148
f 150 277 153 148
f 153 163 154 148
f 272 274 277 150
f 486 496 158 151
f 158 491 556 151
f 164 503 489 152
f 160 171 164 152
f 277 312 261 153
f 261 162 163 153
f 170 171 160 154
f 163 366 170 154
f 262 301 278 156
f 161 173 172 156
f 159 557 492 157
f 485 555 159 157
f 169 499 503 164
f 171 167 169 164
f 166 168 173 165
f 504 500 166 165
f 559 330 168 166
f 500 561 559 166
f 329 558 169 167
f 171 170 339 167
f 339 332 329 167
f 330 358 337 168
f 337 172 173 168
f 558 560 499 169
f 366 370 339 170
f 448 446 195 174
f 195 521 520 174
f 520 511 175 174
f 175 450 448 174
f 511 522 182 175
f 182 447 450 175
f 196 544 183 176
f 183 192 178 176
f 178 515 513 176
f 513 562 196 176
f 191 185 189 177
f 192 197 188 178
f 188 517 515 178
f 181 563 512 179
f 512 514 190 179
f 190 184 545 179
f 545 439 181 179
f 190 514 516 180
f 198 184 190 180
f 439 440 194 181
f 194 519 563 181
f 522 519 194 182
f 194 440 447 182
f 186 185 192 183
f 191 197 192 185
f 434 544 196 187
f 196 562 518 187
f 518 521 195 187
f 195 446 434 187
f 505 507 203 199
f 203 210 219 199
f 219 503 499 199
f 499 560 505 199
f 217 490 488 200
f 488 483 204 200
f 204 223 207 200
f 207 212 217 200
f 221 208 205 201
f 205 206 202 201
f 202 484 487 201
f 487 489 221 201
f 206 494 492 202
f 492 557 484 202
f 507 498 216 203
f 216 211 210 203
f 483 556 491 204
f 491 493 223 204
f 208 213 214 205
f 214 215 206 205
f 215 482 494 206
f 223 215 214 207
f 214 213 212 207
f 221 219 210 208
f 210 211 213 208
f 220 222 218 209
f 218 217 212 209
f 212 213 211 209
f 211 216 220 209
f 223 493 482 215
f 498 508 220 216
f 218 504 490 217
f 222 500 504 218
f 221 489 503 219
f 508 506 222 220
f 506 561 500 222
f 251 474 472 224
f 472 553 477 224
f 477 479 231 224
f 231 238 251 224
f 253 228 233 225
f 233 239 249 225
f 249 516 514 225
f 514 512 253 225
f 230 513 515 226
f 515 517 227 226
f 227 234 245 226
f 245 232 230 226
f 517 474 251 227
f 251 238 234 227
f 522 511 247 228
f 247 243 233 228
f 253 519 522 228
f 475 516 249 229
f 249 239 237 229
f 237 252 250 229
f 250 473 475 229
f 518 562 513 230
f 232 521 518 230
f 479 471 246 231
f 246 240 238 231
f 245 242 244 232
f 244 520 521 232
f 243 241 239 233
f 238 240 235 234
f 235 242 245 234
f 240 236 241 235
f 241 243 242 235
f 240 246 248 236
f 248 252 237 236
f 237 239 241 236
f 243 247 244 242
f 247 511 520 244
f 471 470 248 246
f 470 478 252 248
f 252 478 476 250
f 476 552 473 250
f 512 563 519 253
f 282 256 316 254
f 316 255 279 254
f 279 299 264 254
f 264 259 282 254
f 316 304 263 255
f 263 275 269 255
f 269 268 279 255
f 480 481 305 256
f 305 304 316 256
f 282 495 480 256
f 308 258 284 257
f 284 528 532 257
f 311 296 291 258
f 291 266 284 258
f 308 290 311 258
f 485 495 282 259
f 264 288 281 259
f 281 555 485 259
f 306 299 285 260
f 285 523 565 260
f 565 531 266 260
f 266 291 306 260
f 304 265 309 263
f 309 283 275 263
f 299 306 288 264
f 293 271 289 265
f 289 276 309 265
f 304 305 293 265
f 531 528 284 266
f 273 287 294 267
f 294 302 315 267
f 315 297 300 267
f 300 554 273 267
f 269 525 527 268
f 527 523 285 268
f 285 299 279 268
f 275 526 525 269
f 276 298 280 270
f 280 530 564 270
f 564 524 283 270
f 283 309 276 270
f 486 554 300 271
f 300 297 289 271
f 293 496 486 271
f 555 281 310 272
f 310 307 274 272
f 278 301 287 273
f 307 295 286 274
f 286 312 277 274
f 283 524 526 275
f 289 297 298 276
f 298 303 313 280
f 313 529 530 280
f 288 296 310 281
f 306 291 296 288
f 295 307 311 290
f 314 313 303 292
f 303 315 302 292
f 305 481 496 293
f 311 307 310 296
f 315 303 298 297
f 314 533 529 313
f 341 353 319 317
f 319 320 340 317
f 340 318 373 317
f 373 325 341 317
f 340 509 497 318
f 497 510 362 318
f 362 361 373 318
f 353 364 350 319
f 350 327 320 319
f 327 559 501 320
f 501 509 340 320
f 328 359 356 321
f 356 368 349 321
f 349 350 364 321
f 364 322 328 321
f 567 542 328 322
f 364 353 342 322
f 342 543 567 322
f 338 335 325 323
f 325 373 361 323
f 361 324 367 323
f 367 331 338 323
f 361 362 345 324
f 345 347 344 324
f 344 334 367 324
f 335 333 341 325
f 372 357 348 326
f 348 371 369 326
f 350 349 360 327
f 360 330 559 327
f 542 540 359 328
f 354 347 558 329
f 332 336 354 329
f 360 365 358 330
f 367 334 352 331
f 352 534 535 331
f 535 537 338 331
f 339 370 343 332
f 343 346 336 332
f 538 543 342 333
f 342 353 341 333
f 335 536 538 333
f 344 351 363 334
f 363 355 352 334
f 338 537 536 335
f 371 351 354 336
f 346 369 371 336
f 347 354 351 344
f 362 510 502 345
f 502 558 347 345
f 357 355 363 348
f 363 351 371 348
f 368 365 360 349
f 355 566 534 352
f 357 541 566 355
f 372 539 541 357
f 456 458 375 374
f 375 393 385 374
f 385 383 377 374
f 377 459 456 374
f 458 455 394 375
f 394 376 393 375
f 462 469 399 376
f 399 382 393 376
f 394 463 462 376
f 383 402 395 377
f 395 457 459 377
f 525 526 396 378
f 396 390 389 378
f 389 384 401 378
f 401 527 525 378
f 392 400 381 379
f 381 387 388 379
f 388 389 390 379
f 390 380 392 379
f 529 533 392 380
f 390 396 398 380
f 398 530 529 380
f 400 402 383 381
f 383 385 387 381
f 399 391 386 382
f 386 388 387 382
f 387 385 393 382
f 397 403 401 384
f 389 388 386 384
f 386 391 397 384
f 532 528 397 391
f 399 469 532 391
f 533 467 400 392
f 455 549 463 394
f 402 461 464 395
f 464 551 457 395
f 526 524 398 396
f 528 531 403 397
f 524 564 530 398
f 467 461 402 400
f 403 523 527 401
f 531 565 523 403
f 425 541 539 404
f 539 449 409 404
f 409 416 415 404
f 415 410 425 404
f 411 412 407 405
f 407 441 451 405
f 451 540 406 405
f 406 417 411 405
f 540 542 426 406
f 426 423 417 406
f 412 429 430 407
f 430 444 441 407
f 420 416 409 408
f 409 449 442 408
f 442 445 428 408
f 428 432 420 408
f 535 534 425 410
f 415 418 431 410
f 431 537 535 410
f 417 419 414 411
f 414 422 412 411
f 422 424 429 412
f 421 416 420 413
f 420 432 433 413
f 433 424 422 413
f 422 414 421 413
f 419 418 421 414
f 416 421 418 415
f 423 427 419 417
f 419 427 431 418
f 426 543 538 423
f 538 536 427 423
f 433 437 436 424
f 436 438 429 424
f 534 566 541 425
f 542 567 543 426
f 536 537 431 427
f 445 547 452 428
f 452 435 432 428
f 438 443 430 429
f 443 546 444 430
f 435 437 433 432
f 468 470 471 453
f 471 479 465 453
f 548 552 476 454
f 476 478 466 454
f 465 479 477 460
f 477 553 550 460
f 478 470 468 466
f 509 508 498 497
f 498 507 510 497
f 559 561 506 501
f 506 508 509 501
f 510 507 505 502
f 505 560 558 502
