v 0.639015041405260 -2.407701256094659 3.282597504879962
v 2.089478561214892 -1.369900561567159 1.948287257354206
v -0.241871762224634 -2.479337391822103 3.300291157047081
v -1.082381377575780 -2.242564829723425 3.197842592980871
v -1.251825851580024 -2.153659441784014 2.411104650058906
v -1.377988184792234 -2.081557753439972 2.656348321977831
v -2.471291864936709 -0.304488536940436 4.351683057022196
v -2.319299131938251 -0.907106018950600 3.695039537440653
v -0.669583398857944 -2.399748177739082 3.258997801049485
v -1.662280370088971 -1.859300455849112 4.347987189407066
v -1.930571054510990 -1.581326246583141 2.491361781240447
v 2.490007774933343 -0.137418864315471 0.335121080230753
v -2.487048505155574 -0.178116455627885 0.349433842002252
v 0.198350538453421 -2.485556572438609 3.309716842631054
v 1.063903183028128 -2.253608294709125 3.231913851407542
v 2.482504284679111 -0.182634818556557 1.777117201717783
v -2.471541022147381 -0.298205873563645 1.713891181329182
v 2.392781053624107 -0.679530269191118 1.760722633702470
v -2.050157674571443 -1.418932400649370 4.336435539147969
v -0.265859290071967 -2.474528791059242 4.398756885126959
v -2.365015457285466 -0.765628444344772 1.643600201733275
v 1.370975734651650 -2.086478592057296 2.677430401974236
v -2.330167348740718 -0.878728146884634 1.159111425442790
v 2.341682430518254 -0.848991546504085 1.208724402663362
v -2.402368107634047 -0.680828277761116 1.248554262090146
v 1.245344302428525 -2.158237031335567 2.418766861308039
v 0.583427847441409 -2.427895895482856 2.873402603248886
v 0.946279908098596 -2.309180145336082 2.789037892908895
v 2.351806012303515 -0.844618806089249 2.456652546173281
v -2.418163681007242 -0.620559886471312 0.958347172021096
v -0.943702985673631 -2.309809409010206 2.526774419717760
v 1.618082517483663 -1.897455129205243 3.775993101931864
v 1.662021807337797 -1.856348603967810 4.373273703036531
v 2.439012708283962 -0.523571069520897 0.953585543554384
v -0.717107423926989 -2.393798698510424 3.807588931477624
v -0.260598984679305 -2.484845180585946 2.673162281638741
v -0.758660900570631 -2.372619372936993 4.390775411350734
v -2.333521211214377 -0.885739722205415 4.344024624959489
v -1.228095859346473 -2.172361278511967 4.371342213774337
v -2.482142919625387 -0.289727230339373 1.291326107931936
v 0.920207693793254 -2.318726464558688 2.539453637933297
v 2.356896336942835 -0.814025422467429 0.887008886838054
v -2.342795494824516 -0.851776706747775 0.894961584357817
v -2.158094775335471 -1.245318285449798 1.734467835717654
v -1.514863746836514 -1.979573004934520 3.130523643166232
v -0.249932536593671 -2.484679140024738 2.923283956732889
v 1.514397390859338 -1.979041631283417 3.175236122630064
v -2.021368683868367 -1.451189413646114 3.700192807323091
v -2.469562579733880 -0.324673282713773 3.036787049238264
v 1.167579823511740 -2.208280718367648 3.797500463580166
v 2.473160956372650 -0.305973471564293 3.725864368969100
v -2.472515622455471 -0.317312467783109 2.356046627832769
v -1.171294190897461 -2.203729095899461 3.771047901847880
v -0.635192851620317 -2.416207146042499 2.610346834962752
v 0.569842104613666 -2.430754696458016 2.626686043871974
v -1.981330698724693 -1.521721715810713 3.066037388566175
v 2.441183344158079 -0.505714088586379 0.641040080174749
v -2.426152070645626 -0.573919011419779 0.675663955914017
v 2.018900164301443 -1.455798412655230 3.757038807365179
v 0.248115336684883 -2.480183584015009 4.390671255806936
v -0.250223724393346 -2.483338074377364 3.830993680679188
v 1.938692946430938 -1.570581993658086 2.545284304478634
v 2.038288055346835 -1.432933728545084 4.373627644791240
v 0.178210498841695 -2.488988184462358 2.925463055539686
v 0.166844278101004 -2.492143823057944 2.680070411059378
v 2.490263245122474 -0.142480610928450 0.649314339063576
v 2.475923531476967 -0.288013921764676 3.079329817425904
v 2.323873036259894 -0.910834432075220 3.739418416989503
v 2.478107979586400 -0.242611213601060 2.419926603262342
v 2.433494787341359 -0.555929492740468 1.296594186574981
v -1.619802663935172 -1.890280230456153 3.729875883276016
v -0.639496830768497 -2.413357770750813 2.859743284933344
v -0.970381122562409 -2.301751406536446 2.771162327674404
v 0.754649495008499 -2.376389570714860 4.383261684666147
v 1.987454221956616 -1.511515439036375 3.134504480270800
v 0.702436746845759 -2.393972904685314 3.819759789842224
v -2.476631169726706 -0.316277408780214 3.700806531206605
v -2.485913412883525 -0.206034206601695 0.661088882998797
v -2.326572433746731 -0.906244004409495 2.327176212120901
v 0.229838474621377 -2.481520251837997 3.833272185403924
v -2.485175475495562 -0.231536709390524 0.968210096059705
v 1.230640489837684 -2.169744849904304 4.376156506202772
v 2.490658178919488 -0.143060216175123 0.961639630697957
v 2.327944092875752 -0.906184438431827 4.369558696484573
v 2.470511289129708 -0.312057326873860 4.364526726024445
v 2.490661384815410 -0.167608881999980 1.315264185560920
v 2.320762992702093 -0.911324873557354 3.104554318801774
v -2.311870688927451 -0.935000073613421 3.036120134145494
v -1.160699563544710 -2.201721851847154 -3.762519918073675
v -0.158810583277493 -2.491605397404970 -2.918392646484894
v 1.089152561125908 -2.243495990780923 -3.202944291449245
v 1.259927946265345 -2.148849097383137 -2.414480554684468
v 1.392576506214714 -2.073789320403186 -2.672069062685969
v 2.474317505386355 -0.273142165531372 -4.370378102439510
v 2.339458290587181 -0.863667008922679 -3.739117531792873
v 0.252245408065691 -2.483819229256282 -3.271154830556918
v 0.671374938970641 -2.401593373368207 -3.248297207019711
v 1.674589765321298 -1.847386436150688 -4.361720417169641
v 1.969790288628420 -1.532867592657015 -2.578609089190389
v 2.490062950424980 -0.136660059009449 -0.322250331890237
v -2.488551753890659 -0.157442908686984 -0.314672183226813
v -0.201876160991138 -2.484575355455013 -3.802465839917485
v 2.483934347611441 -0.168343077172588 -1.790556747611115
v -2.481652506707136 -0.191526385006433 -1.757848691362422
v -2.390431343576243 -0.686398221539280 -1.737993112616723
v -1.044318393133116 -2.265823770602441 -3.199205610975312
v 2.064486666833689 -1.398115938554678 -4.356351969872545
v 0.269169894279451 -2.481427244722992 -3.808043792093924
v -1.671388462628111 -1.849120583843675 -4.353276857285849
v 2.397778240106263 -0.664214589701951 -1.779157106749381
v -2.330084358097687 -0.898793263599270 -4.359256654136317
v -1.364346125848457 -2.090160703788910 -2.666929495912502
v -2.341142599453647 -0.850004765879954 -1.196672260161036
v 2.342875271593922 -0.845711168831207 -1.211911719428334
v -0.732186429537349 -2.383027047188369 -4.368976992280171
v -0.678644591201709 -2.397373509534274 -3.784708144078584
v 0.775150751777091 -2.366896698105537 -4.389808214574662
v -0.149398160780893 -2.492819426164777 -2.683836763866051
v -1.241504817736515 -2.160470682856954 -2.417010696030350
v 0.288660657461543 -2.471037440904500 -4.390954269755612
v -0.913793670256763 -2.321315365354969 -2.538541629976506
v -1.622994714184083 -1.887303934023576 -3.747931140685727
v -2.351230939916328 -0.844707707713765 -2.430577511122438
v 2.439954050232447 -0.518908352174369 -0.946723395325333
v -0.214065065940097 -2.483422030920806 -4.380574353700863
v 0.945546644780595 -2.309104498177629 -2.528279344916089
v -2.044073641712522 -1.426461751192895 -4.360007811319495
v -2.436987689886094 -0.532260356265722 -0.939560546881881
v 0.267179499031126 -2.483621757955108 -2.679918486063269
v 0.252565868185716 -2.482532889393406 -2.900393805723768
v 0.729112652835408 -2.390278948643020 -3.800835040724538
v 2.343173409637060 -0.857429719388113 -4.365257669906775
v 1.240935517711915 -2.164281106025006 -4.377935199902845
v -2.355533899797430 -0.818165183816684 -0.874556625374149
v 2.357503009231541 -0.812673243927658 -0.878650584417116
v -2.120191616326995 -1.318513269249926 -1.885247252635609
v 1.542210509372589 -1.959623040337044 -3.161180993344607
v -1.507448067055156 -1.984137179358146 -3.149210559869402
v 2.045573456411762 -1.419928056279213 -3.739092287175678
v 2.474713615358804 -0.259286981349647 -3.100278394175861
v -2.473695649347889 -0.299928354425351 -3.708156319904163
v -0.935206262663252 -2.313080259241565 -2.781889155315833
v 2.480959188771505 -0.221076242646335 -2.443115873838535
v 1.187696878492087 -2.193310999990048 -3.781539395916994
v -0.556229909993002 -2.433060305679695 -2.629283187914019
v 0.634524865657567 -2.416364081067812 -2.611015104399067
v 2.012438529372286 -1.470719883684382 -3.137762498262437
v -2.438925399890942 -0.516400433394976 -0.622175730331062
v 2.441642640506049 -0.503762662577233 -0.627563637919514
v -2.022014488593039 -1.449662308087221 -3.734704655474244
v -1.232971230016915 -2.166079989600458 -4.357763580793254
v -1.938190573015308 -1.569920643915629 -2.525509818938444
v -2.489185258564325 -0.158255084591294 -0.633584528326752
v 2.490442765097240 -0.140137249179983 -0.640298179645055
v -2.476279800654028 -0.284169303489999 -3.056980321798093
v 2.435020377830561 -0.548063685640980 -1.296797961560746
v -2.326426790711865 -0.905128603922648 -3.721144577738414
v -2.477844531495342 -0.243304194232825 -2.395944931934928
v -2.431971668467029 -0.563017361387993 -1.282542146809707
v 0.638213864612503 -2.413552678886725 -2.861293868249070
v -0.612511951919752 -2.420076885732701 -3.248760150490433
v 0.976702635130670 -2.298818131606044 -2.777009629353863
v -1.988093543406668 -1.510920822527973 -3.110141607435446
v 2.145921584817645 -1.266151905043142 -1.967890110597603
v -0.562813121421220 -2.432090027842315 -2.864186802526973
v 1.641144294546413 -1.871616636521475 -3.755920664218766
v 2.479991706444486 -0.270795378538589 -3.739808839462048
v 2.358946183356040 -0.813701766060231 -2.481178618262389
v -0.175436542054692 -2.492150360323297 -3.276424716190874
v 2.490989849907669 -0.137524416318158 -0.956163276083379
v -2.489843630199866 -0.154196772881959 -0.948115528507085
v -2.470780931762659 -0.305879026046096 -4.354835469788533
v -2.489996401009540 -0.179543969809797 -1.300894222917202
v 2.491200047336141 -0.158080733144963 -1.316680139371175
v -2.321319370519549 -0.908702345931204 -3.081916453898160
v 2.343330845966848 -0.867599469321075 -3.115292126573011
v 0.275381999400388 -2.652904167817455 -2.481672414484124
v 0.271353397040088 -2.826232657434048 -2.483769150767384
v -0.120447649699152 -2.664229539854514 -2.492997786521181
v -0.106241305779214 -2.833333333333333 -2.490869826666667
v 2.111914505163640 -1.945568083404043 -1.337469776601005
v 2.464579813651714 -1.687531454866160 -0.372183838504346
v 1.942042502886852 -2.524372512134413 -1.555393534179057
v -1.336563476431946 -2.333700204922859 -2.096826945419394
v 1.251335436510862 -2.416666669984713 -2.153647885959770
v -2.351675737669926 -1.689211256513852 -0.814249040044856
v 2.371909443798873 -1.704512937482924 -0.748023830708942
v -0.509043146120859 -2.621983841991629 -2.444403959546443
v -0.480141309972243 -2.796731782110075 -2.447737259415653
v -2.334044638489111 -1.145452982585003 -0.867446928833751
v 2.245229179109840 -1.308669144392683 -1.020513116031785
v -2.409046741678060 -1.220350091033234 -0.662136464490136
v 2.416099545680122 -1.221723867720693 -0.639615951717670
v 2.299800636835888 -2.416213298701446 -0.950885544726941
v -2.415681112809585 -0.860194162973560 -0.627179814565463
v -2.189107776736799 -2.417731542113783 -1.192931463844882
v 2.416269297621919 -0.852684057720457 -0.624036141587315
v -2.469959537485261 -1.225305160776290 -0.355415859549156
v -2.477483128197078 -0.869869804016710 -0.331975893686274
v -2.459242819589067 -1.667235873145203 -0.432943931482075
v 2.477472751882368 -0.860527147078063 -0.332764841073084
v 2.471887962971454 -1.226274001241051 -0.345292015157486
v 1.377993719456928 -2.619885998994204 -2.078513499867055
v -1.210332173740504 -2.667175964114373 -2.173990090130351
v -2.496992613913180 -2.331074464897546 -0.034180381462040
v 0.935339891736278 -2.515582994543286 -2.313950563531889
v -2.422822674501452 -2.350605531198824 -0.588352588672151
v -0.865815784201149 -2.540155847225272 -2.340638381907682
v 0.949484631735152 -2.718505488159126 -2.310593139817674
v 2.476842225369104 -0.504924508324672 -0.324885206360134
v -2.477432619562102 -0.520949403749264 -0.317693237205473
v 0.616519121790254 -2.793046919886268 -2.419415694958334
v -0.824934770749255 -2.749705751092118 -2.353432609843209
v -1.685068748502770 -2.560888814874299 -1.830265610488796
v 0.627211501339614 -2.596141704799419 -2.418149190884915
v -2.026495130702372 -1.922863315012615 -1.454067773258838
v 2.465556603849872 -2.362028180000366 -0.407568885884988
v -0.236920924623250 2.828749598067445 -2.486286091400780
v -0.253405713868013 2.654510587634121 -2.483278834300790
v 0.132563129949718 2.663343923969415 -2.492112170636082
v 0.134439430414993 2.833333333333341 -2.490869826666671
v -2.499203962761662 1.707760681563629 -0.008365238608211
v 1.960126692883234 2.519517750764839 -1.531285994664557
v -1.908752271477750 2.484324441252979 -1.601286172109175
v -1.241677065532212 2.417095890343591 -2.159174074263952
v 1.297786293551719 2.451005191047935 -2.125854037418262
v 0.496145002959834 2.634657390672232 -2.446666050434806
v -2.325902992986657 1.128617530259211 -0.889272830052795
v -2.391804995973315 1.188406010518424 -0.709716610105590
v 1.954674690000007 1.442290142000005 -1.442290142000002
v 2.325775233900302 1.132230545779718 -0.889745075291944
v 2.391549477800593 1.195632041559429 -0.710661100583884
v -2.339102923345487 1.599192472952524 -0.851888041505048
v 2.342620128367258 1.606619875220515 -0.839959864174322
v -2.250662095763050 2.308211680813660 -1.064580654772017
v 2.270814762355275 2.326456101476264 -1.019377403248913
v 1.445193736345185 2.693228425239813 -2.034648623478874
v -2.467898910982756 0.898920281083053 -0.381302820313358
v -2.458210840228736 1.221816235016028 -0.417702128463998
v 2.467861977020785 0.908755220801141 -0.381036946315458
v 2.400582783195116 0.914665862736691 -0.694895194904642
v -2.400690280612563 0.908626142745351 -0.694883699398159
v -1.359787282254061 2.619508802247427 -2.088664323282653
v 2.147488029618476 1.743895516694334 -1.266809193311113
v -2.138251868249464 1.744267855784999 -1.283877454573098
v -2.498672039129157 2.315561283947208 -0.015092910528273
v -0.927134723705088 2.518458772534071 -2.317224165431135
v -2.475260957934856 0.571000340825845 -0.350611906241025
v 2.474491288047044 0.584700908490244 -0.353877771419944
v -2.433490902334697 2.297393300908568 -0.544624738059837
v 2.441679549778393 2.308365229911040 -0.515013622663947
v 0.868224089227282 2.571746230625750 -2.338996059035155
v 2.454325286244621 1.649917632919573 -0.472075866045842
v 2.459151264348630 1.230490207584080 -0.413133588943121
v -2.452114259070376 1.642052522258986 -0.483320491905621
v 0.490059241205950 2.808016370527350 -2.445672744898028
v -0.590426623705648 2.792990824147221 -2.424968377719436
v -0.929868364459004 2.722383727890170 -2.317517321206333
v 0.872137786331407 2.776695327129976 -2.338313343731587
v -0.609105457346240 2.600180492629349 -2.422235264337585
v -2.499874675144707 1.256196100844313 -0.002251700622837
v -0.168695548623681 2.660702720873561 2.489470967540227
v 0.192419076096707 2.832002588717194 2.489539082050527
v 0.197719431677797 2.658581136640098 2.487349383306765
v -0.166452016387882 2.833333333333333 2.490869826666667
v -2.499132447351725 0.202612616596271 0.011931086306008
v 2.499595566188952 0.225664153165922 0.005562007924416
v 2.499047538614738 1.716366190508184 0.010008155544401
v -1.962900810147731 2.516750977510051 1.527628189496176
v 1.917476862156880 2.487663865374268 1.589456037763981
v 1.267703570841228 2.424748020883706 2.143995417600073
v -1.301443102834773 2.449644720723198 2.123800142021746
v -0.515975277234781 2.632871685799167 2.442972533131496
v -2.392707380283469 1.186017973369268 0.707065035863137
v -2.326354185141734 1.127423511684635 0.887947042931568
v 2.390513965525369 1.193233808094395 0.713504634068854
v 2.325257477762685 1.131031429047198 0.891166842034426
v 2.338864755457930 1.602489189729652 0.852359963515630
v -2.342987208941696 1.602171104632068 0.839185984239290
v 2.252521832443217 2.312788744197116 1.060250289382762
v -2.272242201370804 2.322649977541895 1.016471672864656
v -1.454444284447393 2.692651395976989 2.027949153079294
v -2.467189559963954 0.893962106345325 0.385269878973420
v -2.458798623263239 1.219858360452510 0.414650078138290
v -2.400165525628460 0.901399024783872 0.696526073293933
v 2.399429405238513 0.913153649222544 0.698149446112950
v 2.466425650266949 0.907774566478901 0.388896806703055
v 1.395346318211823 2.639697937675106 2.069610182396911
v 2.138614160627245 1.746036604479754 1.283254311037352
v -2.148622076541402 1.741014340216643 1.264634731860669
v 2.498809792807283 2.320459157318455 0.013527274081852
v 0.910881614039068 2.546985719819908 2.324225010443948
v 2.472888702689994 0.584759530196881 0.361385042410643
v -2.472935247495892 0.563261042257034 0.361415270525411
v -2.442153704563530 2.303546370931316 0.512885790335106
v 2.434064240286414 2.302169161023972 0.542854171633139
v 2.499656402561552 0.899488421004321 0.005029095429750
v 2.499660477639228 0.575466573755191 0.004969450181498
v -2.499514636336240 0.558526030512859 0.007118474076705
v -2.499818833138070 0.886679752884092 0.002657041938809
v -0.880989079114312 2.569608330583528 2.334662791289037
v -2.454254113160033 1.642832242435855 0.471902522936213
v 2.451903412037140 1.647399336663720 0.484859519139903
v 2.457453941290570 1.228992418545049 0.421965677625268
v -0.511698809724491 2.807918815870040 2.441077171457195
v 0.536615330847852 2.806319693607260 2.435851480856635
v 0.911973641937493 2.754092443732821 2.324359493926670
v -0.886818449327926 2.774274593181034 2.333323955152359
v 0.542293188653636 2.627379685513724 2.437598826332648
v 2.499579106166246 1.266162076644443 0.007560149410958
v 0.130688961555409 -2.663480921700160 2.492249168366826
v -0.265579408571517 -2.826654723732906 2.484191217066239
v -0.269193957804709 -2.653356500520868 2.482124747187535
v 0.113400794241988 -2.833333333333333 2.490869826666667
v 2.172522358818431 -2.435910346685043 1.228099240998944
v 2.499458271350817 -0.135800714964106 0.007450166028332
v -2.498662804326514 -0.162884103260769 0.018389889097987
v -2.497971508131591 -1.711548520740067 0.021314735121269
v 2.494643248997393 -1.729083853474775 0.056304006487915
v -1.924648874629708 -2.471768129166915 1.580244894600202
v 1.336656027388147 -2.334069897740920 2.096779146090599
v -1.248091874427560 -2.414638278682742 2.155574554184540
v 2.347301199251132 -1.702194328451945 0.829572768319079
v 0.486191227593118 -2.795836163425226 2.446614708018950
v 0.516593519025823 -2.620862649570223 2.443003042415121
v -2.364389289289346 -1.226232190178066 0.757385880246419
v -2.216280019644673 -1.315374910089033 1.080951755123210
v 2.404163149324205 -1.217043806024139 0.676700166689213
v 2.332082069662103 -1.142936428012070 0.872764608344607
v -2.339415364345754 -1.597229108686691 0.851073690249683
v -2.264211219795890 -2.303312830771745 1.035216145472362
v 2.411718075943373 -0.852713268326197 0.645182862563930
v 1.676427196378685 -2.565541903509394 1.837904167305373
v 2.472256101592522 -0.859644808199845 0.360069632224690
v 2.464065538167698 -1.223631635717152 0.386641792701494
v -2.398617370554931 -0.893848686711264 0.701067682853231
v -2.455619383431680 -1.212367133139865 0.431825813131204
v -2.464653539832208 -0.879382854346167 0.399568907332582
v -1.373542641459657 -2.613276566455146 2.080736645224023
v 1.210943037318517 -2.667689621428612 2.173669314286916
v -2.086880338754267 -1.807066976912163 1.347285016915069
v 2.490716880569746 -2.357039015353946 0.105507092912039
v -0.934561385701374 -2.515215951417611 2.314246699320360
v -2.471015065491565 -0.544148627347808 0.370701822413490
v -2.443291052220294 -2.303392300070959 0.508633915351722
v 2.410241188889893 -2.368940342407767 0.636541240659323
v -2.497657122948218 -0.867322990200194 0.034291734906016
v -2.498078716867157 -0.527204716189406 0.028121036834078
v 2.498791254557523 -0.852422812130273 0.017727785864848
v 0.870313132770752 -2.539164934248090 2.339117878806523
v 2.454781869349801 -1.675401263000314 0.471618978632369
v -2.451822527558948 -1.639727897489840 0.484689457783462
v -0.948585905986476 -2.717227446253022 2.311046541985206
v 2.499226646704904 -0.502174131395793 0.010963373531155
v 2.475385435652807 -0.505718569145839 0.345613062575856
v -0.614656483594330 -2.792894231717481 2.419817963770943
v 0.828186751969547 -2.748947411507002 2.352321570069059
v -0.624794492060198 -2.596565500630284 2.418691948974740
v 1.993114171127545 -1.961499088544558 1.498799567832599
v -2.497719762447630 -1.242788852777433 0.040957921466637
v 2.498160145820060 -1.244419656939045 0.033069311270518
v -1.431032213256449 3.000000000000009 1.260211633892470
v 0.233985016506006 3.000000000000006 1.671032929716860
v -1.662063977284683 3.000000000000019 -0.685874434923951
v 1.650781415101465 2.999999999999972 -0.649453775152724
v 0.732314172158734 3.000000000000085 -1.530297827944390
v 1.657243824327312 2.999999999999987 0.685869235817219
v -1.433979587319211 2.999999999999943 -1.276681409368971
v -0.734686451395584 2.999999999999968 1.513907948231639
v 0.211539551338230 3.000000000000028 -1.664828751551363
v 0.915207876406743 2.999999999999986 -0.797717119675991
v -1.013721108038866 2.999999999999910 -0.006983804577676
v -0.329069740614445 2.999999999999910 -0.000843572014382
v 0.287308166563307 3.000000000000044 0.917748513643087
v -0.917936542540113 2.999999999999969 0.792467611140919
v -0.294629125781494 2.999999999999979 0.910234944756823
v 1.006043480635332 3.000000000000046 0.006236306772485
v 0.315425708604280 2.999999999999939 0.003339880197793
v -0.305074190510672 2.999999999999990 -0.916694483231813
v 0.277622032144444 3.000000000000075 -0.910344260404194
v -0.222348443192317 3.000000000000019 1.662152068775360
v 0.747875842522996 2.999999999999971 1.534964630846992
v -0.930762569772343 2.999999999999977 -0.813390109711873
v -0.259614308284362 2.999999999999977 -1.656719095360864
v -1.655292998338464 3.000000000000014 0.656771885110282
v 0.917668734423090 3.000000000000014 0.822505278893089
v -1.768987550149621 3.000000000000024 -0.015220621107021
v -0.772551962361694 3.000000000000012 -1.520198504384100
v -0.635866750358095 3.000000000000005 -2.067949684996995
v -0.235313810125500 3.000000000000016 -2.160834061338839
v 1.131258135838245 2.999999999999976 -1.847973358682589
v 0.605385968145960 2.999999999999999 2.082291719964262
v 0.571187198845755 2.999999999999999 -2.090606065046197
v 0.164494182006067 3.000000000000047 -2.171225707297603
v 1.157456664089133 2.999999999999989 1.837024895967856
v 0.208541021979762 3.000000000000000 2.160215460984217
v -0.593731222743900 2.999999999999996 2.087116367378343
v -0.177218642616752 2.999999999999996 2.169636446721037
v -1.158592479425828 2.999999999999992 1.826988499681168
v 1.425480641905832 2.999999999999999 1.285145475537723
v 1.769035837348603 3.000000000000087 0.012827616491787
v 1.419793915343378 3.000000000000057 -1.276299834951338
v -1.177231360580481 3.000000000000000 -1.827601022113293
v 0.394798666114978 -2.999999999999975 -1.534993038780911
v 1.652130178274838 -2.999999999999996 1.020421106571442
v -1.780710545835659 -3.000000000000000 0.515223831058127
v 1.844367135634127 -2.999999999999990 0.259499521698739
v -0.519449408018871 -2.999999999999983 -1.460748427941363
v -1.021195322381462 -2.999999999999998 -1.232697629304678
v 1.794928719035180 -2.999999999999985 -0.464323018668628
v 1.028622802415369 -2.999999999999974 1.272418225249123
v -0.519515503709357 -3.000000000000007 0.627337034994855
v -0.903308356857562 -3.000000000000019 1.372510364922705
v 0.575396428016846 -3.000000000000048 0.530065513120094
v 0.524855545891569 -2.999999999999964 -0.596603540208577
v -0.877114969648793 -3.000000000000008 -1.934690470681119
v -0.075509313985581 -2.999999999999997 -2.159675276699525
v 0.467778826834516 -3.000000000000000 2.100814095817569
v -1.170732662799065 -2.999999999999994 -0.349969623479695
v -0.575064047407230 -2.999999999999984 -0.497824430389430
v 1.180398469606163 -3.000000000000007 0.392547353121038
v -0.026626947962843 -3.000000000000018 -0.585949979075088
v 0.029217206573465 -3.000000000000014 0.619382819426868
v -0.387913932487964 -2.999999999999992 1.536169811291441
v -0.057052840548763 -3.000000000000008 -1.554989779175042
v -1.536887633291010 -2.999999999999997 1.182494729970281
v 0.071882692059543 -2.999999999999985 1.575381507316780
v -1.118281770515043 -3.000000000000001 0.571018337292327
v 1.129040792371765 -2.999999999999980 -0.535126186997422
v 1.548147033052715 -2.999999999999980 -1.158080485983191
v 0.882366638666554 -3.000000000000000 1.941861365921789
v -0.706789779314830 -2.999999999999997 2.023034552166798
v -0.299886617620146 -2.999999999999999 2.133673819429568
v 0.710013896002752 -2.999999999999995 -2.019181148627816
v 1.252618035350780 -3.000000000000013 -1.759718625165441
v 0.089572024785525 -2.999999999999999 2.164505236401675
v 0.304904007178093 -3.000000000000001 -2.130064366285602
v -0.458483234302315 -2.999999999999996 -2.115954486736823
v -1.383970001649973 -2.999999999999992 -1.648079764374433
v 1.369935150322574 -2.999999999999995 1.663938109663249
v 0.522426879269280 -3.000000000000007 1.482640741123265
v -1.647682584207228 -2.999999999999999 -0.990946964773878
v 0.913008449019536 -3.000000000000044 -1.370890772954118
v -1.843994026853059 -2.999999999999994 -0.196961105620401
v -1.252623014458906 -3.000000000000004 1.764246402115338
v 0.140801678135303 2.492126735819018 -2.944445638897062
v 0.203210465057710 2.486720585508683 -3.853500888828153
v 1.177582009532822 2.197788482219249 -3.854879553905331
v -1.078690679313736 2.248598680664667 -3.196125379045965
v -1.403259097907658 2.060242628404144 -2.318397154022605
v -1.377224977341737 2.082052011103928 -2.658781319796757
v -2.471631499513757 0.299950951806180 -4.349589847682225
v -2.319389644405228 0.906996052977536 -3.696689421163440
v -0.255304842368540 2.483593128439870 -3.289719542054016
v -0.669351925685587 2.402377574567223 -3.256810036816339
v -1.665984173430741 1.855808075452869 -4.350294355885623
v -1.926756883705540 1.585290808435638 -2.504040645441771
v -2.484005159937139 0.219970301077514 -0.326022751689443
v 2.482620914017300 0.239007252404081 -0.332828167164141
v -2.466864105402356 0.347212694917323 -1.708299926632536
v 2.465754353873630 0.357484518462225 -1.734769049792214
v 0.133808928412929 2.493484412921826 -2.693885750268187
v 2.356796106554099 0.794509343796774 -1.675633357466793
v 1.080534324634598 2.245339199007722 -3.338321938809544
v -2.051929640405736 1.416400863823254 -4.337986143117465
v -0.268863245117183 2.482673492678013 -3.834167150456183
v 2.327394747444461 0.902333645305665 -2.409459696135549
v -2.359384415527277 0.784120925508138 -1.643367120885823
v -0.284631270142176 2.470761711246436 -4.405251571709195
v 1.676477329792458 1.843410808003510 -4.396012461252992
v -2.397233286108227 0.696801102438209 -1.239570463351623
v -2.328617138054113 0.882815076219104 -1.154199756675810
v 2.229832455971163 1.057345033348533 -1.329825875833251
v 2.391494161942331 0.710172436697072 -1.255134121666508
v 0.219029299286692 2.481118405354210 -4.407658364853487
v 1.643050561925667 1.872533199963238 -3.835276012966514
v 1.327915162476799 2.109301539969220 -2.456006467875255
v 0.884062115264322 2.331113738763091 -2.595727165493302
v -2.413320196359131 0.642662497976463 -0.951165766020188
v 0.733229416229992 2.381495171217861 -4.406259293786707
v -0.940462786481013 2.311111167133380 -2.528748690591211
v 2.411467359587264 0.651449097955123 -0.956776192598239
v -0.771294626581489 2.367987056235099 -4.394231094832202
v 2.044409454300194 1.424614556585165 -4.395003775836123
v -0.263510255943165 2.484103852272284 -2.684365930453287
v -0.255562514296343 2.482248742057543 -2.912010343293257
v -0.726021221842366 2.391444668499631 -3.809119511918007
v -2.334360582699222 0.883109736317962 -4.344332460454222
v 0.683612939083429 2.402376110619608 -3.863422969512353
v -1.236179326422626 2.167414331144164 -4.374393030354096
v 2.339123075635583 0.862004568225387 -0.886914458096039
v -2.340252214061885 0.858963641706059 -0.886448561356581
v 2.155174088741230 1.251647521562624 -1.768110497157092
v -2.183426427304664 1.200959431064547 -1.691799538916685
v -1.516257050128165 1.978574805694967 -3.132392976334337
v 1.582063948280787 1.926444525118301 -3.292149197078623
v 2.015840250207997 1.469395097638230 -3.208320838584580
v -2.468676847834584 0.333648332999028 -3.040801311765952
v -2.022645088700578 1.449609911726844 -3.703175871428718
v 2.470794324831670 0.332663038161687 -3.746750600935134
v 0.947798847592296 2.310729569697180 -2.902296432437991
v -2.470155913608632 0.345168089808817 -2.365051866416891
v -1.178217334591831 2.199352697373818 -3.774762317745919
v -0.626518749135502 2.418190743733258 -2.613763164668417
v 1.474702386173324 2.008161778799230 -2.806770100027828
v -1.980398993758532 1.522315740871627 -3.072104008782537
v 2.418451038658364 0.609451505488471 -0.666515135910127
v -2.420797015178497 0.598729329458497 -0.662304386311513
v 2.031360037566177 1.439304033875020 -3.804385439897092
v 1.234748647559329 2.163940826849354 -4.400720420819020
v 0.511726087238030 2.441649013960611 -2.663505175312221
v 2.014572318215641 1.466512394271163 -2.566744172443563
v 2.471408071428143 0.341916039965653 -3.099661647819433
v -2.475303018561950 0.330235409621532 -1.282407929675181
v 2.322228876889317 0.915161905334291 -3.768025747096434
v 2.468736493013663 0.349711664801796 -2.419248612840321
v 2.473305532211008 0.341887881561475 -1.295933229617541
v -0.632695363901167 2.415188830004395 -2.865226803540398
v 0.606730946572386 2.418944491580779 -3.345290318752348
v -0.970035046985245 2.301065975644944 -2.775417590510653
v 0.531131193164167 2.439208142918277 -2.934160780587603
v -1.624318396831967 1.886038444064511 -3.733873808990349
v 2.481705520025922 0.264026983189152 -0.650578471513387
v -2.476725186144060 0.315004975863375 -3.699312471151229
v -2.482860891875381 0.247955251178412 -0.643902943825734
v -2.321410179165855 0.919651760904390 -2.334471798340846
v 0.164396706683376 2.491835182847945 -3.329626420185539
v -2.481865714509610 0.283058656711050 -0.959798755689105
v 2.326405303916935 0.908204839974617 -4.385437952099798
v 2.480847842989548 0.299549782137256 -0.968960201531980
v 2.469589708487475 0.325842526934407 -4.376277202902751
v 2.316902366456377 0.922194841216522 -3.129454273904861
v -2.309330504242337 0.940943820991467 -3.041354538096328
v -1.198648578630563 2.183726988339621 3.854663822961946
v -0.174512827939263 2.491990634997249 2.957205024550226
v 1.418460292167289 2.051890841631216 2.338585963447346
v 2.472398992153433 0.293561709706870 4.360758942029721
v 0.222789200180407 2.488292498122354 3.327384172399905
v 2.324667624156656 0.896603148097617 3.722370952415778
v 0.208659330322431 2.489250727179571 2.943144235519569
v 0.649138859811900 2.409895909709842 3.327286028755309
v 1.666715537452746 1.854070724958485 4.374514818108210
v -2.485029367668304 0.205884803372874 0.346457473368369
v 2.482666174623527 0.238384802342647 0.342034096346155
v -0.221338852280715 2.483925166164362 3.868795268750054
v 1.086690905277742 2.245689386612769 3.285040445196707
v -2.473178123429686 0.279989041369346 1.722701292230035
v 2.466508774441364 0.350936011340690 1.723773983725616
v -2.368160347725230 0.756606340214615 1.659775635142187
v -1.103084519088964 2.235653030209777 3.338499139632219
v 2.055091918107067 1.411076581287309 4.357962720192614
v 0.249522902502481 2.483971775526632 3.867412253147596
v -1.686746025048441 1.834201219510633 4.393846133460928
v 2.358374045349155 0.788131984584635 1.658371963010379
v -2.335166430197257 0.884256528872205 4.376165382603740
v -2.236206523902401 1.043250528122113 1.325309779837874
v 2.327568363223683 0.885855406197060 1.157982952370925
v 2.395135736447366 0.702881762394121 1.247136854741851
v -0.751183936697383 2.375477493833769 4.412615611202972
v -2.402810587709585 0.679520345411038 1.251613625666643
v 0.763661986567550 2.370228637546210 4.416998768923704
v -0.170558545054424 2.491507293958005 2.694508659707360
v -1.337569630049077 2.103740326334207 2.452202731172898
v 0.274155770876675 2.471684550872765 4.421989937396365
v 1.952977130842655 1.554066632292995 2.526775891441783
v -0.898109554025909 2.326017401662501 2.593629350346020
v -1.659417644901299 1.857907147762878 3.829935396187858
v -2.346377986432737 0.857736217124981 2.375374382697458
v 2.411783528399195 0.650128780239292 0.957893933905838
v -0.231135146898237 2.480453676222516 4.417586907554665
v 0.928151090436565 2.316580146414096 2.564719406124484
v -2.055565136920618 1.409911987471734 4.390235617006694
v -2.417104327261588 0.625318805399021 0.956906044884848
v 1.433155570036379 2.042908503516748 2.709642592412862
v 0.714762617959314 2.394704224152843 3.857579422141420
v 2.336874079151551 0.876714256682190 4.358800833635108
v 1.232133582549539 2.168760578620566 4.399617471413290
v -2.482324112984513 0.287615699540361 1.292827459259761
v -2.341790955005484 0.854636868128753 0.891394330791267
v 2.339189122237376 0.861743404820807 0.888873472189096
v 2.180437045529256 1.206389882066388 1.703775773579304
v -2.138860331016526 1.264679907735141 1.785394084922280
v 1.554957518931939 1.951298952335502 3.211525324703018
v -1.601410528500042 1.912357062561385 3.286683328830160
v -2.032144081299049 1.443589863348640 3.191241949552608
v 2.468937684469684 0.327068990370385 3.065873347168219
v 2.031874965846198 1.438772542002237 3.738740166765047
v -2.474403894095749 0.291852782267802 3.717674179940333
v -0.963938460759887 2.305216356446018 2.901431133585255
v 2.470396869248341 0.343057938289353 2.389517483913511
v 1.180709981866685 2.196520964291092 3.829087378258907
v 0.559097612206990 2.433854533567303 2.650509964665331
v -1.492412302799145 1.994362450575120 2.800386609147379
v 1.997136187128983 1.494741717370163 3.122330507583582
v -2.423636132465759 0.585608789174784 0.670825081632956
v 2.418538413404747 0.608918682401403 0.671458233162603
v -2.045546680811444 1.418146831780751 3.792625408330784
v -1.251060654719261 2.154221888350886 4.403020427327279
v -0.533821561392304 2.437644000012750 2.662701519890928
v -2.032125071921251 1.440400385660761 2.541415584665734
v 0.203507593502875 2.488879354189537 2.695467925527518
v -2.476077743463456 0.286612304583432 3.056332182771183
v 2.474060155478431 0.337833448554556 1.293990769619743
v -2.336194343408308 0.884286416817925 3.747273109476805
v -2.474509175751860 0.279005182166621 2.370698772954267
v 0.579141339826197 2.430709353708275 2.926099804248949
v -0.632873720181285 2.412979852520037 3.352014753240972
v 0.969755759742561 2.302589015765198 2.851144374883313
v -0.553194789546485 2.435403422630196 2.937605534836528
v 1.632588696396905 1.880387212523573 3.782166496509486
v -2.484674119714258 0.222864759951634 0.659517646514588
v 2.477266996830416 0.307672025180254 3.719194669826008
v 2.481848511208889 0.262826779937660 0.656706586093096
v 2.323300149271647 0.913400502282357 2.363640540847759
v -0.704654416292094 2.390394151216274 3.866745626100036
v -0.194726217760376 2.489477086959547 3.349270736190535
v 2.481111068945518 0.296529736082838 0.971084478731418
v -2.484582252469985 0.240175370153000 0.967657877340544
v -2.471748619614150 0.296630912073474 4.362708812895495
v -2.331969729111602 0.883457777247173 3.100595267269317
v 2.315960673102837 0.927414684578368 3.072866193380469
v 0.306318312276667 -1.787341613024271 -5.000000000000083
v -1.635001737224155 -0.932405329511180 -4.999999999999972
v 1.795496739966145 -0.287870296542342 -4.999999999999631
v -0.302827532632296 1.788827344223940 -4.999999999999517
v -0.270361085204275 -1.788127439576369 -4.999999999999952
v -0.853511372887250 -1.681615901162086 -4.999999999999996
v 1.053412133394364 -0.316689192359306 -4.999999999999890
v 1.047434275212609 0.336071345628323 -4.999999999999997
v -0.321450536298592 1.050847845951317 -5.000000000000639
v 0.345700637504670 -0.340099077993146 -4.999999999999991
v -0.336910329251010 -0.344372530420793 -4.999999999999900
v -1.047280456564635 -0.329875506990660 -4.999999999999924
v 0.324664586974577 -1.049428257215306 -4.999999999999959
v -0.307081622663610 -1.053149112642130 -4.999999999999955
v -0.969036233123402 0.997662055077062 -4.999999999999977
v -1.049629609687781 0.324009098291532 -5.000000000000057
v -0.343818133066322 0.345358308803737 -5.000000000000028
v 0.340191450659100 0.347697995487284 -4.999999999999950
v 0.311515324029189 1.054508463385718 -5.000000000000004
v 0.957596143120115 0.997162396410882 -5.000000000000103
v -0.956773892445102 -0.996173491920926 -4.999999999999908
v 0.863658780375481 -1.678077941203398 -4.999999999999929
v 1.790433356500245 0.316196511838860 -4.999999999999907
v -1.792400931939611 0.296754289071091 -4.999999999999845
v 0.853271288529891 1.678611605652749 -5.000000000000068
v 1.415458669117072 1.525824095272863 -5.000000000000020
v 1.422129003882720 -1.525141895627616 -5.000000000000034
v -1.418135635477412 -1.527877833506295 -5.000000000000004
v -0.865236970755118 1.681598323631956 -5.000000000000022
v -1.425207322092157 1.524305955181912 -5.000000000000007
v 0.970452034084025 -0.993869218818633 -5.000000000000047
v -1.790565541450391 -0.310372227153104 -5.000000000000126
v 0.272820794407478 1.788205160276810 -4.999999999999822
v -1.637882970201481 0.920849030830679 -4.999999999999910
v 1.632199973833620 0.935431066231773 -5.000000000000152
v 1.643860026363337 -0.906730223958440 -5.000000000000130
v 0.299434843860972 1.788095560238386 4.999999999999972
v -1.637562889126645 0.926980823072493 5.000000000000023
v 1.794215323235583 0.294278264711010 4.999999999999897
v -0.291703563918182 -1.791046232648118 4.999999999999989
v -0.277788653681111 1.786978392744887 5.000000000000074
v -0.859187586300174 1.678678814769787 4.999999999999994
v 1.052897519582206 0.319443422309342 5.000000000000085
v 1.049067328227288 -0.334627699021916 4.999999999999971
v -0.315159809203613 -1.053393970347016 5.000000000000016
v 0.345121060655851 0.340550576519636 5.000000000000004
v -0.337480155384619 0.343030666391493 5.000000000000006
v -1.047819918414709 0.326858092377457 5.000000000000037
v 0.321203880412741 1.050322305235957 5.000000000000025
v -0.964435926407971 -1.000329451520274 5.000000000000013
v -0.310998056342366 1.052033535265076 4.999999999999917
v -1.047534783231179 -0.326669986491432 5.000000000000005
v -0.341082176112137 -0.347098071560090 4.999999999999964
v 0.342710026545610 -0.348177429636527 5.000000000000044
v 0.318333982353418 -1.056525364543644 4.999999999999986
v 0.960790889221278 -0.998177739217387 4.999999999999895
v -0.959694965681283 0.993124440292434 5.000000000000021
v 0.858590606710318 1.680697891828549 5.000000000000061
v 1.791808944944732 -0.311863565712642 5.000000000000083
v -1.790844624276791 -0.300651454773317 5.000000000000002
v 0.860275090425497 -1.678685611951824 5.000000000000014
v 1.416805329979336 -1.526796592619654 5.000000000000024
v 1.418534638019641 1.528320654128842 4.999999999999962
v -1.421902386839411 1.524681041623397 5.000000000000000
v -0.857264972688618 -1.684645996728918 5.000000000000004
v -1.421931855572081 -1.526824572534614 4.999999999999993
v 0.967530797276203 0.996836718721537 4.999999999999968
v -1.791492546034711 0.305262576839450 4.999999999999989
v 0.285355198814048 -1.788946669853040 4.999999999999973
v -1.635100685844440 -0.923546616716275 5.000000000000009
v 1.633406154482102 -0.935176902137845 4.999999999999972
v 1.641144679321283 0.913066251584752 5.000000000000148
v -0.896549126178573 -2.324805821086331 2.324805821086331
v -0.803860051232772 -2.363697813350368 5.000000000000000
v 0.806807336167912 -2.362385597550182 5.000000000000000
v -0.285774063744689 -2.481107114769034 5.000000000000000
v 0.261990772506554 -2.486162409465542 5.000000000000000
v 0.868386265571024 -2.336073725330786 2.336073725330786
v 2.319439956299919 -0.907348968692796 5.000000000000000
v -2.327698995020201 -0.881930261581062 5.000000000000000
v 1.293267855710459 -2.133627572602687 5.000000000000000
v 2.032259142716236 -1.452633393402963 5.000000000000000
v -2.038002855260859 -1.442684991207465 5.000000000000000
v -0.641549846047569 -2.410671763706648 2.410671763706648
v 0.562916991649858 -2.428421589316550 2.428421589316550
v -0.272808507037900 -2.480058277308832 2.480058277308832
v -2.469057692465089 -0.294396382729935 5.000000000000000
v 0.160071763863603 -2.488299093894419 2.488299093894419
v 2.467604898156400 -0.308218796874259 5.000000000000000
v -1.287894664254187 -2.137531424722687 5.000000000000000
v -0.147999483365436 -2.489181551969347 -2.489181551969347
v -1.288843405390617 -2.136842123936194 -5.000000000000000
v 0.897464761242102 -2.324439477327347 -2.324439477327347
v -0.791669830289141 -2.369125249408304 -5.000000000000000
v -0.236819824155643 -2.486304740000000 -5.000000000000000
v 0.817884198904208 -2.357453860504414 -5.000000000000000
v 0.305540946830031 -2.476905533994226 -5.000000000000000
v -0.864890175284480 -2.337472504067354 -2.337472504067354
v 2.334473825925849 -0.861079476355985 -5.000000000000000
v -2.321841795653150 -0.899956867370003 -5.000000000000000
v -2.036526064634502 -1.445242867667228 -5.000000000000000
v 2.043700980688971 -1.432815548215870 -5.000000000000000
v -0.553338833911599 -2.430583670685977 -2.430583670685977
v 0.644529426439335 -2.409999181835500 -2.409999181835500
v 2.471255471970200 -0.273485908111568 -5.000000000000000
v 0.279410601760688 -2.479575678200864 -2.479575678200864
v -2.468164855906331 -0.302891154911062 -5.000000000000000
v 1.290365362941507 -2.135736357045150 -5.000000000000000
v -0.097506628608161 -3.000000000000000 -2.486304740000000
v 1.957236507474473 -3.000000000000000 -1.541992770941228
v -2.062061990046281 -3.000000000000000 -1.401013346350313
v 2.261385002784338 -3.000000000000000 -1.055775752697907
v -2.367021405174798 -3.000000000000000 -0.760908329065754
v -2.488031063896083 -3.000000000000000 -0.113876817045505
v 2.454914323221660 -3.000000000000000 -0.428961548569024
v 1.026178273295687 -3.000000000000000 -2.264715363373444
v -0.803689399949929 -3.000000000000000 -2.363773792196864
v -1.218321560764246 -3.000000000000000 -2.179167659888859
v 0.614836170652510 -3.000000000000000 -2.411162803562628
v 0.266265289609177 -3.000000000000000 -2.485253832792000
v -0.451950296669017 -3.000000000000000 -2.445785265468339
v -0.269890503112774 2.480271577200827 -2.480271577200827
v 0.133876171209988 2.490213936104074 -2.490213936104074
v -0.224869965966600 3.000000000000000 -2.486304740000000
v 0.139690065233935 3.000000000000000 -2.486304740000000
v 1.940945635406438 3.000000000000000 -1.560085617201557
v -1.927838966173331 3.000000000000000 -1.574642047970226
v 2.220047466545405 3.000000000000000 -1.127374467480546
v -2.199977887177489 3.000000000000000 -1.162135999485386
v -0.893316513263472 2.326099183053154 -2.326099183053154
v 0.832522725409208 2.350422656074782 -2.350422656074782
v -2.420296525235059 3.000000000000000 -0.596944371634626
v 2.432490601863913 3.000000000000000 -0.559414863319605
v -2.497965592936231 3.000000000000000 -0.019356089713034
v 0.923413022884435 3.000000000000000 -2.310469400823955
v -0.989119589260824 3.000000000000000 -2.281214952586843
v 0.506267015139817 3.000000000000000 -2.434239890353189
v -0.579614190639499 3.000000000000000 -2.418649466656371
v -0.633377027329792 2.412516617338034 -2.412516617338034
v 0.507794156610033 2.440864488872651 -2.440864488872651
v -0.171296356058300 2.487478600034831 2.487478600034831
v 0.203019787258887 2.485159684563010 2.485159684563010
v -0.167798610247094 3.000000000000000 2.486304740000000
v 0.190293560805479 3.000000000000000 2.486304740000000
v 1.930098168039889 3.000000000000000 1.572132950122548
v -1.945108245826776 3.000000000000000 1.555462570009100
v -2.222481883735720 3.000000000000000 1.123157933116624
v 2.202743536180098 3.000000000000000 1.157345754779409
v 0.861708416116248 2.338745519551687 2.338745519551687
v -0.840031927973787 2.347418239136141 2.347418239136141
v 2.421864562612820 3.000000000000000 0.592118448885571
v -2.433675520424674 3.000000000000000 0.555768059028292
v 2.498420800106615 3.000000000000000 0.015025082912627
v -0.945167464918490 3.000000000000000 2.300783699173272
v 0.961900698235215 3.000000000000000 2.293333583684061
v -0.528542712041933 3.000000000000000 2.429505044730574
v 0.547306883272477 3.000000000000000 2.425516596943581
v 0.561109208579091 2.428829660910699 2.428829660910699
v -0.526909244972158 2.436549632346783 2.436549632346783
v 0.103342391185804 -3.000000000000000 2.486304740000000
v -1.944294820686611 -3.000000000000000 1.556365970142857
v 2.046946470052053 -3.000000000000000 1.427194195605635
v -2.233372463996139 -3.000000000000000 1.104294894318760
v 2.352568165784625 -3.000000000000000 0.805390825312251
v 2.481877949101160 -3.000000000000000 0.172419792100084
v -2.447808276996518 -3.000000000000000 0.496571060297687
v -1.026829255701354 -3.000000000000000 2.264425527332084
v 1.219041513695746 -3.000000000000000 2.178847116190881
v 0.806346409498488 -3.000000000000000 2.362590815325746
v -0.261847502207043 -3.000000000000000 2.486192862508312
v -0.613467651842093 -3.000000000000000 2.411453691220485
v 0.456594560834021 -3.000000000000000 2.444798096629197
v 1.288833731800997 2.136849152210480 -5.000000000000000
v -0.815293243562079 2.358607428147971 -5.000000000000000
v 0.790570780051512 2.369614578101916 -5.000000000000000
v 0.241492486008704 2.486304740000000 -5.000000000000000
v -0.301777191240161 2.477705544954943 -5.000000000000000
v -2.328815987719487 0.878492511592145 -5.000000000000000
v 2.318827556023492 0.909233742912757 -5.000000000000000
v 2.035669880923947 1.446725821390916 -5.000000000000000
v -2.039297091733848 1.440443307824226 -5.000000000000000
v -2.469582424662756 0.289403889499732 -5.000000000000000
v 2.466767476657975 0.316186329989842 -5.000000000000000
v -1.292845652441978 2.133934321233951 -5.000000000000000
v -1.294297959031876 2.132879158728389 5.000000000000000
v -0.801843431558211 2.364595670279086 5.000000000000000
v -0.248504998128241 2.486304740000000 5.000000000000000
v 0.809133835015432 2.361349773524336 5.000000000000000
v 0.294786165205629 2.479191533436589 5.000000000000000
v -2.324794431385878 0.890869589123738 5.000000000000000
v 2.330786052014414 0.872429277237636 5.000000000000000
v -2.040960157315286 1.437562793670166 5.000000000000000
v 2.039190612726247 1.440627734879856 5.000000000000000
v 2.470076973625649 0.284698570557559 5.000000000000000
v -2.468909162294346 0.295809552867409 5.000000000000000
v 1.285837533078064 2.139026018013915 5.000000000000000
v -1.815066030000000 -1.719167040000000 1.719167040000000
v 2.068170750000000 -1.404517630000000 1.404517630000000
v 1.672826520000000 -1.857862060000000 5.000000000000000
v -1.672826520000000 -1.857862060000000 5.000000000000000
v 1.815066030000000 -1.719167040000000 -1.719167040000000
v -1.672826520000000 -1.857862060000000 -5.000000000000000
v -2.068170750000000 -1.404517630000000 -1.404517630000000
v 1.672826520000000 -1.857862060000000 -5.000000000000000
v 1.672826520000000 -3.000000000000000 -1.857862060000000
v -1.672826520000000 -3.000000000000000 -1.857862060000000
v 1.672826520000000 1.857862060000000 5.000000000000000
v -1.815066030000000 1.719167040000000 -1.719167040000000
v 1.672826520000000 3.000000000000000 -1.857862060000000
v -1.672826520000000 3.000000000000000 -1.857862060000000
v -1.496685240000000 2.002481780000000 2.002481780000000
v 1.815066030000000 1.719167040000000 1.719167040000000
v -1.672826520000000 3.000000000000000 1.857862060000000
v 1.672826520000000 3.000000000000000 1.857862060000000
v -1.672826520000000 -3.000000000000000 1.857862060000000
v 1.672826520000000 -3.000000000000000 1.857862060000000
v 1.672826520000000 1.857862060000000 -5.000000000000000
v -1.672826520000000 1.857862060000000 -5.000000000000000
v -1.672826520000000 1.857862060000000 5.000000000000000
f 76 80 14 1
f 14 64 27 1
f 27 28 15 1
f 15 50 76 1
f 62 22 26 2
f 26 819 24 2
f 24 70 18 2
f 18 29 62 2
f 61 35 9 3
f 9 72 46 3
f 46 64 14 3
f 14 80 61 3
f 53 71 45 4
f 45 6 73 4
f 73 72 9 4
f 9 35 53 4
f 6 11 44 5
f 44 23 818 5
f 818 694 31 5
f 31 73 6 5
f 45 56 11 6
f 708 816 619 7
f 619 588 77 7
f 77 8 38 7
f 38 701 708 7
f 77 49 88 8
f 88 56 48 8
f 48 19 38 8
f 821 704 19 10
f 19 48 71 10
f 71 53 39 10
f 39 711 821 10
f 56 88 79 11
f 79 21 44 11
f 66 57 355 12
f 355 354 316 12
f 316 267 544 12
f 544 613 66 12
f 78 611 543 13
f 543 266 317 13
f 317 348 344 13
f 344 58 78 13
f 28 22 47 15
f 47 32 50 15
f 69 29 18 16
f 18 70 86 16
f 86 603 548 16
f 548 590 69 16
f 52 605 547 17
f 547 578 40 17
f 40 25 21 17
f 21 79 52 17
f 704 701 38 19
f 697 695 37 20
f 37 35 61 20
f 61 80 60 20
f 60 698 697 20
f 25 23 44 21
f 28 41 26 22
f 62 75 47 22
f 25 30 43 23
f 43 327 818 23
f 819 329 42 24
f 42 34 70 24
f 40 81 30 25
f 41 699 819 26
f 64 65 55 27
f 55 41 28 27
f 87 75 62 29
f 69 67 87 29
f 81 78 58 30
f 58 336 43 30
f 694 705 54 31
f 54 72 73 31
f 33 82 50 32
f 47 75 59 32
f 59 63 33 32
f 820 702 82 33
f 63 703 820 33
f 42 332 57 34
f 57 66 83 34
f 83 86 70 34
f 37 39 53 35
f 46 72 54 36
f 54 705 707 36
f 707 709 65 36
f 65 64 46 36
f 695 711 39 37
f 578 618 81 40
f 55 706 699 41
f 329 328 332 42
f 336 326 327 43
f 71 48 56 45
f 77 588 602 49
f 602 605 52 49
f 52 79 88 49
f 82 74 76 50
f 85 84 68 51
f 68 87 67 51
f 67 586 612 51
f 612 537 85 51
f 65 709 706 55
f 332 334 355 57
f 344 338 336 58
f 75 87 68 59
f 68 84 63 59
f 80 76 74 60
f 74 696 698 60
f 84 700 703 63
f 613 617 83 66
f 69 590 586 67
f 82 702 696 74
f 81 618 611 78
f 617 603 86 83
f 85 710 700 84
f 537 815 710 85
f 106 138 122 89
f 122 109 151 89
f 151 115 116 89
f 116 161 106 89
f 118 145 165 90
f 165 161 169 90
f 169 96 130 90
f 130 129 118 90
f 162 160 97 91
f 97 131 144 91
f 144 166 137 91
f 137 93 162 91
f 822 714 126 92
f 126 162 93 92
f 93 99 164 92
f 164 114 822 92
f 137 147 99 93
f 167 95 132 94
f 132 720 726 94
f 726 804 531 94
f 531 500 167 94
f 176 147 139 95
f 139 107 132 95
f 167 140 176 95
f 169 102 108 96
f 108 131 97 96
f 97 160 130 96
f 166 144 133 98
f 133 729 825 98
f 825 723 107 98
f 107 139 166 98
f 147 176 168 99
f 168 110 164 99
f 316 354 210 100
f 210 149 154 100
f 154 523 459 100
f 459 267 316 100
f 317 266 458 101
f 458 525 153 101
f 153 148 211 101
f 211 348 317 101
f 169 161 116 102
f 116 115 125 102
f 125 120 108 102
f 174 156 110 103
f 110 168 143 103
f 143 516 461 103
f 461 517 174 103
f 173 514 460 104
f 460 502 158 104
f 158 123 105 104
f 105 159 173 104
f 123 152 136 105
f 136 113 159 105
f 142 112 138 106
f 161 165 142 106
f 723 720 132 107
f 120 117 131 108
f 122 150 127 109
f 127 722 823 109
f 823 713 151 109
f 156 114 164 110
f 157 141 172 111
f 172 728 721 111
f 721 722 127 111
f 127 150 157 111
f 119 136 152 112
f 152 163 138 112
f 142 121 119 112
f 134 128 159 113
f 136 119 824 113
f 824 190 134 113
f 135 191 822 114
f 156 124 135 114
f 151 713 715 115
f 715 716 125 115
f 120 718 717 117
f 717 729 133 117
f 133 144 131 117
f 712 724 145 118
f 129 727 712 118
f 121 719 824 119
f 125 716 718 120
f 142 165 145 121
f 145 724 719 121
f 138 163 150 122
f 158 155 175 123
f 175 163 152 123
f 149 197 135 124
f 156 174 170 124
f 170 154 149 124
f 714 725 146 126
f 146 160 162 126
f 148 153 171 128
f 171 173 159 128
f 134 195 148 128
f 130 160 146 129
f 146 725 727 129
f 190 192 195 134
f 197 193 191 135
f 166 139 147 137
f 143 168 176 140
f 167 500 513 140
f 513 516 143 140
f 155 498 524 141
f 524 452 172 141
f 157 175 155 141
f 195 199 211 148
f 210 201 197 149
f 163 175 157 150
f 525 528 171 153
f 170 530 523 154
f 158 502 498 155
f 174 517 530 170
f 528 514 173 171
f 452 803 728 172
f 178 180 179 177
f 179 712 727 177
f 727 725 215 177
f 215 212 178 177
f 741 730 180 178
f 212 740 741 178
f 180 189 188 179
f 188 724 712 179
f 730 742 189 180
f 187 194 183 181
f 183 203 185 181
f 185 822 191 181
f 191 193 187 181
f 319 342 217 182
f 217 194 187 182
f 187 193 202 182
f 202 361 319 182
f 194 733 731 183
f 731 826 203 183
f 204 214 216 184
f 216 190 824 184
f 824 719 208 184
f 208 213 204 184
f 203 209 206 185
f 206 714 822 185
f 200 198 192 186
f 192 190 216 186
f 216 214 196 186
f 196 207 200 186
f 189 213 208 188
f 208 719 724 188
f 742 738 213 189
f 198 199 195 192
f 197 201 202 193
f 217 736 733 194
f 214 827 732 196
f 732 734 207 196
f 360 347 199 198
f 200 318 360 198
f 347 348 211 199
f 207 205 318 200
f 349 361 202 201
f 210 354 349 201
f 826 737 209 203
f 739 827 214 204
f 213 738 739 204
f 345 352 318 205
f 207 734 735 205
f 735 787 345 205
f 209 212 215 206
f 215 725 714 206
f 737 740 212 209
f 342 786 736 217
f 221 220 219 218
f 219 260 257 218
f 257 759 745 218
f 745 746 221 218
f 220 744 743 219
f 743 760 260 219
f 227 761 744 220
f 221 256 227 220
f 746 758 256 221
f 302 295 246 222
f 246 250 255 222
f 255 239 261 222
f 261 284 302 222
f 236 234 244 223
f 244 226 237 223
f 237 830 747 223
f 747 749 236 223
f 235 750 748 224
f 748 831 243 224
f 243 225 245 224
f 245 233 235 224
f 243 258 247 225
f 247 751 829 225
f 829 228 245 225
f 478 752 230 477
f 230 473 493 477
f 252 259 237 226
f 252 752 761 227
f 256 259 252 227
f 229 233 245 228
f 829 472 492 228
f 492 242 229 228
f 239 255 233 229
f 242 238 239 229
f 231 491 473 230
f 230 752 252 226
f 232 241 491 231
f 244 234 232 231
f 254 240 241 232
f 234 253 254 232
f 255 250 235 233
f 236 251 253 234
f 250 753 750 235
f 749 754 251 236
f 259 756 830 237
f 300 261 239 238
f 242 508 248 238
f 248 299 300 238
f 297 298 249 240
f 249 507 241 240
f 254 310 297 240
f 507 482 491 241
f 492 479 508 242
f 831 757 258 243
f 295 773 755 246
f 755 753 250 246
f 258 257 260 247
f 260 760 751 247
f 508 525 458 248
f 458 266 299 248
f 298 267 459 249
f 459 523 507 249
f 291 268 253 251
f 754 774 291 251
f 268 310 254 253
f 758 756 259 256
f 258 757 759 257
f 300 283 284 261
f 762 763 264 262
f 264 263 265 262
f 265 305 273 262
f 273 780 762 262
f 264 309 306 263
f 306 778 765 263
f 765 764 265 263
f 763 779 309 264
f 764 777 305 265
f 543 294 299 266
f 298 293 544 267
f 303 304 310 268
f 291 296 303 268
f 282 834 767 269
f 767 768 281 269
f 281 279 290 269
f 290 272 282 269
f 288 271 289 270
f 289 278 280 270
f 280 769 766 270
f 766 835 288 270
f 292 770 833 271
f 833 277 289 271
f 288 307 292 271
f 301 308 282 272
f 290 275 832 272
f 832 771 301 272
f 305 308 301 273
f 301 771 780 273
f 275 290 279 274
f 279 302 284 274
f 284 283 285 274
f 285 579 275 274
f 579 556 832 275
f 277 580 286 276
f 286 287 304 276
f 304 303 278 276
f 278 289 277 276
f 833 557 580 277
f 303 296 280 278
f 281 295 302 279
f 296 772 769 280
f 768 773 295 281
f 308 775 834 282
f 300 299 294 283
f 294 595 285 283
f 595 573 579 285
f 580 569 596 286
f 596 293 287 286
f 293 298 297 287
f 297 310 304 287
f 835 776 307 288
f 774 772 296 291
f 307 306 309 292
f 309 779 770 292
f 596 613 544 293
f 543 611 595 294
f 777 775 308 305
f 307 776 778 306
f 709 707 313 311
f 313 312 314 311
f 314 324 325 311
f 325 706 709 311
f 313 358 356 312
f 356 792 791 312
f 791 781 314 312
f 707 705 358 313
f 781 793 324 314
f 333 837 783 315
f 783 785 346 315
f 346 351 323 315
f 323 359 333 315
f 352 337 360 318
f 351 346 342 319
f 361 335 351 319
f 339 322 341 320
f 341 330 331 320
f 331 784 782 320
f 782 836 339 320
f 819 699 350 321
f 350 357 340 321
f 340 333 359 321
f 359 329 819 321
f 818 327 341 322
f 339 353 343 322
f 343 694 818 322
f 351 335 328 323
f 328 329 359 323
f 793 790 357 324
f 357 350 325 324
f 350 699 706 325
f 336 338 337 326
f 337 352 330 326
f 330 341 327 326
f 335 334 332 328
f 352 345 331 330
f 345 787 784 331
f 340 789 837 333
f 335 361 349 334
f 349 354 355 334
f 338 347 360 337
f 344 348 347 338
f 836 788 353 339
f 357 790 789 340
f 346 785 786 342
f 353 356 358 343
f 358 705 694 343
f 788 792 356 353
f 399 397 369 362
f 369 375 385 362
f 385 773 768 362
f 768 767 399 362
f 381 398 396 363
f 396 392 382 363
f 382 386 374 363
f 374 376 381 363
f 387 372 383 364
f 383 388 368 364
f 368 750 753 364
f 753 755 387 364
f 401 774 754 365
f 754 749 402 365
f 402 366 371 365
f 371 377 401 365
f 402 391 393 366
f 393 394 370 366
f 370 380 371 366
f 400 769 772 367
f 772 774 401 367
f 401 377 386 367
f 386 382 400 367
f 388 389 403 368
f 403 748 750 368
f 397 398 381 369
f 381 376 375 369
f 394 390 384 370
f 384 379 380 370
f 380 378 377 371
f 387 385 375 372
f 375 376 373 372
f 373 379 383 372
f 376 374 378 373
f 378 380 379 373
f 386 377 378 374
f 384 388 383 379
f 392 395 400 382
f 390 389 388 384
f 387 755 773 385
f 390 745 759 389
f 759 757 403 389
f 394 746 745 390
f 747 830 756 391
f 756 758 393 391
f 402 749 747 391
f 396 765 778 392
f 778 776 395 392
f 758 746 394 393
f 776 835 766 395
f 766 769 400 395
f 398 764 765 396
f 777 764 398 397
f 399 775 777 397
f 767 834 775 399
f 757 831 748 403
f 415 422 425 404
f 425 417 437 404
f 437 434 443 404
f 443 429 415 404
f 440 431 411 405
f 411 421 407 405
f 407 786 785 405
f 785 783 440 405
f 426 784 787 406
f 787 735 444 406
f 444 419 428 406
f 428 413 426 406
f 421 429 410 407
f 410 736 786 407
f 420 419 409 408
f 409 416 438 408
f 438 417 425 408
f 425 422 420 408
f 419 444 442 409
f 442 439 416 409
f 429 443 430 410
f 430 733 736 410
f 431 418 441 411
f 441 414 421 411
f 424 413 428 412
f 428 419 420 412
f 420 422 423 412
f 423 427 424 412
f 432 445 426 413
f 424 433 432 413
f 441 427 423 414
f 423 422 415 414
f 415 429 421 414
f 439 739 738 416
f 738 742 438 416
f 438 742 730 417
f 730 741 437 417
f 793 781 436 418
f 436 427 441 418
f 431 790 793 418
f 427 436 433 424
f 445 782 784 426
f 443 434 435 430
f 435 731 733 430
f 440 789 790 431
f 792 788 445 432
f 433 791 792 432
f 436 781 791 433
f 437 741 740 434
f 740 737 435 434
f 737 826 731 435
f 442 734 732 439
f 732 827 739 439
f 783 837 789 440
f 444 735 734 442
f 788 836 782 445
f 462 511 521 446
f 521 519 527 446
f 527 454 486 446
f 486 485 462 446
f 527 519 489 447
f 489 480 475 447
f 475 469 466 447
f 466 454 527 447
f 464 496 476 448
f 476 470 510 448
f 510 480 489 448
f 489 519 464 448
f 520 518 455 449
f 455 487 503 449
f 503 522 495 449
f 495 451 520 449
f 829 751 481 450
f 481 520 451 450
f 451 457 494 450
f 494 472 829 450
f 495 506 457 451
f 524 453 488 452
f 488 799 803 452
f 533 506 499 453
f 499 465 488 453
f 524 498 533 453
f 466 487 455 454
f 455 518 486 454
f 522 503 490 456
f 490 805 839 456
f 839 802 465 456
f 465 499 522 456
f 506 533 526 457
f 526 468 494 457
f 514 471 468 460
f 468 526 502 460
f 516 467 463 461
f 463 474 517 461
f 744 761 511 462
f 485 743 744 462
f 467 512 493 463
f 493 473 474 463
f 501 505 496 464
f 519 521 501 464
f 802 799 488 465
f 469 483 487 466
f 516 513 532 467
f 532 497 512 467
f 471 472 494 468
f 475 797 798 469
f 798 795 483 469
f 476 509 484 470
f 484 801 838 470
f 838 794 510 470
f 479 492 472 471
f 514 528 479 471
f 491 482 474 473
f 482 530 517 474
f 480 796 797 475
f 496 497 509 476
f 493 512 505 477
f 505 501 478 477
f 230 226 244 231
f 501 521 511 478
f 511 761 752 478
f 528 525 508 479
f 510 794 796 480
f 751 760 504 481
f 504 518 520 481
f 507 523 530 482
f 795 805 490 483
f 490 503 487 483
f 509 515 529 484
f 529 800 801 484
f 486 518 504 485
f 504 760 743 485
f 522 499 506 495
f 505 512 497 496
f 532 515 509 497
f 502 526 533 498
f 531 529 515 500
f 515 532 513 500
f 531 804 800 529
f 598 559 615 534
f 615 607 550 534
f 550 584 567 534
f 567 553 598 534
f 616 538 540 535
f 540 601 562 535
f 562 599 609 535
f 609 607 616 535
f 574 565 581 536
f 581 557 833 536
f 833 770 571 536
f 571 608 574 536
f 612 539 576 537
f 576 812 815 537
f 552 575 541 538
f 541 606 540 538
f 616 545 552 538
f 612 586 621 539
f 621 594 587 539
f 587 551 576 539
f 606 592 601 540
f 575 591 546 541
f 546 608 606 541
f 828 814 551 542
f 551 587 610 542
f 610 591 577 542
f 577 817 828 542
f 570 564 552 545
f 616 607 615 545
f 615 559 570 545
f 591 610 583 546
f 583 574 608 546
f 605 568 549 547
f 549 560 578 547
f 603 558 554 548
f 554 614 590 548
f 568 600 582 549
f 582 556 560 549
f 607 609 589 550
f 589 593 584 550
f 814 812 576 551
f 564 561 575 552
f 840 806 598 553
f 567 597 572 553
f 572 813 840 553
f 558 557 581 554
f 581 565 614 554
f 811 813 572 555
f 572 597 604 555
f 604 588 619 555
f 619 816 811 555
f 582 563 832 556
f 579 573 560 556
f 558 569 580 557
f 603 617 569 558
f 598 806 807 559
f 807 808 570 559
f 573 618 578 560
f 809 817 577 561
f 577 591 575 561
f 564 810 809 561
f 601 763 762 562
f 762 780 599 562
f 593 589 566 563
f 566 771 832 563
f 582 600 593 563
f 570 808 810 564
f 594 621 614 565
f 574 583 594 565
f 589 609 599 566
f 599 780 771 566
f 584 585 597 567
f 620 585 600 568
f 605 602 620 568
f 617 613 596 569
f 770 779 592 571
f 592 606 608 571
f 595 611 618 573
f 610 587 594 583
f 593 600 585 584
f 620 604 597 585
f 590 614 621 586
f 604 620 602 588
f 779 763 601 592
f 718 716 626 622
f 626 635 634 622
f 634 652 643 622
f 643 717 718 622
f 721 728 653 623
f 653 633 642 623
f 642 627 649 623
f 649 722 721 623
f 726 720 657 624
f 657 652 628 624
f 628 629 644 624
f 644 804 726 624
f 798 797 654 625
f 654 640 630 625
f 630 636 650 625
f 650 795 798 625
f 716 715 627 626
f 627 642 635 626
f 715 713 649 627
f 652 634 631 628
f 631 639 629 628
f 639 640 641 629
f 641 656 644 629
f 640 639 638 630
f 638 637 636 630
f 634 635 632 631
f 632 638 639 631
f 635 642 633 632
f 633 637 638 632
f 653 645 637 633
f 655 651 650 636
f 637 645 655 636
f 654 646 641 640
f 646 647 656 641
f 652 657 648 643
f 648 729 717 643
f 656 800 804 644
f 803 799 655 645
f 653 728 803 645
f 796 794 647 646
f 654 797 796 646
f 801 800 656 647
f 794 838 801 647
f 657 720 723 648
f 723 825 729 648
f 713 823 722 649
f 651 805 795 650
f 655 799 802 651
f 802 839 805 651
f 810 808 662 658
f 662 672 670 658
f 670 688 679 658
f 679 809 810 658
f 685 813 811 659
f 811 816 689 659
f 689 669 678 659
f 678 663 685 659
f 664 665 680 660
f 680 710 815 660
f 815 812 693 660
f 693 688 664 660
f 666 671 686 661
f 686 695 697 661
f 697 698 690 661
f 690 676 666 661
f 808 807 663 662
f 663 678 672 662
f 807 806 685 663
f 688 670 667 664
f 667 675 665 664
f 675 676 677 665
f 677 692 680 665
f 674 673 671 666
f 676 675 674 666
f 670 672 668 667
f 668 674 675 667
f 672 678 669 668
f 669 673 674 668
f 689 681 673 669
f 673 681 691 671
f 691 687 686 671
f 690 682 677 676
f 682 683 692 677
f 688 693 684 679
f 684 817 809 679
f 692 700 710 680
f 689 816 708 681
f 708 701 691 681
f 690 698 696 682
f 696 702 683 682
f 702 820 703 683
f 703 700 692 683
f 693 812 814 684
f 814 828 817 684
f 806 840 813 685
f 687 711 695 686
f 691 701 704 687
f 704 821 711 687
