v -3.648239237981272 -3.080417738142744 -1.388265397936618
v -2.867511838331786 -1.843343425988581 3.625608178332589
v -3.132485933919797 -1.323362046625973 -3.631523392194573
v -1.389816306678094 -0.461580854203015 4.752398928386739
v 0.275163914759494 -4.142313820119560 2.745248928772912
v 2.284405286342641 -1.431872943859588 -4.196359450334858
v -2.216866883192805 -1.210625901605865 4.306734503316515
v -4.147712091783021 -2.374874753625799 -1.432819988520762
v 1.287863453429518 -0.413227830901113 4.790408202943325
v -2.251488359291904 -0.420501056476019 4.412931170874445
v 2.052029637243189 -1.163519368733491 4.391602236637224
v -2.713726226152489 -2.535959398586977 3.310857974246386
v 1.239447462976238 -1.256130914725878 4.660411151664189
v -2.435577610523668 -1.324411683384402 -4.125896438708672
v -4.657283055828632 -1.741342754256022 0.096882364225769
v 0.294971047490445 -3.590079987253873 3.446366058061580
v -2.956881425245353 -1.950782756081928 -3.501825233729433
v 3.003831775215222 -1.394233819370979 -3.703792719271513
v 2.823767111055033 -1.078098310821014 3.957334774056055
v -4.578857614814799 -1.749277477829594 0.874202193163994
v -2.020073873819944 -2.695753664094912 3.665813010392752
v 1.504313492288999 -1.474069795531348 -4.509895520168432
v 0.682487312187451 -2.915752581258655 -3.986063505806795
v 2.104957471793359 -0.361323708702606 4.493202975572619
v -3.537056613528819 -2.014218278531692 -2.856428209579418
v 0.692252508786862 -2.224828343896865 -4.391562621258580
v 1.053733483693208 -4.720642975273660 1.155461263802697
v -3.040613534497767 -0.348951676527975 3.921789280832586
v 4.227802535262423 -2.221888034647004 -1.433828214555971
v 1.061167076594522 -4.049413113977257 2.703391302124308
v 0.398245990804786 -1.330118125127031 4.792847876984039
v -4.265353739564665 -0.173573842315800 2.573359517479949
v -0.563934749404086 -4.557911589603895 1.936825346188377
v 3.143080808942076 -3.088149332034476 2.308720711956913
v 0.317743087830418 -2.918385463782192 4.040737487875727
v 0.771988676449244 -4.452068338348428 -2.075207072904962
v -1.271898501176521 -2.842327818897671 3.887575357780825
v -1.319011968035357 -2.090472726744894 4.325642498966139
v -2.984399309387874 -1.113171625671289 3.818464547521452
v -1.361340268438022 -1.283073588026159 4.616540819206948
v 2.882902055093998 -0.315428728495975 4.042432629802357
v 3.516583560614876 -1.040296993313347 3.367097607569909
v -3.320682697371820 -2.392283358474668 2.827321964974132
v -1.258297134970589 -3.506245311744922 3.301318361335177
v 0.349788224937032 -2.148975804421713 4.487906262961539
v 3.283570642128064 -3.338221123738082 1.698241405316466
v -1.352279864695279 -4.425970569351728 1.830378534646827
v 2.700873511647087 -3.311935296963117 -2.542588761261094
v -1.292517416012343 -4.041050367179757 2.602590023213971
v -0.040253489394464 -2.921239303223226 -4.041795456085790
v -4.043828663594548 -1.688538220453151 2.373606568785181
v 3.578791296265353 -0.285065768186057 3.442252122664314
v -2.702765999846480 -3.517962327165495 2.254343148714819
v 3.371693957849430 -3.524169759147688 0.992802748111580
v -1.467972408612061 -4.645674972664025 1.033597140407473
v -0.519891083120543 -4.148134935635223 2.715395781878769
v 4.084573705801597 -1.047928916365074 2.648456015340281
v 0.933009916568364 -4.865727429435636 -0.468148698340861
v -1.962264876828993 -3.357114784547441 3.116077689697291
v 4.584617642262277 -0.317325709087719 1.899490192440925
v 1.779929305708455 -4.632275875706378 -0.448049549302117
v 2.668702217654551 -4.080546787603142 1.056763086171576
v -0.490654362056475 -2.153313770914558 4.467104739873107
v -3.296397911853900 -3.063757444910690 2.125155266890204
v -3.743710945728125 -2.407652862347829 2.220862162375827
v -0.490082306727013 -2.918487287620208 4.012080340578985
v -4.186994034494870 -0.953499210527204 2.504623838579144
v 0.087657874111783 -4.965533756213627 -0.508618025540533
v 4.155993355266165 -0.281188133761959 2.717100516408296
v -0.495896051833464 -3.594986603918566 3.418746636719094
v 1.654990096068909 -4.553576663818016 -1.214620233225475
v -0.734454769478664 -4.009551313107569 -2.854654528616829
v -4.652635391155727 -0.110224069857576 1.778848361146328
v 3.970155471117789 -2.842569523121063 0.953874145493133
v -0.703723515508357 -4.915210829390796 0.282337690124361
v 4.951396219026002 -0.481624155777726 0.150889821825618
v 1.860210092241786 -4.609389171684796 0.338737810952352
v -4.975854311935973 -0.026210082319780 0.117030940008224
v -1.550173316964620 -4.734875567865075 0.226196650611231
v -4.486865070879670 -1.580674928953500 -1.469911278363920
v -0.731661615119040 -3.487082553552931 -3.495628732024208
v 4.894920145462785 -0.565537952623948 -0.721638257578594
v 3.379056119042431 -3.643038594219229 0.249575381514364
v 4.314636256131537 -0.635126719120912 -2.417784694669788
v -3.261610808491728 -0.639855767853234 -3.700659297009185
v 0.702936601335335 -0.736879056959637 -4.866371145588045
v 1.535566971778866 -0.734840777569797 -4.672505157044271
v -2.120874376975026 -1.964363139519007 4.063816901023937
v 1.374736959145869 -2.838977608584468 -3.847765483958154
v 4.272041605958807 -1.885326958222332 1.719463454402471
v 1.399007435967933 -3.932727871417188 -2.713068801127616
v -1.393929926480833 -3.343596050162251 -3.416067844042593
v 3.454410577582158 -2.066052016553234 -2.922269224633110
v -3.038333437609612 -3.702496975752393 -1.362979546390321
v 2.252850685479154 -3.996431402634980 -1.916009920146451
v -0.060389151583522 -2.222443490725025 -4.452939876328022
v -0.757809359112936 -2.853101649136761 -4.005772102670477
v 2.967079067529963 -3.509940889295695 -1.924391132266516
v -0.817664867820644 -2.167220142769250 -4.409869651609833
v -1.967089820822352 -3.144056174895739 -3.318255714924771
v 2.709644817637669 -1.820409865670762 3.770071833643478
v 2.583985496245697 -4.231845546745280 -0.465687710044344
v 2.626689489014567 -2.639035672482991 -3.295061687868152
v 2.445547227138842 -4.166796378241887 -1.207166737293790
v 3.309541666432281 -3.679149716865571 -0.504722908701142
v -4.016932330260638 -2.490443410772995 1.553116494039601
v 2.153939352143126 -2.097471486560158 -3.975242308373299
v -3.203904867446482 -2.646888503959998 -2.741049504686720
v 1.914142363413768 -3.281465822500874 -3.205287202466025
v -2.896743640692653 -3.480500359087032 -2.052453980994515
v -2.706949797554275 -3.209317718180557 -2.669845896654421
v 2.084630877482989 -3.693436878101620 -2.607246014723805
v 2.029984606501783 -2.731791287205997 -3.631150036630115
v 3.857758274059610 -2.660915702566093 1.668360724090276
v -2.232007738951748 -3.941340416546857 -2.066952355657445
v -0.020010067889490 -3.543916225985877 -3.503203208994613
v -2.376827394996913 -4.338367567077187 -0.597246795815774
v -3.528967583341035 -1.736807362703396 3.061979569354432
v -3.104476256085245 -3.835038505860227 -0.622897230871848
v -4.887547216934937 -0.060187848510590 0.950630980409808
v 2.653224354726884 -4.193680479726981 0.299988036612379
v -2.358278084245579 -4.387696692578393 0.174190229442948
v -4.192302856465776 -2.548555886143271 0.840815688270705
v 4.851159172574427 -0.377671678615676 1.027413624950829
v 4.683978150243748 -0.612578468382702 -1.584762458597828
v 0.250104168654793 -4.565505443578718 1.974524444882716
v 3.383247708771417 -1.749024574140476 3.211213564540190
v -4.686483700392303 -0.773404298699114 -1.526464255410402
v -4.352610763192930 -0.710600188421298 -2.318226420692817
v 4.492143183966883 -1.116025720935500 1.836385921926141
v -2.272847991884674 -4.329740005829661 0.941174945709044
v 1.065322356763845 -4.453185830928131 1.947292687848413
v -1.446926858367714 -2.732865581555226 -3.897556295294905
v -2.558116008326500 -0.631312782115563 -4.219039638084330
v 1.500590719746800 -4.315936872644608 -1.982663567076495
v -3.477001356927053 -2.887838342596107 -2.091684130746045
v -4.192680236984112 -1.463453379469898 -2.245189069336771
v -4.873672850492602 -0.843125734953252 -0.712904266057483
v -1.500125363899727 -4.265805631885291 -2.098070840323324
v 1.857440702604357 -4.219716475473787 1.872727024783852
v -4.906234238906880 -0.892682587969522 0.105831637015948
v 1.113357325166209 -2.831267637685808 3.948327682992038
v 1.819146918857280 -3.843101124372066 2.590278984646901
v 3.635274247961175 -2.460622910551693 2.355665909553499
v -3.654195763699184 -1.016341630284809 3.216899275846477
v -3.871178044917443 -0.665057595506817 -3.057782480856571
v 3.115770865531424 -0.687872571173157 -3.832725562042224
v -1.436297937566716 -3.857804568584235 -2.803054839913209
v -2.092399811832118 -3.636941391231245 -2.716085736744994
v 1.171797843193455 -2.076840195210763 4.391879512256128
v 3.168519115635851 -2.716336358018819 -2.707117604513526
v 0.843565710939772 -4.734244694724216 -1.283377829217422
v 3.927757894869220 -1.765568996548031 2.497845681531284
v 3.927950075382113 -3.002278137094875 -0.569378113678268
v 4.003096857393546 -2.966259863704394 0.199095485475221
v -3.503398539776366 -3.190721336092661 1.533693765269958
v 4.519152186731400 -1.422711255980939 -1.525181777476739
v 2.554773650124970 -2.493384581409573 3.481979940504791
v -3.667711073026169 -3.265340046389753 0.840289383706366
v 1.810331740177066 -3.327561322603261 3.236292799875904
v -2.329848979719733 -4.182555910426325 -1.352601574920602
v 0.709692871242400 -1.501692063049200 -4.712130797934192
v 3.165908514477336 -3.634783760117048 -1.236913148875166
v -1.551920651910192 -2.064948446523934 -4.268040406770465
v 2.518413225932723 -3.540130811930846 2.441014840646130
v 4.485683843922721 -2.185018306245063 0.155808020710463
v 2.617159016988946 -3.866043796484174 1.778580802531240
v 1.960020294196115 -1.950856382438950 4.154401714645937
v 3.785231815558729 -0.653503861514349 -3.182929848110000
v 0.152624414158044 -4.968989675866698 0.327833190975809
v 2.836116765476810 -2.062413550791166 -3.532822445190066
v 4.719959708645609 -1.220023711567786 0.987124147290428
v 1.076178267344770 -3.504202547651674 3.389501393458971
v -4.632264006229915 -1.684188659239466 -0.688429315435791
v -2.131395285868829 -4.168301140362250 1.690289608574880
v 0.038932093691507 -4.801098237076893 -1.338272300168931
v 4.432272408527675 -2.059564110276644 0.951231451519126
v 1.358822683249386 -3.430936008925010 -3.335419488904905
v -1.561682068980121 -4.526950803428548 -1.356465232556270
v -2.724380276235948 -2.483276294758393 -3.347450823134189
v 4.719482422332892 -1.407265187245367 -0.694579808305217
v -3.720213837115391 -0.257000932889979 3.300220386988415
v -1.580630522711310 -4.687383422117744 -0.575820153177072
v -2.574338516011214 -3.151365450184984 2.867623390644555
v -3.737142739806418 -1.373500238301344 -2.989192471841523
v 3.197823962888132 -2.350433527716760 3.016830427839813
v 1.863725790333238 -2.683325796998903 3.764520533375189
v -1.784215522997332 -0.645137381309568 -4.598703895937525
v -2.017598922967049 -3.849072374334439 2.428486251468861
v 0.213738232583464 -4.850753439035147 1.161575553323616
v -0.091676822744052 -1.487261231213786 -4.765881053740998
v -3.098339330656819 -3.893514158011021 0.130430296296868
v -4.810508117837800 -0.906537829919345 0.918505934205707
v -3.930926885173125 -2.194184190659167 -2.151363300604837
v 4.787845881588733 -1.339502668265188 0.143784953084835
v -2.082415325468071 -2.569123242468564 -3.734328251962324
v 3.771437698266428 -2.969359302903531 -1.322357884524271
v 3.556488328333457 -2.852538833492535 -2.021425208728843
v -3.743685169420665 -3.217197791822583 -0.649283320877619
v -4.574018700401898 -0.919646067660663 1.725378631494850
v -0.492268010042555 -1.338951621742436 4.784877908049125
v -0.750659820335005 -4.895001152296702 -0.544169095138452
v 3.655290105745653 -1.378609351344014 -3.079320604547281
v -2.875232730032934 -3.753147314827276 1.579525400524656
v -0.891653614487604 -1.431657164119494 -4.688611639714662
v 2.454431782676019 -3.101831475017097 3.033173003589819
v 1.441156449068940 -2.182369715437412 -4.241051998055478
v -0.969476546708540 -0.675972375595959 -4.837303884127492
v 0.687254040760999 -3.524621054017246 -3.449178890442306
v 1.013060616360678 -4.860469075657988 0.346377664907640
v -2.278319187259163 -1.979273190910254 -3.959615598407030
v -4.389264512715455 -1.708234284331207 1.631093813408715
v 3.931582787378696 -2.139306503283516 -2.196204035573613
v -0.010271086383605 -4.076276803268829 -2.860159156207581
v 4.413397159551492 -2.238292626263849 -0.642281633221174
v 0.005549331284725 -4.505606529588736 -2.133132234367881
v -0.754247473751528 -4.444914721552127 -2.139313136357737
v -4.275455506818148 -2.550358805697554 0.095151402513841
v -0.627882610599962 -4.818902126229077 1.113766844487046
v -1.686904793934570 -1.378507381960551 -4.488345980238911
v 2.356786078670311 -0.719295322298614 -4.339647005167058
v 0.717918403577142 -4.050995850591427 -2.812960588407025
v -3.747181099750856 -3.278098840842933 0.103628560972933
v -3.023227864441556 -3.869046998581263 0.873849700830418
v 4.169721465586307 -1.399430666192670 -2.331896769054833
v -0.760658511621415 -4.733616476393584 -1.354263449488167
v -4.263321521154696 -2.491364515883288 -0.672754947035384
v 1.884744998604038 -4.478239422971154 1.120818350244639
v -0.135007747284911 -0.716208066238299 -4.928307486349550
v 0.499741143589719 0.500000000000000 3.978371200588333
v 0.500000000000000 -0.499491041166572 3.973201155150162
v -0.497894793636131 -0.500000000000000 3.969700397123570
v -0.500000000000000 0.498107976131491 3.973506927112033
v 1.871207775566456 2.029224568014330 4.142540243720869
v -1.457318280255500 4.752367211015456 -0.162640458840331
v -2.097754369930585 3.576401237571881 2.735778110906971
v -1.026832071989636 0.095541915939570 -4.876930084158754
v 4.155550578855436 2.050983962358533 1.784680935493721
v -3.033459828276637 3.866718824921537 -0.756094710505153
v -3.772477884657579 1.511773806445160 -2.852700105257176
v -2.903336045165378 3.758629053858227 -1.467256804217136
v -4.678422576406959 0.851035935701304 -1.509182035685650
v -1.056377712723089 0.870824103573521 -4.786041291581180
v 4.396851307306815 2.088067860413643 1.003947209845968
v -1.373252970268584 0.369292533743207 4.767309179710280
v -2.712839689548332 3.604054487074858 -2.093521968767026
v 0.677189847807522 0.032772774737542 -4.932817281165804
v -0.182615677799165 0.066761994411581 -4.977243468093491
v -3.247718784494667 1.486997501369369 -3.454432721986255
v 1.369421443909236 1.496766414250816 -4.558240576864884
v 4.701567702252639 0.200699399794646 -1.588954696918867
v 3.780655557863887 2.013821585872625 2.541423721562429
v -3.580809650614969 2.186587599096900 -2.676904789224606
v -2.175102189268866 1.129180485230574 4.331505540280260
v -0.513282126029546 4.826767664856172 -1.082488409130356
v -1.064686314749730 1.638730877332601 -4.586531892790966
v 0.360764538302067 4.818063558413285 -1.177567990394410
v -0.257705231122468 1.643361457700257 -4.691451376613403
v -2.694957397204693 2.414065388246337 3.419705417871989
v 3.624215865335017 1.508585204688555 -3.051015156660052
v -1.957572937003383 3.961354654958892 -2.290208767164797
v 2.825616884125580 2.028087132810653 -3.555296562916180
v -3.214517998683642 2.833773302632689 -2.517919753281479
v 1.280966231063136 0.451832257066566 4.791317027744892
v 2.089202483626039 0.453529027686700 4.492129558907081
v 2.375712005387166 2.640647230890087 3.494876123936559
v -0.478498683988836 1.275029334136490 4.796980379942269
v -3.692550056743237 0.509163687210749 3.288645624301799
v -1.322654044267346 1.168655105262617 4.663137619542741
v -2.239799852133513 0.369055389658975 4.428018059570786
v -2.830602430645946 1.823740995589065 3.670782569389650
v -3.331481007433592 0.081169818909953 -3.705873351581943
v -1.324257842507125 3.339728936909331 3.460353689673231
v 3.442517716093465 2.694395448353043 2.370425883852644
v 4.522560801757622 2.061732196200688 0.190098495799361
v -3.313566009269501 0.806985379899514 -3.615927854163916
v 0.205102951456306 3.524117409709238 3.512854007910290
v -2.245554359881579 4.364306654223268 -0.845353743137325
v 1.016548332112792 2.839597713992865 3.964685721926233
v -1.852852842373821 0.106992659661444 -4.630970078350664
v -1.871165618580733 0.861406865953186 -4.531059476656660
v 1.109882898504241 2.092170374796225 4.391239123931861
v -3.601025557830884 1.255294610441361 3.205522044904353
v 0.952716129235995 3.500835925276165 3.408912136150212
v -3.886290516139290 2.317176016940570 -2.070432597894420
v 0.178309662551714 4.085816819593588 2.852777133216199
v -0.495204306059865 2.070277125569461 4.515546738862806
v -1.287171049980762 1.958545445348119 4.397363455806557
v 0.961340786845238 4.462898698553271 1.993095622711032
v -2.273883259766693 4.195698728189995 1.405059514177914
v 0.939656910137473 4.057000373953913 2.749417044923265
v 2.768606864126257 1.238027650934631 3.947449234545882
v -1.067940211614591 2.382743580099140 -4.241722289728625
v -1.460447582865163 4.546934165682350 1.393978381507034
v -2.633947952288249 0.830556005922107 -4.143493021924829
v -2.027309588167435 3.128839382860621 3.302483025370951
v -0.630485847522695 4.745053330174682 1.367350132026997
v -4.344181492136355 0.828339242781777 -2.273225652482456
v 1.736771837745507 2.763522853053621 3.763825050871807
v -2.756871569352643 3.195180888224928 2.636630837326402
v 1.038027535246457 4.724634660973564 1.187493540767912
v 2.486846490336271 3.965521568023147 1.696972122609771
v -0.565055953279978 3.470202367729830 3.529282010697782
v -3.181015672820881 2.601086296029137 2.810041710855897
v 0.252996954010394 2.860365287912328 4.072644234718323
v 1.725516520276887 4.297160273049961 1.828710883623674
v 0.204999767396524 4.803266033181556 1.299120224101709
v 1.658856083267372 3.934802660900109 2.581507030700146
v -2.323087524224857 4.352674369369092 0.670183053357594
v -1.130669856123323 3.661484787118741 -3.182613444357253
v -1.385377319017762 4.692176291585315 -0.946436444214967
v 2.744812960357612 3.649849433382873 -1.977831860459495
v 1.964680919360404 3.717212013140770 -2.668779070136791
v 2.869626762941795 0.472142245199669 4.046444190807025
v -4.733243615260688 0.037206114400506 -1.536887438031616
v -3.930130297666933 0.067261950650893 -3.059070419722056
v 4.841178955362392 0.449371467586896 1.052845443035990
v 4.910201399094015 0.285437977301755 -0.713022090636284
v -2.631356775436300 0.098628126749319 -4.237108672402663
v 3.804477700996516 0.084084148363937 -3.202450129907627
v 3.769339972738084 0.817149369081724 -3.174483198165479
v 2.368386682715027 0.014014205818463 -4.378179907064073
v 4.138550297299485 0.498590450959661 2.725138223878220
v -1.485589786428363 4.716818393410753 0.623488045070159
v -2.472324284562294 2.803717653527647 -3.275220381661078
v 1.215855159346239 3.996767099069134 -2.717440296065639
v -3.132337430216437 2.101498744588770 -3.239411608229806
v -3.092306911802547 3.835707127981008 0.711051478990455
v -1.810121998280446 2.304053796085499 -4.024849030310878
v 0.437298274024852 3.636375018928592 -3.364211255627630
v -1.828043685620093 2.959403568389526 -3.561083367993978
v -1.282864540423680 4.487708998120997 -1.729139293117560
v 1.218830076757833 4.388636458267989 -2.002429875309277
v -0.319579626429198 3.084451611824068 -3.887974714609824
v -3.591322932874898 3.156046311095817 -1.390677686465556
v -1.091618808811379 3.066779916882744 -3.765623814790281
v -0.356213433185638 3.698542978321441 -3.311678627120335
v 3.486916972440939 3.295291593198494 -1.325560576753693
v 1.932170594225743 3.232491533843490 -3.251433734040958
v 2.644640293803532 3.329273684468113 -2.606669656322996
v 3.371431049506372 3.060302951839464 -2.039241381759878
v -4.264544149613787 2.487847905058079 -0.662002612242137
v -4.305039725541021 2.490843577315753 0.082384614097749
v 4.003985545906342 1.275870036668595 2.661095412327841
v 1.119170615567768 4.850373841991610 0.367439767773216
v 0.308959428439284 4.957538842830834 -0.361473659609225
v 3.862778261254871 2.353844077144922 -2.121672767542941
v 4.031797621246295 2.588719833595460 -1.381683274834248
v -0.617271674694142 4.919061898745064 0.556852070480605
v 0.253328386145981 4.960458315859642 0.472492616577566
v 3.528219044799241 3.457896466534440 -0.572990801683904
v 0.176934420089909 4.514074158126442 2.103695130431014
v 4.117752913543061 1.638855358928974 -2.283365497055991
v -3.488939974660146 2.819269310882561 2.153592293282414
v 3.491226905094731 3.537894262983883 0.196134521201882
v -2.312438640153359 4.403856333585352 -0.085433816790701
v 4.814428105274144 1.230951535854631 0.185999925417653
v -3.753466788953915 3.178918322131760 0.770611752514647
v -3.769138170083328 3.243629181206826 0.035345556141484
v -3.646963785662308 3.033541268342962 1.491030548539412
v 4.077017739160964 2.840097806381875 0.187985833322243
v 2.605092087036598 1.960040708345097 3.775518215932966
v -2.571901629346097 3.263809847509149 -2.743298660846522
v 3.375544893990069 3.535931276764616 0.953328004118510
v -4.829400172730552 0.781085107848478 0.949278455914641
v -0.601114925650874 4.019838128275962 2.886083326449713
v 3.563410026132428 0.489740750266219 3.446148211594264
v -3.435507396864629 1.943861269522932 3.029053763391405
v -4.920686457505308 0.835453818046223 0.122265951193087
v -4.872113515148195 0.848927755056568 -0.700557432447793
v 2.666244608732378 4.092978890425347 0.977266304633302
v -4.925239332232241 0.006850439210132 -0.716231237944415
v -1.371270446338167 3.862061919612644 2.844921023843819
v 1.187240023440422 4.813405424554412 -0.441865465601875
v 4.953679223179542 0.381446525717661 0.170624177251883
v -4.599218547040203 0.702149714073323 1.772308475111745
v -3.866164673496516 2.111689061580066 2.333777282431039
v 3.956804982900539 2.849053645420201 0.966612804513108
v 1.210687098517521 3.493688785894046 -3.344495150411025
v -2.908188840347305 3.468568507813043 2.071067565131140
v 2.819390389055640 3.897657522508369 -1.286886345414244
v 0.468282317355812 3.025243768153381 -3.919028092888185
v 3.164746416975479 2.758582078652855 -2.698842246369876
v -4.269010969436381 2.428019709368837 0.844757803680497
v -0.393743328037502 4.207237345805210 -2.635198582322881
v -3.021385313984615 3.686515624810051 1.422554706017784
v -2.951991123330932 1.153466709933099 3.835203552505060
v 0.516265178878934 2.342955517781959 -4.369567748450834
v -3.095156909435779 3.894163691484544 -0.021981920586596
v 2.978505624230602 2.634703552504907 2.992005105126374
v -2.505601952172480 2.204865273970929 -3.700599935339575
v 2.788064639188110 4.131197902925001 0.224362963284673
v -4.223194711778744 0.607396436104197 2.561779130181127
v -3.026620128417953 0.419238463113898 3.923653356181200
v 4.687379739572247 1.278911110618327 1.042800316566990
v 2.837981355522063 4.063159812736172 -0.541584212953121
v 1.209851617100497 1.290079391014034 4.665211105998495
v -3.721761998637353 3.238219557976355 -0.693440771943727
v -1.865113661227067 3.524575440845735 -2.970388241355336
v -2.595806285027130 1.539827423367949 -3.972107880272119
v 1.863979475285981 4.497677086276387 1.062940566557335
v 3.101340048212011 0.751935112814948 -3.835632752649349
v 4.569692549397939 0.485756770565204 1.916476994082920
v 1.535821169979510 0.014000835549887 -4.735964560460214
v 1.641262661987523 3.411312180150259 3.231842283153299
v -4.117633292789983 2.425067958199824 -1.391838504949899
v -2.074853318396240 1.857471893509001 4.130949507319373
v 0.418820684067396 4.158957448767829 -2.711530401405788
v 0.381467731197987 1.313823290958599 4.806094462145925
v -1.289343045991321 2.708033252357283 3.997020095576804
v -4.632359802789751 1.677522870816263 -0.671745822412451
v 2.000682425959830 4.106034679447238 -1.993688978346292
v 1.303358385865806 2.221568120198208 -4.259793726482725
v 2.321069007253087 0.728674524403175 -4.356487796684617
v 2.943465028354897 3.308892536987531 2.273787058900471
v -4.118682155302350 2.292999961110124 1.596013044503852
v -0.575114571424016 4.938766058531534 -0.262849224828898
v 4.276413170353508 0.902331024466439 -2.392988922027177
v 3.743175844615081 2.796595646488600 1.712784163143165
v 0.315783052788648 2.114900466095738 4.513575408500971
v 4.101713469969708 2.753422653006172 -0.603290529749285
v -1.193896099123577 4.158341732592826 -2.501343427227861
v -3.904217629468293 0.803430763833035 -2.991193522488583
v 1.988557675017173 2.700110101213394 -3.670803021781874
v 1.240127169221941 2.885804969061791 -3.857598484646386
v 4.419146284924129 1.287978059375849 1.877125981876176
v 3.450469171367474 1.254121616834792 3.367006773165044
v -0.527441528553563 2.812798409987296 4.082082402504900
v 1.482913454904956 0.762796417948559 -4.710271940678838
v 2.005317232337691 1.254456417992855 4.386616225115876
v 3.260155449852388 1.978387795500906 3.214005004217000
v -0.286747927055208 2.390932518657999 -4.352031173528154
v 2.305443707487838 3.736634037117321 2.361936875218277
v -1.417445332233349 4.270776164012435 2.149848323768858
v 4.635974983492576 1.009510928917531 -1.551820515184752
v 3.182710316523067 3.446575085395811 1.658202721979535
v 2.067131415064408 2.067382967596002 -4.031647436115943
v -2.184714976644688 3.959325621588428 2.102190784986923
v 3.138552733330954 0.038874160274878 -3.862387496399257
v -2.013278938289909 2.534999456501670 3.784981260692831
v 4.336472555893710 0.138142383791043 -2.434510792358394
v -4.688456169305191 1.678738802149570 0.110122133400274
v -0.445573876150490 4.582639785098459 -1.878170489585845
v -0.624465029641933 4.450885673164648 2.156041048366622
v 4.422073191189741 1.796532686668293 -1.447179113270021
v -4.629899252412628 1.618933556255621 0.907304514036851
v 1.981048965619677 4.577478670111244 0.282295159828253
v -4.176441538579203 1.591351063840704 -2.188563663674332
v -4.095126490899291 1.379096160180437 2.480590826386996
v 2.247272410269166 3.284934986185672 3.002492269950663
v -3.416131480949280 3.022648403506536 -2.013106947860802
v 2.045649204325666 4.525073781855523 -0.499660104331478
v 0.561821674077243 1.595270336521107 -4.703991317672077
v 4.533503007767770 1.963708775340373 -0.633636092539279
v -2.123156316831291 4.219536212347609 -1.578932222847333
v 4.803018505841425 1.128010010522023 -0.678149703627652
v 3.441495873377475 2.151735660295772 -2.887244424562770
v -0.223183259688330 0.857433779032468 -4.906135720748442
v 0.392990909545180 4.558927691288010 -1.971660665267092
v -4.441206958583008 1.508672317839986 1.703873960790288
v 2.676579356511802 2.515227040064463 -3.357496798687773
v -4.403817927197455 0.056523035162403 -2.327035198381640
v 2.992016517471578 1.434517337140368 -3.727837183784708
v -4.478026109748933 1.648800750382047 -1.448076855189635
v 2.052757804706130 4.367301765709511 -1.269144971360409
v -1.856433173282607 1.602079600015240 -4.345484694677104
v 2.196615568408802 1.409250389934995 -4.235538503658827
v 1.216151252634084 4.668075244381026 -1.236339234589993
v 0.616772031157812 0.806821732290687 -4.876439128357407
v 0.500000000000000 -0.500000000000000 4.949747470000000
v -0.500000000000000 -0.500000000000000 4.949747470000000
v 2.980174130000000 -2.863598760000000 2.813958830000000
v -3.082057770000000 -2.949495020000000 2.607949200000000
v 2.392873180000000 -3.128753510000000 -3.079782370000000
v -2.476839550000000 -2.923952050000000 -3.211817280000000
v -0.500000000000000 0.500000000000000 4.949747470000000
v 0.500000000000000 0.500000000000000 4.949747470000000
v 0.500000000000000 0.500000000000000 3.000000000000000
v -0.500000000000000 0.500000000000000 3.000000000000000
v 0.500000000000000 -0.500000000000000 3.000000000000000
v -0.500000000000000 -0.500000000000000 3.000000000000000
v -3.020842230000000 2.643561440000000 -2.980955400000000
v -2.628579940000000 2.902226630000000 3.109284180000000
v 2.544581300000000 2.933866340000000 -3.149211700000000
v 2.684333430000000 3.174553500000000 2.777870430000000
f 8 194 136 1
f 136 110 94 1
f 94 119 199 1
f 199 227 8 1
f 39 145 118 2
f 118 43 12 2
f 12 21 88 2
f 88 7 39 2
f 85 134 14 3
f 14 211 17 3
f 17 25 185 3
f 185 146 85 3
f 245 270 10 4
f 10 7 40 4
f 40 201 471 4
f 471 476 245 4
f 16 70 56 5
f 56 33 126 5
f 126 132 30 5
f 30 173 16 5
f 107 207 22 6
f 22 87 221 6
f 221 147 18 6
f 18 171 107 6
f 10 28 39 7
f 88 38 40 7
f 80 137 194 8
f 227 174 80 8
f 264 477 470 9
f 470 31 13 9
f 13 11 24 9
f 24 265 264 9
f 270 394 28 10
f 13 150 168 11
f 168 101 19 11
f 19 41 24 11
f 43 473 184 12
f 184 59 21 12
f 31 45 150 13
f 134 188 220 14
f 220 164 211 14
f 141 138 174 15
f 174 227 218 15
f 218 123 20 15
f 20 193 141 15
f 35 66 70 16
f 173 142 35 16
f 211 196 180 17
f 180 108 25 17
f 147 169 203 18
f 203 93 171 18
f 101 127 42 19
f 42 52 41 19
f 123 106 212 20
f 212 200 193 20
f 59 44 37 21
f 37 38 88 21
f 207 26 162 22
f 162 86 87 22
f 209 116 50 23
f 50 96 26 23
f 26 207 89 23
f 89 178 209 23
f 41 314 265 24
f 108 136 194 25
f 194 137 185 25
f 96 191 162 26
f 132 126 190 27
f 190 170 210 27
f 210 77 228 27
f 228 140 132 27
f 394 268 182 28
f 182 145 39 28
f 157 181 215 29
f 215 154 197 29
f 197 198 213 29
f 213 225 157 29
f 132 140 143 30
f 143 160 173 30
f 470 471 201 31
f 201 63 45 31
f 393 376 73 32
f 73 200 67 32
f 67 145 182 32
f 182 268 393 32
f 56 49 47 33
f 47 55 219 33
f 219 190 126 33
f 472 206 165 34
f 165 167 46 34
f 46 114 144 34
f 144 186 472 34
f 45 63 66 35
f 142 150 45 35
f 152 176 216 36
f 216 214 222 36
f 222 91 135 36
f 135 71 152 36
f 44 70 66 37
f 66 63 38 37
f 63 201 40 38
f 52 367 314 41
f 127 153 57 42
f 57 69 52 42
f 118 51 65 43
f 65 64 473 43
f 59 189 49 44
f 49 56 70 44
f 167 62 54 46
f 54 74 114 46
f 49 189 175 47
f 175 131 55 47
f 98 95 112 48
f 112 109 474 48
f 474 103 151 48
f 151 198 98 48
f 116 81 97 50
f 97 99 96 50
f 67 200 212 51
f 212 106 65 51
f 118 145 67 51
f 69 323 367 52
f 184 473 64 53
f 64 156 204 53
f 204 175 189 53
f 189 59 184 53
f 62 121 83 54
f 83 155 74 54
f 131 122 79 55
f 79 75 219 55
f 153 90 130 57
f 130 60 69 57
f 210 170 68 58
f 68 176 152 58
f 152 71 61 58
f 61 77 210 58
f 403 323 69 60
f 130 172 124 60
f 124 317 403 60
f 71 104 102 61
f 102 121 77 61
f 167 140 228 62
f 228 77 121 62
f 65 106 156 64
f 170 75 202 68
f 202 226 176 68
f 135 95 104 71
f 217 139 148 72
f 148 92 81 72
f 81 116 214 72
f 214 216 217 72
f 376 365 120 73
f 120 193 200 73
f 177 90 114 74
f 155 166 177 74
f 79 183 202 75
f 170 190 219 75
f 375 317 124 76
f 124 172 195 76
f 195 181 82 76
f 82 318 375 76
f 369 370 372 78
f 372 138 141 78
f 141 193 120 78
f 120 365 369 78
f 122 117 183 79
f 128 129 137 80
f 174 138 128 80
f 92 133 97 81
f 181 157 125 82
f 125 251 318 82
f 121 102 105 83
f 105 154 155 83
f 441 251 125 84
f 125 157 225 84
f 225 203 169 84
f 169 320 441 84
f 272 319 134 85
f 146 316 272 85
f 247 404 87 86
f 162 191 229 86
f 229 248 247 86
f 404 322 221 87
f 207 107 113 89
f 113 109 178 89
f 153 144 114 90
f 177 172 130 90
f 222 209 178 91
f 178 109 112 91
f 112 95 135 91
f 148 149 100 92
f 100 196 133 92
f 213 198 151 93
f 151 103 171 93
f 203 225 213 93
f 110 115 161 94
f 161 117 119 94
f 98 163 104 95
f 99 205 191 96
f 133 164 99 97
f 198 197 163 98
f 164 220 205 99
f 475 180 196 100
f 149 111 475 100
f 168 187 158 101
f 158 186 127 101
f 104 163 105 102
f 474 109 113 103
f 113 107 171 103
f 163 197 154 105
f 123 159 156 106
f 180 475 111 108
f 111 110 136 108
f 111 149 115 110
f 149 148 139 115
f 139 179 161 115
f 209 222 214 116
f 122 192 119 117
f 161 179 183 117
f 192 223 199 119
f 131 224 192 122
f 218 223 159 123
f 186 144 153 127
f 315 462 129 128
f 138 372 315 128
f 462 316 146 129
f 146 185 137 129
f 175 204 224 131
f 196 211 164 133
f 319 280 188 134
f 217 226 179 139
f 167 165 143 140
f 173 160 187 142
f 187 168 150 142
f 165 206 160 143
f 439 320 169 147
f 221 322 439 147
f 215 166 155 154
f 159 224 204 156
f 187 160 206 158
f 206 472 186 158
f 223 192 224 159
f 195 172 177 166
f 215 181 195 166
f 226 217 216 176
f 226 202 183 179
f 280 237 208 188
f 208 205 220 188
f 205 208 229 191
f 223 218 227 199
f 237 248 229 208
f 231 470 477 230
f 477 476 233 230
f 233 479 478 230
f 478 480 231 230
f 232 471 470 231
f 480 481 232 231
f 233 476 471 232
f 481 479 233 232
f 299 279 282 234
f 282 397 430 234
f 430 292 362 234
f 362 266 299 234
f 311 278 356 235
f 356 309 324 235
f 324 349 417 235
f 417 255 311 235
f 438 380 300 236
f 300 483 296 236
f 296 273 373 236
f 373 434 438 236
f 243 458 248 237
f 280 281 243 237
f 419 274 252 238
f 252 344 426 238
f 426 395 244 238
f 244 378 419 238
f 278 455 241 239
f 241 335 398 239
f 398 359 389 239
f 389 356 278 239
f 253 327 249 240
f 249 276 423 240
f 423 298 448 240
f 448 285 253 240
f 455 261 246 241
f 246 451 335 241
f 464 448 298 242
f 298 462 315 242
f 315 372 370 242
f 370 411 464 242
f 256 258 458 243
f 281 466 256 243
f 395 357 275 244
f 275 361 378 244
f 269 254 270 245
f 476 267 269 245
f 261 399 363 246
f 363 263 451 246
f 469 429 404 247
f 248 458 469 247
f 327 391 400 249
f 400 295 276 249
f 429 469 453 250
f 453 388 413 250
f 413 437 467 250
f 467 414 429 250
f 435 456 318 251
f 441 418 435 251
f 274 390 431 252
f 431 427 344 252
f 263 482 327 253
f 285 451 263 253
f 407 271 387 254
f 387 394 270 254
f 269 288 407 254
f 443 332 311 255
f 417 346 257 255
f 257 459 443 255
f 293 432 258 256
f 466 329 293 256
f 346 374 468 257
f 468 333 459 257
f 432 388 453 258
f 453 469 458 258
f 483 300 304 259
f 304 368 271 259
f 271 407 440 259
f 440 296 483 259
f 457 347 353 260
f 353 418 321 260
f 321 402 463 260
f 463 262 457 260
f 422 310 399 261
f 455 332 422 261
f 437 424 461 262
f 461 383 457 262
f 463 467 437 262
f 363 325 482 263
f 397 409 477 264
f 265 430 397 264
f 314 292 430 265
f 450 405 299 266
f 362 431 390 266
f 390 485 450 266
f 287 288 269 267
f 476 477 409 267
f 409 420 287 267
f 283 449 393 268
f 394 387 283 268
f 368 283 387 271
f 276 295 319 272
f 316 423 276 272
f 296 440 410 273
f 410 428 303 273
f 303 366 373 273
f 415 485 390 274
f 419 436 415 274
f 357 456 454 275
f 454 421 361 275
f 286 366 303 277
f 303 428 305 277
f 305 279 284 277
f 284 291 286 277
f 311 332 455 278
f 305 420 282 279
f 299 405 284 279
f 319 295 281 280
f 295 400 466 281
f 420 409 397 282
f 368 377 449 283
f 405 308 291 284
f 448 464 406 285
f 406 335 451 285
f 352 444 366 286
f 291 289 352 286
f 428 410 288 287
f 420 305 428 287
f 410 440 407 288
f 301 307 352 289
f 291 308 306 289
f 306 401 301 289
f 309 328 386 290
f 386 380 438 290
f 438 434 294 290
f 294 324 309 290
f 314 367 427 292
f 427 431 362 292
f 329 331 336 293
f 336 334 432 293
f 434 444 297 294
f 297 349 324 294
f 444 352 307 297
f 307 350 349 297
f 423 316 462 298
f 380 354 304 300
f 345 350 307 301
f 401 447 345 301
f 371 401 306 302
f 306 308 433 302
f 433 415 436 302
f 436 364 371 302
f 354 377 368 304
f 405 450 433 308
f 356 389 328 309
f 336 331 399 310
f 422 385 337 310
f 337 334 336 310
f 340 313 412 312
f 412 465 381 312
f 381 338 341 312
f 341 383 340 312
f 339 379 326 313
f 326 333 412 313
f 340 484 339 313
f 395 426 403 317
f 375 357 395 317
f 456 357 375 318
f 321 418 441 320
f 439 402 321 320
f 414 402 439 322
f 404 429 414 322
f 344 427 367 323
f 403 426 344 323
f 363 399 331 325
f 331 329 391 325
f 391 327 482 325
f 379 330 408 326
f 408 459 333 326
f 389 359 358 328
f 358 360 386 328
f 466 400 391 329
f 382 334 337 330
f 337 385 408 330
f 379 425 382 330
f 443 385 422 332
f 468 465 412 333
f 382 388 432 334
f 406 342 398 335
f 381 396 351 338
f 351 421 348 338
f 348 347 341 338
f 424 425 379 339
f 484 461 424 339
f 383 461 484 340
f 347 457 383 341
f 406 464 411 342
f 411 442 343 342
f 343 359 398 342
f 442 446 384 343
f 384 358 359 343
f 374 346 350 345
f 447 452 374 345
f 417 349 350 346
f 348 445 353 347
f 421 454 445 348
f 396 392 355 351
f 355 361 421 351
f 445 435 418 353
f 380 386 360 354
f 360 416 377 354
f 392 371 364 355
f 364 378 361 355
f 384 416 360 358
f 436 419 378 364
f 446 442 369 365
f 376 460 446 365
f 444 434 373 366
f 442 411 370 369
f 392 447 401 371
f 452 465 468 374
f 393 449 460 376
f 416 460 449 377
f 465 452 396 381
f 425 413 388 382
f 446 460 416 384
f 443 459 408 385
f 396 452 447 392
f 414 467 463 402
f 425 424 437 413
f 433 450 485 415
f 445 454 456 435
f 479 481 480 478
