v 0.987461726660886 -2.925749394623533 -0.147423375162490
v 0.012882812698732 -2.532953979105821 -0.998956512071198
v -0.630862009073640 -3.079073336833275 -0.773307501678364
v 0.651182096559205 -2.997936401651075 -0.758227798423710
v 0.018160159165880 -3.054699926036839 -0.996211673735128
v 0.991893147974691 -3.519438514147994 -0.097885407191069
v -0.986617116002034 -3.152643542729503 -0.159164954315049
v 0.673789874667260 -3.550209819277638 -0.733921247165424
v 0.032056372586089 -3.619422628281983 -0.996291005636095
v -0.648696672335391 -3.622716820106616 -0.758150218486351
v 0.985967149098602 -2.377231667213833 -0.161601993425910
v -0.980534202728778 -2.551197417049034 -0.185837893212350
v -0.993357633542114 -3.804167759359347 -0.092761794277481
v 0.595634450626248 2.926877478226732 -0.800447123530491
v 0.965959178039359 2.923108163882116 -0.243803384905417
v -0.022733447323231 2.831747865644205 -0.997644985867109
v -0.032378366587961 3.483201856538589 -0.998500696629968
v -0.703995993501880 3.408888536449861 -0.707575589560313
v 0.632686566025209 3.506710537786085 -0.768025593113392
v 0.986745736674306 3.527485212541805 -0.142975293284795
v 0.937399393474379 2.383037959835280 -0.342295327619226
v -1.741163976182160 -1.792541710861844 -3.947674510547148
v -0.529495015345121 -2.440345231862411 1.736861490897528
v 2.404557121711060 -0.646773148674663 -3.305163631061180
v -2.407751860468657 -0.640965480194938 0.571413489345812
v -2.145760758864823 -1.276900363864119 3.213480598000004
v 2.409372521494288 -0.634618561603244 -1.990846861723879
v -2.408924183861762 -0.641025910231484 -2.037671031275956
v -1.187496557573251 -2.196193990950867 1.785846040797690
v 1.415473339649883 -2.059591027948820 1.144829621119237
v -0.575809084942708 -2.427846640712055 3.167778175448476
v -2.160219468670439 -1.249756364987365 -2.049763795697428
v 2.400026580484397 -0.651497318757508 -3.971564765145966
v -1.206332230707859 -2.188354762591038 1.097447499185633
v 0.626505057978667 -2.413705350629730 -4.663450798818612
v -2.160468973529599 -1.251862874202690 0.541980551382088
v -2.404174081357283 -0.647693844010182 -3.337517449761715
v -2.407772278314467 -0.651648419556131 1.897545550176636
v 0.680495729909044 -2.399748800467023 3.865367481764939
v -0.593548209828690 -2.420345174060971 4.574922869475223
v 2.415825038553242 -0.609158118778597 1.277624015328942
v 0.010311787009785 -2.498812025397413 -3.357964959271108
v 2.420676397732259 -0.608787689039176 0.623135658877807
v -1.191833519625365 -2.189745003053865 3.172866770517572
v -1.202263779630165 -2.187586321368075 -4.583036428846631
v -2.407365638870039 -0.656185929690134 2.567874682199959
v 2.413457873900219 -0.624225170124977 2.596777147616486
v -2.144829007720656 -1.270622764360336 2.540195533313656
v 1.294640777157960 -2.130040525958649 3.183535576087592
v -1.755932455487084 -1.774635559149751 -2.699179509559090
v -2.407955560507819 -0.644330757749753 -2.686531418829787
v 1.814023416688434 -1.712703065663046 2.533229123484873
v 2.499985278679678 -0.000142888819991 0.006526304138295
v 1.257805585699439 -2.159338202498507 -2.695951366054639
v -0.615535060878456 -2.416397636017141 -4.667320840271282
v 1.268939918912011 -2.150263471512695 -2.063319098833273
v -1.240782437689103 -2.168974696818159 -1.447663219354125
v 0.647549472747216 -2.408820602133884 -3.347344159941587
v 2.150620334144323 -1.271160287418422 4.552371628219660
v -0.631110626669920 -2.417176888181125 -2.096170708284770
v -2.137830586162577 -1.280321810442200 3.882122436585924
v -1.770540971263142 -1.762680173337665 -0.139285086013333
v 1.374048249807083 -2.086351596193373 1.817063239297857
v -1.736942807697870 -1.795302995497337 1.831351378423022
v -1.769395618634818 -1.764421392779883 -0.783231322490824
v -2.161644390868487 -1.246226112494793 -1.405589881690981
v -2.409458279682954 -0.637143370695147 -0.737908505685186
v 2.413786413932543 -0.627187325334882 -1.336446943601753
v 0.961487222612409 -2.306929488662872 0.462324215242822
v -1.716137964237713 -1.805844785926788 -4.531125890827769
v -2.153188358124434 -1.258757904242211 1.200564252658793
v 1.242700357456206 -2.160784311439370 -3.328364203283751
v 2.416164646067738 -0.618333410872634 -0.682892299591616
v -2.163295280045921 -1.244224914347983 -0.759359239925445
v 1.289545885160093 -2.141461355869088 -1.428151349853604
v 2.144693676517631 -1.277957815935937 -4.582329220854575
v 0.756078526389425 -2.378280805666303 2.474703306709925
v 2.499971116329825 -0.000332266842920 -1.306233964644837
v 0.651702076528382 -2.403169370578126 4.569796352235950
v -2.148998930039222 -1.266332789951376 1.867440962296273
v 1.823250901407691 -1.705231410742664 -0.749623859834482
v 1.718865910894998 -1.797732991342935 -4.530104117466378
v 0.005140721851549 -2.494054033071325 -4.702258253955353
v 0.032539878446259 -2.497951434786012 4.602439690767054
v -0.555370063376109 -2.433685681183983 2.462934379202038
v -2.406970236658283 -0.646232255960446 1.232030369478323
v 2.499974286562545 -0.000307531518145 -0.648572991728544
v -1.237595679739064 -2.168963168989161 -2.079426849138637
v -2.137186340977655 -1.290420867769015 4.545874512394219
v 2.404057829532166 -0.639566970836195 -2.647349474292075
v -2.409450159067323 -0.638020796526088 -0.084786656857379
v 2.499928855084463 -0.000818424263168 3.288997380951834
v 1.262834295881877 -2.148552075027831 3.854633230369640
v -0.588226831240638 -2.424483726625909 3.865161792933142
v 1.332087441379263 -2.112418284022096 2.501992831440406
v 0.656926887208918 -2.410760220699625 -2.713750294735057
v -2.149170836024175 -1.269058248877670 -3.967091570677009
v -2.157234732337767 -1.253977285323312 -2.691428091456950
v -2.145911259852616 -1.281271447214362 -4.596472007184723
v -1.730764266294226 -1.796770204921987 2.510896652905365
v 1.847800426131136 -1.677882754715880 -0.102344280793175
v 1.855725590286780 -1.673651196484848 1.198100335834869
v 0.112441058672352 -2.491369178530095 2.459795803382304
v 2.499838113305133 -0.001892271249914 3.968666935034533
v -1.760454278015393 -1.770391007927847 0.505710442282947
v 1.227119800553999 -2.165702480505579 4.510062590816712
v 2.160959671061999 -1.253682967731661 -3.307371800341435
v -1.763473556824348 -1.767739555490428 -1.424771824948838
v 2.417904362125962 -0.611388260413710 -0.029847849324989
v -0.626828778662975 -2.419339980086815 -1.478355803872792
v 2.417245655370583 -0.616061499313589 1.935288647362051
v 0.015666601693780 -2.497098802963623 -2.101653547459717
v -2.408813566606343 -0.638355320177761 -1.388272438758603
v -1.192435393095007 -2.189249663578838 3.850502372316318
v 0.015755822951587 -2.499634199977412 -1.502142838606038
v 1.791559651238774 -1.734880321867780 3.203216900381244
v 1.782629105914223 -1.746535904970822 -2.038000412823702
v 1.861889905503868 -1.667974375977244 0.544993576169742
v 2.186715834298263 -1.209724700010056 2.565837454322874
v -1.252270281474268 -2.162130924736691 -0.809411795874337
v -2.404653831136281 -0.652373683865676 -3.999348277953472
v 1.769449780177697 -1.761794289425923 3.859880353515564
v 2.193010772968575 -1.191673113147451 1.900870802636796
v -1.725752232204189 -1.804568065837301 3.852338630308608
v -0.631017458008521 -2.416194070786389 -2.720428717926589
v 2.409086317799201 -0.634340673303133 3.263450019349991
v -1.748733109999104 -1.779404969385260 -3.329779014504973
v -1.188480012711005 -2.195897190501762 2.482809881243594
v 1.773153455421123 -1.760493732437630 -2.677355900996554
v 0.665409020961101 -2.409378221930908 -1.469930244730494
v 1.760063996415126 -1.769654663161763 -3.312820031681069
v -1.226938469511569 -2.170181314707381 -3.339227779032612
v -0.623441840989444 -2.414925959993307 -3.996570714670464
v -1.728258964253907 -1.798569678630553 3.187913835039957
v 0.663729831460553 -2.408201705238291 -2.088057340129314
v 2.499981122047871 -0.000223484618051 2.623762122359670
v -2.156035044745577 -1.261384799073669 -3.332132601586497
v 1.734190315676094 -1.788005544542440 4.487458842188044
v 2.173232149082434 -1.227315695817752 3.232181440573871
v 0.638164856318853 -2.413868588714197 -3.991600917698872
v -1.746466303531463 -1.784852436539867 1.160315895255455
v 0.179520868853453 -2.492593064850666 1.726353670222688
v 0.013244371953653 -2.498118348153972 -2.723408364102204
v 0.823062135176881 -2.358266255062501 1.764505151764092
v 2.407379263925069 -0.645994079460684 3.940182288266541
v 2.179526713837588 -1.215602223361942 -1.365896336971500
v -1.761171386398708 -1.772428741350843 -2.063425946501983
v -1.233055395309991 -2.168615726426987 -2.709875862922915
v 1.798843446288825 -1.729968436611904 -1.395430115680822
v 1.228886995045904 -2.171944796286234 -3.955923375030979
v 2.171522196575236 -1.230151586150522 -2.014488962788633
v 1.208611857672066 -2.180962829242651 -4.579154766532302
v -2.499881209867334 -0.001581170317096 4.685245124754308
v 2.499744340670031 -0.003435294655622 4.691709959773553
v -1.218026395047195 -2.178992413609245 -3.964500087001420
v 1.430384484989422 -2.048705067495291 0.501091530505752
v -2.164570888000089 -1.246365329366531 -0.110614993733831
v 2.149178338310964 -1.263299234591569 -3.948512478075703
v -2.407102951935112 -0.660236130898036 3.243388163141796
v 1.334885660963185 -2.112411385246273 -0.784634659086161
v 1.743360915080634 -1.780053136706111 -3.936952894747485
v -1.709328383100837 -1.813012102612035 4.483251687046877
v 0.076089633216970 -2.494844353550177 3.168061441736625
v 1.838825482661660 -1.692466580167905 1.862160770061847
v -2.405181171581233 -0.663857144388555 3.927688013579136
v 0.050791238493638 -2.496685450215721 3.873279505272818
v -0.628751963552127 -2.416518894416164 -3.353150448458206
v 2.499983521073286 -0.000230648015586 -1.966208235024566
v -2.402017543035743 -0.664557651639197 4.635527273126730
v -2.406256072208281 -0.652818480251564 -4.691768134270555
v 2.407027861550640 -0.654607960728295 -4.667045414052631
v 2.405548111252310 -0.653745845346121 4.644801093617599
v 1.402657274148386 -2.067152287876838 -0.136819889775161
v 2.161714781604265 -1.247971630728428 3.895236473337103
v 0.925703048519697 -2.321887824475692 1.061010887754088
v -1.273649072524344 -2.150961545774340 -0.167767071412623
v 2.200589091027345 -1.175270285380649 0.585399611453727
v 0.007260415839607 -2.495545347919564 -4.009191223606825
v -1.249550655362044 -2.164065563718930 0.462779236746902
v 0.712830294080941 -2.390552472405807 3.172647757359330
v 2.200577668562345 -1.180162100828510 1.240452366346227
v 2.164103778810185 -1.241013890911270 -2.662090769663894
v -1.189233411296694 -2.195901658021111 4.514695749466642
v 2.197950813358843 -1.183432242470561 -0.065988566723306
v 2.188444479848363 -1.198662550112897 -0.716141966064552
v 1.731923120900043 1.787641978007302 4.523899108107906
v 1.306920944926293 2.128508003387600 -1.134942902371823
v 0.008185011914538 2.498890228321629 -1.258306102633969
v 2.191989022454280 1.195668149744765 2.016427405465169
v 0.704319209984644 2.394188446365672 3.325699269848123
v 0.785464917309445 2.371716502415295 2.061336039899082
v 2.415566844751936 0.616594450041598 1.992737623803727
v 2.409048459548326 0.633600306913939 3.298910436013844
v -1.221457633190244 2.176099922580353 -2.626349108531176
v -1.220943798290619 2.180160727698154 -1.981337811156031
v 0.134867610191261 2.495058561037888 2.057300477362535
v 1.776349549745549 1.757507834913268 -2.562775513088672
v 1.212501785993066 2.181535917820906 -4.539775881006511
v -0.612732206631544 2.416722218176213 -4.623282165458553
v 2.408949202525387 0.640655453366083 -2.606616112945608
v -1.192331213754297 2.194499170846111 0.713740856202039
v 2.499974877051836 0.000240522385134 1.965776291231595
v -2.403613810373634 0.668211073384858 2.608014932898634
v 0.047080676754176 2.495902509429303 3.988417164090841
v 2.416674076109175 0.607778113268171 0.696033286905797
v 0.649068451973386 2.403201748225365 4.646660764205897
v 1.395372270273846 2.072057711108267 1.433406849125028
v 2.196870101486816 1.182265471333753 1.375558839552194
v -2.406385683713174 0.666290982171606 -3.989166779986407
v 0.629647889046692 2.412021845713781 -4.614817540494836
v -1.180719522493693 2.187841245767260 4.565187725257373
v 1.423860148892006 2.051094938031275 0.205694316852199
v 0.068154846554064 2.497028772879435 3.329469417989611
v 0.011894067767855 2.495458383495308 -3.939555227753312
v -1.180997357687923 2.202677289140598 2.015535320948331
v 1.276116733495409 2.146605245917508 -1.857848688090611
v 2.409842504619633 0.642330220491456 3.968370387833728
v -2.148036694573115 1.275035610143570 -0.689112333531215
v -2.404526874451723 0.669855473380933 0.619331243624109
v 1.376495283652482 2.085035561089889 -0.441540951241997
v -0.587865096825481 2.423459876728343 3.970622562615116
v -0.621724049104423 2.418567820166243 -3.269945587666619
v -0.578369841693682 2.429054413263646 3.318618307004167
v -2.140625137040515 1.276664704525208 -3.947522211406430
v 1.788950093998240 1.740146338805926 3.304049936044585
v -2.139986685777545 1.288811213381996 -4.583686947947399
v 2.499987889024911 0.000140650991243 1.311995233017991
v -2.498935230729509 0.011517192346960 1.258539756497506
v -0.593417823181622 2.424121815874969 4.649793675869074
v -1.743079685164544 1.786764251943783 -1.990783433258345
v -2.498912811928142 0.014726874644733 -0.718626946514745
v -2.498892957318680 0.011765585203364 -2.025254731776492
v 1.223399143195550 2.164819431329277 4.565359188510826
v 1.355182904654238 2.098045815931224 2.053533080218820
v -1.725099613645688 1.804727533942659 2.638009929719156
v 0.030567107250028 2.496310003858053 4.685085497065161
v 0.009432154985118 2.496686406170078 -4.649810943787688
v -1.727638259331526 1.806155876596470 1.333810208947547
v 2.499988934095341 0.000132585039148 0.659425633166690
v -1.219579262967378 2.177478907224543 -3.273873158162557
v -2.498905526539968 0.014907396454713 -0.062353214780590
v -2.499237133050638 0.008956637744052 1.922919097430807
v -2.135392828921939 1.287998560541661 4.569127606093759
v 2.150839082301927 1.268220685246080 4.575752855585380
v 0.446710777479810 -2.486521329229828 0.888186319724241
v 2.499996225394550 0.000044722116672 -2.629268104338097
v 2.412174926596237 0.624133653153210 2.643717766418946
v 1.287921837097770 2.134330857307119 3.313803540386364
v -2.499337989559308 0.008248798764606 -3.337352902112282
v -2.499695526255389 0.003741598922265 3.265802397713482
v 2.499962557638563 0.000430722797844 -3.297668281841499
v -2.499244422917111 0.009941086152103 -2.678721772832193
v -2.498863353356573 0.013688054090762 0.596746671048286
v 1.424321111550985 2.049333510575331 0.821678915323421
v -1.732002043150154 1.800186110219958 0.668350407797321
v 1.854761960333482 1.670146633615503 0.139676843776589
v -2.499898733238944 0.001187760337592 3.954358454540591
v 2.499907934064202 0.001055793104188 -3.978483634200594
v 2.182618688925839 1.210848769232119 2.658522816747565
v 0.957635611708660 2.308872189638034 0.295692111439456
v -2.142202464811768 1.283035931953980 3.276959939579228
v 0.943767405859913 2.314704060577300 0.861490668088115
v -2.499320308081697 0.006792917777386 -4.009845270011082
v 2.415086514374202 0.610083173788253 1.344007072163098
v -1.720022684989734 1.804105747051898 3.916106814067307
v -0.563237669290377 2.433227749671308 2.676117887160607
v -2.146413658083185 1.272751106748176 -3.300304178483946
v 1.765849459917817 1.763058756311647 3.927734539134396
v -2.400244746487779 0.662527403928567 -2.666157574306637
v -2.407462165174959 0.665268043246901 -3.322518277098652
v 1.835850067171208 1.694782899493678 -0.515577865042765
v 2.152480653134437 1.264444896731467 -3.912446898550595
v 2.404019856007645 0.654158684974047 -3.953103479107384
v -2.403360869956016 0.669876139676460 1.281822690477865
v 0.095956226507978 2.493311482575083 2.687578273934777
v 2.182359372188043 1.211554079724598 -1.236010809705181
v -1.744554695585057 1.787573313505161 -2.637965897974287
v 2.173366585787452 1.227064369144331 -1.909220340665940
v -1.739064855509049 1.792351126861612 -0.683053947157790
v -0.618856591105717 2.418094477541266 -3.935533726668489
v -2.498941432894666 0.013537958144931 -1.372639574222061
v 1.749862212864072 1.783512620463171 -3.885465612127705
v -0.532593139786401 2.441545456636771 1.415704624923582
v 2.198137749400021 1.179632978221386 0.087948387631424
v -2.144666939100496 1.275878061307715 -0.024929376759481
v 0.661258413032979 2.405768712372110 -2.565352532636449
v -1.184769249311435 2.195744409174513 2.657328055060574
v -1.214904491877270 2.182925503921608 0.005448170931035
v 0.677178640335086 2.405305284362177 3.975372081172061
v -2.141991333589636 1.283128140097620 1.965340678490334
v -2.499508513475052 0.006322589791963 2.590982979070876
v 1.760599262923987 1.765439179675382 -3.234079234862120
v -2.404491861334455 0.669571728291408 1.944539427595516
v 2.406114452419484 0.647349037865265 -3.276356433800661
v 0.019716546116253 2.495867830157962 -2.588462971378579
v 2.172452946405358 1.228047011548397 3.301722803136674
v 1.859488120688610 1.667429331928687 0.776707068358634
v 2.161233353548933 1.245867737590107 3.944579700442157
v 1.260862038541910 2.153833077199909 -2.555577209142797
v 0.737587117089167 2.383445428772355 2.688821181542525
v -1.739030351228646 1.786881950285601 -3.282804378387683
v 1.319889123602113 2.118903512389253 2.681818378585320
v 0.641126333685520 2.407874851131284 -3.919891528419519
v 1.248496922097199 2.162430405362350 -3.231663872785405
v -1.213293986047272 2.183099022266789 -1.344244108587537
v 2.159846854842846 1.251737045344584 -3.251614315538232
v -2.404187879906895 0.665857915989295 -1.358801863558719
v -2.405153211631459 0.666281242793763 3.951519610663333
v 2.412711497323636 0.624775845813531 -1.272821998341885
v -0.619039524337127 2.420164920010704 -1.961574314483710
v -0.621639608475175 2.420077392640235 -2.611486152290647
v -2.145504507763771 1.280407654396694 0.641778770436032
v -2.140162909687203 1.285183633920501 3.926150643470386
v -2.147799253562575 1.272205546514058 -1.347499065916851
v -1.199168516434064 2.187253762962373 -4.553486866710605
v -0.610722493635174 2.422738665944054 -1.340948957410885
v 2.192471970965927 1.193998047422891 -0.568442780579969
v -1.741914492656238 1.790497288771848 -1.341185480515129
v -0.544032324125934 2.438195356905729 2.041226102661794
v 1.810621444383375 1.723235127387374 -1.191822919039359
v -2.139430900424280 1.281338544094404 2.622122249045587
v -2.499556155664632 0.006006998118991 -4.728023803221580
v 2.499853261286753 0.001944838661599 -4.701886549434971
v 0.858879836546610 2.347312242876028 1.446027006281519
v 1.232288281047620 2.169606427555312 -3.893432102454514
v -1.206334054243200 2.188163810930036 -0.697807600800753
v -1.736252680602044 1.793561780184493 -0.009040068616812
v -2.143990517780339 1.282886708153909 1.305555554880164
v 0.202192813387008 2.490387297961429 1.437288412334717
v 1.848640173198171 1.679359512914094 1.406305842155843
v 2.165603779168572 1.239409345907037 -2.582857262568912
v -1.725027746309889 1.806600774114858 1.988355599964445
v -1.705340355720489 1.809865664921391 4.520294747398130
v -2.147295927611529 1.269733395790154 -2.000689823440259
v 2.420205441156785 0.611068838828686 0.044918493174664
v -2.148865194376411 1.270465948036091 -2.651494019173186
v -1.733511999058450 1.796201752064214 -3.916237058386957
v -2.406591308318276 0.668073212533316 -0.702113529118700
v 1.787494081879073 1.742107651685256 -1.880475813241245
v 1.721812721070972 1.798383405855756 -4.503757868531965
v 1.831621772607329 1.699929308433235 2.037192239564170
v -2.407874255111706 0.669791836402580 -0.042498129551039
v -1.723201896730757 1.801785099309252 3.283031013288941
v 0.016109862873575 2.498806040070613 -3.260115811751368
v -1.214385618232991 2.184834767379225 -3.918522925670028
v 0.020672322710733 2.497017743744678 -1.917734050422708
v 1.258474938593210 2.151763742976378 3.943366080787404
v 2.409035418485654 0.648029361359786 4.660452545431703
v -2.402775545574479 0.664564810233446 -4.680458145211558
v 2.404125145586287 0.657468962865655 -4.656850137846415
v -2.404242001961458 0.661791957051879 4.650697981732859
v -1.190957948733387 2.193070820282440 3.935938531858209
v -1.713437563692685 1.807761066203152 -4.517778981220779
v -1.190610375777122 2.193034023719008 3.299061036626123
v 2.146611432888850 1.281009670998621 -4.563742251207612
v 2.202805196330564 1.177247706316677 0.734435472459497
v 0.667687881584386 2.406305606186439 -1.866473996506771
v -2.403486516022958 0.664180460125906 -2.012663727266319
v 2.413953546417350 0.634379663434928 -1.938876970309700
v -2.402113253603353 0.666711492960803 3.274051359804906
v 0.653551023213751 2.412391960023534 -3.244255155778131
v -1.180605109671147 2.202042828872810 1.372122589885631
v 2.419028193415650 0.617408123805907 -0.611165850509889
v 1.809967016678447 1.719492284206465 2.670868005634226
v -1.278735387191773 -0.645470333728068 -5.000000000000041
v 2.022810045320332 0.003531837210347 -4.999999999999925
v 1.294696532766069 0.657391262749547 -5.000000000000032
v -2.004143306355460 0.006246380047499 -4.999999999999987
v -1.279798441865170 0.659185583674644 -5.000000000000034
v -1.225125947981708 -1.295888342181195 -4.999999999999988
v 0.649507480219354 0.007187069684278 -5.000000000000012
v 0.006326195616182 0.675973438422581 -5.000000000000059
v -0.629535176655406 -0.654522246168995 -4.999999999999992
v 0.003796646608349 -1.336432758051414 -5.000000000000020
v 1.996038212821873 0.651427465315089 -4.999999999999979
v 0.006963128262519 2.079378917970109 -5.000000000000028
v 0.641641415359366 -0.655066158136504 -5.000000000000007
v 0.005138418274025 -0.658937437536128 -5.000000000000020
v -0.629387459667223 0.670963539222575 -4.999999999999925
v -0.637788156222160 0.007747443774467 -4.999999999999957
v 0.005838284904164 0.007953606194118 -5.000000000000048
v 0.007508259489721 1.358175783334717 -4.999999999999962
v 0.641184862602843 0.670665848313834 -5.000000000000016
v 0.620671692071412 1.343240009298023 -4.999999999999982
v 1.235323637343550 -1.296448837654412 -5.000000000000000
v 1.199876682499577 1.983561266542640 -4.999999999999884
v 1.292613072101323 -0.646321138959320 -4.999999999999972
v 1.315481213094246 0.005698808463233 -5.000000000000006
v -1.976011548599403 0.655148591141619 -4.999999999999996
v -0.610032005182590 -1.323729360788428 -4.999999999999998
v -1.224468810707634 1.309209574713463 -5.000000000000009
v 1.234130895423213 1.307673280382056 -4.999999999999925
v -0.601914006577920 2.052815044231347 -5.000000000000012
v 1.882352259242976 -1.276240093666012 -5.000000000000052
v 1.198410119016381 -1.961800392599459 -5.000000000000001
v 0.612133118291134 -2.022242075067627 -4.999999999999993
v -0.603370967034769 -2.023543760693462 -5.000000000000006
v -1.191967568917746 -1.960021381817895 -5.000000000000018
v 0.005002792341179 -2.045018719136575 -4.999999999999993
v 1.992291819863368 -0.645156538644293 -5.000000000000001
v -1.871825396883379 -1.276988718062618 -4.999999999999976
v -0.610604286076216 1.346361006763709 -5.000000000000001
v -1.186517573599764 1.978538395523957 -5.000000000000036
v -1.877174406468598 1.286720897012503 -4.999999999999994
v -1.301703454306195 0.006856260074302 -5.000000000000017
v 0.614883041123997 2.055667923198001 -5.000000000000071
v -1.975944191034569 -0.644082877846488 -4.999999999999964
v 1.890682475689120 1.281815901528324 -5.000000000000055
v 0.621102365968444 -1.326235954949469 -5.000000000000007
v -1.287170328855309 0.647305687892501 4.999999999999948
v 2.031422510106021 -0.005682308527224 5.000000000000003
v 1.301784150988620 -0.661093797240712 4.999999999999968
v -2.028872438732385 -0.004939333383577 4.999999999999952
v -1.289709330604661 -0.663473245073775 4.999999999999972
v -1.226522049212060 1.299918779082574 4.999999999999925
v 0.654727191768298 -0.010675689448934 4.999999999999986
v 0.009420631446206 -0.683971163397802 4.999999999999973
v -0.630276550306046 0.655461554384433 4.999999999999898
v 0.011176955773216 1.340542071471155 5.000000000000048
v 2.006147848450004 -0.651961014628920 4.999999999999957
v 0.019980198213549 -2.109531731458153 5.000000000000018
v 0.647457959853718 0.654200174729327 5.000000000000057
v 0.008698082671829 0.659100725576884 4.999999999999976
v -0.640506931306275 -0.010404600259227 4.999999999999956
v -0.630950736010274 -0.678072491246192 5.000000000000053
v 0.007945276374789 -0.011370873558051 4.999999999999943
v 0.014083085774851 -1.373438235214440 5.000000000000003
v 0.646735839011081 -0.677496419271481 4.999999999999980
v 0.627963077470358 -1.355300232420060 4.999999999999964
v 1.242202011182680 1.295904037237011 4.999999999999956
v 1.210424925259793 -1.997551148298674 5.000000000000048
v 1.299229655758051 0.644077345692159 5.000000000000034
v 1.322339467650798 -0.008627493052996 4.999999999999913
v -0.605956449303038 1.328570998256119 5.000000000000009
v -1.228063465833221 -1.317843528484591 5.000000000000004
v 1.240860489424189 -1.313777240895920 5.000000000000098
v -0.593073022757842 -2.082730911434796 5.000000000000019
v -2.001782168519551 -0.657051787213928 4.999999999999884
v 1.888532837162176 1.271563285685730 5.000000000000065
v 2.000577734389738 0.641457558585846 5.000000000000017
v -0.591744837696335 2.034960505411956 5.000000000000046
v 1.209500285483464 1.963321796819713 4.999999999999940
v 0.626253408886462 2.029004868980934 5.000000000000115
v -1.184610788259923 1.969379242630501 4.999999999999867
v 0.019414290904154 2.054877443207353 5.000000000000057
v -1.885083850150018 1.282097666823320 4.999999999999746
v -1.182498477338991 -2.000367480488988 4.999999999999986
v -1.895699042567090 -1.290207112796920 4.999999999999933
v -0.607548087537937 -1.361036779025170 4.999999999999996
v -1.313083452901898 -0.007793878631662 5.000000000000030
v 0.628717255643745 -2.079587199669897 5.000000000000029
v -1.997163464414148 0.648186424493886 5.000000000000014
v 1.900768191207518 -1.280908614227164 5.000000000000052
v 0.629435259183726 1.328328095082887 5.000000000000068
v 0.400963583727658 2.569137734557551 0.905471151353694
v 0.896241952511950 2.829137160370552 0.434347878718667
v 0.809455375485421 3.458122995568734 0.580874266538983
v 0.137484683290186 3.410041431565032 0.988792869665638
v -0.997840316482927 3.403076059670642 0.025359599083258
v -0.998235187220413 2.685219288002564 0.021309062630310
v -0.645618250058925 3.377389932325140 0.762832459840924
v -0.893160357632793 -2.563491114307539 0.448914479051920
v 0.609814750610424 2.422946783623298 -0.959036598252196
v -0.355098969111320 -3.296456445475579 0.932554818701516
v -0.856435343102234 -3.226588193085587 0.512513746279709
v 0.866577886726314 -2.799058734681603 0.493617739050664
v 0.816913910905198 -3.431562187133739 0.573132592909320
v 0.287053245626444 -3.358561536460572 0.957791969142535
v 0.033868987980800 4.000000000000298 0.785065663930261
v 0.730362533501432 3.999999999999534 -0.051917362702307
v -0.018582103026169 4.000000000000155 -0.770226703561562
v -0.776957197924363 3.999999999999867 0.011249417288861
v -0.006904524541904 3.999999999999835 -0.007112337727815
v 0.068791645781973 -4.000000000000005 -0.715179057898222
v -0.473630268037996 -3.999999999999928 -0.018975759349681
v 0.151137640410594 -3.999999999999950 0.000117333194384
v 0.793356258413446 -3.999999999999979 -0.034726544045774
v -0.311051620305156 -4.000000000000142 0.804922503962810
v 0.216280177875661 -4.000000000000007 0.800107395492401
v 0.552800480000000 -2.438035930000000 -0.833008260000000
v -0.552800480000000 -2.438035930000000 -0.833008260000000
v -0.669130610000000 -4.000000000000000 -0.743144830000000
v 0.669130610000000 -4.000000000000000 -0.743144830000000
v -0.552800480000000 2.438035930000000 -0.833008260000000
v -0.669130610000000 -4.000000000000000 0.743144830000000
v -0.669130610000000 4.000000000000000 -0.743144830000000
v 0.669130610000000 4.000000000000000 -0.743144830000000
v 1.672826520000000 -1.857862060000000 5.000000000000000
v -1.672826520000000 -1.857862060000000 -5.000000000000000
v -1.672826520000000 -1.857862060000000 5.000000000000000
v -0.552800480000000 -2.438035930000000 0.833008260000000
v 1.672826520000000 -1.857862060000000 -5.000000000000000
v 0.669130610000000 -4.000000000000000 0.743144830000000
v -1.672826520000000 1.857862060000000 5.000000000000000
v 1.672826520000000 1.857862060000000 5.000000000000000
v 1.672826520000000 1.857862060000000 -5.000000000000000
v -1.672826520000000 1.857862060000000 -5.000000000000000
v -0.552800480000000 2.438035930000000 0.833008260000000
v 0.669130610000000 4.000000000000000 0.743144830000000
v -0.669130610000000 4.000000000000000 0.743144830000000
f 11 69 466 1
f 466 467 6 1
f 6 8 4 1
f 4 480 11 1
f 115 130 480 2
f 480 4 5 2
f 5 3 481 2
f 481 110 115 2
f 5 9 10 3
f 10 13 7 3
f 7 12 481 3
f 8 9 5 4
f 467 493 477 6
f 477 483 8 6
f 13 485 465 7
f 465 462 12 7
f 483 474 9 8
f 474 482 10 9
f 482 475 13 10
f 173 156 69 11
f 480 160 173 11
f 176 120 481 12
f 462 179 176 12
f 475 478 485 13
f 245 468 467 466
f 491 464 468 245
f 16 17 19 14
f 19 20 15 14
f 20 457 456 15
f 456 260 21 15
f 188 316 484 16
f 484 18 17 16
f 18 486 471 17
f 471 487 19 17
f 484 460 459 18
f 459 472 486 18
f 487 470 20 19
f 470 499 457 20
f 260 212 220 21
f 458 461 498 455
f 97 99 70 22
f 70 45 155 22
f 155 132 127 22
f 127 137 97 22
f 29 34 491 23
f 455 456 457 458
f 142 103 85 23
f 85 128 29 23
f 33 258 251 24
f 251 246 90 24
f 90 182 107 24
f 107 158 33 24
f 253 241 91 25
f 91 157 36 25
f 36 71 86 25
f 86 228 253 25
f 159 46 48 26
f 48 100 134 26
f 134 124 61 26
f 61 165 159 26
f 90 246 168 27
f 168 78 68 27
f 68 146 151 27
f 151 182 90 27
f 232 252 51 28
f 51 98 32 28
f 32 66 113 28
f 113 281 232 28
f 64 141 34 29
f 128 100 64 29
f 102 164 63 30
f 63 144 175 30
f 175 69 156 30
f 156 118 102 30
f 44 128 85 31
f 85 103 163 31
f 163 166 94 31
f 94 114 44 31
f 98 50 147 32
f 147 108 66 32
f 171 323 258 33
f 158 76 171 33
f 141 105 179 34
f 179 462 491 34
f 396 395 152 35
f 152 150 140 35
f 140 178 83 35
f 83 399 396 35
f 157 62 105 36
f 105 141 71 36
f 249 263 121 37
f 121 97 137 37
f 137 98 51 37
f 51 252 249 37
f 242 228 86 38
f 86 71 80 38
f 80 48 46 38
f 46 291 242 38
f 79 84 166 39
f 166 163 180 39
f 180 49 93 39
f 93 106 79 39
f 183 114 94 40
f 94 166 84 40
f 84 421 437 40
f 437 447 183 40
f 227 202 111 41
f 111 123 181 41
f 181 177 43 41
f 43 239 227 41
f 178 140 58 42
f 58 96 143 42
f 143 125 167 42
f 167 133 178 42
f 177 184 109 43
f 109 53 239 43
f 134 100 128 44
f 114 124 134 44
f 70 489 398 45
f 398 397 55 45
f 55 133 155 45
f 159 250 291 46
f 136 92 126 47
f 126 139 119 47
f 119 123 111 47
f 111 202 136 47
f 80 64 100 48
f 180 77 95 49
f 95 52 116 49
f 116 122 93 49
f 98 137 127 50
f 127 132 148 50
f 148 88 147 50
f 119 139 116 52
f 95 63 164 52
f 164 123 119 52
f 87 363 335 53
f 335 205 239 53
f 109 73 87 53
f 72 131 129 54
f 129 117 56 54
f 56 135 96 54
f 96 58 72 54
f 397 399 83 55
f 83 178 133 55
f 117 149 75 56
f 75 130 135 56
f 108 147 88 57
f 88 60 110 57
f 110 481 120 57
f 120 65 108 57
f 140 150 72 58
f 453 488 138 59
f 138 122 174 59
f 174 145 172 59
f 172 420 453 59
f 88 148 125 60
f 125 143 112 60
f 112 115 110 60
f 124 162 89 61
f 89 169 165 61
f 157 74 65 62
f 65 120 176 62
f 176 179 105 62
f 95 77 144 63
f 80 71 141 64
f 74 66 108 65
f 74 67 113 66
f 231 281 113 67
f 74 157 91 67
f 91 241 231 67
f 78 87 73 68
f 73 185 146 68
f 329 455 498 283
f 99 401 489 70
f 150 161 131 72
f 109 184 185 73
f 149 81 160 75
f 160 480 130 75
f 394 400 171 76
f 158 161 82 76
f 82 492 394 76
f 180 163 103 77
f 103 142 144 77
f 168 359 309 78
f 309 363 87 78
f 106 431 451 79
f 451 421 84 79
f 185 184 101 81
f 101 173 160 81
f 149 146 185 81
f 161 150 152 82
f 152 395 492 82
f 162 490 448 89
f 448 438 169 89
f 193 217 104 92
f 104 145 126 92
f 136 247 193 92
f 122 138 106 93
f 135 112 143 96
f 121 170 99 97
f 170 407 401 99
f 184 177 118 101
f 118 156 173 101
f 181 123 164 102
f 118 177 181 102
f 217 348 154 104
f 154 172 145 104
f 138 488 431 106
f 182 129 131 107
f 131 161 158 107
f 135 130 115 112
f 183 162 124 114
f 139 174 122 116
f 129 182 151 117
f 151 146 149 117
f 263 322 170 121
f 148 132 167 125
f 145 174 139 126
f 155 133 167 132
f 202 192 247 136
f 455 329 324 262
f 351 308 257 153
f 257 165 169 153
f 169 438 413 153
f 413 452 351 153
f 348 440 411 154
f 411 420 172 154
f 165 257 250 159
f 183 447 490 162
f 246 200 359 168
f 322 368 407 170
f 400 366 323 171
f 244 298 268 186
f 268 347 233 186
f 233 442 495 186
f 495 439 244 186
f 456 455 262 260
f 220 271 320 187
f 320 339 216 187
f 463 357 346 188
f 346 310 316 188
f 208 330 341 189
f 341 364 259 189
f 259 247 192 189
f 192 264 208 189
f 248 302 300 190
f 300 275 213 190
f 213 204 289 190
f 289 347 248 190
f 234 207 324 191
f 324 329 196 191
f 196 275 300 191
f 300 302 234 191
f 202 227 264 192
f 296 298 217 193
f 247 259 296 193
f 311 222 240 194
f 240 301 277 194
f 277 230 195 194
f 195 310 311 194
f 230 318 305 195
f 305 316 310 195
f 329 283 319 196
f 319 266 275 196
f 292 304 299 197
f 299 216 339 197
f 339 278 331 197
f 331 306 292 197
f 386 406 210 198
f 210 303 325 198
f 325 282 340 198
f 340 496 386 198
f 237 376 393 199
f 393 403 315 199
f 315 345 280 199
f 280 214 237 199
f 294 306 331 200
f 331 278 359 200
f 246 251 294 200
f 498 460 288 201
f 288 327 255 201
f 255 238 362 201
f 362 283 498 201
f 321 290 293 203
f 293 242 291 203
f 291 250 360 203
f 360 261 321 203
f 213 223 221 204
f 221 229 236 204
f 236 206 289 204
f 335 284 356 205
f 356 208 264 205
f 264 227 239 205
f 233 347 289 206
f 236 445 443 206
f 443 442 233 206
f 254 262 324 207
f 234 341 330 207
f 330 297 254 207
f 356 297 330 208
f 224 226 349 209
f 349 322 263 209
f 263 249 270 209
f 270 267 224 209
f 406 376 237 210
f 237 214 303 210
f 229 221 352 211
f 352 265 333 211
f 333 494 444 211
f 444 441 229 211
f 260 262 254 212
f 254 297 256 212
f 256 271 220 212
f 275 266 223 213
f 280 222 344 214
f 344 361 303 214
f 319 283 362 215
f 362 238 332 215
f 332 235 287 215
f 287 266 319 215
f 299 286 357 216
f 298 244 348 217
f 279 318 314 218
f 314 307 338 218
f 338 342 285 218
f 285 327 279 218
f 312 285 342 219
f 342 241 253 219
f 253 228 274 219
f 274 328 312 219
f 223 354 352 221
f 280 345 240 222
f 311 295 344 222
f 266 287 354 223
f 337 353 226 224
f 267 301 337 224
f 248 347 268 225
f 268 298 296 225
f 296 259 364 225
f 364 302 248 225
f 353 497 404 226
f 404 389 349 226
f 242 293 274 228
f 441 445 236 229
f 277 336 334 230
f 334 314 318 230
f 338 307 281 231
f 241 342 338 231
f 358 269 252 232
f 281 307 358 232
f 302 364 341 234
f 332 290 321 235
f 321 261 343 235
f 343 354 287 235
f 255 312 328 238
f 328 290 332 238
f 345 337 301 240
f 333 265 313 243
f 313 308 351 243
f 351 452 446 243
f 446 494 333 243
f 439 440 348 244
f 252 269 270 249
f 257 308 360 250
f 258 273 294 251
f 327 285 312 255
f 297 356 284 256
f 284 317 271 256
f 323 350 273 258
f 216 357 463 187
f 360 308 313 261
f 313 265 343 261
f 245 175 144 142
f 352 354 343 265
f 270 269 336 267
f 336 277 301 267
f 358 334 336 269
f 317 276 320 271
f 355 340 282 272
f 282 292 306 272
f 306 294 273 272
f 273 350 355 272
f 293 290 328 274
f 278 339 320 276
f 317 363 309 276
f 309 359 278 276
f 326 305 318 279
f 327 288 326 279
f 325 304 292 282
f 175 245 466 69
f 335 363 317 284
f 299 304 361 286
f 361 344 295 286
f 295 346 357 286
f 460 484 326 288
f 311 310 346 295
f 361 304 325 303
f 326 484 316 305
f 314 334 358 307
f 403 497 353 315
f 353 337 345 315
f 349 389 368 322
f 366 375 350 323
f 355 408 496 340
f 375 408 355 350
f 405 380 373 365
f 373 390 370 365
f 370 401 407 365
f 407 368 405 365
f 388 367 375 366
f 400 387 388 366
f 383 384 392 367
f 392 408 375 367
f 388 371 383 367
f 389 369 405 368
f 391 402 379 369
f 379 380 405 369
f 389 404 391 369
f 390 397 398 370
f 398 489 401 370
f 388 387 377 371
f 377 378 381 371
f 381 372 383 371
f 382 384 383 372
f 381 380 379 372
f 379 402 382 372
f 380 381 378 373
f 378 374 390 373
f 378 377 409 374
f 409 396 399 374
f 399 397 390 374
f 406 384 382 376
f 382 402 393 376
f 387 385 409 377
f 406 386 392 384
f 387 400 394 385
f 394 492 395 385
f 395 396 409 385
f 496 408 392 386
f 403 393 402 391
f 404 497 403 391
f 415 446 452 410
f 452 413 450 410
f 450 424 418 410
f 418 434 415 410
f 440 432 433 411
f 433 412 420 411
f 428 429 436 412
f 436 453 420 412
f 433 416 428 412
f 438 414 450 413
f 438 448 435 414
f 435 449 425 414
f 425 424 450 414
f 444 494 446 415
f 434 441 444 415
f 426 417 428 416
f 433 432 422 416
f 422 423 426 416
f 426 424 425 417
f 425 449 427 417
f 427 429 428 417
f 424 426 423 418
f 423 419 434 418
f 445 441 434 419
f 423 422 454 419
f 454 443 445 419
f 451 429 427 421
f 427 449 437 421
f 432 430 454 422
f 451 431 436 429
f 442 443 454 430
f 432 440 439 430
f 439 495 442 430
f 488 453 436 431
f 448 490 447 435
f 447 437 449 435
f 245 142 23 491
f 463 21 220 187
f 499 469 458 457
f 469 500 461 458
f 460 498 461 459
f 461 500 472 459
f 465 464 491 462
f 463 188 16 14
f 15 21 463 14
f 465 485 478 464
f 478 479 468 464
f 468 479 493 467
f 473 472 500 469
f 499 470 473 469
f 487 471 473 470
f 486 472 473 471
f 483 477 476 474
f 476 475 482 474
f 476 479 478 475
f 477 493 479 476
