v -0.683562883847757 -2.398247199226430 -4.626649256565491
v -1.472544167002177 -2.014845527222349 0.644101473471034
v -1.424181651058829 -2.048529038606967 -1.302776636085889
v -1.253744768537261 -2.155415556787579 -4.546560838597487
v -0.934690820425073 -2.315629776572612 1.966491137708047
v 0.557908448415035 -2.431664068613210 -4.633899391029015
v 2.018530232716594 -1.470392547391202 3.939102446644741
v 1.520491814489618 -1.978767478980630 0.646680950394481
v -2.458844035917931 -0.441973791553099 -1.309898543746404
v 2.484102836490116 -0.216746242744670 -1.309426190511413
v 1.544140816631098 -1.962176182513478 -0.641913084879643
v -0.132170242941572 -2.494252141478790 -3.285221336781437
v -0.976683371096829 -2.294014111237638 3.908112722603152
v 0.347448911111973 -2.468284654630027 3.920384677168932
v -0.239122333254407 -2.486317791232320 -1.332052476997936
v -2.464159559061499 -0.418500334818004 -0.652557267060101
v -0.326708330361430 -2.474320233556103 3.921266718657368
v 2.334258994450643 -0.885701910662739 -0.651082121897572
v 2.474298181050776 -0.293013751022988 1.984890411428335
v 0.997149856414447 -2.286378615758378 3.907762184699730
v 0.388731191143532 -2.467342891887564 -1.326150591725268
v 1.013783738359579 -2.280273038151321 4.540179552821249
v 1.050362535801518 -2.265167976671734 -1.965436903515650
v -1.001278603866959 -2.289310204160824 4.540107494884923
v -1.758978965689029 -1.767111143732430 -4.512206560015757
v 1.542895931413992 -1.963727687078946 2.623122810850329
v 2.320820696794298 -0.915750143667906 0.661422898617476
v -1.888681690538414 -1.637517718678092 -1.963736287261482
v -2.468078499254308 -0.381977901200318 0.662095421015421
v 1.573435907365529 -1.939307950396947 -1.302448165144051
v -2.470204705614215 -0.357038664332855 1.984119882710621
v -0.313689422036128 -2.477544546490481 2.619133669995034
v -2.288129343864611 -0.994628543494938 1.318512279676588
v -2.274490486033305 -1.023880309187732 0.003857608339736
v -1.447529997793618 -2.036344922379262 -0.640762152307166
v 1.003280479269125 -2.287283917136202 -1.303586548630110
v 1.591274196750623 -1.913476181333697 4.513727617448434
v 1.525017223284723 -1.974121878195264 1.307836828258279
v -0.334233222248564 -2.467556684290416 4.587029496253899
v -1.468710300839381 -2.021017656401648 0.000790205504635
v -0.203891059733538 -2.490963684360195 -1.973930768957865
v 0.472559034395676 -2.450679520703611 -2.625232373075523
v 1.531985600377911 -1.972988586174853 0.003388236527693
v -2.474903119585798 -0.347344778370922 2.651620075327755
v 2.478461700862300 -0.259624547305762 0.005327318236566
v -2.470719823187825 -0.368557833749289 1.321578262780081
v -0.854798643147909 -2.347155012318289 -1.307051354218739
v 2.099231552696417 -1.335916442573922 -4.562063854012254
v 2.471760768924300 -0.285652914979638 1.322323830473910
v 2.482374513516778 -0.240362287590882 -0.651759040421229
v -1.835543833403922 -1.686167915829023 -3.270650448425958
v 1.149887570202669 -2.209610409876451 -4.560806488238839
v 2.474315163975408 -0.297693087492040 2.651887316833528
v -1.402301130020038 -2.066376809747357 -1.963446127646741
v 0.349625976197625 -2.466628505182602 4.587683003757268
v -1.863207755096674 -1.659056886668244 -2.619661640122787
v 2.476283749492800 -0.274691035153236 0.662924094281374
v -1.581969072244751 -1.922613347558765 4.511081310256410
v -1.486173429622971 -2.006671165741839 1.306420764030255
v 2.317781306384153 -0.920202467904224 3.313601487338524
v -2.017984281604440 -1.454746599784870 4.581132392105303
v 2.026427494766657 -1.442620507048161 4.583815652808418
v 0.533828616127391 -2.437498387702671 -3.946522972970950
v -2.437094772279757 -0.529099064902439 -3.292924061722800
v 2.475147600442592 -0.300735108928318 3.329061620554699
v 1.085503351664141 -2.248316682118541 -2.620965298574191
v -0.097486872381605 -2.488973514538335 -3.954880662221809
v -2.280837763358335 -1.007828942798804 0.659957634926699
v 2.488901309723571 -0.131096502055843 -3.296727935163180
v 2.488113700679968 -0.161124295710113 -2.629610186976427
v -2.470730706277080 -0.337375932651044 3.328059356890920
v 1.652590075584753 -1.871642912998394 -3.269016403946433
v -0.795461851979652 -2.365799333043729 -2.623323687372825
v -0.828025835859012 -2.355685122761203 -1.967822943147770
v 0.434293100882205 -2.458880779260915 -1.972006110513497
v -1.972608959529886 -1.526313877011184 2.631641915913447
v 2.325107897888111 -0.903099209124952 0.004931644511549
v -1.550418650333868 -1.954175005818970 3.906185074061331
v 2.474206383471270 -0.300052143810067 4.028252862722810
v 2.008997362503430 -1.486812852943613 3.289518671259307
v 2.484400136848503 -0.189834864040971 -1.968313184869003
v -1.922937570202316 -1.595757877705290 -0.649502189711895
v 1.995717734562423 -1.497964194803389 1.973946450927496
v -2.474570116296873 -0.327171382782726 4.028581252585029
v -0.722477433120825 -2.389756634591421 -3.940881854499014
v 2.066111501837306 -1.398600997129542 -2.621188704045806
v -1.985116752961776 -1.510588796417403 3.287425808778766
v 2.005221876794240 -1.489870320508340 0.004099998364074
v 2.388922567299260 -0.729406531017176 -4.655442485426678
v -1.805433555732692 -1.723449708095754 -3.907875499500449
v 1.135535955436608 -2.220558871562192 -3.922350011215968
v -1.499935691786582 -1.996418073847813 1.966931363316201
v -1.301831710164761 -2.128747634298096 -3.915653360070291
v -1.903038269549984 -1.612036476806180 -1.305732380322969
v 1.603120960384848 -1.912232207136101 -1.962776334718365
v -2.297594447092719 -0.967815441437314 2.643127501632892
v -0.167324319770198 -2.489790204480404 -2.626566126654602
v -1.373690859289376 -2.084110116773368 -2.619561638170382
v -1.527957586218124 -1.972680577703450 3.271527990030579
v 1.996744669018068 -1.497941756697647 0.657322850845772
v -1.513834880415320 -1.986667186588743 2.622256364154183
v 1.534382778808301 -1.969072000085119 1.967925831903433
v -2.175244533728924 -1.225879897595689 -4.579838312071289
v 2.329586171870348 -0.898152987698295 4.703169545560817
v -2.320812523739215 -0.913739305119630 4.699588176660087
v 0.344891919907947 -2.472196485694750 3.268630211669394
v -0.308953019835806 -2.477896127354083 1.970702753719568
v -2.248071078218808 -1.092270383024332 -1.966213855222308
v -2.227882181947844 -1.117449645965717 -2.624241123689609
v -2.448015482889848 -0.498402466183725 -2.629249882908858
v 1.552058314972126 -1.954694010795047 3.272068964263445
v 2.084547933638457 -1.377211885687045 -3.275656824590172
v 1.630679945174425 -1.890651870247352 -2.618665699516301
v -2.213711785922063 -1.151018724691170 -3.280516491478009
v 0.976225862515221 -2.298678515051725 2.619143014318415
v 2.315376606745008 -0.925072685019365 1.980595456254651
v -2.002792594952767 -1.489022015891169 3.938197380437130
v -2.467426006925482 -0.398663902110020 0.004490473749855
v 0.506222462364042 -2.447575370949856 -3.282642000237558
v -2.451418872847817 -0.468129992384833 -1.968618395490420
v -0.065959678470326 -2.493324973780410 -4.661995566447710
v -1.936043407729025 -1.579264341511422 0.002740725275154
v -2.255798399565549 -1.064930750380976 -1.308409571313458
v 2.030895358191106 -1.450446040122094 -1.305941850935382
v 2.492719807721582 -0.101432432879542 -3.977316503203368
v -1.953745693930402 -1.552979341606503 1.313178457591239
v 2.475458664384514 -0.297734897505009 4.782407213612923
v -2.473885132183115 -0.315900512450384 4.780528575923431
v 0.967293696665809 -2.304598731237816 1.966684728748000
v 1.994294249677916 -1.500132334087494 1.314620548740559
v 2.093291519203046 -1.354924939997083 -3.923871530508872
v 2.315719089683348 -0.924533578333452 2.644418435476742
v 2.494741217398500 -0.072940666778151 -4.699856445896225
v 2.341480330120867 -0.862354637693113 -1.308264647678158
v 0.328056592446138 -2.477762462090636 1.329034785298794
v 0.984907767382002 -2.293658165169065 3.267187998397009
v -2.428593942176447 -0.561730886502220 -3.966567833896996
v 1.673336593060131 -1.840633401677345 -4.514356470634207
v -1.963266548278591 -1.540400440289807 1.972764121833304
v -0.946983538884091 -2.311315366706018 2.618751537256244
v 0.342413630077053 -2.475108628291285 2.619205555192305
v 1.667320664877215 -1.853610533409789 -3.907580978328376
v 0.337660529894165 -2.476216385568851 1.970917957023153
v 1.568916921776076 -1.941823311759721 3.906914980471082
v -0.319749826163040 -2.475789462853287 3.268453682278206
v 2.016793154943563 -1.474157391254931 -0.649295825687494
v -2.310321935866817 -0.934034073948868 3.988056900306547
v -2.195863894231035 -1.187427490575697 -3.932922776738121
v -2.421411268942681 -0.590298081712121 -4.668085425723709
v -2.270858844703503 -1.045032865544944 -0.651825495042659
v 2.048853783898389 -1.424399530726126 -1.964091712712494
v 2.321629537395055 -0.911107902644624 3.991767306982839
v -0.919392499389322 -2.323147844720111 1.306345268871947
v -2.294454333921340 -0.981797181775617 1.979432275126736
v -1.944204606726259 -1.564908130997857 0.655424732732103
v 2.381078110361176 -0.756794326444017 -3.959333811149900
v -0.960453357645109 -2.305549901378350 3.266860963681263
v -1.341254905864229 -2.105665623996641 -3.270706001003992
v 2.001848778385198 -1.495068663502145 2.632904023678450
v 1.113931160232467 -2.234709186651038 -3.273707598806949
v 2.317678355104174 -0.923007075751953 1.319811489060417
v 2.360883442113211 -0.808674246849891 -2.626299901507688
v -0.760725633930972 -2.379465984607502 -3.279245209602265
v 0.949197123345603 -2.311736790960727 1.306169939229203
v 2.373320359749433 -0.782963630108247 -3.288722648477087
v 2.351208232736091 -0.836063989962086 -1.966663489964009
v -0.305046745603861 -2.479811263282543 1.329310897225664
v -2.305864642218141 -0.953640785052961 3.311009032721796
v 0.817886401457935 -1.632314238662401 -0.572564706977505
v -0.349777394562342 2.253260122698074 -0.932814200863567
v -0.292584115615285 -1.617948354536066 -0.952857349465710
v -0.329809154391510 1.621183291882581 -0.942692617462961
v 0.299490128126830 0.972514729498011 -0.948787340184595
v 0.317479598447160 -0.974261873755811 -0.944231470823328
v 0.311853893335785 -0.325258204782021 -0.949537478849340
v 0.999687921466297 0.972397302415080 -0.003310875715445
v -0.999726287902570 -0.972073724027444 -0.003194081773003
v -0.999656944275062 -1.619713136126105 -0.004032111497177
v 0.999611983455078 1.620019400406211 -0.004095682820502
v 0.329109477949841 -1.620853874563998 -0.940960521095451
v 0.804778078564228 0.323131352773241 -0.586565448617823
v -0.999902249574699 -0.322544420693873 -0.001076014565101
v 0.999889502312468 0.322906841436857 -0.001216747491152
v -0.812977983876702 0.977930620520636 -0.580301968270651
v -0.310566155061425 0.325466604081178 -0.945230952224392
v 0.804532843991335 0.972485637699966 -0.590658123648093
v -0.809186992524759 0.326999511056473 -0.584284471563915
v -0.804504921193214 -0.322833739708052 -0.586107902876081
v 0.305928698383000 0.323952069912669 -0.949515086469605
v 0.811340138069646 -0.977673558767793 -0.579202387747108
v -0.318273731277614 0.974500688957348 -0.945799472114479
v -0.803975927742683 -1.623216635984672 -0.590461437091861
v 0.292532467175782 1.618070247855994 -0.953866719938374
v -0.305926492869717 -0.323756819415866 -0.949287728225005
v -0.300863853549948 -0.972280562497644 -0.952790823460382
v -0.803969278726767 -0.972196476830870 -0.590048974145488
v -0.815002305999561 1.632407603239320 -0.570477764202313
v 0.801820465039729 1.623288777766822 -0.589167355016967
v 0.999856360736432 2.233877402283272 -0.002025464718689
v -0.999864033286873 -2.233618617131267 -0.001841635273194
v -0.275013471186554 -2.246176723128762 -0.959450092258356
v 0.807115211240693 -0.326773602302314 -0.582989607917224
v 0.275039305987542 2.246874877075312 -0.960324217105265
v 0.350032792825555 -2.252629078978037 -0.933912011665192
v 0.808307925085975 -1.631409440769153 0.580002905146796
v -0.319719523810861 2.250296028316574 0.945230012483580
v -0.307914215421408 -2.248287246764917 0.948895981111193
v -0.313263678436068 1.620791127112569 0.947321675949703
v -0.309861680831585 -1.618071998163209 0.950199845870925
v 0.810885304464962 1.624009562093220 0.581084108808400
v 0.308698686286826 -0.974053578774574 0.945867543475257
v 0.308559888287756 0.972724617407546 0.947522409792551
v 0.309354271470676 0.324180925436629 0.950507736389005
v -0.999703869118186 0.979270522812149 0.003455697650535
v 0.999686235297093 -0.978911068243781 0.003328764471213
v 0.999595640336941 -1.632805811943349 0.004268191516521
v -0.999626063096579 1.633190056418616 0.004395073971678
v 0.309175464464427 1.618595785897407 0.947731917270520
v 0.805795446853049 -0.326594814007114 0.585170454438612
v 0.999890430369650 -0.327321601409703 0.001206491460695
v -0.999878547950924 0.327634964699003 0.001336916676978
v -0.809846319477158 -0.972325232290559 0.585263610825051
v -0.307741516682712 -0.323708371018561 0.946080487542903
v 0.807912252453230 -0.977441233930200 0.586063330113492
v -0.807946644189195 -0.322873835773663 0.585743830915045
v -0.805275665154770 0.326942613765302 0.584916998853504
v 0.308680922579323 -0.325045904702335 0.948639361113349
v 0.807933593618579 0.972716101423503 0.583658977505934
v -0.308930493618742 -0.972289482451436 0.948616769668782
v -0.810085550150310 1.632107879670881 0.581338677671383
v 0.313033257395370 -1.620197232248895 0.947065349356817
v -0.308408688448559 0.325524234359943 0.948504893769691
v -0.309632177658953 0.974495694981769 0.949186190135644
v -0.807351764071641 0.977775075464853 0.585716146516895
v -0.808870776354432 -1.623642376628521 0.579842951266039
v 0.999791514173161 -2.265157154678519 0.002939869476423
v -0.999787773865864 2.265525137560227 0.002874550141850
v 0.806236689030594 0.323317256788938 0.584373212396215
v 0.319168609675354 -2.250984791187004 0.943535459584366
v 0.308453004609738 2.248169825354362 0.950333837999279
v 0.975705001974127 2.292593573019944 3.908002216726002
v 2.470116819596498 0.357226288297670 1.984737010460734
v -0.996723747376628 2.284984336741873 3.906680100524030
v -2.325430743321759 0.917280965658529 0.660623271919864
v 1.485221664002696 2.005504458946431 1.306536874257182
v 0.679349490853575 2.389479975795375 -4.618260494605782
v 2.430903933877662 0.560849674959313 -3.967774382698442
v -0.949214219257303 2.311900075792447 1.305372958236086
v 0.828004453995408 2.355535986734131 -1.968847198409378
v -1.015294979050662 2.283917276584765 4.540336950772955
v -1.051727234338713 2.267060494260170 -1.966586866974392
v 1.301895942400357 2.129853835353551 -3.915646616199354
v -1.531820620466813 1.972375591473885 0.001929795014372
v 1.473423725793150 2.015701467593029 0.644189191282150
v 1.756100365428087 1.762638111673894 -4.513499596896853
v 0.999988465313630 2.288005859508715 4.540452749423721
v -1.541996406869394 1.962775932976479 2.622500392257935
v 2.437617321097543 0.528214859953114 -3.292583913504648
v -2.097364700655951 1.355468981122094 -3.927081912839204
v -0.557278855121244 2.427985186248449 -4.634785259227457
v 1.250946912036772 2.148032135735805 -4.551199037571859
v -2.002628979828570 1.495807462153608 2.632018074690460
v 0.935496434849968 2.318232698332826 1.966288301534511
v 0.919389031055573 2.323223206104651 1.306387778736990
v -2.475657890390456 0.285974702715248 1.321552676970815
v -0.389317516473222 2.467336239516947 -1.327356937531109
v 2.466578544379047 0.381644546280382 0.662644762292622
v -1.573421593259454 1.937895685154050 -1.303879603253491
v 2.457405284949372 0.441402837894371 -1.309427078976186
v 2.228650305060328 1.117445271147754 -2.623874140885299
v -1.545027107719104 1.962356179037735 -0.642856908289071
v -0.434609412922560 2.458661145335740 -1.973226648924456
v -1.592111665483183 1.914287045878698 4.512099836188713
v 1.425946884833652 2.050907078481867 -1.302872241565803
v 2.452547259662638 0.467705901998258 -1.968140784577061
v -1.526502723484134 1.975676943537311 1.307147698932050
v 2.474964198859327 0.347677374767493 2.652143468749410
v 1.402204013662208 2.065743207390884 -1.964222547343372
v -1.676211851365156 1.842749250571845 -4.512291446142911
v -2.491674358149273 0.099919085495674 -3.978343528649563
v 0.238881392668350 2.486976550420149 -1.332427053648306
v -2.473601827576656 0.293142677170216 1.984061548583896
v 0.854709451271939 2.347408309390912 -1.307351904716159
v -1.154047581411350 2.213671336198052 -4.563355515980348
v 1.865550549631242 1.660704294836256 -2.620067040678090
v -1.523636182074724 1.981058568523856 0.646655168731511
v 0.313309378650732 2.477308524964253 2.618908298741949
v -2.480744073660590 0.216049981113314 -1.310254550788614
v -0.349842859080848 2.464481787395006 4.586033851993229
v -1.137778631095482 2.224225800638262 -3.922646794216504
v -2.470826983264116 0.273838024095663 0.662059264339777
v -2.472931503979061 0.297777709820566 2.651163568563446
v 1.936359744948600 1.579307011772517 0.002725692407848
v -2.375252111269207 0.753767356104434 -3.959676371062979
v 1.341311201068615 2.105026656129063 -3.272192477325915
v 1.581303860336910 1.923170099261515 4.511645079604305
v 0.333748834632789 2.469374896284897 4.588101180505245
v -2.480104484780624 0.239999684714035 -0.652575977029278
v 2.017220425328147 1.455787730063962 4.580939127846686
v -2.026152755105627 1.443587117706375 4.583277009464015
v -2.370655459563574 0.781100028481955 -3.290446685819846
v -2.474948327061168 0.301176774547123 3.328476177322608
v -2.488743855702282 0.129900822532425 -3.297732188873320
v -1.603065686076532 1.910986059843453 -1.964193201471897
v -2.486492846702361 0.160060499915224 -2.630591559743999
v 2.470692777589424 0.337848933623302 3.328546764855040
v 2.212761136271565 1.149460252844958 -3.281023066499088
v 0.795406364398149 2.365746389290641 -2.624503346654398
v -0.472949707977314 2.450322428935281 -2.626744161182285
v 1.972363244163629 1.526620394307080 2.631843733941351
v 1.836444099162139 1.685800861798023 -3.271494042529889
v 1.549919846663318 1.954578986170320 3.906355201810307
v -1.003590595187722 2.287191526234459 -1.304371034257033
v -2.017307104148693 1.470571245939277 3.938831812101917
v -2.474014860571938 0.300656110050532 4.027593060109723
v -2.318690887537312 0.920991049829198 3.312973332503963
v 2.474530060642812 0.327807959636425 4.029057699705907
v 0.326452284152150 2.472281378710257 3.920110865296146
v 1.984807156685978 1.511042248017682 3.287609566304369
v -2.389298593681326 0.727881092841358 -4.657411668601950
v -2.006443779409228 1.490299285449124 0.003229695863032
v 2.444938409429457 0.496518955143839 -2.628715697983240
v 1.500203088791947 1.997139696389172 1.967028519050096
v 1.923321430885235 1.595896605551832 -0.649618573659177
v -2.008028081849635 1.486531170775020 3.288525718243070
v 2.297344652651665 0.968108848010506 2.643471963052064
v -1.085968682216050 2.247417264534644 -2.622586386430789
v 0.167067705695203 2.489797903417816 -2.627938508360222
v -2.334372854932996 0.885482723922131 -0.652120053928917
v 1.527560154250088 1.973068168500323 3.271645076319665
v -1.996099429408649 1.498186223603199 1.973193775151939
v 1.513541941814053 1.986944496637527 2.622325965290974
v 2.174614695387858 1.224712256524438 -4.581313173544140
v -2.329453817466941 0.899058215344324 4.702911320710246
v 2.320569427147965 0.914301893366154 4.699863868657491
v 2.257478586173830 1.065231834287895 -1.308220320765227
v 1.803587846105784 1.719998374614149 -3.909392439554900
v -1.653426853900554 1.871246403653579 -3.270669571650620
v -2.104544800947870 1.337144499662035 -4.564670308299589
v -0.345142178086601 2.472139526946468 3.268281197703753
v 1.944487097104294 1.565073279416321 0.655556326217762
v 0.308678900726832 2.477727394637825 1.970492499218009
v 2.279132880397362 1.025699802551930 0.004102834048221
v 0.760414500321431 2.379523034695588 -3.280698532751288
v -1.551508600353386 1.954424288210948 3.271614411768244
v -1.666615411096718 1.851424411075052 -3.908660374637900
v 1.372833911648445 2.082361405216634 -2.620421304774886
v -1.631405141250803 1.890393046042409 -2.620347479307576
v 0.721312301283531 2.387632713042634 -3.942250036913141
v 2.191802456868968 1.184816804968080 -3.933199297884895
v -0.534727950053083 2.436722545412654 -3.948727836538774
v 0.203661471355540 2.491349220044891 -1.975098621938710
v 2.461590503120301 0.417558565594674 -0.651972264037159
v -0.976240684903487 2.298408675114483 2.618637214022177
v 2.002335124156044 1.489636777537941 3.938343681385823
v -0.506861111722888 2.447089996635210 -3.284078426585659
v 2.280424286656945 1.007378531880400 0.660322472470171
v -2.316900200251718 0.922649857860620 1.318965412785460
v -2.364729472916745 0.809273843262937 -2.627708548057814
v 1.887429964430702 1.635958889023847 -1.964043290756784
v -1.534433355259871 1.968899043773953 1.967271523614591
v 2.295055391539475 0.982254902453116 1.979820465820710
v 0.065883911487711 2.495533802987775 -4.660987715874407
v -2.016709648982298 1.473588379555595 -0.650291277405704
v -0.967563621483097 2.304829296566126 1.966156765530115
v 2.244494140081198 1.090003884952514 -1.966071344005845
v -2.475298484184584 0.298554265885432 4.781705960403653
v 2.473785269005920 0.316700608958417 4.781006796595919
v -1.994723654316921 1.500152283414099 1.313862384770648
v 2.468166058457281 0.368365807408709 1.322094901364520
v 1.953793093983978 1.553082757293345 1.313357248007616
v -2.049012025264453 1.423747660568230 -1.965511345328110
v -2.494733739182960 0.071273679307768 -4.700563942311522
v 1.469147653735807 2.022483971376228 0.000646028061062
v -2.031380882084302 1.449991747799377 -1.307198994227486
v -1.568556960394089 1.942139454437239 3.907354272832118
v -0.328224821184476 2.477745101112684 1.328871832378841
v -0.984681527669775 2.293257505006595 3.266821030876526
v 0.319212339787166 2.474781743571717 3.268181460292372
v 1.904223966943600 1.612783927042679 -1.305952775691510
v 1.963061001150642 1.540522038397123 1.972973791722695
v -2.321351640618758 0.911690294503299 3.990939791341034
v 0.946595803791430 2.311374284071864 2.618666089160927
v -2.316787226736864 0.925176143132002 2.643648274247765
v -2.315510672013768 0.925182500464963 1.979753998262658
v 2.466562071197148 0.398293676651687 0.005084899013772
v -0.342686533134076 2.475074097850094 2.618836754352849
v -0.337892573936209 2.476213334309144 1.970585267352028
v -1.997792083329983 1.498324021779629 0.656560052785206
v -2.066569213566033 1.398097606396835 -2.622819279482617
v -2.351486147989796 0.835480995246214 -1.967959286164895
v -2.482729225618476 0.259912604056526 0.004581647909186
v -2.486292046663632 0.189302864569086 -1.969220813133456
v -2.083312537381856 1.375509556166146 -3.277471100281007
v 0.131740923104546 2.496220986501120 -3.287227743143084
v 2.270098641483301 1.044362633084691 -0.651602156652351
v 2.310045090351382 0.934703399692629 3.988302561612631
v 1.447994234092652 2.036463082183269 -0.641206205874210
v 2.420538473098119 0.589137737654275 -4.665908549837829
v -1.115462933727092 2.235992804646195 -3.275371479854160
v 2.287261973284301 0.994257663086343 1.318841616895786
v 0.959930846953588 2.305735328534940 3.266864611247003
v 0.096937496294768 2.490610990053705 -3.956757969033314
v -2.342879921646837 0.862289850312266 -1.309410665503657
v -0.348197320680832 2.470587323952187 3.920267565480954
v -2.327249796465598 0.903741698003085 0.004021736532191
v 0.304945346726891 2.479804416606536 1.329256778689907
v 2.305672369631958 0.954139034114546 3.311350433793807
v -1.296894034023881 -0.629976498096260 -4.999999999999923
v 2.020272991380261 -0.046425887732755 -5.000000000000022
v 1.298158338473558 0.628454430379268 -5.000000000000221
v -2.020395979487991 0.045213573700416 -4.999999999999804
v -1.281507612001047 0.676552300110806 -5.000000000000116
v 0.010047644387486 0.668176374350875 -5.000000000000083
v -0.645784307273282 -0.654060303846948 -4.999999999999971
v 0.627468098827893 -0.676036324332820 -4.999999999999999
v -0.010684112809201 -0.669978339813483 -4.999999999999970
v -0.627499613564733 0.674262587635738 -4.999999999999903
v -0.645466438493453 0.011240521568572 -5.000000000000145
v -0.000313054609524 -0.000787626683711 -4.999999999999968
v 0.644754436953009 -0.012829948364297 -5.000000000000039
v 0.023436060453005 1.349721010882965 -4.999999999999944
v 0.645272717869288 0.652891800625169 -5.000000000000089
v 0.635252588142794 1.328540012698083 -5.000000000000205
v 1.217733071913250 -1.322532879229555 -5.000000000000009
v 1.222493007824720 1.968004989305998 -5.000000000000187
v -1.245705452368600 -1.289332128960809 -5.000000000000003
v 1.282697512581963 -0.678550405124453 -5.000000000000004
v 1.311992569385131 -0.027045014857055 -4.999999999999985
v -0.635330132603722 -1.329838242590453 -5.000000000000049
v 0.596496360566683 -1.348631294416594 -5.000000000000007
v -1.216927383854264 1.319939802586677 -5.000000000000118
v 1.243825303757805 1.286599565793084 -4.999999999999676
v -0.571721413661751 2.049794302937119 -4.999999999999943
v 1.872279838838363 -1.315154738008808 -4.999999999999979
v 1.983239803286805 -0.694222800126283 -4.999999999999987
v 1.996873570764201 0.605801897360426 -4.999999999999890
v 1.167293934743556 -1.986304316282428 -5.000000000000000
v 0.571707305016939 -2.052710607152584 -4.999999999999986
v -0.645832165858540 -2.041644837873225 -5.000000000000010
v -0.040671586117456 -2.071913680028231 -5.000000000000007
v -1.223877002216759 -1.967782305913040 -4.999999999999979
v -1.895985272104745 -1.249266828258687 -4.999999999999972
v -0.023721942361679 -1.351751469115347 -5.000000000000025
v -1.164951966118580 1.980423688368660 -5.000000000000114
v -1.981582236592255 0.691940599451037 -5.000000000000068
v -1.872796815538964 1.315376959511392 -5.000000000000043
v 0.040145917059304 2.068441508507947 -4.999999999999977
v -0.596915048048667 1.346741253352338 -4.999999999999863
v -1.312484152050430 0.025867914320878 -5.000000000000014
v 0.644895337737607 2.039215132157556 -5.000000000000099
v -1.998242098538885 -0.607668888427267 -4.999999999999988
v 1.895719011525310 1.247474545392963 -5.000000000000005
v 1.872608804620992 0.300309382047991 4.999999999999997
v -1.050054585875960 1.455048940052307 5.000000000000021
v 1.099922769116090 -0.289966728524430 4.999999999999990
v -0.357638096533311 -0.896226937853115 5.000000000000064
v 0.363837562456942 0.298577476634652 4.999999999999941
v -1.082642183345000 0.873744161569016 5.000000000000025
v -0.364785884372075 0.296799270485486 5.000000000000054
v -1.101495771516887 0.290535040496969 4.999999999999979
v -1.015803141436679 -2.086772119730064 4.999999999999983
v -1.766410539933014 -1.430463639790645 4.999999999999996
v 0.356604260693469 0.896246189631919 5.000000000000060
v -0.360129212164475 0.896296316608472 4.999999999999979
v -1.080092899868707 -0.879337202861219 4.999999999999959
v -1.099938431331416 -0.295860028369564 4.999999999999969
v -0.364144805742539 -0.298291442560889 4.999999999999979
v 0.364393919164932 -0.296073525825335 5.000000000000011
v 0.359862858898794 -0.895297653534877 5.000000000000000
v 1.082284733349700 -0.873922597924053 4.999999999999984
v 1.050224490524336 -1.454921020634732 5.000000000000007
v 1.022757071630966 -2.079311720665099 4.999999999999987
v 1.045289748464283 1.459154119789191 4.999999999999986
v 1.099701785353544 0.296255134496485 5.000000000000039
v 1.875539874430318 -0.289301963383822 5.000000000000012
v -1.874293268245811 -0.300594392067094 5.000000000000008
v 0.352570284339607 -1.513064564305819 5.000000000000000
v -0.352659886362432 1.514505638664029 5.000000000000041
v 0.346033769381910 1.509958190100981 4.999999999999915
v 1.833309584648617 0.876746373878758 5.000000000000080
v 1.767590151472556 -1.419844190430545 5.000000000000004
v -1.023232498702320 2.081012078364629 5.000000000000076
v 1.014742257926800 2.085025030973256 4.999999999999888
v 1.765307974100899 1.425872747744926 4.999999999999981
v -0.348502179795286 2.175590135986971 5.000000000000162
v -0.338532720067031 -2.179173737893634 4.999999999999993
v 0.338176426319439 2.179690076710080 5.000000000000091
v -1.768428844923907 1.422004352496034 5.000000000000051
v 1.081113033490309 0.880192546314539 5.000000000000225
v 0.348167703840187 -2.174798038881287 4.999999999999975
v -1.873492755688447 0.288757459568767 4.999999999999977
v -0.346712039902245 -1.510353345473401 4.999999999999993
v -1.835997204706724 0.868236312585586 5.000000000000070
v -1.046944913389412 -1.460881670198495 5.000000000000019
v 1.836572111407385 -0.868736622772313 5.000000000000004
v -1.835067237191508 -0.879327158435948 5.000000000000043
v 0.834570850000000 -2.356526080000000 0.550447790000000
v 0.834570850000000 -2.356526080000000 -0.550447790000000
v -1.672826520000000 -1.857862060000000 5.000000000000000
v 1.672826520000000 -1.857862060000000 5.000000000000000
v -1.672826520000000 -1.857862060000000 -5.000000000000000
v 1.672826520000000 -1.857862060000000 -5.000000000000000
v -0.834570850000000 -2.356526080000000 -0.550447790000000
v -0.834570850000000 -2.356526080000000 0.550447790000000
v 0.834570850000000 2.356526080000000 -0.550447790000000
v -0.834570850000000 2.356526080000000 -0.550447790000000
v -0.834570850000000 2.356526080000000 0.550447790000000
v 0.834570850000000 2.356526080000000 0.550447790000000
v 1.672826520000000 1.857862060000000 5.000000000000000
v -1.672826520000000 1.857862060000000 5.000000000000000
v -1.672826520000000 1.857862060000000 -5.000000000000000
v 1.672826520000000 1.857862060000000 -5.000000000000000
f 85 93 4 1
f 4 442 440 1
f 440 441 121 1
f 121 67 85 1
f 59 126 155 2
f 155 122 40 2
f 40 200 505 2
f 505 153 59 2
f 35 82 94 3
f 94 28 54 3
f 54 74 47 3
f 47 504 35 3
f 93 90 25 4
f 25 502 442 4
f 140 101 92 5
f 92 59 153 5
f 153 167 107 5
f 107 32 140 5
f 63 67 121 6
f 121 441 439 6
f 439 438 52 6
f 52 91 63 6
f 62 37 144 7
f 144 111 80 7
f 80 60 152 7
f 152 104 62 7
f 38 164 498 8
f 498 236 43 8
f 43 88 100 8
f 100 130 38 8
f 16 298 288 9
f 288 393 120 9
f 120 108 123 9
f 123 150 16 9
f 50 18 134 10
f 134 166 81 10
f 81 275 269 10
f 269 353 50 10
f 43 236 499 11
f 499 36 30 11
f 30 124 146 11
f 146 88 43 11
f 97 73 163 12
f 163 85 67 12
f 67 63 119 12
f 119 42 97 12
f 24 58 78 13
f 78 99 157 13
f 157 145 17 13
f 17 39 24 13
f 55 39 17 14
f 17 145 106 14
f 106 136 20 14
f 20 22 55 14
f 201 504 47 15
f 47 74 41 15
f 41 75 21 15
f 21 204 201 15
f 118 392 298 16
f 150 34 118 16
f 77 88 146 18
f 146 124 134 18
f 50 45 77 18
f 53 132 116 19
f 116 161 49 19
f 49 370 242 19
f 242 277 53 19
f 136 111 144 20
f 144 37 22 20
f 75 23 36 21
f 36 499 204 21
f 473 491 55 22
f 37 501 473 22
f 75 42 66 23
f 66 113 95 23
f 95 30 36 23
f 462 500 58 24
f 39 487 462 24
f 90 148 103 25
f 103 443 502 25
f 111 136 115 26
f 115 129 102 26
f 102 83 159 26
f 159 80 111 26
f 161 130 100 27
f 100 88 77 27
f 77 45 57 27
f 57 49 161 27
f 94 123 108 28
f 108 109 56 28
f 56 98 54 28
f 46 265 291 29
f 291 392 118 29
f 118 34 68 29
f 68 33 46 29
f 95 151 124 30
f 44 292 282 31
f 282 265 46 31
f 46 33 154 31
f 154 96 44 31
f 145 157 140 32
f 107 143 141 32
f 141 106 145 32
f 68 155 126 33
f 126 139 154 33
f 150 82 122 34
f 122 155 68 34
f 40 122 82 35
f 504 200 40 35
f 62 482 501 37
f 102 129 164 38
f 130 83 102 38
f 55 491 487 39
f 74 73 97 41
f 97 42 75 41
f 119 160 66 42
f 71 302 292 44
f 96 168 71 44
f 50 353 386 45
f 386 267 57 45
f 131 142 138 48
f 138 503 435 48
f 435 436 89 48
f 89 156 131 48
f 57 267 370 49
f 56 109 114 51
f 114 148 90 51
f 90 93 158 51
f 158 98 56 51
f 438 503 138 52
f 138 142 91 52
f 65 60 132 53
f 277 306 65 53
f 98 73 74 54
f 500 463 61 58
f 61 117 78 58
f 92 139 126 59
f 80 159 132 60
f 65 79 152 60
f 463 497 105 61
f 105 147 117 61
f 104 496 482 62
f 91 160 119 63
f 110 305 303 64
f 303 280 137 64
f 137 148 114 64
f 114 109 110 64
f 306 317 79 65
f 160 72 113 66
f 70 162 165 69
f 165 156 125 69
f 125 247 258 69
f 258 322 70 69
f 81 166 162 70
f 322 275 81 70
f 84 315 302 71
f 168 147 84 71
f 160 91 142 72
f 142 131 112 72
f 112 86 113 72
f 98 158 163 73
f 87 168 96 76
f 96 154 139 76
f 139 92 101 76
f 101 99 87 76
f 117 87 99 78
f 127 104 152 79
f 317 368 127 79
f 150 123 94 82
f 130 161 116 83
f 116 132 159 83
f 128 367 315 84
f 147 105 128 84
f 163 158 93 85
f 151 95 113 86
f 112 165 162 86
f 162 166 151 86
f 117 147 168 87
f 436 410 133 89
f 133 125 156 89
f 101 140 157 99
f 148 137 149 103
f 149 452 443 103
f 127 476 496 104
f 497 477 128 105
f 141 115 136 106
f 167 135 143 107
f 120 110 109 108
f 120 393 305 110
f 131 156 165 112
f 141 143 129 115
f 151 166 134 124
f 133 399 247 125
f 368 454 476 127
f 477 492 367 128
f 143 135 164 129
f 410 437 399 133
f 167 207 239 135
f 239 498 164 135
f 280 373 149 137
f 373 412 452 149
f 505 207 167 153
f 190 174 180 169
f 180 204 499 169
f 499 236 216 169
f 216 215 190 169
f 172 193 203 170
f 203 281 266 170
f 266 313 507 170
f 507 197 172 170
f 195 196 192 171
f 192 504 201 171
f 201 204 180 171
f 180 174 195 171
f 197 184 191 172
f 191 173 193 172
f 191 185 189 173
f 189 181 186 173
f 186 198 193 173
f 175 194 195 174
f 190 202 175 174
f 189 185 194 175
f 202 181 189 175
f 179 198 186 176
f 186 181 183 176
f 183 238 228 176
f 228 210 179 176
f 222 235 178 177
f 178 192 196 177
f 196 188 182 177
f 182 225 222 177
f 235 505 200 178
f 200 504 192 178
f 199 506 198 179
f 210 509 199 179
f 202 220 183 181
f 188 187 221 182
f 221 226 225 182
f 220 219 238 183
f 214 221 187 184
f 187 185 191 184
f 197 217 214 184
f 187 188 194 185
f 196 195 194 188
f 215 220 202 190
f 198 506 203 193
f 507 237 217 197
f 509 254 374 199
f 374 398 506 199
f 506 283 281 203
f 231 211 224 205
f 224 215 216 205
f 216 236 498 205
f 498 239 231 205
f 377 407 240 206
f 240 218 208 206
f 208 230 508 206
f 508 248 377 206
f 505 235 209 207
f 209 231 239 207
f 218 212 233 208
f 233 234 230 208
f 235 222 229 209
f 229 211 231 209
f 228 212 218 210
f 218 240 509 210
f 229 223 227 211
f 227 219 224 211
f 228 238 213 212
f 213 232 233 212
f 238 219 227 213
f 227 223 232 213
f 234 226 221 214
f 217 230 234 214
f 224 219 220 215
f 237 508 230 217
f 225 223 229 222
f 225 226 232 223
f 234 233 232 226
f 507 271 253 237
f 253 286 508 237
f 407 264 509 240
f 256 296 312 241
f 312 330 402 241
f 402 379 318 241
f 318 297 256 241
f 370 401 362 242
f 362 326 277 242
f 250 289 405 243
f 405 340 378 243
f 378 345 376 243
f 376 273 250 243
f 358 369 389 244
f 389 321 406 244
f 406 392 291 244
f 291 265 358 244
f 323 381 371 245
f 371 341 254 245
f 254 509 264 245
f 264 263 323 245
f 349 252 261 246
f 261 426 451 246
f 451 448 363 246
f 363 403 349 246
f 399 333 350 247
f 350 307 258 247
f 365 388 377 248
f 508 286 276 248
f 276 361 365 248
f 283 274 278 249
f 278 347 308 249
f 308 328 352 249
f 352 281 283 249
f 483 486 289 250
f 273 511 483 250
f 313 266 272 251
f 272 309 327 251
f 327 348 304 251
f 304 268 313 251
f 295 311 337 252
f 337 255 261 252
f 349 344 295 252
f 271 364 321 253
f 321 389 286 253
f 341 293 374 254
f 337 350 333 255
f 333 453 513 255
f 513 426 261 255
f 484 510 296 256
f 297 488 484 256
f 345 378 354 257
f 354 365 361 257
f 361 331 262 257
f 262 325 345 257
f 307 270 322 258
f 394 338 346 259
f 346 279 339 259
f 339 320 294 259
f 294 301 394 259
f 351 403 363 260
f 363 448 434 260
f 434 445 284 260
f 284 290 351 260
f 331 385 384 262
f 384 316 325 262
f 383 332 323 263
f 264 407 342 263
f 342 287 383 263
f 282 385 358 265
f 281 352 272 266
f 386 343 357 267
f 357 401 370 267
f 271 507 313 268
f 304 372 375 268
f 375 364 271 268
f 275 366 336 269
f 336 396 353 269
f 366 275 322 270
f 307 311 285 270
f 285 360 366 270
f 352 328 309 272
f 376 314 300 273
f 300 489 511 273
f 398 324 380 274
f 380 360 278 274
f 283 506 398 274
f 286 389 369 276
f 369 331 361 276
f 326 408 306 277
f 360 285 347 278
f 346 290 284 279
f 284 445 512 279
f 512 447 339 279
f 303 301 294 280
f 294 320 373 280
f 292 384 385 282
f 311 295 347 285
f 379 402 383 287
f 342 388 387 287
f 387 340 379 287
f 298 329 404 288
f 404 391 393 288
f 486 488 297 289
f 297 318 405 289
f 400 356 351 290
f 346 338 400 290
f 302 316 384 292
f 341 357 343 293
f 343 396 324 293
f 324 398 374 293
f 344 308 347 295
f 510 485 299 296
f 299 355 312 296
f 392 406 329 298
f 485 481 335 299
f 335 397 355 299
f 314 382 334 300
f 334 494 489 300
f 359 390 394 301
f 303 305 359 301
f 315 382 316 302
f 348 390 372 304
f 393 391 359 305
f 408 397 317 306
f 350 337 311 307
f 344 395 328 308
f 328 395 356 309
f 356 400 327 309
f 319 408 326 310
f 326 362 381 310
f 381 323 332 310
f 332 330 319 310
f 355 319 330 312
f 376 345 325 314
f 325 316 382 314
f 367 334 382 315
f 397 335 368 317
f 379 340 405 318
f 355 397 408 319
f 339 447 446 320
f 446 412 373 320
f 364 329 406 321
f 396 336 380 324
f 400 338 348 327
f 364 375 404 329
f 332 383 402 330
f 369 358 385 331
f 399 437 453 333
f 367 492 494 334
f 481 454 368 335
f 366 360 380 336
f 394 390 348 338
f 387 354 378 340
f 371 401 357 341
f 407 377 388 342
f 386 353 396 343
f 349 403 395 344
f 356 395 403 351
f 387 388 365 354
f 391 372 390 359
f 401 371 381 362
f 391 404 375 372
f 452 412 450 409
f 450 419 415 409
f 415 430 427 409
f 427 443 452 409
f 436 428 429 410
f 429 411 437 410
f 423 424 433 411
f 433 453 437 411
f 429 421 423 411
f 446 413 450 412
f 446 447 432 413
f 432 449 418 413
f 418 419 450 413
f 418 449 422 414
f 422 424 423 414
f 423 421 420 414
f 420 419 418 414
f 419 420 417 415
f 417 444 430 415
f 431 444 417 416
f 417 420 421 416
f 421 429 428 416
f 428 425 431 416
f 449 434 448 422
f 448 451 424 422
f 451 426 433 424
f 438 439 431 425
f 428 436 435 425
f 435 503 438 425
f 513 453 433 426
f 430 440 442 427
f 442 502 443 427
f 444 441 440 430
f 439 441 444 431
f 447 512 445 432
f 445 434 449 432
f 481 490 475 454
f 475 456 476 454
f 479 486 483 455
f 483 511 489 455
f 489 494 459 455
f 459 465 479 455
f 475 458 469 456
f 469 470 471 456
f 471 496 476 456
f 470 469 468 457
f 468 467 466 457
f 466 495 493 457
f 493 478 470 457
f 475 490 464 458
f 464 465 460 458
f 460 468 469 458
f 494 492 461 459
f 461 460 465 459
f 461 467 468 460
f 492 477 467 461
f 495 463 500 462
f 487 493 495 462
f 495 466 497 463
f 490 474 480 464
f 480 479 465 464
f 467 477 497 466
f 478 472 471 470
f 472 482 496 471
f 478 491 473 472
f 473 501 482 472
f 485 510 484 474
f 484 488 480 474
f 490 481 485 474
f 493 487 491 478
f 480 488 486 479
