v -2.391620578651803 -0.703890859011456 -2.958679574027820
v -2.395414978432831 -0.705711544830192 2.938686855360284
v 0.338765870703178 -2.476217739342477 2.196650668411455
v -1.522407058927880 -1.981889686192799 -0.879704372288189
v 2.097747498343796 -1.346098948466118 3.596871132872243
v 0.351187996060539 -2.469937303220231 -4.299956701251546
v 1.031341859355994 -2.269045040388345 -3.616102386600335
v 2.383777933993219 -0.736773068314762 0.958432636135178
v 1.503855739476922 -1.994453743507254 0.265678092025796
v 0.307624336594833 -2.477019922887902 -1.516937855577033
v 2.387027639514895 -0.737438865080814 -0.964734801489810
v -0.298361622976407 -2.477935642986191 1.504760569649849
v 2.051115211827272 -1.427773194667062 0.304510070361019
v 1.058821476422329 -2.258075498103703 4.251851177089683
v -1.637496269452230 -1.877247232680637 -4.311788006987364
v -1.563796766129944 -1.944457771613239 1.543129185644043
v -2.083317967262272 -1.373550527057239 2.251774574919715
v -2.390852903198176 -0.696231988898234 3.607876477428865
v -1.617133078845899 -1.902144801325233 -2.940398878292655
v -1.059132788189423 -2.254753474181292 4.242673505468998
v -1.503110441651645 -1.993417525794027 0.266466460415333
v -1.521750698030919 -1.977441248666130 0.867519209636645
v 1.522580664779458 -1.978057605067170 0.868168336131466
v 0.377571504392733 -2.462116459538243 4.243791650012322
v -0.305633488479511 -2.478638439036018 -1.512818525663754
v -2.382124169369553 -0.729798523686645 0.950920353894102
v 0.336531388032827 -2.475248519528424 -2.222881649614003
v 1.649609009869411 -1.872581571256149 4.256632063259227
v 2.398134936609790 -0.703151983584184 -3.634858166130114
v 2.097735386957388 -1.348622864985656 -4.310504575560635
v -0.347702808156265 -2.471079660336431 3.563133407535690
v 0.992112646236279 -2.290760176702124 -2.231248688372162
v 2.383124473013083 -0.742616476418096 -0.322881280985817
v -2.387656218623355 -0.732650633529280 -0.320126944886015
v -2.391252216912476 -0.714399195688387 2.268377499443791
v 0.352038087526250 -2.471973619974463 2.885702711568030
v 2.499944695100772 -0.000658931414592 0.318564406701880
v 2.383130894185757 -0.742932972536369 0.315122808060327
v -0.352196133414108 -2.471196145471020 4.236716945532893
v 2.499962111822853 -0.000405297429158 2.274173305330703
v 1.565036967765937 -1.943471269378553 1.543288410392817
v -0.372073751284006 -2.471995780458690 -4.307673497448372
v -1.053315738572803 -2.259718249672633 -4.309913810396228
v 2.394783166632692 -0.695776019297164 4.297422510282830
v 2.499867432892909 -0.001535444899401 0.966004681443648
v -1.652368751010433 -1.869492986774478 4.259653164183103
v 1.053206371449274 -2.261600853248504 -4.295558871367760
v -1.562487811557087 -1.947866520949450 -1.557517766799217
v -2.109608456543114 -1.331152320696748 4.270365633412466
v 1.566966504204469 -1.945027144461731 -1.559548100056584
v -2.398137591512522 -0.690420385567228 4.294132896560494
v 1.630015899662168 -1.890647064412407 -3.622762874394935
v -0.358165766890006 -2.473695195744374 -3.618572795298631
v -0.990292641304394 -2.293292658086588 2.204615231244028
v -0.342416209815903 -2.475710605805353 2.884653977773875
v -2.385126939687356 -0.732880864880678 0.311399409741505
v -1.628697907501873 -1.888897784700290 -3.629202840212510
v -1.621400945459321 -1.898219028900884 2.904932648643074
v 0.351428132946685 -2.469375294828454 -3.614956032389212
v -0.990577132990731 -2.292224115008221 -2.227444559554381
v 2.499928574789923 -0.000888606868796 1.614372846002985
v -2.394095784799556 -0.703084789881031 -4.316148409169787
v 1.643737814799443 -1.876192714710467 -4.304287843204463
v 0.934892394540159 -2.316377379307936 1.492623523147113
v 1.619576086718472 -1.896427940211376 2.904867313398205
v -2.083415928145585 -1.377363396888776 -2.273046829381654
v -2.088793490078085 -1.361633232428415 -2.950452606187659
v 2.085184741867149 -1.377451665437065 2.251752961152106
v 1.618668238021225 -1.902326180370225 -2.936596722019935
v -2.097028607243562 -1.356526730538353 2.923470003156794
v -0.932662715102379 -2.318054233294595 -1.507945829072676
v 2.388949825305347 -0.717435759868389 2.267394864102119
v -1.639505348840783 -1.885019691561288 3.579631559023587
v -2.052244424844008 -1.423388984522991 -0.310202453287136
v -2.093448026611447 -1.352774972669417 -3.634311145050532
v -2.106613002304600 -1.341262122503036 3.593094825017782
v 2.098185468728561 -1.354004035482318 -3.628422645808921
v 2.393711668467335 -0.700712342877817 3.609105828586490
v -2.072527502651059 -1.395361194372035 1.584616057702180
v -0.346586998580136 -2.471233470748436 -2.924614220817404
v 2.072507578131060 -1.396397342107428 1.585143349529240
v 0.348012936259812 -2.470601452519448 -2.921491161256975
v 0.995477953236581 -2.291692581783588 2.204799719593156
v 1.598076918791773 -1.915990324967881 -2.249327477302397
v -1.035704233196687 -2.272625689968021 3.566488111674986
v 1.016522867735054 -2.279796453688769 -2.926695433537214
v 2.092797978992992 -1.363435012922674 -2.946756774661985
v 1.634823943688824 -1.883947080218475 3.582676255315635
v 1.022097628365045 -2.276193269774756 2.892286279566658
v -2.388339109486127 -0.720326255157615 -1.620847011281888
v 2.091125706956238 -1.358247584995719 2.920930568906099
v -1.018095822601698 -2.281760671517525 2.890855301591328
v -2.071094886782336 -1.396379839270769 -1.601696580521991
v 1.503440292827210 -1.996471640954045 -0.271890360247954
v 0.939860178015566 -2.312982033528765 -1.513518035094069
v -1.501750019033531 -1.996202878704195 -0.273054167142958
v 2.048048509171946 -1.425725081796542 -0.312742070749920
v 2.068900190620061 -1.395634742724978 -1.600522133263012
v -1.597337873416009 -1.915734143748107 2.225815240490951
v -2.057322442002615 -1.413200859786834 -0.940877869136932
v 1.599352614026317 -1.915991495195817 2.227557164099593
v 1.525598222840186 -1.977514836133856 -0.880171180769784
v 2.389057876329606 -0.727422889582328 1.606793271006846
v -1.035225012352938 -2.270821139880132 -3.622972410642014
v -2.392563538181458 -0.701504194874582 -3.636672601542638
v -1.596839095995795 -1.917615564815342 -2.251193347804923
v 2.390284293815798 -0.729148321887396 -1.620584941452675
v -2.389904543762033 -0.724071718693742 1.604605972886438
v 2.059929167842349 -1.416302986682685 0.934637079728850
v 0.310821952625382 -2.479688772882866 1.500127136135422
v 2.056237693763569 -1.414770234266957 -0.943682719781006
v 2.105200142298991 -1.336592688774467 4.276305664340744
v 0.362198527733662 -2.469050680842780 3.567917880926173
v 2.390722040828466 -0.707676217859215 2.934261496542056
v -2.096874609267100 -1.356020739603693 -4.311422127055066
v 2.395415802899699 -0.710591407246171 -2.955870445501283
v -2.060409945353454 -1.413814146195808 0.932687817388851
v -2.050658737030600 -1.423306187572547 0.304769823353490
v -2.394039952249819 -0.713075768784044 -2.286517321900151
v -1.018768458596796 -2.280505640678064 -2.931482186138878
v -2.382497594828371 -0.726776605005336 -0.961803032042649
v 2.081680429093233 -1.377209134842214 -2.270709184294391
v 1.038500149552051 -2.268578541775472 3.575059667226899
v 2.395607457469001 -0.698389061082000 -4.315988306420230
v -0.329765736616458 -2.474888146926546 2.196963812731436
v -0.331944357490460 -2.476850514132616 -2.219333049042983
v -0.932315009357882 -2.317898013664795 1.497618470283510
v 2.393534081369283 -0.719877598750609 -2.285030039235380
v -0.969324755196166 -1.917421589753880 -0.233611857195598
v 0.968071116436083 0.647293269202426 -0.244807009924462
v -0.964973238723241 -0.219734669003342 -0.244455420928358
v 0.967309675124167 1.512335958933968 -0.238077022263536
v 0.967153670772673 1.083331310084755 -0.239444123924289
v -0.966042380981799 0.653409612928667 -0.244078769989518
v 0.965243832605181 -1.085760495408141 -0.243538187757997
v -0.266332883870360 1.546444033251342 -0.961088024456662
v 0.738854741199981 1.953903389843259 -0.669385932295028
v -0.268334349632245 -1.551336407617905 -0.960982255600510
v -0.740484792888338 1.952669630505365 -0.667572937259166
v 0.284118275359084 2.006227635024398 -0.955617932578298
v 0.277012784289260 1.097651092962264 -0.959182904870365
v -0.728224054555930 1.089548548794872 -0.681157714573298
v 0.282360039570428 -2.012154337323756 -0.956894032687010
v 0.733199015549081 -1.539563409119362 -0.678147812015390
v -0.967066720716389 1.506631006395152 -0.241539483218879
v -0.965535421517136 -0.654763945956777 -0.246202428673670
v -0.267496008870016 -0.659790324247528 -0.960439952826345
v -0.727181591876802 0.656629145112214 -0.681904044687816
v 0.964745333003650 0.216267425656461 -0.247850199214756
v 0.727441234366783 1.089185852941747 -0.685344615764872
v -0.263754121774386 0.657879094731055 -0.963489423858958
v -0.267329951574489 -2.008227436899513 -0.961239643796224
v -0.262613169434629 0.219177014114192 -0.963543191169394
v 0.284141850834689 0.220680960276963 -0.955879077136714
v -0.729131321700096 -1.089531890314046 -0.679229197704306
v 0.282933062197854 0.654185792638047 -0.958519855306477
v 0.273281262321405 -0.657758427105871 -0.956748939943973
v 0.278408008975662 -0.216146602796582 -0.957717852414290
v 0.279089462865312 -1.556624336819568 -0.956487934945276
v -0.727095458110060 -0.223120464966391 -0.683668612350479
v -0.265251585245248 1.099492629758369 -0.960704157299686
v 0.729011171338616 -1.094929524546274 -0.679667890566445
v -0.966956115287646 0.218598361484960 -0.243082841585962
v 0.730516142618983 1.533477677732960 -0.679575634978406
v -0.731368517494949 -1.525918858743862 -0.677121216878220
v -0.725678294293109 0.219487189236242 -0.687011806133632
v 0.965499513497927 -1.514263544796169 -0.244160795935643
v 0.281782904616994 1.550626462662948 -0.955671413752756
v -0.268510759047705 -1.101738435055569 -0.958692502993848
v 0.274114533967410 -1.103877559867310 -0.959118776721647
v -0.264013909108696 -0.219963069566112 -0.960510493972803
v -0.729970539778757 1.523762162629315 -0.677795349432514
v -0.728111207008314 -0.657697541895042 -0.680667777182863
v 0.729399611844461 -0.651709000432272 -0.680300671732066
v -0.263186464237326 2.009047066996231 -0.960961120363426
v -0.966703252837460 -1.506564536251852 -0.241557072127900
v 0.727051918677327 -0.211920891303778 -0.681720564438484
v 0.738914081830648 -1.958771358179606 -0.670352178801530
v 0.965456918942498 -0.215712744202657 -0.246367152195142
v -0.742151471099193 -1.958585092037413 -0.668876245323353
v -0.970218746619993 1.916793919247091 -0.232677533799247
v 0.969025172331796 -1.918658012978201 -0.236854782006891
v 0.725067994534955 0.218003037910449 -0.685653957161708
v 0.970840752593427 1.917883388133121 -0.231220307501885
v -0.967151983976420 1.082541776192668 -0.243477325104877
v -0.966284800091125 -1.081864177921036 -0.245813495041718
v 0.724371929936577 0.644539068757681 -0.686084227048022
v 0.967376135196973 -0.650194400878691 -0.244571454075620
v -0.969737457495381 1.917474136572055 0.232197806087297
v 0.968224500476699 -0.647593947410523 0.244334944087661
v -0.965032463259675 0.220058937355865 0.244252448487970
v 0.967583029014354 -1.512517936647861 0.237194294239997
v 0.967307461016439 -1.083599675740964 0.238836479533635
v -0.966125467359569 -0.653109318735225 0.243772720359217
v 0.965400260638968 1.085497096640660 0.242966783986197
v -0.266472678460266 -1.546409571014789 0.961057375457734
v 0.739466267034941 -1.953919089234179 0.668710717325305
v -0.268348466896781 1.551431215366823 0.960976079212585
v -0.741011059222382 -1.952482237563268 0.667008451977034
v 0.284408945565167 -2.006268706172594 0.955522125852984
v 0.277237811139828 -1.097761848027601 0.959113258873908
v -0.728500538096879 -1.089333925216965 0.680893688264610
v 0.282742856970048 2.012133694707379 0.956763725425701
v 0.733543553030817 1.539384067888393 0.677738192733406
v -0.967299104695571 -1.506406698371630 0.240670933069726
v -0.965615299453052 0.655062642075220 0.245906239739509
v 0.964858824859590 -0.216575587399931 0.247443618502653
v -0.267485552502830 0.659902752093442 0.960445706788490
v -0.727327303073326 -0.656398463639584 0.681751460878209
v 0.727806455622042 -1.089428147836204 0.684974300685295
v -0.263762941867615 -0.657797611365439 0.963485111507977
v -0.267244470824912 2.008292146739977 0.961254719866986
v -0.262585062525648 -0.219081601726602 0.963555002752529
v 0.284367275876081 -0.220771867976724 0.955825114567227
v -0.729351072325313 1.089738668181091 0.679010899965965
v 0.283138706884258 -0.654291623319035 0.958441855406300
v 0.273500098784136 0.657695760095655 0.956685614564900
v 0.278619333949170 0.216072188879868 0.957653219027959
v 0.279376003844843 1.556601153240965 0.956387438591315
v -0.967010316975121 -0.218271527710821 0.242868959743980
v -0.727193840971044 0.223372767102052 0.683563248241108
v -0.265327230393340 -1.099438242493798 0.960685236790476
v 0.729315318940596 1.094709448603458 0.679308221987475
v 0.730968735225492 -1.533646544859846 0.679057039074357
v -0.731702016406526 1.526065776771096 0.676776767774449
v -0.725793087488668 -0.219234208921926 0.686918673400993
v 0.965726623498176 1.514037650853894 0.243386690372276
v 0.282054349995677 -1.550721657967796 0.955583138950375
v -0.268524027993515 1.101846424946090 0.958686222743805
v 0.274359442323591 1.103833938410343 0.959050015300306
v -0.263984351475075 0.220068724491629 0.960523234995197
v -0.730355019454208 -1.523579249068297 0.677377047938696
v -0.728236513747492 0.657940770114218 0.680517009608975
v 0.729679042454258 0.651473216919198 0.680009583796507
v -0.263361760355802 -2.009023913149119 0.960911934325092
v -0.966917014841460 1.506758564921607 0.240744156507027
v 0.727291745645892 0.211682276780166 0.681476710083721
v 0.739275560828110 1.958619443315055 0.669937758701076
v 0.965565903155308 0.215404047826825 0.245963900965413
v -0.742551658597850 1.958608737663244 0.668440736330710
v -0.970604805259004 -1.916602947517331 0.231100734163394
v 0.969301747431393 1.918489031868904 0.235706441595260
v 0.725324600747113 -0.218251512842472 0.685418250665969
v 0.971216655666150 -1.917940637333118 0.229700868095164
v -0.967282022437429 -1.082267360490966 0.242968305863503
v -0.966409321996623 1.082127901742714 0.245327104168042
v 0.724649083525049 -0.644791229916111 0.685801437136044
v 0.967491942899406 0.649898309191332 0.244112205792158
v 1.635128630927270 1.874563641125825 -4.314283361471094
v 0.361783394097422 2.470567619629062 -4.313333081026217
v -2.089330574846579 1.357503848634213 -4.314090379829651
v 1.629294453122791 1.895910725829888 -3.629686526219679
v 2.393664325768457 0.712032136086540 2.941022451137999
v 1.046383488048622 2.261046680607949 4.251214448455480
v -1.501858844160338 1.996016394130873 0.269029373720849
v 1.051039874546678 2.260997832420432 -4.312460994660947
v -1.052517358008195 2.259353064191788 4.255098976895362
v 0.309164444063010 2.477077673704003 1.514876669498788
v 0.936525650138623 2.315332215124038 1.506401832562054
v 1.614955714005330 1.905498332631837 -2.941552101041941
v 2.080795947042672 1.377729326108170 2.257773195918315
v 2.386415415604172 0.718365780224720 -2.959037168309418
v 1.558813338343949 1.949813318544467 -1.556275833963853
v 2.388796212542108 0.703723859274494 3.609616458524484
v 2.386453189279495 0.715102992689785 -3.638770095225709
v -1.560320652046022 1.948566469002370 1.548641281002431
v 2.382945335872669 0.735196282577332 0.960114477079171
v -1.593320042095353 1.922177548042372 2.233943115492630
v -2.380347858529376 0.742485668649469 0.952141485934083
v -2.385277780921113 0.742821612646097 -0.962667523313219
v 1.522664764387231 1.977911004227553 0.872469851825069
v 0.338020362282153 2.474918430475025 -2.217453237468508
v 2.043618197010121 1.435408949631915 -0.308921236457511
v -2.384137649769114 0.728537199685644 2.266567700927792
v 0.310144043357917 2.478328114370956 -1.509393646151849
v -0.331115247149537 2.476248587277876 -2.220656409821299
v 2.076372329661356 1.380560216100105 -2.271887417511662
v 2.499557823693316 0.005181135965223 -2.961191031866821
v -1.634387352479737 1.875518204509372 -4.312608962030374
v 0.351060030312825 2.464135889343996 3.579539983706251
v -1.645105242626323 1.876067630354894 4.264784325989639
v -2.383081413863177 0.718045036679846 -2.958693514331014
v -2.388455248599741 0.715757334057558 -3.635109479407712
v -1.521274249311233 1.980769334317287 0.872458916810865
v 2.386151167736141 0.716253260258655 -4.319229099896395
v 2.383284195815411 0.742089663042607 0.316518923192328
v 0.989424833270997 2.292425726690873 -2.225817629543819
v -0.990625956913478 2.292753114372629 -2.230391589507334
v -1.560953721463647 1.946307877777472 -1.560619107991582
v 2.090522333100933 1.359803622845958 -4.317164519700728
v -1.054271579499303 2.266123306958248 -4.311881195256048
v -2.499271932808604 0.008939917919817 -3.636965027661518
v -0.339766038569673 2.474276516839650 2.903166343530063
v -2.389583832288233 0.726957076025650 -2.287667244579071
v -2.499155148066639 0.011018943678157 -0.321657623089333
v 2.499998341654772 0.000020614727223 -0.325284780130678
v -2.389031434964783 0.716187749711636 -4.315656320237185
v -2.391566132794904 0.705195172075615 4.299758881815542
v -0.356115071006744 2.471959357585346 4.236449724316218
v -2.389191934973104 0.710270872947000 3.613362652284814
v -2.499082222002730 0.008614896279174 0.955725871270273
v 0.933107236974669 2.318258096037566 -1.505997718435155
v -2.499389479521079 0.006369691915314 2.272848063718001
v 2.499694800728779 0.003587482836901 -2.290059534846596
v -2.499316283921663 0.009046672041995 -2.291347297452601
v 2.386155124650365 0.725005333016467 -2.285492217171912
v 1.643833657886857 1.876831514837069 4.264581682927313
v 2.499932166385026 0.000905585735833 -0.970466225253296
v -2.499220782506580 0.009399703937246 -0.967540160435054
v 1.562409397421604 1.944243212514134 1.549628670509344
v 2.499814544000916 0.002176792057222 -1.626300481344849
v 2.082618291003260 1.367518489743354 -2.951813889797287
v -1.520327477766813 1.981057305733044 -0.877502654558621
v -2.499292215983991 0.008309922244855 1.609504397381232
v 2.105003064481767 1.338849586228435 4.272890329774604
v -0.365713693453699 2.472074441032017 -4.313008115103496
v -2.499799808641819 0.002210824359949 2.942649385342810
v -2.499182828240511 0.009683529716032 -2.960759748478128
v 0.362739307981178 2.463714733119635 4.238857770486315
v 2.396408872462818 0.697989377873474 4.295037836182273
v 2.385589443352518 0.743634588908691 -0.322295411283720
v -2.499775106388327 0.002623342019287 3.616002286922816
v 2.499272950542223 0.007847609985549 -3.639105396647690
v -2.385889042382586 0.737593935764929 1.604273010238086
v 1.615798334973532 1.903507928778946 2.914936487700810
v 2.088956571142070 1.360045675053469 -3.634955714703227
v -0.932351425970021 2.317467428477175 1.502570317044666
v 2.389720468803113 0.719304985132319 2.271337837443403
v -2.499416680171787 0.006710291197558 4.302988310111706
v 2.498878104273930 0.010679645946440 -4.319087625079353
v -2.499276272127816 0.008325492355365 -4.317017731305942
v 2.499869185322333 0.001814551843854 4.302481091828375
v 1.593561173146151 1.921577522731667 -2.250471494431416
v 2.386035930651253 0.739379539677978 -0.965496061884524
v -1.611459064649079 1.903387220967483 2.910186194966121
v 2.499558369433713 0.005264644543107 3.614991704450817
v 2.383650947635956 0.732965198627135 -1.620979924329272
v 2.093336452808087 1.362643127004840 2.928994506599701
v 1.032851602114583 2.266654144508394 -3.625056808386740
v -0.330768554824745 2.477629326826563 2.209353635500324
v -1.593947600613071 1.920318278383506 -2.251257784921691
v -1.501229371812501 1.997239805497701 -0.276250205278328
v 2.044373307135901 1.431760786633105 0.306705718812126
v -0.931253954694773 2.317542577945371 -1.510712926617876
v -2.499442867160373 0.008793057809194 0.310118703446640
v -1.626679399975638 1.892301168644613 -3.628041216321034
v 1.631212821163382 1.893049220751418 3.587906587835452
v -2.499348159567431 0.009077269947607 -1.626982723019933
v 2.101130442797873 1.348496626488313 3.597584080989411
v -2.093273330448886 1.357912568681595 3.602138905943428
v 0.348286279244352 2.472185573540894 -2.922127597270900
v -2.076450907978103 1.385447063006591 2.253356262711362
v 2.070544785020950 1.398334243714489 1.590856311433421
v -0.347007379414315 2.470787226266988 -2.923871765485146
v 0.990549366116053 2.293477314376757 2.217358599525111
v 1.021817646811547 2.279139994869292 3.579074061211822
v -0.988588519368190 2.294787784136290 2.213506568853430
v 0.355066166213701 2.467766051135420 -3.622255315718864
v -2.083819623022181 1.369166706483837 2.923259434353796
v -1.011832450406380 2.281015691488102 2.901335609817678
v 1.012971146177032 2.284156036555943 2.908263735660417
v 2.051005286999884 1.419474983765436 -0.942316231225045
v 1.520444344350460 1.982893426716932 -0.877209822871655
v -2.067779652165975 1.404061491287266 1.587020748628821
v -1.616365506599414 1.904284401635541 -2.942138232782955
v -2.064870158070689 1.401106261676640 -1.600621976231782
v -2.385359528137568 0.743537803373695 -0.320477305824449
v -2.048350042687151 1.429286692009289 0.304046682654873
v -2.378828882308528 0.742854537480111 0.307792000590921
v 2.069092532248714 1.402907714024892 -1.601163804337388
v 1.594960625547939 1.918006846321995 2.235269188792411
v -1.034035904654422 2.270135639598235 -3.624074152806547
v -1.017395983156927 2.279267593963927 -2.932393963266137
v -2.047528251889896 1.428893927323356 -0.312320716129887
v -2.053545607526053 1.419233037598618 -0.943302407523475
v -0.340004020377521 2.470246624865268 3.579536788453918
v -2.387207176682451 0.717930366151305 2.935917406598468
v -2.078421521592610 1.383145479649896 -2.274072348782239
v 2.388946010328451 0.727790652048738 1.610024576577290
v -1.627134725435599 1.890842372806324 3.589867057278085
v -0.304026621185576 2.480419183230196 1.511321587862854
v -2.089017702278364 1.369666695985861 -2.952517060917327
v 0.347498809116294 2.475364929243288 2.907530710369745
v -2.387045379559428 0.735397826608574 -1.621286503648180
v 2.499766419548826 0.003618274231888 2.941949156110201
v 2.055532246163255 1.418268163714610 0.937325749292646
v -0.358430578785299 2.470613038541513 -3.621429013878190
v 1.018850444401000 2.281668340163505 -2.928860247575226
v -2.093324610683881 1.361820402044947 -3.631635744239447
v -2.099490956050328 1.346174616321086 4.280666739385172
v 1.503646718849203 1.995616690743288 -0.272171523064395
v -0.299103112432277 2.480753842733594 -1.516398148588184
v -2.056217753673725 1.420552569895009 0.933941890107082
v -1.026351842235690 2.273331429508864 3.581483425235342
v 1.504945971888497 1.994706769674723 0.271779404678494
v 0.335603865092024 2.474251070670517 2.211023692190123
v -0.428796128303865 -1.672199299052675 -4.999999999999956
v -1.432032045319820 -0.748727673183910 -4.999999999999826
v 1.428059975153639 0.766055575344239 -4.999999999999809
v -0.413967939118725 1.689257582390773 -4.999999999999862
v 0.387514008623430 -1.663392831097376 -5.000000000000013
v -1.430311769900422 0.766358361100178 -5.000000000000028
v -1.209914167117798 -1.496541816341361 -4.999999999999955
v -0.470013456283967 0.840166906919255 -5.000000000000028
v -0.473253235094019 -0.820859996968668 -4.999999999999805
v 0.455226653964416 -0.807345885291404 -5.000000000000022
v -0.495857038164953 0.010615146791240 -5.000000000000062
v 0.486962501734128 0.016207462384338 -5.000000000000070
v 0.459967897024470 0.835791790483488 -5.000000000000347
v 1.224852116755513 -1.482050665895830 -5.000000000000018
v 0.405627327622692 1.681419405768971 -5.000000000000043
v 1.533889750760476 0.014518766545470 -4.999999999999740
v 1.220363664252316 1.501278242440958 -5.000000000000101
v 1.443788834533658 -0.736615600937860 -5.000000000000030
v -1.536957893069420 0.010253097292993 -5.000000000000109
v -1.214592056487149 1.502574705932525 -4.999999999999866
v -0.412489769040663 1.646118794795000 5.000000000000207
v -1.436704255994911 0.741165739820462 5.000000000000009
v -1.431189121388920 -0.725711521394856 5.000000000000018
v 1.434800778141348 -0.733641472017101 5.000000000000007
v -0.404112320045752 -1.639672245670669 5.000000000000045
v 0.413157481497018 1.642951566875851 4.999999999999963
v -0.462432989889624 -0.793139746901290 5.000000000000114
v 0.467648029006664 0.799312724346345 4.999999999999933
v -0.462786329790624 0.800649862735684 4.999999999999993
v -0.487358609089238 0.004434011481099 5.000000000000013
v 0.494491337126540 -0.000661126332512 4.999999999999923
v 0.469767127120887 -0.794855006418477 5.000000000000020
v 1.227719796640580 1.479631552694308 5.000000000000220
v -1.227189853911738 1.474354581148688 5.000000000000105
v 0.427577661707155 -1.641703757411586 5.000000000000015
v 1.534324593041716 -0.000148601053772 5.000000000000000
v 1.230276948843834 -1.473632823950430 5.000000000000007
v 1.444461200011885 0.732479280123829 5.000000000000075
v -1.534202895126962 0.007303829046203 5.000000000000091
v -1.227230915754578 -1.468725194216378 4.999999999999939
v 0.392023058176116 -2.458523193448792 5.000000000000000
v 1.100689407302262 -2.231540869055823 5.000000000000000
v -1.101821804470998 -2.231036693351879 5.000000000000000
v -0.278491713023111 -2.482558026330648 -0.955306715095564
v 0.286275877315550 -2.481675576118153 0.953003330655969
v 0.285441783348096 -2.481770133012274 -0.953250144442731
v -0.972726403851719 -2.302966424719102 -0.219151999941634
v -0.369308158273680 -2.463351394552614 5.000000000000000
v -0.391462867581278 -2.458642265637530 -5.000000000000000
v 1.089068903404038 -2.236714650742001 -5.000000000000000
v 2.088079303793289 -1.355950035958146 5.000000000000000
v -2.075055468744053 -1.378507980526408 -5.000000000000000
v 2.084939823136912 -1.361387776097817 -5.000000000000000
v -2.089676952805680 -1.353182826628113 5.000000000000000
v 0.972315156559511 -2.303135660027889 -0.220554706580116
v -2.387237033272322 -0.698691024232344 -5.000000000000000
v -2.392364150722475 -0.682911379505302 5.000000000000000
v 2.389994133556676 -0.690205542207230 5.000000000000000
v 2.388733659174540 -0.694084883402551 -5.000000000000000
v 0.349812293292364 -2.467495368650103 -5.000000000000000
v 0.974243598768518 -2.302342073008831 0.213977061596784
v -1.081166213076389 -2.240233155175786 -5.000000000000000
v -0.973765209700227 -2.302538938309166 0.215608779384556
v -0.268507446410482 -2.483689890698217 0.958261124007338
v -0.972733263311907 2.302963601933676 -0.219128603288273
v -0.268049739201993 2.483741778583444 -0.958396562523576
v 0.973489642795510 2.302652338813181 -0.216548699315741
v 0.285737930478379 2.481736560352676 -0.953162512596061
v 0.972845985357878 2.302917214879904 0.218744124252951
v 0.286309464292157 2.481671768537336 0.952993392052879
v -0.973347464546056 2.302710847599513 0.217033649315740
v -0.278428121828014 2.482565235333634 0.955325532140500
v 0.380024962488337 2.461073467458025 5.000000000000000
v 1.092909126506120 2.235004873254691 5.000000000000000
v -0.372621048796470 2.462647217921959 5.000000000000000
v -1.097740134598209 2.232853969867751 5.000000000000000
v -2.084913314364536 1.361433690639544 5.000000000000000
v 2.073146533042007 1.381814354231876 -5.000000000000000
v -2.074146216109537 1.380082852324953 -5.000000000000000
v 2.085094687584678 1.361119542999417 5.000000000000000
v 2.380433668341626 0.719629628155212 -5.000000000000000
v -2.387238967727660 0.698685070591087 5.000000000000000
v 2.390344604185307 0.689126904539802 5.000000000000000
v -2.380982931635142 0.717939169585157 -5.000000000000000
v 0.366948407469879 2.463852975078375 -5.000000000000000
v -0.379212243967942 2.461246216115255 -5.000000000000000
v 2.498655302881622 0.012793938107919 -5.000000000000000
v -2.499078613510810 0.008766406616824 5.000000000000000
v 2.499936510681946 0.000604060494068 5.000000000000000
v -2.499098135464831 0.008580667636584 -5.000000000000000
v -1.081593210497813 2.240043043674740 -5.000000000000000
v 1.086036155781342 2.238064916982306 -5.000000000000000
v 0.834570850000000 -2.356526080000000 0.550447790000000
v 0.708129160000000 -2.397614030000000 -0.706082840000000
v -0.708129160000000 -2.397614030000000 0.706082840000000
v -1.672826520000000 -1.857862060000000 5.000000000000000
v 1.672826520000000 -1.857862060000000 5.000000000000000
v -1.672826520000000 -1.857862060000000 -5.000000000000000
v 1.672826520000000 -1.857862060000000 -5.000000000000000
v -0.834570850000000 -2.356526080000000 -0.550447790000000
v 0.708129160000000 2.397614030000000 -0.706082840000000
v -0.834570850000000 2.356526080000000 -0.550447790000000
v -0.708129160000000 2.397614030000000 0.706082840000000
v 0.834570850000000 2.356526080000000 0.550447790000000
v 1.672826520000000 1.857862060000000 5.000000000000000
v -1.672826520000000 1.857862060000000 5.000000000000000
v -1.672826520000000 1.857862060000000 -5.000000000000000
v 1.672826520000000 1.857862060000000 -5.000000000000000
f 119 305 318 1
f 318 292 105 1
f 105 75 67 1
f 67 66 119 1
f 18 322 317 2
f 317 303 35 2
f 35 17 70 2
f 70 76 18 2
f 36 55 125 3
f 125 12 110 3
f 110 64 83 3
f 83 89 36 3
f 96 74 100 4
f 100 93 48 4
f 48 71 496 4
f 496 443 96 4
f 112 28 88 5
f 88 65 91 5
f 91 114 78 5
f 78 44 112 5
f 59 53 42 6
f 42 445 456 6
f 456 446 47 6
f 47 7 59 6
f 86 82 59 7
f 47 63 52 7
f 52 69 86 7
f 103 81 109 8
f 109 13 38 8
f 38 37 45 8
f 45 61 103 8
f 23 489 457 9
f 457 451 94 9
f 94 97 13 9
f 13 109 23 9
f 442 440 25 10
f 25 126 27 10
f 27 32 95 10
f 95 490 442 10
f 33 97 111 11
f 111 98 107 11
f 107 311 308 11
f 308 296 33 11
f 125 54 127 12
f 127 491 460 12
f 460 441 110 12
f 97 33 38 13
f 438 437 24 14
f 24 113 123 14
f 123 88 28 14
f 28 493 438 14
f 57 75 115 15
f 115 448 494 15
f 494 458 43 15
f 43 104 57 15
f 99 17 79 16
f 79 117 22 16
f 22 491 127 16
f 127 54 99 16
f 35 108 79 17
f 99 58 70 17
f 51 329 322 18
f 76 49 51 18
f 106 66 67 19
f 67 75 57 19
f 57 104 120 19
f 120 60 106 19
f 439 492 46 20
f 46 73 85 20
f 85 31 39 20
f 39 444 439 20
f 22 117 118 21
f 118 74 96 21
f 96 443 459 21
f 459 491 22 21
f 41 64 489 23
f 109 81 41 23
f 437 444 39 24
f 39 31 113 24
f 440 496 71 25
f 71 60 126 25
f 108 314 301 26
f 301 345 56 26
f 56 118 117 26
f 117 79 108 26
f 126 80 82 27
f 82 86 32 27
f 112 447 493 28
f 116 87 77 29
f 77 30 124 29
f 124 330 323 29
f 323 278 116 29
f 77 52 63 30
f 63 495 449 30
f 449 455 124 30
f 85 92 55 31
f 55 36 113 31
f 86 69 84 32
f 84 50 95 32
f 296 37 38 33
f 56 345 295 34
f 295 309 121 34
f 121 100 74 34
f 74 118 56 34
f 303 314 108 35
f 89 123 113 36
f 296 321 286 37
f 286 267 45 37
f 385 114 72 40
f 72 103 61 40
f 61 379 328 40
f 328 253 385 40
f 101 83 64 41
f 81 68 101 41
f 53 104 43 42
f 43 458 445 42
f 454 447 112 44
f 78 336 332 44
f 332 485 454 44
f 267 379 61 45
f 492 450 49 46
f 49 76 73 46
f 446 495 63 47
f 93 66 106 48
f 106 60 71 48
f 450 453 51 49
f 102 490 95 50
f 84 122 98 50
f 98 111 102 50
f 453 484 329 51
f 77 87 69 52
f 80 120 104 53
f 59 82 80 53
f 92 58 99 54
f 125 55 92 54
f 73 76 70 58
f 92 85 73 58
f 120 80 126 60
f 105 292 331 62
f 331 486 452 62
f 452 448 115 62
f 115 75 105 62
f 110 441 489 64
f 88 123 89 65
f 89 83 101 65
f 101 68 91 65
f 93 90 119 66
f 81 103 72 68
f 72 114 91 68
f 87 122 84 69
f 114 385 336 78
f 116 128 122 87
f 121 309 348 90
f 348 305 119 90
f 93 100 121 90
f 451 490 102 94
f 102 111 97 94
f 122 128 107 98
f 128 304 311 107
f 278 304 128 116
f 455 483 330 124
f 241 459 443 129
f 443 496 180 129
f 180 165 176 129
f 176 205 241 129
f 133 150 187 130
f 187 183 149 130
f 149 239 248 130
f 248 195 133 130
f 220 194 146 131
f 146 173 160 131
f 160 166 163 131
f 163 191 220 131
f 184 137 164 132
f 164 150 133 132
f 133 195 227 132
f 227 242 184 132
f 206 191 163 134
f 163 166 148 134
f 148 142 185 134
f 185 246 206 134
f 188 174 162 135
f 162 144 167 135
f 167 192 193 135
f 193 190 188 135
f 172 142 161 136
f 161 141 168 136
f 168 140 175 136
f 175 139 172 136
f 497 464 140 137
f 140 168 164 137
f 184 463 497 137
f 169 155 165 138
f 165 180 152 138
f 152 143 159 138
f 159 170 169 138
f 181 145 172 139
f 175 462 498 139
f 498 461 181 139
f 464 462 175 140
f 161 151 156 141
f 156 187 150 141
f 150 164 168 141
f 148 151 161 142
f 172 145 185 142
f 152 440 442 143
f 442 490 178 143
f 178 144 159 143
f 162 170 159 144
f 178 182 167 144
f 236 246 185 145
f 181 189 236 145
f 194 245 186 146
f 186 155 173 146
f 171 160 173 147
f 173 155 169 147
f 169 170 157 147
f 157 158 171 147
f 166 153 151 148
f 183 177 179 149
f 179 207 239 149
f 153 154 156 151
f 180 496 440 152
f 166 160 171 153
f 171 158 154 153
f 158 177 183 154
f 183 187 156 154
f 186 176 165 155
f 170 162 174 157
f 174 177 158 157
f 182 244 192 167
f 188 179 177 174
f 186 245 205 176
f 490 451 182 178
f 188 190 207 179
f 461 467 189 181
f 451 457 244 182
f 242 465 463 184
f 240 225 236 189
f 467 499 240 189
f 193 210 247 190
f 247 243 207 190
f 221 226 220 191
f 206 233 221 191
f 244 197 224 192
f 224 210 193 192
f 209 202 245 194
f 220 226 209 194
f 248 234 223 195
f 223 204 227 195
f 235 199 232 196
f 232 202 222 196
f 222 201 228 196
f 228 200 235 196
f 200 228 224 197
f 244 457 489 197
f 489 441 200 197
f 212 203 219 198
f 219 230 229 198
f 229 215 225 198
f 225 240 212 198
f 235 460 491 199
f 491 459 241 199
f 241 205 232 199
f 441 460 235 200
f 222 211 216 201
f 216 247 210 201
f 210 224 228 201
f 232 205 245 202
f 209 211 222 202
f 466 500 238 203
f 238 204 219 203
f 212 468 466 203
f 223 230 219 204
f 238 242 227 204
f 246 215 233 206
f 243 237 239 207
f 217 218 231 208
f 231 221 233 208
f 233 215 229 208
f 229 230 217 208
f 226 213 211 209
f 213 214 216 211
f 240 499 468 212
f 226 221 231 213
f 231 218 214 213
f 243 247 216 214
f 218 237 243 214
f 246 236 225 215
f 234 237 218 217
f 230 223 234 217
f 248 239 237 234
f 500 465 242 238
f 252 326 290 249
f 290 474 504 249
f 504 488 256 249
f 256 339 252 249
f 358 339 256 250
f 256 488 481 250
f 481 482 316 250
f 316 387 358 250
f 389 346 279 251
f 279 503 475 251
f 475 480 297 251
f 297 283 389 251
f 260 312 326 252
f 339 388 260 252
f 264 336 385 253
f 328 261 338 253
f 338 349 264 253
f 470 501 307 254
f 307 347 356 254
f 356 280 319 254
f 319 469 470 254
f 284 499 467 255
f 467 461 342 255
f 342 374 368 255
f 368 393 284 255
f 472 471 299 257
f 299 376 394 257
f 394 380 281 257
f 281 502 472 257
f 396 355 259 258
f 259 500 466 258
f 466 468 381 258
f 381 340 396 258
f 355 371 310 259
f 310 271 500 259
f 333 277 312 260
f 388 287 333 260
f 328 379 353 261
f 353 310 371 261
f 371 325 338 261
f 306 304 278 262
f 278 323 265 262
f 265 326 312 262
f 312 277 306 262
f 363 362 370 263
f 370 277 333 263
f 333 287 302 263
f 302 497 363 263
f 320 332 336 264
f 349 315 320 264
f 323 330 285 265
f 285 290 326 265
f 268 357 327 266
f 327 499 284 266
f 284 393 364 266
f 364 352 268 266
f 286 343 386 267
f 386 353 379 267
f 335 360 357 268
f 352 359 335 268
f 324 364 393 269
f 393 368 369 269
f 369 345 301 269
f 301 314 324 269
f 367 374 375 270
f 375 366 384 270
f 384 348 309 270
f 309 295 367 270
f 310 353 386 271
f 386 343 395 271
f 395 465 500 271
f 275 302 287 272
f 287 388 351 272
f 351 354 276 272
f 276 392 275 272
f 343 286 321 273
f 321 334 362 273
f 362 363 391 273
f 391 395 343 273
f 377 359 352 274
f 352 364 324 274
f 324 314 303 274
f 303 317 377 274
f 464 497 302 275
f 392 462 464 275
f 354 373 288 276
f 288 344 392 276
f 370 337 306 277
f 346 372 291 279
f 291 487 503 279
f 356 361 383 280
f 383 293 376 280
f 376 299 319 280
f 380 350 390 281
f 390 473 502 281
f 294 378 382 282
f 382 389 283 282
f 283 292 318 282
f 318 305 294 282
f 297 331 292 283
f 330 483 477 285
f 477 474 290 285
f 373 365 341 288
f 341 289 344 288
f 313 498 344 289
f 341 378 366 289
f 366 375 313 289
f 372 387 316 291
f 316 482 487 291
f 383 396 340 293
f 340 357 360 293
f 360 394 376 293
f 384 366 378 294
f 305 348 384 294
f 345 369 367 295
f 308 334 321 296
f 480 486 331 297
f 478 473 390 298
f 390 350 300 298
f 300 322 329 298
f 329 484 478 298
f 471 469 319 299
f 350 359 377 300
f 377 317 322 300
f 306 337 311 304
f 501 476 315 307
f 315 349 347 307
f 311 337 334 308
f 342 461 498 313
f 375 374 342 313
f 476 479 320 315
f 479 485 332 320
f 347 349 338 325
f 371 355 361 325
f 361 356 347 325
f 357 340 381 327
f 381 468 499 327
f 337 370 362 334
f 380 394 360 335
f 359 350 380 335
f 358 351 388 339
f 365 382 378 341
f 498 462 392 344
f 365 373 372 346
f 389 382 365 346
f 358 387 354 351
f 387 372 373 354
f 396 383 361 355
f 497 463 391 363
f 369 368 374 367
f 463 465 395 391
f 445 458 403 397
f 403 398 405 397
f 405 406 401 397
f 401 456 445 397
f 452 486 415 398
f 415 407 405 398
f 403 448 452 398
f 409 411 413 399
f 413 474 477 399
f 477 483 412 399
f 412 408 409 399
f 416 487 482 400
f 482 481 411 400
f 411 409 404 400
f 404 402 416 400
f 406 414 410 401
f 410 446 456 401
f 480 475 416 402
f 404 407 415 402
f 415 486 480 402
f 458 494 448 403
f 409 408 407 404
f 407 408 406 405
f 408 412 414 406
f 414 455 449 410
f 449 495 446 410
f 481 488 413 411
f 483 455 414 412
f 488 504 474 413
f 475 503 487 416
f 425 424 422 417
f 422 469 471 417
f 471 472 430 417
f 430 418 425 417
f 430 473 478 418
f 478 484 435 418
f 435 426 425 418
f 423 426 435 419
f 435 484 453 419
f 453 450 436 419
f 436 421 423 419
f 432 427 428 420
f 428 431 433 420
f 433 447 454 420
f 454 485 432 420
f 436 439 444 421
f 444 437 431 421
f 431 428 423 421
f 424 434 429 422
f 429 470 469 422
f 428 427 426 423
f 425 426 427 424
f 427 432 434 424
f 476 501 470 429
f 434 479 476 429
f 472 502 473 430
f 437 438 433 431
f 485 479 434 432
f 438 493 447 433
f 450 492 439 436
